<?xml version="1.0" encoding="utf-8"?>
<!-- Generator: Adobe Illustrator 15.0.2, SVG Export Plug-In . SVG Version: 6.00 Build 0)  -->
<!DOCTYPE svg PUBLIC "-//W3C//DTD SVG 1.1//EN" "http://www.w3.org/Graphics/SVG/1.1/DTD/svg11.dtd">
<svg version="1.1" id="Layer_1" xmlns="http://www.w3.org/2000/svg" xmlns:xlink="http://www.w3.org/1999/xlink" x="0px" y="0px"
	 width="300.5px" height="168.737px" viewBox="0 0 300.5 168.737" enable-background="new 0 0 300.5 168.737" xml:space="preserve">
<g>
	<path fill="#F27328" d="M-1328.146,162.045h-283.655V10.127h283.655V162.045z M-1319.719,1.719h-300.5v168.738h300.5V1.719z"/>
	<g>
		<path fill="#F27328" d="M-1409.423,104.706c56.231-10.543,58.34-71.466,41.229-102.987l-28.132,30.865l-24.248-30.865
			l-22.67,30.865l-28.939-30.865c-16.642,30.66-15.402,92.383,41.235,102.987v61.549h87.448c3.711-8.338,5.788-17.565,5.788-27.28
			v-52.67l-71.711,75.972V104.706z"/>
		<path fill="#F27328" d="M-1497.93,140.539c0,9.715,2.076,18.941,5.789,27.28h50.206V143.54l-55.995-55.672V140.539z"/>
	</g>
</g>
<g>
	<rect x="-1239.103" y="7.021" fill="#FFFFFF" width="292.086" height="160.332"/>
	<path fill="#4B95D0" d="M-959.109,49.544c0,8.229-6.688,14.897-14.928,14.897c-8.23,0-14.916-6.669-14.916-14.897
		c0-8.222,6.686-14.886,14.916-14.886C-965.796,34.658-959.109,41.322-959.109,49.544 M-1077.234,114.278h118.543l-37.918-43.002
		l-13.439,13.826l-24.734-35.082L-1077.234,114.278z"/>
	<g>
		<path fill="#4B95D0" d="M-1137.935,34.227c-0.053,6.977-5.75,12.586-12.725,12.533c-6.973-0.054-12.58-5.75-12.529-12.727
			c0.055-6.97,5.75-12.577,12.723-12.525C-1143.496,21.562-1137.882,27.256-1137.935,34.227z"/>
		<g>
			<path fill="#4B95D0" d="M-1165.083,93.767l-0.404,53.146c-0.025,3.467,2.768,6.301,6.232,6.326l0.4,0.004
				c3.467,0.025,6.299-2.766,6.326-6.232l0.203-26.785l0.076-10.06l0.008-1.111c0.004-0.492,0.408-0.891,0.9-0.887
				c0.494,0.004,0.891,0.408,0.889,0.9l-0.01,1.129l-0.076,10.042l-0.201,26.678c-0.027,3.467,2.762,6.299,6.227,6.324l0.402,0.004
				c3.467,0.027,6.299-2.762,6.326-6.229l0.402-53.039L-1165.083,93.767z"/>
			<path fill="#4B95D0" d="M-1126.349,58.751l0.027-3.415c0.027-3.68-2.934-6.68-6.609-6.709l-12.545-0.096l-5.072,11.643
				l-5.199-11.609l-13.096-0.102c-3.676-0.027-6.684,2.932-6.711,6.609l-0.025,3.421c-0.047,0.261-0.08,0.531-0.08,0.81
				l-0.248,32.35c-0.018,2.504,1.996,4.549,4.5,4.568s4.547-1.994,4.568-4.496l0.17-22.492v-0.004l0.004-0.306h0.059
				c0.127-0.337,0.453-0.574,0.83-0.571c0.379,0.004,0.701,0.244,0.824,0.584h0.059l-0.002,0.31l-0.174,22.659l27.703,0.211
				l0.172-22.772l0.004-0.312l0.059,0.002c0.129-0.334,0.451-0.57,0.83-0.566c0.379,0.002,0.699,0.244,0.824,0.578h0.059
				l-0.004,0.311l-0.17,22.5c-0.018,2.5,1.996,4.543,4.5,4.562c2.504,0.021,4.549-1.999,4.568-4.501l0.246-32.354
				C-1126.279,59.287-1126.302,59.017-1126.349,58.751z"/>
		</g>
	</g>
	
		<line fill="none" stroke="#4B95D0" stroke-width="4.6897" stroke-miterlimit="10" x1="-1234.896" y1="114.278" x2="-942.812" y2="114.278"/>
	<path fill="#4B95D0" d="M-947.037,163.143h-283.654V11.227h283.654V163.143z M-938.609,2.818h-300.5v168.737h300.5V2.818z"/>
</g>
<g>
	<rect x="-819.522" y="6.923" fill="#FFFFFF" width="292.082" height="160.333"/>
	<g>
		<g>
			<path fill="#B1CA2E" d="M-547.795,126.249h-50.847l-17.492,37.881h95.346c-0.008-0.06-0.014,0.06-0.022,0v-10.894
				C-520.811,138.324-532.901,126.249-547.795,126.249z"/>
			<path fill="#B1CA2E" d="M-693.333,126.693c-14.902,0-26.994,12.084-26.994,26.988v10.448h104.192l-24.129-37.437H-693.333z"/>
		</g>
		<path fill="#B1CA2E" d="M-568.524,71.556c0,28.275-22.914,51.184-51.176,51.184c-28.258,0-51.164-22.909-51.164-51.184
			c0-28.245,22.906-51.146,51.164-51.146C-591.438,20.409-568.524,43.311-568.524,71.556z"/>
	</g>
	<path fill="#B1CA2E" d="M-528.336,163.044h-283.655V11.126h283.655V163.044z M-519.91,2.718h-300.5v168.738h300.5V2.718z"/>
</g>
<g>
	<rect x="-430.425" y="5.407" fill="#FFFFFF" width="292.082" height="160.333"/>
	<g>
		<path fill="#40656E" d="M-304.167,39.128c0,13.434-10.889,24.321-24.316,24.321s-24.314-10.888-24.314-24.321
			c0-13.424,10.887-24.307,24.314-24.307S-304.167,25.705-304.167,39.128z"/>
		<g>
			<path fill="#40656E" d="M-281.494,86.189v-6.578c0-7.086-5.744-12.825-12.824-12.825h-24.158l-9.596,22.495l-10.184-22.283
				h-25.221c-7.08,0-12.826,5.743-12.826,12.824v6.588c-0.088,0.504-0.146,1.024-0.146,1.561v62.301c0,4.82,3.91,8.732,8.734,8.732
				c4.818,0,8.727-3.908,8.729-8.727V106.96v-0.009v-0.589h0.115c0.242-0.648,0.865-1.108,1.592-1.108
				c0.729,0,1.35,0.46,1.592,1.108h0.117v0.598v43.637h53.348v-43.854v-0.602h0.113c0.242-0.641,0.861-1.1,1.592-1.1
				c0.729,0,1.352,0.459,1.592,1.1h0.115v0.601v43.329c0.002,4.815,3.912,8.721,8.732,8.721s8.729-3.918,8.729-8.735V87.75
				C-281.349,87.216-281.402,86.699-281.494,86.189z"/>
		</g>
		<rect x="-355.57" y="154.185" fill="#40656E" width="53.348" height="11.555"/>
	</g>
	<path fill="#40656E" d="M-138.357,161.529h-283.654V9.611h283.654V161.529z M-129.93,1.203h-300.5v168.736h300.5V1.203z"/>
</g>
<g>
	<rect x="4.205" y="4.206" fill="#FFFFFF" width="292.082" height="160.332"/>
	<path fill="#6B2842" d="M73.828,52.961c0-15.44,12.551-27.945,27.992-27.945c15.463,0,27.996,12.505,27.996,27.945
		c0,15.428-12.533,27.944-27.996,27.944C86.379,80.905,73.828,68.389,73.828,52.961 M279.971,148.032L208.125,39.269l-46.395,65.816
		L136.51,79.151l-59.98,68.88H279.971z"/>
	<path fill="#6B2842" d="M292.072,160.327H8.418V8.41h283.654V160.327z M300.5,0.001H0v168.735h300.5V0.001z"/>
</g>
</svg>
