<?xml version="1.0" encoding="utf-8"?>
<!-- Generator: Adobe Illustrator 15.0.0, SVG Export Plug-In . SVG Version: 6.00 Build 0)  -->
<!DOCTYPE svg PUBLIC "-//W3C//DTD SVG 1.1//EN" "http://www.w3.org/Graphics/SVG/1.1/DTD/svg11.dtd" [
	<!ENTITY ns_extend "http://ns.adobe.com/Extensibility/1.0/">
	<!ENTITY ns_ai "http://ns.adobe.com/AdobeIllustrator/10.0/">
	<!ENTITY ns_graphs "http://ns.adobe.com/Graphs/1.0/">
	<!ENTITY ns_vars "http://ns.adobe.com/Variables/1.0/">
	<!ENTITY ns_imrep "http://ns.adobe.com/ImageReplacement/1.0/">
	<!ENTITY ns_sfw "http://ns.adobe.com/SaveForWeb/1.0/">
	<!ENTITY ns_custom "http://ns.adobe.com/GenericCustomNamespace/1.0/">
	<!ENTITY ns_adobe_xpath "http://ns.adobe.com/XPath/1.0/">
]>
<svg version="1.1" id="Layer_1" xmlns:x="&ns_extend;" xmlns:i="&ns_ai;" xmlns:graph="&ns_graphs;"
	 xmlns="http://www.w3.org/2000/svg" xmlns:xlink="http://www.w3.org/1999/xlink" x="0px" y="0px" width="75px" height="60px"
	 viewBox="0 0 75 60" enable-background="new 0 0 75 60" xml:space="preserve">
<metadata>
	<sfw  xmlns="&ns_sfw;">
		<slices></slices>
		<sliceSourceBounds  x="201.964" y="120.5" width="75.036" height="60" bottomLeftOrigin="true"></sliceSourceBounds>
	</sfw>
</metadata>
<rect x="2" y="2" fill="#FFFFFF" width="71" height="56"/>
<g>
	<rect x="2.807" y="19.628" fill="#D1D3D4" width="69.992" height="0.27"/>
</g>
<g>
	<rect x="2.807" y="42.351" fill="#D1D3D4" width="69.992" height="0.27"/>
</g>
<g>
	<g>
		<rect x="8.327" y="23.562" fill="#B1CA35" width="0.538" height="14.206"/>
	</g>
	<g>
		<rect x="9.676" y="22.753" fill="#B1CA35" width="0.539" height="15.015"/>
	</g>
	<g>
		<rect x="10.215" y="22.753" fill="#B1CA35" width="0.539" height="15.015"/>
	</g>
	<g>
		<rect x="10.485" y="22.753" fill="#B1CA35" width="0.538" height="15.015"/>
	</g>
	<g>
		<rect x="11.024" y="24.102" fill="#B1CA35" width="0.539" height="10.969"/>
	</g>
	<g>
		<rect x="10.755" y="21.403" fill="#B1CA35" width="0.538" height="17.174"/>
	</g>
	<g>
		<rect x="11.294" y="19.628" fill="#B1CA35" width="0.539" height="21.087"/>
	</g>
	<g>
		<rect x="11.834" y="17.47" fill="#B1CA35" width="0.539" height="23.245"/>
	</g>
	<g>
		<rect x="12.104" y="23.134" fill="#B1CA35" width="0.539" height="17.871"/>
	</g>
	<g>
		<rect x="12.643" y="22.325" fill="#B1CA35" width="0.539" height="19.219"/>
	</g>
	<g>
		<rect x="13.722" y="18.548" fill="#B1CA35" width="0.539" height="23.536"/>
	</g>
	<g>
		<rect x="13.991" y="24.642" fill="#B1CA35" width="0.539" height="11.237"/>
	</g>
	<g>
		<rect x="14.262" y="24.642" fill="#B1CA35" width="0.539" height="11.237"/>
	</g>
	<g>
		<rect x="14.531" y="17.47" fill="#B1CA35" width="0.539" height="28.164"/>
	</g>
	<g>
		<rect x="14.801" y="29.451" fill="#B1CA35" width="0.539" height="3.646"/>
	</g>
	<g>
		<rect x="15.071" y="29.721" fill="#B1CA35" width="0.538" height="3.107"/>
	</g>
	<g>
		<rect x="15.34" y="29.991" fill="#B1CA35" width="0.54" height="2.567"/>
	</g>
	<g>
		<rect x="15.61" y="30.261" fill="#B1CA35" width="0.539" height="2.027"/>
	</g>
	<g>
		<rect x="32.47" y="30.261" fill="#B1CA35" width="0.539" height="2.027"/>
	</g>
	<g>
		<rect x="32.74" y="29.991" fill="#B1CA35" width="0.538" height="2.567"/>
	</g>
	<g>
		<rect x="15.88" y="30.53" fill="#B1CA35" width="0.539" height="1.488"/>
	</g>
	<g>
		<rect x="16.149" y="30.8" fill="#B1CA35" width="0.539" height="0.949"/>
	</g>
	<g>
		<rect x="16.419" y="30.8" fill="#B1CA35" width="0.539" height="0.949"/>
	</g>
	<g>
		<rect x="16.689" y="29.721" fill="#B1CA35" width="0.539" height="2.567"/>
	</g>
	<g>
		<rect x="16.959" y="27.562" fill="#B1CA35" width="0.539" height="6.884"/>
	</g>
	<g>
		<rect x="17.229" y="28.911" fill="#B1CA35" width="0.539" height="6.885"/>
	</g>
	<g>
		<rect x="17.498" y="28.911" fill="#B1CA35" width="0.54" height="6.885"/>
	</g>
	<g>
		<rect x="17.769" y="26.499" fill="#B1CA35" width="0.539" height="11.269"/>
	</g>
	<g>
		<rect x="18.038" y="27.562" fill="#B1CA35" width="0.539" height="8.904"/>
	</g>
	<g>
		<rect x="18.308" y="27.562" fill="#B1CA35" width="0.539" height="8.904"/>
	</g>
	<g>
		<rect x="18.577" y="27.833" fill="#B1CA35" width="0.539" height="8.903"/>
	</g>
	<g>
		<rect x="18.848" y="27.833" fill="#B1CA35" width="0.539" height="10.744"/>
	</g>
	<g>
		<rect x="19.117" y="27.833" fill="#B1CA35" width="0.539" height="10.744"/>
	</g>
	<g>
		<rect x="19.387" y="26.499" fill="#B1CA35" width="0.539" height="12.078"/>
	</g>
	<g>
		<rect x="19.656" y="25.013" fill="#B1CA35" width="0.539" height="13.969"/>
	</g>
	<g>
		<rect x="19.927" y="19.628" fill="#B1CA35" width="0.539" height="21.734"/>
	</g>
	<g>
		<rect x="20.196" y="18.007" fill="#B1CA35" width="0.539" height="23.896"/>
	</g>
	<g>
		<rect x="20.466" y="9.067" fill="#B1CA35" width="0.539" height="31.485"/>
	</g>
	<g>
		<rect x="20.735" y="9.067" fill="#B1CA35" width="0.539" height="31.485"/>
	</g>
	<g>
		<rect x="21.005" y="10.147" fill="#B1CA35" width="0.54" height="33.643"/>
	</g>
	<g>
		<rect x="21.275" y="10.147" fill="#B1CA35" width="0.538" height="31.755"/>
	</g>
	<g>
		<rect x="21.545" y="11.226" fill="#B1CA35" width="0.539" height="30.677"/>
	</g>
	<g>
		<rect x="21.814" y="11.226" fill="#B1CA35" width="0.539" height="30.677"/>
	</g>
	<g>
		<rect x="22.084" y="11.226" fill="#B1CA35" width="0.539" height="32.338"/>
	</g>
	<g>
		<rect x="22.354" y="9.067" fill="#B1CA35" width="0.539" height="35.306"/>
	</g>
	<g>
		<rect x="22.624" y="9.067" fill="#B1CA35" width="0.538" height="35.306"/>
	</g>
	<g>
		<rect x="22.894" y="9.067" fill="#B1CA35" width="0.539" height="37.55"/>
	</g>
	<g>
		<rect x="23.163" y="21.149" fill="#B1CA35" width="0.539" height="25.468"/>
	</g>
	<g>
		<rect x="23.433" y="21.149" fill="#B1CA35" width="0.539" height="19.565"/>
	</g>
	<g>
		<rect x="23.703" y="21.149" fill="#B1CA35" width="0.538" height="19.565"/>
	</g>
	<g>
		<rect x="23.973" y="21.149" fill="#B1CA35" width="0.539" height="19.565"/>
	</g>
	<g>
		<rect x="24.242" y="18.32" fill="#B1CA35" width="0.539" height="23.582"/>
	</g>
	<g>
		<rect x="24.512" y="18.32" fill="#B1CA35" width="0.539" height="23.582"/>
	</g>
	<g>
		<rect x="24.782" y="18.32" fill="#B1CA35" width="0.538" height="23.582"/>
	</g>
	<g>
		<rect x="25.051" y="15.536" fill="#B1CA35" width="0.54" height="30.542"/>
	</g>
	<g>
		<rect x="25.321" y="15.536" fill="#B1CA35" width="0.539" height="29.24"/>
	</g>
	<g>
		<rect x="25.591" y="14.727" fill="#B1CA35" width="0.539" height="29.24"/>
	</g>
	<g>
		<rect x="25.861" y="14.727" fill="#B1CA35" width="0.538" height="26.817"/>
	</g>
	<g>
		<rect x="26.131" y="17.47" fill="#B1CA35" width="0.538" height="24.074"/>
	</g>
	<g>
		<rect x="26.4" y="20.117" fill="#B1CA35" width="0.539" height="20.212"/>
	</g>
	<g>
		<rect x="26.67" y="20.117" fill="#B1CA35" width="0.539" height="20.212"/>
	</g>
	<g>
		<rect x="26.94" y="20.117" fill="#B1CA35" width="0.538" height="22.503"/>
	</g>
	<g>
		<rect x="27.209" y="19.038" fill="#B1CA35" width="0.54" height="23.582"/>
	</g>
	<g>
		<rect x="27.479" y="19.577" fill="#B1CA35" width="0.539" height="23.583"/>
	</g>
	<g>
		<rect x="27.749" y="19.577" fill="#B1CA35" width="0.539" height="23.583"/>
	</g>
	<g>
		<rect x="28.019" y="22.545" fill="#B1CA35" width="0.54" height="19.806"/>
	</g>
	<g>
		<rect x="28.289" y="22.545" fill="#B1CA35" width="0.538" height="19.806"/>
	</g>
	<g>
		<rect x="28.559" y="23.624" fill="#B1CA35" width="0.539" height="17.378"/>
	</g>
	<g>
		<rect x="28.828" y="23.624" fill="#B1CA35" width="0.539" height="17.378"/>
	</g>
	<g>
		<rect x="29.098" y="24.703" fill="#B1CA35" width="0.539" height="15.219"/>
	</g>
	<g>
		<rect x="29.367" y="24.703" fill="#B1CA35" width="0.539" height="15.219"/>
	</g>
	<g>
		<rect x="29.638" y="26.052" fill="#B1CA35" width="0.539" height="12.792"/>
	</g>
	<g>
		<rect x="29.907" y="26.052" fill="#B1CA35" width="0.539" height="12.792"/>
	</g>
	<g>
		<rect x="30.177" y="24.703" fill="#B1CA35" width="0.539" height="14.949"/>
	</g>
	<g>
		<rect x="30.446" y="24.703" fill="#B1CA35" width="0.539" height="14.949"/>
	</g>
	<g>
		<rect x="30.717" y="24.703" fill="#B1CA35" width="0.539" height="12.792"/>
	</g>
	<g>
		<rect x="30.986" y="19.577" fill="#B1CA35" width="0.539" height="22.325"/>
	</g>
	<g>
		<rect x="31.256" y="22.917" fill="#B1CA35" width="0.539" height="17.636"/>
	</g>
	<g>
		<rect x="31.526" y="23.456" fill="#B1CA35" width="0.538" height="17.637"/>
	</g>
	<g>
		<rect x="31.796" y="23.995" fill="#B1CA35" width="0.539" height="17.637"/>
	</g>
	<g>
		<path fill="#B1CA35" d="M32.604,36.467h-0.539v-9.633h0.539v3.157h0.135v2.567h-0.135V36.467z M32.335,32.289h0.135v-2.028h-0.135
			V32.289z"/>
	</g>
	<g>
		<rect x="36.111" y="19.577" fill="#B1CA35" width="0.54" height="22.325"/>
	</g>
	<g>
		<rect x="36.382" y="22.917" fill="#B1CA35" width="0.538" height="17.636"/>
	</g>
	<g>
		<rect x="36.651" y="23.456" fill="#B1CA35" width="0.539" height="17.637"/>
	</g>
	<g>
		<rect x="36.921" y="23.995" fill="#B1CA35" width="0.539" height="17.637"/>
	</g>
	<g>
		<rect x="37.191" y="23.058" fill="#B1CA35" width="0.539" height="15.297"/>
	</g>
	<g>
		<rect x="37.461" y="22.248" fill="#B1CA35" width="0.538" height="16.106"/>
	</g>
	<g>
		<rect x="37.73" y="22.248" fill="#B1CA35" width="0.539" height="16.106"/>
	</g>
	<g>
		<rect x="38" y="22.248" fill="#B1CA35" width="0.539" height="14.758"/>
	</g>
	<g>
		<rect x="38.27" y="22.248" fill="#B1CA35" width="0.54" height="14.758"/>
	</g>
	<g>
		<rect x="38.54" y="21.438" fill="#B1CA35" width="0.538" height="16.377"/>
	</g>
	<g>
		<rect x="38.81" y="21.438" fill="#B1CA35" width="0.539" height="16.377"/>
	</g>
	<g>
		<rect x="39.079" y="20.899" fill="#B1CA35" width="0.539" height="17.994"/>
	</g>
	<g>
		<rect x="39.349" y="18.548" fill="#B1CA35" width="0.539" height="20.346"/>
	</g>
	<g>
		<rect x="39.619" y="17.198" fill="#B1CA35" width="0.538" height="24.164"/>
	</g>
	<g>
		<rect x="39.888" y="17.198" fill="#B1CA35" width="0.54" height="24.164"/>
	</g>
	<g>
		<rect x="40.158" y="14.727" fill="#B1CA35" width="0.539" height="26.905"/>
	</g>
	<g>
		<rect x="40.428" y="16.345" fill="#B1CA35" width="0.539" height="26.905"/>
	</g>
	<g>
		<rect x="40.697" y="17.155" fill="#B1CA35" width="0.539" height="27.983"/>
	</g>
	<g>
		<rect x="40.968" y="21.403" fill="#B1CA35" width="0.539" height="23.735"/>
	</g>
	<g>
		<rect x="41.237" y="21.403" fill="#B1CA35" width="0.539" height="19.149"/>
	</g>
	<g>
		<rect x="41.507" y="26.585" fill="#B1CA35" width="0.539" height="13.968"/>
	</g>
	<g>
		<rect x="41.777" y="27.665" fill="#B1CA35" width="0.538" height="9.382"/>
	</g>
	<g>
		<rect x="42.046" y="27.665" fill="#B1CA35" width="0.54" height="9.382"/>
	</g>
	<g>
		<rect x="42.316" y="24.642" fill="#B1CA35" width="0.539" height="15.062"/>
	</g>
	<g>
		<rect x="42.586" y="25.45" fill="#B1CA35" width="0.539" height="14.254"/>
	</g>
	<g>
		<rect x="42.856" y="25.45" fill="#B1CA35" width="0.538" height="14.254"/>
	</g>
	<g>
		<rect x="43.125" y="25.45" fill="#B1CA35" width="0.539" height="15.602"/>
	</g>
	<g>
		<rect x="43.396" y="22.248" fill="#B1CA35" width="0.539" height="19.344"/>
	</g>
	<g>
		<rect x="43.665" y="22.248" fill="#B1CA35" width="0.539" height="19.344"/>
	</g>
	<g>
		<rect x="43.935" y="23.597" fill="#B1CA35" width="0.539" height="19.344"/>
	</g>
	<g>
		<rect x="44.204" y="25.216" fill="#B1CA35" width="0.539" height="16.915"/>
	</g>
	<g>
		<rect x="44.474" y="25.755" fill="#B1CA35" width="0.54" height="13.949"/>
	</g>
	<g>
		<rect x="44.744" y="25.755" fill="#B1CA35" width="0.539" height="13.949"/>
	</g>
	<g>
		<rect x="45.014" y="28.183" fill="#B1CA35" width="0.539" height="7.79"/>
	</g>
	<g>
		<rect x="45.283" y="27.644" fill="#B1CA35" width="0.539" height="7.789"/>
	</g>
	<g>
		<rect x="45.554" y="27.644" fill="#B1CA35" width="0.539" height="7.789"/>
	</g>
	<g>
		<rect x="45.823" y="27.374" fill="#B1CA35" width="0.539" height="7.789"/>
	</g>
	<g>
		<rect x="46.093" y="27.374" fill="#B1CA35" width="0.539" height="7.789"/>
	</g>
	<g>
		<rect x="46.362" y="28.183" fill="#B1CA35" width="0.539" height="7.79"/>
	</g>
	<g>
		<rect x="46.632" y="28.183" fill="#B1CA35" width="0.539" height="6.711"/>
	</g>
	<g>
		<rect x="46.902" y="28.452" fill="#B1CA35" width="0.539" height="6.711"/>
	</g>
	<g>
		<rect x="47.172" y="28.452" fill="#B1CA35" width="0.539" height="6.711"/>
	</g>
	<g>
		<rect x="47.441" y="28.992" fill="#B1CA35" width="0.539" height="6.171"/>
	</g>
	<g>
		<rect x="47.711" y="28.722" fill="#B1CA35" width="0.539" height="6.172"/>
	</g>
	<g>
		<rect x="47.981" y="28.722" fill="#B1CA35" width="0.539" height="6.172"/>
	</g>
	<g>
		<rect x="48.251" y="28.722" fill="#B1CA35" width="0.539" height="6.172"/>
	</g>
	<g>
		<rect x="48.521" y="28.722" fill="#B1CA35" width="0.539" height="6.172"/>
	</g>
	<g>
		<rect x="48.791" y="28.452" fill="#B1CA35" width="0.538" height="6.172"/>
	</g>
	<g>
		<rect x="49.06" y="28.452" fill="#B1CA35" width="0.54" height="6.172"/>
	</g>
	<g>
		<rect x="49.33" y="28.722" fill="#B1CA35" width="0.539" height="6.172"/>
	</g>
	<g>
		<rect x="49.6" y="28.722" fill="#B1CA35" width="0.539" height="6.172"/>
	</g>
	<g>
		<rect x="49.869" y="28.183" fill="#B1CA35" width="0.539" height="6.171"/>
	</g>
	<g>
		<rect x="50.139" y="28.183" fill="#B1CA35" width="0.54" height="6.171"/>
	</g>
	<g>
		<rect x="50.409" y="28.183" fill="#B1CA35" width="0.538" height="6.171"/>
	</g>
	<g>
		<rect x="50.679" y="28.183" fill="#B1CA35" width="0.539" height="6.171"/>
	</g>
	<g>
		<rect x="50.948" y="28.183" fill="#B1CA35" width="0.539" height="6.171"/>
	</g>
	<g>
		<rect x="51.218" y="28.722" fill="#B1CA35" width="0.539" height="6.172"/>
	</g>
	<g>
		<rect x="51.488" y="28.722" fill="#B1CA35" width="0.538" height="6.172"/>
	</g>
	<g>
		<rect x="51.758" y="27.374" fill="#B1CA35" width="0.539" height="6.171"/>
	</g>
	<g>
		<rect x="52.027" y="27.374" fill="#B1CA35" width="0.539" height="6.171"/>
	</g>
	<g>
		<rect x="52.297" y="27.644" fill="#B1CA35" width="0.539" height="6.171"/>
	</g>
	<g>
		<rect x="52.567" y="28.183" fill="#B1CA35" width="0.538" height="6.171"/>
	</g>
	<g>
		<rect x="52.837" y="28.183" fill="#B1CA35" width="0.539" height="5.632"/>
	</g>
	<g>
		<rect x="53.106" y="28.183" fill="#B1CA35" width="0.539" height="7.25"/>
	</g>
	<g>
		<rect x="53.646" y="28.183" fill="#B1CA35" width="0.538" height="7.79"/>
	</g>
	<g>
		<rect x="53.916" y="26.294" fill="#B1CA35" width="0.539" height="9.139"/>
	</g>
	<g>
		<rect x="54.186" y="26.294" fill="#B1CA35" width="0.539" height="8.33"/>
	</g>
	<g>
		<rect x="54.455" y="27.644" fill="#B1CA35" width="0.54" height="6.98"/>
	</g>
	<g>
		<rect x="54.726" y="27.644" fill="#B1CA35" width="0.538" height="6.171"/>
	</g>
	<g>
		<rect x="54.995" y="28.452" fill="#B1CA35" width="0.539" height="5.362"/>
	</g>
	<g>
		<rect x="55.265" y="28.452" fill="#B1CA35" width="0.539" height="4.822"/>
	</g>
	<g>
		<rect x="55.534" y="28.452" fill="#B1CA35" width="0.539" height="4.822"/>
	</g>
	<g>
		<rect x="55.805" y="26.834" fill="#B1CA35" width="0.538" height="6.44"/>
	</g>
	<g>
		<rect x="56.073" y="27.644" fill="#B1CA35" width="0.539" height="6.44"/>
	</g>
	<g>
		<rect x="56.343" y="28.183" fill="#B1CA35" width="0.54" height="6.441"/>
	</g>
	<g>
		<rect x="56.613" y="28.722" fill="#B1CA35" width="0.539" height="6.441"/>
	</g>
	<g>
		<rect x="56.883" y="28.722" fill="#B1CA35" width="0.539" height="6.441"/>
	</g>
	<g>
		<rect x="57.153" y="30.071" fill="#B1CA35" width="0.539" height="2.664"/>
	</g>
	<g>
		<rect x="57.423" y="30.071" fill="#B1CA35" width="0.539" height="2.664"/>
	</g>
	<g>
		<rect x="57.692" y="29.262" fill="#B1CA35" width="0.539" height="4.553"/>
	</g>
	<g>
		<rect x="57.962" y="29.262" fill="#B1CA35" width="0.539" height="4.553"/>
	</g>
	<g>
		<rect x="58.232" y="29.262" fill="#B1CA35" width="0.539" height="5.362"/>
	</g>
	<g>
		<rect x="58.502" y="30.61" fill="#B1CA35" width="0.539" height="4.014"/>
	</g>
	<g>
		<rect x="58.771" y="31.689" fill="#B1CA35" width="0.539" height="4.014"/>
	</g>
	<g>
		<rect x="59.041" y="29.262" fill="#B1CA35" width="0.539" height="6.441"/>
	</g>
	<g>
		<rect x="59.311" y="28.452" fill="#B1CA35" width="0.539" height="6.441"/>
	</g>
	<g>
		<rect x="59.58" y="29.262" fill="#B1CA35" width="0.539" height="3.474"/>
	</g>
	<g>
		<rect x="59.851" y="28.183" fill="#B1CA35" width="0.539" height="4.553"/>
	</g>
	<g>
		<rect x="60.12" y="29.531" fill="#B1CA35" width="0.539" height="6.711"/>
	</g>
	<g>
		<rect x="60.39" y="29.531" fill="#B1CA35" width="0.539" height="6.711"/>
	</g>
	<g>
		<rect x="60.659" y="29.531" fill="#B1CA35" width="0.54" height="4.283"/>
	</g>
	<g>
		<rect x="60.93" y="29.531" fill="#B1CA35" width="0.539" height="4.283"/>
	</g>
	<g>
		<rect x="53.376" y="28.183" fill="#B1CA35" width="0.539" height="6.171"/>
	</g>
	<g>
		<rect x="-0.036" y="27.104" fill="#B1CA35" width="0.539" height="6.171"/>
	</g>
	<g>
		<rect x="0.233" y="27.104" fill="#B1CA35" width="0.54" height="6.171"/>
	</g>
	<g>
		<rect x="0.504" y="27.644" fill="#B1CA35" width="0.539" height="6.171"/>
	</g>
	<g>
		<rect x="0.773" y="27.644" fill="#B1CA35" width="0.539" height="6.171"/>
	</g>
	<g>
		<rect x="1.044" y="26.294" fill="#B1CA35" width="0.538" height="6.171"/>
	</g>
	<g>
		<rect x="1.312" y="26.294" fill="#B1CA35" width="0.539" height="6.171"/>
	</g>
	<g>
		<rect x="1.583" y="26.564" fill="#B1CA35" width="0.539" height="6.171"/>
	</g>
	<g>
		<rect x="1.853" y="27.104" fill="#B1CA35" width="0.539" height="6.171"/>
	</g>
	<g>
		<rect x="2.122" y="27.104" fill="#B1CA35" width="0.539" height="5.632"/>
	</g>
	<g>
		<rect x="2.392" y="27.104" fill="#B1CA35" width="0.539" height="7.25"/>
	</g>
	<g>
		<rect x="2.932" y="27.104" fill="#B1CA35" width="0.539" height="7.79"/>
	</g>
	<g>
		<rect x="3.201" y="25.216" fill="#B1CA35" width="0.539" height="9.138"/>
	</g>
	<g>
		<rect x="3.471" y="25.216" fill="#B1CA35" width="0.539" height="8.329"/>
	</g>
	<g>
		<rect x="3.741" y="26.564" fill="#B1CA35" width="0.539" height="6.98"/>
	</g>
	<g>
		<rect x="4.011" y="26.564" fill="#B1CA35" width="0.539" height="6.171"/>
	</g>
	<g>
		<rect x="4.28" y="27.374" fill="#B1CA35" width="0.539" height="5.361"/>
	</g>
	<g>
		<rect x="4.55" y="27.374" fill="#B1CA35" width="0.539" height="4.821"/>
	</g>
	<g>
		<rect x="4.82" y="27.374" fill="#B1CA35" width="0.538" height="4.821"/>
	</g>
	<g>
		<rect x="5.09" y="25.755" fill="#B1CA35" width="0.539" height="6.44"/>
	</g>
	<g>
		<rect x="5.359" y="26.564" fill="#B1CA35" width="0.539" height="6.44"/>
	</g>
	<g>
		<rect x="5.629" y="27.104" fill="#B1CA35" width="0.539" height="6.441"/>
	</g>
	<g>
		<rect x="5.899" y="27.644" fill="#B1CA35" width="0.539" height="6.44"/>
	</g>
	<g>
		<rect x="6.169" y="27.644" fill="#B1CA35" width="0.539" height="6.44"/>
	</g>
	<g>
		<rect x="6.438" y="28.992" fill="#B1CA35" width="0.538" height="2.664"/>
	</g>
	<g>
		<rect x="6.708" y="28.992" fill="#B1CA35" width="0.539" height="2.664"/>
	</g>
	<g>
		<rect x="6.978" y="28.183" fill="#B1CA35" width="0.539" height="4.553"/>
	</g>
	<g>
		<rect x="7.248" y="28.183" fill="#B1CA35" width="0.538" height="4.553"/>
	</g>
	<g>
		<rect x="7.518" y="28.183" fill="#B1CA35" width="0.539" height="5.362"/>
	</g>
	<g>
		<rect x="7.787" y="29.531" fill="#B1CA35" width="0.539" height="4.014"/>
	</g>
	<g>
		<rect x="8.057" y="30.61" fill="#B1CA35" width="0.539" height="4.014"/>
	</g>
	<g>
		<rect x="2.662" y="27.104" fill="#B1CA35" width="0.539" height="6.171"/>
	</g>
	<g>
		<path fill="#B1CA35" d="M33.684,36.507h-0.539v-4.219h-0.136v-2.027h0.136v-5.558h0.539V36.507z M33.279,32.019h0.135V30.53
			h-0.135V32.019z"/>
	</g>
	<g>
		<rect x="33.414" y="22.107" fill="#B1CA35" width="0.539" height="18.445"/>
	</g>
	<g>
		<rect x="33.684" y="23.456" fill="#B1CA35" width="0.539" height="17.637"/>
	</g>
	<g>
		<rect x="33.954" y="23.995" fill="#B1CA35" width="0.539" height="17.637"/>
	</g>
	<g>
		<rect x="34.224" y="23.058" fill="#B1CA35" width="0.539" height="13.409"/>
	</g>
	<g>
		<rect x="34.493" y="20.899" fill="#B1CA35" width="0.539" height="15.567"/>
	</g>
	<g>
		<rect x="34.763" y="20.899" fill="#B1CA35" width="0.539" height="18.805"/>
	</g>
	<g>
		<rect x="35.032" y="20.899" fill="#B1CA35" width="0.54" height="17.186"/>
	</g>
	<g>
		<rect x="35.303" y="21.978" fill="#B1CA35" width="0.538" height="16.107"/>
	</g>
	<g>
		<rect x="35.572" y="21.978" fill="#B1CA35" width="0.539" height="16.107"/>
	</g>
	<g>
		<rect x="35.842" y="20.63" fill="#B1CA35" width="0.539" height="16.106"/>
	</g>
	<g>
		<rect x="13.183" y="22.325" fill="#B1CA35" width="0.539" height="19.219"/>
	</g>
	<g>
		<rect x="13.452" y="22.325" fill="#B1CA35" width="0.539" height="14.955"/>
	</g>
	<g>
		<rect x="12.913" y="18.819" fill="#B1CA35" width="0.538" height="18.461"/>
	</g>
	<g>
		<rect x="12.373" y="23.134" fill="#B1CA35" width="0.539" height="11.127"/>
	</g>
	<g>
		<rect x="11.564" y="21.944" fill="#B1CA35" width="0.538" height="14.744"/>
	</g>
	<g>
		<rect x="9.945" y="25.45" fill="#B1CA35" width="0.539" height="8.001"/>
	</g>
	<g>
		<rect x="8.597" y="26.499" fill="#B1CA35" width="0.539" height="5.054"/>
	</g>
	<g>
		<rect x="8.866" y="24.642" fill="#B1CA35" width="0.539" height="11.237"/>
	</g>
	<g>
		<rect x="9.136" y="25.181" fill="#B1CA35" width="0.539" height="11.508"/>
	</g>
	<g>
		<rect x="9.406" y="25.72" fill="#B1CA35" width="0.538" height="8.541"/>
	</g>
	<g>
		<rect x="62.009" y="23.562" fill="#B1CA35" width="0.539" height="14.206"/>
	</g>
	<g>
		<rect x="61.739" y="23.562" fill="#B1CA35" width="0.538" height="14.206"/>
	</g>
	<g>
		<rect x="61.469" y="25.99" fill="#B1CA35" width="0.539" height="14.205"/>
	</g>
	<g>
		<rect x="61.2" y="22.483" fill="#B1CA35" width="0.538" height="16.903"/>
	</g>
	<g>
		<rect x="63.357" y="22.753" fill="#B1CA35" width="0.538" height="15.015"/>
	</g>
	<g>
		<rect x="63.896" y="22.753" fill="#B1CA35" width="0.539" height="15.015"/>
	</g>
	<g>
		<rect x="64.166" y="22.753" fill="#B1CA35" width="0.54" height="15.015"/>
	</g>
	<g>
		<rect x="64.706" y="24.102" fill="#B1CA35" width="0.539" height="10.969"/>
	</g>
	<g>
		<rect x="64.437" y="21.403" fill="#B1CA35" width="0.539" height="17.174"/>
	</g>
	<g>
		<rect x="64.977" y="19.628" fill="#B1CA35" width="0.538" height="21.087"/>
	</g>
	<g>
		<rect x="65.516" y="17.47" fill="#B1CA35" width="0.539" height="23.245"/>
	</g>
	<g>
		<rect x="65.785" y="23.134" fill="#B1CA35" width="0.539" height="17.871"/>
	</g>
	<g>
		<rect x="66.325" y="22.325" fill="#B1CA35" width="0.539" height="19.219"/>
	</g>
	<g>
		<rect x="67.403" y="18.548" fill="#B1CA35" width="0.539" height="23.536"/>
	</g>
	<g>
		<rect x="67.673" y="24.642" fill="#B1CA35" width="0.539" height="11.237"/>
	</g>
	<g>
		<rect x="67.942" y="24.642" fill="#B1CA35" width="0.54" height="11.237"/>
	</g>
	<g>
		<rect x="68.213" y="17.47" fill="#B1CA35" width="0.539" height="28.164"/>
	</g>
	<g>
		<rect x="68.482" y="29.451" fill="#B1CA35" width="0.539" height="3.646"/>
	</g>
	<g>
		<rect x="68.753" y="29.721" fill="#B1CA35" width="0.538" height="3.107"/>
	</g>
	<g>
		<rect x="69.022" y="27.562" fill="#B1CA35" width="0.539" height="6.884"/>
	</g>
	<g>
		<rect x="69.292" y="28.911" fill="#B1CA35" width="0.539" height="6.885"/>
	</g>
	<g>
		<rect x="69.562" y="28.911" fill="#B1CA35" width="0.539" height="6.885"/>
	</g>
	<g>
		<rect x="69.832" y="23.435" fill="#B1CA35" width="0.538" height="14.333"/>
	</g>
	<g>
		<rect x="70.102" y="24.499" fill="#B1CA35" width="0.539" height="11.968"/>
	</g>
	<g>
		<rect x="70.371" y="20.387" fill="#B1CA35" width="0.539" height="20.976"/>
	</g>
	<g>
		<rect x="70.641" y="24.769" fill="#B1CA35" width="0.539" height="16.863"/>
	</g>
	<g>
		<rect x="70.911" y="24.769" fill="#B1CA35" width="0.538" height="18.704"/>
	</g>
	<g>
		<rect x="71.18" y="24.769" fill="#B1CA35" width="0.54" height="18.704"/>
	</g>
	<g>
		<rect x="71.45" y="23.435" fill="#B1CA35" width="0.539" height="15.143"/>
	</g>
	<g>
		<rect x="71.72" y="25.013" fill="#B1CA35" width="0.539" height="13.969"/>
	</g>
	<g>
		<rect x="71.99" y="19.628" fill="#B1CA35" width="0.538" height="21.734"/>
	</g>
	<g>
		<rect x="72.259" y="18.007" fill="#B1CA35" width="0.54" height="23.896"/>
	</g>
	<g>
		<rect x="72.529" y="9.067" fill="#B1CA35" width="0.539" height="31.485"/>
	</g>
	<g>
		<rect x="72.799" y="9.067" fill="#B1CA35" width="0.539" height="31.485"/>
	</g>
	<g>
		<rect x="73.069" y="10.147" fill="#B1CA35" width="0.538" height="33.643"/>
	</g>
	<g>
		<rect x="73.338" y="10.147" fill="#B1CA35" width="0.54" height="31.755"/>
	</g>
	<g>
		<rect x="66.864" y="22.325" fill="#B1CA35" width="0.539" height="19.219"/>
	</g>
	<g>
		<rect x="67.134" y="22.325" fill="#B1CA35" width="0.539" height="14.955"/>
	</g>
	<g>
		<rect x="66.595" y="18.819" fill="#B1CA35" width="0.539" height="18.461"/>
	</g>
	<g>
		<rect x="66.056" y="23.134" fill="#B1CA35" width="0.538" height="11.127"/>
	</g>
	<g>
		<rect x="65.246" y="21.944" fill="#B1CA35" width="0.539" height="14.744"/>
	</g>
	<g>
		<rect x="63.627" y="25.45" fill="#B1CA35" width="0.539" height="8.002"/>
	</g>
	<g>
		<rect x="62.278" y="26.499" fill="#B1CA35" width="0.539" height="5.054"/>
	</g>
	<g>
		<rect x="62.548" y="24.642" fill="#B1CA35" width="0.539" height="11.237"/>
	</g>
	<g>
		<rect x="62.817" y="25.181" fill="#B1CA35" width="0.539" height="11.508"/>
	</g>
	<g>
		<rect x="63.087" y="25.72" fill="#B1CA35" width="0.54" height="8.541"/>
	</g>
</g>
<path fill="#B1CA35" d="M71,4v52H4V4H71 M75,0H0v60h75V0L75,0z"/>
</svg>
