<?xml version="1.0" encoding="utf-8"?>
<!-- Generator: Adobe Illustrator 15.0.0, SVG Export Plug-In . SVG Version: 6.00 Build 0)  -->
<!DOCTYPE svg PUBLIC "-//W3C//DTD SVG 1.1//EN" "http://www.w3.org/Graphics/SVG/1.1/DTD/svg11.dtd" [
	<!ENTITY ns_extend "http://ns.adobe.com/Extensibility/1.0/">
	<!ENTITY ns_ai "http://ns.adobe.com/AdobeIllustrator/10.0/">
	<!ENTITY ns_graphs "http://ns.adobe.com/Graphs/1.0/">
	<!ENTITY ns_vars "http://ns.adobe.com/Variables/1.0/">
	<!ENTITY ns_imrep "http://ns.adobe.com/ImageReplacement/1.0/">
	<!ENTITY ns_sfw "http://ns.adobe.com/SaveForWeb/1.0/">
	<!ENTITY ns_custom "http://ns.adobe.com/GenericCustomNamespace/1.0/">
	<!ENTITY ns_adobe_xpath "http://ns.adobe.com/XPath/1.0/">
]>
<svg version="1.1" id="Layer_1" xmlns:x="&ns_extend;" xmlns:i="&ns_ai;" xmlns:graph="&ns_graphs;"
	 xmlns="http://www.w3.org/2000/svg" xmlns:xlink="http://www.w3.org/1999/xlink" x="0px" y="0px" width="300.5px"
	 height="168.737px" viewBox="0 0 300.5 168.737" enable-background="new 0 0 300.5 168.737" xml:space="preserve">
<metadata>
	<sfw  xmlns="&ns_sfw;">
		<slices></slices>
		<sliceSourceBounds  x="89.25" y="3915.031" width="1923.59" height="169.893" bottomLeftOrigin="true"></sliceSourceBounds>
	</sfw>
</metadata>
<rect x="4.116" y="3.302" fill="#FFFFFF" width="292.086" height="160.332"/>
<g>
	<path fill="#F27328" d="M292.073,160.327H8.418V8.408h283.655V160.327z M300.5,0H0v168.737h300.5V0z"/>
	<g>
		<path fill="#F27328" d="M210.796,102.987C267.027,92.444,269.136,31.521,252.023,0l-28.131,30.865L199.645,0l-22.67,30.865
			L148.035,0c-16.642,30.66-15.402,92.383,41.234,102.987v61.549h87.448c3.712-8.338,5.788-17.564,5.788-27.28v-52.67
			l-71.711,75.972L210.796,102.987L210.796,102.987z"/>
		<path fill="#F27328" d="M122.289,138.819c0,9.716,2.076,18.941,5.789,27.281h50.206v-24.279l-55.995-55.672V138.819z"/>
	</g>
</g>
<g>
	<rect x="381.116" y="5.302" fill="#FFFFFF" width="292.086" height="160.332"/>
	<path fill="#4B95D0" d="M661.11,47.825c0,8.229-6.688,14.897-14.929,14.897c-8.229,0-14.916-6.669-14.916-14.897
		c0-8.222,6.687-14.886,14.916-14.886C654.423,32.939,661.11,39.604,661.11,47.825 M542.985,112.56h118.543L623.61,69.557
		l-13.439,13.826l-24.734-35.082L542.985,112.56z"/>
	<g>
		<path fill="#4B95D0" d="M482.284,32.508c-0.053,6.977-5.75,12.586-12.726,12.533c-6.973-0.054-12.58-5.75-12.528-12.727
			c0.055-6.97,5.75-12.577,12.723-12.525C476.724,19.843,482.337,25.537,482.284,32.508z"/>
		<g>
			<path fill="#4B95D0" d="M455.136,92.048l-0.403,53.146c-0.025,3.467,2.768,6.301,6.231,6.326l0.4,0.004
				c3.467,0.024,6.299-2.767,6.326-6.232l0.202-26.785l0.076-10.061l0.008-1.11c0.004-0.491,0.408-0.892,0.9-0.887
				c0.494,0.004,0.891,0.407,0.889,0.899l-0.01,1.129l-0.076,10.043l-0.201,26.678c-0.026,3.467,2.763,6.299,6.228,6.324
				l0.402,0.004c3.467,0.027,6.299-2.762,6.325-6.229l0.402-53.039L455.136,92.048z"/>
			<path fill="#4B95D0" d="M493.87,57.032l0.027-3.415c0.026-3.68-2.935-6.68-6.609-6.709l-12.545-0.096l-5.072,11.643
				l-5.199-11.609l-13.096-0.102c-3.676-0.027-6.684,2.932-6.711,6.609l-0.025,3.421c-0.047,0.261-0.08,0.531-0.08,0.81
				l-0.247,32.351c-0.019,2.504,1.995,4.549,4.5,4.567c2.504,0.019,4.547-1.994,4.567-4.496l0.17-22.492V67.51l0.004-0.306h0.06
				c0.127-0.337,0.453-0.574,0.83-0.571c0.379,0.004,0.7,0.244,0.823,0.584h0.06l-0.002,0.31l-0.174,22.66l27.702,0.211
				l0.173-22.772l0.004-0.312l0.059,0.002c0.129-0.334,0.451-0.57,0.83-0.566c0.379,0.002,0.699,0.244,0.824,0.578h0.059
				l-0.004,0.311l-0.17,22.5c-0.018,2.5,1.996,4.543,4.5,4.562c2.504,0.021,4.549-1.999,4.568-4.501l0.246-32.354
				C493.94,57.568,493.917,57.298,493.87,57.032z"/>
		</g>
	</g>
	
		<line fill="none" stroke="#4B95D0" stroke-width="4.6897" stroke-miterlimit="10" x1="385.323" y1="112.56" x2="677.407" y2="112.56"/>
	<path fill="#4B95D0" d="M673.183,161.424H389.528V9.508h283.653L673.183,161.424L673.183,161.424z M681.61,1.1h-300.5v168.737
		h300.5V1.1z"/>
</g>
<g>
	<rect x="801.979" y="4.149" fill="#FFFFFF" width="292.082" height="160.333"/>
	<g>
		<g>
			<path fill="#B1CA2E" d="M1073.704,123.476h-50.847l-17.492,37.881h95.346c-0.008-0.061-0.014,0.06-0.021,0v-10.895
				C1100.688,135.55,1088.599,123.476,1073.704,123.476z"/>
			<path fill="#B1CA2E" d="M928.167,123.919c-14.902,0-26.994,12.084-26.994,26.988v10.447h104.192l-24.129-37.437L928.167,123.919
				L928.167,123.919z"/>
		</g>
		<path fill="#B1CA2E" d="M1052.976,68.782c0,28.275-22.913,51.184-51.176,51.184c-28.258,0-51.164-22.908-51.164-51.184
			c0-28.245,22.906-51.146,51.164-51.146C1030.062,17.636,1052.976,40.537,1052.976,68.782z"/>
	</g>
	<path fill="#B1CA2E" d="M1093.163,160.271H809.508V8.353h283.655V160.271z M1101.59-0.056h-300.5v168.739h300.5V-0.056z"/>
</g>
<g>
	<rect x="1192.583" y="4.688" fill="#FFFFFF" width="292.082" height="160.333"/>
	<g>
		<path fill="#40656E" d="M1318.841,38.41c0,13.434-10.889,24.321-24.315,24.321c-13.428,0-24.314-10.888-24.314-24.321
			c0-13.424,10.887-24.307,24.314-24.307C1307.952,14.103,1318.841,24.986,1318.841,38.41z"/>
		<g>
			<path fill="#40656E" d="M1341.515,85.47v-6.578c0-7.086-5.743-12.825-12.823-12.825h-24.158l-9.596,22.495l-10.185-22.283
				h-25.221c-7.08,0-12.826,5.743-12.826,12.824v6.587c-0.088,0.504-0.146,1.024-0.146,1.562v62.302c0,4.819,3.91,8.731,8.733,8.731
				c4.818,0,8.728-3.908,8.729-8.728v-43.315v-0.009v-0.59h0.115c0.241-0.647,0.864-1.107,1.592-1.107
				c0.729,0,1.35,0.46,1.592,1.107h0.117v0.599v43.637h53.348v-43.854v-0.602h0.113c0.242-0.641,0.861-1.1,1.592-1.1
				c0.729,0,1.353,0.459,1.592,1.1h0.115v0.602v43.328c0.002,4.815,3.912,8.722,8.732,8.722s8.729-3.919,8.729-8.735V87.032
				C1341.659,86.498,1341.605,85.979,1341.515,85.47z"/>
		</g>
		<rect x="1267.438" y="153.466" fill="#40656E" width="53.349" height="11.555"/>
	</g>
	<path fill="#40656E" d="M1484.651,160.81h-283.654V8.892h283.654V160.81L1484.651,160.81z M1493.079,0.484h-300.5V169.22h300.5
		V0.484z"/>
</g>
<g>
	<rect x="1627.295" y="5.227" fill="#FFFFFF" width="292.082" height="160.333"/>
	<path fill="#6B2842" d="M1696.918,53.982c0-15.44,12.552-27.945,27.993-27.945c15.463,0,27.996,12.505,27.996,27.945
		c0,15.428-12.533,27.944-27.996,27.944C1709.47,81.927,1696.918,69.41,1696.918,53.982 M1903.061,149.054L1831.216,40.29
		l-46.395,65.816L1759.6,80.173l-59.979,68.881H1903.061z"/>
	<path fill="#6B2842" d="M1915.163,161.349h-283.655V9.431h283.655V161.349z M1923.59,1.023h-300.5v168.735h300.5V1.023z"/>
</g>
</svg>
