<?xml version="1.0" encoding="utf-8"?>
<!-- Generator: Adobe Illustrator 15.0.2, SVG Export Plug-In . SVG Version: 6.00 Build 0)  -->
<!DOCTYPE svg PUBLIC "-//W3C//DTD SVG 1.1//EN" "http://www.w3.org/Graphics/SVG/1.1/DTD/svg11.dtd">
<svg version="1.1" id="Layer_1" xmlns="http://www.w3.org/2000/svg" xmlns:xlink="http://www.w3.org/1999/xlink" x="0px" y="0px"
	 width="300.5px" height="168.737px" viewBox="0 0 300.5 168.737" enable-background="new 0 0 300.5 168.737" xml:space="preserve">
<g>
	<path fill="#F27328" d="M-88.927,159.327h-283.655V7.408h283.655V159.327z M-80.5-1H-381v168.738h300.5V-1z"/>
	<g>
		<path fill="#F27328" d="M-170.204,101.987C-113.973,91.444-111.864,30.521-128.976-1l-28.132,30.865L-181.355-1l-22.67,30.865
			L-232.965-1c-16.642,30.66-15.402,92.383,41.235,102.987v61.549h87.448c3.711-8.338,5.788-17.565,5.788-27.28v-52.67
			l-71.711,75.972V101.987z"/>
		<path fill="#F27328" d="M-258.711,137.82c0,9.715,2.076,18.941,5.789,27.28h50.206v-24.279l-55.995-55.672V137.82z"/>
	</g>
</g>
<g>
	<rect x="0.116" y="4.302" fill="#FFFFFF" width="292.086" height="160.332"/>
	<path fill="#4B95D0" d="M280.11,46.825c0,8.229-6.688,14.897-14.928,14.897c-8.23,0-14.916-6.669-14.916-14.897
		c0-8.222,6.686-14.886,14.916-14.886C273.423,31.939,280.11,38.604,280.11,46.825 M161.985,111.559h118.543L242.61,68.557
		l-13.439,13.826l-24.734-35.082L161.985,111.559z"/>
	<g>
		<path fill="#4B95D0" d="M101.284,31.508c-0.053,6.977-5.75,12.586-12.725,12.533c-6.973-0.054-12.58-5.75-12.529-12.727
			c0.055-6.97,5.75-12.577,12.723-12.525C95.724,18.843,101.337,24.537,101.284,31.508z"/>
		<g>
			<path fill="#4B95D0" d="M74.136,91.048l-0.404,53.146c-0.025,3.467,2.768,6.301,6.232,6.326l0.4,0.004
				c3.467,0.025,6.299-2.766,6.326-6.232l0.203-26.785l0.076-10.06l0.008-1.111c0.004-0.492,0.408-0.891,0.9-0.887
				c0.494,0.004,0.891,0.408,0.889,0.9l-0.01,1.129l-0.076,10.042l-0.201,26.678c-0.027,3.467,2.762,6.299,6.227,6.324l0.402,0.004
				c3.467,0.027,6.299-2.762,6.326-6.229l0.402-53.039L74.136,91.048z"/>
			<path fill="#4B95D0" d="M112.87,56.032l0.027-3.415c0.027-3.68-2.934-6.68-6.609-6.709l-12.545-0.096l-5.072,11.643
				l-5.199-11.609l-13.096-0.102c-3.676-0.027-6.684,2.932-6.711,6.609l-0.025,3.421c-0.047,0.261-0.08,0.531-0.08,0.81
				l-0.248,32.35c-0.018,2.504,1.996,4.549,4.5,4.568s4.547-1.994,4.568-4.496l0.17-22.492V66.51l0.004-0.306h0.059
				c0.127-0.337,0.453-0.574,0.83-0.571c0.379,0.004,0.701,0.244,0.824,0.584h0.059l-0.002,0.31l-0.174,22.659l27.703,0.211
				l0.172-22.772l0.004-0.312l0.059,0.002c0.129-0.334,0.451-0.57,0.83-0.566c0.379,0.002,0.699,0.244,0.824,0.578h0.059
				l-0.004,0.311l-0.17,22.5c-0.018,2.5,1.996,4.543,4.5,4.562c2.504,0.021,4.549-1.999,4.568-4.501l0.246-32.354
				C112.94,56.568,112.917,56.298,112.87,56.032z"/>
		</g>
	</g>
	
		<line fill="none" stroke="#4B95D0" stroke-width="4.6897" stroke-miterlimit="10" x1="4.323" y1="111.559" x2="296.407" y2="111.559"/>
	<path fill="#4B95D0" d="M292.183,160.424H8.528V8.508h283.654V160.424z M300.61,0.1H0.11v168.737h300.5V0.1z"/>
</g>
<g>
	<rect x="420.978" y="3.149" fill="#FFFFFF" width="292.082" height="160.333"/>
	<g>
		<g>
			<path fill="#B1CA2E" d="M692.704,122.475h-50.847l-17.492,37.881h95.346c-0.008-0.06-0.014,0.06-0.022,0v-10.894
				C719.688,134.55,707.599,122.475,692.704,122.475z"/>
			<path fill="#B1CA2E" d="M547.167,122.919c-14.902,0-26.994,12.084-26.994,26.988v10.448h104.192l-24.129-37.437H547.167z"/>
		</g>
		<path fill="#B1CA2E" d="M671.976,67.782c0,28.275-22.914,51.184-51.176,51.184c-28.258,0-51.164-22.909-51.164-51.184
			c0-28.245,22.906-51.146,51.164-51.146C649.062,16.636,671.976,39.537,671.976,67.782z"/>
	</g>
	<path fill="#B1CA2E" d="M712.163,159.271H428.508V7.353h283.655V159.271z M720.59-1.056h-300.5v168.738h300.5V-1.056z"/>
</g>
<g>
	<rect x="811.583" y="3.688" fill="#FFFFFF" width="292.082" height="160.333"/>
	<g>
		<path fill="#40656E" d="M937.841,37.41c0,13.434-10.889,24.321-24.316,24.321S889.21,50.843,889.21,37.41
			c0-13.424,10.887-24.307,24.314-24.307S937.841,23.986,937.841,37.41z"/>
		<g>
			<path fill="#40656E" d="M960.515,84.47v-6.578c0-7.086-5.744-12.825-12.824-12.825h-24.158l-9.596,22.495l-10.184-22.283h-25.221
				c-7.08,0-12.826,5.743-12.826,12.824v6.588c-0.088,0.504-0.146,1.024-0.146,1.561v62.301c0,4.82,3.91,8.732,8.734,8.732
				c4.818,0,8.727-3.908,8.729-8.727v-43.316v-0.009v-0.589h0.115c0.242-0.648,0.865-1.108,1.592-1.108
				c0.729,0,1.35,0.46,1.592,1.108h0.117v0.598v43.637h53.348v-43.854v-0.602h0.113c0.242-0.641,0.861-1.1,1.592-1.1
				c0.729,0,1.352,0.459,1.592,1.1h0.115v0.601v43.329c0.002,4.815,3.912,8.721,8.732,8.721s8.729-3.918,8.729-8.735V86.032
				C960.659,85.498,960.606,84.98,960.515,84.47z"/>
		</g>
		<rect x="886.438" y="152.466" fill="#40656E" width="53.348" height="11.555"/>
	</g>
	<path fill="#40656E" d="M1103.651,159.81H819.997V7.892h283.654V159.81z M1112.079-0.516h-300.5V168.22h300.5V-0.516z"/>
</g>
<g>
	<rect x="1246.295" y="4.227" fill="#FFFFFF" width="292.082" height="160.332"/>
	<path fill="#6B2842" d="M1315.918,52.982c0-15.44,12.552-27.945,27.993-27.945c15.463,0,27.996,12.505,27.996,27.945
		c0,15.428-12.533,27.944-27.996,27.944C1328.47,80.927,1315.918,68.41,1315.918,52.982 M1522.061,148.053L1450.216,39.29
		l-46.395,65.816L1378.6,79.173l-59.979,68.88H1522.061z"/>
	<path fill="#6B2842" d="M1534.163,160.348h-283.655V8.431h283.655V160.348z M1542.59,0.023h-300.5v168.735h300.5V0.023z"/>
</g>
</svg>
