<?xml version="1.0" encoding="utf-8"?>
<!-- Generator: Adobe Illustrator 15.0.2, SVG Export Plug-In . SVG Version: 6.00 Build 0)  -->
<!DOCTYPE svg PUBLIC "-//W3C//DTD SVG 1.1//EN" "http://www.w3.org/Graphics/SVG/1.1/DTD/svg11.dtd">
<svg version="1.1" id="Layer_1" xmlns="http://www.w3.org/2000/svg" xmlns:xlink="http://www.w3.org/1999/xlink" x="0px" y="0px"
	 width="300.5px" height="168.737px" viewBox="0 0 300.5 168.737" enable-background="new 0 0 300.5 168.737" xml:space="preserve">
<g>
	<path fill="#F27328" d="M-897.716,160.557h-283.655V8.639h283.655V160.557z M-889.29,0.23h-300.5v168.738h300.5V0.23z"/>
	<g>
		<path fill="#F27328" d="M-978.994,103.218c56.231-10.543,58.34-71.466,41.229-102.987l-28.132,30.865L-990.145,0.23l-22.67,30.865
			l-28.939-30.865c-16.642,30.66-15.402,92.383,41.235,102.987v61.549h87.448c3.711-8.338,5.788-17.565,5.788-27.28v-52.67
			l-71.711,75.972V103.218z"/>
		<path fill="#F27328" d="M-1067.5,139.05c0,9.715,2.076,18.941,5.789,27.28h50.206v-24.279l-55.995-55.672V139.05z"/>
	</g>
</g>
<g>
	<rect x="-808.673" y="5.532" fill="#FFFFFF" width="292.086" height="160.332"/>
	<path fill="#4B95D0" d="M-528.679,48.056c0,8.229-6.688,14.897-14.928,14.897c-8.23,0-14.916-6.669-14.916-14.897
		c0-8.222,6.686-14.886,14.916-14.886C-535.367,33.17-528.679,39.834-528.679,48.056 M-646.804,112.79h118.543l-37.918-43.002
		l-13.439,13.826l-24.734-35.082L-646.804,112.79z"/>
	<g>
		<path fill="#4B95D0" d="M-707.505,32.738c-0.053,6.977-5.75,12.586-12.725,12.533c-6.973-0.054-12.58-5.75-12.529-12.727
			c0.055-6.97,5.75-12.577,12.723-12.525C-713.066,20.073-707.453,25.768-707.505,32.738z"/>
		<g>
			<path fill="#4B95D0" d="M-734.654,92.278l-0.404,53.146c-0.025,3.467,2.768,6.301,6.232,6.326l0.4,0.004
				c3.467,0.025,6.299-2.766,6.326-6.232l0.203-26.785l0.076-10.06l0.008-1.111c0.004-0.492,0.408-0.891,0.9-0.887
				c0.494,0.004,0.891,0.408,0.889,0.9l-0.01,1.129l-0.076,10.042l-0.201,26.678c-0.027,3.467,2.762,6.299,6.227,6.324l0.402,0.004
				c3.467,0.027,6.299-2.762,6.326-6.229l0.402-53.039L-734.654,92.278z"/>
			<path fill="#4B95D0" d="M-695.919,57.263l0.027-3.415c0.027-3.68-2.934-6.68-6.609-6.709l-12.545-0.096l-5.072,11.643
				l-5.199-11.609l-13.096-0.102c-3.676-0.027-6.684,2.932-6.711,6.609l-0.025,3.421c-0.047,0.261-0.08,0.531-0.08,0.81
				l-0.248,32.35c-0.018,2.504,1.996,4.549,4.5,4.568s4.547-1.994,4.568-4.496l0.17-22.492V67.74l0.004-0.306h0.059
				c0.127-0.337,0.453-0.574,0.83-0.571c0.379,0.004,0.701,0.244,0.824,0.584h0.059l-0.002,0.31l-0.174,22.659l27.703,0.211
				l0.172-22.772l0.004-0.312l0.059,0.002c0.129-0.334,0.451-0.57,0.83-0.566c0.379,0.002,0.699,0.244,0.824,0.578h0.059
				l-0.004,0.311l-0.17,22.5c-0.018,2.5,1.996,4.543,4.5,4.562c2.504,0.021,4.549-1.999,4.568-4.501l0.246-32.354
				C-695.849,57.799-695.873,57.528-695.919,57.263z"/>
		</g>
	</g>
	
		<line fill="none" stroke="#4B95D0" stroke-width="4.6897" stroke-miterlimit="10" x1="-804.466" y1="112.79" x2="-512.382" y2="112.79"/>
	<path fill="#4B95D0" d="M-516.607,161.655h-283.654V9.738h283.654V161.655z M-508.179,1.33h-300.5v168.737h300.5V1.33z"/>
</g>
<g>
	<rect x="-389.092" y="5.435" fill="#FFFFFF" width="292.082" height="160.333"/>
	<g>
		<g>
			<path fill="#B1CA2E" d="M-117.366,124.76h-50.847l-17.492,37.881h95.346c-0.008-0.06-0.014,0.06-0.022,0v-10.894
				C-90.381,136.835-102.471,124.76-117.366,124.76z"/>
			<path fill="#B1CA2E" d="M-262.903,125.205c-14.902,0-26.994,12.084-26.994,26.988v10.448h104.192l-24.129-37.437H-262.903z"/>
		</g>
		<path fill="#B1CA2E" d="M-138.094,70.067c0,28.275-22.914,51.184-51.176,51.184c-28.258,0-51.164-22.909-51.164-51.184
			c0-28.245,22.906-51.146,51.164-51.146C-161.008,18.921-138.094,41.822-138.094,70.067z"/>
	</g>
	<path fill="#B1CA2E" d="M-97.907,161.556h-283.655V9.638h283.655V161.556z M-89.48,1.229h-300.5v168.738h300.5V1.229z"/>
</g>
<g>
	<rect x="0.004" y="3.918" fill="#FFFFFF" width="292.082" height="160.333"/>
	<g>
		<path fill="#40656E" d="M126.262,37.64c0,13.434-10.889,24.321-24.316,24.321S77.631,51.074,77.631,37.64
			c0-13.424,10.887-24.307,24.314-24.307S126.262,24.216,126.262,37.64z"/>
		<g>
			<path fill="#40656E" d="M148.936,84.701v-6.578c0-7.086-5.744-12.825-12.824-12.825h-24.158l-9.596,22.495L92.174,65.509H66.954
				c-7.08,0-12.826,5.743-12.826,12.824v6.588c-0.088,0.504-0.146,1.024-0.146,1.561v62.301c0,4.82,3.91,8.732,8.734,8.732
				c4.818,0,8.727-3.908,8.729-8.727v-43.316v-0.009v-0.589h0.115c0.242-0.648,0.865-1.108,1.592-1.108
				c0.729,0,1.35,0.46,1.592,1.108h0.117v0.598v43.637h53.348v-43.854v-0.602h0.113c0.242-0.641,0.861-1.1,1.592-1.1
				c0.729,0,1.352,0.459,1.592,1.1h0.115v0.601v43.329c0.002,4.815,3.912,8.721,8.732,8.721s8.729-3.918,8.729-8.735V86.262
				C149.081,85.728,149.028,85.21,148.936,84.701z"/>
		</g>
		<rect x="74.86" y="152.697" fill="#40656E" width="53.348" height="11.555"/>
	</g>
	<path fill="#40656E" d="M292.072,160.041H8.418V8.123h283.654V160.041z M300.5-0.286H0v168.736h300.5V-0.286z"/>
</g>
<g>
	<rect x="437.506" y="5.458" fill="#FFFFFF" width="292.082" height="160.332"/>
	<path fill="#6B2842" d="M507.129,54.213c0-15.44,12.551-27.945,27.992-27.945c15.463,0,27.996,12.505,27.996,27.945
		c0,15.428-12.533,27.944-27.996,27.944C519.68,82.157,507.129,69.641,507.129,54.213 M713.271,149.284L641.426,40.521
		l-46.395,65.816l-25.221-25.934l-59.98,68.88H713.271z"/>
	<path fill="#6B2842" d="M725.373,161.579H441.719V9.662h283.654V161.579z M733.801,1.253h-300.5v168.735h300.5V1.253z"/>
</g>
</svg>
