<?xml version="1.0" encoding="utf-8"?>
<!-- Generator: Adobe Illustrator 15.0.0, SVG Export Plug-In . SVG Version: 6.00 Build 0)  -->
<!DOCTYPE svg PUBLIC "-//W3C//DTD SVG 1.1//EN" "http://www.w3.org/Graphics/SVG/1.1/DTD/svg11.dtd">
<svg version="1.1" id="Layer_1" xmlns="http://www.w3.org/2000/svg" xmlns:xlink="http://www.w3.org/1999/xlink" x="0px" y="0px"
	 width="196px" height="196px" viewBox="0 0 196 196" enable-background="new 0 0 196 196" xml:space="preserve">
<circle opacity="0.85" fill="#231F20" cx="98" cy="98" r="84.767"/>
<path fill="#FFFFFF" d="M98,166.762c-37.916,0-68.764-30.848-68.764-68.763c0-37.916,30.848-68.762,68.764-68.762
	c37.915,0,68.76,30.846,68.76,68.762C166.76,135.916,135.914,166.762,98,166.762z M98,31.137c-36.869,0-66.863,29.994-66.863,66.862
	S61.13,164.861,98,164.861c36.867,0,66.861-29.994,66.861-66.862S134.866,31.137,98,31.137z"/>
<path fill="#FFFFFF" d="M102.75,92.197h17.987v9.929H102.75v20.116H91.874v-20.116H73.806v-9.929h18.067V72.868h10.875v19.329
	H102.75z"/>
</svg>
