<?xml version="1.0" encoding="utf-8"?>
<!-- Generator: Adobe Illustrator 15.0.0, SVG Export Plug-In  -->
<!DOCTYPE svg PUBLIC "-//W3C//DTD SVG 1.1//EN" "http://www.w3.org/Graphics/SVG/1.1/DTD/svg11.dtd" [
	<!ENTITY ns_flows "http://ns.adobe.com/Flows/1.0/">
]>
<svg version="1.1"
	 xmlns="http://www.w3.org/2000/svg" xmlns:xlink="http://www.w3.org/1999/xlink" xmlns:a="http://ns.adobe.com/AdobeSVGViewerExtensions/3.0/"
	 x="0px" y="0px" width="301px" height="169px" viewBox="0 0 301 169" overflow="visible" enable-background="new 0 0 301 169"
	 xml:space="preserve">
<defs>
</defs>
<rect x="0.888" y="4.205" fill="#FFFFFF" width="292.083" height="160.333"/>
<rect x="7.085" y="55.112" fill="#D1D3D4" width="286.376" height="0.717"/>
<rect x="7.085" y="115.571" fill="#D1D3D4" width="286.376" height="0.717"/>
<rect x="36.872" y="65.581" fill="#41666F" width="1.434" height="37.796"/>
<rect x="40.46" y="63.428" fill="#41666F" width="1.435" height="39.949"/>
<rect x="41.896" y="63.428" fill="#41666F" width="1.435" height="39.949"/>
<rect x="42.614" y="63.428" fill="#41666F" width="1.434" height="39.949"/>
<rect x="44.049" y="67.016" fill="#41666F" width="1.434" height="29.184"/>
<rect x="43.331" y="59.838" fill="#41666F" width="1.434" height="45.692"/>
<rect x="44.767" y="55.112" fill="#41666F" width="1.434" height="56.108"/>
<rect x="46.202" y="49.37" fill="#41666F" width="1.435" height="61.85"/>
<rect x="46.92" y="64.442" fill="#41666F" width="1.434" height="47.548"/>
<rect x="48.355" y="62.289" fill="#41666F" width="1.434" height="51.136"/>
<rect x="51.227" y="52.24" fill="#41666F" width="1.435" height="62.621"/>
<rect x="51.944" y="68.451" fill="#41666F" width="1.434" height="29.901"/>
<rect x="52.662" y="68.451" fill="#41666F" width="1.435" height="29.901"/>
<rect x="53.38" y="49.37" fill="#41666F" width="1.434" height="74.937"/>
<rect x="54.098" y="81.249" fill="#41666F" width="1.434" height="9.703"/>
<rect x="54.815" y="81.967" fill="#41666F" width="1.433" height="8.267"/>
<rect x="55.533" y="82.685" fill="#41666F" width="1.435" height="6.833"/>
<rect x="56.25" y="83.403" fill="#41666F" width="1.434" height="5.396"/>
<rect x="101.109" y="83.403" fill="#41666F" width="1.434" height="5.396"/>
<rect x="101.827" y="82.685" fill="#41666F" width="1.435" height="6.833"/>
<rect x="56.968" y="84.12" fill="#41666F" width="1.435" height="3.962"/>
<rect x="57.686" y="84.839" fill="#41666F" width="1.434" height="2.525"/>
<rect x="58.404" y="84.839" fill="#41666F" width="1.434" height="2.525"/>
<rect x="59.122" y="81.967" fill="#41666F" width="1.434" height="6.832"/>
<rect x="59.839" y="76.225" fill="#41666F" width="1.434" height="18.315"/>
<rect x="60.557" y="79.814" fill="#41666F" width="1.434" height="18.317"/>
<rect x="61.275" y="79.814" fill="#41666F" width="1.435" height="18.317"/>
<rect x="61.993" y="73.396" fill="#41666F" width="1.434" height="29.98"/>
<rect x="62.71" y="76.225" fill="#41666F" width="1.435" height="23.691"/>
<rect x="63.428" y="76.225" fill="#41666F" width="1.434" height="23.691"/>
<rect x="64.146" y="76.943" fill="#41666F" width="1.434" height="23.689"/>
<rect x="64.863" y="76.943" fill="#41666F" width="1.434" height="28.587"/>
<rect x="65.581" y="76.943" fill="#41666F" width="1.435" height="28.587"/>
<rect x="66.299" y="73.396" fill="#41666F" width="1.435" height="32.134"/>
<rect x="67.017" y="69.44" fill="#41666F" width="1.435" height="37.167"/>
<rect x="67.734" y="55.112" fill="#41666F" width="1.435" height="57.83"/>
<rect x="68.452" y="50.798" fill="#41666F" width="1.435" height="63.579"/>
<rect x="69.17" y="27.016" fill="#41666F" width="1.434" height="83.772"/>
<rect x="69.888" y="27.016" fill="#41666F" width="1.433" height="83.772"/>
<rect x="70.605" y="29.887" fill="#41666F" width="1.435" height="89.513"/>
<rect x="71.323" y="29.887" fill="#41666F" width="1.434" height="84.49"/>
<rect x="72.041" y="32.759" fill="#41666F" width="1.435" height="81.618"/>
<rect x="72.759" y="32.759" fill="#41666F" width="1.434" height="81.618"/>
<rect x="73.476" y="32.759" fill="#41666F" width="1.434" height="86.039"/>
<rect x="74.194" y="27.016" fill="#41666F" width="1.435" height="93.935"/>
<rect x="74.912" y="27.016" fill="#41666F" width="1.434" height="93.935"/>
<rect x="75.629" y="27.016" fill="#41666F" width="1.435" height="99.908"/>
<rect x="76.347" y="59.163" fill="#41666F" width="1.434" height="67.761"/>
<rect x="77.065" y="59.163" fill="#41666F" width="1.434" height="52.057"/>
<rect x="77.783" y="59.163" fill="#41666F" width="1.434" height="52.057"/>
<rect x="78.5" y="59.163" fill="#41666F" width="1.434" height="52.057"/>
<rect x="79.218" y="51.634" fill="#41666F" width="1.434" height="62.743"/>
<rect x="79.935" y="51.634" fill="#41666F" width="1.435" height="62.743"/>
<rect x="80.654" y="51.634" fill="#41666F" width="1.434" height="62.743"/>
<rect x="81.371" y="44.225" fill="#41666F" width="1.435" height="81.264"/>
<rect x="82.089" y="44.225" fill="#41666F" width="1.434" height="77.799"/>
<rect x="82.807" y="42.072" fill="#41666F" width="1.434" height="77.799"/>
<rect x="83.525" y="42.072" fill="#41666F" width="1.434" height="71.353"/>
<rect x="84.242" y="49.37" fill="#41666F" width="1.434" height="64.055"/>
<rect x="84.96" y="56.415" fill="#41666F" width="1.433" height="53.778"/>
<rect x="85.677" y="56.415" fill="#41666F" width="1.434" height="53.778"/>
<rect x="86.396" y="56.415" fill="#41666F" width="1.434" height="59.873"/>
<rect x="87.113" y="53.544" fill="#41666F" width="1.435" height="62.744"/>
<rect x="87.832" y="54.979" fill="#41666F" width="1.434" height="62.744"/>
<rect x="88.549" y="54.979" fill="#41666F" width="1.434" height="62.744"/>
<rect x="89.267" y="62.874" fill="#41666F" width="1.435" height="52.696"/>
<rect x="89.984" y="62.874" fill="#41666F" width="1.434" height="52.696"/>
<rect x="90.702" y="65.746" fill="#41666F" width="1.434" height="46.236"/>
<rect x="91.42" y="65.746" fill="#41666F" width="1.434" height="46.236"/>
<rect x="92.138" y="68.616" fill="#41666F" width="1.434" height="40.493"/>
<rect x="92.855" y="68.616" fill="#41666F" width="1.434" height="40.493"/>
<rect x="93.573" y="72.205" fill="#41666F" width="1.434" height="34.035"/>
<rect x="94.291" y="72.205" fill="#41666F" width="1.434" height="34.035"/>
<rect x="95.008" y="68.616" fill="#41666F" width="1.435" height="39.776"/>
<rect x="95.726" y="68.616" fill="#41666F" width="1.434" height="39.776"/>
<rect x="96.444" y="68.616" fill="#41666F" width="1.435" height="34.035"/>
<rect x="97.162" y="54.979" fill="#41666F" width="1.434" height="59.398"/>
<rect x="97.88" y="63.864" fill="#41666F" width="1.434" height="46.924"/>
<rect x="98.598" y="65.299" fill="#41666F" width="1.434" height="46.925"/>
<rect x="99.315" y="66.734" fill="#41666F" width="1.434" height="46.925"/>
<path fill="#41666F" d="M101.466,99.916h-1.434v-25.63h1.434v8.399h0.359v6.833h-0.359V99.916z M100.75,88.801h0.358v-5.399h-0.358
	V88.801z"/>
<rect x="110.799" y="54.979" fill="#41666F" width="1.434" height="59.398"/>
<rect x="111.516" y="63.864" fill="#41666F" width="1.435" height="46.924"/>
<rect x="112.234" y="65.299" fill="#41666F" width="1.434" height="46.925"/>
<rect x="112.952" y="66.734" fill="#41666F" width="1.435" height="46.925"/>
<rect x="113.67" y="64.237" fill="#41666F" width="1.434" height="40.702"/>
<rect x="114.388" y="62.084" fill="#41666F" width="1.434" height="42.854"/>
<rect x="115.105" y="62.084" fill="#41666F" width="1.434" height="42.854"/>
<rect x="115.823" y="62.084" fill="#41666F" width="1.434" height="39.266"/>
<rect x="116.541" y="62.084" fill="#41666F" width="1.435" height="39.266"/>
<rect x="117.258" y="59.931" fill="#41666F" width="1.434" height="43.572"/>
<rect x="117.976" y="59.931" fill="#41666F" width="1.435" height="43.572"/>
<rect x="118.694" y="58.495" fill="#41666F" width="1.434" height="47.879"/>
<rect x="119.412" y="52.24" fill="#41666F" width="1.435" height="54.134"/>
<rect x="120.13" y="48.647" fill="#41666F" width="1.434" height="64.294"/>
<rect x="120.847" y="48.647" fill="#41666F" width="1.435" height="64.294"/>
<rect x="121.565" y="42.072" fill="#41666F" width="1.434" height="71.587"/>
<rect x="122.283" y="46.378" fill="#41666F" width="1.434" height="71.586"/>
<rect x="123" y="48.532" fill="#41666F" width="1.434" height="74.457"/>
<rect x="123.718" y="59.838" fill="#41666F" width="1.435" height="63.151"/>
<rect x="124.436" y="59.838" fill="#41666F" width="1.434" height="50.95"/>
<rect x="125.153" y="73.625" fill="#41666F" width="1.435" height="37.163"/>
<rect x="125.872" y="76.496" fill="#41666F" width="1.434" height="24.962"/>
<rect x="126.589" y="76.496" fill="#41666F" width="1.435" height="24.962"/>
<rect x="127.307" y="68.451" fill="#41666F" width="1.435" height="40.078"/>
<rect x="128.024" y="70.605" fill="#41666F" width="1.434" height="37.924"/>
<rect x="128.743" y="70.605" fill="#41666F" width="1.434" height="37.924"/>
<rect x="129.46" y="70.605" fill="#41666F" width="1.433" height="41.511"/>
<rect x="130.178" y="62.084" fill="#41666F" width="1.434" height="51.467"/>
<rect x="130.896" y="62.084" fill="#41666F" width="1.434" height="51.467"/>
<rect x="131.613" y="65.673" fill="#41666F" width="1.435" height="51.468"/>
<rect x="132.331" y="69.979" fill="#41666F" width="1.434" height="45.007"/>
<rect x="133.048" y="71.414" fill="#41666F" width="1.435" height="37.115"/>
<rect x="133.767" y="71.414" fill="#41666F" width="1.434" height="37.115"/>
<rect x="134.484" y="77.875" fill="#41666F" width="1.434" height="20.726"/>
<rect x="135.202" y="76.439" fill="#41666F" width="1.434" height="20.726"/>
<rect x="135.92" y="76.439" fill="#41666F" width="1.434" height="20.726"/>
<rect x="136.637" y="75.722" fill="#41666F" width="1.434" height="20.726"/>
<rect x="137.355" y="75.722" fill="#41666F" width="1.435" height="20.726"/>
<rect x="138.072" y="77.875" fill="#41666F" width="1.434" height="20.726"/>
<rect x="138.791" y="77.875" fill="#41666F" width="1.434" height="17.855"/>
<rect x="139.508" y="78.592" fill="#41666F" width="1.434" height="17.855"/>
<rect x="140.226" y="78.592" fill="#41666F" width="1.434" height="17.855"/>
<rect x="140.944" y="80.028" fill="#41666F" width="1.434" height="16.419"/>
<rect x="141.662" y="79.31" fill="#41666F" width="1.434" height="16.42"/>
<rect x="142.379" y="79.31" fill="#41666F" width="1.435" height="16.42"/>
<rect x="143.097" y="79.31" fill="#41666F" width="1.434" height="16.42"/>
<rect x="143.815" y="79.31" fill="#41666F" width="1.434" height="16.42"/>
<rect x="144.533" y="78.592" fill="#41666F" width="1.433" height="16.421"/>
<rect x="145.25" y="78.592" fill="#41666F" width="1.434" height="16.421"/>
<rect x="145.968" y="79.31" fill="#41666F" width="1.434" height="16.42"/>
<rect x="146.686" y="79.31" fill="#41666F" width="1.434" height="16.42"/>
<rect x="147.403" y="77.875" fill="#41666F" width="1.434" height="16.419"/>
<rect x="148.121" y="77.875" fill="#41666F" width="1.436" height="16.419"/>
<rect x="148.839" y="77.875" fill="#41666F" width="1.433" height="16.419"/>
<rect x="149.557" y="77.875" fill="#41666F" width="1.434" height="16.419"/>
<rect x="150.274" y="77.875" fill="#41666F" width="1.434" height="16.419"/>
<rect x="150.992" y="79.31" fill="#41666F" width="1.434" height="16.42"/>
<rect x="151.71" y="79.31" fill="#41666F" width="1.434" height="16.42"/>
<rect x="152.428" y="75.722" fill="#41666F" width="1.434" height="16.42"/>
<rect x="153.145" y="75.722" fill="#41666F" width="1.435" height="16.42"/>
<rect x="153.862" y="76.439" fill="#41666F" width="1.435" height="16.419"/>
<rect x="154.581" y="77.875" fill="#41666F" width="1.434" height="16.419"/>
<rect x="155.299" y="77.875" fill="#41666F" width="1.435" height="14.984"/>
<rect x="156.016" y="77.875" fill="#41666F" width="1.436" height="19.291"/>
<rect x="157.453" y="77.875" fill="#41666F" width="1.433" height="20.726"/>
<rect x="158.17" y="72.851" fill="#41666F" width="1.435" height="24.314"/>
<rect x="158.888" y="72.851" fill="#41666F" width="1.434" height="22.162"/>
<rect x="159.605" y="76.439" fill="#41666F" width="1.435" height="18.573"/>
<rect x="160.323" y="76.439" fill="#41666F" width="1.434" height="16.419"/>
<rect x="161.041" y="78.592" fill="#41666F" width="1.434" height="14.267"/>
<rect x="275.879" y="77.875" fill="#41666F" width="1.435" height="20.726"/>
<rect x="276.596" y="72.851" fill="#41666F" width="1.435" height="24.314"/>
<rect x="277.314" y="72.851" fill="#41666F" width="1.435" height="22.162"/>
<rect x="278.031" y="76.438" fill="#41666F" width="1.436" height="18.574"/>
<rect x="278.749" y="76.438" fill="#41666F" width="1.436" height="16.42"/>
<rect x="279.468" y="78.592" fill="#41666F" width="1.434" height="14.267"/>
<rect x="280.187" y="76.438" fill="#41666F" width="1.434" height="16.42"/>
<rect x="280.903" y="78.592" fill="#41666F" width="1.435" height="14.267"/>
<rect x="281.621" y="80.851" fill="#41666F" width="1.435" height="9.855"/>
<rect x="282.34" y="82.104" fill="#41666F" width="1.432" height="8.602"/>
<rect x="283.058" y="82.287" fill="#41666F" width="1.433" height="6.346"/>
<rect x="283.773" y="82.341" fill="#41666F" width="1.435" height="5.573"/>
<rect x="284.491" y="82.341" fill="#41666F" width="1.435" height="5.573"/>
<rect x="285.21" y="83.777" fill="#41666F" width="1.433" height="2.7"/>
<rect x="285.928" y="83.777" fill="#41666F" width="1.434" height="2.7"/>
<rect x="286.645" y="83.777" fill="#41666F" width="1.435" height="2.7"/>
<rect x="287.361" y="83.777" fill="#41666F" width="1.437" height="2.7"/>
<rect x="288.08" y="83.777" fill="#41666F" width="1.435" height="2.7"/>
<rect x="288.798" y="83.777" fill="#41666F" width="1.435" height="2.7"/>
<rect x="289.516" y="83.777" fill="#41666F" width="1.435" height="2.7"/>
<rect x="290.233" y="83.777" fill="#41666F" width="1.435" height="2.7"/>
<rect x="290.952" y="83.777" fill="#41666F" width="1.433" height="2.7"/>
<rect x="291.669" y="83.777" fill="#41666F" width="1.435" height="2.7"/>
<rect x="292.387" y="83.777" fill="#41666F" width="1.435" height="2.7"/>
<rect x="161.759" y="78.592" fill="#41666F" width="1.434" height="12.831"/>
<rect x="162.477" y="78.592" fill="#41666F" width="1.434" height="12.831"/>
<rect x="163.194" y="74.286" fill="#41666F" width="1.433" height="17.137"/>
<rect x="163.911" y="76.439" fill="#41666F" width="1.434" height="17.137"/>
<rect x="164.628" y="77.875" fill="#41666F" width="1.436" height="17.138"/>
<rect x="165.346" y="79.31" fill="#41666F" width="1.436" height="17.138"/>
<rect x="166.064" y="79.31" fill="#41666F" width="1.435" height="17.138"/>
<rect x="166.783" y="82.899" fill="#41666F" width="1.434" height="7.089"/>
<rect x="167.5" y="82.899" fill="#41666F" width="1.435" height="7.089"/>
<rect x="168.218" y="80.746" fill="#41666F" width="1.435" height="12.113"/>
<rect x="168.936" y="80.746" fill="#41666F" width="1.435" height="12.113"/>
<rect x="169.654" y="80.746" fill="#41666F" width="1.434" height="14.267"/>
<rect x="170.371" y="84.334" fill="#41666F" width="1.435" height="10.679"/>
<rect x="171.089" y="87.205" fill="#41666F" width="1.435" height="10.679"/>
<rect x="171.807" y="80.746" fill="#41666F" width="1.435" height="17.138"/>
<rect x="172.524" y="78.592" fill="#41666F" width="1.434" height="17.138"/>
<rect x="173.241" y="80.746" fill="#41666F" width="1.435" height="9.243"/>
<rect x="173.96" y="77.875" fill="#41666F" width="1.434" height="12.114"/>
<rect x="174.678" y="81.463" fill="#41666F" width="1.434" height="17.854"/>
<rect x="175.396" y="81.463" fill="#41666F" width="1.435" height="17.854"/>
<rect x="176.112" y="81.463" fill="#41666F" width="1.436" height="11.396"/>
<rect x="176.831" y="81.463" fill="#41666F" width="1.434" height="11.396"/>
<rect x="156.734" y="77.875" fill="#41666F" width="1.435" height="16.419"/>
<rect x="6.727" y="76.439" fill="#41666F" width="1.434" height="16.419"/>
<rect x="7.444" y="76.439" fill="#41666F" width="1.434" height="16.419"/>
<rect x="8.162" y="76.439" fill="#41666F" width="1.434" height="16.419"/>
<rect x="8.88" y="76.439" fill="#41666F" width="1.434" height="16.419"/>
<rect x="9.597" y="75.722" fill="#41666F" width="1.435" height="16.42"/>
<rect x="10.315" y="75.722" fill="#41666F" width="1.435" height="16.42"/>
<rect x="11.032" y="76.439" fill="#41666F" width="1.435" height="16.419"/>
<rect x="11.75" y="76.439" fill="#41666F" width="1.434" height="16.419"/>
<rect x="12.469" y="75.003" fill="#41666F" width="1.434" height="16.419"/>
<rect x="13.186" y="75.003" fill="#41666F" width="1.434" height="16.419"/>
<rect x="13.904" y="75.003" fill="#41666F" width="1.434" height="16.419"/>
<rect x="14.622" y="75.003" fill="#41666F" width="1.435" height="16.419"/>
<rect x="15.339" y="75.003" fill="#41666F" width="1.435" height="16.419"/>
<rect x="16.057" y="76.439" fill="#41666F" width="1.435" height="16.419"/>
<rect x="16.775" y="76.439" fill="#41666F" width="1.433" height="16.419"/>
<rect x="17.493" y="72.851" fill="#41666F" width="1.434" height="16.419"/>
<rect x="18.21" y="72.851" fill="#41666F" width="1.434" height="16.419"/>
<rect x="18.928" y="73.568" fill="#41666F" width="1.434" height="16.42"/>
<rect x="19.646" y="75.003" fill="#41666F" width="1.434" height="16.419"/>
<rect x="20.363" y="75.003" fill="#41666F" width="1.435" height="14.985"/>
<rect x="21.081" y="75.003" fill="#41666F" width="1.435" height="19.291"/>
<rect x="22.517" y="75.003" fill="#41666F" width="1.434" height="20.726"/>
<rect x="23.234" y="69.979" fill="#41666F" width="1.434" height="24.315"/>
<rect x="23.953" y="69.979" fill="#41666F" width="1.434" height="22.163"/>
<rect x="24.67" y="73.568" fill="#41666F" width="1.434" height="18.573"/>
<rect x="25.388" y="73.568" fill="#41666F" width="1.435" height="16.42"/>
<rect x="26.105" y="75.722" fill="#41666F" width="1.435" height="14.267"/>
<rect x="26.823" y="75.722" fill="#41666F" width="1.434" height="12.83"/>
<rect x="27.541" y="75.722" fill="#41666F" width="1.434" height="12.83"/>
<rect x="28.259" y="71.414" fill="#41666F" width="1.434" height="17.138"/>
<rect x="28.977" y="73.568" fill="#41666F" width="1.434" height="17.138"/>
<rect x="29.694" y="75.003" fill="#41666F" width="1.435" height="17.138"/>
<rect x="30.412" y="76.439" fill="#41666F" width="1.434" height="17.137"/>
<rect x="31.129" y="76.439" fill="#41666F" width="1.435" height="17.137"/>
<rect x="31.848" y="80.028" fill="#41666F" width="1.433" height="7.088"/>
<rect x="32.565" y="80.028" fill="#41666F" width="1.434" height="7.088"/>
<rect x="33.283" y="77.875" fill="#41666F" width="1.434" height="12.114"/>
<rect x="34" y="77.875" fill="#41666F" width="1.434" height="12.114"/>
<rect x="34.718" y="77.875" fill="#41666F" width="1.434" height="14.267"/>
<rect x="35.436" y="81.463" fill="#41666F" width="1.435" height="10.679"/>
<rect x="36.153" y="84.334" fill="#41666F" width="1.435" height="10.679"/>
<rect x="21.799" y="75.003" fill="#41666F" width="1.434" height="16.419"/>
<path fill="#41666F" d="M104.338,100.022h-1.435V88.799h-0.359v-5.396h0.359V68.616h1.435V100.022z M103.262,88.082h0.359V84.12
	h-0.359V88.082z"/>
<rect x="103.622" y="61.71" fill="#41666F" width="1.434" height="49.078"/>
<rect x="104.339" y="65.299" fill="#41666F" width="1.434" height="46.925"/>
<rect x="105.057" y="66.734" fill="#41666F" width="1.434" height="46.925"/>
<rect x="105.774" y="64.237" fill="#41666F" width="1.435" height="35.679"/>
<rect x="106.493" y="58.495" fill="#41666F" width="1.434" height="41.421"/>
<rect x="107.21" y="58.495" fill="#41666F" width="1.434" height="50.034"/>
<rect x="107.928" y="58.495" fill="#41666F" width="1.434" height="45.726"/>
<rect x="108.646" y="61.366" fill="#41666F" width="1.434" height="42.854"/>
<rect x="109.364" y="61.366" fill="#41666F" width="1.434" height="42.854"/>
<rect x="110.081" y="57.778" fill="#41666F" width="1.435" height="42.854"/>
<rect x="49.791" y="62.289" fill="#41666F" width="1.434" height="51.136"/>
<rect x="50.508" y="62.289" fill="#41666F" width="1.435" height="39.791"/>
<rect x="49.073" y="52.96" fill="#41666F" width="1.434" height="49.119"/>
<rect x="47.638" y="64.442" fill="#41666F" width="1.434" height="29.604"/>
<rect x="45.485" y="61.274" fill="#41666F" width="1.434" height="39.232"/>
<rect x="41.178" y="70.605" fill="#41666F" width="1.435" height="21.287"/>
<rect x="37.589" y="73.396" fill="#41666F" width="1.434" height="13.444"/>
<rect x="38.308" y="68.451" fill="#41666F" width="1.434" height="29.901"/>
<rect x="39.025" y="69.887" fill="#41666F" width="1.434" height="30.62"/>
<rect x="39.743" y="71.323" fill="#41666F" width="1.433" height="22.723"/>
<rect x="179.702" y="65.581" fill="#41666F" width="1.435" height="37.796"/>
<rect x="178.984" y="65.581" fill="#41666F" width="1.434" height="37.796"/>
<rect x="178.267" y="72.041" fill="#41666F" width="1.434" height="37.796"/>
<rect x="177.55" y="62.71" fill="#41666F" width="1.433" height="44.974"/>
<rect x="183.29" y="63.428" fill="#41666F" width="1.434" height="39.949"/>
<rect x="184.726" y="63.428" fill="#41666F" width="1.434" height="39.949"/>
<rect x="185.443" y="63.428" fill="#41666F" width="1.436" height="39.949"/>
<rect x="186.879" y="67.016" fill="#41666F" width="1.435" height="29.184"/>
<rect x="186.161" y="59.838" fill="#41666F" width="1.435" height="45.692"/>
<rect x="187.598" y="55.112" fill="#41666F" width="1.434" height="56.108"/>
<rect x="189.033" y="49.37" fill="#41666F" width="1.434" height="61.85"/>
<rect x="189.75" y="64.442" fill="#41666F" width="1.435" height="47.548"/>
<rect x="191.187" y="62.289" fill="#41666F" width="1.434" height="51.136"/>
<rect x="194.056" y="52.24" fill="#41666F" width="1.434" height="62.621"/>
<rect x="194.773" y="68.451" fill="#41666F" width="1.434" height="29.901"/>
<rect x="195.491" y="68.451" fill="#41666F" width="1.435" height="29.901"/>
<rect x="196.209" y="49.37" fill="#41666F" width="1.436" height="74.937"/>
<rect x="196.927" y="81.249" fill="#41666F" width="1.435" height="9.703"/>
<rect x="197.646" y="81.967" fill="#41666F" width="1.434" height="8.268"/>
<rect x="198.363" y="76.225" fill="#41666F" width="1.434" height="18.315"/>
<rect x="199.081" y="79.814" fill="#41666F" width="1.435" height="18.317"/>
<rect x="199.799" y="79.814" fill="#41666F" width="1.434" height="18.317"/>
<rect x="200.517" y="65.243" fill="#41666F" width="1.434" height="38.134"/>
<rect x="201.234" y="68.072" fill="#41666F" width="1.434" height="31.844"/>
<rect x="201.952" y="57.132" fill="#41666F" width="1.435" height="55.809"/>
<rect x="202.67" y="68.791" fill="#41666F" width="1.434" height="44.869"/>
<rect x="203.388" y="68.791" fill="#41666F" width="1.434" height="49.765"/>
<rect x="204.104" y="68.791" fill="#41666F" width="1.435" height="49.765"/>
<rect x="204.822" y="65.243" fill="#41666F" width="1.435" height="40.287"/>
<rect x="205.54" y="69.44" fill="#41666F" width="1.434" height="37.167"/>
<rect x="206.259" y="55.112" fill="#41666F" width="1.434" height="57.83"/>
<rect x="206.976" y="50.798" fill="#41666F" width="1.436" height="63.579"/>
<rect x="207.694" y="27.016" fill="#41666F" width="1.434" height="83.772"/>
<rect x="208.412" y="27.016" fill="#41666F" width="1.433" height="83.772"/>
<rect x="209.13" y="29.887" fill="#41666F" width="1.433" height="89.513"/>
<rect x="209.847" y="29.887" fill="#41666F" width="1.435" height="84.49"/>
<rect x="210.564" y="32.759" fill="#41666F" width="1.435" height="81.618"/>
<rect x="211.282" y="32.759" fill="#41666F" width="1.434" height="81.618"/>
<rect x="212" y="32.759" fill="#41666F" width="1.433" height="86.039"/>
<rect x="212.717" y="27.016" fill="#41666F" width="1.435" height="93.935"/>
<rect x="213.435" y="27.016" fill="#41666F" width="1.435" height="93.935"/>
<rect x="214.153" y="27.016" fill="#41666F" width="1.433" height="99.908"/>
<rect x="214.871" y="59.163" fill="#41666F" width="1.435" height="67.761"/>
<rect x="215.587" y="59.163" fill="#41666F" width="1.436" height="67.761"/>
<rect x="216.305" y="54.139" fill="#41666F" width="1.436" height="67.76"/>
<rect x="217.024" y="42.807" fill="#41666F" width="1.434" height="81.618"/>
<rect x="217.742" y="42.807" fill="#41666F" width="1.434" height="86.039"/>
<rect x="218.459" y="37.064" fill="#41666F" width="1.435" height="93.934"/>
<rect x="219.177" y="37.064" fill="#41666F" width="1.435" height="93.934"/>
<rect x="219.896" y="37.064" fill="#41666F" width="1.433" height="104.932"/>
<rect x="220.614" y="69.212" fill="#41666F" width="1.434" height="67.76"/>
<rect x="222.767" y="37.064" fill="#41666F" width="1.433" height="93.934"/>
<rect x="221.331" y="31.323" fill="#41666F" width="1.435" height="99.675"/>
<rect x="222.048" y="31.323" fill="#41666F" width="1.435" height="99.675"/>
<rect x="223.484" y="37.064" fill="#41666F" width="1.433" height="104.932"/>
<rect x="224.2" y="48.397" fill="#41666F" width="1.435" height="67.761"/>
<rect x="224.918" y="69.44" fill="#41666F" width="1.435" height="46.718"/>
<rect x="225.636" y="65.853" fill="#41666F" width="1.435" height="46.716"/>
<rect x="226.354" y="67.289" fill="#41666F" width="1.435" height="35.951"/>
<rect x="227.071" y="58.675" fill="#41666F" width="1.436" height="49.854"/>
<rect x="227.79" y="58.675" fill="#41666F" width="1.434" height="49.854"/>
<rect x="228.508" y="65.853" fill="#41666F" width="1.434" height="36.934"/>
<rect x="229.226" y="65.853" fill="#41666F" width="1.434" height="36.934"/>
<rect x="229.943" y="65.853" fill="#41666F" width="1.435" height="36.934"/>
<rect x="230.662" y="68.006" fill="#41666F" width="1.434" height="34.78"/>
<rect x="231.379" y="68.006" fill="#41666F" width="1.434" height="34.78"/>
<rect x="232.097" y="70.16" fill="#41666F" width="1.434" height="34.779"/>
<rect x="232.814" y="71.595" fill="#41666F" width="1.435" height="33.344"/>
<rect x="233.533" y="68.006" fill="#41666F" width="1.434" height="33.345"/>
<rect x="234.25" y="52.96" fill="#41666F" width="1.434" height="73.068"/>
<rect x="234.968" y="52.96" fill="#41666F" width="1.434" height="73.068"/>
<rect x="235.685" y="65.162" fill="#41666F" width="1.435" height="46.51"/>
<rect x="236.403" y="65.162" fill="#41666F" width="1.435" height="46.51"/>
<rect x="237.121" y="52.243" fill="#41666F" width="1.435" height="78.754"/>
<rect x="237.838" y="50.089" fill="#41666F" width="1.435" height="78.754"/>
<rect x="238.557" y="50.089" fill="#41666F" width="1.433" height="69.311"/>
<rect x="239.274" y="55.832" fill="#41666F" width="1.434" height="63.569"/>
<rect x="239.992" y="37.063" fill="#41666F" width="1.434" height="82.337"/>
<rect x="240.709" y="43.523" fill="#41666F" width="1.434" height="82.338"/>
<rect x="241.427" y="43.523" fill="#41666F" width="1.434" height="75.16"/>
<rect x="242.145" y="45.676" fill="#41666F" width="1.434" height="80.185"/>
<rect x="242.863" y="45.676" fill="#41666F" width="1.434" height="80.185"/>
<rect x="243.58" y="45.676" fill="#41666F" width="1.434" height="80.185"/>
<rect x="244.298" y="44.24" fill="#41666F" width="1.434" height="80.183"/>
<rect x="245.016" y="42.805" fill="#41666F" width="1.434" height="80.183"/>
<rect x="245.733" y="42.087" fill="#41666F" width="1.434" height="80.182"/>
<rect x="246.45" y="42.087" fill="#41666F" width="1.437" height="80.182"/>
<rect x="247.168" y="37.063" fill="#41666F" width="1.436" height="85.207"/>
<rect x="247.886" y="26.297" fill="#41666F" width="1.435" height="108.175"/>
<rect x="248.605" y="26.297" fill="#41666F" width="1.434" height="105.305"/>
<rect x="249.322" y="23.426" fill="#41666F" width="1.434" height="105.306"/>
<rect x="250.041" y="31.321" fill="#41666F" width="1.435" height="97.411"/>
<rect x="250.758" y="40.651" fill="#41666F" width="1.434" height="88.08"/>
<rect x="251.476" y="40.651" fill="#41666F" width="1.434" height="88.08"/>
<rect x="252.193" y="40.651" fill="#41666F" width="1.434" height="88.08"/>
<rect x="252.912" y="37.781" fill="#41666F" width="1.434" height="88.079"/>
<rect x="192.621" y="62.289" fill="#41666F" width="1.434" height="51.136"/>
<rect x="193.339" y="62.289" fill="#41666F" width="1.434" height="39.791"/>
<rect x="191.903" y="52.96" fill="#41666F" width="1.435" height="49.119"/>
<rect x="190.469" y="64.442" fill="#41666F" width="1.434" height="29.604"/>
<rect x="188.315" y="61.274" fill="#41666F" width="1.435" height="39.232"/>
<rect x="184.008" y="70.605" fill="#41666F" width="1.434" height="21.288"/>
<rect x="180.42" y="73.396" fill="#41666F" width="1.434" height="13.444"/>
<rect x="255.781" y="65.581" fill="#41666F" width="1.435" height="37.796"/>
<rect x="255.063" y="65.581" fill="#41666F" width="1.435" height="37.796"/>
<rect x="254.347" y="72.041" fill="#41666F" width="1.434" height="37.796"/>
<rect x="253.629" y="62.71" fill="#41666F" width="1.434" height="44.974"/>
<rect x="256.499" y="73.396" fill="#41666F" width="1.435" height="13.444"/>
<rect x="181.137" y="68.451" fill="#41666F" width="1.435" height="29.901"/>
<rect x="181.854" y="69.887" fill="#41666F" width="1.435" height="30.62"/>
<rect x="273.726" y="50.798" fill="#41666F" width="1.434" height="71.832"/>
<rect x="274.444" y="50.798" fill="#41666F" width="1.433" height="71.832"/>
<rect x="275.161" y="47.927" fill="#41666F" width="1.435" height="79.008"/>
<rect x="270.137" y="63.428" fill="#41666F" width="1.435" height="48.796"/>
<rect x="269.419" y="50.509" fill="#41666F" width="1.435" height="48.796"/>
<rect x="268.702" y="63.428" fill="#41666F" width="1.433" height="48.796"/>
<rect x="267.983" y="63.428" fill="#41666F" width="1.434" height="48.796"/>
<rect x="266.548" y="67.016" fill="#41666F" width="1.435" height="38.03"/>
<rect x="267.266" y="59.838" fill="#41666F" width="1.436" height="54.538"/>
<rect x="265.831" y="55.112" fill="#41666F" width="1.434" height="63.444"/>
<rect x="264.396" y="49.37" fill="#41666F" width="1.435" height="61.851"/>
<rect x="263.678" y="64.442" fill="#41666F" width="1.434" height="54.113"/>
<rect x="262.242" y="62.289" fill="#41666F" width="1.434" height="60.7"/>
<rect x="259.371" y="52.24" fill="#41666F" width="1.434" height="62.621"/>
<rect x="258.653" y="68.451" fill="#41666F" width="1.435" height="29.901"/>
<rect x="257.935" y="68.451" fill="#41666F" width="1.435" height="29.901"/>
<rect x="257.217" y="49.37" fill="#41666F" width="1.435" height="74.937"/>
<rect x="260.807" y="62.289" fill="#41666F" width="1.434" height="51.136"/>
<rect x="260.089" y="62.289" fill="#41666F" width="1.434" height="39.791"/>
<rect x="261.524" y="34.067" fill="#41666F" width="1.435" height="98.951"/>
<rect x="262.96" y="64.442" fill="#41666F" width="1.434" height="29.604"/>
<rect x="265.113" y="61.274" fill="#41666F" width="1.434" height="39.232"/>
<rect x="272.29" y="53.669" fill="#41666F" width="1.435" height="63.935"/>
<rect x="273.008" y="53.669" fill="#41666F" width="1.435" height="63.935"/>
<rect x="271.573" y="69.887" fill="#41666F" width="1.433" height="39.465"/>
<rect x="270.854" y="69.887" fill="#41666F" width="1.434" height="39.465"/>
<rect x="182.572" y="71.323" fill="#41666F" width="1.436" height="22.723"/>
<path fill="#41666F" d="M292.073,160.327H8.418V8.408h283.655V160.327z M300.5,0H0v168.736h300.5V0z"/>
</svg>
