<?xml version="1.0" encoding="utf-8"?>
<!-- Generator: Adobe Illustrator 15.0.0, SVG Export Plug-In  -->
<!DOCTYPE svg PUBLIC "-//W3C//DTD SVG 1.1//EN" "http://www.w3.org/Graphics/SVG/1.1/DTD/svg11.dtd" [
	<!ENTITY ns_flows "http://ns.adobe.com/Flows/1.0/">
]>
<svg version="1.1"
	 xmlns="http://www.w3.org/2000/svg" xmlns:xlink="http://www.w3.org/1999/xlink" xmlns:a="http://ns.adobe.com/AdobeSVGViewerExtensions/3.0/"
	 x="0px" y="0px" width="75px" height="60px" viewBox="0.07 0 75 60" overflow="visible" enable-background="new 0.07 0 75 60"
	 xml:space="preserve">
<defs>
</defs>
<rect x="2" y="2" fill="#FFFFFF" width="71" height="56"/>
<path fill="#4C96D1" d="M71,4v52H4V4H71 M75,0H0v60h75V0L75,0z"/>
<path fill="#4C96D1" d="M38.104,40.694h37.068l0.002-6.033l-8.24-9.344l-4.805,4.944l-8.846-12.545L38.104,40.694z"/>
<line fill="none" stroke="#4C96D1" stroke-width="3" stroke-miterlimit="10" x1="0.309" y1="40.694" x2="75.172" y2="40.694"/>
<path fill="#4C96D1" d="M21.564,10.437c-0.02,2.545-2.096,4.59-4.641,4.569c-2.543-0.019-4.586-2.096-4.568-4.64
	c0.021-2.541,2.098-4.585,4.639-4.566C19.537,5.819,21.584,7.896,21.564,10.437z"/>
<path fill="#4C96D1" d="M11.666,32.146l-0.148,19.378c-0.01,1.264,1.01,2.297,2.273,2.307l0.145,0.001
	c1.266,0.009,2.297-1.009,2.307-2.272l0.074-9.766l0.027-3.668l0.004-0.405c0-0.179,0.148-0.324,0.328-0.323
	c0.18,0.002,0.324,0.149,0.322,0.328l-0.004,0.412l-0.025,3.66l-0.074,9.728c-0.01,1.264,1.008,2.297,2.271,2.306l0.146,0.002
	c1.264,0.01,2.295-1.007,2.307-2.271l0.146-19.338L11.666,32.146z"/>
<path fill="#4C96D1" d="M25.789,19.379l0.01-1.245c0.008-1.342-1.07-2.436-2.41-2.446l-4.574-0.035l-1.85,4.245l-1.896-4.232
	l-4.773-0.037c-1.34-0.01-2.438,1.069-2.447,2.41L7.84,19.285c-0.018,0.095-0.031,0.194-0.031,0.295l-0.09,11.796
	c-0.008,0.912,0.729,1.658,1.641,1.665c0.914,0.008,1.658-0.727,1.666-1.64l0.061-8.2v-0.002l0.002-0.111h0.021
	c0.047-0.123,0.166-0.209,0.303-0.208c0.141,0.001,0.256,0.089,0.301,0.213h0.021v0.112l-0.064,7.403l10.102,0.077l0.062-7.444
	l0.002-0.113h0.021c0.047-0.122,0.164-0.208,0.303-0.206c0.137,0,0.254,0.089,0.301,0.211h0.02v0.113l-0.062,8.203
	c-0.006,0.912,0.729,1.657,1.641,1.664c0.912,0.008,1.658-0.729,1.666-1.642l0.09-11.797C25.812,19.575,25.805,19.476,25.789,19.379
	z"/>
</svg>
