<?xml version="1.0" encoding="utf-8"?>
<!-- Generator: Adobe Illustrator 15.0.0, SVG Export Plug-In  -->
<!DOCTYPE svg PUBLIC "-//W3C//DTD SVG 1.1//EN" "http://www.w3.org/Graphics/SVG/1.1/DTD/svg11.dtd" [
	<!ENTITY ns_flows "http://ns.adobe.com/Flows/1.0/">
]>
<svg version="1.1"
	 xmlns="http://www.w3.org/2000/svg" xmlns:xlink="http://www.w3.org/1999/xlink" xmlns:a="http://ns.adobe.com/AdobeSVGViewerExtensions/3.0/"
	 x="0px" y="0px" width="75px" height="60px" viewBox="0.036 0 75 60" overflow="visible" enable-background="new 0.036 0 75 60"
	 xml:space="preserve">
<defs>
</defs>
<rect x="2.036" y="2" fill="#FFFFFF" width="71" height="56"/>
<rect x="2.843" y="19.628" fill="#D1D3D4" width="69.992" height="0.27"/>
<rect x="2.843" y="42.351" fill="#D1D3D4" width="69.992" height="0.27"/>
<rect x="8.363" y="23.562" fill="#707070" width="0.538" height="14.206"/>
<rect x="9.712" y="22.753" fill="#707070" width="0.539" height="15.015"/>
<rect x="10.251" y="22.753" fill="#707070" width="0.539" height="15.015"/>
<rect x="10.521" y="22.753" fill="#707070" width="0.538" height="15.015"/>
<rect x="11.061" y="24.102" fill="#707070" width="0.539" height="10.969"/>
<rect x="10.791" y="21.403" fill="#707070" width="0.538" height="17.174"/>
<rect x="11.33" y="19.628" fill="#707070" width="0.539" height="21.087"/>
<rect x="11.87" y="17.47" fill="#707070" width="0.539" height="23.245"/>
<rect x="12.14" y="23.134" fill="#707070" width="0.539" height="17.871"/>
<rect x="12.679" y="22.325" fill="#707070" width="0.539" height="19.219"/>
<rect x="13.758" y="18.548" fill="#707070" width="0.539" height="23.536"/>
<rect x="14.027" y="24.642" fill="#707070" width="0.539" height="11.237"/>
<rect x="14.298" y="24.642" fill="#707070" width="0.539" height="11.237"/>
<rect x="14.567" y="17.47" fill="#707070" width="0.539" height="28.164"/>
<rect x="14.837" y="29.451" fill="#707070" width="0.539" height="3.646"/>
<rect x="15.107" y="29.721" fill="#707070" width="0.538" height="3.107"/>
<rect x="15.376" y="29.991" fill="#707070" width="0.54" height="2.567"/>
<rect x="15.646" y="30.261" fill="#707070" width="0.539" height="2.027"/>
<rect x="32.506" y="30.261" fill="#707070" width="0.539" height="2.027"/>
<rect x="32.776" y="29.991" fill="#707070" width="0.538" height="2.567"/>
<rect x="15.916" y="30.53" fill="#707070" width="0.539" height="1.488"/>
<rect x="16.186" y="30.8" fill="#707070" width="0.539" height="0.949"/>
<rect x="16.455" y="30.8" fill="#707070" width="0.539" height="0.949"/>
<rect x="16.726" y="29.721" fill="#707070" width="0.539" height="2.567"/>
<rect x="16.995" y="27.562" fill="#707070" width="0.539" height="6.884"/>
<rect x="17.265" y="28.911" fill="#707070" width="0.539" height="6.885"/>
<rect x="17.534" y="28.911" fill="#707070" width="0.54" height="6.885"/>
<rect x="17.805" y="26.499" fill="#707070" width="0.539" height="11.269"/>
<rect x="18.074" y="27.562" fill="#707070" width="0.539" height="8.904"/>
<rect x="18.344" y="27.562" fill="#707070" width="0.539" height="8.904"/>
<rect x="18.613" y="27.833" fill="#707070" width="0.539" height="8.903"/>
<rect x="18.884" y="27.833" fill="#707070" width="0.539" height="10.744"/>
<rect x="19.153" y="27.833" fill="#707070" width="0.539" height="10.744"/>
<rect x="19.423" y="26.499" fill="#707070" width="0.539" height="12.078"/>
<rect x="19.692" y="25.013" fill="#707070" width="0.539" height="13.969"/>
<rect x="19.963" y="19.628" fill="#707070" width="0.539" height="21.734"/>
<rect x="20.232" y="18.007" fill="#707070" width="0.539" height="23.896"/>
<rect x="20.502" y="9.067" fill="#707070" width="0.539" height="31.485"/>
<rect x="20.771" y="9.067" fill="#707070" width="0.539" height="31.485"/>
<rect x="21.041" y="10.147" fill="#707070" width="0.54" height="33.643"/>
<rect x="21.312" y="10.147" fill="#707070" width="0.538" height="31.755"/>
<rect x="21.581" y="11.226" fill="#707070" width="0.539" height="30.677"/>
<rect x="21.851" y="11.226" fill="#707070" width="0.539" height="30.677"/>
<rect x="22.12" y="11.226" fill="#707070" width="0.539" height="32.338"/>
<rect x="22.39" y="9.067" fill="#707070" width="0.539" height="35.306"/>
<rect x="22.66" y="9.067" fill="#707070" width="0.538" height="35.306"/>
<rect x="22.93" y="9.067" fill="#707070" width="0.539" height="37.55"/>
<rect x="23.199" y="21.149" fill="#707070" width="0.539" height="25.468"/>
<rect x="23.469" y="21.149" fill="#707070" width="0.539" height="19.565"/>
<rect x="23.739" y="21.149" fill="#707070" width="0.538" height="19.565"/>
<rect x="24.009" y="21.149" fill="#707070" width="0.539" height="19.565"/>
<rect x="24.278" y="18.32" fill="#707070" width="0.539" height="23.582"/>
<rect x="24.548" y="18.32" fill="#707070" width="0.539" height="23.582"/>
<rect x="24.818" y="18.32" fill="#707070" width="0.538" height="23.582"/>
<rect x="25.087" y="15.536" fill="#707070" width="0.54" height="30.542"/>
<rect x="25.357" y="15.536" fill="#707070" width="0.539" height="29.24"/>
<rect x="25.627" y="14.727" fill="#707070" width="0.539" height="29.24"/>
<rect x="25.897" y="14.727" fill="#707070" width="0.538" height="26.817"/>
<rect x="26.167" y="17.47" fill="#707070" width="0.538" height="24.074"/>
<rect x="26.437" y="20.117" fill="#707070" width="0.539" height="20.212"/>
<rect x="26.706" y="20.117" fill="#707070" width="0.539" height="20.212"/>
<rect x="26.977" y="20.117" fill="#707070" width="0.538" height="22.503"/>
<rect x="27.245" y="19.038" fill="#707070" width="0.54" height="23.582"/>
<rect x="27.516" y="19.577" fill="#707070" width="0.539" height="23.583"/>
<rect x="27.785" y="19.577" fill="#707070" width="0.539" height="23.583"/>
<rect x="28.055" y="22.545" fill="#707070" width="0.54" height="19.806"/>
<rect x="28.325" y="22.545" fill="#707070" width="0.538" height="19.806"/>
<rect x="28.595" y="23.624" fill="#707070" width="0.539" height="17.378"/>
<rect x="28.864" y="23.624" fill="#707070" width="0.539" height="17.378"/>
<rect x="29.134" y="24.703" fill="#707070" width="0.539" height="15.219"/>
<rect x="29.403" y="24.703" fill="#707070" width="0.539" height="15.219"/>
<rect x="29.674" y="26.052" fill="#707070" width="0.539" height="12.792"/>
<rect x="29.943" y="26.052" fill="#707070" width="0.539" height="12.792"/>
<rect x="30.213" y="24.703" fill="#707070" width="0.539" height="14.949"/>
<rect x="30.482" y="24.703" fill="#707070" width="0.539" height="14.949"/>
<rect x="30.753" y="24.703" fill="#707070" width="0.539" height="12.792"/>
<rect x="31.022" y="19.577" fill="#707070" width="0.539" height="22.325"/>
<rect x="31.292" y="22.917" fill="#707070" width="0.539" height="17.636"/>
<rect x="31.562" y="23.456" fill="#707070" width="0.538" height="17.637"/>
<rect x="31.832" y="23.995" fill="#707070" width="0.539" height="17.637"/>
<path fill="#707070" d="M32.641,36.467h-0.539v-9.633h0.539v3.157h0.135v2.567h-0.135V36.467z M32.371,32.289h0.135v-2.028h-0.135
	V32.289z"/>
<rect x="36.147" y="19.577" fill="#707070" width="0.54" height="22.325"/>
<rect x="36.418" y="22.917" fill="#707070" width="0.538" height="17.636"/>
<rect x="36.688" y="23.456" fill="#707070" width="0.539" height="17.637"/>
<rect x="36.957" y="23.995" fill="#707070" width="0.539" height="17.637"/>
<rect x="37.228" y="23.058" fill="#707070" width="0.539" height="15.297"/>
<rect x="37.497" y="22.248" fill="#707070" width="0.538" height="16.106"/>
<rect x="37.767" y="22.248" fill="#707070" width="0.539" height="16.106"/>
<rect x="38.036" y="22.248" fill="#707070" width="0.539" height="14.758"/>
<rect x="38.306" y="22.248" fill="#707070" width="0.54" height="14.758"/>
<rect x="38.576" y="21.438" fill="#707070" width="0.538" height="16.377"/>
<rect x="38.846" y="21.438" fill="#707070" width="0.539" height="16.377"/>
<rect x="39.115" y="20.899" fill="#707070" width="0.539" height="17.994"/>
<rect x="39.385" y="18.548" fill="#707070" width="0.539" height="20.346"/>
<rect x="39.655" y="17.198" fill="#707070" width="0.538" height="24.164"/>
<rect x="39.924" y="17.198" fill="#707070" width="0.54" height="24.164"/>
<rect x="40.194" y="14.727" fill="#707070" width="0.539" height="26.905"/>
<rect x="40.464" y="16.345" fill="#707070" width="0.539" height="26.905"/>
<rect x="40.733" y="17.155" fill="#707070" width="0.539" height="27.983"/>
<rect x="41.004" y="21.403" fill="#707070" width="0.539" height="23.735"/>
<rect x="41.273" y="21.403" fill="#707070" width="0.539" height="19.149"/>
<rect x="41.543" y="26.585" fill="#707070" width="0.539" height="13.968"/>
<rect x="41.813" y="27.665" fill="#707070" width="0.538" height="9.382"/>
<rect x="42.082" y="27.665" fill="#707070" width="0.54" height="9.382"/>
<rect x="42.353" y="24.642" fill="#707070" width="0.539" height="15.062"/>
<rect x="42.622" y="25.45" fill="#707070" width="0.539" height="14.254"/>
<rect x="42.893" y="25.45" fill="#707070" width="0.538" height="14.254"/>
<rect x="43.161" y="25.45" fill="#707070" width="0.539" height="15.602"/>
<rect x="43.432" y="22.248" fill="#707070" width="0.539" height="19.344"/>
<rect x="43.701" y="22.248" fill="#707070" width="0.539" height="19.344"/>
<rect x="43.971" y="23.597" fill="#707070" width="0.539" height="19.344"/>
<rect x="44.24" y="25.216" fill="#707070" width="0.539" height="16.915"/>
<rect x="44.51" y="25.755" fill="#707070" width="0.54" height="13.949"/>
<rect x="44.78" y="25.755" fill="#707070" width="0.539" height="13.949"/>
<rect x="45.05" y="28.183" fill="#707070" width="0.539" height="7.79"/>
<rect x="45.319" y="27.644" fill="#707070" width="0.539" height="7.789"/>
<rect x="45.59" y="27.644" fill="#707070" width="0.539" height="7.789"/>
<rect x="45.859" y="27.374" fill="#707070" width="0.539" height="7.789"/>
<rect x="46.129" y="27.374" fill="#707070" width="0.539" height="7.789"/>
<rect x="46.398" y="28.183" fill="#707070" width="0.539" height="7.79"/>
<rect x="46.668" y="28.183" fill="#707070" width="0.539" height="6.711"/>
<rect x="46.938" y="28.452" fill="#707070" width="0.539" height="6.711"/>
<rect x="47.208" y="28.452" fill="#707070" width="0.539" height="6.711"/>
<rect x="47.478" y="28.992" fill="#707070" width="0.539" height="6.171"/>
<rect x="47.747" y="28.722" fill="#707070" width="0.539" height="6.172"/>
<rect x="48.018" y="28.722" fill="#707070" width="0.539" height="6.172"/>
<rect x="48.287" y="28.722" fill="#707070" width="0.539" height="6.172"/>
<rect x="48.557" y="28.722" fill="#707070" width="0.539" height="6.172"/>
<rect x="48.827" y="28.452" fill="#707070" width="0.538" height="6.172"/>
<rect x="49.096" y="28.452" fill="#707070" width="0.54" height="6.172"/>
<rect x="49.366" y="28.722" fill="#707070" width="0.539" height="6.172"/>
<rect x="49.636" y="28.722" fill="#707070" width="0.539" height="6.172"/>
<rect x="49.905" y="28.183" fill="#707070" width="0.539" height="6.171"/>
<rect x="50.175" y="28.183" fill="#707070" width="0.54" height="6.171"/>
<rect x="50.445" y="28.183" fill="#707070" width="0.538" height="6.171"/>
<rect x="50.715" y="28.183" fill="#707070" width="0.539" height="6.171"/>
<rect x="50.984" y="28.183" fill="#707070" width="0.539" height="6.171"/>
<rect x="51.254" y="28.722" fill="#707070" width="0.539" height="6.172"/>
<rect x="51.524" y="28.722" fill="#707070" width="0.538" height="6.172"/>
<rect x="51.794" y="27.374" fill="#707070" width="0.539" height="6.171"/>
<rect x="52.063" y="27.374" fill="#707070" width="0.539" height="6.171"/>
<rect x="52.333" y="27.644" fill="#707070" width="0.539" height="6.171"/>
<rect x="52.604" y="28.183" fill="#707070" width="0.538" height="6.171"/>
<rect x="52.873" y="28.183" fill="#707070" width="0.539" height="5.632"/>
<rect x="53.143" y="28.183" fill="#707070" width="0.539" height="7.25"/>
<rect x="53.683" y="28.183" fill="#707070" width="0.538" height="7.79"/>
<rect x="53.952" y="26.294" fill="#707070" width="0.539" height="9.139"/>
<rect x="54.222" y="26.294" fill="#707070" width="0.539" height="8.33"/>
<rect x="54.491" y="27.644" fill="#707070" width="0.54" height="6.98"/>
<rect x="54.762" y="27.644" fill="#707070" width="0.538" height="6.171"/>
<rect x="55.031" y="28.452" fill="#707070" width="0.539" height="5.362"/>
<rect x="55.301" y="28.452" fill="#707070" width="0.539" height="4.822"/>
<rect x="55.57" y="28.452" fill="#707070" width="0.539" height="4.822"/>
<rect x="55.841" y="26.834" fill="#707070" width="0.538" height="6.44"/>
<rect x="56.109" y="27.644" fill="#707070" width="0.539" height="6.44"/>
<rect x="56.379" y="28.183" fill="#707070" width="0.54" height="6.441"/>
<rect x="56.649" y="28.722" fill="#707070" width="0.539" height="6.441"/>
<rect x="56.919" y="28.722" fill="#707070" width="0.539" height="6.441"/>
<rect x="57.189" y="30.071" fill="#707070" width="0.539" height="2.664"/>
<rect x="57.459" y="30.071" fill="#707070" width="0.539" height="2.664"/>
<rect x="57.729" y="29.262" fill="#707070" width="0.539" height="4.553"/>
<rect x="57.998" y="29.262" fill="#707070" width="0.539" height="4.553"/>
<rect x="58.269" y="29.262" fill="#707070" width="0.539" height="5.362"/>
<rect x="58.538" y="30.61" fill="#707070" width="0.539" height="4.014"/>
<rect x="58.808" y="31.689" fill="#707070" width="0.539" height="4.014"/>
<rect x="59.077" y="29.262" fill="#707070" width="0.539" height="6.441"/>
<rect x="59.347" y="28.452" fill="#707070" width="0.539" height="6.441"/>
<rect x="59.616" y="29.262" fill="#707070" width="0.539" height="3.474"/>
<rect x="59.887" y="28.183" fill="#707070" width="0.539" height="4.553"/>
<rect x="60.156" y="29.531" fill="#707070" width="0.539" height="6.711"/>
<rect x="60.426" y="29.531" fill="#707070" width="0.539" height="6.711"/>
<rect x="60.695" y="29.531" fill="#707070" width="0.54" height="4.283"/>
<rect x="60.966" y="29.531" fill="#707070" width="0.539" height="4.283"/>
<rect x="53.412" y="28.183" fill="#707070" width="0.539" height="6.171"/>
<rect y="27.104" fill="#707070" width="0.539" height="6.171"/>
<rect x="0.27" y="27.104" fill="#707070" width="0.54" height="6.171"/>
<rect x="0.54" y="27.644" fill="#707070" width="0.539" height="6.171"/>
<rect x="0.81" y="27.644" fill="#707070" width="0.539" height="6.171"/>
<rect x="1.08" y="26.294" fill="#707070" width="0.538" height="6.171"/>
<rect x="1.349" y="26.294" fill="#707070" width="0.539" height="6.171"/>
<rect x="1.619" y="26.564" fill="#707070" width="0.539" height="6.171"/>
<rect x="1.889" y="27.104" fill="#707070" width="0.539" height="6.171"/>
<rect x="2.158" y="27.104" fill="#707070" width="0.539" height="5.632"/>
<rect x="2.428" y="27.104" fill="#707070" width="0.539" height="7.25"/>
<rect x="2.968" y="27.104" fill="#707070" width="0.539" height="7.79"/>
<rect x="3.237" y="25.216" fill="#707070" width="0.539" height="9.138"/>
<rect x="3.507" y="25.216" fill="#707070" width="0.539" height="8.329"/>
<rect x="3.777" y="26.564" fill="#707070" width="0.539" height="6.98"/>
<rect x="4.047" y="26.564" fill="#707070" width="0.539" height="6.171"/>
<rect x="4.316" y="27.374" fill="#707070" width="0.539" height="5.361"/>
<rect x="4.586" y="27.374" fill="#707070" width="0.539" height="4.821"/>
<rect x="4.856" y="27.374" fill="#707070" width="0.538" height="4.821"/>
<rect x="5.126" y="25.755" fill="#707070" width="0.539" height="6.44"/>
<rect x="5.396" y="26.564" fill="#707070" width="0.539" height="6.44"/>
<rect x="5.665" y="27.104" fill="#707070" width="0.539" height="6.441"/>
<rect x="5.936" y="27.644" fill="#707070" width="0.539" height="6.44"/>
<rect x="6.205" y="27.644" fill="#707070" width="0.539" height="6.44"/>
<rect x="6.475" y="28.992" fill="#707070" width="0.538" height="2.664"/>
<rect x="6.744" y="28.992" fill="#707070" width="0.539" height="2.664"/>
<rect x="7.014" y="28.183" fill="#707070" width="0.539" height="4.553"/>
<rect x="7.284" y="28.183" fill="#707070" width="0.538" height="4.553"/>
<rect x="7.554" y="28.183" fill="#707070" width="0.539" height="5.362"/>
<rect x="7.823" y="29.531" fill="#707070" width="0.539" height="4.014"/>
<rect x="8.093" y="30.61" fill="#707070" width="0.539" height="4.014"/>
<rect x="2.698" y="27.104" fill="#707070" width="0.539" height="6.171"/>
<path fill="#707070" d="M33.72,36.507h-0.539v-4.219h-0.136v-2.027h0.136v-5.558h0.539V36.507z M33.315,32.019h0.135V30.53h-0.135
	V32.019z"/>
<rect x="33.45" y="22.107" fill="#707070" width="0.539" height="18.445"/>
<rect x="33.72" y="23.456" fill="#707070" width="0.539" height="17.637"/>
<rect x="33.99" y="23.995" fill="#707070" width="0.539" height="17.637"/>
<rect x="34.26" y="23.058" fill="#707070" width="0.539" height="13.409"/>
<rect x="34.529" y="20.899" fill="#707070" width="0.539" height="15.567"/>
<rect x="34.799" y="20.899" fill="#707070" width="0.539" height="18.805"/>
<rect x="35.068" y="20.899" fill="#707070" width="0.54" height="17.186"/>
<rect x="35.339" y="21.978" fill="#707070" width="0.538" height="16.107"/>
<rect x="35.608" y="21.978" fill="#707070" width="0.539" height="16.107"/>
<rect x="35.878" y="20.63" fill="#707070" width="0.539" height="16.106"/>
<rect x="13.219" y="22.325" fill="#707070" width="0.539" height="19.219"/>
<rect x="13.488" y="22.325" fill="#707070" width="0.539" height="14.955"/>
<rect x="12.949" y="18.819" fill="#707070" width="0.538" height="18.461"/>
<rect x="12.409" y="23.134" fill="#707070" width="0.539" height="11.127"/>
<rect x="11.601" y="21.944" fill="#707070" width="0.538" height="14.744"/>
<rect x="9.981" y="25.45" fill="#707070" width="0.539" height="8.001"/>
<rect x="8.633" y="26.499" fill="#707070" width="0.539" height="5.054"/>
<rect x="8.902" y="24.642" fill="#707070" width="0.539" height="11.237"/>
<rect x="9.172" y="25.181" fill="#707070" width="0.539" height="11.508"/>
<rect x="9.442" y="25.72" fill="#707070" width="0.538" height="8.541"/>
<rect x="62.045" y="23.562" fill="#707070" width="0.539" height="14.206"/>
<rect x="61.775" y="23.562" fill="#707070" width="0.538" height="14.206"/>
<rect x="61.505" y="25.99" fill="#707070" width="0.539" height="14.205"/>
<rect x="61.236" y="22.483" fill="#707070" width="0.538" height="16.903"/>
<rect x="63.394" y="22.753" fill="#707070" width="0.538" height="15.015"/>
<rect x="63.933" y="22.753" fill="#707070" width="0.539" height="15.015"/>
<rect x="64.202" y="22.753" fill="#707070" width="0.54" height="15.015"/>
<rect x="64.742" y="24.102" fill="#707070" width="0.539" height="10.969"/>
<rect x="64.473" y="21.403" fill="#707070" width="0.539" height="17.174"/>
<rect x="65.013" y="19.628" fill="#707070" width="0.538" height="21.087"/>
<rect x="65.552" y="17.47" fill="#707070" width="0.539" height="23.245"/>
<rect x="65.821" y="23.134" fill="#707070" width="0.539" height="17.871"/>
<rect x="66.361" y="22.325" fill="#707070" width="0.539" height="19.219"/>
<rect x="67.439" y="18.548" fill="#707070" width="0.539" height="23.536"/>
<rect x="67.709" y="24.642" fill="#707070" width="0.539" height="11.237"/>
<rect x="67.979" y="24.642" fill="#707070" width="0.54" height="11.237"/>
<rect x="68.249" y="17.47" fill="#707070" width="0.539" height="28.164"/>
<rect x="68.519" y="29.451" fill="#707070" width="0.539" height="3.646"/>
<rect x="68.789" y="29.721" fill="#707070" width="0.538" height="3.107"/>
<rect x="69.059" y="27.562" fill="#707070" width="0.539" height="6.884"/>
<rect x="69.328" y="28.911" fill="#707070" width="0.539" height="6.885"/>
<rect x="69.598" y="28.911" fill="#707070" width="0.539" height="6.885"/>
<rect x="69.868" y="23.435" fill="#707070" width="0.538" height="14.333"/>
<rect x="70.138" y="24.499" fill="#707070" width="0.539" height="11.968"/>
<rect x="70.407" y="20.387" fill="#707070" width="0.539" height="20.976"/>
<rect x="70.677" y="24.769" fill="#707070" width="0.539" height="16.863"/>
<rect x="70.947" y="24.769" fill="#707070" width="0.538" height="18.704"/>
<rect x="71.216" y="24.769" fill="#707070" width="0.54" height="18.704"/>
<rect x="71.486" y="23.435" fill="#707070" width="0.539" height="15.143"/>
<rect x="71.756" y="25.013" fill="#707070" width="0.539" height="13.969"/>
<rect x="72.026" y="19.628" fill="#707070" width="0.538" height="21.734"/>
<rect x="72.295" y="18.007" fill="#707070" width="0.54" height="23.896"/>
<rect x="72.565" y="9.067" fill="#707070" width="0.539" height="31.485"/>
<rect x="72.835" y="9.067" fill="#707070" width="0.539" height="31.485"/>
<rect x="73.105" y="10.147" fill="#707070" width="0.538" height="33.643"/>
<rect x="73.374" y="10.147" fill="#707070" width="0.54" height="31.755"/>
<rect x="66.9" y="22.325" fill="#707070" width="0.539" height="19.219"/>
<rect x="67.17" y="22.325" fill="#707070" width="0.539" height="14.955"/>
<rect x="66.631" y="18.819" fill="#707070" width="0.539" height="18.461"/>
<rect x="66.092" y="23.134" fill="#707070" width="0.538" height="11.127"/>
<rect x="65.282" y="21.944" fill="#707070" width="0.539" height="14.744"/>
<rect x="63.663" y="25.45" fill="#707070" width="0.539" height="8.002"/>
<rect x="62.314" y="26.499" fill="#707070" width="0.539" height="5.054"/>
<rect x="62.584" y="24.642" fill="#707070" width="0.539" height="11.237"/>
<rect x="62.854" y="25.181" fill="#707070" width="0.539" height="11.508"/>
<rect x="63.123" y="25.72" fill="#707070" width="0.54" height="8.541"/>
<path fill="#F27429" d="M71.036,4v52h-67V4H71.036 M75.036,0h-75v60h75V0L75.036,0z"/>
</svg>
