<?xml version="1.0" encoding="utf-8"?>
<!-- Generator: Adobe Illustrator 15.0.0, SVG Export Plug-In . SVG Version: 6.00 Build 0)  -->
<!DOCTYPE svg PUBLIC "-//W3C//DTD SVG 1.1//EN" "http://www.w3.org/Graphics/SVG/1.1/DTD/svg11.dtd">
<svg version="1.1" id="Layer_1" xmlns="http://www.w3.org/2000/svg" xmlns:xlink="http://www.w3.org/1999/xlink" x="0px" y="0px"
	 width="96px" height="96px" viewBox="-24 -24 96 96" enable-background="new -24 -24 96 96" xml:space="preserve">
<path opacity="0.8" fill="#FFFFFF" enable-background="new    " d="M14.81,44.677H4.217V33.841h6.314
	c2.206,0,4.014-1.805,4.014-4.012V-0.048c0-2.208-1.808-4.014-4.014-4.014H-7.673c-2.21,0-4.016,1.804-4.016,4.014v29.877
	c0,2.209,1.804,4.012,4.016,4.012h6.311v10.84h-10.595c-1.576,0-2.863,1.293-2.863,2.871v3.982h32.502V47.55
	C17.682,45.97,16.39,44.677,14.81,44.677z"/>
<path opacity="0.8" fill="#FFFFFF" enable-background="new    " d="M52.422-5.114L46.48-1.216
	c6.027,5.794,9.475,14.357,9.475,23.632c0,9.276-3.451,17.839-9.475,23.628l5.941,3.902c6.705-7.051,10.5-16.938,10.5-27.53
	c0,0,0,0,0-0.002l0,0C62.922,11.82,59.127,1.937,52.422-5.114z"/>
<path opacity="0.8" fill="#FFFFFF" enable-background="new    " d="M48.436,22.418c0-7.628-2.701-14.813-7.469-20.002L35.131,6.4
	c4.041,3.943,6.342,9.758,6.342,16.018v0.002c0,6.261-2.301,12.069-6.342,16.019l5.836,3.98
	C45.738,37.231,48.436,30.046,48.436,22.418L48.436,22.418z"/>
<path opacity="0.8" fill="#FFFFFF" enable-background="new    " d="M24.153,13.466c1.802,2.438,2.808,5.592,2.808,8.952v0.002
	c0,3.358-1.006,6.511-2.808,8.95l5.823,3.832c2.545-3.58,3.955-8.068,3.955-12.782v-0.002c0-4.712-1.406-9.202-3.955-12.782
	L24.153,13.466z"/>
</svg>
