<?xml version="1.0" encoding="utf-8"?>
<!-- Generator: Adobe Illustrator 15.0.0, SVG Export Plug-In . SVG Version: 6.00 Build 0)  -->
<!DOCTYPE svg PUBLIC "-//W3C//DTD SVG 1.1//EN" "http://www.w3.org/Graphics/SVG/1.1/DTD/svg11.dtd" [
	<!ENTITY ns_extend "http://ns.adobe.com/Extensibility/1.0/">
	<!ENTITY ns_ai "http://ns.adobe.com/AdobeIllustrator/10.0/">
	<!ENTITY ns_graphs "http://ns.adobe.com/Graphs/1.0/">
	<!ENTITY ns_vars "http://ns.adobe.com/Variables/1.0/">
	<!ENTITY ns_imrep "http://ns.adobe.com/ImageReplacement/1.0/">
	<!ENTITY ns_sfw "http://ns.adobe.com/SaveForWeb/1.0/">
	<!ENTITY ns_custom "http://ns.adobe.com/GenericCustomNamespace/1.0/">
	<!ENTITY ns_adobe_xpath "http://ns.adobe.com/XPath/1.0/">
]>
<svg version="1.1" id="Layer_1" xmlns:x="&ns_extend;" xmlns:i="&ns_ai;" xmlns:graph="&ns_graphs;"
	 xmlns="http://www.w3.org/2000/svg" xmlns:xlink="http://www.w3.org/1999/xlink" x="0px" y="0px" width="48px" height="48px"
	 viewBox="0 0 48 48" enable-background="new 0 0 48 48" xml:space="preserve">
<metadata>
	<sfw  xmlns="&ns_sfw;">
		<slices></slices>
		<sliceSourceBounds  x="373.571" y="293.011" width="43.333" height="75.968" bottomLeftOrigin="true"></sliceSourceBounds>
	</sfw>
</metadata>
<path fill="#565552" d="M41.574-37.295l-8.025,5.683h-2.609v-4.86c0-1.103-0.905-2.006-2.008-2.006H4.077
	c-1.104,0-2.006,0.903-2.006,2.006v18.932c0,1.104,0.901,2.008,2.006,2.008h24.854c1.103,0,2.008-0.904,2.008-2.008V-22.4h2.609
	l8.025,5.684h3.83v-20.579H41.574z M12.523-22.523c0,1.104-0.057,2.135-0.131,2.293c-0.069,0.156-1.242,0.285-2.221,0.285
	c-0.979,0-1.906-0.059-2.064-0.129c-0.16-0.07-0.287-1.346-0.287-2.449v-8.965c0-1.104,0.058-2.136,0.127-2.293
	c0.073-0.157,1.245-0.286,2.225-0.286c0.979,0,1.906,0.058,2.065,0.129c0.155,0.071,0.286,1.347,0.286,2.45V-22.523z"/>
<g opacity="0.8">
	<path fill="#FFFFFF" d="M8.13,13.688h1.905c1.267,0,1.267-3.177,2.538-3.177h1.271h0.002h0.01h0.017h0.011h0.011h0.028h0.012h0.022
		h0.03h0.007h0.04h0.002h0.049l0,0h0.051h0.006h0.04H14.2h0.03h0.032h0.012h0.045h0.012h0.032h0.038h0.006h0.04h0.028h0.014h0.042
		h0.027h0.009h0.039h0.035h0.004h0.034h0.034h0.016h0.018h0.031h0.032h0.009h0.021h0.027h0.026h0.019h0.007h0.024h0.022h0.021h0.02
		h0.005h0.011h0.021h0.013h0.013h0.012h0.011h0.007h0.005h0.007l0,0h0.003l0,0h4.445c1.271,0,1.271,3.177,2.54,3.177h12.06
		c0-0.7,0.57-1.27,1.271-1.27h1.267c0.705,0,1.273,0.569,1.273,1.27h1.903c1.756,0,3.172,1.423,3.172,3.176v17.448
		c0,1.754-1.416,3.178-3.172,3.178H8.13c-1.752,0-3.174-1.424-3.174-3.178V16.863C4.956,15.11,6.378,13.688,8.13,13.688L8.13,13.688
		z M30.349,17.018c-4.731,0-8.57,3.837-8.57,8.568s3.839,8.57,8.57,8.57c4.734,0.001,8.572-3.839,8.572-8.57
		S35.083,17.018,30.349,17.018L30.349,17.018z M12.573,19.238h3.809c0.701,0,1.27-0.568,1.27-1.269v-0.636
		c0-0.701-0.568-1.267-1.27-1.267h-3.809c-0.701,0-1.271,0.565-1.271,1.267v0.636C11.302,18.67,11.872,19.238,12.573,19.238z"/>
	<path fill="#FFFFFF" d="M30.349,19.304c-3.469,0-6.283,2.812-6.283,6.282c0,3.471,2.814,6.286,6.283,6.286
		c3.471,0,6.286-2.815,6.286-6.286C36.635,22.116,33.819,19.304,30.349,19.304L30.349,19.304z"/>
</g>
</svg>
