<?xml version="1.0" encoding="utf-8"?>
<!-- Generator: Adobe Illustrator 15.0.0, SVG Export Plug-In . SVG Version: 6.00 Build 0)  -->
<!DOCTYPE svg PUBLIC "-//W3C//DTD SVG 1.1//EN" "http://www.w3.org/Graphics/SVG/1.1/DTD/svg11.dtd">
<svg version="1.1" id="Layer_1" xmlns="http://www.w3.org/2000/svg" xmlns:xlink="http://www.w3.org/1999/xlink" x="0px" y="0px"
	 width="96px" height="96px" viewBox="-24 -24 96 96" enable-background="new -24 -24 96 96" xml:space="preserve">
<g opacity="0.8">
	<path fill="#FFFFFF" d="M-7.741,3.375h3.811c2.533,0,2.533-6.354,5.076-6.354h2.542h0.004h0.02h0.034h0.021H3.79h0.056H3.87h0.044
		h0.06h0.015h0.08h0.004h0.098l0,0h0.103h0.012h0.08H4.4h0.06h0.064h0.023h0.09h0.024h0.063h0.076h0.013h0.079H4.95h0.027h0.084
		h0.055h0.018h0.078h0.07H5.29h0.068h0.067h0.032h0.036h0.062H5.62h0.018h0.042h0.055h0.052h0.038h0.014h0.048h0.044h0.042h0.04
		h0.011h0.021h0.042h0.026h0.025h0.024h0.021h0.015h0.01h0.014l0,0h0.006l0,0h8.891c2.542,0,2.542,6.354,5.08,6.354h24.121
		c0-1.4,1.139-2.54,2.541-2.54h2.535c1.41,0,2.547,1.138,2.547,2.54h3.805c3.512,0,6.344,2.846,6.344,6.353v34.897
		c0,3.508-2.832,6.355-6.344,6.355H-7.741c-3.504,0-6.348-2.848-6.348-6.355v-34.9C-14.088,6.219-11.245,3.375-7.741,3.375
		L-7.741,3.375z M36.699,10.036c-9.463,0-17.142,7.674-17.142,17.136c0,9.461,7.679,17.141,17.142,17.141
		c9.467,0.002,17.143-7.68,17.143-17.141C53.842,17.709,46.166,10.036,36.699,10.036L36.699,10.036z M1.146,14.475h7.617
		c1.402,0,2.54-1.136,2.54-2.538v-1.271c0-1.402-1.136-2.534-2.54-2.534H1.146c-1.402,0-2.543,1.13-2.543,2.534v1.271
		C-1.397,13.339-0.256,14.475,1.146,14.475z"/>
	<path fill="#FFFFFF" d="M36.699,14.608c-6.939,0-12.568,5.624-12.568,12.564c0,6.941,5.628,12.572,12.568,12.572
		c6.941,0,12.57-5.631,12.57-12.572C49.27,20.232,43.637,14.608,36.699,14.608L36.699,14.608z"/>
</g>
</svg>
