<?xml version="1.0" encoding="utf-8"?>
<!-- Generator: Adobe Illustrator 15.0.0, SVG Export Plug-In . SVG Version: 6.00 Build 0)  -->
<!DOCTYPE svg PUBLIC "-//W3C//DTD SVG 1.1//EN" "http://www.w3.org/Graphics/SVG/1.1/DTD/svg11.dtd">
<svg version="1.1" id="Layer_1" xmlns="http://www.w3.org/2000/svg" xmlns:xlink="http://www.w3.org/1999/xlink" x="0px" y="0px"
	 width="48px" height="48px" viewBox="0 0 48 48" enable-background="new 0 0 48 48" xml:space="preserve">
<rect display="none" fill="#E6E7E8" width="48" height="48"/>
<polygon display="none" opacity="0.8" fill="#555452" enable-background="new    " points="21.862,7.018 35.305,23.997 
	21.862,40.982 30.014,40.982 43.458,23.997 30.014,7.018 "/>
<polygon display="none" opacity="0.8" fill="#555452" enable-background="new    " points="4.543,7.018 17.986,23.997 4.543,40.982 
	12.696,40.982 26.139,23.997 12.693,7.018 "/>
<polygon display="none" fill="#FFFFFF" points="21.862,7.018 35.305,23.998 21.862,40.982 30.014,40.982 43.458,23.998 
	30.012,7.018 "/>
<polygon display="none" fill="#FFFFFF" points="4.542,7.018 17.986,23.998 4.542,40.982 12.696,40.982 26.139,23.998 12.693,7.018 
	"/>
<path id="audio-6-icon_4_" display="none" opacity="0.8" fill="#FFFFFF" enable-background="new    " d="M7.594,13.859h5.67
	c-2.366,5.144-2.366,15.268,0,20.413h-5.67c-2.897,0-4.219-1.769-4.889-4.541c-0.82-3.402-0.856-7.625-0.057-11.07
	C3.303,15.858,4.534,13.859,7.594,13.859z M45.932,24.01c0.008,14.221-5.568,22.778-10.842,21.008
	c-1.369-0.461-16.939-9.879-16.939-9.879c-3.527-3.936-3.527-18.214,0-22.146c0,0,16.224-9.7,16.91-9.975
	C39.825,1.094,45.921,9.777,45.932,24.01z M39.312,11.039c-1.869-4.009-4.688-3.944-6.513,0.002
	c-1.047,2.25-1.764,4.953-2.146,7.848h0.931c2.817,0,5.09,2.274,5.09,5.089c0,2.809-2.272,5.09-5.09,5.09h-0.911
	c0.389,2.838,1.094,5.574,2.139,7.964c1.752,4.022,4.791,3.952,6.512-0.001C42.77,29.102,42.46,17.813,39.312,11.039z"/>
<path id="clipboard-8-icon_1_" display="none" opacity="0.8" fill="#FFFFFF" enable-background="new    " d="M15.092,27.746
	l1.561-1.441c1.824,0.881,2.979,1.555,5.033,3.018c3.855-4.377,6.403-6.597,11.138-9.544l0.51,1.167
	c-3.907,3.41-6.768,7.206-10.886,14.591C19.907,32.544,18.21,30.639,15.092,27.746z M42.738,8.505V45.83H5.261V8.505h8.465
	l-4.271,4.23v28.796h28.982V12.735l-4.211-4.23H42.738z M29.534,8.411V7.665c0-3.036-2.461-5.496-5.495-5.496
	c-3.035,0-5.496,2.459-5.496,5.496v0.746l-5.998,6.05h23.016L29.534,8.411z M24.078,9.394c-1.042,0-1.887-0.845-1.887-1.887
	c0-1.045,0.845-1.89,1.887-1.89c1.045,0,1.889,0.845,1.889,1.89C25.967,8.548,25.123,9.394,24.078,9.394z"/>
<rect x="13.505" y="8.438" display="none" fill="none" width="30.877" height="21.494"/>
<path display="none" fill="#FFFFFF" d="M42.758,10.063v18.242H15.132V10.064L42.758,10.063 M46.01,6.812H11.878v24.745H46.01V6.812
	L46.01,6.812z"/>
<g display="none">
	<g display="inline">
		<defs>
			<polygon id="SVGID_1_" points="11.878,12.297 11.878,31.557 37.445,31.557 37.445,41.188 1.99,41.188 1.99,12.297 			"/>
		</defs>
		<clipPath id="SVGID_2_">
			<use xlink:href="#SVGID_1_"  overflow="visible"/>
		</clipPath>
		<path id="video-icon_2_" clip-path="url(#SVGID_2_)" fill="#FFFFFF" d="M5.545,39.136l30.909-4.646l-3.558-23.65L1.99,15.487
			L5.545,39.136z M33.549,30.055l0.4,2.657l-3.32,0.499l-0.4-2.658L33.549,30.055L33.549,30.055z M27.758,30.923l0.4,2.658
			l-3.318,0.5l-0.398-2.658L27.758,30.923L27.758,30.923z M21.943,31.799l0.397,2.658l-3.317,0.499l-0.401-2.658L21.943,31.799
			L21.943,31.799z M16.182,32.666l0.401,2.658l-3.322,0.499l-0.399-2.658L16.182,32.666L16.182,32.666L16.182,32.666z
			 M10.393,33.536l0.398,2.657l-3.318,0.498l-0.401-2.656L10.393,33.536L10.393,33.536z M31.715,17.852l1.533,10.203l-11.97,1.799
			l-1.533-10.203L31.715,17.852z M17.207,20.032l1.535,10.202l-11.972,1.8L5.238,21.832L17.207,20.032z M31.014,13.193l0.4,2.657
			l-3.32,0.499l-0.398-2.657L31.014,13.193z M25.225,14.063l0.399,2.658l-3.319,0.5l-0.399-2.658L25.225,14.063z M19.408,14.938
			l0.399,2.658l-3.318,0.5l-0.4-2.658L19.408,14.938z M13.644,15.805l0.401,2.656l-3.318,0.5l-0.4-2.658L13.644,15.805z
			 M7.856,16.676l0.4,2.657l-3.319,0.499l-0.398-2.657L7.856,16.676z"/>
	</g>
</g>
<path display="none" fill="#FFFFFF" d="M24.312,2.066h-0.729c-1.697,0-3.072,1.375-3.072,3.074v1.426L27.6,6.565l0.032-1.178
	C27.632,2.045,24.312,2.066,24.312,2.066z"/>
<path display="none" fill="#FFFFFF" d="M7.851,11.605v30.792c0,1.953,1.584,3.535,3.539,3.535l25.109,0.002
	c1.952-0.002,3.533-1.584,3.533-3.537l0.002-30.792H7.851z M16.497,41.264c0,0.754-0.832,1.366-1.861,1.366
	c-1.031,0-1.863-0.61-1.863-1.366V15.257c0-0.756,0.834-1.368,1.863-1.368c1.029,0,1.861,0.612,1.861,1.368V41.264z M25.523,41.371
	c0,0.755-0.834,1.367-1.861,1.367c-1.032,0-1.865-0.611-1.865-1.367V15.365c0-0.755,0.835-1.368,1.865-1.368
	c1.027,0,1.861,0.612,1.861,1.368V41.371z M34.372,41.371c0,0.755-0.833,1.367-1.86,1.367c-1.031,0-1.865-0.611-1.865-1.367V15.365
	c0-0.755,0.836-1.368,1.865-1.368c1.027,0,1.86,0.612,1.86,1.368V41.371z"/>
<rect x="6.467" y="5.835" display="none" fill="#FFFFFF" width="35.066" height="3.428"/>
<path display="none" opacity="0.8" fill="#FFFFFF" enable-background="new    " d="M35.279,6.533
	c0.478-0.658,1.25-1.046,2.063-1.046c0.546,0,1.065,0.167,1.509,0.492c0.556,0.398,0.914,0.998,1.017,1.675
	c0.106,0.668-0.062,1.348-0.461,1.9c-0.479,0.652-1.259,1.04-2.076,1.04c-0.544,0-1.058-0.169-1.503-0.494
	C34.693,9.271,34.445,7.671,35.279,6.533z M23.923,24.75c-1.104,0-2.001-0.896-2.001-2c0-1.099,0.897-1.998,2.001-1.998
	c1.097,0,1.994,0.899,1.994,1.998C25.917,23.854,25.02,24.75,23.923,24.75z M7.975,7.654c0.108-0.677,0.472-1.277,1.016-1.675
	c0.443-0.325,0.962-0.492,1.508-0.492c0.811,0,1.59,0.389,2.068,1.046c0.397,0.549,0.565,1.223,0.459,1.899
	c-0.096,0.671-0.459,1.264-1.018,1.668c-0.441,0.324-0.961,0.494-1.503,0.494c-0.812,0-1.583-0.388-2.06-1.04
	C8.035,9.001,7.878,8.322,7.975,7.654z M5.733,11.538c0.642,0.889,1.657,1.644,2.369,2.005c0.369,0.184,0.811,0.433,1.364,0.751
	c0.496,0.277,1.084,0.615,1.805,1.002c3.77,2.055,6.221,4.14,6.237,4.158c0.012,0.018,1.33,1.163,2.473,2.438
	c-3.059,7.119-8.037,18.78-8.319,19.904c-0.424,1.675,0.762,3.274,0.814,3.337l0.551,0.738l0.475-0.785l10.421-17.164l10.411,17.164
	l0.482,0.785l0.547-0.738c0.051-0.062,1.234-1.662,0.816-3.337c-0.277-1.119-5.263-12.785-8.318-19.904
	c1.145-1.275,2.462-2.421,2.471-2.43c0.025-0.026,2.471-2.111,6.248-4.167c0.717-0.388,1.309-0.725,1.801-1.012
	c0.549-0.309,0.989-0.558,1.357-0.742c0.713-0.361,1.727-1.116,2.38-2.005c1.922-2.629,1.353-6.348-1.275-8.273
	c-1.021-0.747-2.218-1.141-3.479-1.141c-1.87,0-3.659,0.899-4.773,2.396c-0.486,0.646-0.83,1.382-0.986,2.076
	c-0.201,0.562-0.271,0.989-0.34,1.441c-0.123,0.67-0.244,1.429-0.856,2.95c-1.187,2.968-3.39,5.445-3.438,5.486
	c-0.602,0.72-1.652,1.426-3.047,2.044c-1.397-0.618-2.455-1.325-3.072-2.059c-0.017-0.027-2.216-2.499-3.414-5.472
	c-0.605-1.521-0.74-2.279-0.85-2.95c-0.072-0.452-0.15-0.879-0.327-1.382C16.073,5.9,15.731,5.164,15.256,4.5
	c-1.126-1.49-2.9-2.378-4.769-2.378c-1.266,0-2.469,0.394-3.485,1.141C4.372,5.195,3.794,8.909,5.733,11.538z"/>
<path display="none" fill="#FFFFFF" d="M24.029,45.965C11.915,45.965,2.062,36.111,2.062,24c0-12.112,9.853-21.965,21.967-21.965
	c12.112,0,21.965,9.854,21.965,21.965C45.994,36.111,36.141,45.965,24.029,45.965z M24.029,6.464C14.36,6.464,6.491,14.331,6.491,24
	s7.869,17.536,17.538,17.536c9.668,0,17.538-7.867,17.538-17.536S33.697,6.464,24.029,6.464z"/>
<path display="none" fill="#FFFFFF" d="M29.255,35.662H19.201V34.5c0.274-0.021,0.546-0.048,0.812-0.08
	c0.265-0.031,0.491-0.084,0.684-0.158c0.339-0.128,0.575-0.31,0.713-0.549c0.14-0.238,0.21-0.555,0.21-0.947v-9.258
	c0-0.371-0.086-0.696-0.256-0.979c-0.169-0.28-0.382-0.505-0.635-0.675c-0.19-0.127-0.48-0.25-0.868-0.366
	c-0.387-0.116-0.74-0.19-1.058-0.223v-1.162L26.6,19.69l0.237,0.238v12.63c0,0.371,0.079,0.687,0.239,0.945
	c0.16,0.26,0.388,0.453,0.684,0.58c0.213,0.096,0.446,0.182,0.7,0.255c0.253,0.075,0.521,0.127,0.797,0.16v1.163H29.255z
	 M26.932,13.964c0,0.808-0.311,1.494-0.932,2.061c-0.621,0.568-1.355,0.852-2.204,0.852c-0.858,0-1.599-0.284-2.219-0.852
	c-0.62-0.566-0.931-1.253-0.931-2.061c0-0.805,0.311-1.495,0.931-2.067c0.621-0.572,1.361-0.859,2.219-0.859
	c0.861,0,1.597,0.287,2.211,0.859C26.625,12.469,26.932,13.159,26.932,13.964z"/>
<path display="none" fill="#FFFFFF" d="M45.143,22.642c0.068,0.704,0.104,1.411,0.104,2.118c0,0.525-0.014,1.045-0.057,1.574
	c-0.203,2.76-0.924,5.407-2.139,7.877c-1.269,2.559-3.011,4.807-5.188,6.684c-2.172,1.877-4.656,3.272-7.373,4.146
	c-2.606,0.843-5.387,1.128-8.085,0.971c-2.777-0.207-5.43-0.927-7.894-2.152c-2.143-1.055-4.1-2.549-5.78-4.264l-0.023,0.019
	l-3.912,3.325L3.792,29.198l13.41,3.181l-3.87,3.293l-0.026,0.016c1.096,1.037,2.449,2.047,3.804,2.713
	c1.739,0.86,3.669,1.394,5.596,1.535c2.044,0.107,4.005-0.105,5.821-0.689c1.934-0.624,3.703-1.62,5.256-2.964
	c1.554-1.341,2.799-2.945,3.701-4.769c0.867-1.759,1.389-3.644,1.531-5.609c0.03-0.389,0.045-0.766,0.045-1.146
	c0-0.71-0.049-1.415-0.148-2.11"/>
<path display="none" fill="#FFFFFF" d="M2.596,25.447c-0.071-0.701-0.107-1.411-0.107-2.118c0-0.526,0.018-1.046,0.056-1.572
	c0.205-2.761,0.928-5.41,2.141-7.88c1.267-2.555,3.01-4.806,5.188-6.684c2.173-1.874,4.656-3.27,7.378-4.149
	c2.6-0.84,5.385-1.124,8.078-0.968c2.783,0.205,5.43,0.928,7.896,2.154c2.145,1.054,4.104,2.548,5.781,4.262l0.023-0.017l3.91-3.326
	l1.002,13.739l-13.406-3.176l3.869-3.295l0.025-0.018c-1.093-1.035-2.449-2.044-3.806-2.713c-1.733-0.859-3.668-1.392-5.597-1.533
	c-2.042-0.107-4.003,0.106-5.821,0.689c-1.932,0.623-3.7,1.62-5.255,2.964c-1.554,1.339-2.797,2.941-3.696,4.768
	c-0.871,1.758-1.392,3.642-1.534,5.609c-0.031,0.389-0.046,0.769-0.046,1.145c0,0.709,0.05,1.414,0.148,2.109"/>
<path display="none" fill="#FFFFFF" d="M12.582,19.775c2.617,0,5.052,0.793,7.081,2.153c-0.079-3.141,0.367-6.37,1.341-8.491h-4.329
	c-2.335,0-3.28,1.527-3.776,3.665c-0.197,0.844-0.318,1.751-0.383,2.676C12.537,19.778,12.558,19.775,12.582,19.775z"/>
<path display="none" fill="#FFFFFF" d="M37.639,5.162c-0.521,0.212-12.906,7.613-12.906,7.613c-1.879,2.095-2.446,8.037-1.7,12.458
	c0.965,1.379,1.67,2.951,2.03,4.652c1.914,1.155,11.658,7.024,12.603,7.342c4.024,1.354,8.28-5.182,8.274-16.038
	C45.934,10.323,41.277,3.692,37.639,5.162z M40.895,31.127c-1.312,3.02-3.633,3.071-4.969,0.002
	c-0.796-1.826-1.337-3.914-1.632-6.08h0.697c2.146,0,3.884-1.743,3.884-3.887c0-2.146-1.738-3.885-3.884-3.885h-0.714
	c0.291-2.208,0.841-4.273,1.638-5.992c1.394-3.013,3.549-3.062,4.972-0.001C43.291,16.456,43.525,25.074,40.895,31.127z"/>
<g id="picture-add-icon_5_" display="none">
	<path display="inline" fill="#FFFFFF" d="M23.191,32.508c0,5.86-4.748,10.61-10.61,10.61c-5.86,0-10.609-4.75-10.609-10.61
		c0-5.857,4.75-10.61,10.609-10.61C18.443,21.898,23.191,26.65,23.191,32.508z M19.103,30.889h-4.592v-4.592h-3.549v4.592H6.37
		v3.547h4.592v4.594h3.549v-4.594h4.592V30.889z"/>
</g>
<path display="none" fill="#FFFFFF" d="M19.963,24.173c0,2.466,1.995,4.463,4.465,4.463c2.462,0,4.46-1.997,4.46-4.463
	c0-2.463-1.998-4.461-4.46-4.461C21.958,19.712,19.963,21.71,19.963,24.173z"/>
<path display="none" fill="#FFFFFF" d="M34.984,35.919c-1.619,1.388-3.45,2.419-5.453,3.067c-1.561,0.507-3.188,0.762-4.82,0.762
	c-0.395-0.005-0.788-0.018-1.168-0.045c-2.057-0.154-4.021-0.689-5.841-1.588c-1.884-0.93-3.542-2.221-4.941-3.838
	c-1.39-1.61-2.42-3.444-3.069-5.446C9.194,27.281,8.937,25.65,8.937,24c0-0.391,0.017-0.781,0.046-1.186
	c0.148-2.037,0.688-3.99,1.59-5.81c0.932-1.892,2.221-3.554,3.829-4.94c1.614-1.393,3.446-2.426,5.449-3.072
	c1.879-0.603,3.914-0.828,6.029-0.714c1.997,0.148,3.997,0.697,5.798,1.588c1.406,0.694,2.811,1.741,3.94,2.814l-0.025,0.017
	l-4.008,3.411L45.477,19.4L44.436,5.167l-4.049,3.445l-0.029,0.019c-1.739-1.774-3.769-3.323-5.989-4.414
	c-2.552-1.271-5.296-2.021-8.179-2.232c-2.791-0.164-5.675,0.133-8.372,1.003c-2.816,0.908-5.392,2.354-7.641,4.3
	c-2.258,1.944-4.066,4.272-5.378,6.921c-1.257,2.56-2.003,5.306-2.212,8.166c-0.044,0.544-0.062,1.083-0.062,1.626
	c0,2.304,0.356,4.581,1.06,6.763c0.905,2.817,2.351,5.385,4.292,7.637c1.942,2.252,4.274,4.059,6.924,5.373
	c2.565,1.264,5.311,2.016,8.163,2.224c0.516,0.039,1.03,0.062,1.546,0.062h0.104c2.301,0,4.566-0.361,6.738-1.063
	c2.813-0.904,5.387-2.349,7.646-4.294c2.257-1.944,4.062-4.271,5.366-6.924l-5.549-2.797C37.879,32.867,36.594,34.529,34.984,35.919
	z"/>
<path display="none" fill="#FFFFFF" d="M46.148,34.922h-6.996V9.965h-27.2V2.972H8.841v6.993H1.85v3.11h6.992v24.956h27.206v6.996
	h3.104v-6.996h6.998v-3.109H46.148z M11.953,34.922V13.076h24.095v21.846H11.953z"/>
<polygon display="none" fill="#FFFFFF" points="20.747,23.325 26.773,27.857 29.828,26.697 33.583,29.673 33.583,32.395 
	14.412,32.395 14.412,27.473 "/>
<path id="picture-add-icon_1_" display="none" opacity="0.8" fill="#FFFFFF" enable-background="new    " d="M45.678,24.001
	c0,11.974-9.701,21.677-21.68,21.677c-11.97,0-21.676-9.703-21.676-21.677c0-11.974,9.706-21.68,21.676-21.68
	C35.977,2.321,45.678,12.027,45.678,24.001z M37.323,20.691h-9.384v-9.383h-7.25v9.383h-9.382v7.247h9.382v9.386h7.25v-9.386h9.384
	V20.691z"/>
<path id="picture-box-icon_2_" display="none" fill="#FFFFFF" d="M30.461,32.876l-2.833,2.642h-7.26l-2.841-2.642H1.985H1.978
	l1.602,9.521l40.635-0.002l1.707-9.519h-0.007H30.461z M41.932,11.425H5.968L5.543,9.116h36.814L41.932,11.425z M39.461,7.425H8.541
	L8.116,5.604h31.772L39.461,7.425z M4.544,30.438l-1.439-17.2h41.599l-1.478,17.202h-3.646l0.999-14.016H7.127l1.1,14.016H4.544
	V30.438z"/>
<path display="none" fill="#FFFFFF" d="M37.87,45.42H9.789c-1.393,0-2.324-0.814-2.324-2.031V6.687c0-1.213,0.932-2.029,2.324-2.029
	H37.87c1.392,0,2.325,0.816,2.325,2.029v36.702C40.195,44.605,39.26,45.42,37.87,45.42z M10.301,42.939h27.057v-35.8L10.301,7.136
	V42.939z"/>
<path display="none" fill="#FFFFFF" d="M37.87,45.896H9.789c-1.649,0-2.803-1.03-2.803-2.508V6.687c0-1.476,1.153-2.508,2.803-2.508
	H37.87c1.649,0,2.804,1.032,2.804,2.508v36.702C40.673,44.866,39.52,45.896,37.87,45.896z M9.789,5.134
	c-1.122,0-1.848,0.61-1.848,1.553v36.702c0,0.943,0.726,1.553,1.848,1.553H37.87c1.124,0,1.847-0.608,1.847-1.553V6.687
	c0-0.942-0.723-1.553-1.847-1.553H9.789z M37.835,43.416H9.825V6.66l28.011,0.002L37.835,43.416L37.835,43.416z M10.779,42.461
	h26.103V7.616L10.779,7.613V42.461z"/>
<path display="none" fill="#FFFFFF" d="M12.601,10.563c-0.486,0-0.883-0.345-0.883-0.773V9.61c0-0.428,0.396-0.774,0.883-0.774
	h0.794c0.489,0,0.885,0.347,0.885,0.774v0.18c0,0.429-0.396,0.773-0.885,0.773H12.601z"/>
<path display="none" fill="#FFFFFF" d="M13.395,9.168c0.28,0,0.506,0.196,0.506,0.441v0.18c0,0.244-0.226,0.443-0.506,0.443h-0.794
	c-0.278,0-0.506-0.199-0.506-0.443V9.61c0-0.245,0.228-0.441,0.506-0.441L13.395,9.168 M13.395,8.505h-0.794
	c-0.696,0-1.263,0.494-1.263,1.104v0.18c0,0.611,0.566,1.104,1.263,1.104h0.794c0.698,0,1.264-0.492,1.264-1.104V9.61
	C14.659,9,14.093,8.505,13.395,8.505L13.395,8.505z"/>
<path display="none" fill="#FFFFFF" d="M17.949,10.563c-0.486,0-0.885-0.345-0.885-0.773V9.61c0-0.428,0.398-0.774,0.885-0.774
	h0.795c0.486,0,0.883,0.347,0.883,0.774v0.18c0,0.429-0.396,0.773-0.883,0.773H17.949z"/>
<path display="none" fill="#FFFFFF" d="M18.744,9.168c0.279,0,0.506,0.196,0.506,0.441v0.18c0,0.244-0.227,0.443-0.506,0.443h-0.795
	c-0.279,0-0.506-0.199-0.506-0.443V9.61c0-0.245,0.227-0.441,0.506-0.441L18.744,9.168 M18.744,8.505h-0.795
	c-0.697,0-1.262,0.494-1.262,1.104v0.18c0,0.611,0.564,1.104,1.262,1.104h0.795c0.697,0,1.264-0.492,1.264-1.104V9.61
	C20.007,9,19.441,8.505,18.744,8.505L18.744,8.505z"/>
<path display="none" fill="#FFFFFF" d="M23.295,10.563c-0.488,0-0.881-0.345-0.881-0.773V9.61c0-0.428,0.393-0.774,0.881-0.774
	h0.797c0.486,0,0.883,0.347,0.883,0.774v0.18c0,0.429-0.396,0.773-0.883,0.773H23.295z"/>
<path display="none" fill="#FFFFFF" d="M24.092,9.168c0.277,0,0.506,0.196,0.506,0.441v0.18c0,0.244-0.229,0.443-0.506,0.443h-0.797
	c-0.279,0-0.507-0.199-0.507-0.443V9.61c0-0.245,0.228-0.441,0.507-0.441L24.092,9.168 M24.092,8.505h-0.797
	c-0.695,0-1.26,0.494-1.26,1.104v0.18c0,0.611,0.564,1.104,1.26,1.104h0.797c0.697,0,1.26-0.492,1.26-1.104V9.61
	C25.352,9,24.79,8.505,24.092,8.505L24.092,8.505z"/>
<path display="none" fill="#FFFFFF" d="M28.889,10.563c-0.486,0-0.883-0.345-0.883-0.773V9.61c0-0.428,0.396-0.774,0.883-0.774
	h0.795c0.488,0,0.885,0.347,0.885,0.774v0.18c0,0.429-0.396,0.773-0.885,0.773H28.889z"/>
<path display="none" fill="#FFFFFF" d="M29.684,9.168c0.281,0,0.506,0.196,0.506,0.441v0.18c0,0.244-0.225,0.443-0.506,0.443h-0.795
	c-0.277,0-0.504-0.199-0.504-0.443V9.61c0-0.245,0.227-0.441,0.504-0.441L29.684,9.168 M29.684,8.505h-0.795
	c-0.697,0-1.26,0.494-1.26,1.104v0.18c0,0.611,0.562,1.104,1.26,1.104h0.795c0.699,0,1.262-0.492,1.262-1.104V9.61
	C30.945,9,30.383,8.505,29.684,8.505L29.684,8.505z"/>
<path display="none" fill="#FFFFFF" d="M34.238,10.563c-0.487,0-0.885-0.345-0.885-0.773V9.61c0-0.428,0.396-0.774,0.885-0.774
	h0.796c0.487,0,0.883,0.347,0.883,0.774v0.18c0,0.429-0.396,0.773-0.883,0.773H34.238z"/>
<path display="none" fill="#FFFFFF" d="M35.034,9.168c0.276,0,0.505,0.196,0.505,0.441v0.18c0,0.244-0.229,0.443-0.505,0.443h-0.796
	c-0.28,0-0.506-0.199-0.506-0.443V9.61c0-0.245,0.226-0.441,0.506-0.441L35.034,9.168 M35.034,8.505h-0.796
	c-0.7,0-1.264,0.494-1.264,1.104v0.18c0,0.611,0.562,1.104,1.264,1.104h0.796c0.694,0,1.261-0.492,1.261-1.104V9.61
	C36.294,9,35.729,8.505,35.034,8.505L35.034,8.505z"/>
<path display="none" fill="#FFFFFF" d="M24.898,9.032L23.86,8.637c0.316-0.644,0.522-1.339,0.622-2.128
	c0.243-1.838-0.259-3.115-0.915-3.381c-0.192,0.216-0.534,0.899-0.823,1.991l-1.106-0.223c0.694-2.615,1.457-2.736,1.708-2.778
	c0.086-0.014,0.2-0.023,0.335-0.002c1.478,0.304,2.246,2.113,1.93,4.505C25.498,7.51,25.268,8.299,24.898,9.032z"/>
<path display="none" fill="#FFFFFF" d="M30.367,9.032l-1.042-0.395c0.319-0.644,0.524-1.339,0.628-2.128
	c0.238-1.838-0.266-3.115-0.919-3.381c-0.194,0.216-0.532,0.899-0.82,1.991l-1.106-0.223C27.8,2.28,28.561,2.16,28.812,2.118
	c0.084-0.01,0.201-0.023,0.336-0.002c1.474,0.304,2.244,2.113,1.934,4.505C30.964,7.51,30.732,8.297,30.367,9.032z"/>
<path display="none" fill="#FFFFFF" d="M35.714,9.032l-1.042-0.395c0.314-0.642,0.523-1.337,0.627-2.128
	c0.241-1.838-0.263-3.114-0.919-3.381c-0.19,0.216-0.534,0.899-0.823,1.991l-1.103-0.223c0.688-2.614,1.453-2.736,1.703-2.778
	c0.129-0.018,0.233-0.018,0.34-0.002c1.474,0.304,2.239,2.11,1.93,4.505C36.311,7.512,36.077,8.302,35.714,9.032z"/>
<path display="none" fill="#FFFFFF" d="M19.553,9.032l-1.042-0.395c0.32-0.644,0.523-1.339,0.627-2.128
	c0.242-1.838-0.264-3.115-0.918-3.381c-0.193,0.216-0.534,0.899-0.822,1.991l-1.106-0.223c0.692-2.615,1.455-2.736,1.707-2.778
	c0.123-0.02,0.237-0.018,0.345,0.002c1.466,0.3,2.235,2.106,1.925,4.501C20.152,7.51,19.917,8.297,19.553,9.032z"/>
<path display="none" fill="#FFFFFF" d="M14.217,9.032l-1.04-0.395c0.321-0.646,0.523-1.34,0.627-2.128
	c0.241-1.838-0.263-3.115-0.917-3.381c-0.196,0.216-0.534,0.899-0.823,1.991L10.96,4.896c0.688-2.615,1.452-2.736,1.704-2.778
	C12.789,2.1,12.902,2.1,13.01,2.12c1.467,0.3,2.234,2.109,1.923,4.501C14.818,7.506,14.583,8.295,14.217,9.032z"/>
<polygon id="up_button_3_" display="none" opacity="0.8" fill="#FFFFFF" enable-background="new    " points="30.333,45.96 
	12.946,24.005 30.333,2.04 19.789,2.04 2.404,24.005 19.789,45.96 "/>
<path id="user-icon_4_" display="none" opacity="0.8" fill="#FFFFFF" enable-background="new    " d="M40.137,35.131
	c-6.291-1.451-12.146-2.722-9.31-8.068C39.457,10.788,33.113,2.088,24,2.088c-9.295,0-15.482,9.036-6.828,24.975
	c2.922,5.379-3.153,6.65-9.308,8.068c-6.289,1.45-5.805,4.766-5.805,10.78h43.88C45.939,39.896,46.425,36.581,40.137,35.131z"/>
<g id="lessons_2_" transform="translate(-63.772761,-91.391883)" inkscape:label="Ebene 1" inkscape:groupmode="layer">
	<rect x="1371.617" y="-95.134" fill="#FFFFFF" width="57.318" height="74.731"/>
	
		<g id="g21342_19_" transform="matrix(0.02241494,-0.00600606,0.00600606,0.02241494,373.94426,448.30452)" inkscape:export-ydpi="150" inkscape:export-xdpi="150" inkscape:export-filename="/Users/Admin/Downloads/notebook.png">
		<g id="rect21306_19_">
			<path fill="#231F20" d="M49053.738-7640.477l-2330.039-624.324c-115.402-30.922-174.699-119.371-147.676-220.221
				l815.922-3045.097c26.992-100.749,122.594-147.783,237.996-116.861l2330.039,624.324
				c115.441,30.933,174.715,119.463,147.723,220.212l-815.922,3045.096C49264.758-7656.497,49169.18-7609.544,49053.738-7640.477z
				 M46821.32-8459.225l2245.082,601.561l795.93-2970.485l-2244.992-601.733L46821.32-8459.225z"/>
		</g>
		
			<g id="rect21308_19_" inkscape:export-ydpi="71.998093" inkscape:export-xdpi="71.998093" inkscape:export-filename="/home/alex/Dropbox/Arcomem Files/Arcomem Video/arcomem_storyboard_draft.png">
			<g>
				<path fill="#231F20" d="M47731.965-11094.438c-40.406-10.826-65.578-48.264-56.059-83.791l3.992-14.897
					c9.52-35.527,50.059-55.445,90.465-44.619l66.012,17.688c40.527,10.859,65.637,48.368,56.117,83.896l-3.992,14.897
					c-9.52,35.527-49.996,55.374-90.523,44.515L47731.965-11094.438z"/>
			</g>
			<g>
				<path fill="#231F20" d="M47828.996-11192.518c23.129,6.198,37.57,27.602,32.117,47.946l-3.992,14.897
					c-5.43,20.264-28.656,31.664-51.785,25.466l-66.012-17.688c-23.09-6.187-37.465-27.661-32.035-47.925l3.992-14.897
					c5.453-20.345,28.613-31.674,51.703-25.487L47828.996-11192.518 M47843.727-11247.495l-66.012-17.688
					c-57.805-15.488-115.609,12.938-129.199,63.648l-3.992,14.897c-13.586,50.71,22.285,104.149,80.09,119.638l66.012,17.688
					c57.887,15.51,115.672-12.835,129.258-63.545l3.992-14.897C47937.465-11178.464,47901.613-11231.985,47843.727-11247.495
					L47843.727-11247.495z"/>
			</g>
		</g>
		
			<g id="rect21310_19_" inkscape:export-ydpi="71.998093" inkscape:export-xdpi="71.998093" inkscape:export-filename="/home/alex/Dropbox/Arcomem Files/Arcomem Video/arcomem_storyboard_draft.png">
			<g>
				<path fill="#231F20" d="M48175.688-10975.544c-40.402-10.826-65.578-48.264-56.059-83.791l3.992-14.897
					c9.52-35.527,50.062-55.445,90.465-44.619l65.973,17.678c40.488,10.848,65.637,48.367,56.117,83.895l-3.992,14.897
					c-9.52,35.527-50.035,55.363-90.523,44.516L48175.688-10975.544z"/>
			</g>
			<g>
				<path fill="#231F20" d="M48272.68-11073.634c23.133,6.197,37.527,27.591,32.074,47.936l-3.992,14.897
					c-5.43,20.264-28.609,31.674-51.742,25.477l-65.973-17.678c-23.086-6.187-37.547-27.683-32.117-47.946l3.992-14.897
					c5.453-20.345,28.699-31.652,51.785-25.466L48272.68-11073.634 M48287.41-11128.611l-65.973-17.678
					c-57.883-15.51-115.605,12.938-129.195,63.648l-3.992,14.897c-13.586,50.71,22.203,104.128,80.086,119.638l65.973,17.678
					c57.887,15.51,115.711-12.825,129.297-63.535l3.992-14.897C48381.188-11059.57,48345.297-11113.102,48287.41-11128.611
					L48287.41-11128.611z"/>
			</g>
		</g>
		
			<g id="rect21312_19_" inkscape:export-ydpi="71.998093" inkscape:export-xdpi="71.998093" inkscape:export-filename="/home/alex/Dropbox/Arcomem Files/Arcomem Video/arcomem_storyboard_draft.png">
			<g>
				<path fill="#231F20" d="M48619.414-10856.649c-40.406-10.827-65.578-48.264-56.059-83.791l3.992-14.897
					c9.52-35.527,50.059-55.446,90.465-44.619l66.094,17.71c40.406,10.826,65.555,48.345,56.035,83.872l-3.992,14.897
					c-9.52,35.527-50.035,55.364-90.441,44.538L48619.414-10856.649z"/>
			</g>
			<g>
				<path fill="#231F20" d="M48716.527-10954.707c23.09,6.187,37.527,27.59,32.074,47.935l-3.992,14.897
					c-5.43,20.264-28.652,31.664-51.742,25.478l-66.094-17.71c-23.09-6.187-37.469-27.661-32.039-47.925l3.992-14.897
					c5.453-20.345,28.617-31.674,51.707-25.487L48716.527-10954.707 M48731.258-11009.685l-66.094-17.71
					c-57.684-15.456-115.609,12.938-129.199,63.647l-3.992,14.897c-13.586,50.71,22.406,104.183,80.09,119.639l66.094,17.71
					c57.805,15.487,115.586-12.857,129.172-63.567l3.992-14.897C48824.91-10940.676,48789.062-10994.197,48731.258-11009.685
					L48731.258-11009.685z"/>
			</g>
		</g>
		
			<g id="rect21314_19_" inkscape:export-ydpi="71.998093" inkscape:export-xdpi="71.998093" inkscape:export-filename="/home/alex/Dropbox/Arcomem Files/Arcomem Video/arcomem_storyboard_draft.png">
			<g>
				<path fill="#231F20" d="M49083.543-10732.288c-40.406-10.826-65.66-48.285-56.141-83.812l3.992-14.897
					c9.52-35.527,50.141-55.424,90.547-44.598l66.016,17.688c40.402,10.826,65.594,48.356,56.074,83.884l-3.992,14.897
					c-9.52,35.527-50.078,55.353-90.48,44.526L49083.543-10732.288z"/>
			</g>
			<g>
				<path fill="#231F20" d="M49180.578-10830.367c23.168,6.208,37.484,27.579,32.031,47.924l-3.992,14.897
					c-5.43,20.264-28.531,31.696-51.699,25.488l-66.016-17.688c-23.09-6.187-37.547-27.683-32.117-47.946l3.992-14.897
					c5.453-20.345,28.695-31.652,51.785-25.466L49180.578-10830.367 M49195.309-10885.345l-66.016-17.688
					c-57.805-15.488-115.688,12.916-129.277,63.626l-3.992,14.897c-13.586,50.71,22.363,104.172,80.168,119.66l66.016,17.688
					c57.801,15.487,115.586-12.857,129.172-63.567l3.992-14.897C49288.961-10816.336,49253.109-10869.857,49195.309-10885.345
					L49195.309-10885.345z"/>
			</g>
		</g>
		
			<g id="rect21316_19_" inkscape:export-ydpi="71.998093" inkscape:export-xdpi="71.998093" inkscape:export-filename="/home/alex/Dropbox/Arcomem Files/Arcomem Video/arcomem_storyboard_draft.png">
			<g>
				<path fill="#231F20" d="M49527.266-10613.395c-40.402-10.826-65.656-48.285-56.137-83.812l3.992-14.897
					c9.52-35.527,50.141-55.424,90.543-44.598l65.934,17.667c40.445,10.837,65.637,48.367,56.117,83.895l-3.992,14.897
					c-9.52,35.527-50.078,55.353-90.523,44.516L49527.266-10613.395z"/>
			</g>
			<g>
				<path fill="#231F20" d="M49624.219-10711.495c23.172,6.208,37.609,27.612,32.156,47.957l-3.992,14.897
					c-5.43,20.264-28.652,31.663-51.824,25.455l-65.934-17.667c-23.168-6.208-37.547-27.683-32.117-47.946l3.992-14.897
					c5.453-20.345,28.617-31.674,51.785-25.466L49624.219-10711.495 M49638.949-10766.473l-65.934-17.667
					c-57.883-15.51-115.727,12.906-129.316,63.616l-3.992,14.897c-13.586,50.71,22.324,104.16,80.207,119.67l65.934,17.667
					c57.844,15.499,115.668-12.836,129.254-63.546l3.992-14.897C49732.684-10697.442,49696.793-10750.974,49638.949-10766.473
					L49638.949-10766.473z"/>
			</g>
		</g>
		<g id="path21318_19_">
			<path fill="#231F20" d="M48786.516-10948.11l-77.609-55.867c40.797-46.251,73.285-99.368,99.23-162.538
				c60.875-147.196,47.586-264.425-0.914-300.969c-20.852,13.584-64.336,62.708-112.555,146.879l-86.734-43.106
				c115.578-201.595,181.539-194.615,203.258-192.413c7.555,0.76,17.199,2.474,27.891,7.278
				c115.812,58.02,139.414,225.217,60.227,416.694C48869.945-11060.945,48833.094-11000.807,48786.516-10948.11z"/>
		</g>
		<g id="path21320_19_">
			<path fill="#231F20" d="M49240.117-10826.57l-77.648-55.877c40.793-46.251,73.324-99.357,99.387-162.495
				c60.715-147.239,47.387-264.479-0.992-300.99c-20.828,13.503-64.375,62.697-112.633,146.857l-86.695-43.097
				c115.68-201.654,181.582-194.604,203.219-192.424c7.258,0.878,17.117,2.452,27.934,7.289
				c115.688,57.988,139.289,225.185,60.223,416.694C49323.508-10939.416,49286.719-10879.348,49240.117-10826.57z"/>
		</g>
		<g id="path21322_19_">
			<path fill="#231F20" d="M49683.762-10707.698l-77.652-55.877c40.668-46.09,73.195-99.195,99.395-162.495
				c60.75-147.229,47.395-264.366-0.996-300.99c-20.77,13.605-64.297,62.719-112.555,146.879l-86.734-43.106
				c115.594-201.482,181.539-194.616,203.18-192.435c10.98,1.286,19.762,3.639,27.93,7.289
				c115.688,57.987,139.34,225,60.223,416.694C49767.043-10820.483,49730.141-10760.142,49683.762-10707.698z"/>
		</g>
		<g id="path21324_19_">
			<path fill="#231F20" d="M48342.914-11066.972l-77.652-55.878c40.84-46.24,73.246-99.379,99.312-162.517
				c60.793-147.218,47.426-264.468-0.996-300.99c-20.809,13.595-64.336,62.708-112.551,146.879l-86.738-43.106
				c115.5-201.616,181.5-194.627,203.262-192.413c10.703,1.017,20.047,3.716,28.668,7.791
				c114.871,57.464,138.602,224.498,59.527,416.203C48426.301-11179.817,48389.391-11119.782,48342.914-11066.972z"/>
		</g>
		<g id="path21326_19_">
			<path fill="#231F20" d="M47900.285-11185.571l-77.609-55.867c40.988-46.482,73.332-99.551,99.312-162.517
				c60.793-147.218,47.426-264.468-0.996-300.99c-20.91,13.48-64.375,62.697-112.551,146.879l-86.738-43.106
				c115.293-201.671,181.461-194.638,203.262-192.413c10.859,1.254,20.129,3.737,28.59,7.769
				c115.109,57.529,138.629,224.704,59.441,416.182C47983.895-11298.75,47947.043-11238.611,47900.285-11185.571z"/>
		</g>
	</g>
</g>
<polygon fill="#FFFFFF" points="1425.099,-127.494 1492.824,-127.494 1497.478,-165.021 1420.663,-165.021 "/>
<g id="project_x5F_story">
	<path id="picture-box-icon_4_" fill="#231F20" d="M1472.271-131.594l-5.738,5.357h-14.722l-5.761-5.357h-31.521h-0.015
		l3.249,19.305l82.405-0.004l3.459-19.301h-0.014H1472.271z M1495.532-175.092h-72.922l-0.865-4.683h74.655L1495.532-175.092z
		 M1490.527-183.204h-62.702l-0.863-3.693h64.434L1490.527-183.204z M1419.718-136.537l-2.912-34.88h84.352l-2.994,34.88h-7.394
		l2.023-28.418h-67.837l2.236,28.418H1419.718z"/>
</g>
<g id="checkbox">
	<g opacity="0.8">
		<polygon fill="#343433" points="1591.43,-125.725 1572.809,-125.725 1572.809,-144.345 1592.76,-144.345 1592.76,-145.675 
			1571.479,-145.675 1571.479,-124.395 1592.76,-124.395 1592.76,-145.671 1591.43,-145.671 		"/>
	</g>
</g>
<g id="checkbox_x5F_checked">
	<polygon fill="#ED342A" points="1627.288,-146.257 1616.558,-134.028 1612.21,-137.843 1609.577,-134.843 1616.925,-128.397 
		1630.288,-143.627 	"/>
	<g opacity="0.8">
		<polygon fill="#343433" points="1625.884,-125.725 1607.263,-125.725 1607.263,-144.345 1624.554,-144.345 1624.554,-145.675 
			1605.933,-145.675 1605.933,-124.395 1627.214,-124.395 1627.214,-136.366 1625.884,-136.366 		"/>
	</g>
</g>
<g>
	<polygon fill="#231F20" points="1652.357,77.988 1652.348,75.166 1656.646,79.429 1652.375,83.72 1652.365,80.811 1647.014,80.829 
		1647.004,78.007 	"/>
	<polygon fill="#231F20" points="1637.713,80.948 1637.723,83.769 1633.425,79.507 1637.695,75.215 1637.705,78.126 
		1643.057,78.108 1643.066,80.931 	"/>
	<polygon fill="#231F20" points="1646.518,87.096 1649.339,87.087 1645.076,91.386 1640.783,87.114 1643.693,87.104 
		1643.676,81.755 1646.5,81.744 	"/>
	<polygon fill="#231F20" points="1643.556,72.454 1640.734,72.463 1644.996,68.164 1649.29,72.435 1646.379,72.444 1646.396,77.796 
		1643.574,77.806 	"/>
</g>
<g>
	<path fill-rule="evenodd" clip-rule="evenodd" fill="#231F20" d="M1319.79-49.95l9.645-9.645l17.049,17.043l-9.65,9.645
		L1319.79-49.95z M1329.435-62.008l-12.054,12.058l19.452,19.458l12.059-12.059L1329.435-62.008z"/>
	<path fill="#231F20" d="M1335.974-61.139l-0.275,0.344l4.475,5.056l0.697-2.981c3.851,1.623,6.562,5.436,6.562,9.873h1.623
		c0-6.79-5.516-12.313-12.3-12.333l-0.028-0.009l-0.004,0.009l0,0L1335.974-61.139z"/>
	<path fill="#231F20" d="M1331.332-30.842l0.278-0.344l-4.474-5.054l-0.697,2.981c-3.851-1.624-6.562-5.437-6.562-9.873h-1.623
		c0,6.79,5.516,12.313,12.296,12.332l0.027,0.009l0.011-0.009L1331.332-30.842z"/>
</g>
<g id="delete_1_">
	<path fill="#231F20" d="M-2234.213,526.93h-0.566c-1.318,0-2.387,1.068-2.387,2.387v1.107h5.506l0.025-0.916
		C-2231.635,526.914-2234.213,526.93-2234.213,526.93z"/>
	<path fill="#231F20" d="M-2246.999,534.338v23.916c0,1.516,1.23,2.744,2.748,2.744l19.502,0.002
		c1.516-0.002,2.744-1.23,2.744-2.746l0.002-23.916H-2246.999z M-2240.284,557.373c0,0.586-0.646,1.061-1.446,1.061
		c-0.8,0-1.447-0.475-1.447-1.061v-20.199c0-0.586,0.647-1.062,1.447-1.062s1.446,0.477,1.446,1.062V557.373z M-2233.273,557.457
		c0,0.586-0.647,1.061-1.445,1.061c-0.802,0-1.448-0.475-1.448-1.061v-20.199c0-0.586,0.648-1.062,1.448-1.062
		c0.798,0,1.445,0.477,1.445,1.062V557.457z M-2226.401,557.457c0,0.586-0.646,1.061-1.445,1.061c-0.801,0-1.447-0.475-1.447-1.061
		v-20.199c0-0.586,0.648-1.062,1.447-1.062c0.799,0,1.445,0.477,1.445,1.062V557.457z"/>
	<rect x="-2248.074" y="529.857" fill="#231F20" width="27.235" height="2.662"/>
</g>
<g id="edit_opts-video-audio">
	<g>
		<g opacity="0.75">
			<path fill="#CECECC" d="M2216.511,66.293h-51.593c-4.999,0-9.051,4.052-9.051,9.051s4.052,9.052,9.051,9.052h51.593
				c4.999,0,9.052-4.053,9.052-9.052S2221.51,66.293,2216.511,66.293z"/>
		</g>
		<g>
			<path fill="#404041" d="M2216.511,64.293h-51.593c-4.999,0-9.051,4.052-9.051,9.051s4.052,9.052,9.051,9.052h51.593
				c4.999,0,9.052-4.053,9.052-9.052S2221.51,64.293,2216.511,64.293z"/>
		</g>
	</g>
	<g>
		<g>
			
				<image overflow="visible" opacity="0.38" width="45" height="45" xlink:href="D2DC72EE.png"  transform="matrix(1 0 0 1 2191.5 54.5)">
			</image>
			<g>
				<circle fill="#FFFFFF" cx="2213.854" cy="74.824" r="15.812"/>
				<circle fill="none" stroke="#D0D2D3" stroke-miterlimit="10" cx="2213.854" cy="74.824" r="15.812"/>
			</g>
		</g>
		<g>
			<circle fill="#B6B4AE" cx="2213.854" cy="74.824" r="8.854"/>
		</g>
	</g>
	<path id="audio-6-icon_1_" fill="#8F8E85" d="M2243.046,68.794h2.612c-1.09,2.371-1.09,7.039,0,9.409h-2.612
		c-1.337,0-1.945-0.814-2.255-2.093c-0.379-1.568-0.393-3.515-0.024-5.104C2241.066,69.717,2241.636,68.794,2243.046,68.794z
		 M2260.715,73.474c0.005,6.554-2.565,10.5-4.995,9.683c-0.633-0.213-7.81-4.553-7.81-4.553c-1.624-1.813-1.624-8.397,0-10.209
		c0,0,7.479-4.47,7.793-4.598C2257.901,62.911,2260.711,66.914,2260.715,73.474z M2257.664,67.495c-0.858-1.849-2.159-1.818-3.002,0
		c-0.48,1.039-0.811,2.285-0.987,3.616h0.43c1.296,0,2.345,1.051,2.345,2.347s-1.049,2.347-2.345,2.347h-0.42
		c0.178,1.308,0.503,2.569,0.985,3.672c0.806,1.853,2.208,1.821,3.001-0.002C2259.259,75.819,2259.116,70.617,2257.664,67.495z"/>
	<path id="video-camera-5-icon_1_" fill="#8F8E85" d="M2140.246,68.693l-6.63,4.02v3.579l6.63,4.019V68.693z M2129.63,68.693
		h-11.334c-1.229,0-2.226,0.996-2.226,2.224v7.17c0,1.228,0.996,2.224,2.226,2.224h11.334c1.229,0,2.226-0.996,2.226-2.224v-7.17
		C2131.855,69.689,2130.858,68.693,2129.63,68.693z M2129,73.31h-10.074v-1.604H2129V73.31z M2127.654,66.259h-3.427
		c-0.467,0-0.902,0.226-1.171,0.605l-0.266,0.377h-3.595l1.799-2.822c0.342-0.536,0.936-0.861,1.571-0.861h5.088V66.259
		L2127.654,66.259z M2132.148,63.126h-3.3v3.563h3.3c0.983,0,1.781-0.798,1.781-1.781
		C2133.93,63.924,2133.132,63.126,2132.148,63.126z"/>
</g>
<g id="clip_head_1_">
	<g>
		
			<image overflow="visible" opacity="0.38" width="47" height="96" xlink:href="D2DC72F2.png"  transform="matrix(1 0 0 1 2039.5 42.5)">
		</image>
		<g>
			<polygon fill="#F1F1F2" points="2046.247,46.799 2080.485,46.799 2080.485,79.067 2064.353,93.455 2064.353,129.798 
				2062.378,129.798 2062.378,93.456 2046.247,79.067 			"/>
		</g>
	</g>
	<g>
		
			<image overflow="visible" opacity="0.4" width="8" height="7" xlink:href="D2DC72F5.png"  transform="matrix(1 0 0 1 2069.9004 50.9004)">
		</image>
		<g>
			<circle fill="#D9D7D2" cx="2073.641" cy="53.165" r="2.323"/>
		</g>
	</g>
	<g>
		
			<image overflow="visible" opacity="0.4" width="8" height="8" xlink:href="D2DC72F6.png"  transform="matrix(1 0 0 1 2069.9004 59.9004)">
		</image>
		<g>
			<circle fill="#D9D7D2" cx="2073.641" cy="62.796" r="2.323"/>
		</g>
	</g>
	<g>
		
			<image overflow="visible" opacity="0.4" width="8" height="8" xlink:href="D2DC72F4.png"  transform="matrix(1 0 0 1 2069.9004 69.9004)">
		</image>
		<g>
			<circle fill="#D9D7D2" cx="2073.641" cy="72.502" r="2.323"/>
		</g>
	</g>
</g>
<path id="link_x5F_time_locked_1_" fill="#231F20" d="M1695.321,70.83c0.674,0,1.325,0.096,1.942,0.273
	c3.434,0.996,5.625,4.485,4.891,8.066h-3.445c0.633-1.621,0.048-3.489-1.445-4.437c-0.562-0.355-1.229-0.563-1.942-0.563h-6.604
	c-2.005,0-3.636,1.631-3.636,3.637c0,2.005,1.631,3.637,3.636,3.635l2.037,0.002c0.557,1.291,1.402,2.431,2.457,3.338h-4.494
	c-3.854,0-6.977-3.123-6.977-6.975c0-3.853,3.123-6.977,6.977-6.977H1695.321z M1705.809,70.83h-4.492
	c1.052,0.907,1.898,2.045,2.457,3.34h2.035c2.006,0,3.638,1.631,3.638,3.637c0,2.005-1.632,3.637-3.638,3.637h-6.603
	c-2.013-0.002-3.638-1.645-3.638-3.637c0-0.466,0.089-0.957,0.248-1.365h-3.447c-0.092,0.455-0.14,0.882-0.14,1.365
	c0,1.246,0.329,2.504,1.022,3.635c0.896,1.468,2.323,2.578,4.012,3.064c0.615,0.18,1.268,0.275,1.942,0.275h6.603
	c3.854,0,6.977-3.123,6.977-6.975C1712.785,73.954,1709.662,70.83,1705.809,70.83z"/>
<g id="unlink_x5F_time_unlocked_1_">
	<path id="link-icon_1_" fill="#231F20" d="M1758.823,79.436c-0.165-1.507-0.184-3.509-1.621-4.421
		c-0.562-0.355-1.229-0.564-1.942-0.564h-6.605c-2.004,0-3.635,1.632-3.635,3.638c0,2.005,1.631,3.636,3.635,3.634l1.777,0.004
		l2.387-0.004c0.559,1.292-0.724,2.434,0.33,3.341h-4.494c-3.853,0-6.976-3.123-6.976-6.975c0-3.853,3.123-6.978,6.976-6.978h6.605
		c0.674,0,1.324,0.097,1.942,0.274c3.352,0.972,4.858,3.534,5.071,8.044 M1758.808,79.452c0.155,0.784,0.447,1.552,0.889,2.271
		c0.896,1.469,2.323,2.579,4.012,3.064c0.616,0.18,1.269,0.276,1.942,0.276h6.604c3.853,0,6.976-3.123,6.976-6.975
		c0-3.853-3.123-6.978-6.976-6.978h-4.493c1.053,0.908,0.273,2.045,0.83,3.34h1.95h1.713c2.006,0,3.637,1.632,3.637,3.638
		c0,2.005-1.631,3.636-3.637,3.636h-6.604c-1.486,0-2.763-0.898-3.326-2.172c-0.019-0.04-0.035-0.082-0.051-0.123"/>
	<rect x="1767.545" y="71.111" fill="#231F20" width="1.473" height="3.34"/>
	<rect x="1751.803" y="81.723" fill="#231F20" width="1.473" height="3.341"/>
</g>
<polygon id="expand_1_" fill="#565552" points="1802.5,88.988 1812.045,79.443 1802.5,69.896 "/>
<path id="fullscreen-icon_1_" fill="#231F20" d="M1843.793,88.408l2.031,2.037h-8.303v-8.303l2.037,2.033l3.326-3.326l4.232,4.234
	L1843.793,88.408z M1853.15,66.516l2.033,2.035l-3.258,3.258l4.234,4.232l3.258-3.256l2.035,2.031v-8.301H1853.15z M1839.559,72.785
	l-2.037,2.031v-8.301h8.303l-2.031,2.035l3.324,3.324l-4.232,4.234L1839.559,72.785z M1861.453,82.143l-2.035,2.033l-3.258-3.26
	l-4.234,4.234l3.258,3.26l-2.033,2.035h8.303V82.143z"/>
<polygon id="play_1_" fill="#231F20" points="1911.406,76.539 1898.057,85.767 1898.057,67.312 "/>
<g>
	<rect x="1943.444" y="67.061" fill="#231F20" width="5.669" height="18.957"/>
	<rect x="1931.997" y="67.061" fill="#231F20" width="5.669" height="18.957"/>
</g>
<g>
	<g>
		<rect x="2291.912" y="50.805" fill="#EC3E34" stroke="#FFFFFF" stroke-miterlimit="10" width="3.527" height="48.82"/>
	</g>
</g>
<g id="wrong_1_">
	<path fill="#231F20" d="M1512.071-480.589c-0.101,0.773-1.526,1.917-1.571,2.697c-0.084,1.417,1.83,4.189,3.146,4.72
		c2.089,0.846,12.702,0.451,12.702,0.451c1.035,1.813-1.848,6.291-2.642,8.224c-1.165,2.833-0.969,6.592,0.504,8.523
		c1.8,2.358,5.104,2.516,5.172,1.461c0.492-7.658,1.958-9.782,3.918-11.295c1.181-0.91,2.211-1.707,2.757-3.093
		c3.342-8.519,5.822-10.491,7.239-10.491h0.944v-19.36l-9.914-1.845c0,0-12.31-1.166-16.187,0c-1.219,0.366-3.323,2.197-3.82,3.373
		c-0.285,0.676,0.109,2.271-0.226,2.923c-0.496,0.965-2.588,2.172-2.586,3.484c0.001,0.935,1.092,2.552,1.013,3.484
		c-0.08,0.934-2.025,2.212-2.024,3.147C1510.501-483.206,1512.201-481.564,1512.071-480.589z"/>
	<path fill="#231F20" d="M1546.129-498.281c0-1.043,0.846-1.889,1.889-1.889h5.666c1.045,0,1.891,0.845,1.891,1.889v17.946
		c0,1.042-0.846,1.888-1.891,1.888h-5.666c-1.043,0-1.889-0.846-1.889-1.888V-498.281z"/>
</g>
<g id="right_1_">
	<path fill="#231F20" d="M1490.248-486.221c0.103-0.773,1.527-1.919,1.573-2.697c0.082-1.417-1.831-4.189-3.147-4.721
		c-2.089-0.845-12.702-0.451-12.702-0.451c-1.036-1.812,1.85-6.291,2.643-8.223c1.165-2.833,0.969-6.592-0.505-8.523
		c-1.8-2.359-5.103-2.518-5.17-1.461c-0.493,7.658-1.959,9.782-3.921,11.297c-1.179,0.908-2.211,1.705-2.754,3.091
		c-3.345,8.517-5.823,10.491-7.241,10.491h-0.945v19.36l9.918,1.845c0,0,12.309,1.166,16.184,0c1.22-0.366,3.323-2.197,3.821-3.372
		c0.285-0.674-0.109-2.271,0.227-2.923c0.495-0.965,2.587-2.172,2.585-3.484c-0.002-0.935-1.092-2.552-1.012-3.486
		c0.078-0.932,2.024-2.211,2.023-3.146C1491.82-483.605,1490.119-485.247,1490.248-486.221z"/>
	<path fill="#231F20" d="M1456.19-468.53c0,1.043-0.846,1.889-1.889,1.889h-5.667c-1.044,0-1.889-0.846-1.889-1.889v-17.946
		c0-1.042,0.845-1.889,1.889-1.889h5.667c1.043,0,1.889,0.847,1.889,1.889V-468.53z"/>
</g>
<g opacity="0.8">
	<g>
		<path fill="#FFFFFF" d="M-1966.637,437.633c-12.114,0-21.967-9.855-21.967-21.966c0-12.112,9.853-21.966,21.967-21.966
			c12.112,0,21.965,9.854,21.965,21.966C-1944.671,427.777-1954.524,437.633-1966.637,437.633z M-1966.637,398.131
			c-9.669,0-17.538,7.867-17.538,17.536s7.869,17.536,17.538,17.536c9.668,0,17.537-7.867,17.537-17.536
			S-1956.968,398.131-1966.637,398.131z"/>
	</g>
	<g>
		<path fill="#FFFFFF" d="M-1961.41,427.329h-10.055v-1.161c0.274-0.022,0.546-0.049,0.812-0.08
			c0.265-0.032,0.491-0.084,0.684-0.158c0.339-0.129,0.575-0.311,0.713-0.549c0.14-0.24,0.21-0.556,0.21-0.947v-9.258
			c0-0.371-0.086-0.697-0.256-0.979c-0.169-0.28-0.382-0.505-0.635-0.675c-0.19-0.127-0.48-0.25-0.868-0.366
			c-0.387-0.116-0.74-0.19-1.058-0.223v-1.161l7.796-0.413l0.238,0.238v12.63c0,0.371,0.079,0.687,0.239,0.946
			c0.16,0.261,0.388,0.453,0.684,0.58c0.213,0.097,0.446,0.181,0.7,0.255c0.253,0.075,0.52,0.127,0.797,0.16V427.329z
			 M-1963.734,405.631c0,0.808-0.31,1.494-0.931,2.061c-0.621,0.568-1.355,0.852-2.204,0.852c-0.858,0-1.599-0.283-2.219-0.852
			c-0.62-0.566-0.931-1.253-0.931-2.061c0-0.805,0.311-1.495,0.931-2.066c0.621-0.572,1.361-0.859,2.219-0.859
			c0.861,0,1.596,0.287,2.211,0.859C-1964.041,404.136-1963.734,404.826-1963.734,405.631z"/>
	</g>
</g>
<g id="lessons_1_" transform="translate(-63.772761,-91.391883)" inkscape:label="Ebene 1" inkscape:groupmode="layer">
	<rect x="1371.617" y="-95.135" fill="#FFFFFF" width="57.318" height="74.731"/>
	
		<g id="g21342_1_" transform="matrix(0.02241494,-0.00600606,0.00600606,0.02241494,373.94426,448.30452)" inkscape:export-ydpi="150" inkscape:export-xdpi="150" inkscape:export-filename="/Users/Admin/Downloads/notebook.png">
		<g id="rect21306_1_">
			<path fill="#231F20" d="M49053.738-7640.478l-2330.039-624.324c-115.402-30.922-174.699-119.371-147.676-220.222
				l815.922-3045.096c26.992-100.749,122.594-147.783,237.996-116.861l2330.039,624.324
				c115.441,30.933,174.715,119.463,147.723,220.212l-815.922,3045.096C49264.758-7656.498,49169.18-7609.545,49053.738-7640.478z
				 M46821.32-8459.226l2245.082,601.561l795.93-2970.485l-2244.992-601.733L46821.32-8459.226z"/>
		</g>
		
			<g id="rect21308_1_" inkscape:export-ydpi="71.998093" inkscape:export-xdpi="71.998093" inkscape:export-filename="/home/alex/Dropbox/Arcomem Files/Arcomem Video/arcomem_storyboard_draft.png">
			<g>
				<path fill="#231F20" d="M47731.965-11094.438c-40.406-10.826-65.578-48.264-56.059-83.791l3.992-14.897
					c9.52-35.527,50.059-55.445,90.465-44.619l66.012,17.688c40.527,10.859,65.637,48.368,56.117,83.896l-3.992,14.897
					c-9.52,35.527-49.996,55.374-90.523,44.515L47731.965-11094.438z"/>
			</g>
			<g>
				<path fill="#231F20" d="M47828.996-11192.519c23.129,6.198,37.57,27.602,32.117,47.946l-3.992,14.897
					c-5.43,20.264-28.656,31.664-51.785,25.466l-66.012-17.688c-23.09-6.187-37.465-27.661-32.035-47.925l3.992-14.897
					c5.453-20.345,28.613-31.674,51.703-25.487L47828.996-11192.519 M47843.727-11247.496l-66.012-17.688
					c-57.805-15.488-115.609,12.938-129.199,63.648l-3.992,14.897c-13.586,50.71,22.285,104.149,80.09,119.638l66.012,17.688
					c57.887,15.51,115.672-12.835,129.258-63.545l3.992-14.897C47937.465-11178.465,47901.613-11231.986,47843.727-11247.496
					L47843.727-11247.496z"/>
			</g>
		</g>
		
			<g id="rect21310_1_" inkscape:export-ydpi="71.998093" inkscape:export-xdpi="71.998093" inkscape:export-filename="/home/alex/Dropbox/Arcomem Files/Arcomem Video/arcomem_storyboard_draft.png">
			<g>
				<path fill="#231F20" d="M48175.688-10975.545c-40.402-10.826-65.578-48.264-56.059-83.791l3.992-14.897
					c9.52-35.527,50.062-55.445,90.465-44.619l65.973,17.678c40.488,10.848,65.637,48.367,56.117,83.895l-3.992,14.897
					c-9.52,35.527-50.035,55.363-90.523,44.516L48175.688-10975.545z"/>
			</g>
			<g>
				<path fill="#231F20" d="M48272.68-11073.635c23.133,6.197,37.527,27.591,32.074,47.936l-3.992,14.897
					c-5.43,20.264-28.609,31.674-51.742,25.477l-65.973-17.678c-23.086-6.187-37.547-27.683-32.117-47.946l3.992-14.897
					c5.453-20.345,28.699-31.652,51.785-25.466L48272.68-11073.635 M48287.41-11128.612l-65.973-17.678
					c-57.883-15.51-115.605,12.938-129.195,63.648l-3.992,14.897c-13.586,50.71,22.203,104.128,80.086,119.638l65.973,17.678
					c57.887,15.51,115.711-12.825,129.297-63.535l3.992-14.897C48381.188-11059.571,48345.297-11113.103,48287.41-11128.612
					L48287.41-11128.612z"/>
			</g>
		</g>
		
			<g id="rect21312_1_" inkscape:export-ydpi="71.998093" inkscape:export-xdpi="71.998093" inkscape:export-filename="/home/alex/Dropbox/Arcomem Files/Arcomem Video/arcomem_storyboard_draft.png">
			<g>
				<path fill="#231F20" d="M48619.414-10856.65c-40.406-10.827-65.578-48.264-56.059-83.791l3.992-14.897
					c9.52-35.527,50.059-55.446,90.465-44.619l66.094,17.71c40.406,10.826,65.555,48.345,56.035,83.872l-3.992,14.897
					c-9.52,35.527-50.035,55.364-90.441,44.538L48619.414-10856.65z"/>
			</g>
			<g>
				<path fill="#231F20" d="M48716.527-10954.708c23.09,6.187,37.527,27.59,32.074,47.935l-3.992,14.897
					c-5.43,20.264-28.652,31.664-51.742,25.478l-66.094-17.71c-23.09-6.187-37.469-27.661-32.039-47.925l3.992-14.897
					c5.453-20.345,28.617-31.674,51.707-25.487L48716.527-10954.708 M48731.258-11009.686l-66.094-17.71
					c-57.684-15.456-115.609,12.938-129.199,63.647l-3.992,14.897c-13.586,50.71,22.406,104.183,80.09,119.639l66.094,17.71
					c57.805,15.487,115.586-12.857,129.172-63.567l3.992-14.897C48824.91-10940.677,48789.062-10994.198,48731.258-11009.686
					L48731.258-11009.686z"/>
			</g>
		</g>
		
			<g id="rect21314_1_" inkscape:export-ydpi="71.998093" inkscape:export-xdpi="71.998093" inkscape:export-filename="/home/alex/Dropbox/Arcomem Files/Arcomem Video/arcomem_storyboard_draft.png">
			<g>
				<path fill="#231F20" d="M49083.543-10732.289c-40.406-10.826-65.66-48.285-56.141-83.812l3.992-14.897
					c9.52-35.527,50.141-55.424,90.547-44.598l66.016,17.688c40.402,10.826,65.594,48.356,56.074,83.884l-3.992,14.897
					c-9.52,35.527-50.078,55.353-90.48,44.526L49083.543-10732.289z"/>
			</g>
			<g>
				<path fill="#231F20" d="M49180.578-10830.368c23.168,6.208,37.484,27.579,32.031,47.924l-3.992,14.897
					c-5.43,20.264-28.531,31.696-51.699,25.488l-66.016-17.688c-23.09-6.187-37.547-27.683-32.117-47.946l3.992-14.897
					c5.453-20.345,28.695-31.652,51.785-25.466L49180.578-10830.368 M49195.309-10885.346l-66.016-17.688
					c-57.805-15.488-115.688,12.916-129.277,63.626l-3.992,14.897c-13.586,50.71,22.363,104.172,80.168,119.66l66.016,17.688
					c57.801,15.487,115.586-12.857,129.172-63.567l3.992-14.897C49288.961-10816.337,49253.109-10869.858,49195.309-10885.346
					L49195.309-10885.346z"/>
			</g>
		</g>
		
			<g id="rect21316_1_" inkscape:export-ydpi="71.998093" inkscape:export-xdpi="71.998093" inkscape:export-filename="/home/alex/Dropbox/Arcomem Files/Arcomem Video/arcomem_storyboard_draft.png">
			<g>
				<path fill="#231F20" d="M49527.266-10613.396c-40.402-10.826-65.656-48.285-56.137-83.812l3.992-14.897
					c9.52-35.527,50.141-55.424,90.543-44.598l65.934,17.667c40.445,10.837,65.637,48.367,56.117,83.895l-3.992,14.897
					c-9.52,35.527-50.078,55.353-90.523,44.516L49527.266-10613.396z"/>
			</g>
			<g>
				<path fill="#231F20" d="M49624.219-10711.496c23.172,6.208,37.609,27.612,32.156,47.957l-3.992,14.897
					c-5.43,20.264-28.652,31.663-51.824,25.455l-65.934-17.667c-23.168-6.208-37.547-27.683-32.117-47.946l3.992-14.897
					c5.453-20.345,28.617-31.674,51.785-25.466L49624.219-10711.496 M49638.949-10766.474l-65.934-17.667
					c-57.883-15.51-115.727,12.906-129.316,63.616l-3.992,14.897c-13.586,50.71,22.324,104.16,80.207,119.67l65.934,17.667
					c57.844,15.499,115.668-12.836,129.254-63.546l3.992-14.897C49732.684-10697.443,49696.793-10750.975,49638.949-10766.474
					L49638.949-10766.474z"/>
			</g>
		</g>
		<g id="path21318_1_">
			<path fill="#231F20" d="M48786.516-10948.111l-77.609-55.867c40.797-46.251,73.285-99.368,99.23-162.538
				c60.875-147.196,47.586-264.425-0.914-300.969c-20.852,13.584-64.336,62.708-112.555,146.879l-86.734-43.106
				c115.578-201.595,181.539-194.615,203.258-192.413c7.555,0.76,17.199,2.474,27.891,7.278
				c115.812,58.02,139.414,225.217,60.227,416.694C48869.945-11060.946,48833.094-11000.808,48786.516-10948.111z"/>
		</g>
		<g id="path21320_1_">
			<path fill="#231F20" d="M49240.117-10826.571l-77.648-55.877c40.793-46.251,73.324-99.357,99.387-162.495
				c60.715-147.239,47.387-264.479-0.992-300.99c-20.828,13.503-64.375,62.697-112.633,146.857l-86.695-43.097
				c115.68-201.654,181.582-194.604,203.219-192.424c7.258,0.878,17.117,2.452,27.934,7.289
				c115.688,57.988,139.289,225.185,60.223,416.694C49323.508-10939.417,49286.719-10879.349,49240.117-10826.571z"/>
		</g>
		<g id="path21322_1_">
			<path fill="#231F20" d="M49683.762-10707.699l-77.652-55.877c40.668-46.09,73.195-99.195,99.395-162.495
				c60.75-147.229,47.395-264.366-0.996-300.99c-20.77,13.605-64.297,62.719-112.555,146.879l-86.734-43.106
				c115.594-201.482,181.539-194.616,203.18-192.435c10.98,1.286,19.762,3.639,27.93,7.289
				c115.688,57.987,139.34,225,60.223,416.694C49767.043-10820.484,49730.141-10760.143,49683.762-10707.699z"/>
		</g>
		<g id="path21324_1_">
			<path fill="#231F20" d="M48342.914-11066.973l-77.652-55.878c40.84-46.24,73.246-99.379,99.312-162.517
				c60.793-147.218,47.426-264.468-0.996-300.99c-20.809,13.595-64.336,62.708-112.551,146.879l-86.738-43.106
				c115.5-201.616,181.5-194.627,203.262-192.413c10.703,1.017,20.047,3.716,28.668,7.791
				c114.871,57.464,138.602,224.498,59.527,416.203C48426.301-11179.818,48389.391-11119.783,48342.914-11066.973z"/>
		</g>
		<g id="path21326_1_">
			<path fill="#231F20" d="M47900.285-11185.572l-77.609-55.867c40.988-46.482,73.332-99.551,99.312-162.517
				c60.793-147.218,47.426-264.468-0.996-300.99c-20.91,13.48-64.375,62.697-112.551,146.879l-86.738-43.106
				c115.293-201.671,181.461-194.638,203.262-192.413c10.859,1.254,20.129,3.737,28.59,7.769
				c115.109,57.529,138.629,224.704,59.441,416.182C47983.895-11298.751,47947.043-11238.612,47900.285-11185.572z"/>
		</g>
	</g>
</g>
<polygon fill="#FFFFFF" points="1425.099,-127.494 1492.824,-127.494 1497.478,-165.021 1420.663,-165.021 "/>
<g id="project_x5F_story_1_">
	<path id="picture-box-icon_1_" fill="#231F20" d="M1472.271-131.594l-5.738,5.357h-14.722l-5.761-5.357h-31.521h-0.015
		l3.249,19.305l82.405-0.004l3.459-19.301h-0.014H1472.271z M1495.532-175.092h-72.922l-0.865-4.683h74.655L1495.532-175.092z
		 M1490.527-183.204h-62.702l-0.863-3.693h64.434L1490.527-183.204z M1419.718-136.537l-2.912-34.88h84.352l-2.994,34.88h-7.394
		l2.023-28.418h-67.837l2.236,28.418H1419.718z"/>
</g>
<g id="checkbox_1_">
	<g opacity="0.8">
		<polygon fill="#343433" points="1591.43,-125.725 1572.809,-125.725 1572.809,-144.345 1592.76,-144.345 1592.76,-145.675 
			1571.479,-145.675 1571.479,-124.395 1592.76,-124.395 1592.76,-145.671 1591.43,-145.671 		"/>
	</g>
</g>
<g id="checkbox_x5F_checked_1_">
	<polygon fill="#ED342A" points="1627.288,-146.257 1616.558,-134.028 1612.21,-137.843 1609.577,-134.843 1616.925,-128.397 
		1630.288,-143.628 	"/>
	<g opacity="0.8">
		<polygon fill="#343433" points="1625.884,-125.725 1607.263,-125.725 1607.263,-144.345 1624.554,-144.345 1624.554,-145.675 
			1605.933,-145.675 1605.933,-124.395 1627.214,-124.395 1627.214,-136.366 1625.884,-136.366 		"/>
	</g>
</g>
<g>
	<polygon fill="#231F20" points="1652.357,77.988 1652.348,75.166 1656.646,79.429 1652.375,83.72 1652.365,80.81 1647.014,80.829 
		1647.004,78.007 	"/>
	<polygon fill="#231F20" points="1637.713,80.948 1637.723,83.769 1633.425,79.507 1637.695,75.215 1637.705,78.126 
		1643.057,78.108 1643.066,80.931 	"/>
	<polygon fill="#231F20" points="1646.518,87.096 1649.339,87.087 1645.076,91.386 1640.783,87.114 1643.693,87.104 
		1643.676,81.755 1646.5,81.744 	"/>
	<polygon fill="#231F20" points="1643.556,72.454 1640.734,72.463 1644.996,68.164 1649.29,72.435 1646.379,72.444 1646.396,77.796 
		1643.574,77.806 	"/>
</g>
<g>
	<path fill-rule="evenodd" clip-rule="evenodd" fill="#231F20" d="M1319.79-49.95l9.645-9.645l17.049,17.043l-9.65,9.645
		L1319.79-49.95z M1329.435-62.008l-12.054,12.058l19.452,19.458l12.059-12.059L1329.435-62.008z"/>
	<path fill="#231F20" d="M1335.974-61.139l-0.275,0.344l4.475,5.056l0.697-2.981c3.851,1.623,6.562,5.436,6.562,9.873h1.623
		c0-6.79-5.516-12.313-12.3-12.333l-0.028-0.009l-0.004,0.009l0,0L1335.974-61.139z"/>
	<path fill="#231F20" d="M1331.332-30.842l0.278-0.344l-4.474-5.054l-0.697,2.981c-3.851-1.624-6.562-5.437-6.562-9.873h-1.623
		c0,6.79,5.516,12.313,12.296,12.332l0.027,0.009l0.011-0.009L1331.332-30.842z"/>
</g>
<g id="delete_2_">
	<path fill="#231F20" d="M-2234.213,526.93h-0.566c-1.318,0-2.387,1.068-2.387,2.387v1.107h5.506l0.025-0.916
		C-2231.635,526.914-2234.213,526.93-2234.213,526.93z"/>
	<path fill="#231F20" d="M-2246.999,534.338v23.916c0,1.516,1.23,2.744,2.748,2.744l19.502,0.002
		c1.516-0.002,2.744-1.23,2.744-2.746l0.002-23.916H-2246.999z M-2240.284,557.373c0,0.586-0.646,1.061-1.446,1.061
		c-0.8,0-1.447-0.475-1.447-1.061v-20.199c0-0.586,0.647-1.062,1.447-1.062s1.446,0.477,1.446,1.062V557.373z M-2233.273,557.457
		c0,0.586-0.647,1.061-1.445,1.061c-0.802,0-1.448-0.475-1.448-1.061v-20.199c0-0.586,0.648-1.062,1.448-1.062
		c0.798,0,1.445,0.477,1.445,1.062V557.457z M-2226.401,557.457c0,0.586-0.646,1.061-1.445,1.061c-0.801,0-1.447-0.475-1.447-1.061
		v-20.199c0-0.586,0.648-1.062,1.447-1.062c0.799,0,1.445,0.477,1.445,1.062V557.457z"/>
	<rect x="-2248.074" y="529.857" fill="#231F20" width="27.235" height="2.662"/>
</g>
<g id="edit_opts-video-audio_1_">
	<g>
		<g opacity="0.75">
			<path fill="#CECECC" d="M2216.511,66.293h-51.593c-4.999,0-9.051,4.052-9.051,9.051s4.052,9.052,9.051,9.052h51.593
				c4.999,0,9.052-4.053,9.052-9.052S2221.51,66.293,2216.511,66.293z"/>
		</g>
		<g>
			<path fill="#404041" d="M2216.511,64.293h-51.593c-4.999,0-9.051,4.052-9.051,9.051s4.052,9.052,9.051,9.052h51.593
				c4.999,0,9.052-4.053,9.052-9.052S2221.51,64.293,2216.511,64.293z"/>
		</g>
	</g>
	<g>
		<g>
			
				<image overflow="visible" opacity="0.38" width="45" height="45" xlink:href="D2DC72F3.png"  transform="matrix(1 0 0 1 2191.5 54.4999)">
			</image>
			<g>
				<circle fill="#FFFFFF" cx="2213.854" cy="74.824" r="15.812"/>
				<circle fill="none" stroke="#D0D2D3" stroke-miterlimit="10" cx="2213.854" cy="74.824" r="15.812"/>
			</g>
		</g>
		<g>
			<circle fill="#B6B4AE" cx="2213.854" cy="74.824" r="8.854"/>
		</g>
	</g>
	<path id="audio-6-icon_2_" fill="#8F8E85" d="M2243.046,68.794h2.612c-1.09,2.371-1.09,7.039,0,9.409h-2.612
		c-1.337,0-1.945-0.814-2.255-2.093c-0.379-1.568-0.393-3.515-0.024-5.104C2241.066,69.717,2241.636,68.794,2243.046,68.794z
		 M2260.715,73.474c0.005,6.554-2.565,10.5-4.995,9.683c-0.633-0.213-7.81-4.553-7.81-4.553c-1.624-1.813-1.624-8.397,0-10.209
		c0,0,7.479-4.47,7.793-4.598C2257.901,62.911,2260.711,66.914,2260.715,73.474z M2257.664,67.495c-0.858-1.849-2.159-1.818-3.002,0
		c-0.48,1.039-0.811,2.285-0.987,3.616h0.43c1.296,0,2.345,1.051,2.345,2.347s-1.049,2.347-2.345,2.347h-0.42
		c0.178,1.308,0.503,2.569,0.985,3.672c0.806,1.853,2.208,1.821,3.001-0.002C2259.259,75.819,2259.116,70.617,2257.664,67.495z"/>
	<path id="video-camera-5-icon_2_" fill="#8F8E85" d="M2140.246,68.693l-6.63,4.02v3.579l6.63,4.019V68.693z M2129.63,68.693
		h-11.334c-1.229,0-2.226,0.996-2.226,2.224v7.17c0,1.228,0.996,2.224,2.226,2.224h11.334c1.229,0,2.226-0.996,2.226-2.224v-7.17
		C2131.855,69.689,2130.858,68.693,2129.63,68.693z M2129,73.31h-10.074v-1.604H2129V73.31z M2127.654,66.259h-3.427
		c-0.467,0-0.902,0.226-1.171,0.605l-0.266,0.377h-3.595l1.799-2.822c0.342-0.536,0.936-0.861,1.571-0.861h5.088V66.259
		L2127.654,66.259z M2132.148,63.126h-3.3v3.563h3.3c0.983,0,1.781-0.798,1.781-1.781
		C2133.93,63.924,2133.132,63.126,2132.148,63.126z"/>
</g>
<g id="clip_head_2_">
	<g>
		
			<image overflow="visible" opacity="0.38" width="47" height="96" xlink:href="D2DC72FD.png"  transform="matrix(1 0 0 1 2039.5 42.4999)">
		</image>
		<g>
			<polygon fill="#F1F1F2" points="2046.247,46.799 2080.485,46.799 2080.485,79.067 2064.353,93.455 2064.353,129.798 
				2062.378,129.798 2062.378,93.456 2046.247,79.067 			"/>
		</g>
	</g>
	<g>
		
			<image overflow="visible" opacity="0.4" width="8" height="7" xlink:href="D2DC72FE.png"  transform="matrix(1 0 0 1 2069.9004 50.9003)">
		</image>
		<g>
			<circle fill="#D9D7D2" cx="2073.641" cy="53.165" r="2.323"/>
		</g>
	</g>
	<g>
		
			<image overflow="visible" opacity="0.4" width="8" height="8" xlink:href="D2DC72FC.png"  transform="matrix(1 0 0 1 2069.9004 59.9003)">
		</image>
		<g>
			<circle fill="#D9D7D2" cx="2073.641" cy="62.796" r="2.323"/>
		</g>
	</g>
	<g>
		
			<image overflow="visible" opacity="0.4" width="8" height="8" xlink:href="79DC9CB1.png"  transform="matrix(1 0 0 1 2069.9004 69.9003)">
		</image>
		<g>
			<circle fill="#D9D7D2" cx="2073.641" cy="72.502" r="2.323"/>
		</g>
	</g>
</g>
<path id="link_x5F_time_locked_2_" fill="#231F20" d="M1695.321,70.83c0.674,0,1.325,0.096,1.942,0.273
	c3.434,0.996,5.625,4.485,4.891,8.066h-3.445c0.633-1.621,0.048-3.489-1.445-4.437c-0.562-0.355-1.229-0.563-1.942-0.563h-6.604
	c-2.005,0-3.636,1.631-3.636,3.637c0,2.005,1.631,3.637,3.636,3.635l2.037,0.002c0.557,1.291,1.402,2.431,2.457,3.338h-4.494
	c-3.854,0-6.977-3.123-6.977-6.975c0-3.853,3.123-6.977,6.977-6.977H1695.321z M1705.809,70.83h-4.492
	c1.052,0.907,1.898,2.045,2.457,3.34h2.035c2.006,0,3.638,1.631,3.638,3.637c0,2.005-1.632,3.637-3.638,3.637h-6.603
	c-2.013-0.002-3.638-1.645-3.638-3.637c0-0.466,0.089-0.957,0.248-1.365h-3.447c-0.092,0.455-0.14,0.882-0.14,1.365
	c0,1.246,0.329,2.504,1.022,3.635c0.896,1.468,2.323,2.578,4.012,3.064c0.615,0.18,1.268,0.275,1.942,0.275h6.603
	c3.854,0,6.977-3.123,6.977-6.975C1712.785,73.954,1709.662,70.83,1705.809,70.83z"/>
<g id="unlink_x5F_time_unlocked_2_">
	<path id="link-icon_2_" fill="#231F20" d="M1758.823,79.436c-0.165-1.507-0.184-3.509-1.621-4.421
		c-0.562-0.355-1.229-0.564-1.942-0.564h-6.605c-2.004,0-3.635,1.632-3.635,3.638c0,2.005,1.631,3.636,3.635,3.634l1.777,0.004
		l2.387-0.004c0.559,1.292-0.724,2.434,0.33,3.341h-4.494c-3.853,0-6.976-3.123-6.976-6.975c0-3.853,3.123-6.978,6.976-6.978h6.605
		c0.674,0,1.324,0.097,1.942,0.274c3.352,0.972,4.858,3.534,5.071,8.044 M1758.808,79.452c0.155,0.784,0.447,1.552,0.889,2.271
		c0.896,1.469,2.323,2.579,4.012,3.064c0.616,0.18,1.269,0.276,1.942,0.276h6.604c3.853,0,6.976-3.123,6.976-6.975
		c0-3.853-3.123-6.978-6.976-6.978h-4.493c1.053,0.908,0.273,2.045,0.83,3.34h1.95h1.713c2.006,0,3.637,1.632,3.637,3.638
		c0,2.005-1.631,3.636-3.637,3.636h-6.604c-1.486,0-2.763-0.898-3.326-2.172c-0.019-0.04-0.035-0.082-0.051-0.123"/>
	<rect x="1767.545" y="71.111" fill="#231F20" width="1.473" height="3.34"/>
	<rect x="1751.803" y="81.723" fill="#231F20" width="1.473" height="3.341"/>
</g>
<polygon id="expand_2_" fill="#565552" points="1802.5,88.988 1812.045,79.443 1802.5,69.896 "/>
<path id="fullscreen-icon_2_" fill="#231F20" d="M1843.793,88.408l2.031,2.037h-8.303v-8.303l2.037,2.033l3.326-3.326l4.232,4.234
	L1843.793,88.408z M1853.15,66.516l2.033,2.035l-3.258,3.258l4.234,4.232l3.258-3.256l2.035,2.031v-8.301H1853.15z M1839.559,72.785
	l-2.037,2.031v-8.301h8.303l-2.031,2.035l3.324,3.324l-4.232,4.234L1839.559,72.785z M1861.453,82.143l-2.035,2.033l-3.258-3.26
	l-4.234,4.234l3.258,3.26l-2.033,2.035h8.303V82.143z"/>
<polygon id="play_2_" fill="#231F20" points="1911.406,76.539 1898.057,85.767 1898.057,67.312 "/>
<g>
	<rect x="1943.444" y="67.06" fill="#231F20" width="5.669" height="18.957"/>
	<rect x="1931.997" y="67.06" fill="#231F20" width="5.669" height="18.957"/>
</g>
<g>
	<g>
		<rect x="2291.912" y="50.805" fill="#EC3E34" stroke="#FFFFFF" stroke-miterlimit="10" width="3.527" height="48.82"/>
	</g>
</g>
<g id="wrong_2_">
	<path fill="#231F20" d="M1512.071-480.589c-0.101,0.773-1.526,1.917-1.571,2.697c-0.084,1.417,1.83,4.189,3.146,4.72
		c2.089,0.846,12.702,0.451,12.702,0.451c1.035,1.813-1.848,6.291-2.642,8.224c-1.165,2.833-0.969,6.592,0.504,8.523
		c1.8,2.358,5.104,2.516,5.172,1.461c0.492-7.658,1.958-9.782,3.918-11.295c1.181-0.91,2.211-1.707,2.757-3.093
		c3.342-8.519,5.822-10.491,7.239-10.491h0.944v-19.36l-9.914-1.845c0,0-12.31-1.166-16.187,0c-1.219,0.366-3.323,2.197-3.82,3.373
		c-0.285,0.676,0.109,2.271-0.226,2.923c-0.496,0.965-2.588,2.172-2.586,3.484c0.001,0.935,1.092,2.552,1.013,3.484
		c-0.08,0.934-2.025,2.212-2.024,3.147C1510.501-483.206,1512.201-481.564,1512.071-480.589z"/>
	<path fill="#231F20" d="M1546.129-498.281c0-1.043,0.846-1.889,1.889-1.889h5.666c1.045,0,1.891,0.845,1.891,1.889v17.946
		c0,1.042-0.846,1.888-1.891,1.888h-5.666c-1.043,0-1.889-0.846-1.889-1.888V-498.281z"/>
</g>
<g id="right_2_">
	<path fill="#231F20" d="M1490.248-486.221c0.103-0.773,1.527-1.919,1.573-2.697c0.082-1.417-1.831-4.189-3.147-4.721
		c-2.089-0.845-12.702-0.451-12.702-0.451c-1.036-1.812,1.85-6.291,2.643-8.223c1.165-2.833,0.969-6.592-0.505-8.523
		c-1.8-2.359-5.103-2.518-5.17-1.461c-0.493,7.658-1.959,9.782-3.921,11.297c-1.179,0.908-2.211,1.705-2.754,3.091
		c-3.345,8.517-5.823,10.491-7.241,10.491h-0.945v19.36l9.918,1.845c0,0,12.309,1.166,16.184,0c1.22-0.366,3.323-2.197,3.821-3.372
		c0.285-0.674-0.109-2.271,0.227-2.923c0.495-0.965,2.587-2.172,2.585-3.484c-0.002-0.935-1.092-2.552-1.012-3.486
		c0.078-0.932,2.024-2.211,2.023-3.146C1491.82-483.605,1490.119-485.247,1490.248-486.221z"/>
	<path fill="#231F20" d="M1456.19-468.53c0,1.043-0.846,1.889-1.889,1.889h-5.667c-1.044,0-1.889-0.846-1.889-1.889v-17.946
		c0-1.042,0.845-1.889,1.889-1.889h5.667c1.043,0,1.889,0.847,1.889,1.889V-468.53z"/>
</g>
<g opacity="0.8">
	<g>
		<path fill="#FFFFFF" d="M-1966.637,437.633c-12.114,0-21.967-9.855-21.967-21.966c0-12.112,9.853-21.966,21.967-21.966
			c12.112,0,21.965,9.854,21.965,21.966C-1944.671,427.777-1954.524,437.633-1966.637,437.633z M-1966.637,398.131
			c-9.669,0-17.538,7.867-17.538,17.536s7.869,17.536,17.538,17.536c9.668,0,17.537-7.867,17.537-17.536
			S-1956.968,398.131-1966.637,398.131z"/>
	</g>
	<g>
		<path fill="#FFFFFF" d="M-1961.41,427.329h-10.055v-1.161c0.274-0.022,0.546-0.049,0.812-0.08
			c0.265-0.032,0.491-0.084,0.684-0.158c0.339-0.129,0.575-0.311,0.713-0.549c0.14-0.24,0.21-0.556,0.21-0.947v-9.258
			c0-0.371-0.086-0.697-0.256-0.979c-0.169-0.28-0.382-0.505-0.635-0.675c-0.19-0.127-0.48-0.25-0.868-0.366
			c-0.387-0.116-0.74-0.19-1.058-0.223v-1.161l7.796-0.413l0.238,0.238v12.63c0,0.371,0.079,0.687,0.239,0.946
			c0.16,0.261,0.388,0.453,0.684,0.58c0.213,0.097,0.446,0.181,0.7,0.255c0.253,0.075,0.52,0.127,0.797,0.16V427.329z
			 M-1963.734,405.631c0,0.808-0.31,1.494-0.931,2.061c-0.621,0.568-1.355,0.852-2.204,0.852c-0.858,0-1.599-0.283-2.219-0.852
			c-0.62-0.566-0.931-1.253-0.931-2.061c0-0.805,0.311-1.495,0.931-2.066c0.621-0.572,1.361-0.859,2.219-0.859
			c0.861,0,1.596,0.287,2.211,0.859C-1964.041,404.136-1963.734,404.826-1963.734,405.631z"/>
	</g>
</g>
<g opacity="0.8">
	<g>
		<path fill="#FFFFFF" d="M24.363,45.633c-12.114,0-21.967-9.855-21.967-21.966c0-12.112,9.853-21.965,21.967-21.965
			c12.112,0,21.965,9.854,21.965,21.965C46.328,35.777,36.476,45.633,24.363,45.633z M24.363,6.131
			c-9.669,0-17.538,7.867-17.538,17.536s7.869,17.536,17.538,17.536c9.668,0,17.537-7.867,17.537-17.536S34.031,6.131,24.363,6.131z
			"/>
	</g>
	<g>
		<path fill="#FFFFFF" d="M29.59,35.329H19.535v-1.161c0.274-0.022,0.546-0.049,0.812-0.08c0.265-0.032,0.491-0.084,0.684-0.158
			c0.339-0.129,0.575-0.311,0.713-0.549c0.14-0.24,0.21-0.556,0.21-0.947v-9.258c0-0.371-0.086-0.696-0.256-0.979
			c-0.169-0.28-0.382-0.505-0.635-0.675c-0.19-0.127-0.48-0.25-0.868-0.366c-0.387-0.116-0.74-0.19-1.058-0.223v-1.162l7.796-0.413
			l0.237,0.238v12.63c0,0.371,0.08,0.687,0.239,0.946c0.159,0.261,0.388,0.453,0.684,0.58c0.213,0.097,0.446,0.181,0.7,0.255
			c0.253,0.075,0.52,0.127,0.797,0.16V35.329z M27.266,13.631c0,0.808-0.311,1.494-0.931,2.061c-0.62,0.568-1.355,0.852-2.204,0.852
			c-0.858,0-1.599-0.284-2.219-0.852c-0.62-0.566-0.931-1.253-0.931-2.061c0-0.805,0.311-1.495,0.931-2.067
			c0.621-0.572,1.361-0.859,2.219-0.859c0.861,0,1.596,0.287,2.21,0.859C26.959,12.136,27.266,12.826,27.266,13.631z"/>
	</g>
</g>
</svg>
