<?xml version="1.0" encoding="utf-8"?>
<!-- Generator: Adobe Illustrator 15.0.0, SVG Export Plug-In . SVG Version: 6.00 Build 0)  -->
<!DOCTYPE svg PUBLIC "-//W3C//DTD SVG 1.1//EN" "http://www.w3.org/Graphics/SVG/1.1/DTD/svg11.dtd" [
	<!ENTITY ns_extend "http://ns.adobe.com/Extensibility/1.0/">
	<!ENTITY ns_ai "http://ns.adobe.com/AdobeIllustrator/10.0/">
	<!ENTITY ns_graphs "http://ns.adobe.com/Graphs/1.0/">
	<!ENTITY ns_vars "http://ns.adobe.com/Variables/1.0/">
	<!ENTITY ns_imrep "http://ns.adobe.com/ImageReplacement/1.0/">
	<!ENTITY ns_sfw "http://ns.adobe.com/SaveForWeb/1.0/">
	<!ENTITY ns_custom "http://ns.adobe.com/GenericCustomNamespace/1.0/">
	<!ENTITY ns_adobe_xpath "http://ns.adobe.com/XPath/1.0/">
]>
<svg version="1.1" id="Layer_1" xmlns:x="&ns_extend;" xmlns:i="&ns_ai;" xmlns:graph="&ns_graphs;"
	 xmlns="http://www.w3.org/2000/svg" xmlns:xlink="http://www.w3.org/1999/xlink" x="0px" y="0px" width="48px" height="48px"
	 viewBox="0 0 48 48" enable-background="new 0 0 48 48" xml:space="preserve">
<metadata>
	<sfw  xmlns="&ns_sfw;">
		<slices></slices>
		<sliceSourceBounds  x="376.115" y="293.129" width="38.871" height="28.323" bottomLeftOrigin="true"></sliceSourceBounds>
	</sfw>
</metadata>
<path opacity="0.8" fill="#FFFFFF" d="M19.43,33.943h-5.296v-5.418h3.157c1.103,0,2.007-0.902,2.007-2.006V11.581
	c0-1.104-0.904-2.007-2.007-2.007H8.189c-1.105,0-2.008,0.902-2.008,2.007V26.52c0,1.104,0.902,2.006,2.008,2.006h3.155v5.42H6.047
	c-0.788,0-1.432,0.646-1.432,1.435v1.991h16.251V35.38C20.866,34.59,20.22,33.943,19.43,33.943z"/>
<path opacity="0.8" fill="#FFFFFF" d="M38.236,9.048l-2.971,1.949c3.014,2.897,4.738,7.179,4.738,11.816
	c0,4.638-1.725,8.919-4.738,11.814l2.971,1.951c3.353-3.525,5.25-8.469,5.25-13.765c0,0,0,0,0-0.001l0,0
	C43.486,17.515,41.589,12.573,38.236,9.048z"/>
<path opacity="0.8" fill="#FFFFFF" d="M36.243,22.814c0-3.814-1.351-7.407-3.734-10.001l-2.918,1.992
	c2.021,1.972,3.171,4.879,3.171,8.009v0.001c0,3.13-1.15,6.035-3.171,8.009l2.918,1.99C34.895,30.221,36.243,26.628,36.243,22.814
	L36.243,22.814z"/>
<path opacity="0.8" fill="#FFFFFF" d="M24.102,18.338c0.901,1.219,1.404,2.796,1.404,4.476v0.001c0,1.679-0.503,3.255-1.404,4.475
	l2.912,1.916c1.272-1.79,1.977-4.034,1.977-6.391v-0.001c0-2.356-0.703-4.601-1.977-6.391L24.102,18.338z"/>
</svg>
