<?xml version="1.0" encoding="utf-8"?>
<!-- Generator: Adobe Illustrator 15.0.0, SVG Export Plug-In . SVG Version: 6.00 Build 0)  -->
<!DOCTYPE svg PUBLIC "-//W3C//DTD SVG 1.1//EN" "http://www.w3.org/Graphics/SVG/1.1/DTD/svg11.dtd">
<svg version="1.1" id="Layer_1" xmlns="http://www.w3.org/2000/svg" xmlns:xlink="http://www.w3.org/1999/xlink" x="0px" y="0px"
	 width="96px" height="96px" viewBox="-24 -24 96 96" enable-background="new -24 -24 96 96" xml:space="preserve">
<path opacity="0.8" fill="#FFFFFF" enable-background="new    " d="M59.673,3.422L43.626,14.788h-5.217v-9.72
	c-0.004-2.208-1.812-4.015-4.021-4.015h-49.709c-2.21,0-4.012,1.807-4.012,4.013v37.865c0,2.209,1.802,4.014,4.012,4.014h49.709
	c2.207,0,4.016-1.805,4.016-4.014v-9.717h5.219l16.049,11.367h7.66V3.422H59.673z M1.573,32.961c0,2.209-0.114,4.271-0.263,4.586
	c-0.138,0.316-2.483,0.57-4.441,0.57S-6.943,38-7.259,37.863c-0.32-0.141-0.574-2.695-0.574-4.902V15.034
	c0-2.208,0.116-4.272,0.254-4.586c0.146-0.314,2.49-0.572,4.45-0.572c1.958,0,3.812,0.116,4.13,0.258
	c0.31,0.143,0.572,2.694,0.572,4.9V32.961z"/>
</svg>
