<?xml version="1.0" encoding="utf-8"?>
<!-- Generator: Adobe Illustrator 15.0.0, SVG Export Plug-In . SVG Version: 6.00 Build 0)  -->
<!DOCTYPE svg PUBLIC "-//W3C//DTD SVG 1.1//EN" "http://www.w3.org/Graphics/SVG/1.1/DTD/svg11.dtd" [
	<!ENTITY ns_extend "http://ns.adobe.com/Extensibility/1.0/">
	<!ENTITY ns_ai "http://ns.adobe.com/AdobeIllustrator/10.0/">
	<!ENTITY ns_graphs "http://ns.adobe.com/Graphs/1.0/">
	<!ENTITY ns_vars "http://ns.adobe.com/Variables/1.0/">
	<!ENTITY ns_imrep "http://ns.adobe.com/ImageReplacement/1.0/">
	<!ENTITY ns_sfw "http://ns.adobe.com/SaveForWeb/1.0/">
	<!ENTITY ns_custom "http://ns.adobe.com/GenericCustomNamespace/1.0/">
	<!ENTITY ns_adobe_xpath "http://ns.adobe.com/XPath/1.0/">
]>
<svg version="1.1" id="Layer_1" xmlns:x="&ns_extend;" xmlns:i="&ns_ai;" xmlns:graph="&ns_graphs;"
	 xmlns="http://www.w3.org/2000/svg" xmlns:xlink="http://www.w3.org/1999/xlink" x="0px" y="0px" width="48px" height="48px"
	 viewBox="0 0 48 48" enable-background="new 0 0 48 48" xml:space="preserve">
<metadata>
	<sfw  xmlns="&ns_sfw;">
		<slices></slices>
		<sliceSourceBounds  x="371.5" y="282.5" width="48" height="48" bottomLeftOrigin="true"></sliceSourceBounds>
	</sfw>
</metadata>
<rect display="none" fill="#414042" width="48" height="48"/>
<polygon display="none" opacity="0.8" fill="#555452" enable-background="new    " points="21.862,7.018 35.305,23.997 
	21.862,40.982 30.014,40.982 43.458,23.997 30.014,7.018 "/>
<polygon display="none" opacity="0.8" fill="#555452" enable-background="new    " points="4.543,7.018 17.986,23.997 4.543,40.982 
	12.696,40.982 26.139,23.997 12.693,7.018 "/>
<polygon display="none" fill="#FFFFFF" points="21.862,7.018 35.305,23.998 21.862,40.982 30.014,40.982 43.458,23.998 
	30.012,7.018 "/>
<polygon display="none" fill="#FFFFFF" points="4.542,7.018 17.986,23.998 4.542,40.982 12.696,40.982 26.139,23.998 12.693,7.018 
	"/>
<path id="audio-6-icon_10_" display="none" opacity="0.8" fill="#FFFFFF" enable-background="new    " d="M7.594,13.859h5.67
	c-2.366,5.144-2.366,15.268,0,20.413h-5.67c-2.897,0-4.219-1.769-4.889-4.541c-0.82-3.401-0.856-7.625-0.057-11.069
	C3.303,15.858,4.534,13.859,7.594,13.859z M45.932,24.01c0.008,14.221-5.568,22.778-10.842,21.008
	c-1.369-0.461-16.939-9.879-16.939-9.879c-3.527-3.936-3.527-18.214,0-22.146c0,0,16.224-9.7,16.91-9.975
	C39.825,1.094,45.921,9.777,45.932,24.01z M39.312,11.039c-1.869-4.009-4.688-3.944-6.514,0.002
	c-1.047,2.25-1.764,4.953-2.146,7.848h0.932c2.816,0,5.09,2.274,5.09,5.089c0,2.809-2.271,5.09-5.09,5.09h-0.911
	c0.39,2.838,1.095,5.574,2.14,7.964c1.752,4.022,4.791,3.952,6.512-0.001C42.77,29.102,42.46,17.813,39.312,11.039z"/>
<path id="clipboard-8-icon_3_" display="none" opacity="0.8" fill="#FFFFFF" enable-background="new    " d="M15.092,27.746
	l1.561-1.441c1.824,0.881,2.979,1.555,5.033,3.019c3.855-4.378,6.403-6.597,11.138-9.544l0.51,1.167
	c-3.907,3.41-6.768,7.207-10.886,14.591C19.907,32.544,18.21,30.639,15.092,27.746z M42.738,8.505V45.83H5.261V8.505h8.465
	l-4.271,4.23v28.796h28.982V12.735l-4.211-4.23H42.738z M29.534,8.411V7.665c0-3.036-2.461-5.496-5.495-5.496
	c-3.035,0-5.496,2.459-5.496,5.496v0.746l-5.998,6.05h23.016L29.534,8.411z M24.077,10.622c-1.719,0-3.113-1.395-3.113-3.114
	c0-1.725,1.394-3.117,3.113-3.117c1.724,0,3.116,1.393,3.116,3.117C27.193,9.227,25.801,10.622,24.077,10.622z"/>
<rect x="13.581" y="7.908" display="none" fill="none" width="30.877" height="21.494"/>
<path display="none" fill="#FFFFFF" d="M42.833,9.534v18.241H15.208V9.535L42.833,9.534 M46.085,6.282H11.954v24.745h34.131V6.282
	L46.085,6.282z"/>
<g display="none">
	<g display="inline">
		<g>
			<defs>
				<polygon id="SVGID_1_" points="12.312,15.1 12.312,30.354 36.532,30.354 36.532,43.991 1.077,43.991 1.077,15.1 				"/>
			</defs>
			<clipPath id="SVGID_2_">
				<use xlink:href="#SVGID_1_"  overflow="visible"/>
			</clipPath>
			<path id="video-icon_2_" clip-path="url(#SVGID_2_)" fill="#FFFFFF" d="M4.969,40.845l30.022-4.458L31.68,14.512L1.658,18.971
				L4.969,40.845z M32.635,32.855l0.4,2.658l-3.32,0.5l-0.4-2.658L32.635,32.855L32.635,32.855z M26.844,33.727l0.4,2.657
				l-3.318,0.5l-0.398-2.657L26.844,33.727L26.844,33.727z M21.03,34.602l0.397,2.657l-3.317,0.499L17.709,35.1L21.03,34.602
				L21.03,34.602z M15.268,35.468l0.401,2.658l-3.322,0.499l-0.399-2.658L15.268,35.468L15.268,35.468z M9.479,36.338l0.398,2.658
				l-3.318,0.498l-0.4-2.657L9.479,36.338L9.479,36.338z M30.801,20.654l1.534,10.901l-11.97,1.799L18.83,22.454L30.801,20.654z
				 M16.182,22.069l1.917,11.667L5.985,35.555L4.213,23.869L16.182,22.069z M30.1,15.996l0.401,2.657l-3.319,0.499l-0.397-2.657
				L30.1,15.996z M24.31,16.866l0.4,2.658l-3.319,0.5l-0.399-2.658L24.31,16.866z M18.494,17.74l0.399,2.658l-3.318,0.5l-0.4-2.658
				L18.494,17.74z M12.73,18.607l0.401,2.656l-3.318,0.5l-0.4-2.658L12.73,18.607z M6.942,19.479l0.4,2.657l-3.319,0.499
				l-0.398-2.657L6.942,19.479z"/>
		</g>
	</g>
</g>
<path display="none" fill="#FFFFFF" d="M24.312,2.066h-0.729c-1.697,0-3.072,1.375-3.072,3.074v1.426L27.6,6.565l0.032-1.178
	C27.632,2.045,24.312,2.066,24.312,2.066z"/>
<path display="none" fill="#FFFFFF" d="M7.851,11.605v30.792c0,1.953,1.584,3.535,3.539,3.535l25.109,0.002
	c1.952-0.002,3.533-1.584,3.533-3.537l0.002-30.792H7.851z M16.497,41.264c0,0.754-0.832,1.366-1.861,1.366
	c-1.031,0-1.863-0.61-1.863-1.366V15.257c0-0.756,0.834-1.368,1.863-1.368c1.029,0,1.861,0.612,1.861,1.368V41.264z M25.523,41.371
	c0,0.755-0.834,1.367-1.861,1.367c-1.032,0-1.865-0.611-1.865-1.367V15.365c0-0.755,0.835-1.368,1.865-1.368
	c1.027,0,1.861,0.612,1.861,1.368V41.371z M34.372,41.371c0,0.755-0.833,1.367-1.86,1.367c-1.031,0-1.865-0.611-1.865-1.367V15.365
	c0-0.755,0.836-1.368,1.865-1.368c1.027,0,1.86,0.612,1.86,1.368V41.371z"/>
<rect x="6.467" y="5.835" display="none" fill="#FFFFFF" width="35.066" height="3.428"/>
<path display="none" opacity="0.8" fill="#FFFFFF" enable-background="new    " d="M35.279,6.533
	c0.478-0.658,1.25-1.046,2.062-1.046c0.547,0,1.065,0.167,1.51,0.492c0.556,0.398,0.914,0.998,1.017,1.675
	c0.106,0.668-0.062,1.348-0.461,1.9c-0.479,0.652-1.259,1.04-2.076,1.04c-0.544,0-1.058-0.169-1.503-0.494
	C34.693,9.271,34.445,7.671,35.279,6.533z M23.923,24.75c-1.104,0-2.001-0.896-2.001-2c0-1.099,0.897-1.998,2.001-1.998
	c1.097,0,1.994,0.899,1.994,1.998C25.917,23.854,25.02,24.75,23.923,24.75z M7.975,7.654c0.108-0.677,0.472-1.277,1.016-1.675
	c0.443-0.325,0.962-0.492,1.508-0.492c0.811,0,1.59,0.389,2.068,1.046c0.397,0.549,0.565,1.223,0.459,1.899
	c-0.096,0.671-0.459,1.264-1.018,1.668c-0.441,0.324-0.961,0.494-1.503,0.494c-0.812,0-1.583-0.388-2.06-1.04
	C8.035,9.001,7.878,8.322,7.975,7.654z M5.733,11.538c0.642,0.889,1.657,1.644,2.369,2.005c0.369,0.184,0.811,0.433,1.364,0.751
	c0.496,0.277,1.084,0.615,1.805,1.002c3.77,2.055,6.221,4.14,6.237,4.158c0.012,0.018,1.33,1.163,2.473,2.438
	c-3.059,7.119-8.037,18.78-8.319,19.904c-0.424,1.675,0.762,3.274,0.814,3.337l0.551,0.738l0.475-0.785l10.421-17.164l10.411,17.164
	l0.482,0.785l0.547-0.738c0.051-0.062,1.234-1.663,0.816-3.337c-0.277-1.119-5.264-12.785-8.318-19.904
	c1.145-1.275,2.462-2.421,2.471-2.43c0.025-0.026,2.471-2.111,6.248-4.167c0.717-0.388,1.309-0.725,1.801-1.012
	c0.549-0.309,0.989-0.558,1.357-0.742c0.713-0.361,1.727-1.116,2.38-2.005c1.922-2.629,1.353-6.348-1.275-8.273
	c-1.021-0.747-2.218-1.141-3.479-1.141c-1.869,0-3.658,0.899-4.772,2.396c-0.485,0.646-0.829,1.382-0.985,2.076
	c-0.201,0.562-0.271,0.989-0.34,1.441c-0.123,0.67-0.244,1.429-0.856,2.95c-1.187,2.968-3.39,5.445-3.438,5.486
	c-0.602,0.72-1.652,1.426-3.047,2.044c-1.397-0.618-2.455-1.325-3.072-2.059c-0.017-0.027-2.216-2.499-3.414-5.472
	c-0.605-1.521-0.74-2.279-0.85-2.95c-0.072-0.452-0.15-0.879-0.327-1.382C16.073,5.9,15.731,5.164,15.256,4.5
	c-1.126-1.49-2.9-2.378-4.769-2.378c-1.266,0-2.469,0.394-3.485,1.141C4.372,5.195,3.794,8.909,5.733,11.538z"/>
<path display="none" fill="#FFFFFF" d="M24.029,45.965C11.915,45.965,2.062,36.111,2.062,24c0-12.112,9.853-21.965,21.967-21.965
	c12.112,0,21.965,9.854,21.965,21.965C45.994,36.111,36.141,45.965,24.029,45.965z M24.029,6.464C14.36,6.464,6.491,14.331,6.491,24
	s7.869,17.536,17.538,17.536c9.668,0,17.538-7.867,17.538-17.536S33.697,6.464,24.029,6.464z"/>
<path display="none" fill="#FFFFFF" d="M29.255,35.662H19.201V34.5c0.274-0.021,0.546-0.048,0.812-0.08
	c0.265-0.031,0.491-0.084,0.684-0.158c0.339-0.128,0.575-0.31,0.713-0.549c0.14-0.238,0.21-0.555,0.21-0.947v-9.258
	c0-0.371-0.086-0.696-0.256-0.979c-0.169-0.28-0.382-0.505-0.635-0.675c-0.19-0.127-0.48-0.25-0.868-0.366
	c-0.387-0.116-0.74-0.19-1.058-0.223v-1.162L26.6,19.69l0.237,0.238v12.631c0,0.371,0.079,0.688,0.239,0.945
	c0.16,0.26,0.388,0.453,0.684,0.58c0.213,0.096,0.446,0.182,0.7,0.255c0.253,0.075,0.521,0.127,0.797,0.16v1.163H29.255z
	 M26.932,13.964c0,0.808-0.311,1.494-0.932,2.061c-0.621,0.568-1.355,0.852-2.204,0.852c-0.858,0-1.599-0.284-2.219-0.852
	c-0.62-0.566-0.931-1.253-0.931-2.061c0-0.805,0.311-1.495,0.931-2.067c0.621-0.572,1.361-0.859,2.219-0.859
	c0.861,0,1.597,0.287,2.211,0.859C26.625,12.469,26.932,13.159,26.932,13.964z"/>
<path display="none" fill="#FFFFFF" d="M45.143,22.642c0.068,0.704,0.104,1.411,0.104,2.118c0,0.525-0.015,1.045-0.058,1.574
	c-0.203,2.76-0.924,5.407-2.139,7.877c-1.269,2.559-3.011,4.807-5.188,6.684c-2.172,1.877-4.656,3.272-7.373,4.146
	c-2.606,0.843-5.387,1.128-8.085,0.971c-2.777-0.207-5.43-0.927-7.894-2.152c-2.143-1.055-4.1-2.549-5.78-4.264l-0.023,0.02
	l-3.912,3.324L3.792,29.198l13.41,3.181l-3.87,3.293l-0.026,0.016c1.096,1.037,2.449,2.047,3.804,2.713
	c1.739,0.86,3.669,1.395,5.596,1.535c2.044,0.107,4.005-0.104,5.821-0.688c1.934-0.624,3.703-1.62,5.256-2.964
	c1.554-1.342,2.799-2.945,3.701-4.77c0.867-1.759,1.389-3.644,1.531-5.607c0.029-0.391,0.045-0.768,0.045-1.146
	c0-0.71-0.049-1.415-0.148-2.11"/>
<path display="none" fill="#FFFFFF" d="M2.596,25.447c-0.071-0.701-0.107-1.411-0.107-2.118c0-0.526,0.018-1.046,0.056-1.572
	c0.205-2.761,0.928-5.41,2.141-7.88c1.267-2.555,3.01-4.806,5.188-6.684c2.173-1.874,4.656-3.27,7.378-4.149
	c2.6-0.84,5.385-1.124,8.078-0.968c2.783,0.205,5.43,0.928,7.896,2.154c2.145,1.054,4.104,2.548,5.78,4.262l0.022-0.017l3.91-3.326
	l1.002,13.739l-13.405-3.176l3.868-3.295l0.025-0.018c-1.093-1.035-2.449-2.044-3.806-2.713c-1.733-0.859-3.668-1.392-5.597-1.533
	c-2.042-0.107-4.003,0.106-5.821,0.689c-1.932,0.623-3.7,1.62-5.255,2.964c-1.554,1.339-2.797,2.941-3.696,4.768
	c-0.871,1.758-1.392,3.642-1.534,5.609c-0.031,0.389-0.046,0.769-0.046,1.145c0,0.709,0.05,1.414,0.148,2.109"/>
<path display="none" fill="#FFFFFF" d="M13.559,12.497c-6.353,0-11.503,5.151-11.503,11.504c0,6.356,5.15,11.504,11.503,11.504
	c6.355,0,11.505-5.147,11.505-11.504C25.062,17.648,19.914,12.497,13.559,12.497z M20.63,26.09h-4.98v4.98h-3.847v-4.98H6.824
	v-3.845h4.979v-4.979h3.847v4.979h4.979L20.63,26.09L20.63,26.09z"/>
<path display="none" fill="#FFFFFF" d="M39.962,7.984l-4.669,3.192c3.23,3.156,5.075,7.812,5.075,12.821v0.005
	c0,5.01-1.845,9.665-5.075,12.821l4.669,3.192c3.819-4.156,5.981-9.908,5.981-16.016v-0.005
	C45.943,17.892,43.781,12.14,39.962,7.984z"/>
<path display="none" fill="#FFFFFF" d="M35.292,23.999c0-3.773-1.128-7.365-3.163-10.233l-4.664,3.065
	c1.445,1.954,2.25,4.48,2.25,7.168v0.002c0,2.688-0.805,5.215-2.25,7.168l4.664,3.065c2.034-2.868,3.163-6.459,3.163-10.233V23.999z
	"/>
<path display="none" fill="#FFFFFF" d="M19.963,24.173c0,2.466,1.995,4.463,4.465,4.463c2.462,0,4.46-1.997,4.46-4.463
	c0-2.463-1.998-4.461-4.46-4.461C21.958,19.712,19.963,21.71,19.963,24.173z"/>
<path display="none" fill="#FFFFFF" d="M34.984,35.919c-1.619,1.388-3.45,2.419-5.453,3.067c-1.561,0.507-3.188,0.762-4.82,0.762
	c-0.395-0.005-0.788-0.018-1.168-0.045c-2.057-0.154-4.021-0.689-5.841-1.588c-1.884-0.93-3.542-2.221-4.941-3.838
	c-1.39-1.61-2.42-3.444-3.069-5.446C9.194,27.281,8.937,25.65,8.937,24c0-0.391,0.017-0.781,0.046-1.186
	c0.148-2.037,0.688-3.99,1.59-5.81c0.932-1.892,2.221-3.554,3.829-4.94c1.614-1.393,3.446-2.426,5.449-3.072
	c1.879-0.603,3.914-0.828,6.029-0.714c1.997,0.148,3.997,0.697,5.798,1.588c1.406,0.694,2.811,1.741,3.94,2.814l-0.025,0.017
	l-4.008,3.411L45.477,19.4L44.436,5.167l-4.049,3.445l-0.029,0.019c-1.738-1.774-3.769-3.323-5.988-4.414
	c-2.553-1.271-5.296-2.021-8.18-2.232c-2.791-0.164-5.674,0.133-8.372,1.003c-2.816,0.908-5.392,2.354-7.641,4.3
	c-2.258,1.944-4.066,4.272-5.378,6.921c-1.257,2.56-2.003,5.306-2.212,8.166c-0.044,0.544-0.062,1.083-0.062,1.626
	c0,2.304,0.356,4.581,1.06,6.763c0.905,2.817,2.351,5.385,4.292,7.637c1.942,2.252,4.274,4.06,6.924,5.373
	c2.565,1.265,5.311,2.017,8.163,2.225c0.516,0.039,1.03,0.062,1.546,0.062h0.104c2.302,0,4.566-0.361,6.738-1.063
	c2.813-0.904,5.387-2.349,7.646-4.294c2.257-1.944,4.062-4.271,5.365-6.924l-5.549-2.797C37.879,32.867,36.594,34.529,34.984,35.919
	z"/>
<path display="none" fill="#FFFFFF" d="M46.148,34.922h-6.996V9.965h-27.2V2.972H8.841v6.993H1.85v3.11h6.992v24.956h27.206v6.996
	h3.104v-6.996h6.998v-3.109H46.148z M11.953,34.922V13.076h24.095v21.846H11.953z"/>
<polygon display="none" fill="#FFFFFF" points="20.747,23.325 26.773,27.857 29.828,26.697 33.583,29.673 33.583,32.395 
	14.412,32.395 14.412,27.473 "/>
<path id="picture-add-icon_4_" display="none" opacity="0.8" fill="#FFFFFF" enable-background="new    " d="M45.678,24.001
	c0,11.974-9.701,21.677-21.68,21.677c-11.97,0-21.676-9.703-21.676-21.677c0-11.974,9.706-21.68,21.676-21.68
	C35.977,2.321,45.678,12.027,45.678,24.001z M37.323,20.691h-9.384v-9.383h-7.25v9.383h-9.382v7.247h9.382v9.387h7.25v-9.387h9.384
	V20.691z"/>
<path id="picture-box-icon_2_" display="none" fill="#FFFFFF" d="M30.461,32.876l-2.833,2.642h-7.26l-2.841-2.642H1.985H1.978
	l1.602,9.521l40.635-0.002l1.707-9.519h-0.007H30.461z M41.932,11.425H5.968L5.543,9.116h36.814L41.932,11.425z M39.461,7.425H8.541
	L8.116,5.604h31.772L39.461,7.425z M4.544,30.438l-1.439-17.2h41.599l-1.478,17.202H39.58l0.999-14.016H7.127l1.1,14.016H4.544
	V30.438z"/>
<polygon display="none" fill="#FFFFFF" points="16.85,28.234 19.969,31.135 27.938,31.135 31.046,28.234 42.971,28.234 
	44.398,6.588 3.015,6.588 4.545,28.234 "/>
<polygon display="none" fill="#FFFFFF" points="45.925,31.823 31.789,31.823 29.564,33.898 28.868,34.548 27.917,34.548 
	19.948,34.548 19,34.548 18.305,33.902 16.068,31.823 1.832,31.823 1.825,31.823 3.583,41.413 44.059,41.41 45.934,31.823 "/>
<path display="none" fill="#FFFFFF" d="M37.557,45.455H10.599c-1.337,0-2.231-0.783-2.231-1.951V8.271
	c0-1.165,0.894-1.948,2.231-1.948h26.958c1.336,0,2.233,0.784,2.233,1.948v35.233C39.79,44.672,38.893,45.455,37.557,45.455z
	 M11.091,43.073h25.976V8.705L11.091,8.702V43.073z"/>
<path display="none" fill="#FFFFFF" d="M37.557,45.912H10.599c-1.583,0-2.69-0.989-2.69-2.408V8.271c0-1.417,1.107-2.408,2.69-2.408
	h26.958c1.584,0,2.691,0.991,2.691,2.408v35.233C40.249,44.922,39.141,45.912,37.557,45.912z M10.599,6.78
	c-1.077,0-1.773,0.586-1.773,1.491v35.233c0,0.907,0.696,1.492,1.773,1.492h26.958c1.08,0,1.773-0.585,1.773-1.492V8.271
	c0-0.905-0.693-1.491-1.773-1.491H10.599z M37.523,43.53H10.633V8.245l26.893,0.002V43.53H37.523z M11.55,42.614h25.06V9.163
	L11.55,9.16V42.614z"/>
<path display="none" fill="#FFFFFF" d="M15.951,13.505c-0.509,0-0.925-0.404-0.925-0.907v-0.211c0-0.501,0.417-0.908,0.925-0.908
	h0.832c0.508,0,0.923,0.407,0.923,0.908v0.211c0,0.503-0.415,0.907-0.923,0.907H15.951z"/>
<path display="none" fill="#FFFFFF" d="M16.782,11.869c0.292,0,0.529,0.231,0.529,0.518v0.211c0,0.286-0.237,0.52-0.529,0.52H15.95
	c-0.292,0-0.529-0.234-0.529-0.52v-0.211c0-0.287,0.237-0.518,0.529-0.518H16.782 M16.782,11.091H15.95
	c-0.729,0-1.32,0.58-1.32,1.296v0.211c0,0.717,0.591,1.294,1.32,1.294h0.832c0.729,0,1.321-0.577,1.321-1.294v-0.211
	C18.103,11.671,17.511,11.091,16.782,11.091L16.782,11.091z"/>
<path display="none" fill="#FFFFFF" d="M23.53,13.505c-0.511,0-0.921-0.404-0.921-0.907v-0.211c0-0.501,0.41-0.908,0.921-0.908
	h0.833c0.509,0,0.924,0.407,0.924,0.908v0.211c0,0.503-0.415,0.907-0.924,0.907H23.53z"/>
<path display="none" fill="#FFFFFF" d="M24.363,11.869c0.292,0,0.53,0.231,0.53,0.518v0.211c0,0.286-0.238,0.52-0.53,0.52H23.53
	c-0.292,0-0.53-0.234-0.53-0.52v-0.211c0-0.287,0.238-0.518,0.53-0.518H24.363 M24.363,11.091H23.53
	c-0.728,0-1.317,0.58-1.317,1.296v0.211c0,0.717,0.59,1.294,1.317,1.294h0.833c0.73,0,1.319-0.577,1.319-1.294v-0.211
	C25.682,11.671,25.093,11.091,24.363,11.091L24.363,11.091z"/>
<path display="none" fill="#FFFFFF" d="M31.413,13.505c-0.509,0-0.922-0.404-0.922-0.907v-0.211c0-0.501,0.413-0.908,0.922-0.908
	h0.833c0.511,0,0.924,0.407,0.924,0.908v0.211c0,0.503-0.414,0.907-0.924,0.907H31.413z"/>
<path display="none" fill="#FFFFFF" d="M32.245,11.869c0.294,0,0.528,0.231,0.528,0.518v0.211c0,0.286-0.234,0.52-0.528,0.52h-0.833
	c-0.289,0-0.525-0.234-0.525-0.52v-0.211c0-0.287,0.236-0.518,0.525-0.518H32.245 M32.245,11.091h-0.833
	c-0.729,0-1.316,0.58-1.316,1.296v0.211c0,0.717,0.588,1.294,1.316,1.294h0.833c0.731,0,1.319-0.577,1.319-1.294v-0.211
	C33.564,11.671,32.977,11.091,32.245,11.091L32.245,11.091z"/>
<path display="none" fill="#FFFFFF" d="M25.43,11.57l-1.279-0.544c0.389-0.888,0.643-1.848,0.765-2.938
	c0.299-2.537-0.318-4.299-1.126-4.666c-0.236,0.297-0.657,1.242-1.013,2.748l-1.361-0.307c0.854-3.61,1.793-3.777,2.102-3.834
	c0.105-0.02,0.246-0.033,0.412-0.003c1.818,0.419,2.763,2.917,2.375,6.217C26.167,9.47,25.883,10.559,25.43,11.57z"/>
<path display="none" fill="#FFFFFF" d="M33.158,11.57l-1.282-0.544c0.394-0.888,0.646-1.848,0.772-2.938
	c0.293-2.537-0.326-4.299-1.131-4.666c-0.24,0.297-0.656,1.242-1.011,2.748l-1.362-0.307c0.854-3.611,1.791-3.777,2.099-3.834
	c0.104-0.014,0.248-0.033,0.415-0.003c1.812,0.419,2.76,2.917,2.378,6.217C33.893,9.47,33.607,10.557,33.158,11.57z"/>
<path display="none" fill="#FFFFFF" d="M17.851,11.57l-1.282-0.544c0.394-0.888,0.644-1.848,0.771-2.938
	c0.298-2.537-0.325-4.299-1.129-4.666C15.973,3.72,15.554,4.664,15.2,6.17l-1.361-0.307c0.852-3.61,1.79-3.777,2.101-3.834
	c0.151-0.027,0.292-0.024,0.424,0.002c1.804,0.414,2.75,2.908,2.368,6.212C18.588,9.47,18.298,10.557,17.851,11.57z"/>
<polygon id="up_button_3_" display="none" opacity="0.8" fill="#FFFFFF" enable-background="new    " points="30.333,45.96 
	12.946,24.005 30.333,2.04 19.789,2.04 2.404,24.005 19.789,45.96 "/>
<path id="user-icon_4_" display="none" opacity="0.8" fill="#FFFFFF" enable-background="new    " d="M40.137,35.131
	c-6.291-1.451-12.146-2.722-9.31-8.068C39.457,10.788,33.113,2.088,24,2.088c-9.295,0-15.482,9.036-6.828,24.975
	c2.922,5.379-3.153,6.65-9.308,8.068c-6.289,1.45-5.805,4.766-5.805,10.78h43.88C45.939,39.896,46.425,36.581,40.137,35.131z"/>
<path opacity="0.8" fill="#FFFFFF" d="M37.893,45.122H10.934c-1.337,0-2.231-0.782-2.231-1.951V7.938
	c0-1.165,0.894-1.948,2.231-1.948h26.958c1.334,0,2.232,0.784,2.232,1.948v35.233C40.125,44.34,39.227,45.122,37.893,45.122z
	 M11.426,42.74H37.4V8.372L11.426,8.369V42.74z"/>
<path opacity="0.8" fill="#FFFFFF" d="M37.893,45.578H10.934c-1.583,0-2.69-0.988-2.69-2.407V7.938c0-1.417,1.107-2.408,2.69-2.408
	h26.958c1.582,0,2.69,0.991,2.69,2.408v35.233C40.583,44.59,39.475,45.578,37.893,45.578z M10.934,6.447
	c-1.077,0-1.773,0.586-1.773,1.491v35.233c0,0.907,0.696,1.491,1.773,1.491h26.958c1.078,0,1.771-0.584,1.771-1.491V7.938
	c0-0.905-0.693-1.491-1.771-1.491H10.934z M37.859,43.197H10.968V7.912l26.892,0.002V43.197z M11.884,42.281h25.06V8.83
	l-25.06-0.003V42.281z"/>
<path opacity="0.8" fill="#FFFFFF" d="M16.285,13.172c-0.509,0-0.925-0.404-0.925-0.907v-0.211c0-0.501,0.417-0.908,0.925-0.908
	h0.832c0.508,0,0.923,0.407,0.923,0.908v0.211c0,0.503-0.415,0.907-0.923,0.907H16.285z"/>
<path opacity="0.8" fill="#FFFFFF" d="M17.117,11.536c0.292,0,0.529,0.231,0.529,0.518v0.211c0,0.286-0.237,0.52-0.529,0.52h-0.832
	c-0.292,0-0.529-0.234-0.529-0.52v-0.211c0-0.287,0.237-0.518,0.529-0.518H17.117 M17.117,10.758h-0.832
	c-0.729,0-1.32,0.58-1.32,1.296v0.211c0,0.717,0.591,1.294,1.32,1.294h0.832c0.729,0,1.321-0.577,1.321-1.294v-0.211
	C18.438,11.338,17.846,10.758,17.117,10.758L17.117,10.758z"/>
<path opacity="0.8" fill="#FFFFFF" d="M23.865,13.172c-0.511,0-0.921-0.404-0.921-0.907v-0.211c0-0.501,0.41-0.908,0.921-0.908
	h0.833c0.51,0,0.924,0.407,0.924,0.908v0.211c0,0.503-0.414,0.907-0.924,0.907H23.865z"/>
<path opacity="0.8" fill="#FFFFFF" d="M24.697,11.536c0.291,0,0.529,0.231,0.529,0.518v0.211c0,0.286-0.238,0.52-0.529,0.52h-0.833
	c-0.292,0-0.53-0.234-0.53-0.52v-0.211c0-0.287,0.238-0.518,0.53-0.518H24.697 M24.697,10.758h-0.833
	c-0.728,0-1.317,0.58-1.317,1.296v0.211c0,0.717,0.59,1.294,1.317,1.294h0.833c0.729,0,1.318-0.577,1.318-1.294v-0.211
	C26.016,11.338,25.428,10.758,24.697,10.758L24.697,10.758z"/>
<path opacity="0.8" fill="#FFFFFF" d="M31.747,13.172c-0.509,0-0.922-0.404-0.922-0.907v-0.211c0-0.501,0.413-0.908,0.922-0.908
	h0.833c0.51,0,0.924,0.407,0.924,0.908v0.211c0,0.503-0.414,0.907-0.924,0.907H31.747z"/>
<path opacity="0.8" fill="#FFFFFF" d="M32.58,11.536c0.293,0,0.527,0.231,0.527,0.518v0.211c0,0.286-0.234,0.52-0.527,0.52h-0.833
	c-0.289,0-0.526-0.234-0.526-0.52v-0.211c0-0.287,0.237-0.518,0.526-0.518H32.58 M32.58,10.758h-0.833
	c-0.729,0-1.315,0.58-1.315,1.296v0.211c0,0.717,0.588,1.294,1.315,1.294h0.833c0.73,0,1.318-0.577,1.318-1.294v-0.211
	C33.898,11.338,33.311,10.758,32.58,10.758L32.58,10.758z"/>
<path opacity="0.8" fill="#FFFFFF" d="M25.766,11.237l-1.28-0.544c0.389-0.888,0.643-1.848,0.765-2.938
	c0.3-2.537-0.317-4.299-1.126-4.666c-0.236,0.297-0.657,1.242-1.013,2.748L21.751,5.53c0.854-3.61,1.793-3.777,2.102-3.834
	c0.105-0.02,0.246-0.033,0.412-0.003c1.818,0.419,2.764,2.917,2.375,6.217C26.501,9.137,26.217,10.226,25.766,11.237z"/>
<path opacity="0.8" fill="#FFFFFF" d="M33.492,11.237l-1.281-0.544c0.395-0.888,0.645-1.848,0.771-2.938
	c0.295-2.537-0.324-4.299-1.131-4.666c-0.238,0.297-0.654,1.242-1.009,2.748L29.48,5.53c0.854-3.611,1.789-3.777,2.098-3.834
	c0.105-0.014,0.248-0.033,0.415-0.003c1.812,0.419,2.76,2.917,2.378,6.217C34.229,9.137,33.941,10.224,33.492,11.237z"/>
<path opacity="0.8" fill="#FFFFFF" d="M18.186,11.237l-1.282-0.544c0.394-0.888,0.644-1.848,0.771-2.938
	c0.298-2.537-0.325-4.299-1.129-4.666c-0.238,0.297-0.657,1.242-1.012,2.748L14.173,5.53c0.852-3.61,1.79-3.777,2.101-3.834
	c0.151-0.027,0.292-0.024,0.424,0.002c1.804,0.414,2.75,2.908,2.368,6.212C18.923,9.137,18.633,10.224,18.186,11.237z"/>
</svg>
