<?xml version="1.0" encoding="utf-8"?>
<!-- Generator: Adobe Illustrator 15.0.0, SVG Export Plug-In . SVG Version: 6.00 Build 0)  -->
<!DOCTYPE svg PUBLIC "-//W3C//DTD SVG 1.1//EN" "http://www.w3.org/Graphics/SVG/1.1/DTD/svg11.dtd">
<svg version="1.1" id="Layer_1" xmlns="http://www.w3.org/2000/svg" xmlns:xlink="http://www.w3.org/1999/xlink" x="0px" y="0px"
	 width="48px" height="48px" viewBox="0 0 48 48" enable-background="new 0 0 48 48" xml:space="preserve">
<rect display="none" fill="#E6E7E8" width="48" height="48"/>
<polygon display="none" opacity="0.8" fill="#555452" enable-background="new    " points="21.862,7.018 35.305,23.997 
	21.862,40.982 30.014,40.982 43.458,23.997 30.014,7.018 "/>
<polygon display="none" opacity="0.8" fill="#555452" enable-background="new    " points="4.543,7.018 17.986,23.997 4.543,40.982 
	12.696,40.982 26.139,23.997 12.693,7.018 "/>
<polygon display="none" fill="#FFFFFF" points="21.862,7.018 35.305,23.998 21.862,40.982 30.014,40.982 43.458,23.998 
	30.012,7.018 "/>
<polygon display="none" fill="#FFFFFF" points="4.542,7.018 17.986,23.998 4.542,40.982 12.696,40.982 26.139,23.998 12.693,7.018 
	"/>
<path id="audio-6-icon_4_" display="none" opacity="0.8" fill="#FFFFFF" enable-background="new    " d="M7.594,13.859h5.67
	c-2.366,5.144-2.366,15.268,0,20.413h-5.67c-2.897,0-4.219-1.769-4.889-4.541c-0.82-3.402-0.856-7.625-0.057-11.07
	C3.303,15.858,4.534,13.859,7.594,13.859z M45.932,24.01c0.008,14.221-5.568,22.778-10.842,21.008
	c-1.369-0.461-16.939-9.879-16.939-9.879c-3.527-3.936-3.527-18.214,0-22.146c0,0,16.224-9.7,16.91-9.975
	C39.825,1.094,45.921,9.777,45.932,24.01z M39.312,11.039c-1.869-4.009-4.688-3.944-6.513,0.002
	c-1.047,2.25-1.764,4.953-2.146,7.848h0.931c2.817,0,5.09,2.274,5.09,5.089c0,2.809-2.272,5.09-5.09,5.09h-0.911
	c0.389,2.838,1.094,5.574,2.139,7.964c1.752,4.022,4.791,3.952,6.512-0.001C42.77,29.102,42.46,17.813,39.312,11.039z"/>
<path id="clipboard-8-icon_1_" display="none" opacity="0.8" fill="#FFFFFF" enable-background="new    " d="M15.092,27.746
	l1.561-1.441c1.824,0.881,2.979,1.555,5.033,3.018c3.855-4.377,6.403-6.597,11.138-9.544l0.51,1.167
	c-3.907,3.41-6.768,7.206-10.886,14.591C19.907,32.544,18.21,30.639,15.092,27.746z M42.738,8.505V45.83H5.261V8.505h8.465
	l-4.271,4.23v28.796h28.982V12.735l-4.211-4.23H42.738z M29.534,8.411V7.665c0-3.036-2.461-5.496-5.495-5.496
	c-3.035,0-5.496,2.459-5.496,5.496v0.746l-5.998,6.05h23.016L29.534,8.411z M24.078,9.394c-1.042,0-1.887-0.845-1.887-1.887
	c0-1.045,0.845-1.89,1.887-1.89c1.045,0,1.889,0.845,1.889,1.89C25.967,8.548,25.123,9.394,24.078,9.394z"/>
<rect x="13.505" y="8.438" display="none" fill="none" width="30.877" height="21.494"/>
<path display="none" fill="#FFFFFF" d="M42.758,10.063v18.242H15.132V10.064L42.758,10.063 M46.01,6.812H11.878v24.745H46.01V6.812
	L46.01,6.812z"/>
<g display="none">
	<g display="inline">
		<defs>
			<polygon id="SVGID_1_" points="11.878,12.297 11.878,31.557 37.445,31.557 37.445,41.188 1.99,41.188 1.99,12.297 			"/>
		</defs>
		<clipPath id="SVGID_2_">
			<use xlink:href="#SVGID_1_"  overflow="visible"/>
		</clipPath>
		<path id="video-icon_2_" clip-path="url(#SVGID_2_)" fill="#FFFFFF" d="M5.545,39.136l30.909-4.646l-3.558-23.65L1.99,15.487
			L5.545,39.136z M33.549,30.055l0.4,2.657l-3.32,0.499l-0.4-2.658L33.549,30.055L33.549,30.055z M27.758,30.923l0.4,2.658
			l-3.318,0.5l-0.398-2.658L27.758,30.923L27.758,30.923z M21.943,31.799l0.397,2.658l-3.317,0.499l-0.401-2.658L21.943,31.799
			L21.943,31.799z M16.182,32.666l0.401,2.658l-3.322,0.499l-0.399-2.658L16.182,32.666L16.182,32.666L16.182,32.666z
			 M10.393,33.536l0.398,2.657l-3.318,0.498l-0.401-2.656L10.393,33.536L10.393,33.536z M31.715,17.852l1.533,10.203l-11.97,1.799
			l-1.533-10.203L31.715,17.852z M17.207,20.032l1.535,10.202l-11.972,1.8L5.238,21.832L17.207,20.032z M31.014,13.193l0.4,2.657
			l-3.32,0.499l-0.398-2.657L31.014,13.193z M25.225,14.063l0.399,2.658l-3.319,0.5l-0.399-2.658L25.225,14.063z M19.408,14.938
			l0.399,2.658l-3.318,0.5l-0.4-2.658L19.408,14.938z M13.644,15.805l0.401,2.656l-3.318,0.5l-0.4-2.658L13.644,15.805z
			 M7.856,16.676l0.4,2.657l-3.319,0.499l-0.398-2.657L7.856,16.676z"/>
	</g>
</g>
<path display="none" fill="#FFFFFF" d="M24.312,2.066h-0.729c-1.697,0-3.072,1.375-3.072,3.074v1.426L27.6,6.565l0.032-1.178
	C27.632,2.045,24.312,2.066,24.312,2.066z"/>
<path display="none" fill="#FFFFFF" d="M7.851,11.605v30.792c0,1.953,1.584,3.535,3.539,3.535l25.109,0.002
	c1.952-0.002,3.533-1.584,3.533-3.537l0.002-30.792H7.851z M16.497,41.264c0,0.754-0.832,1.366-1.861,1.366
	c-1.031,0-1.863-0.61-1.863-1.366V15.257c0-0.756,0.834-1.368,1.863-1.368c1.029,0,1.861,0.612,1.861,1.368V41.264z M25.523,41.371
	c0,0.755-0.834,1.367-1.861,1.367c-1.032,0-1.865-0.611-1.865-1.367V15.365c0-0.755,0.835-1.368,1.865-1.368
	c1.027,0,1.861,0.612,1.861,1.368V41.371z M34.372,41.371c0,0.755-0.833,1.367-1.86,1.367c-1.031,0-1.865-0.611-1.865-1.367V15.365
	c0-0.755,0.836-1.368,1.865-1.368c1.027,0,1.86,0.612,1.86,1.368V41.371z"/>
<rect x="6.467" y="5.835" display="none" fill="#FFFFFF" width="35.066" height="3.428"/>
<path display="none" opacity="0.8" fill="#FFFFFF" enable-background="new    " d="M35.279,6.533
	c0.478-0.658,1.25-1.046,2.063-1.046c0.546,0,1.065,0.167,1.509,0.492c0.556,0.398,0.914,0.998,1.017,1.675
	c0.106,0.668-0.062,1.348-0.461,1.9c-0.479,0.652-1.259,1.04-2.076,1.04c-0.544,0-1.058-0.169-1.503-0.494
	C34.693,9.271,34.445,7.671,35.279,6.533z M23.923,24.75c-1.104,0-2.001-0.896-2.001-2c0-1.099,0.897-1.998,2.001-1.998
	c1.097,0,1.994,0.899,1.994,1.998C25.917,23.854,25.02,24.75,23.923,24.75z M7.975,7.654c0.108-0.677,0.472-1.277,1.016-1.675
	c0.443-0.325,0.962-0.492,1.508-0.492c0.811,0,1.59,0.389,2.068,1.046c0.397,0.549,0.565,1.223,0.459,1.899
	c-0.096,0.671-0.459,1.264-1.018,1.668c-0.441,0.324-0.961,0.494-1.503,0.494c-0.812,0-1.583-0.388-2.06-1.04
	C8.035,9.001,7.878,8.322,7.975,7.654z M5.733,11.538c0.642,0.889,1.657,1.644,2.369,2.005c0.369,0.184,0.811,0.433,1.364,0.751
	c0.496,0.277,1.084,0.615,1.805,1.002c3.77,2.055,6.221,4.14,6.237,4.158c0.012,0.018,1.33,1.163,2.473,2.438
	c-3.059,7.119-8.037,18.78-8.319,19.904c-0.424,1.675,0.762,3.274,0.814,3.337l0.551,0.738l0.475-0.785l10.421-17.164l10.411,17.164
	l0.482,0.785l0.547-0.738c0.051-0.062,1.234-1.662,0.816-3.337c-0.277-1.119-5.263-12.785-8.318-19.904
	c1.145-1.275,2.462-2.421,2.471-2.43c0.025-0.026,2.471-2.111,6.248-4.167c0.717-0.388,1.309-0.725,1.801-1.012
	c0.549-0.309,0.989-0.558,1.357-0.742c0.713-0.361,1.727-1.116,2.38-2.005c1.922-2.629,1.353-6.348-1.275-8.273
	c-1.021-0.747-2.218-1.141-3.479-1.141c-1.87,0-3.659,0.899-4.773,2.396c-0.486,0.646-0.83,1.382-0.986,2.076
	c-0.201,0.562-0.271,0.989-0.34,1.441c-0.123,0.67-0.244,1.429-0.856,2.95c-1.187,2.968-3.39,5.445-3.438,5.486
	c-0.602,0.72-1.652,1.426-3.047,2.044c-1.397-0.618-2.455-1.325-3.072-2.059c-0.017-0.027-2.216-2.499-3.414-5.472
	c-0.605-1.521-0.74-2.279-0.85-2.95c-0.072-0.452-0.15-0.879-0.327-1.382C16.073,5.9,15.731,5.164,15.256,4.5
	c-1.126-1.49-2.9-2.378-4.769-2.378c-1.266,0-2.469,0.394-3.485,1.141C4.372,5.195,3.794,8.909,5.733,11.538z"/>
<path display="none" fill="#FFFFFF" d="M24.029,45.965C11.915,45.965,2.062,36.111,2.062,24c0-12.112,9.853-21.965,21.967-21.965
	c12.112,0,21.965,9.854,21.965,21.965C45.994,36.111,36.141,45.965,24.029,45.965z M24.029,6.464C14.36,6.464,6.491,14.331,6.491,24
	s7.869,17.536,17.538,17.536c9.668,0,17.538-7.867,17.538-17.536S33.697,6.464,24.029,6.464z"/>
<path display="none" fill="#FFFFFF" d="M29.255,35.662H19.201V34.5c0.274-0.021,0.546-0.048,0.812-0.08
	c0.265-0.031,0.491-0.084,0.684-0.158c0.339-0.128,0.575-0.31,0.713-0.549c0.14-0.238,0.21-0.555,0.21-0.947v-9.258
	c0-0.371-0.086-0.696-0.256-0.979c-0.169-0.28-0.382-0.505-0.635-0.675c-0.19-0.127-0.48-0.25-0.868-0.366
	c-0.387-0.116-0.74-0.19-1.058-0.223v-1.162L26.6,19.69l0.237,0.238v12.63c0,0.371,0.079,0.687,0.239,0.945
	c0.16,0.26,0.388,0.453,0.684,0.58c0.213,0.096,0.446,0.182,0.7,0.255c0.253,0.075,0.521,0.127,0.797,0.16v1.163H29.255z
	 M26.932,13.964c0,0.808-0.311,1.494-0.932,2.061c-0.621,0.568-1.355,0.852-2.204,0.852c-0.858,0-1.599-0.284-2.219-0.852
	c-0.62-0.566-0.931-1.253-0.931-2.061c0-0.805,0.311-1.495,0.931-2.067c0.621-0.572,1.361-0.859,2.219-0.859
	c0.861,0,1.597,0.287,2.211,0.859C26.625,12.469,26.932,13.159,26.932,13.964z"/>
<path display="none" fill="#FFFFFF" d="M45.143,22.642c0.068,0.704,0.104,1.411,0.104,2.118c0,0.525-0.014,1.045-0.057,1.574
	c-0.203,2.76-0.924,5.407-2.139,7.877c-1.269,2.559-3.011,4.807-5.188,6.684c-2.172,1.877-4.656,3.272-7.373,4.146
	c-2.606,0.843-5.387,1.128-8.085,0.971c-2.777-0.207-5.43-0.927-7.894-2.152c-2.143-1.055-4.1-2.549-5.78-4.264l-0.023,0.019
	l-3.912,3.325L3.792,29.198l13.41,3.181l-3.87,3.293l-0.026,0.016c1.096,1.037,2.449,2.047,3.804,2.713
	c1.739,0.86,3.669,1.394,5.596,1.535c2.044,0.107,4.005-0.105,5.821-0.689c1.934-0.624,3.703-1.62,5.256-2.964
	c1.554-1.341,2.799-2.945,3.701-4.769c0.867-1.759,1.389-3.644,1.531-5.609c0.03-0.389,0.045-0.766,0.045-1.146
	c0-0.71-0.049-1.415-0.148-2.11"/>
<path display="none" fill="#FFFFFF" d="M2.596,25.447c-0.071-0.701-0.107-1.411-0.107-2.118c0-0.526,0.018-1.046,0.056-1.572
	c0.205-2.761,0.928-5.41,2.141-7.88c1.267-2.555,3.01-4.806,5.188-6.684c2.173-1.874,4.656-3.27,7.378-4.149
	c2.6-0.84,5.385-1.124,8.078-0.968c2.783,0.205,5.43,0.928,7.896,2.154c2.145,1.054,4.104,2.548,5.781,4.262l0.023-0.017l3.91-3.326
	l1.002,13.739l-13.406-3.176l3.869-3.295l0.025-0.018c-1.093-1.035-2.449-2.044-3.806-2.713c-1.733-0.859-3.668-1.392-5.597-1.533
	c-2.042-0.107-4.003,0.106-5.821,0.689c-1.932,0.623-3.7,1.62-5.255,2.964c-1.554,1.339-2.797,2.941-3.696,4.768
	c-0.871,1.758-1.392,3.642-1.534,5.609c-0.031,0.389-0.046,0.769-0.046,1.145c0,0.709,0.05,1.414,0.148,2.109"/>
<path display="none" fill="#FFFFFF" d="M12.582,19.775c2.617,0,5.052,0.793,7.081,2.153c-0.079-3.141,0.367-6.37,1.341-8.491h-4.329
	c-2.335,0-3.28,1.527-3.776,3.665c-0.197,0.844-0.318,1.751-0.383,2.676C12.537,19.778,12.558,19.775,12.582,19.775z"/>
<path display="none" fill="#FFFFFF" d="M37.639,5.162c-0.521,0.212-12.906,7.613-12.906,7.613c-1.879,2.095-2.446,8.037-1.7,12.458
	c0.965,1.379,1.67,2.951,2.03,4.652c1.914,1.155,11.658,7.024,12.603,7.342c4.024,1.354,8.28-5.182,8.274-16.038
	C45.934,10.323,41.277,3.692,37.639,5.162z M40.895,31.127c-1.312,3.02-3.633,3.071-4.969,0.002
	c-0.796-1.826-1.337-3.914-1.632-6.08h0.697c2.146,0,3.884-1.743,3.884-3.887c0-2.146-1.738-3.885-3.884-3.885h-0.714
	c0.291-2.208,0.841-4.273,1.638-5.992c1.394-3.013,3.549-3.062,4.972-0.001C43.291,16.456,43.525,25.074,40.895,31.127z"/>
<g id="picture-add-icon_5_" display="none">
	<path display="inline" fill="#FFFFFF" d="M23.191,32.508c0,5.86-4.748,10.61-10.61,10.61c-5.86,0-10.609-4.75-10.609-10.61
		c0-5.857,4.75-10.61,10.609-10.61C18.443,21.898,23.191,26.65,23.191,32.508z M19.103,30.889h-4.592v-4.592h-3.549v4.592H6.37
		v3.547h4.592v4.594h3.549v-4.594h4.592V30.889z"/>
</g>
<path display="none" fill="#FFFFFF" d="M19.963,24.173c0,2.466,1.995,4.463,4.465,4.463c2.462,0,4.46-1.997,4.46-4.463
	c0-2.463-1.998-4.461-4.46-4.461C21.958,19.712,19.963,21.71,19.963,24.173z"/>
<path display="none" fill="#FFFFFF" d="M34.984,35.919c-1.619,1.388-3.45,2.419-5.453,3.067c-1.561,0.507-3.188,0.762-4.82,0.762
	c-0.395-0.005-0.788-0.018-1.168-0.045c-2.057-0.154-4.021-0.689-5.841-1.588c-1.884-0.93-3.542-2.221-4.941-3.838
	c-1.39-1.61-2.42-3.444-3.069-5.446C9.194,27.281,8.937,25.65,8.937,24c0-0.391,0.017-0.781,0.046-1.186
	c0.148-2.037,0.688-3.99,1.59-5.81c0.932-1.892,2.221-3.554,3.829-4.94c1.614-1.393,3.446-2.426,5.449-3.072
	c1.879-0.603,3.914-0.828,6.029-0.714c1.997,0.148,3.997,0.697,5.798,1.588c1.406,0.694,2.811,1.741,3.94,2.814l-0.025,0.017
	l-4.008,3.411L45.477,19.4L44.436,5.167l-4.049,3.445l-0.029,0.019c-1.739-1.774-3.769-3.323-5.989-4.414
	c-2.552-1.271-5.296-2.021-8.179-2.232c-2.791-0.164-5.675,0.133-8.372,1.003c-2.816,0.908-5.392,2.354-7.641,4.3
	c-2.258,1.944-4.066,4.272-5.378,6.921c-1.257,2.56-2.003,5.306-2.212,8.166c-0.044,0.544-0.062,1.083-0.062,1.626
	c0,2.304,0.356,4.581,1.06,6.763c0.905,2.817,2.351,5.385,4.292,7.637c1.942,2.252,4.274,4.059,6.924,5.373
	c2.565,1.264,5.311,2.016,8.163,2.224c0.516,0.039,1.03,0.062,1.546,0.062h0.104c2.301,0,4.566-0.361,6.738-1.063
	c2.813-0.904,5.387-2.349,7.646-4.294c2.257-1.944,4.062-4.271,5.366-6.924l-5.549-2.797C37.879,32.867,36.594,34.529,34.984,35.919
	z"/>
<path display="none" fill="#FFFFFF" d="M46.148,34.922h-6.996V9.965h-27.2V2.972H8.841v6.993H1.85v3.11h6.992v24.956h27.206v6.996
	h3.104v-6.996h6.998v-3.109H46.148z M11.953,34.922V13.076h24.095v21.846H11.953z"/>
<polygon display="none" fill="#FFFFFF" points="20.747,23.325 26.773,27.857 29.828,26.697 33.583,29.673 33.583,32.395 
	14.412,32.395 14.412,27.473 "/>
<path id="picture-add-icon_1_" display="none" opacity="0.8" fill="#FFFFFF" enable-background="new    " d="M45.678,24.001
	c0,11.974-9.701,21.677-21.68,21.677c-11.97,0-21.676-9.703-21.676-21.677c0-11.974,9.706-21.68,21.676-21.68
	C35.977,2.321,45.678,12.027,45.678,24.001z M37.323,20.691h-9.384v-9.383h-7.25v9.383h-9.382v7.247h9.382v9.386h7.25v-9.386h9.384
	V20.691z"/>
<path id="picture-box-icon_2_" display="none" fill="#FFFFFF" d="M30.461,32.876l-2.833,2.642h-7.26l-2.841-2.642H1.985H1.978
	l1.602,9.521l40.635-0.002l1.707-9.519h-0.007H30.461z M41.932,11.425H5.968L5.543,9.116h36.814L41.932,11.425z M39.461,7.425H8.541
	L8.116,5.604h31.772L39.461,7.425z M4.544,30.438l-1.439-17.2h41.599l-1.478,17.202h-3.646l0.999-14.016H7.127l1.1,14.016H4.544
	V30.438z"/>
<path display="none" fill="#FFFFFF" d="M37.87,45.42H9.789c-1.393,0-2.324-0.814-2.324-2.031V6.687c0-1.213,0.932-2.029,2.324-2.029
	H37.87c1.392,0,2.325,0.816,2.325,2.029v36.702C40.195,44.605,39.26,45.42,37.87,45.42z M10.301,42.939h27.057v-35.8L10.301,7.136
	V42.939z"/>
<path display="none" fill="#FFFFFF" d="M37.87,45.896H9.789c-1.649,0-2.803-1.03-2.803-2.508V6.687c0-1.476,1.153-2.508,2.803-2.508
	H37.87c1.649,0,2.804,1.032,2.804,2.508v36.702C40.673,44.866,39.52,45.896,37.87,45.896z M9.789,5.134
	c-1.122,0-1.848,0.61-1.848,1.553v36.702c0,0.943,0.726,1.553,1.848,1.553H37.87c1.124,0,1.847-0.608,1.847-1.553V6.687
	c0-0.942-0.723-1.553-1.847-1.553H9.789z M37.835,43.416H9.825V6.66l28.011,0.002L37.835,43.416L37.835,43.416z M10.779,42.461
	h26.103V7.616L10.779,7.613V42.461z"/>
<path display="none" fill="#FFFFFF" d="M12.601,10.563c-0.486,0-0.883-0.345-0.883-0.773V9.61c0-0.428,0.396-0.774,0.883-0.774
	h0.794c0.489,0,0.885,0.347,0.885,0.774v0.18c0,0.429-0.396,0.773-0.885,0.773H12.601z"/>
<path display="none" fill="#FFFFFF" d="M13.395,9.168c0.28,0,0.506,0.196,0.506,0.441v0.18c0,0.244-0.226,0.443-0.506,0.443h-0.794
	c-0.278,0-0.506-0.199-0.506-0.443V9.61c0-0.245,0.228-0.441,0.506-0.441L13.395,9.168 M13.395,8.505h-0.794
	c-0.696,0-1.263,0.494-1.263,1.104v0.18c0,0.611,0.566,1.104,1.263,1.104h0.794c0.698,0,1.264-0.492,1.264-1.104V9.61
	C14.659,9,14.093,8.505,13.395,8.505L13.395,8.505z"/>
<path display="none" fill="#FFFFFF" d="M17.949,10.563c-0.486,0-0.885-0.345-0.885-0.773V9.61c0-0.428,0.398-0.774,0.885-0.774
	h0.795c0.486,0,0.883,0.347,0.883,0.774v0.18c0,0.429-0.396,0.773-0.883,0.773H17.949z"/>
<path display="none" fill="#FFFFFF" d="M18.744,9.168c0.279,0,0.506,0.196,0.506,0.441v0.18c0,0.244-0.227,0.443-0.506,0.443h-0.795
	c-0.279,0-0.506-0.199-0.506-0.443V9.61c0-0.245,0.227-0.441,0.506-0.441L18.744,9.168 M18.744,8.505h-0.795
	c-0.697,0-1.262,0.494-1.262,1.104v0.18c0,0.611,0.564,1.104,1.262,1.104h0.795c0.697,0,1.264-0.492,1.264-1.104V9.61
	C20.007,9,19.441,8.505,18.744,8.505L18.744,8.505z"/>
<path display="none" fill="#FFFFFF" d="M23.295,10.563c-0.488,0-0.881-0.345-0.881-0.773V9.61c0-0.428,0.393-0.774,0.881-0.774
	h0.797c0.486,0,0.883,0.347,0.883,0.774v0.18c0,0.429-0.396,0.773-0.883,0.773H23.295z"/>
<path display="none" fill="#FFFFFF" d="M24.092,9.168c0.277,0,0.506,0.196,0.506,0.441v0.18c0,0.244-0.229,0.443-0.506,0.443h-0.797
	c-0.279,0-0.507-0.199-0.507-0.443V9.61c0-0.245,0.228-0.441,0.507-0.441L24.092,9.168 M24.092,8.505h-0.797
	c-0.695,0-1.26,0.494-1.26,1.104v0.18c0,0.611,0.564,1.104,1.26,1.104h0.797c0.697,0,1.26-0.492,1.26-1.104V9.61
	C25.352,9,24.79,8.505,24.092,8.505L24.092,8.505z"/>
<path display="none" fill="#FFFFFF" d="M28.889,10.563c-0.486,0-0.883-0.345-0.883-0.773V9.61c0-0.428,0.396-0.774,0.883-0.774
	h0.795c0.488,0,0.885,0.347,0.885,0.774v0.18c0,0.429-0.396,0.773-0.885,0.773H28.889z"/>
<path display="none" fill="#FFFFFF" d="M29.684,9.168c0.281,0,0.506,0.196,0.506,0.441v0.18c0,0.244-0.225,0.443-0.506,0.443h-0.795
	c-0.277,0-0.504-0.199-0.504-0.443V9.61c0-0.245,0.227-0.441,0.504-0.441L29.684,9.168 M29.684,8.505h-0.795
	c-0.697,0-1.26,0.494-1.26,1.104v0.18c0,0.611,0.562,1.104,1.26,1.104h0.795c0.699,0,1.262-0.492,1.262-1.104V9.61
	C30.945,9,30.383,8.505,29.684,8.505L29.684,8.505z"/>
<path display="none" fill="#FFFFFF" d="M34.238,10.563c-0.487,0-0.885-0.345-0.885-0.773V9.61c0-0.428,0.396-0.774,0.885-0.774
	h0.796c0.487,0,0.883,0.347,0.883,0.774v0.18c0,0.429-0.396,0.773-0.883,0.773H34.238z"/>
<path display="none" fill="#FFFFFF" d="M35.034,9.168c0.276,0,0.505,0.196,0.505,0.441v0.18c0,0.244-0.229,0.443-0.505,0.443h-0.796
	c-0.28,0-0.506-0.199-0.506-0.443V9.61c0-0.245,0.226-0.441,0.506-0.441L35.034,9.168 M35.034,8.505h-0.796
	c-0.7,0-1.264,0.494-1.264,1.104v0.18c0,0.611,0.562,1.104,1.264,1.104h0.796c0.694,0,1.261-0.492,1.261-1.104V9.61
	C36.294,9,35.729,8.505,35.034,8.505L35.034,8.505z"/>
<path display="none" fill="#FFFFFF" d="M24.898,9.032L23.86,8.637c0.316-0.644,0.522-1.339,0.622-2.128
	c0.243-1.838-0.259-3.115-0.915-3.381c-0.192,0.216-0.534,0.899-0.823,1.991l-1.106-0.223c0.694-2.615,1.457-2.736,1.708-2.778
	c0.086-0.014,0.2-0.023,0.335-0.002c1.478,0.304,2.246,2.113,1.93,4.505C25.498,7.51,25.268,8.299,24.898,9.032z"/>
<path display="none" fill="#FFFFFF" d="M30.367,9.032l-1.042-0.395c0.319-0.644,0.524-1.339,0.628-2.128
	c0.238-1.838-0.266-3.115-0.919-3.381c-0.194,0.216-0.532,0.899-0.82,1.991l-1.106-0.223C27.8,2.28,28.561,2.16,28.812,2.118
	c0.084-0.01,0.201-0.023,0.336-0.002c1.474,0.304,2.244,2.113,1.934,4.505C30.964,7.51,30.732,8.297,30.367,9.032z"/>
<path display="none" fill="#FFFFFF" d="M35.714,9.032l-1.042-0.395c0.314-0.642,0.523-1.337,0.627-2.128
	c0.241-1.838-0.263-3.114-0.919-3.381c-0.19,0.216-0.534,0.899-0.823,1.991l-1.103-0.223c0.688-2.614,1.453-2.736,1.703-2.778
	c0.129-0.018,0.233-0.018,0.34-0.002c1.474,0.304,2.239,2.11,1.93,4.505C36.311,7.512,36.077,8.302,35.714,9.032z"/>
<path display="none" fill="#FFFFFF" d="M19.553,9.032l-1.042-0.395c0.32-0.644,0.523-1.339,0.627-2.128
	c0.242-1.838-0.264-3.115-0.918-3.381c-0.193,0.216-0.534,0.899-0.822,1.991l-1.106-0.223c0.692-2.615,1.455-2.736,1.707-2.778
	c0.123-0.02,0.237-0.018,0.345,0.002c1.466,0.3,2.235,2.106,1.925,4.501C20.152,7.51,19.917,8.297,19.553,9.032z"/>
<path display="none" fill="#FFFFFF" d="M14.217,9.032l-1.04-0.395c0.321-0.646,0.523-1.34,0.627-2.128
	c0.241-1.838-0.263-3.115-0.917-3.381c-0.196,0.216-0.534,0.899-0.823,1.991L10.96,4.896c0.688-2.615,1.452-2.736,1.704-2.778
	C12.789,2.1,12.902,2.1,13.01,2.12c1.467,0.3,2.234,2.109,1.923,4.501C14.818,7.506,14.583,8.295,14.217,9.032z"/>
<polygon id="up_button_3_" display="none" opacity="0.8" fill="#FFFFFF" enable-background="new    " points="30.333,45.96 
	12.946,24.005 30.333,2.04 19.789,2.04 2.404,24.005 19.789,45.96 "/>
<path id="user-icon_4_" display="none" opacity="0.8" fill="#FFFFFF" enable-background="new    " d="M40.137,35.131
	c-6.291-1.451-12.146-2.722-9.31-8.068C39.457,10.788,33.113,2.088,24,2.088c-9.295,0-15.482,9.036-6.828,24.975
	c2.922,5.379-3.153,6.65-9.308,8.068c-6.289,1.45-5.805,4.766-5.805,10.78h43.88C45.939,39.896,46.425,36.581,40.137,35.131z"/>
<path id="picture-add-icon_2_" opacity="0.8" fill="#FFFFFF" d="M46.012,23.668c0,11.974-9.701,21.677-21.679,21.677
	c-11.97,0-21.676-9.703-21.676-21.677s9.706-21.68,21.676-21.68C36.311,1.988,46.012,11.694,46.012,23.668z M37.658,20.358h-9.383
	v-9.383h-7.25v9.383h-9.382v7.246h9.382v9.386h7.25v-9.386h9.383V20.358z"/>
</svg>
