<?xml version="1.0" encoding="utf-8"?>
<!-- Generator: Adobe Illustrator 15.0.0, SVG Export Plug-In . SVG Version: 6.00 Build 0)  -->
<!DOCTYPE svg PUBLIC "-//W3C//DTD SVG 1.1//EN" "http://www.w3.org/Graphics/SVG/1.1/DTD/svg11.dtd">
<svg version="1.1" id="Layer_1" xmlns="http://www.w3.org/2000/svg" xmlns:xlink="http://www.w3.org/1999/xlink" x="0px" y="0px"
	 width="48px" height="48px" viewBox="0 0 48 48" enable-background="new 0 0 48 48" xml:space="preserve">
<rect display="none" fill="#E6E7E8" width="48" height="48"/>
<path id="picture-box-icon_2_" display="none" fill="#FFFFFF" d="M30.461,32.876l-2.833,2.642h-7.26l-2.841-2.642H1.985H1.978
	l1.602,9.521l40.635-0.002l1.707-9.519h-0.007H30.461z M41.932,11.425H5.968L5.543,9.116h36.814L41.932,11.425z M39.461,7.425H8.541
	L8.116,5.604h31.772L39.461,7.425z M4.544,30.438l-1.439-17.2h41.599l-1.478,17.202h-3.646l0.999-14.016H7.127l1.1,14.016H4.544
	V30.438z"/>
<path fill="#FFFFFF" d="M38.04,45.42H9.959c-1.393,0-2.324-0.814-2.324-2.031V6.687c0-1.213,0.932-2.029,2.324-2.029H38.04
	c1.392,0,2.325,0.816,2.325,2.029v36.702C40.365,44.605,39.43,45.42,38.04,45.42z M10.471,42.939h27.057v-35.8L10.471,7.136V42.939z
	"/>
<path fill="#FFFFFF" d="M38.04,45.896H9.959c-1.649,0-2.803-1.03-2.803-2.508V6.687c0-1.476,1.153-2.508,2.803-2.508H38.04
	c1.649,0,2.804,1.032,2.804,2.508v36.702C40.843,44.866,39.689,45.896,38.04,45.896z M9.959,5.134c-1.122,0-1.848,0.61-1.848,1.553
	v36.702c0,0.943,0.726,1.553,1.848,1.553H38.04c1.124,0,1.847-0.608,1.847-1.553V6.687c0-0.942-0.723-1.553-1.847-1.553H9.959z
	 M38.005,43.416H9.995V6.66l28.011,0.002L38.005,43.416L38.005,43.416z M10.949,42.461h26.103V7.616L10.949,7.613V42.461z"/>
<path fill="#FFFFFF" d="M12.771,10.563c-0.486,0-0.883-0.345-0.883-0.773V9.61c0-0.428,0.396-0.774,0.883-0.774h0.794
	c0.489,0,0.885,0.347,0.885,0.774v0.18c0,0.429-0.396,0.773-0.885,0.773H12.771z"/>
<path fill="#FFFFFF" d="M13.565,9.168c0.28,0,0.506,0.196,0.506,0.441v0.18c0,0.244-0.226,0.443-0.506,0.443h-0.794
	c-0.278,0-0.506-0.199-0.506-0.443V9.61c0-0.245,0.228-0.441,0.506-0.441L13.565,9.168 M13.565,8.505h-0.794
	c-0.696,0-1.263,0.494-1.263,1.104v0.18c0,0.611,0.566,1.104,1.263,1.104h0.794c0.698,0,1.264-0.492,1.264-1.104V9.61
	C14.829,9,14.263,8.505,13.565,8.505L13.565,8.505z"/>
<path fill="#FFFFFF" d="M18.119,10.563c-0.486,0-0.885-0.345-0.885-0.773V9.61c0-0.428,0.398-0.774,0.885-0.774h0.795
	c0.486,0,0.883,0.347,0.883,0.774v0.18c0,0.429-0.396,0.773-0.883,0.773H18.119z"/>
<path fill="#FFFFFF" d="M18.914,9.168c0.279,0,0.506,0.196,0.506,0.441v0.18c0,0.244-0.227,0.443-0.506,0.443h-0.795
	c-0.279,0-0.506-0.199-0.506-0.443V9.61c0-0.245,0.227-0.441,0.506-0.441L18.914,9.168 M18.914,8.505h-0.795
	c-0.697,0-1.262,0.494-1.262,1.104v0.18c0,0.611,0.564,1.104,1.262,1.104h0.795c0.697,0,1.264-0.492,1.264-1.104V9.61
	C20.177,9,19.611,8.505,18.914,8.505L18.914,8.505z"/>
<path fill="#FFFFFF" d="M23.465,10.563c-0.488,0-0.881-0.345-0.881-0.773V9.61c0-0.428,0.393-0.774,0.881-0.774h0.797
	c0.486,0,0.883,0.347,0.883,0.774v0.18c0,0.429-0.396,0.773-0.883,0.773H23.465z"/>
<path fill="#FFFFFF" d="M24.262,9.168c0.277,0,0.506,0.196,0.506,0.441v0.18c0,0.244-0.229,0.443-0.506,0.443h-0.797
	c-0.279,0-0.507-0.199-0.507-0.443V9.61c0-0.245,0.228-0.441,0.507-0.441L24.262,9.168 M24.262,8.505h-0.797
	c-0.695,0-1.26,0.494-1.26,1.104v0.18c0,0.611,0.564,1.104,1.26,1.104h0.797c0.697,0,1.26-0.492,1.26-1.104V9.61
	C25.521,9,24.96,8.505,24.262,8.505L24.262,8.505z"/>
<path fill="#FFFFFF" d="M29.059,10.563c-0.486,0-0.883-0.345-0.883-0.773V9.61c0-0.428,0.396-0.774,0.883-0.774h0.795
	c0.488,0,0.885,0.347,0.885,0.774v0.18c0,0.429-0.396,0.773-0.885,0.773H29.059z"/>
<path fill="#FFFFFF" d="M29.854,9.168c0.281,0,0.506,0.196,0.506,0.441v0.18c0,0.244-0.225,0.443-0.506,0.443h-0.795
	c-0.277,0-0.504-0.199-0.504-0.443V9.61c0-0.245,0.227-0.441,0.504-0.441L29.854,9.168 M29.854,8.505h-0.795
	c-0.697,0-1.26,0.494-1.26,1.104v0.18c0,0.611,0.562,1.104,1.26,1.104h0.795c0.699,0,1.262-0.492,1.262-1.104V9.61
	C31.115,9,30.553,8.505,29.854,8.505L29.854,8.505z"/>
<path fill="#FFFFFF" d="M34.408,10.563c-0.487,0-0.885-0.345-0.885-0.773V9.61c0-0.428,0.396-0.774,0.885-0.774h0.796
	c0.487,0,0.883,0.347,0.883,0.774v0.18c0,0.429-0.396,0.773-0.883,0.773H34.408z"/>
<path fill="#FFFFFF" d="M35.204,9.168c0.276,0,0.505,0.196,0.505,0.441v0.18c0,0.244-0.229,0.443-0.505,0.443h-0.796
	c-0.28,0-0.506-0.199-0.506-0.443V9.61c0-0.245,0.226-0.441,0.506-0.441L35.204,9.168 M35.204,8.505h-0.796
	c-0.7,0-1.264,0.494-1.264,1.104v0.18c0,0.611,0.562,1.104,1.264,1.104h0.796c0.694,0,1.261-0.492,1.261-1.104V9.61
	C36.464,9,35.898,8.505,35.204,8.505L35.204,8.505z"/>
<path fill="#FFFFFF" d="M25.068,9.032l-1.039-0.395c0.316-0.644,0.522-1.339,0.622-2.128c0.243-1.838-0.259-3.115-0.915-3.381
	c-0.191,0.216-0.533,0.899-0.822,1.991l-1.106-0.223c0.694-2.615,1.457-2.736,1.708-2.778c0.086-0.014,0.2-0.023,0.334-0.002
	c1.479,0.304,2.246,2.113,1.931,4.505C25.668,7.51,25.438,8.299,25.068,9.032z"/>
<path fill="#FFFFFF" d="M30.537,9.032l-1.042-0.395c0.319-0.644,0.524-1.339,0.628-2.128c0.238-1.838-0.266-3.115-0.919-3.381
	c-0.194,0.216-0.532,0.899-0.82,1.991l-1.106-0.223C27.97,2.28,28.73,2.16,28.982,2.118c0.084-0.01,0.201-0.023,0.336-0.002
	c1.474,0.304,2.244,2.113,1.934,4.505C31.134,7.51,30.902,8.297,30.537,9.032z"/>
<path fill="#FFFFFF" d="M35.884,9.032l-1.042-0.395c0.314-0.642,0.523-1.337,0.627-2.128c0.241-1.838-0.263-3.114-0.919-3.381
	c-0.19,0.216-0.534,0.899-0.823,1.991l-1.103-0.223c0.688-2.614,1.453-2.736,1.703-2.778c0.129-0.018,0.233-0.018,0.34-0.002
	c1.474,0.304,2.239,2.11,1.93,4.505C36.48,7.512,36.247,8.302,35.884,9.032z"/>
<path fill="#FFFFFF" d="M19.723,9.032l-1.042-0.395c0.32-0.644,0.523-1.339,0.627-2.128c0.242-1.838-0.264-3.115-0.918-3.381
	c-0.193,0.216-0.534,0.899-0.822,1.991l-1.106-0.223c0.692-2.615,1.455-2.736,1.707-2.778c0.123-0.02,0.237-0.018,0.345,0.002
	c1.466,0.3,2.235,2.106,1.925,4.501C20.322,7.51,20.087,8.297,19.723,9.032z"/>
<path fill="#FFFFFF" d="M14.387,9.032l-1.04-0.395c0.321-0.646,0.523-1.34,0.627-2.128c0.241-1.838-0.263-3.115-0.917-3.381
	c-0.196,0.216-0.534,0.899-0.823,1.991L11.13,4.896c0.688-2.615,1.452-2.736,1.704-2.778C12.959,2.1,13.072,2.1,13.18,2.12
	c1.467,0.3,2.234,2.109,1.923,4.501C14.988,7.506,14.753,8.295,14.387,9.032z"/>
<path display="none" opacity="0.8" fill="#FFFFFF" enable-background="new    " d="M35.279,6.533
	c0.478-0.658,1.25-1.046,2.063-1.046c0.546,0,1.065,0.167,1.509,0.492c0.556,0.398,0.914,0.998,1.017,1.675
	c0.106,0.668-0.062,1.348-0.461,1.9c-0.479,0.652-1.259,1.04-2.076,1.04c-0.544,0-1.058-0.169-1.503-0.494
	C34.693,9.271,34.445,7.671,35.279,6.533z M23.923,24.75c-1.104,0-2.001-0.896-2.001-2c0-1.099,0.897-1.998,2.001-1.998
	c1.097,0,1.994,0.899,1.994,1.998C25.917,23.854,25.02,24.75,23.923,24.75z M7.975,7.654c0.108-0.677,0.472-1.277,1.016-1.675
	c0.443-0.325,0.962-0.492,1.508-0.492c0.811,0,1.59,0.389,2.068,1.046c0.397,0.549,0.565,1.223,0.459,1.899
	c-0.096,0.671-0.459,1.264-1.018,1.668c-0.441,0.324-0.961,0.494-1.503,0.494c-0.812,0-1.583-0.388-2.06-1.04
	C8.035,9.001,7.878,8.322,7.975,7.654z M5.733,11.538c0.642,0.889,1.657,1.644,2.369,2.005c0.369,0.184,0.811,0.433,1.364,0.751
	c0.496,0.277,1.084,0.615,1.805,1.002c3.77,2.055,6.221,4.14,6.237,4.158c0.012,0.018,1.33,1.163,2.473,2.438
	c-3.059,7.119-8.037,18.78-8.319,19.904c-0.424,1.675,0.762,3.274,0.814,3.337l0.551,0.738l0.475-0.785l10.421-17.164l10.411,17.164
	l0.482,0.785l0.547-0.738c0.051-0.062,1.234-1.662,0.816-3.337c-0.277-1.119-5.263-12.785-8.318-19.904
	c1.145-1.275,2.462-2.421,2.471-2.43c0.025-0.026,2.471-2.111,6.248-4.167c0.717-0.388,1.309-0.725,1.801-1.012
	c0.549-0.309,0.989-0.558,1.357-0.742c0.713-0.361,1.727-1.116,2.38-2.005c1.922-2.629,1.353-6.348-1.275-8.273
	c-1.021-0.747-2.218-1.141-3.479-1.141c-1.87,0-3.659,0.899-4.773,2.396c-0.486,0.646-0.83,1.382-0.986,2.076
	c-0.201,0.562-0.271,0.989-0.34,1.441c-0.123,0.67-0.244,1.429-0.856,2.95c-1.187,2.968-3.39,5.445-3.438,5.486
	c-0.602,0.72-1.652,1.426-3.047,2.044c-1.397-0.618-2.455-1.325-3.072-2.059c-0.017-0.027-2.216-2.499-3.414-5.472
	c-0.605-1.521-0.74-2.279-0.85-2.95c-0.072-0.452-0.15-0.879-0.327-1.382C16.073,5.9,15.731,5.164,15.256,4.5
	c-1.126-1.49-2.9-2.378-4.769-2.378c-1.266,0-2.469,0.394-3.485,1.141C4.372,5.195,3.794,8.909,5.733,11.538z"/>
<path display="none" fill="#FFFFFF" d="M23.921,45.404c-11.935,0-21.641-9.707-21.641-21.64s9.706-21.64,21.641-21.64
	c11.933,0,21.642,9.708,21.642,21.64C45.562,35.697,35.854,45.404,23.921,45.404z M23.921,6.488c-9.526,0-17.278,7.75-17.278,17.276
	c0,9.526,7.752,17.277,17.278,17.277c9.524,0,17.278-7.75,17.278-17.277C41.199,14.239,33.447,6.488,23.921,6.488z"/>
<path display="none" fill="#FFFFFF" d="M29.07,35.254h-9.906v-1.145c0.271-0.021,0.539-0.047,0.8-0.078
	c0.26-0.031,0.484-0.083,0.673-0.156c0.334-0.125,0.567-0.307,0.703-0.541c0.137-0.236,0.207-0.547,0.207-0.934V23.28
	c0-0.365-0.085-0.686-0.252-0.964c-0.166-0.275-0.376-0.498-0.625-0.665c-0.187-0.125-0.473-0.246-0.855-0.361
	c-0.381-0.114-0.729-0.188-1.042-0.219v-1.145l7.68-0.406l0.234,0.235v12.443c0,0.366,0.078,0.676,0.234,0.933
	c0.157,0.256,0.381,0.446,0.674,0.571c0.209,0.095,0.439,0.178,0.689,0.251c0.249,0.074,0.512,0.125,0.785,0.156V35.254z
	 M26.781,13.877c0,0.795-0.305,1.472-0.918,2.03c-0.61,0.559-1.334,0.839-2.17,0.839c-0.846,0-1.576-0.28-2.187-0.839
	c-0.611-0.558-0.917-1.235-0.917-2.03c0-0.793,0.306-1.473,0.917-2.037c0.611-0.564,1.34-0.847,2.187-0.847
	c0.848,0,1.573,0.283,2.178,0.847C26.479,12.404,26.781,13.084,26.781,13.877z"/>
<path display="none" fill="#FFFFFF" d="M44.932,22.375c0.069,0.697,0.104,1.397,0.104,2.097c0,0.52-0.014,1.034-0.055,1.557
	c-0.201,2.732-0.916,5.354-2.119,7.8c-1.256,2.534-2.98,4.759-5.135,6.618c-2.15,1.857-4.61,3.238-7.301,4.104
	c-2.58,0.834-5.334,1.117-8.005,0.962c-2.75-0.205-5.376-0.918-7.816-2.133c-2.121-1.044-4.059-2.523-5.723-4.221l-0.023,0.018
	l-3.874,3.293L3.99,28.866l13.277,3.149l-3.832,3.26l-0.026,0.016c1.084,1.025,2.425,2.025,3.766,2.688
	c1.722,0.852,3.633,1.379,5.541,1.519c2.024,0.106,3.966-0.104,5.763-0.683c1.916-0.616,3.668-1.604,5.205-2.935
	c1.539-1.327,2.771-2.916,3.664-4.721c0.858-1.741,1.375-3.607,1.516-5.552c0.031-0.385,0.045-0.76,0.045-1.134
	c0-0.704-0.047-1.4-0.146-2.089"/>
<path display="none" fill="#FFFFFF" d="M2.807,25.152c-0.07-0.693-0.106-1.396-0.106-2.096c0-0.521,0.018-1.036,0.055-1.556
	c0.203-2.733,0.918-5.356,2.119-7.802c1.254-2.53,2.98-4.758,5.137-6.618c2.151-1.855,4.61-3.238,7.305-4.108
	c2.574-0.832,5.331-1.113,7.998-0.958c2.756,0.203,5.377,0.918,7.819,2.133c2.122,1.044,4.062,2.523,5.724,4.22L38.88,8.35
	l3.872-3.292l0.993,13.603l-13.274-3.145l3.831-3.262l0.025-0.018c-1.081-1.024-2.423-2.024-3.769-2.687
	c-1.715-0.851-3.631-1.378-5.541-1.518c-2.021-0.106-3.962,0.104-5.763,0.682c-1.913,0.616-3.664,1.604-5.204,2.935
	c-1.539,1.326-2.77,2.912-3.66,4.72c-0.862,1.741-1.378,3.606-1.519,5.554c-0.03,0.385-0.046,0.761-0.046,1.134
	c0,0.702,0.049,1.4,0.146,2.088"/>
<path display="none" fill="#FFFFFF" d="M12.663,19.66c2.586,0,4.992,0.784,6.997,2.127c-0.078-3.104,0.362-6.294,1.325-8.39h-4.278
	c-2.307,0-3.24,1.509-3.73,3.621c-0.194,0.833-0.314,1.73-0.378,2.644C12.619,19.662,12.64,19.66,12.663,19.66z"/>
<path display="none" fill="#FFFFFF" d="M37.421,5.22c-0.517,0.209-12.753,7.522-12.753,7.522c-1.856,2.07-2.417,7.941-1.68,12.31
	c0.954,1.362,1.649,2.914,2.006,4.597c1.893,1.142,11.52,6.94,12.453,7.254c3.976,1.338,8.182-5.12,8.176-15.847
	C45.619,10.32,41.018,3.768,37.421,5.22z M40.639,30.876c-1.296,2.983-3.591,3.035-4.91,0.002c-0.785-1.804-1.32-3.867-1.612-6.008
	h0.688c2.12,0,3.838-1.721,3.838-3.841c0-2.121-1.718-3.838-3.838-3.838H34.1c0.289-2.182,0.83-4.222,1.618-5.92
	c1.378-2.977,3.507-3.025,4.912-0.001C43.006,16.38,43.238,24.895,40.639,30.876z"/>
<g id="picture-add-icon_1_" display="none">
	<path display="inline" fill="#FFFFFF" d="M23.146,32.241c0,5.79-4.691,10.483-10.483,10.483c-5.79,0-10.483-4.693-10.483-10.483
		c0-5.788,4.693-10.484,10.483-10.484C18.455,21.757,23.146,26.453,23.146,32.241z M19.106,30.641h-4.538v-4.537h-3.507v4.537H6.525
		v3.504h4.537v4.541h3.507v-4.541h4.538L19.106,30.641L19.106,30.641z"/>
</g>
<path display="none" fill="#FFFFFF" d="M20.002,23.933c0,2.394,1.938,4.333,4.336,4.333c2.393,0,4.331-1.938,4.331-4.333
	c0-2.392-1.938-4.331-4.331-4.331C21.939,19.602,20.002,21.542,20.002,23.933z"/>
<path display="none" fill="#FFFFFF" d="M34.586,35.337c-1.572,1.349-3.352,2.349-5.295,2.978c-1.514,0.494-3.096,0.74-4.68,0.74
	c-0.383-0.006-0.764-0.018-1.133-0.044c-1.998-0.149-3.904-0.67-5.672-1.542c-1.828-0.902-3.439-2.156-4.797-3.725
	c-1.35-1.564-2.35-3.346-2.98-5.289c-0.484-1.505-0.733-3.087-0.733-4.689c0-0.38,0.016-0.759,0.044-1.151
	c0.145-1.978,0.668-3.874,1.544-5.641c0.904-1.836,2.157-3.45,3.718-4.796c1.567-1.352,3.346-2.355,5.291-2.982
	c1.824-0.585,3.799-0.804,5.854-0.694c1.938,0.144,3.88,0.677,5.629,1.542c1.365,0.674,2.729,1.69,3.826,2.731l-0.024,0.017
	l-3.891,3.312l13.486,3.197L43.762,5.48L39.83,8.825l-0.028,0.018c-1.688-1.722-3.657-3.227-5.815-4.285
	c-2.478-1.235-5.141-1.962-7.938-2.167c-2.709-0.159-5.511,0.129-8.128,0.974c-2.734,0.882-5.235,2.287-7.418,4.175
	c-2.192,1.887-3.948,4.148-5.221,6.72c-1.221,2.485-1.945,5.151-2.148,7.927c-0.042,0.528-0.06,1.051-0.06,1.579
	c0,2.235,0.346,4.447,1.029,6.565c0.878,2.735,2.283,5.228,4.167,7.414c1.885,2.188,4.149,3.94,6.723,5.216
	c2.491,1.227,5.156,1.957,7.925,2.16c0.5,0.038,1,0.059,1.501,0.059h0.102c2.232,0,4.434-0.35,6.541-1.031
	c2.731-0.879,5.229-2.28,7.424-4.17c2.191-1.887,3.941-4.147,5.209-6.723l-5.387-2.715C37.396,32.374,36.148,33.986,34.586,35.337z"
	/>
<path display="none" fill="#FFFFFF" d="M45.395,34.07h-6.819V9.746H12.064V2.93H9.031v6.816H2.217v3.031h6.814v24.325h26.518v6.818
	h3.026v-6.818h6.819V34.07z M12.064,34.07V12.777h23.485V34.07H12.064L12.064,34.07z"/>
<polygon display="none" fill="#FFFFFF" points="20.636,22.768 26.509,27.186 29.486,26.055 33.146,28.955 33.146,31.607 
	14.461,31.607 14.461,26.811 "/>
</svg>
