<?xml version="1.0" encoding="utf-8"?>
<!-- Generator: Adobe Illustrator 15.0.0, SVG Export Plug-In . SVG Version: 6.00 Build 0)  -->
<!DOCTYPE svg PUBLIC "-//W3C//DTD SVG 1.1//EN" "http://www.w3.org/Graphics/SVG/1.1/DTD/svg11.dtd" [
	<!ENTITY ns_extend "http://ns.adobe.com/Extensibility/1.0/">
	<!ENTITY ns_ai "http://ns.adobe.com/AdobeIllustrator/10.0/">
	<!ENTITY ns_graphs "http://ns.adobe.com/Graphs/1.0/">
	<!ENTITY ns_vars "http://ns.adobe.com/Variables/1.0/">
	<!ENTITY ns_imrep "http://ns.adobe.com/ImageReplacement/1.0/">
	<!ENTITY ns_sfw "http://ns.adobe.com/SaveForWeb/1.0/">
	<!ENTITY ns_custom "http://ns.adobe.com/GenericCustomNamespace/1.0/">
	<!ENTITY ns_adobe_xpath "http://ns.adobe.com/XPath/1.0/">
]>
<svg version="1.1" id="Layer_1" xmlns:x="&ns_extend;" xmlns:i="&ns_ai;" xmlns:graph="&ns_graphs;"
	 xmlns="http://www.w3.org/2000/svg" xmlns:xlink="http://www.w3.org/1999/xlink" x="0px" y="0px" width="48px" height="48px"
	 viewBox="0 0 48 48" enable-background="new 0 0 48 48" xml:space="preserve">
<metadata>
	<sfw  xmlns="&ns_sfw;">
		<slices></slices>
		<sliceSourceBounds  x="373.833" y="295.027" width="43.332" height="22.946" bottomLeftOrigin="true"></sliceSourceBounds>
	</sfw>
</metadata>
<path opacity="0.8" fill="#FFFFFF" enable-background="new    " d="M41.836,13.711l-8.023,5.683h-2.609v-4.86
	c-0.002-1.104-0.906-2.007-2.01-2.007H4.339c-1.105,0-2.006,0.903-2.006,2.006v18.933c0,1.104,0.901,2.007,2.006,2.007h24.854
	c1.104,0,2.008-0.903,2.008-2.007v-4.859h2.609l8.025,5.684h3.83V13.711H41.836z M12.786,28.481c0,1.104-0.057,2.135-0.131,2.293
	c-0.069,0.158-1.242,0.285-2.221,0.285s-1.906-0.059-2.064-0.127c-0.16-0.07-0.287-1.348-0.287-2.451v-8.964
	c0-1.104,0.058-2.136,0.127-2.293c0.073-0.157,1.245-0.286,2.225-0.286c0.979,0,1.906,0.058,2.065,0.129
	c0.155,0.071,0.286,1.347,0.286,2.45V28.481z"/>
</svg>
