<?xml version="1.0" encoding="utf-8"?>
<!-- Generator: Adobe Illustrator 15.0.0, SVG Export Plug-In  -->
<!DOCTYPE svg PUBLIC "-//W3C//DTD SVG 1.1//EN" "http://www.w3.org/Graphics/SVG/1.1/DTD/svg11.dtd" [
	<!ENTITY ns_flows "http://ns.adobe.com/Flows/1.0/">
]>
<svg version="1.1"
	 xmlns="http://www.w3.org/2000/svg" xmlns:xlink="http://www.w3.org/1999/xlink" xmlns:a="http://ns.adobe.com/AdobeSVGViewerExtensions/3.0/"
	 x="0px" y="0px" width="48px" height="48px" viewBox="-3.669 -2.653 48 48"
	 overflow="visible" enable-background="new -3.669 -2.653 48 48" xml:space="preserve">
<defs>
</defs>
<path fill="#FFFFFF" d="M33.99,29.382c-2.018,0-3.814,0.896-5.041,2.307L13.08,23.15c0.163-0.576,0.257-1.176,0.257-1.806
	c0-0.623-0.094-1.227-0.257-1.796l15.867-8.541c1.229,1.412,3.028,2.311,5.043,2.311c3.672,0,6.668-2.986,6.668-6.651
	C40.658,2.992,37.668,0,33.99,0c-3.684,0-6.672,2.991-6.672,6.667c0,0.626,0.086,1.231,0.258,1.804L11.7,16.996
	c-1.223-1.405-3.024-2.297-5.034-2.297C2.99,14.699,0,17.67,0,21.344c0,3.683,2.988,6.649,6.666,6.649
	c2.012,0,3.812-0.891,5.038-2.295l15.874,8.531c-0.164,0.572-0.257,1.17-0.257,1.793c0,3.678,2.984,6.672,6.671,6.672
	c3.676,0,6.67-2.988,6.67-6.672C40.658,32.367,37.668,29.382,33.99,29.382z"/>
</svg>
