<?xml version="1.0" encoding="utf-8"?>
<!-- Generator: Adobe Illustrator 15.0.0, SVG Export Plug-In . SVG Version: 6.00 Build 0)  -->
<!DOCTYPE svg PUBLIC "-//W3C//DTD SVG 1.1//EN" "http://www.w3.org/Graphics/SVG/1.1/DTD/svg11.dtd" [
	<!ENTITY ns_extend "http://ns.adobe.com/Extensibility/1.0/">
	<!ENTITY ns_ai "http://ns.adobe.com/AdobeIllustrator/10.0/">
	<!ENTITY ns_graphs "http://ns.adobe.com/Graphs/1.0/">
	<!ENTITY ns_vars "http://ns.adobe.com/Variables/1.0/">
	<!ENTITY ns_imrep "http://ns.adobe.com/ImageReplacement/1.0/">
	<!ENTITY ns_sfw "http://ns.adobe.com/SaveForWeb/1.0/">
	<!ENTITY ns_custom "http://ns.adobe.com/GenericCustomNamespace/1.0/">
	<!ENTITY ns_adobe_xpath "http://ns.adobe.com/XPath/1.0/">
]>
<svg version="1.1" id="Layer_1" xmlns:x="&ns_extend;" xmlns:i="&ns_ai;" xmlns:graph="&ns_graphs;"
	 xmlns="http://www.w3.org/2000/svg" xmlns:xlink="http://www.w3.org/1999/xlink" x="0px" y="0px" width="48px" height="48px"
	 viewBox="0 0 48 48" enable-background="new 0 0 48 48" xml:space="preserve">
<metadata>
	<sfw  xmlns="&ns_sfw;">
		<slices></slices>
		<sliceSourceBounds  x="281.5" y="372.5" width="48" height="48" bottomLeftOrigin="true"></sliceSourceBounds>
	</sfw>
</metadata>
<rect display="none" fill="#E6E7E8" width="48" height="48"/>
<path id="picture-box-icon_2_" display="none" fill="#FFFFFF" d="M30.461,32.876l-2.833,2.642h-7.26l-2.841-2.642H1.985H1.978
	l1.602,9.521l40.635-0.002l1.707-9.519h-0.007H30.461z M41.932,11.425H5.968L5.543,9.116h36.814L41.932,11.425z M39.461,7.425H8.541
	L8.116,5.604h31.772L39.461,7.425z M4.544,30.438l-1.439-17.2h41.599l-1.478,17.202H39.58l0.999-14.016H7.127l1.1,14.016H4.544
	V30.438z"/>
<path display="none" opacity="0.8" fill="#FFFFFF" enable-background="new    " d="M35.279,6.533
	c0.478-0.658,1.25-1.046,2.062-1.046c0.547,0,1.065,0.167,1.51,0.492c0.556,0.398,0.914,0.998,1.017,1.675
	c0.106,0.668-0.062,1.348-0.461,1.9c-0.479,0.652-1.259,1.04-2.076,1.04c-0.544,0-1.058-0.169-1.503-0.494
	C34.693,9.271,34.445,7.671,35.279,6.533z M23.923,24.75c-1.104,0-2.001-0.896-2.001-2c0-1.099,0.897-1.998,2.001-1.998
	c1.097,0,1.994,0.899,1.994,1.998C25.917,23.854,25.02,24.75,23.923,24.75z M7.975,7.654c0.108-0.677,0.472-1.277,1.016-1.675
	c0.443-0.325,0.962-0.492,1.508-0.492c0.811,0,1.59,0.389,2.068,1.046c0.397,0.549,0.565,1.223,0.459,1.899
	c-0.096,0.671-0.459,1.264-1.018,1.668c-0.441,0.324-0.961,0.494-1.503,0.494c-0.812,0-1.583-0.388-2.06-1.04
	C8.035,9.001,7.878,8.322,7.975,7.654z M5.733,11.538c0.642,0.889,1.657,1.644,2.369,2.005c0.369,0.184,0.811,0.433,1.364,0.751
	c0.496,0.277,1.084,0.615,1.805,1.002c3.77,2.055,6.221,4.14,6.237,4.158c0.012,0.018,1.33,1.163,2.473,2.438
	c-3.059,7.119-8.037,18.78-8.319,19.904c-0.424,1.675,0.762,3.274,0.814,3.337l0.551,0.738l0.475-0.785l10.421-17.164l10.411,17.164
	l0.482,0.785l0.547-0.738c0.051-0.062,1.234-1.662,0.816-3.337c-0.277-1.119-5.264-12.785-8.318-19.904
	c1.145-1.275,2.462-2.421,2.471-2.43c0.025-0.026,2.471-2.111,6.248-4.167c0.717-0.388,1.309-0.725,1.801-1.012
	c0.549-0.309,0.989-0.558,1.357-0.742c0.713-0.361,1.727-1.116,2.38-2.005c1.922-2.629,1.353-6.348-1.275-8.273
	c-1.021-0.747-2.218-1.141-3.479-1.141c-1.869,0-3.658,0.899-4.772,2.396c-0.485,0.646-0.829,1.382-0.985,2.076
	c-0.201,0.562-0.271,0.989-0.34,1.441c-0.123,0.67-0.244,1.429-0.856,2.95c-1.187,2.968-3.39,5.445-3.438,5.486
	c-0.602,0.72-1.652,1.426-3.047,2.044c-1.397-0.618-2.455-1.325-3.072-2.059c-0.017-0.027-2.216-2.499-3.414-5.472
	c-0.605-1.521-0.74-2.279-0.85-2.95c-0.072-0.452-0.15-0.879-0.327-1.382C16.073,5.9,15.731,5.164,15.256,4.5
	c-1.126-1.49-2.9-2.378-4.769-2.378c-1.266,0-2.469,0.394-3.485,1.141C4.372,5.195,3.794,8.909,5.733,11.538z"/>
<path display="none" fill="#FFFFFF" d="M23.921,45.404c-11.935,0-21.641-9.707-21.641-21.64s9.706-21.64,21.641-21.64
	c11.933,0,21.642,9.708,21.642,21.64C45.562,35.697,35.854,45.404,23.921,45.404z M23.921,6.488c-9.526,0-17.278,7.75-17.278,17.276
	c0,9.526,7.752,17.277,17.278,17.277c9.524,0,17.278-7.75,17.278-17.277C41.199,14.239,33.447,6.488,23.921,6.488z"/>
<path display="none" fill="#FFFFFF" d="M29.07,35.254h-9.906v-1.145c0.271-0.021,0.539-0.047,0.8-0.078
	c0.26-0.031,0.484-0.083,0.673-0.156c0.334-0.125,0.567-0.307,0.703-0.541c0.137-0.236,0.207-0.547,0.207-0.934v-9.12
	c0-0.365-0.085-0.687-0.252-0.964c-0.166-0.275-0.376-0.498-0.625-0.665c-0.187-0.125-0.473-0.246-0.855-0.361
	c-0.381-0.114-0.729-0.188-1.042-0.219v-1.145l7.68-0.406l0.234,0.235v12.443c0,0.366,0.078,0.676,0.233,0.933
	c0.157,0.256,0.381,0.446,0.675,0.571c0.209,0.095,0.438,0.178,0.688,0.251c0.249,0.074,0.512,0.125,0.784,0.156v1.145H29.07z
	 M26.781,13.877c0,0.795-0.305,1.472-0.918,2.03c-0.61,0.559-1.334,0.839-2.17,0.839c-0.846,0-1.576-0.28-2.187-0.839
	c-0.611-0.558-0.917-1.235-0.917-2.03c0-0.793,0.306-1.473,0.917-2.037c0.611-0.564,1.34-0.847,2.187-0.847
	c0.848,0,1.573,0.283,2.178,0.847C26.479,12.404,26.781,13.084,26.781,13.877z"/>
<path display="none" fill="#FFFFFF" d="M44.932,22.375c0.069,0.697,0.104,1.397,0.104,2.097c0,0.52-0.015,1.034-0.056,1.557
	c-0.201,2.731-0.916,5.354-2.119,7.8c-1.256,2.534-2.979,4.759-5.135,6.618c-2.149,1.857-4.609,3.238-7.301,4.104
	c-2.58,0.834-5.334,1.117-8.005,0.963c-2.75-0.205-5.376-0.919-7.816-2.134c-2.121-1.044-4.059-2.522-5.723-4.221l-0.023,0.018
	L4.985,42.47L3.99,28.866l13.277,3.149l-3.832,3.26l-0.026,0.016c1.084,1.025,2.425,2.025,3.766,2.688
	c1.722,0.853,3.633,1.379,5.541,1.52c2.024,0.105,3.966-0.104,5.763-0.684c1.916-0.615,3.668-1.604,5.205-2.935
	c1.539-1.327,2.771-2.916,3.664-4.721c0.858-1.741,1.375-3.607,1.516-5.552c0.031-0.385,0.046-0.76,0.046-1.134
	c0-0.704-0.048-1.4-0.146-2.089"/>
<path display="none" fill="#FFFFFF" d="M2.807,25.152c-0.07-0.693-0.106-1.396-0.106-2.096c0-0.521,0.018-1.036,0.055-1.556
	c0.203-2.733,0.918-5.356,2.119-7.802c1.254-2.53,2.98-4.758,5.137-6.618c2.151-1.855,4.61-3.238,7.305-4.108
	c2.574-0.832,5.331-1.113,7.998-0.958c2.756,0.203,5.377,0.918,7.819,2.133c2.122,1.044,4.062,2.523,5.724,4.22L38.88,8.35
	l3.872-3.292l0.993,13.603l-13.274-3.145l3.831-3.262l0.025-0.018c-1.081-1.024-2.423-2.024-3.769-2.687
	c-1.716-0.851-3.632-1.378-5.541-1.518c-2.021-0.106-3.962,0.104-5.764,0.682c-1.913,0.616-3.664,1.604-5.204,2.935
	c-1.539,1.326-2.77,2.912-3.66,4.72c-0.862,1.741-1.378,3.606-1.519,5.554c-0.03,0.385-0.046,0.761-0.046,1.134
	c0,0.702,0.049,1.4,0.146,2.088"/>
<path display="none" fill="#FFFFFF" d="M12.663,19.66c2.586,0,4.992,0.784,6.997,2.127c-0.078-3.104,0.362-6.294,1.325-8.39h-4.278
	c-2.307,0-3.24,1.509-3.73,3.621c-0.194,0.833-0.314,1.73-0.378,2.644C12.619,19.662,12.64,19.66,12.663,19.66z"/>
<path display="none" fill="#FFFFFF" d="M37.421,5.22c-0.517,0.209-12.753,7.522-12.753,7.522c-1.856,2.07-2.417,7.941-1.68,12.31
	c0.954,1.362,1.649,2.914,2.006,4.597c1.893,1.143,11.52,6.94,12.453,7.254c3.976,1.339,8.182-5.119,8.176-15.846
	C45.619,10.32,41.018,3.768,37.421,5.22z M40.639,30.876c-1.296,2.983-3.591,3.035-4.91,0.002c-0.785-1.804-1.319-3.867-1.611-6.008
	h0.688c2.12,0,3.838-1.721,3.838-3.841c0-2.121-1.718-3.838-3.838-3.838H34.1c0.289-2.182,0.83-4.222,1.618-5.92
	c1.378-2.977,3.507-3.025,4.912-0.001C43.006,16.38,43.238,24.895,40.639,30.876z"/>
<g id="picture-add-icon_1_" display="none">
	<path display="inline" fill="#FFFFFF" d="M23.146,32.241c0,5.79-4.691,10.483-10.483,10.483c-5.79,0-10.483-4.693-10.483-10.483
		c0-5.788,4.693-10.484,10.483-10.484C18.455,21.757,23.146,26.453,23.146,32.241z M19.106,30.641h-4.538v-4.537h-3.507v4.537H6.525
		v3.504h4.537v4.541h3.507v-4.541h4.538L19.106,30.641L19.106,30.641z"/>
</g>
<path display="none" fill="#FFFFFF" d="M20.002,23.933c0,2.394,1.938,4.333,4.336,4.333c2.393,0,4.331-1.938,4.331-4.333
	c0-2.392-1.938-4.331-4.331-4.331C21.939,19.602,20.002,21.542,20.002,23.933z"/>
<path display="none" fill="#FFFFFF" d="M34.586,35.337c-1.572,1.349-3.352,2.349-5.295,2.978c-1.514,0.494-3.096,0.74-4.68,0.74
	c-0.383-0.006-0.764-0.018-1.133-0.044c-1.998-0.149-3.904-0.67-5.672-1.542c-1.828-0.902-3.439-2.156-4.797-3.725
	c-1.35-1.564-2.35-3.346-2.98-5.289c-0.484-1.505-0.733-3.087-0.733-4.689c0-0.38,0.016-0.759,0.044-1.151
	c0.145-1.978,0.668-3.874,1.544-5.641c0.904-1.836,2.157-3.45,3.718-4.796c1.567-1.352,3.346-2.354,5.291-2.982
	c1.824-0.585,3.799-0.804,5.854-0.694c1.938,0.144,3.88,0.677,5.629,1.542c1.365,0.674,2.729,1.69,3.826,2.731l-0.024,0.017
	l-3.891,3.312l13.486,3.197L43.762,5.48L39.83,8.825l-0.028,0.018c-1.688-1.722-3.657-3.227-5.815-4.285
	c-2.478-1.235-5.141-1.962-7.938-2.167c-2.709-0.159-5.511,0.129-8.128,0.974c-2.734,0.882-5.235,2.287-7.418,4.175
	c-2.192,1.887-3.948,4.148-5.221,6.72c-1.221,2.485-1.945,5.151-2.148,7.927c-0.042,0.528-0.06,1.051-0.06,1.579
	c0,2.235,0.346,4.447,1.029,6.565c0.878,2.735,2.283,5.228,4.167,7.414c1.885,2.188,4.149,3.94,6.723,5.216
	c2.491,1.227,5.156,1.957,7.925,2.16c0.5,0.038,1,0.059,1.501,0.059h0.103c2.231,0,4.434-0.35,6.541-1.031
	c2.73-0.879,5.229-2.279,7.424-4.17c2.19-1.887,3.94-4.146,5.209-6.723l-5.387-2.715C37.396,32.374,36.148,33.986,34.586,35.337z"/>
<path display="none" fill="#FFFFFF" d="M45.395,34.07h-6.818V9.746H12.064V2.93H9.031v6.816H2.217v3.031h6.814v24.325h26.518v6.818
	h3.026v-6.818h6.819V34.07L45.395,34.07z M12.064,34.07V12.777h23.485V34.07H12.064L12.064,34.07z"/>
<polygon display="none" fill="#FFFFFF" points="20.636,22.768 26.509,27.186 29.486,26.055 33.146,28.955 33.146,31.607 
	14.461,31.607 14.461,26.811 "/>
<g id="layer1_1_" transform="translate(-63.772761,-91.391883)" inkscape:groupmode="layer" inkscape:label="Ebene 1" opacity="0.8">
	
		<g id="g21342_1_" transform="matrix(0.02241494,-0.00600606,0.00600606,0.02241494,373.94426,448.30452)" inkscape:export-ydpi="150" inkscape:export-filename="/Users/Admin/Downloads/notebook.png" inkscape:export-xdpi="150">
		<g id="rect21306_1_">
			<g>
				<path fill="#FFFFFF" d="M-7856.094-16014.916l-1122.115-300.666c-55.648-14.911-84.139-57.441-71.101-106.098l392.956-1466.555
					c12.988-48.475,58.943-71.125,114.592-56.215l1122.115,300.668c55.568,14.887,84.223,57.529,71.234,106.004l-392.955,1466.554
					C-7754.406-16022.566-7800.527-16000.027-7856.094-16014.916z M-8931.156-16409.234l1081.182,289.697l383.311-1430.561
					l-1081.148-289.82L-8931.156-16409.234z"/>
				<path fill="#FFFFFF" d="M-7861.18-15995.933l-1122.115-300.666c-65.912-17.661-100.967-71.144-85.141-130.206l392.957-1466.555
					c15.799-58.961,72.93-87.875,138.842-70.215l1122.115,300.668c65.891,17.654,100.973,71.277,85.174,130.238l-392.957,1466.553
					C-7738.129-16007.052-7795.289-15978.277-7861.18-15995.933z M-8546.865-17925.402c-44.836-12.016-80.354,4.609-90.443,42.27
					l-392.957,1466.555c-10.119,37.764,12.351,69.837,57.187,81.851l1122.114,300.666c44.918,12.035,80.291-4.539,90.41-42.303
					l392.957-1466.554c10.09-37.662-12.234-69.785-57.152-81.82L-8546.865-17925.402z M-7835.969-16095.395l-1119.33-299.92
					l393.545-1468.748l1119.309,300L-7835.969-16095.395z M-8906.953-16423.227l1043.072,279.486l373.09-1392.412l-1043.041-279.607
					L-8906.953-16423.227z"/>
			</g>
		</g>
		
			<g id="rect21310_1_" inkscape:export-ydpi="71.998093" inkscape:export-filename="/home/alex/Dropbox/Arcomem Files/Arcomem Video/arcomem_storyboard_draft.png" inkscape:export-xdpi="71.998093">
			<g>
				<path fill="#FFFFFF" d="M-8399.107-17585.809c-21.18-5.676-34.006-27.148-28.398-48.082l2.354-8.781
					c5.594-20.873,27.465-33.156,48.645-27.482l34.613,9.275c21.156,5.668,33.896,27.227,28.303,48.1l-2.352,8.781
					c-5.609,20.934-27.395,33.133-48.553,27.463L-8399.107-17585.809z"/>
			</g>
			<g>
				<path fill="#FFFFFF" d="M-8346.246-17644.641c12.133,3.25,19.455,15.516,16.252,27.467l-2.352,8.781
					c-3.191,11.91-15.697,18.992-27.832,15.74l-34.611-9.273c-12.154-3.258-19.402-15.633-16.213-27.543l2.354-8.781
					c3.201-11.951,15.635-18.922,27.789-15.666L-8346.246-17644.641 M-8337.57-17677.02l-34.613-9.273
					c-30.344-8.131-61.406,9.426-69.391,39.221l-2.354,8.781c-8,29.855,10.156,60.469,40.502,68.6l34.611,9.273
					c30.346,8.133,61.436-9.285,69.436-39.141l2.352-8.781C-8289.043-17638.137-8307.227-17668.887-8337.57-17677.02
					L-8337.57-17677.02z"/>
			</g>
		</g>
		
			<g id="rect21312_1_" inkscape:export-ydpi="71.998093" inkscape:export-filename="/home/alex/Dropbox/Arcomem Files/Arcomem Video/arcomem_storyboard_draft.png" inkscape:export-xdpi="71.998093">
			<g>
				<path fill="#FFFFFF" d="M-8083.611-17501.273c-21.26-5.695-33.842-27.104-28.234-48.037l2.354-8.781
					c5.594-20.873,27.223-33.223,48.48-27.525l34.654,9.285c21.219,5.684,33.916,27.232,28.324,48.105l-2.354,8.781
					c-5.609,20.934-27.352,33.145-48.57,27.457L-8083.611-17501.273z"/>
			</g>
			<g>
				<path fill="#FFFFFF" d="M-8030.709-17560.094c12.113,3.244,19.496,15.527,16.295,27.477l-2.354,8.781
					c-3.189,11.91-15.758,18.977-27.871,15.73l-34.654-9.285c-12.154-3.256-19.443-15.643-16.252-27.553l2.352-8.781
					c3.203-11.951,15.678-18.912,27.832-15.654L-8030.709-17560.094 M-8022.033-17592.473l-34.654-9.285
					c-30.283-8.113-61.305,9.455-69.289,39.25l-2.352,8.781c-8,29.855,10.113,60.457,40.398,68.57l34.652,9.285
					c30.406,8.148,61.314-9.318,69.314-39.174l2.352-8.781C-7973.627-17553.621-7991.629-17584.324-8022.033-17592.473
					L-8022.033-17592.473z"/>
			</g>
		</g>
		
			<g id="rect21314_1_" inkscape:export-ydpi="71.998093" inkscape:export-filename="/home/alex/Dropbox/Arcomem Files/Arcomem Video/arcomem_storyboard_draft.png" inkscape:export-xdpi="71.998093">
			<g>
				<path fill="#FFFFFF" d="M-7755.514-17413.359c-21.137-5.664-33.861-27.109-28.254-48.043l2.354-8.781
					c5.594-20.875,27.363-33.186,48.5-27.523l34.676,9.293c21.219,5.684,33.918,27.232,28.324,48.105l-2.354,8.781
					c-5.607,20.934-27.354,33.145-48.572,27.457L-7755.514-17413.359z"/>
			</g>
			<g>
				<path fill="#FFFFFF" d="M-7702.59-17472.176c12.193,3.266,19.414,15.504,16.213,27.457l-2.354,8.781
					c-3.191,11.91-15.596,19.02-27.791,15.75l-34.674-9.289c-12.031-3.225-19.301-15.605-16.109-27.516l2.354-8.781
					c3.201-11.951,15.654-18.918,27.688-15.695L-7702.59-17472.176 M-7693.914-17504.555l-34.676-9.289
					c-30.281-8.115-61.264,9.465-69.248,39.258l-2.352,8.781c-8,29.855,10.074,60.447,40.357,68.562l34.674,9.289
					c30.404,8.148,61.312-9.318,69.312-39.174l2.354-8.781C-7645.508-17465.703-7663.51-17496.406-7693.914-17504.555
					L-7693.914-17504.555z"/>
			</g>
		</g>
		<g id="path21318_1_">
			<path fill="#FFFFFF" d="M-7982.947-17560.629l-47.162-36.904c26.104-32.627,47.379-69.756,64.609-113.736
				c40.777-102.262,34.699-182.508,5.174-206.781c-13.154,9.742-41.207,44.355-72.803,103.094l-53.24-27.969
				c75.83-140.727,116.756-137.211,130.244-136.168c4.607,0.363,10.609,1.383,17.186,4.473
				c71.018,37.719,82.51,152.223,29.557,285.293C-7928.875-17639.832-7952.854-17597.656-7982.947-17560.629z"/>
		</g>
		<g id="path21320_1_">
			<path fill="#FFFFFF" d="M-7661.291-17474.441l-47.266-36.934c26.289-32.578,47.441-69.738,64.916-113.656
				c40.531-102.326,34.414-182.582,4.969-206.832c-13.275,9.707-41.123,44.377-72.641,103.137l-53.318-27.992
				c75.803-140.801,116.592-137.254,130.08-136.211c4.547,0.586,10.689,1.406,17.309,4.506
				c70.73,37.643,82.346,152.178,29.637,285.314C-7607.219-17553.645-7631.252-17511.594-7661.291-17474.441z"/>
		</g>
		<g id="path21324_1_">
			<path fill="#FFFFFF" d="M-8298.402-17645.152l-47.307-36.943c26.309-32.574,47.42-69.744,64.875-113.668
				c40.715-102.277,34.436-182.578,5.029-206.816c-13.234,9.719-41.205,44.355-72.762,103.104l-53.238-27.969
				c75.707-140.762,116.633-137.244,130.203-136.18c6.6,0.57,12.426,2.238,17.613,4.828c70.467,37.332,82.039,151.703,29.293,284.98
				C-8244.312-17724.352-8268.506-17682.344-8298.402-17645.152z"/>
		</g>
	</g>
</g>
</svg>
