<?xml version="1.0" encoding="utf-8"?>
<!-- Generator: Adobe Illustrator 15.0.0, SVG Export Plug-In . SVG Version: 6.00 Build 0)  -->
<!DOCTYPE svg PUBLIC "-//W3C//DTD SVG 1.1//EN" "http://www.w3.org/Graphics/SVG/1.1/DTD/svg11.dtd">
<svg version="1.1" id="Layer_1" xmlns="http://www.w3.org/2000/svg" xmlns:xlink="http://www.w3.org/1999/xlink" x="0px" y="0px"
	 width="196px" height="196px" viewBox="0 0 196 196" enable-background="new 0 0 196 196" xml:space="preserve">
<circle opacity="0.9" fill="#AFE0E7" enable-background="new    " cx="95.709" cy="96.286" r="84.767"/>
<circle fill="none" stroke="#FFFFFF" stroke-miterlimit="10" cx="95.708" cy="96.286" r="67.812"/>
<path id="upload-2-icon_1_" fill="#FFFFFF" d="M85.774,85.478h-8.193l17.818-17.847l17.818,17.847h-8.193V107.9h-19.25V85.478z
	 M112,106.195v8.061H78.795v-8.061H72.61v14.242h45.574v-14.242H112z"/>
<path fill="#FFFFFF" d="M96.299,192.596c-53.1,0-96.297-43.199-96.297-96.296C0.002,43.2,43.2,0.001,96.299,0
	c53.1,0,96.299,43.199,96.299,96.3C192.598,149.396,149.396,192.596,96.299,192.596z M96.299,11.729
	c-46.632,0-84.568,37.938-84.568,84.57c0,46.629,37.937,84.566,84.568,84.566s84.568-37.938,84.568-84.566
	C180.867,49.668,142.93,11.729,96.299,11.729z"/>
<path fill="#00AEEF" d="M59.603,185.191c-22.991-9.525-41.118-27.229-51.198-50.078C-13.029,86.53,9.058,29.572,57.639,8.14
	l4.734,10.732C19.71,37.692,0.314,87.716,19.137,130.378c9.119,20.667,25.731,36.569,46.799,44.714
	c21.059,8.166,44.041,7.641,64.708-1.477l4.732,10.732c-23.529,10.385-49.703,10.979-73.687,1.68
	C60.992,185.758,60.295,185.479,59.603,185.191z"/>
</svg>
