<?xml version="1.0" encoding="utf-8"?>
<!-- Generator: Adobe Illustrator 15.0.0, SVG Export Plug-In  -->
<!DOCTYPE svg PUBLIC "-//W3C//DTD SVG 1.1//EN" "http://www.w3.org/Graphics/SVG/1.1/DTD/svg11.dtd" [
	<!ENTITY ns_flows "http://ns.adobe.com/Flows/1.0/">
]>
<svg version="1.1"
	 xmlns="http://www.w3.org/2000/svg" xmlns:xlink="http://www.w3.org/1999/xlink" xmlns:a="http://ns.adobe.com/AdobeSVGViewerExtensions/3.0/"
	 x="0px" y="0px" width="196px" height="196px" viewBox="-1.602 -1.648 196 196"
	 overflow="visible" enable-background="new -1.602 -1.648 196 196" xml:space="preserve">
<defs>
</defs>
<path fill="#FFFFFF" d="M96.298,192.675C43.199,192.675,0,149.476,0,96.379c0-53.1,43.199-96.299,96.298-96.3
	c53.099,0,96.299,43.199,96.299,96.3C192.597,149.476,149.396,192.675,96.298,192.675z M96.298,11.809
	c-46.632,0-84.568,37.938-84.568,84.57c0,46.629,37.937,84.566,84.568,84.566c46.631,0,84.568-37.938,84.568-84.566
	C180.866,49.747,142.929,11.809,96.298,11.809z"/>
<path fill="#00AEEF" d="M164.435,164.327c17.596-17.598,27.569-40.893,28.137-65.858C193.781,45.384,151.577,1.211,98.493,0
	l-0.267,11.729c46.617,1.062,83.679,39.854,82.617,86.473c-0.516,22.584-9.776,43.63-26.125,59.219
	c-16.332,15.604-37.763,23.914-60.347,23.4l-0.268,11.727c25.716,0.588,50.12-8.876,68.719-26.646
	C163.367,165.382,163.904,164.856,164.435,164.327z"/>
<circle opacity="0.9" fill="#AFE0E7" cx="96.71" cy="96.286" r="84.767"/>
<circle fill="none" stroke="#FFFFFF" stroke-miterlimit="10" cx="96.709" cy="96.286" r="67.812"/>
<path id="upload-2-icon_18_" fill="#FFFFFF" d="M86.775,85.478h-8.193L96.4,67.631l17.818,17.847h-8.195V107.9H86.775V85.478z
	 M113.001,106.195v8.061H79.796v-8.061h-6.185v14.243h45.573v-14.243H113.001z"/>
</svg>
