<?xml version="1.0" encoding="utf-8"?>
<!-- Generator: Adobe Illustrator 15.0.0, SVG Export Plug-In  -->
<!DOCTYPE svg PUBLIC "-//W3C//DTD SVG 1.1//EN" "http://www.w3.org/Graphics/SVG/1.1/DTD/svg11.dtd" [
	<!ENTITY ns_flows "http://ns.adobe.com/Flows/1.0/">
]>
<svg version="1.1"
	 xmlns="http://www.w3.org/2000/svg" xmlns:xlink="http://www.w3.org/1999/xlink" xmlns:a="http://ns.adobe.com/AdobeSVGViewerExtensions/3.0/"
	 x="0px" y="0px" width="196px" height="196px" viewBox="-0.676 0.092 196 196"
	 overflow="visible" enable-background="new -0.676 0.092 196 196" xml:space="preserve">
<defs>
</defs>
<path fill="#D1D3D4" d="M181.064,96.33c0,46.816-37.951,84.767-84.767,84.767S11.531,143.146,11.531,96.33 M0.539,96.33
	c0,57.218,38.542,99.762,95.759,99.762c57.218,0,95.759-42.544,95.759-99.762"/>
<path fill="#FFFFFF" d="M96.297,192.596C43.197,192.596,0,149.396,0,96.3C0,43.2,43.197,0.001,96.297,0
	c53.1,0,96.298,43.199,96.298,96.3C192.596,149.396,149.396,192.596,96.297,192.596z M96.297,11.729
	c-46.633,0-84.568,37.938-84.568,84.57c0,46.629,37.936,84.566,84.568,84.566c46.63,0,84.568-37.938,84.568-84.566
	C180.865,49.668,142.928,11.729,96.297,11.729z"/>
<path fill="#00AEEF" d="M59.39,7.48C36.398,17.005,18.271,34.711,8.193,57.56c-21.436,48.583,0.652,105.54,49.233,126.976
	l4.735-10.734C19.5,154.98,0.101,104.957,18.923,62.294c9.118-20.667,25.73-36.567,46.799-44.713
	c21.061-8.167,44.042-7.642,64.706,1.478l4.738-10.736C111.633-2.061,85.462-2.656,61.478,6.645
	C60.78,6.916,60.079,7.195,59.39,7.48z"/>
<circle opacity="0.9" fill="#AFE0E7" enable-background="new    " cx="96.298" cy="96.299" r="84.767"/>
<circle fill="none" stroke="#FFFFFF" stroke-miterlimit="10" cx="96.297" cy="96.299" r="67.812"/>
<path fill="#FFFFFF" d="M77.306,73.3c0-1.045,0.742-1.473,1.646-0.95l39.836,23.001c0.904,0.522,0.904,1.378-0.002,1.9
	l-39.832,22.995c-0.906,0.522-1.648,0.096-1.648-0.948V73.3z"/>
</svg>
