<?xml version="1.0" encoding="utf-8"?>
<!-- Generator: Adobe Illustrator 15.0.0, SVG Export Plug-In  -->
<!DOCTYPE svg PUBLIC "-//W3C//DTD SVG 1.1//EN" "http://www.w3.org/Graphics/SVG/1.1/DTD/svg11.dtd" [
	<!ENTITY ns_flows "http://ns.adobe.com/Flows/1.0/">
]>
<svg version="1.1"
	 xmlns="http://www.w3.org/2000/svg" xmlns:xlink="http://www.w3.org/1999/xlink" xmlns:a="http://ns.adobe.com/AdobeSVGViewerExtensions/3.0/"
	 x="0px" y="0px" width="196px" height="196px" viewBox="-1.602 -1.708 196 196"
	 overflow="visible" enable-background="new -1.602 -1.708 196 196" xml:space="preserve">
<defs>
</defs>
<path fill="#FFFFFF" d="M96.299,192.596C43.199,192.596,0,149.396,0,96.3C0,43.2,43.199,0.001,96.299,0
	c53.098,0,96.299,43.199,96.299,96.3C192.598,149.396,149.396,192.596,96.299,192.596z M96.299,11.729
	c-46.633,0-84.57,37.938-84.57,84.57c0,46.629,37.938,84.566,84.57,84.566c46.629,0,84.568-37.938,84.568-84.566
	C180.867,49.668,142.928,11.729,96.299,11.729z"/>
<path fill="#00AEEF" d="M96.402,192.596c24.887-0.002,48.41-9.422,66.465-26.674c38.393-36.683,39.785-97.758,3.105-136.15
	l-8.482,8.104c32.213,33.714,30.99,87.352-2.725,119.564c-16.334,15.604-37.766,23.938-60.348,23.401
	c-22.582-0.515-43.613-9.795-59.219-26.127l-8.48,8.104c17.768,18.6,41.715,29.164,67.432,29.751
	C94.902,192.587,95.654,192.596,96.402,192.596z"/>
<path opacity="0.9" fill="#AFE0E7" d="M181.477,96.207c0,46.814-37.953,84.768-84.766,84.768c-46.816,0-84.768-37.953-84.768-84.768
	s37.951-84.765,84.768-84.765C143.523,11.442,181.477,49.393,181.477,96.207z"/>
<circle fill="none" stroke="#FFFFFF" stroke-miterlimit="10" cx="96.709" cy="96.207" r="67.812"/>
<path id="upload-2-icon_18_" fill="#FFFFFF" d="M86.676,85.417h-8.193L96.301,67.57l17.818,17.847h-8.195v22.423H86.676V85.417z
	 M112.902,106.135v8.061H79.697v-8.061h-6.185v14.243h45.573v-14.243H112.902z"/>
</svg>
