<?xml version="1.0" encoding="utf-8"?>
<!-- Generator: Adobe Illustrator 15.0.0, SVG Export Plug-In . SVG Version: 6.00 Build 0)  -->
<!DOCTYPE svg PUBLIC "-//W3C//DTD SVG 1.1//EN" "http://www.w3.org/Graphics/SVG/1.1/DTD/svg11.dtd">
<svg version="1.1" id="Layer_1" xmlns="http://www.w3.org/2000/svg" xmlns:xlink="http://www.w3.org/1999/xlink" x="0px" y="0px"
	 width="196px" height="196px" viewBox="0 0 196 196" enable-background="new 0 0 196 196" xml:space="preserve">
<circle opacity="0.9" fill="#AFE0E7" enable-background="new    " cx="96.465" cy="96.286" r="84.767"/>
<circle fill="none" stroke="#FFFFFF" stroke-miterlimit="10" cx="96.464" cy="96.286" r="67.812"/>
<path id="upload-2-icon_2_" fill="#FFFFFF" d="M86.53,85.478h-8.193l17.818-17.847l17.818,17.847h-8.193V107.9H86.53V85.478z
	 M112.756,106.195v8.061H79.551v-8.061h-6.185v14.242h45.573v-14.242H112.756z"/>
<path fill="#FFFFFF" d="M96.299,192.596C43.199,192.596,0,149.396,0,96.3C0,43.2,43.199,0.001,96.299,0
	c53.098,0,96.299,43.199,96.299,96.3C192.598,149.396,149.396,192.596,96.299,192.596z M96.299,11.729
	c-46.633,0-84.57,37.938-84.57,84.57c0,46.629,37.938,84.566,84.57,84.566c46.629,0,84.568-37.938,84.568-84.566
	C180.867,49.668,142.928,11.729,96.299,11.729z"/>
<path fill="#00AEEF" d="M133.209,185.193c22.991-9.525,41.118-27.23,51.197-50.079C205.84,86.532,183.752,29.573,135.172,8.14
	l-4.732,10.733c42.662,18.82,62.059,68.844,43.236,111.506c-9.121,20.667-25.73,36.568-46.801,44.713
	c-21.061,8.168-44.04,7.641-64.708-1.475l-4.734,10.732c23.533,10.383,49.701,10.979,73.685,1.68
	C131.816,185.76,132.518,185.479,133.209,185.193z"/>
</svg>
