<?xml version="1.0" encoding="utf-8"?>
<!-- Generator: Adobe Illustrator 15.0.0, SVG Export Plug-In . SVG Version: 6.00 Build 0)  -->
<!DOCTYPE svg PUBLIC "-//W3C//DTD SVG 1.1//EN" "http://www.w3.org/Graphics/SVG/1.1/DTD/svg11.dtd" [
	<!ENTITY ns_extend "http://ns.adobe.com/Extensibility/1.0/">
	<!ENTITY ns_ai "http://ns.adobe.com/AdobeIllustrator/10.0/">
	<!ENTITY ns_graphs "http://ns.adobe.com/Graphs/1.0/">
	<!ENTITY ns_vars "http://ns.adobe.com/Variables/1.0/">
	<!ENTITY ns_imrep "http://ns.adobe.com/ImageReplacement/1.0/">
	<!ENTITY ns_sfw "http://ns.adobe.com/SaveForWeb/1.0/">
	<!ENTITY ns_custom "http://ns.adobe.com/GenericCustomNamespace/1.0/">
	<!ENTITY ns_adobe_xpath "http://ns.adobe.com/XPath/1.0/">
]>
<svg version="1.1" id="Layer_1" xmlns:x="&ns_extend;" xmlns:i="&ns_ai;" xmlns:graph="&ns_graphs;"
	 xmlns="http://www.w3.org/2000/svg" xmlns:xlink="http://www.w3.org/1999/xlink" x="0px" y="0px" width="48px" height="48px"
	 viewBox="0 0 48 48" enable-background="new 0 0 48 48" xml:space="preserve">
<metadata>
	<sfw  xmlns="&ns_sfw;">
		<slices></slices>
		<sliceSourceBounds  height="48" width="48" y="282.5" x="371.5" bottomLeftOrigin="true"></sliceSourceBounds>
	</sfw>
</metadata>
<rect display="none" fill="#E6E7E8" width="48" height="48"/>
<path display="none" d="M40.734,31.993L28,9.935c-2.2-3.811-5.8-3.811-8,0L7.265,31.993c-2.2,3.812-0.4,6.928,4,6.928h25.469
	C41.134,38.921,42.934,35.803,40.734,31.993z M25.695,35.032h-3.39V31.43h3.39V35.032z M25.695,28.893h-3.39V16.166h3.39V28.893z"/>
<path display="none" d="M34.244,16.844c0-0.818-0.729-1.479-1.626-1.479s-1.627,0.663-1.627,1.479v6.608h-1.177v-7.319
	c0-0.953-0.728-1.725-1.625-1.725c-0.898,0-1.627,0.772-1.627,1.725v7.319H25.26v-8.381c0-0.953-0.729-1.725-1.626-1.725
	c-0.897,0-1.626,0.772-1.626,1.725v8.381H20.73V8.109c0-1.089-0.882-1.971-1.971-1.971c-1.088,0-1.972,0.882-1.972,1.971v19.575
	l-1.132-0.5v-5.89c0,0-1.462,3.336-2.251,4.894c-0.492,0.971-0.839,2.209-0.851,3.299c-0.021,2.127,6.605,7.736,9.306,7.75
	c2.02,0.011,8.713,0.016,9.886-0.086c2.612-0.226,2.474-3.2,2.474-3.2l0.027-0.556V16.844H34.244z"/>
<rect x="18.101" y="38.787" display="none" width="15.542" height="3.074"/>
<path display="none" fill="#DDDFDB" d="M20.197,31.652h-4.364v-4.463h2.601c0.908,0,1.652-0.744,1.652-1.651V13.236
	c0-0.908-0.744-1.652-1.652-1.652h-7.495c-0.909,0-1.653,0.744-1.653,1.652v12.301c0,0.908,0.744,1.65,1.653,1.65h2.6v4.463H9.174
	c-0.648,0-1.179,0.531-1.179,1.181v1.64h13.382v-1.64C21.377,32.184,20.846,31.652,20.197,31.652z"/>
<path display="none" fill="#DDDFDB" d="M35.682,11.15l-2.445,1.606c2.482,2.386,3.902,5.912,3.902,9.73
	c0,3.819-1.42,7.343-3.902,9.729l2.445,1.605c2.76-2.903,4.323-6.973,4.323-11.333c0,0,0,0,0-0.001c0,0,0,0,0-0.001
	C40.005,18.124,38.439,14.054,35.682,11.15z"/>
<path display="none" fill="#DDDFDB" d="M34.04,22.485c0-3.141-1.112-6.099-3.077-8.235l-2.4,1.642
	c1.66,1.623,2.609,4.017,2.609,6.594v0.002c0,2.577-0.949,4.97-2.609,6.593l2.4,1.642c1.964-2.137,3.077-5.095,3.077-8.235V22.485z"
	/>
<path display="none" fill="#DDDFDB" d="M24.042,18.8c0.743,1.004,1.157,2.304,1.157,3.686v0.001c0,1.382-0.414,2.681-1.157,3.685
	l2.397,1.577c1.047-1.476,1.627-3.321,1.627-5.262v-0.001c0-1.94-0.58-3.788-1.627-5.262L24.042,18.8z"/>
<path display="none" fill="#DDDFDB" d="M10.932,14.536H12.5c1.044,0,1.044-2.614,2.09-2.614h1.047h0.002h0.009h0.013h0.009h0.008
	h0.023h0.011h0.017h0.025h0.006h0.033h0.002h0.039h0.001h0.04h0.005h0.034h0.014h0.025h0.027h0.009h0.038h0.009h0.027h0.032h0.004
	h0.033h0.023h0.011H16.2h0.022h0.009h0.032h0.028h0.003h0.028h0.028h0.014h0.015h0.025h0.027h0.007h0.018h0.023H16.5h0.016h0.006
	h0.02h0.018h0.018h0.016h0.003h0.01h0.016h0.01h0.012h0.009h0.009h0.006h0.004h0.005l0,0l0,0l0,0h3.661
	c1.046,0,1.046,2.614,2.092,2.614h9.932c0-0.577,0.469-1.045,1.046-1.045h1.045c0.579,0,1.046,0.469,1.046,1.045h1.568
	c1.443,0,2.613,1.171,2.613,2.615V31.52c0,1.443-1.17,2.616-2.613,2.616H10.932c-1.443,0-2.614-1.173-2.614-2.616V17.151
	C8.317,15.707,9.488,14.536,10.932,14.536L10.932,14.536z M29.229,17.279c-3.896,0-7.058,3.159-7.058,7.056
	c0,3.896,3.16,7.056,7.058,7.056c3.896,0,7.058-3.16,7.058-7.056C36.286,20.438,33.125,17.279,29.229,17.279L29.229,17.279z
	 M14.59,19.107h3.137c0.577,0,1.045-0.468,1.045-1.045V17.54c0-0.578-0.468-1.044-1.045-1.044H14.59
	c-0.576,0-1.045,0.467-1.045,1.044v0.523C13.544,18.64,14.014,19.107,14.59,19.107z"/>
<path display="none" fill="#DDDFDB" d="M29.229,19.161c-2.856,0-5.174,2.316-5.174,5.174c0,2.856,2.318,5.176,5.174,5.176
	s5.176-2.319,5.176-5.176C34.402,21.477,32.085,19.161,29.229,19.161L29.229,19.161z"/>
<path display="none" fill="#DDDFDB" d="M38.645,15.483l-6.61,4.68h-2.147v-4.002c0-0.909-0.744-1.652-1.652-1.652H7.767
	c-0.909,0-1.652,0.743-1.652,1.652v15.59c0,0.908,0.744,1.651,1.652,1.651h20.467c0.908,0,1.652-0.743,1.652-1.651v-4.003h2.147
	l6.61,4.68h3.152V15.483H38.645z M14.722,27.646c0,0.91-0.048,1.759-0.107,1.889c-0.058,0.13-1.023,0.236-1.829,0.236
	c-0.806,0-1.57-0.049-1.7-0.106s-0.236-1.108-0.236-2.019v-7.381c0-0.908,0.048-1.758,0.106-1.888s1.024-0.236,1.83-0.236
	c0.806,0,1.57,0.048,1.7,0.106c0.13,0.058,0.236,1.109,0.236,2.017V27.646z"/>
<path display="none" fill="#DDDFDB" d="M24.227,5.579c-1.681-0.006-2.383,3.952-2.383,5.479l-0.049,6.455l-14.44,9.785l0.012,4.013
	l14.855-6.89l0.486,9.991l-6.066,4.091l0.01,1.892l7.334-1.646l7.258,1.67l-0.006-1.894l-5.449-4.113l0.348-9.836l14.508,6.794
	l-0.012-4.013L26.68,17.566l0.059-6.491C26.732,9.543,25.91,5.579,24.227,5.579z"/>
<path id="share_x5F_confirm_2_" display="none" fill="#DDDFDB" d="M40.734,31.993L28,9.935c-2.2-3.811-5.8-3.811-8,0L7.265,31.993
	c-2.2,3.812-0.4,6.928,4,6.928h25.469C41.134,38.921,42.934,35.803,40.734,31.993z M25.695,35.032h-3.39V31.43h3.39V35.032z
	 M25.695,28.893h-3.39V16.166h3.39V28.893z"/>
<path id="picture-box-icon_7_" display="none" fill="#DDDFDB" d="M29.279,31.27l-2.319,2.164h-5.946l-2.327-2.164H5.955H5.95
	l1.312,7.799l33.283-0.002l1.396-7.797h-0.004H29.279z M38.674,13.7H9.217L8.87,11.809h30.153L38.674,13.7z M36.65,10.424H11.325
	l-0.348-1.492h26.024L36.65,10.424z M8.052,29.273L6.873,15.185h34.072l-1.209,14.088h-2.987l0.819-11.479h-27.4l0.901,11.479H8.052
	z"/>
<path id="location_3_" display="none" fill="#DDDFDB" d="M34.79,16.752c0-5.951-4.828-10.778-10.79-10.778
	s-10.79,4.827-10.79,10.778c0,1.708,0.406,3.316,1.108,4.751H14.31l9.688,20.283H24l0,0l9.688-20.283H33.68
	C34.382,20.068,34.79,18.46,34.79,16.752z M24,10.955c3.207,0,5.811,2.603,5.811,5.81c0,1.364-0.476,2.615-1.265,3.607
	c-1.062,1.339-2.702,2.203-4.548,2.203c-1.845,0-3.482-0.863-4.548-2.203c-0.788-0.992-1.262-2.243-1.262-3.607
	C18.188,13.558,20.792,10.955,24,10.955z"/>
<polygon display="none" fill="#DDDFDB" points="7.318,18.928 7.318,36.381 40.682,36.381 40.682,18.928 23.999,27.223 "/>
<polygon display="none" fill="#DDDFDB" points="7.318,11.619 7.318,16.264 23.999,24.557 40.682,16.264 40.682,11.619 "/>
<path id="bluetooth_4_" display="none" fill="#DDDFDB" d="M34.109,16.987L22.087,5.974v14.109l-5.829-5.646l-2.367,2.367
	l7.237,6.939l-7.237,7.633l2.58,2.408l5.617-5.687v14.025l12.021-11.111l-7.649-7.104L34.109,16.987z M25.367,13.521l3.77,3.501
	l-3.77,3.501C25.367,20.522,25.367,13.672,25.367,13.521z M29.135,31.014l-3.769,3.5c0,0,0-6.851,0-7.002L29.135,31.014z"/>
<path id="usb_1_" display="none" fill="#DDDFDB" d="M34.493,14.092h-4.539v4.58h1.239c0,0.002-0.002,0.925-0.002,3.014
	c-0.008,0.427-0.185,0.273-0.437,0.588l-5.563,2.587V11.852h3.199l-4.646-6.249L19.1,11.852h3.197v17.686l-4.728-3.724
	c-0.251-0.316-0.429-0.732-0.437-1.159c0-0.632,0-0.903,0-1.014c1.024-0.381,1.758-1.358,1.758-2.516
	c0-1.486-1.206-2.691-2.692-2.691c-1.486,0-2.691,1.205-2.691,2.691c0,1.083,0.644,2.012,1.567,2.438l-0.002,1.89
	c0,0.838,1.292,1.717,1.825,2.275c0.013,0.013,5.272,4.041,5.272,4.041c0.224,0.282,0.082,2.562,0.119,3.361
	c-1.357,0.57-2.311,1.911-2.311,3.475c0,2.082,1.687,3.769,3.768,3.769s3.769-1.688,3.769-3.769c0-1.567-0.959-2.91-2.322-3.479
	v-6.97c0.01-0.427,0.187-0.841,0.438-1.157c0,0,5.787-2.799,5.801-2.812c0.533-0.559,1.823-0.867,1.823-1.705v-3.815h1.241
	L34.493,14.092L34.493,14.092z"/>
<path id="vimeo_1_" display="none" fill="#DDDFDB" d="M41.902,15.606c-0.164,3.515-2.615,8.33-7.364,14.441
	c-4.908,6.38-9.062,9.573-12.459,9.573c-2.104,0-3.886-1.942-5.339-5.83c-0.974-3.563-1.944-7.128-2.915-10.691
	c-1.08-3.885-2.239-5.83-3.479-5.83c-0.269,0-1.214,0.567-2.834,1.7l-1.699-2.19c1.784-1.567,3.541-3.13,5.27-4.7
	c2.378-2.053,4.162-3.133,5.351-3.243c2.809-0.269,4.539,1.652,5.189,5.765c0.701,4.438,1.186,7.198,1.458,8.28
	c0.811,3.682,1.702,5.52,2.675,5.52c0.756,0,1.891-1.197,3.404-3.582c1.515-2.393,2.324-4.206,2.434-5.456
	c0.213-2.06-0.596-3.094-2.434-3.094c-0.863,0-1.756,0.2-2.672,0.591c1.773-5.813,5.166-8.638,10.169-8.477
	C40.367,8.493,42.117,10.899,41.902,15.606z"/>
<path id="facebook_3_" display="none" fill="#DDDFDB" d="M36.477,7.525H11.526c-2.209,0-4,1.791-4,3.999v24.953c0,2.209,1.792,4,4,4
	h24.951c2.209,0,3.998-1.791,3.998-4V11.524C40.475,9.316,38.686,7.525,36.477,7.525z M29.419,16.374c0,0-1.832,0-2.558,0
	c-0.903,0-1.092,0.371-1.092,1.305c0,0.777,0,2.258,0,2.258h3.649L29.066,23.9H25.77v11.84h-4.728V23.95h-2.458v-4.014h2.458
	c0,0,0-0.577,0-3.16c0-2.965,1.585-4.516,5.104-4.516c0.576,0,3.272,0,3.272,0V16.374z"/>
<path id="you_x5F_tube_1_" display="none" fill="#DDDFDB" d="M13.012,6.054h2.155l1.475,5.536l1.37-5.536h2.175l-2.49,8.235v5.616
	h-2.139v-5.616L13.012,6.054z M20.09,17.358c0,1.799,0.94,2.738,2.784,2.738c1.526,0,2.729-1.021,2.729-2.738v-5.009
	c0-1.601-1.19-2.747-2.729-2.747c-1.675,0-2.784,1.107-2.784,2.747V17.358z M22.044,12.518c0-0.559,0.257-0.976,0.792-0.976
	c0.583,0,0.833,0.404,0.833,0.976v4.751c0,0.559-0.284,0.97-0.795,0.97c-0.526,0-0.83-0.43-0.83-0.97V12.518z M30.738,9.688v7.756
	c-0.229,0.288-0.744,0.767-1.116,0.767c-0.405,0-0.506-0.28-0.506-0.69V9.688h-1.898v8.54c0,1.011,0.31,1.824,1.327,1.824
	c0.575,0,1.371-0.297,2.193-1.275v1.129h1.904V9.688H30.738z M27.943,30.635c0.132,0.168,0.195,0.42,0.195,0.747v5.024
	c0,0.31-0.053,0.533-0.158,0.67c-0.196,0.262-0.629,0.249-0.924,0.101c-0.14-0.069-0.281-0.184-0.429-0.343V30.77
	c0.123-0.131,0.247-0.232,0.374-0.297C27.318,30.314,27.727,30.348,27.943,30.635z M34.036,30.415c-0.671,0-0.808,0.471-0.808,1.14
	v0.985h1.599v-0.985C34.827,30.896,34.688,30.415,34.036,30.415z M39.553,37.593c0,2.404-1.949,4.354-4.355,4.354H12.804
	c-2.405,0-4.357-1.95-4.357-4.354V26.589c0-2.406,1.952-4.358,4.357-4.358h22.393c2.406,0,4.355,1.952,4.355,4.358V37.593
	L39.553,37.593z M15.79,27.41h2.107v-1.913h-6.253v1.913h2.109v11.275h2.038L15.79,27.41L15.79,27.41z M23.036,28.956h-1.808v7.385
	c-0.222,0.279-0.713,0.729-1.064,0.729c-0.388,0-0.483-0.262-0.483-0.653v-7.461h-1.808v8.134c0,1.975,1.339,1.985,2.314,1.428
	c0.358-0.207,0.708-0.509,1.041-0.906v1.074h1.808V28.956z M30.001,31.273c0-1.319-0.438-2.439-1.765-2.439
	c-0.646,0-1.199,0.41-1.608,0.908v-4.245h-1.827v13.188h1.827v-0.746c0.505,0.629,1.058,0.871,1.72,0.871
	c1.203,0,1.654-0.935,1.654-2.14L30.001,31.273L30.001,31.273z M36.688,31.572c0-1.758-0.838-2.861-2.576-2.861
	c-1.629,0-2.744,1.173-2.744,2.861v4.369c0,1.752,0.883,3.01,2.609,3.01c1.904,0,2.711-1.135,2.711-3.01v-0.733h-1.86v0.677
	c0,0.848-0.046,1.36-0.81,1.36c-0.728,0-0.789-0.629-0.789-1.36v-1.834h3.459V31.572L36.688,31.572z"/>
<path id="twitter_1_" display="none" fill="#DDDFDB" d="M23.372,20.546c1.146-3.658,2.552-6.029,4.169-7.748
	c1.206-1.283,1.83-1.689,1.122-0.277c0.312-0.26,0.764-0.598,1.114-0.781c1.955-0.941,1.818-0.152,0.47,0.693
	c3.685-1.346,3.558,0.361-0.337,1.219c3.186,0.055,6.576,2.113,7.559,6.496c0.139,0.605-0.025,0.549,0.586,0.658
	c1.317,0.236,2.562,0.219,3.771-0.174c-0.13,0.908-1.308,1.498-3.146,1.893c-0.683,0.145-0.822,0.105-0.004,0.293
	c1.006,0.227,2.129,0.285,3.319,0.225c-0.927,1.088-2.401,1.645-4.228,1.67c-1.137,4.244-3.742,7.287-7.043,9.197
	c-7.75,4.492-19.044,3.857-24.722-4.268c3.722,2.957,9.228,3.604,13.311-0.537c-2.679,0.006-3.377-2.033-1.254-3.14
	c-2.009-0.018-3.288-0.659-4.041-1.834c-0.285-0.441-0.288-0.479,0.175-0.816c0.509-0.379,1.206-0.545,1.926-0.604
	c-2.084-0.604-3.355-1.707-3.801-3.189c-0.144-0.49-0.169-0.465,0.323-0.592c0.479-0.125,1.099-0.189,1.651-0.221
	c-1.637-1.006-2.615-2.24-2.865-3.605c-0.237-1.289,0.006-0.957,0.955-0.592C16.629,16.159,20.863,17.925,23.372,20.546
	L23.372,20.546z"/>
<path id="soundcloud-icon_3_" display="none" fill="#DDDFDB" d="M42.018,27.124c0,2.5-1.959,4.526-4.373,4.526H25.477V16.1
	c0.467-0.175,0.949-0.306,1.453-0.387c0.393-0.063,0.793-0.097,1.203-0.097c4.072,0,7.411,3.25,7.725,7.379
	c0.547-0.253,1.15-0.395,1.787-0.395C40.059,22.6,42.018,24.625,42.018,27.124z M20.928,19.172v12.477h1.452V18.261
	c-0.324,0.37-0.614,0.772-0.867,1.201C21.324,19.354,21.129,19.258,20.928,19.172z M23.178,31.648h1.452V16.479
	c-0.521,0.273-1.007,0.605-1.452,0.989V31.648z M13.959,20.736V31.65h1.452V19.543C14.872,19.865,14.382,20.269,13.959,20.736z
	 M9.603,23v8.611c0.179,0.023,0.36,0.037,0.545,0.037h0.762v-8.614c-0.247-0.048-0.501-0.072-0.762-0.072
	C9.964,22.962,9.782,22.976,9.603,23z M7.68,30.818c0.329,0.25,0.695,0.449,1.088,0.59v-8.205c-0.393,0.142-0.759,0.341-1.088,0.589
	V30.818z M11.708,23.274v8.375h1.452v-9.819c-0.327,0.562-0.574,1.179-0.726,1.834C12.207,23.511,11.963,23.38,11.708,23.274z
	 M16.281,31.648h1.452V18.734c-0.505,0.066-0.99,0.196-1.452,0.38V31.648z M18.605,31.648h1.451V18.875
	c-0.466-0.12-0.95-0.187-1.451-0.192V31.648L18.605,31.648z M6.965,30.137v-5.664c-0.633,0.761-1.016,1.751-1.016,2.833
	C5.95,28.389,6.333,29.377,6.965,30.137z"/>
<image display="none" overflow="visible" opacity="0.9" enable-background="new    " width="192" height="108" xlink:href="60B242A0.png"  transform="matrix(0.235 0 0 0.2333 1.4497 11.1152)">
</image>
<path display="none" fill="#ED352A" d="M42.018,27.124c0,2.5-1.959,4.526-4.373,4.526H25.477V16.1
	c0.467-0.175,0.949-0.306,1.453-0.387c0.393-0.063,0.793-0.097,1.203-0.097c4.072,0,7.411,3.25,7.725,7.379
	c0.547-0.253,1.15-0.395,1.787-0.395C40.059,22.6,42.018,24.625,42.018,27.124z M20.928,19.172v12.477h1.452V18.261
	c-0.324,0.37-0.614,0.772-0.867,1.201C21.324,19.354,21.129,19.258,20.928,19.172z M23.178,31.648h1.452V16.479
	c-0.521,0.273-1.007,0.605-1.452,0.989V31.648z M13.959,20.736V31.65h1.452V19.543C14.872,19.865,14.382,20.269,13.959,20.736z
	 M9.603,23v8.611c0.179,0.023,0.36,0.037,0.545,0.037h0.762v-8.614c-0.247-0.048-0.501-0.072-0.762-0.072
	C9.964,22.962,9.782,22.976,9.603,23z M7.68,30.818c0.329,0.25,0.695,0.449,1.088,0.59v-8.205c-0.393,0.142-0.759,0.341-1.088,0.589
	V30.818z M11.708,23.274v8.375h1.452v-9.819c-0.327,0.562-0.574,1.179-0.726,1.834C12.207,23.511,11.963,23.38,11.708,23.274z
	 M16.281,31.648h1.452V18.734c-0.505,0.066-0.99,0.196-1.452,0.38V31.648z M18.605,31.648h1.451V18.875
	c-0.466-0.12-0.95-0.187-1.451-0.192V31.648L18.605,31.648z M6.965,30.137v-5.664c-0.633,0.761-1.016,1.751-1.016,2.833
	C5.95,28.389,6.333,29.377,6.965,30.137z"/>
<g id="storymaker_x5F_on_1_" display="none">
	<g display="inline" opacity="0.9">
		<path display="none" fill="#ED1F24" d="M29.279,31.318l-2.319,2.164h-5.946l-2.327-2.164H5.955H5.95l1.312,7.799l33.283-0.002
			l1.396-7.797h-0.004H29.279L29.279,31.318z M38.674,13.749H9.217L8.87,11.858h30.153L38.674,13.749z M36.65,10.473H11.325
			l-0.348-1.492h26.024L36.65,10.473z M8.052,29.323L6.873,15.234h34.072l-1.209,14.088h-2.987l0.819-11.479h-27.4l0.901,11.479
			L8.052,29.323L8.052,29.323z"/>
	</g>
	<g display="inline">
		<g>
			<path display="none" fill="#ED352A" d="M29.279,31.318l-2.319,2.164h-5.946l-2.327-2.164H5.955H5.95l1.312,7.799l33.283-0.002
				l1.396-7.797h-0.004H29.279L29.279,31.318z M38.674,13.749H9.217L8.87,11.858h30.153L38.674,13.749z M36.65,10.473H11.325
				l-0.348-1.492h26.024L36.65,10.473z M8.052,29.323L6.873,15.234h34.072l-1.209,14.088h-2.987l0.819-11.479h-27.4l0.901,11.479
				L8.052,29.323L8.052,29.323z"/>
		</g>
	</g>
</g>
<g id="email_x5F_on_1_" display="none">
	<g display="inline">
		<g display="none">
			<polygon display="inline" fill="#ED352A" points="7.318,18.977 7.318,36.43 40.682,36.43 40.682,18.977 23.999,27.271 			"/>
			<polygon display="inline" fill="#ED352A" points="7.318,11.668 7.318,16.313 23.999,24.605 40.682,16.313 40.682,11.668 			"/>
		</g>
	</g>
</g>
<g id="usb_x5F_on_1_" display="none">
	
		<image display="inline" overflow="visible" opacity="0.9" enable-background="new    " width="117" height="196" xlink:href="60B242A1.png"  transform="matrix(0.2297 0 0 0.2351 10.625 1.0703)">
	</image>
	<g display="inline">
		<path fill="#ED352A" d="M24,5.571l-3.563,4.484h2.83v20.191l-4.665-4.463c-0.301-0.379-0.514-0.877-0.523-1.389
			c0-2.066-0.001-1.93-0.001-2.383c0.864-0.305,1.487-1.129,1.487-2.107c0-1.238-0.995-2.242-2.22-2.242
			c-1.227,0-2.22,1.004-2.22,2.242c0,0.979,0.624,1.803,1.487,2.107l-0.002,2.34c0,1.004,0.546,2.057,1.185,2.727
			c-0.02-0.02-0.04-0.039,0,0c0.016,0.014,4.948,4.734,4.948,4.734c0.301,0.379,0.512,0.877,0.521,1.389v1.908
			c-1.694,0.346-2.969,1.856-2.969,3.672c0,2.07,1.655,3.746,3.703,3.746c2.047,0,3.704-1.676,3.704-3.746
			c0-1.814-1.274-3.326-2.972-3.672v-1.865c0-0.006,0-0.012,0-0.012v-5.642c0.012-0.512,0.223-1.008,0.522-1.387
			c0,0,4.933-3.354,4.948-3.369c0.04-0.037,0.018-0.018,0,0c0.64-0.67,1.186-1.039,1.186-2.043l-0.002-3.57h1.487v-4.484h-4.438
			v4.486h1.486c0,0-0.004,0.938-0.004,3.611c-0.01,0.512-0.221,0.328-0.521,0.705l-4.666,3.101V10.055h2.832L24,5.571z"/>
	</g>
</g>
<g id="vimeo_x5F_on_1_" display="none">
	
		<image display="inline" overflow="visible" opacity="0.9" enable-background="new    " width="192" height="171" xlink:href="60B242A7.png"  transform="matrix(0.235 0 0 0.2358 1.312 3.9277)">
	</image>
	<g display="inline">
		<path fill="#ED352A" d="M41.902,15.656c-0.164,3.515-2.615,8.33-7.364,14.441c-4.908,6.379-9.062,9.572-12.459,9.572
			c-2.104,0-3.886-1.941-5.339-5.83c-0.974-3.562-1.944-7.128-2.915-10.691c-1.08-3.885-2.239-5.83-3.479-5.83
			c-0.269,0-1.214,0.567-2.834,1.7l-1.699-2.19c1.784-1.567,3.541-3.13,5.27-4.7c2.378-2.053,4.162-3.133,5.351-3.243
			c2.809-0.269,4.539,1.652,5.189,5.765c0.701,4.438,1.186,7.198,1.458,8.28c0.811,3.68,1.702,5.52,2.675,5.52
			c0.756,0,1.891-1.198,3.404-3.583c1.515-2.392,2.324-4.205,2.434-5.455c0.213-2.06-0.596-3.094-2.434-3.094
			c-0.863,0-1.756,0.2-2.672,0.591c1.773-5.813,5.166-8.638,10.169-8.477C40.367,8.542,42.117,10.949,41.902,15.656z"/>
	</g>
</g>
<g id="you_x5F_tube_x5F_on_1_" display="none">
	<g display="inline" opacity="0.9">
		<path fill="#ED1F24" d="M13.012,6.103h2.155l1.475,5.536l1.37-5.536h2.175l-2.49,8.235v5.616h-2.139v-5.616L13.012,6.103z
			 M20.09,17.408c0,1.799,0.94,2.738,2.784,2.738c1.526,0,2.729-1.021,2.729-2.738v-5.009c0-1.601-1.19-2.747-2.729-2.747
			c-1.675,0-2.784,1.107-2.784,2.747V17.408z M22.044,12.567c0-0.559,0.257-0.976,0.792-0.976c0.583,0,0.833,0.404,0.833,0.976
			v4.751c0,0.559-0.284,0.97-0.795,0.97c-0.526,0-0.83-0.43-0.83-0.97V12.567z M30.738,9.737v7.756
			c-0.229,0.288-0.744,0.767-1.116,0.767c-0.405,0-0.506-0.28-0.506-0.69V9.737h-1.898v8.54c0,1.011,0.31,1.824,1.327,1.824
			c0.575,0,1.371-0.297,2.193-1.275v1.129h1.904V9.737H30.738z M27.943,30.686c0.132,0.168,0.195,0.418,0.195,0.746v5.024
			c0,0.31-0.053,0.533-0.158,0.67c-0.196,0.263-0.629,0.249-0.924,0.101c-0.14-0.069-0.281-0.184-0.429-0.343V30.82
			c0.123-0.131,0.247-0.233,0.374-0.297C27.318,30.364,27.727,30.396,27.943,30.686z M34.036,30.464
			c-0.671,0-0.808,0.472-0.808,1.14v0.985h1.599v-0.985C34.827,30.947,34.688,30.464,34.036,30.464z M39.553,37.643
			c0,2.403-1.949,4.354-4.355,4.354H12.804c-2.405,0-4.357-1.95-4.357-4.354V26.639c0-2.407,1.952-4.358,4.357-4.358h22.393
			c2.406,0,4.355,1.952,4.355,4.358V37.643L39.553,37.643z M15.79,27.459h2.107v-1.913h-6.253v1.913h2.109v11.275h2.038
			L15.79,27.459L15.79,27.459z M23.036,29.005h-1.808v7.386c-0.222,0.278-0.713,0.729-1.064,0.729c-0.388,0-0.483-0.262-0.483-0.653
			v-7.461h-1.808v8.134c0,1.975,1.339,1.985,2.314,1.428c0.358-0.207,0.708-0.508,1.041-0.905v1.073h1.808V29.005z M30.001,31.322
			c0-1.319-0.438-2.439-1.765-2.439c-0.646,0-1.199,0.41-1.608,0.908v-4.245h-1.827v13.188h1.827v-0.746
			c0.505,0.629,1.058,0.871,1.72,0.871c1.203,0,1.654-0.936,1.654-2.141L30.001,31.322L30.001,31.322z M36.688,31.622
			c0-1.758-0.838-2.861-2.576-2.861c-1.629,0-2.744,1.173-2.744,2.861v4.37c0,1.751,0.883,3.009,2.609,3.009
			c1.904,0,2.711-1.135,2.711-3.009v-0.734h-1.86v0.678c0,0.847-0.046,1.359-0.81,1.359c-0.728,0-0.789-0.629-0.789-1.359V34.1
			h3.459V31.622L36.688,31.622z"/>
	</g>
	<g display="inline">
		<path fill="#ED352A" d="M13.012,6.103h2.155l1.475,5.536l1.37-5.536h2.175l-2.49,8.235v5.616h-2.139v-5.616L13.012,6.103z
			 M20.09,17.408c0,1.799,0.94,2.738,2.784,2.738c1.526,0,2.729-1.021,2.729-2.738v-5.009c0-1.601-1.19-2.747-2.729-2.747
			c-1.675,0-2.784,1.107-2.784,2.747V17.408z M22.044,12.567c0-0.559,0.257-0.976,0.792-0.976c0.583,0,0.833,0.404,0.833,0.976
			v4.751c0,0.559-0.284,0.97-0.795,0.97c-0.526,0-0.83-0.43-0.83-0.97V12.567z M30.738,9.737v7.756
			c-0.229,0.288-0.744,0.767-1.116,0.767c-0.405,0-0.506-0.28-0.506-0.69V9.737h-1.898v8.54c0,1.011,0.31,1.824,1.327,1.824
			c0.575,0,1.371-0.297,2.193-1.275v1.129h1.904V9.737H30.738z M27.943,30.686c0.132,0.168,0.195,0.418,0.195,0.746v5.024
			c0,0.31-0.053,0.533-0.158,0.67c-0.196,0.263-0.629,0.249-0.924,0.101c-0.14-0.069-0.281-0.184-0.429-0.343V30.82
			c0.123-0.131,0.247-0.233,0.374-0.297C27.318,30.364,27.727,30.396,27.943,30.686z M34.036,30.464
			c-0.671,0-0.808,0.472-0.808,1.14v0.985h1.599v-0.985C34.827,30.947,34.688,30.464,34.036,30.464z M39.553,37.643
			c0,2.403-1.949,4.354-4.355,4.354H12.804c-2.405,0-4.357-1.95-4.357-4.354V26.639c0-2.407,1.952-4.358,4.357-4.358h22.393
			c2.406,0,4.355,1.952,4.355,4.358V37.643L39.553,37.643z M15.79,27.459h2.107v-1.913h-6.253v1.913h2.109v11.275h2.038
			L15.79,27.459L15.79,27.459z M23.036,29.005h-1.808v7.386c-0.222,0.278-0.713,0.729-1.064,0.729c-0.388,0-0.483-0.262-0.483-0.653
			v-7.461h-1.808v8.134c0,1.975,1.339,1.985,2.314,1.428c0.358-0.207,0.708-0.508,1.041-0.905v1.073h1.808V29.005z M30.001,31.322
			c0-1.319-0.438-2.439-1.765-2.439c-0.646,0-1.199,0.41-1.608,0.908v-4.245h-1.827v13.188h1.827v-0.746
			c0.505,0.629,1.058,0.871,1.72,0.871c1.203,0,1.654-0.936,1.654-2.141L30.001,31.322L30.001,31.322z M36.688,31.622
			c0-1.758-0.838-2.861-2.576-2.861c-1.629,0-2.744,1.173-2.744,2.861v4.37c0,1.751,0.883,3.009,2.609,3.009
			c1.904,0,2.711-1.135,2.711-3.009v-0.734h-1.86v0.678c0,0.847-0.046,1.359-0.81,1.359c-0.728,0-0.789-0.629-0.789-1.359V34.1
			h3.459V31.622L36.688,31.622z"/>
	</g>
</g>
<g id="twitter_x5F_on_1_" display="none">
	
		<image display="inline" overflow="visible" opacity="0.9" enable-background="new    " width="192" height="146" xlink:href="60B242A2.png"  transform="matrix(0.235 0 0 0.2367 1.5034 6.8623)">
	</image>
	<g display="inline">
		<path fill="#ED352A" d="M23.372,20.595c1.146-3.658,2.552-6.029,4.169-7.748c1.206-1.283,1.83-1.689,1.122-0.277
			c0.312-0.26,0.764-0.598,1.114-0.781c1.955-0.941,1.818-0.152,0.47,0.693c3.685-1.346,3.558,0.361-0.337,1.219
			c3.186,0.055,6.576,2.113,7.559,6.496c0.139,0.604-0.025,0.549,0.586,0.658c1.317,0.236,2.562,0.219,3.771-0.174
			c-0.13,0.908-1.308,1.498-3.146,1.893c-0.683,0.145-0.822,0.105-0.004,0.293c1.006,0.227,2.129,0.285,3.319,0.225
			c-0.927,1.088-2.401,1.645-4.228,1.67c-1.137,4.244-3.742,7.287-7.043,9.197c-7.75,4.492-19.044,3.857-24.722-4.268
			c3.722,2.957,9.228,3.604,13.311-0.537c-2.679,0.006-3.377-2.033-1.254-3.139c-2.009-0.019-3.288-0.66-4.041-1.834
			c-0.285-0.441-0.288-0.479,0.175-0.816c0.509-0.379,1.206-0.545,1.926-0.604c-2.084-0.604-3.355-1.707-3.801-3.188
			c-0.144-0.49-0.169-0.465,0.323-0.592c0.479-0.125,1.099-0.189,1.651-0.221c-1.637-1.006-2.615-2.24-2.865-3.605
			c-0.237-1.289,0.006-0.957,0.955-0.592C16.629,16.208,20.863,17.974,23.372,20.595L23.372,20.595z"/>
	</g>
</g>
<g id="location_2_" display="none">
	<g display="inline" opacity="0.9">
		<path fill="#ED1F24" d="M34.79,16.752c0-5.951-4.828-10.778-10.79-10.778s-10.79,4.827-10.79,10.778
			c0,1.708,0.406,3.316,1.108,4.751H14.31l9.688,20.283H24l0,0l9.688-20.283H33.68C34.382,20.068,34.79,18.46,34.79,16.752z
			 M24,10.955c3.207,0,5.811,2.603,5.811,5.81c0,1.364-0.476,2.615-1.265,3.607c-1.062,1.339-2.702,2.203-4.548,2.203
			c-1.845,0-3.482-0.863-4.548-2.203c-0.788-0.992-1.262-2.243-1.262-3.607C18.188,13.558,20.792,10.955,24,10.955z"/>
	</g>
	<g display="inline">
		<path fill="#ED352A" d="M34.79,16.752c0-5.951-4.828-10.778-10.79-10.778s-10.79,4.827-10.79,10.778
			c0,1.708,0.406,3.316,1.108,4.751H14.31l9.688,20.283H24l0,0l9.688-20.283H33.68C34.382,20.068,34.79,18.46,34.79,16.752z
			 M24,10.955c3.207,0,5.811,2.603,5.811,5.81c0,1.364-0.476,2.615-1.265,3.607c-1.062,1.339-2.702,2.203-4.548,2.203
			c-1.845,0-3.482-0.863-4.548-2.203c-0.788-0.992-1.262-2.243-1.262-3.607C18.188,13.558,20.792,10.955,24,10.955z"/>
	</g>
</g>
<g id="bluetooth_3_" display="none">
	<g display="inline" opacity="0.9">
		<path fill="#ED1F24" d="M34.109,16.987L22.087,5.974v14.109l-5.829-5.646l-2.367,2.367l7.237,6.939l-7.237,7.633l2.58,2.408
			l5.617-5.687v14.025l12.021-11.111l-7.649-7.104L34.109,16.987z M25.367,13.521l3.77,3.501l-3.77,3.501
			C25.367,20.522,25.367,13.672,25.367,13.521z M29.135,31.014l-3.769,3.5c0,0,0-6.851,0-7.002L29.135,31.014z"/>
	</g>
	<g display="inline">
		<path fill="#ED352A" d="M34.109,16.987L22.087,5.974v14.109l-5.829-5.646l-2.367,2.367l7.237,6.939l-7.237,7.633l2.58,2.408
			l5.617-5.687v14.025l12.021-11.111l-7.649-7.104L34.109,16.987z M25.367,13.521l3.77,3.501l-3.77,3.501
			C25.367,20.522,25.367,13.672,25.367,13.521z M29.135,31.014l-3.769,3.5c0,0,0-6.851,0-7.002L29.135,31.014z"/>
	</g>
</g>
<g id="facebook_2_" display="none">
	<g display="inline" opacity="0.9">
		<path fill="#ED1F24" d="M36.477,7.525H11.526c-2.209,0-4,1.791-4,3.999v24.953c0,2.209,1.792,4,4,4h24.951
			c2.209,0,3.998-1.791,3.998-4V11.524C40.475,9.316,38.686,7.525,36.477,7.525z M29.419,16.374c0,0-1.832,0-2.558,0
			c-0.903,0-1.092,0.371-1.092,1.305c0,0.777,0,2.258,0,2.258h3.649L29.066,23.9H25.77v11.84h-4.728V23.95h-2.458v-4.014h2.458
			c0,0,0-0.577,0-3.16c0-2.965,1.585-4.516,5.104-4.516c0.576,0,3.272,0,3.272,0V16.374z"/>
	</g>
	<g display="inline">
		<path fill="#ED352A" d="M36.477,7.525H11.526c-2.209,0-4,1.791-4,3.999v24.953c0,2.209,1.792,4,4,4h24.951
			c2.209,0,3.998-1.791,3.998-4V11.524C40.475,9.316,38.686,7.525,36.477,7.525z M29.419,16.374c0,0-1.832,0-2.558,0
			c-0.903,0-1.092,0.371-1.092,1.305c0,0.777,0,2.258,0,2.258h3.649L29.066,23.9H25.77v11.84h-4.728V23.95h-2.458v-4.014h2.458
			c0,0,0-0.577,0-3.16c0-2.965,1.585-4.516,5.104-4.516c0.576,0,3.272,0,3.272,0V16.374z"/>
	</g>
</g>
<g>
	<path fill="#DDDFDA" d="M10.933,15.507h1.568c1.044,0,1.044-2.614,2.09-2.614h1.047h0.002h0.008h0.014h0.009h0.009h0.022h0.011
		h0.018h0.025h0.006h0.033h0.002h0.039h0.002h0.039h0.006h0.033h0.014h0.025h0.027h0.01h0.037h0.01h0.027h0.031h0.004h0.033h0.023
		h0.012h0.033h0.023h0.008h0.032h0.028h0.003h0.028h0.027h0.014h0.015h0.025h0.026h0.008h0.018h0.023h0.02h0.016h0.007h0.021h0.018
		h0.018h0.016h0.004h0.01h0.016h0.01h0.012h0.01h0.009h0.007h0.004h0.006l0,0l0,0l0,0h3.66c1.047,0,1.047,2.614,2.092,2.614h9.932
		c0-0.577,0.469-1.045,1.047-1.045h1.045c0.578,0,1.046,0.469,1.046,1.045h1.567c1.445,0,2.613,1.171,2.613,2.615v14.37
		c0,1.443-1.168,2.615-2.613,2.615H10.933c-1.443,0-2.615-1.172-2.615-2.615v-14.37C8.317,16.679,9.489,15.507,10.933,15.507
		L10.933,15.507z M29.228,18.25c-3.896,0-7.057,3.16-7.057,7.056s3.16,7.057,7.057,7.057c3.898,0,7.059-3.16,7.059-7.057
		S33.126,18.25,29.228,18.25L29.228,18.25z M14.591,20.079h3.137c0.576,0,1.045-0.468,1.045-1.045v-0.523
		c0-0.578-0.469-1.044-1.045-1.044h-3.137c-0.576,0-1.046,0.467-1.046,1.044v0.523C13.545,19.611,14.015,20.079,14.591,20.079z"/>
	<path fill="#DDDFDA" d="M29.228,20.133c-2.855,0-5.174,2.316-5.174,5.174s2.318,5.176,5.174,5.176c2.857,0,5.176-2.318,5.176-5.176
		S32.085,20.133,29.228,20.133L29.228,20.133z"/>
</g>
</svg>
