<?xml version="1.0" encoding="utf-8"?>
<!-- Generator: Adobe Illustrator 15.0.0, SVG Export Plug-In . SVG Version: 6.00 Build 0)  -->
<!DOCTYPE svg PUBLIC "-//W3C//DTD SVG 1.1//EN" "http://www.w3.org/Graphics/SVG/1.1/DTD/svg11.dtd">
<svg version="1.1" id="Layer_1" xmlns="http://www.w3.org/2000/svg" xmlns:xlink="http://www.w3.org/1999/xlink" x="0px" y="0px"
	 width="196px" height="196px" viewBox="0 0 196 196" enable-background="new 0 0 196 196" xml:space="preserve">
<g opacity="0.9" enable-background="new    ">
	<path fill="#D1D3D4" d="M181.74,96.238c0,46.816-37.951,84.767-84.767,84.767s-84.767-37.951-84.767-84.767 M1.214,96.238
		C1.214,153.456,39.756,196,96.974,196c57.218,0,95.759-42.544,95.759-99.762"/>
</g>
<path fill="#FFFFFF" d="M96.973,192.504c-53.1,0-96.297-43.199-96.297-96.296c0-53.1,43.197-96.299,96.297-96.3
	c53.1,0,96.298,43.199,96.298,96.3C193.271,149.305,150.072,192.504,96.973,192.504z M96.973,11.637
	c-46.633,0-84.568,37.938-84.568,84.57c0,46.629,37.936,84.566,84.568,84.566c46.63,0,84.568-37.938,84.568-84.566
	C181.541,49.576,143.604,11.637,96.973,11.637z"/>
<path fill="#00AEEF" d="M133.904,7.359c-22.992-9.522-48.331-9.821-71.613-0.791C12.78,25.766-11.876,81.659,7.319,131.168
	l10.938-4.242C1.399,83.45,23.055,34.362,66.531,17.504c21.062-8.166,44.051-7.663,64.709,1.476
	c20.666,9.116,36.545,25.738,44.709,46.799l10.941-4.241c-9.299-23.983-27.383-42.909-50.918-53.292
	C135.287,7.942,134.594,7.645,133.904,7.359z"/>
<circle opacity="0.9" fill="#AFE0E7" enable-background="new    " cx="96.974" cy="96.207" r="84.767"/>
<circle fill="none" stroke="#FFFFFF" stroke-miterlimit="10" cx="96.973" cy="96.207" r="67.812"/>
<path fill="#FFFFFF" d="M77.982,73.208c0-1.045,0.742-1.473,1.646-0.95l39.836,23.001c0.904,0.522,0.904,1.378-0.002,1.9
	L79.63,120.154c-0.906,0.522-1.648,0.096-1.648-0.948V73.208z"/>
</svg>
