<?xml version="1.0" encoding="utf-8"?>
<!-- Generator: Adobe Illustrator 15.0.0, SVG Export Plug-In  -->
<!DOCTYPE svg PUBLIC "-//W3C//DTD SVG 1.1//EN" "http://www.w3.org/Graphics/SVG/1.1/DTD/svg11.dtd" [
	<!ENTITY ns_flows "http://ns.adobe.com/Flows/1.0/">
]>
<svg version="1.1"
	 xmlns="http://www.w3.org/2000/svg" xmlns:xlink="http://www.w3.org/1999/xlink" xmlns:a="http://ns.adobe.com/AdobeSVGViewerExtensions/3.0/"
	 x="0px" y="0px" width="196px" height="196px" viewBox="-1.001 0 196 196"
	 overflow="visible" enable-background="new -1.001 0 196 196" xml:space="preserve">
<defs>
</defs>
<circle opacity="0.9" fill="#AFE0E7" enable-background="new    " cx="95.709" cy="96.286" r="84.767"/>
<circle fill="none" stroke="#FFFFFF" stroke-miterlimit="10" cx="95.708" cy="96.286" r="67.812"/>
<path id="upload-2-icon_1_" fill="#FFFFFF" d="M85.774,85.478h-8.193l17.818-17.847l17.818,17.847h-8.194V107.9H85.774V85.478z
	 M112,106.195v8.061H78.795v-8.061H72.61v14.242h45.573v-14.242H112z"/>
<path fill="#FFFFFF" d="M96.299,192.596c-53.1,0-96.297-43.199-96.297-96.296C0.002,43.2,43.2,0.001,96.299,0
	c53.099,0,96.298,43.199,96.298,96.3C192.598,149.396,149.396,192.596,96.299,192.596z M96.299,11.729
	c-46.632,0-84.568,37.938-84.568,84.57c0,46.629,37.937,84.566,84.568,84.566c46.63,0,84.568-37.938,84.568-84.566
	C180.867,49.668,142.93,11.729,96.299,11.729z"/>
<path fill="#00AEEF" d="M96.196,192.596c-24.886-0.002-48.409-9.422-66.465-26.674c-38.394-36.683-39.785-97.758-3.104-136.15
	l8.481,8.104C2.896,71.59,4.118,125.229,37.833,157.439c16.334,15.604,37.767,23.938,60.348,23.401
	c22.58-0.515,43.611-9.795,59.217-26.127l8.482,8.104c-17.768,18.6-41.717,29.164-67.434,29.75
	C97.695,192.587,96.944,192.596,96.196,192.596z"/>
</svg>
