<?xml version="1.0" encoding="utf-8"?>
<!-- Generator: Adobe Illustrator 15.0.0, SVG Export Plug-In  -->
<!DOCTYPE svg PUBLIC "-//W3C//DTD SVG 1.1//EN" "http://www.w3.org/Graphics/SVG/1.1/DTD/svg11.dtd" [
	<!ENTITY ns_flows "http://ns.adobe.com/Flows/1.0/">
]>
<svg version="1.1"
	 xmlns="http://www.w3.org/2000/svg" xmlns:xlink="http://www.w3.org/1999/xlink" xmlns:a="http://ns.adobe.com/AdobeSVGViewerExtensions/3.0/"
	 x="0px" y="0px" width="196px" height="196px" viewBox="-1.508 -1.708 196 196"
	 overflow="visible" enable-background="new -1.508 -1.708 196 196" xml:space="preserve">
<defs>
</defs>
<path fill="#FFFFFF" d="M96.297,192.596C43.198,192.596,0,149.397,0,96.301C0,43.201,43.198,0.002,96.297,0
	c53.1,0,96.299,43.199,96.299,96.301C192.596,149.397,149.396,192.596,96.297,192.596z M96.297,11.73
	c-46.632,0-84.569,37.938-84.569,84.57c0,46.628,37.938,84.566,84.569,84.566c46.631,0,84.568-37.938,84.568-84.566
	C180.865,49.669,142.928,11.73,96.297,11.73z"/>
<path fill="#00AEEF" d="M28.668,163.753c17.598,17.596,40.894,27.568,65.858,28.136c53.087,1.21,97.258-40.992,98.47-94.077
	l-11.729-0.268c-1.062,46.619-39.854,83.68-86.472,82.618c-22.585-0.516-43.632-9.776-59.22-26.125
	c-15.604-16.331-23.913-37.762-23.401-60.347L0.448,93.423c-0.586,25.715,8.877,50.12,26.646,68.72
	C27.614,162.686,28.14,163.222,28.668,163.753z"/>
<circle opacity="0.9" fill="#AFE0E7" cx="96.709" cy="96.208" r="84.766"/>
<circle fill="none" stroke="#FFFFFF" stroke-miterlimit="10" cx="96.708" cy="96.208" r="67.812"/>
<path id="upload-2-icon_18_" fill="#FFFFFF" d="M87.086,85.417h-8.193l17.818-17.847l17.818,17.847h-8.195v22.423H87.086V85.417z
	 M113.312,106.135v8.061H80.107v-8.061h-6.185v14.243h45.573v-14.243H113.312z"/>
</svg>
