<?xml version="1.0" encoding="utf-8"?>
<!-- Generator: Adobe Illustrator 15.0.0, SVG Export Plug-In . SVG Version: 6.00 Build 0)  -->
<!DOCTYPE svg PUBLIC "-//W3C//DTD SVG 1.1//EN" "http://www.w3.org/Graphics/SVG/1.1/DTD/svg11.dtd">
<svg version="1.1" id="Layer_1" xmlns="http://www.w3.org/2000/svg" xmlns:xlink="http://www.w3.org/1999/xlink" x="0px" y="0px"
	 width="196px" height="196px" viewBox="0 0 196 196" enable-background="new 0 0 196 196" xml:space="preserve">
<circle opacity="0.9" fill="#AFE0E7" enable-background="new    " cx="96.71" cy="95.766" r="84.767"/>
<circle fill="none" stroke="#FFFFFF" stroke-miterlimit="10" cx="96.709" cy="95.766" r="67.812"/>
<path id="upload-2-icon_1_" fill="#FFFFFF" d="M86.775,84.958h-8.193L96.4,67.111l17.818,17.847h-8.194v22.422H86.775V84.958z
	 M113.001,105.676v8.061H79.796v-8.061h-6.185v14.242h45.573v-14.242H113.001z"/>
<path fill="#FFFFFF" d="M96.297,192.104C43.198,192.104,0,148.904,0,95.81C0,42.71,43.198-0.489,96.297-0.491
	c53.1,0,96.299,43.199,96.299,96.301C192.596,148.904,149.396,192.104,96.297,192.104z M96.297,11.239
	c-46.632,0-84.569,37.938-84.569,84.57c0,46.628,37.938,84.566,84.569,84.566s84.568-37.938,84.568-84.566
	C180.865,49.178,142.928,11.239,96.297,11.239z"/>
<path fill="#00AEEF" d="M28.355,163.943c17.598,17.597,40.894,27.566,65.858,28.136c53.087,1.211,97.258-40.992,98.471-94.076
	l-11.729-0.269c-1.062,46.62-39.854,83.681-86.474,82.618c-22.585-0.516-43.632-9.774-59.22-26.125
	c-15.602-16.33-23.911-37.761-23.4-60.347L0.136,93.613c-0.586,25.716,8.877,50.12,26.646,68.72
	C27.301,162.876,27.828,163.413,28.355,163.943z"/>
</svg>
