<?xml version="1.0" encoding="utf-8"?>
<!-- Generator: Adobe Illustrator 15.0.0, SVG Export Plug-In  -->
<!DOCTYPE svg PUBLIC "-//W3C//DTD SVG 1.1//EN" "http://www.w3.org/Graphics/SVG/1.1/DTD/svg11.dtd" [
	<!ENTITY ns_flows "http://ns.adobe.com/Flows/1.0/">
]>
<svg version="1.1"
	 xmlns="http://www.w3.org/2000/svg" xmlns:xlink="http://www.w3.org/1999/xlink" xmlns:a="http://ns.adobe.com/AdobeSVGViewerExtensions/3.0/"
	 x="0px" y="0px" width="48px" height="48px" viewBox="-5.332 -10.886 48 48"
	 overflow="visible" enable-background="new -5.332 -10.886 48 48" xml:space="preserve">
<defs>
</defs>
<g>
	<g>
		<path fill="#DDDFDB" d="M36.86,4.879c-0.142-2.408-2.229-4.439-4.64-4.513c0,0-4.256-0.366-13.541-0.366
			C8.808,0,5.2,0.366,5.2,0.366C2.789,0.44,0.696,2.471,0.548,4.879c0,0-0.548,2.708-0.548,8.16c0,5.623,0.549,8.237,0.549,8.237
			c0.147,2.409,2.24,4.439,4.651,4.513c0,0,5.411,0.439,13.479,0.439c7.417,0,13.541-0.439,13.541-0.439
			c2.411-0.074,4.498-2.105,4.638-4.514c0,0,0.478-2.538,0.478-8.237C37.336,7.628,36.86,4.879,36.86,4.879z M14.802,18.063V7.365
			l10.067,5.349L14.802,18.063z"/>
	</g>
</g>
</svg>
