<?xml version="1.0" encoding="utf-8"?>
<!-- Generator: Adobe Illustrator 15.0.0, SVG Export Plug-In  -->
<!DOCTYPE svg PUBLIC "-//W3C//DTD SVG 1.1//EN" "http://www.w3.org/Graphics/SVG/1.1/DTD/svg11.dtd" [
	<!ENTITY ns_flows "http://ns.adobe.com/Flows/1.0/">
]>
<svg version="1.1"
	 xmlns="http://www.w3.org/2000/svg" xmlns:xlink="http://www.w3.org/1999/xlink" xmlns:a="http://ns.adobe.com/AdobeSVGViewerExtensions/3.0/"
	 x="0px" y="0px" width="104px" height="104px" viewBox="-1.2 -1.3 104 104"
	 overflow="visible" enable-background="new -1.2 -1.3 104 104" xml:space="preserve">
<defs>
</defs>
<path fill="#FFFFFF" d="M50.7,101.4C22.7,101.4,0,78.7,0,50.7C0,22.8,22.7,0,50.7,0c27.9,0,50.7,22.7,50.7,50.7
	C101.4,78.7,78.6,101.4,50.7,101.4z M50.7,6.2c-24.5,0-44.5,20-44.5,44.5c0,24.5,20,44.5,44.5,44.5c24.5,0,44.5-20,44.5-44.5
	C95.2,26.2,75.2,6.2,50.7,6.2z"/>
<path fill="#00AEEF" d="M86.5,86.5c9.3-9.3,14.5-21.5,14.8-34.7C102,23.9,79.8,0.6,51.8,0l-0.1,6.2c24.5,0.6,44,21,43.5,45.5
	c-0.3,11.9-5.1,23-13.8,31.2c-8.6,8.2-19.9,12.6-31.8,12.3l-0.1,6.2c13.5,0.3,26.4-4.7,36.2-14C86,87,86.3,86.8,86.5,86.5z"/>
<circle opacity="0.9" fill="#AFE0E7" cx="50.9" cy="50.7" r="44.6"/>
<circle fill="none" stroke="#FFFFFF" stroke-miterlimit="10" cx="50.9" cy="50.7" r="35.7"/>
<path fill="#FFFFFF" d="M40.7,38.6c0-0.5,0.4-0.8,0.9-0.5l21,12.1c0.5,0.3,0.5,0.7,0,1l-21,12.1c-0.5,0.3-0.9,0-0.9-0.5V38.6z"/>
</svg>
