<?xml version="1.0" encoding="utf-8"?>
<!-- Generator: Adobe Illustrator 15.0.0, SVG Export Plug-In  -->
<!DOCTYPE svg PUBLIC "-//W3C//DTD SVG 1.1//EN" "http://www.w3.org/Graphics/SVG/1.1/DTD/svg11.dtd" [
	<!ENTITY ns_flows "http://ns.adobe.com/Flows/1.0/">
]>
<svg version="1.1"
	 xmlns="http://www.w3.org/2000/svg" xmlns:xlink="http://www.w3.org/1999/xlink" xmlns:a="http://ns.adobe.com/AdobeSVGViewerExtensions/3.0/"
	 x="0px" y="0px" width="196px" height="196px" viewBox="-1.601 -1.708 196 196"
	 overflow="visible" enable-background="new -1.601 -1.708 196 196" xml:space="preserve">
<defs>
</defs>
<path fill="#FFFFFF" d="M96.299,192.596c-53.1,0-96.297-43.199-96.297-96.296c0-53.1,43.197-96.299,96.297-96.3
	c53.099,0,96.299,43.199,96.299,96.3C192.598,149.396,149.397,192.596,96.299,192.596z M96.299,11.729
	c-46.632,0-84.568,37.938-84.568,84.57c0,46.629,37.937,84.566,84.568,84.566c46.63,0,84.568-37.938,84.568-84.566
	C180.867,49.668,142.929,11.729,96.299,11.729z"/>
<path fill="#00AEEF" d="M96.195,192.596c-24.886-0.002-48.409-9.422-66.465-26.674c-38.394-36.683-39.785-97.758-3.104-136.15
	l8.481,8.104C2.895,71.59,4.117,125.228,37.833,157.44c16.334,15.604,37.767,23.938,60.348,23.401
	c22.581-0.515,43.612-9.795,59.217-26.127l8.483,8.104c-17.768,18.6-41.717,29.164-67.434,29.751
	C97.696,192.587,96.944,192.596,96.195,192.596z"/>
<circle opacity="0.9" fill="#AFE0E7" cx="96.712" cy="96.207" r="84.767"/>
<circle fill="none" stroke="#FFFFFF" stroke-miterlimit="10" cx="96.71" cy="96.207" r="67.812"/>
<path id="upload-2-icon_18_" fill="#FFFFFF" d="M87.088,85.417h-8.193L96.713,67.57l17.818,17.847h-8.195v22.423H87.088V85.417z
	 M113.314,106.135v8.061H80.109v-8.061h-6.185v14.243h45.573v-14.243H113.314z"/>
</svg>
