<?xml version="1.0" encoding="utf-8"?>
<!-- Generator: Adobe Illustrator 15.0.0, SVG Export Plug-In . SVG Version: 6.00 Build 0)  -->
<!DOCTYPE svg PUBLIC "-//W3C//DTD SVG 1.1//EN" "http://www.w3.org/Graphics/SVG/1.1/DTD/svg11.dtd">
<svg version="1.1" id="Layer_1" xmlns="http://www.w3.org/2000/svg" xmlns:xlink="http://www.w3.org/1999/xlink" x="0px" y="0px"
	 width="196px" height="196px" viewBox="0 0 196 196" enable-background="new 0 0 196 196" xml:space="preserve">
<path fill="#FFFFFF" d="M98.014,181.016c-46.808,0-84.888-38.08-84.888-84.885c0-46.808,38.08-84.889,84.888-84.89
	c46.806,0,84.89,38.081,84.89,84.89C182.904,142.936,144.82,181.016,98.014,181.016z M98.014,21.581
	c-41.107,0-74.548,33.442-74.548,74.55c0,41.102,33.442,74.546,74.548,74.546c41.107,0,74.548-33.444,74.548-74.546
	C172.562,55.024,139.121,21.581,98.014,21.581z"/>
<g>
	<g opacity="0.9">
		<circle fill="#231F20" stroke="#FFFFFF" stroke-width="3" stroke-miterlimit="10" cx="97.783" cy="96.044" r="84.806"/>
	</g>
	<g>
		<path fill="#FFFFFF" d="M101.275,92.512h20.312v5.723h-20.312v21.213h-6.269V98.234H74.976v-5.723h20.033v-20.76h6.267V92.512
			L101.275,92.512z"/>
	</g>
</g>
<circle fill="none" stroke="#FFFFFF" stroke-miterlimit="10" cx="97.782" cy="96.298" r="67.812"/>
</svg>
