<?xml version="1.0" encoding="utf-8"?>
<!-- Generator: Adobe Illustrator 15.0.0, SVG Export Plug-In . SVG Version: 6.00 Build 0)  -->
<!DOCTYPE svg PUBLIC "-//W3C//DTD SVG 1.1//EN" "http://www.w3.org/Graphics/SVG/1.1/DTD/svg11.dtd">
<svg version="1.1" id="Layer_1" xmlns="http://www.w3.org/2000/svg" xmlns:xlink="http://www.w3.org/1999/xlink" x="0px" y="0px"
	 width="196px" height="196px" viewBox="0 0 196 196" enable-background="new 0 0 196 196" xml:space="preserve">
<circle opacity="0.9" fill="#AFE0E7" enable-background="new    " cx="96.166" cy="96.298" r="84.767"/>
<circle fill="none" stroke="#FFFFFF" stroke-miterlimit="10" cx="96.165" cy="96.298" r="67.812"/>
<path id="upload-2-icon_2_" fill="#FFFFFF" d="M86.23,85.49h-8.193l17.818-17.847l17.818,17.847h-8.194v22.422H86.23V85.49z
	 M112.457,106.207v8.061H79.251v-8.061h-6.185v14.242h45.573v-14.242H112.457z"/>
<path fill="#FFFFFF" d="M96.297,192.596C43.197,192.596,0,149.396,0,96.3C0,43.2,43.197,0.001,96.297,0
	c53.1,0,96.299,43.199,96.299,96.3C192.594,149.396,149.396,192.596,96.297,192.596z M96.297,11.729
	c-46.633,0-84.568,37.938-84.568,84.57c0,46.629,37.936,84.566,84.568,84.566c46.631,0,84.566-37.938,84.566-84.566
	C180.865,49.668,142.926,11.729,96.297,11.729z"/>
<path fill="#00AEEF" d="M59.39,7.48C36.398,17.005,18.271,34.711,8.193,57.56c-21.436,48.583,0.652,105.54,49.233,126.976
	l4.735-10.734C19.5,154.98,0.101,104.957,18.923,62.294c9.118-20.667,25.73-36.567,46.799-44.713
	c21.061-8.167,44.042-7.642,64.706,1.478l4.738-10.736C111.633-2.061,85.462-2.656,61.478,6.645
	C60.78,6.916,60.079,7.195,59.39,7.48z"/>
</svg>
