<?xml version="1.0" encoding="utf-8"?>
<!-- Generator: Adobe Illustrator 15.0.0, SVG Export Plug-In . SVG Version: 6.00 Build 0)  -->
<!DOCTYPE svg PUBLIC "-//W3C//DTD SVG 1.1//EN" "http://www.w3.org/Graphics/SVG/1.1/DTD/svg11.dtd">
<svg version="1.1" id="Layer_1" xmlns="http://www.w3.org/2000/svg" xmlns:xlink="http://www.w3.org/1999/xlink" x="0px" y="0px"
	 width="196px" height="196px" viewBox="0 0 196 196" enable-background="new 0 0 196 196" xml:space="preserve">
<path fill="#D1D3D4" d="M182.064,97.211c0,46.816-37.951,84.768-84.769,84.768c-46.816,0-84.766-37.951-84.766-84.768 M1.539,97.211
	c0,57.218,38.542,99.762,95.759,99.762c57.218,0,95.759-42.544,95.759-99.762"/>
<path fill="#FFFFFF" d="M96.297,192.596C43.197,192.596,0,149.396,0,96.3C0,43.2,43.197,0.001,96.297,0
	c53.1,0,96.301,43.199,96.301,96.3C192.598,149.396,149.396,192.596,96.297,192.596z M96.297,11.729
	c-46.632,0-84.568,37.938-84.568,84.57c0,46.629,37.937,84.566,84.568,84.566c46.63,0,84.568-37.938,84.568-84.566
	C180.866,49.668,142.927,11.729,96.297,11.729z"/>
<path fill="#00AEEF" d="M133.491,185.236c-22.992,9.521-48.328,9.82-71.611,0.793C12.37,166.832-12.287,110.938,6.909,61.431
	l10.938,4.241c-16.859,43.475,4.797,92.562,48.273,109.419c21.062,8.165,44.051,7.663,64.707-1.474
	c20.666-9.117,36.543-25.739,44.711-46.801l10.938,4.24c-9.297,23.983-27.381,42.909-50.916,53.293
	C134.874,184.654,134.184,184.95,133.491,185.236z"/>
<circle opacity="0.9" fill="#AFE0E7" enable-background="new    " cx="96.71" cy="96.207" r="84.767"/>
<circle fill="none" stroke="#FFFFFF" stroke-miterlimit="10" cx="96.708" cy="96.207" r="67.812"/>
<path fill="#FFFFFF" d="M77.72,73.208c0-1.045,0.741-1.473,1.645-0.95l39.837,23.001c0.903,0.522,0.903,1.378,0,1.9l-39.835,22.995
	c-0.905,0.521-1.646,0.096-1.646-0.948L77.72,73.208L77.72,73.208z"/>
</svg>
