<?xml version="1.0" encoding="utf-8"?>
<!-- Generator: Adobe Illustrator 15.0.0, SVG Export Plug-In . SVG Version: 6.00 Build 0)  -->
<!DOCTYPE svg PUBLIC "-//W3C//DTD SVG 1.1//EN" "http://www.w3.org/Graphics/SVG/1.1/DTD/svg11.dtd">
<svg version="1.1" id="Layer_1" xmlns="http://www.w3.org/2000/svg" xmlns:xlink="http://www.w3.org/1999/xlink" x="0px" y="0px"
	 width="32px" height="32px" viewBox="0 0 32 32" enable-background="new 0 0 32 32" xml:space="preserve">
<path display="none" fill="#009444" d="M38.314,17.105c1.203-0.526,0.679-2.725,0.679-4.229c0-2.079-0.214-4.104,1.521-4.4
	c4.049-0.691,1.316,6.186,2.879,8.8c2.115-1.643-1.307-8.961,2.705-8.8c3.426,0.14,0.789,6.332,2.369,8.8
	c1.76-1.458-0.332-6.028,1.354-7.275c0.451-0.334,1.867-0.498,2.539,0c1.375,1.018,0.703,9.068,0.677,11.505
	c-0.05,4.763-0.511,8.339-1.183,10.66c-4.496-0.704-9.182,0.951-13.367,0c-1.313-0.298-3.688-2.513-4.737-3.384
	c-1.392-1.153-3.451-2.811-3.726-4.23c-0.592-3.092,2.894-5.279,3.295-8.291c0.771,1.993-1.495,6.269,0.091,7.445
	c0.911-1.05,0.508-3.34,0.508-5.246c0-3.518,0-7.563,0-11.337c0-2.848-0.67-6.844,1.69-7.106c3.261-0.362,2.199,5.474,2.199,8.969
	c0,1.492,0,3.019,0,4.398C37.809,14.699,37.396,16.346,38.314,17.105z"/>
<path id="edit-8-icon_1_" display="none" d="M0.001,36.445l9.975-2.256l-7.539-7.53L0.001,36.445z M21.986,6.897L4.567,24.307
	l7.766,7.762l17.421-17.409L21.986,6.897z"/>
<polygon id="open_x5F_arrow_2_" display="none" fill="#555452" points="0.001,36.873 29.977,36.873 29.977,6.897 "/>
<polygon display="none" fill="#555452" points="18.184,17.045 18.184,10.222 29.914,21.934 18.18,33.646 18.18,26.581 0.203,26.581 
	0.203,17.045 "/>
<polygon display="none" fill="#555452" points="11.732,26.823 11.732,33.646 0.001,21.936 11.735,10.221 11.735,17.288 
	29.713,17.288 29.713,26.823 "/>
<polygon id="expand_1_" display="none" fill="#555452" points="7.892,6.819 7.892,36.977 22.969,21.898 "/>
<path id="fullscreen-icon_1_" display="none" d="M7.862,34.344l2.547,2.555H0V26.489l2.554,2.549l4.17-4.17l5.307,5.309
	L7.862,34.344z M19.594,6.897l2.549,2.553l-4.084,4.083l5.31,5.307l4.084-4.083l2.551,2.548V6.897H19.594z M2.554,14.757L0,17.305
	V6.897h10.409L7.862,9.449l4.168,4.169l-5.307,5.309L2.554,14.757z M30.002,26.489l-2.551,2.549l-4.084-4.085l-5.309,5.309
	l4.084,4.086l-2.55,2.551h10.409V26.489z"/>
<polygon id="play_2_" display="none" points="25.85,21.896 4.151,36.896 4.151,6.9 "/>
<rect x="19.251" y="7.95" display="none" width="8.343" height="27.896"/>
<rect x="2.407" y="7.95" display="none" width="8.343" height="27.896"/>
<polygon display="none" fill="#333333" points="24.354,33.111 1.946,33.111 1.946,10.706 25.955,10.706 25.955,9.105 0.346,9.105 
	0.346,34.713 25.955,34.713 25.955,9.11 24.354,9.11 "/>
<polygon display="none" fill="#ED352A" points="26.044,8.405 13.131,23.121 7.9,18.529 4.732,22.141 13.573,29.896 29.654,11.569 
	"/>
<polygon display="none" fill="#333333" points="24.354,33.111 1.946,33.111 1.946,10.706 22.753,10.706 22.753,9.105 0.346,9.105 
	0.346,34.713 25.955,34.713 25.955,20.309 24.354,20.309 "/>
<path display="none" d="M6.812,24.395c-1.921,0.002-3.483-1.562-3.483-3.481c0-1.922,1.562-3.485,3.483-3.485h8.692l-2.627-3.201
	H6.812c-3.692,0-6.685,2.994-6.685,6.686c0,3.69,2.993,6.683,6.685,6.683H9.5h1.796h0.872l-2.67-3.199"/>
<path display="none" d="M23.188,17.428c1.922,0,3.485,1.563,3.485,3.485c0,1.92-1.563,3.483-3.485,3.483h-8.691l2.67,3.199h6.021
	c3.692,0,6.686-2.992,6.686-6.684s-2.992-6.686-6.686-6.686h-1.685h-2.62h-0.509h-0.5l2.627,3.201h0.875
	c0.001,0,0.002-0.001,0.003-0.001"/>
<path id="link_x5F_locked_1_" display="none" d="M13.141,14.228c0.646,0,1.27,0.093,1.861,0.263c3.29,0.953,5.389,4.297,4.686,7.729
	h-3.3c0.606-1.555,0.046-3.345-1.385-4.252c-0.54-0.341-1.177-0.539-1.861-0.539H6.812c-1.921,0-3.483,1.562-3.483,3.484
	c0,1.92,1.562,3.482,3.483,3.482h1.952c0.533,1.238,1.344,2.33,2.354,3.199H6.812c-3.692,0-6.685-2.992-6.685-6.683
	s2.993-6.686,6.685-6.686L13.141,14.228L13.141,14.228z M23.188,14.228h-4.304c1.009,0.87,1.819,1.96,2.354,3.202h1.949
	c1.922,0,3.485,1.562,3.485,3.484c0,1.92-1.563,3.482-3.485,3.482h-6.326c-1.928,0-3.484-1.574-3.484-3.482
	c0-0.447,0.085-0.917,0.237-1.309h-3.303c-0.088,0.437-0.133,0.846-0.133,1.309c0,1.193,0.315,2.398,0.979,3.482
	c0.859,1.406,2.226,2.471,3.844,2.936c0.589,0.172,1.214,0.266,1.86,0.266h6.326c3.692,0,6.686-2.992,6.686-6.684
	S26.881,14.228,23.188,14.228z"/>
<polygon fill="#565552" points="12.732,20.592 12.732,27.416 1.001,15.705 12.735,3.99 12.735,11.057 30.713,11.057 30.713,20.592 
	"/>
</svg>
