<?xml version="1.0" encoding="utf-8"?>
<!-- Generator: Adobe Illustrator 15.0.0, SVG Export Plug-In . SVG Version: 6.00 Build 0)  -->
<!DOCTYPE svg PUBLIC "-//W3C//DTD SVG 1.1//EN" "http://www.w3.org/Graphics/SVG/1.1/DTD/svg11.dtd" [
	<!ENTITY ns_extend "http://ns.adobe.com/Extensibility/1.0/">
	<!ENTITY ns_ai "http://ns.adobe.com/AdobeIllustrator/10.0/">
	<!ENTITY ns_graphs "http://ns.adobe.com/Graphs/1.0/">
	<!ENTITY ns_vars "http://ns.adobe.com/Variables/1.0/">
	<!ENTITY ns_imrep "http://ns.adobe.com/ImageReplacement/1.0/">
	<!ENTITY ns_sfw "http://ns.adobe.com/SaveForWeb/1.0/">
	<!ENTITY ns_custom "http://ns.adobe.com/GenericCustomNamespace/1.0/">
	<!ENTITY ns_adobe_xpath "http://ns.adobe.com/XPath/1.0/">
]>
<svg version="1.1" id="Layer_1" xmlns:x="&ns_extend;" xmlns:i="&ns_ai;" xmlns:graph="&ns_graphs;"
	 xmlns="http://www.w3.org/2000/svg" xmlns:xlink="http://www.w3.org/1999/xlink" x="0px" y="0px" width="48px" height="48px"
	 viewBox="0 0 48 48" enable-background="new 0 0 48 48" xml:space="preserve">
<metadata>
	<sfw  xmlns="&ns_sfw;">
		<slices></slices>
		<sliceSourceBounds  height="113.997" width="109.123" y="202.614" x="381.831" bottomLeftOrigin="true"></sliceSourceBounds>
	</sfw>
</metadata>
<path display="none" fill="#555452" d="M101.094,125.489h-3.709v-3.794h2.211c0.771,0,1.403-0.631,1.403-1.404v-10.456
	c0-0.772-0.632-1.403-1.403-1.403h-6.371c-0.772,0-1.406,0.631-1.406,1.403v10.456c0,0.771,0.634,1.404,1.406,1.404h2.209v3.794
	h-3.709c-0.552,0-1.002,0.45-1.002,1.003v1.394h11.375v-1.394C102.098,125.939,101.646,125.489,101.094,125.489z"/>
<path display="none" fill="#555452" d="M114.255,108.062l-2.079,1.363c2.111,2.028,3.317,5.025,3.318,8.271
	c-0.001,3.244-1.207,6.24-3.318,8.27l2.079,1.365c2.347-2.469,3.675-5.928,3.675-9.634c0,0,0,0,0-0.001l0,0
	C117.932,113.989,116.602,110.529,114.255,108.062z"/>
<path display="none" fill="#555452" d="M112.861,117.697c0-2.67-0.945-5.184-2.615-7l-2.041,1.395
	c1.412,1.381,2.219,3.415,2.219,5.605v0.001c0,2.19-0.807,4.225-2.219,5.604l2.041,1.396
	C111.916,122.881,112.861,120.366,112.861,117.697L112.861,117.697z"/>
<path display="none" fill="#555452" d="M104.361,114.564c0.633,0.854,0.984,1.957,0.984,3.133v0.001
	c0,1.175-0.353,2.278-0.984,3.132l2.039,1.34c0.891-1.253,1.383-2.822,1.383-4.473v-0.002c0-1.648-0.493-3.219-1.383-4.473
	L104.361,114.564z"/>
<path display="none" fill="#555452" d="M93.219,110.939h1.333c0.888,0,0.888-2.224,1.776-2.224h0.89h0.003h0.006h0.012h0.009h0.007
	h0.021h0.009h0.015h0.021h0.005h0.028l0,0h0.033h0.002h0.032h0.004h0.029h0.012h0.021h0.022h0.009h0.031h0.008h0.022h0.026h0.004
	h0.029h0.02h0.01h0.029h0.019h0.007h0.027h0.023h0.002h0.022h0.024h0.011h0.015h0.021h0.022h0.01h0.015h0.021h0.019h0.013h0.006
	h0.018h0.015h0.015h0.016h0.002h0.009h0.015h0.008h0.011h0.008h0.009H98.1l0,0h0.004l0,0l0,0l0,0h3.111
	c0.889,0,0.889,2.224,1.778,2.224h8.442c0-0.49,0.396-0.891,0.889-0.891h0.888c0.492,0,0.89,0.398,0.89,0.891h1.334
	c1.229,0,2.222,0.996,2.222,2.223v12.213c0,1.227-0.993,2.225-2.222,2.225H93.219c-1.227,0-2.222-0.998-2.222-2.225v-12.213
	C90.997,111.936,91.992,110.939,93.219,110.939L93.219,110.939z M108.77,113.271c-3.312,0-5.998,2.686-5.998,5.998
	c0,3.312,2.688,5.998,5.998,5.998c3.313,0,6-2.688,6-5.998C114.77,115.957,112.083,113.271,108.77,113.271L108.77,113.271z
	 M96.328,114.825h2.667c0.489,0,0.888-0.397,0.888-0.888v-0.444c0-0.491-0.398-0.888-0.888-0.888h-2.667
	c-0.49,0-0.889,0.396-0.889,0.888v0.444C95.439,114.428,95.838,114.825,96.328,114.825z"/>
<path display="none" fill="#555452" d="M108.77,114.871c-2.428,0-4.396,1.968-4.396,4.396c0,2.43,1.97,4.399,4.396,4.399
	c2.431,0,4.399-1.972,4.399-4.399C113.169,116.839,111.199,114.871,108.77,114.871L108.77,114.871z"/>
<path display="none" fill="#555452" d="M116.773,111.745l-5.619,3.978h-1.825v-3.402c0-0.771-0.632-1.402-1.404-1.402H90.529
	c-0.772,0-1.404,0.632-1.404,1.402v13.254c0,0.771,0.632,1.402,1.404,1.402h17.396c0.772,0,1.404-0.631,1.404-1.402v-3.403h1.825
	l5.619,3.979h2.681v-14.403h-2.681V111.745z M96.439,122.084c0,0.771-0.041,1.494-0.09,1.604c-0.051,0.11-0.871,0.201-1.557,0.201
	s-1.334-0.041-1.443-0.09c-0.111-0.049-0.201-0.941-0.201-1.715v-6.273c0-0.771,0.041-1.496,0.09-1.604
	c0.05-0.109,0.871-0.201,1.556-0.201s1.335,0.041,1.444,0.092c0.111,0.049,0.201,0.941,0.201,1.715V122.084z"/>
<g>
	<path fill="#565552" d="M12.553,16.111h1.333c0.888,0,0.888-2.222,1.776-2.222h0.89h0.002h0.007h0.011h0.008h0.007h0.02h0.009
		h0.015h0.021h0.005h0.028h0.001h0.033h0.001h0.034h0.004h0.029H16.8h0.021h0.023h0.008h0.032h0.007h0.023h0.027h0.004h0.028h0.02
		h0.01h0.029h0.019h0.007h0.027h0.024h0.002h0.023h0.024h0.011h0.013h0.021h0.023h0.006h0.015h0.02h0.018H17.3h0.005h0.017h0.015
		h0.015h0.014h0.002h0.009h0.013h0.009h0.01h0.008h0.008h0.005h0.004h0.004l0,0l0,0l0,0h3.111c0.889,0,0.889,2.222,1.778,2.222
		h8.442c0-0.49,0.397-0.889,0.889-0.889h0.888c0.492,0,0.892,0.398,0.892,0.889h1.332c1.229,0,2.221,0.996,2.221,2.223v12.213
		c0,1.229-0.992,2.225-2.221,2.225H12.553c-1.227,0-2.222-0.996-2.222-2.225V18.334C10.331,17.107,11.326,16.111,12.553,16.111
		L12.553,16.111z M28.104,18.443c-3.312,0-5.998,2.686-5.998,5.998s2.686,5.999,5.998,5.999c3.313,0,6-2.688,6-5.999
		C34.104,21.128,31.417,18.443,28.104,18.443L28.104,18.443z M15.662,19.997h2.667c0.49,0,0.888-0.397,0.888-0.888v-0.444
		c0-0.491-0.398-0.888-0.888-0.888h-2.667c-0.49,0-0.889,0.396-0.889,0.888v0.444C14.773,19.6,15.172,19.997,15.662,19.997z"/>
	<path fill="#565552" d="M28.104,20.043c-2.428,0-4.396,1.968-4.396,4.397s1.97,4.399,4.396,4.399c2.431,0,4.4-1.971,4.4-4.399
		C32.504,22.011,30.533,20.043,28.104,20.043L28.104,20.043z"/>
</g>
</svg>
