<?xml version="1.0" encoding="utf-8"?>
<!-- Generator: Adobe Illustrator 15.0.0, SVG Export Plug-In . SVG Version: 6.00 Build 0)  -->
<!DOCTYPE svg PUBLIC "-//W3C//DTD SVG 1.1//EN" "http://www.w3.org/Graphics/SVG/1.1/DTD/svg11.dtd">
<svg version="1.1" id="Layer_1" xmlns="http://www.w3.org/2000/svg" xmlns:xlink="http://www.w3.org/1999/xlink" x="0px" y="0px"
	 width="196px" height="196px" viewBox="0 0 196 196" enable-background="new 0 0 196 196" xml:space="preserve">
<circle opacity="0.9" fill="#AFE0E7" enable-background="new    " cx="95.709" cy="96.286" r="84.767"/>
<circle fill="none" stroke="#FFFFFF" stroke-miterlimit="10" cx="95.708" cy="96.286" r="67.812"/>
<path id="upload-2-icon_2_" fill="#FFFFFF" d="M85.774,85.478h-8.193l17.818-17.847l17.818,17.847h-8.193V107.9h-19.25V85.478z
	 M112,106.195v8.061H78.795v-8.061H72.61v14.242h45.574v-14.242H112z"/>
<path fill="#FFFFFF" d="M96.299,192.596c-53.1,0-96.297-43.199-96.297-96.296C0.002,43.2,43.2,0.001,96.299,0
	c53.1,0,96.299,43.199,96.299,96.3C192.598,149.396,149.396,192.596,96.299,192.596z M96.299,11.729
	c-46.632,0-84.568,37.938-84.568,84.57c0,46.629,37.937,84.566,84.568,84.566s84.568-37.938,84.568-84.566
	C180.868,49.668,142.93,11.729,96.299,11.729z"/>
<path fill="#00AEEF" d="M133.1,185.236c-22.992,9.521-48.329,9.82-71.612,0.793c-49.51-19.197-74.167-75.092-54.971-124.598
	l10.938,4.241c-16.859,43.475,4.797,92.562,48.273,109.419c21.062,8.165,44.051,7.663,64.708-1.474
	c20.666-9.117,36.543-25.739,44.711-46.801l10.938,4.24c-9.297,23.98-27.381,42.906-50.916,53.293
	C134.482,184.654,133.792,184.95,133.1,185.236z"/>
</svg>
