<?xml version="1.0" encoding="utf-8"?>
<!-- Generator: Adobe Illustrator 15.0.0, SVG Export Plug-In  -->
<!DOCTYPE svg PUBLIC "-//W3C//DTD SVG 1.1//EN" "http://www.w3.org/Graphics/SVG/1.1/DTD/svg11.dtd" [
	<!ENTITY ns_flows "http://ns.adobe.com/Flows/1.0/">
]>
<svg version="1.1"
	 xmlns="http://www.w3.org/2000/svg" xmlns:xlink="http://www.w3.org/1999/xlink" xmlns:a="http://ns.adobe.com/AdobeSVGViewerExtensions/3.0/"
	 x="0px" y="0px" width="196px" height="196px" viewBox="-0.412 -0.229 196 196"
	 overflow="visible" enable-background="new -0.412 -0.229 196 196" xml:space="preserve">
<defs>
</defs>
<circle opacity="0.9" fill="#AFE0E7" enable-background="new    " cx="96.298" cy="96.056" r="84.767"/>
<circle fill="none" stroke="#FFFFFF" stroke-miterlimit="10" cx="96.297" cy="96.056" r="67.812"/>
<path id="upload-2-icon_1_" fill="#FFFFFF" d="M86.363,85.249H78.17l17.818-17.847l17.818,17.847h-8.194v22.422H86.363V85.249z
	 M112.589,105.966v8.061H79.384v-8.061h-6.185v14.242h45.573v-14.242H112.589z"/>
<path fill="#FFFFFF" d="M96.299,192.675C43.199,192.675,0,149.476,0,96.378c0-53.1,43.199-96.299,96.299-96.3
	c53.1,0,96.299,43.199,96.299,96.3C192.598,149.476,149.399,192.675,96.299,192.675z M96.299,11.809
	c-46.632,0-84.568,37.938-84.568,84.57c0,46.628,37.937,84.566,84.568,84.566c46.631,0,84.567-37.938,84.567-84.566
	C180.866,49.747,142.93,11.809,96.299,11.809z"/>
<path fill="#00AEEF" d="M28.162,164.327c-17.595-17.6-27.568-40.893-28.136-65.859C-1.185,45.384,41.021,1.211,94.104,0
	l0.268,11.729C47.752,12.79,10.69,51.582,11.752,98.201c0.516,22.583,9.778,43.63,26.125,59.218
	c16.332,15.604,37.763,23.914,60.347,23.4l0.269,11.727c-25.715,0.588-50.12-8.875-68.719-26.646
	C29.23,165.382,28.692,164.854,28.162,164.327z"/>
</svg>
