<?xml version="1.0" encoding="utf-8"?>
<!-- Generator: Adobe Illustrator 15.0.0, SVG Export Plug-In  -->
<!DOCTYPE svg PUBLIC "-//W3C//DTD SVG 1.1//EN" "http://www.w3.org/Graphics/SVG/1.1/DTD/svg11.dtd" [
	<!ENTITY ns_flows "http://ns.adobe.com/Flows/1.0/">
]>
<svg version="1.1"
	 xmlns="http://www.w3.org/2000/svg" xmlns:xlink="http://www.w3.org/1999/xlink" xmlns:a="http://ns.adobe.com/AdobeSVGViewerExtensions/3.0/"
	 x="0px" y="0px" width="48px" height="48px" viewBox="0 0 48 48" overflow="visible" enable-background="new 0 0 48 48"
	 xml:space="preserve">
<defs>
</defs>
<rect display="none" fill="#E6E7E8" width="48" height="48"/>
<polygon id="open_x5F_arrow_1_" display="none" fill="#555452" points="5.95,41.909 41.884,41.909 41.884,5.974 "/>
<polygon display="none" fill="#555452" points="27.747,18.139 27.747,9.959 41.809,23.999 27.742,38.042 27.742,29.57 6.191,29.57 
	6.191,18.139 "/>
<polygon display="none" fill="#555452" points="20.013,29.86 20.013,38.042 5.95,24.002 20.017,9.958 20.017,18.43 41.568,18.43 
	41.568,29.86 "/>
<g display="none">
	<path display="inline" d="M11.266,40.007c-4.4,0-6.2-3.118-4-6.928l12.735-22.058c2.2-3.811,5.8-3.811,8,0l12.734,22.058
		c2.2,3.811,0.399,6.928-4,6.928H11.266z"/>
</g>
<path display="none" fill="#FFFFFF" d="M25.695,29.979h-3.39V17.252h3.39V29.979z M25.695,36.119h-3.39v-3.602h3.39V36.119z"/>
<path display="none" d="M34.244,16.844c0-0.818-0.728-1.48-1.626-1.48c-0.898,0-1.627,0.663-1.627,1.48v6.608h-1.176v-7.319
	c0-0.953-0.728-1.725-1.626-1.725s-1.626,0.772-1.626,1.725v7.319H25.26v-8.381c0-0.953-0.729-1.725-1.626-1.725
	c-0.897,0-1.626,0.772-1.626,1.725v8.381h-1.278V8.109c0-1.089-0.882-1.971-1.971-1.971c-1.088,0-1.972,0.882-1.972,1.971v19.575
	l-1.132-0.501l0-5.889c0,0-1.462,3.336-2.251,4.893c-0.492,0.971-0.839,2.21-0.851,3.299c-0.021,2.127,6.605,7.737,9.306,7.75
	c2.02,0.011,8.713,0.016,9.886-0.085c2.613-0.226,2.474-3.201,2.474-3.201l0.027-0.556V16.844z"/>
<rect x="18.102" y="38.787" display="none" width="15.541" height="3.075"/>
<path id="edit-8-icon_1_" display="none" d="M5.95,41.396l11.957-2.705l-9.038-9.027L5.95,41.396z M32.305,5.974L11.424,26.845
	l9.309,9.305l20.884-20.871L32.305,5.974z"/>
<g id="story_x5F_maker_2_" display="none">
	<g display="inline">
		<g display="none">
			<path fill="#DDDFDB" d="M29.28,31.27l-2.32,2.164h-5.946l-2.327-2.164H5.955H5.95l1.312,7.798l33.283-0.002l1.397-7.796h-0.005
				H29.28z M38.674,13.7H9.217L8.87,11.809h30.154L38.674,13.7z M36.651,10.424H11.325l-0.348-1.492h26.024L36.651,10.424z
				 M8.052,29.273L6.873,15.185h34.072l-1.209,14.088h-2.987l0.819-11.479h-27.4l0.901,11.479H8.052z"/>
		</g>
	</g>
</g>
<path id="location_1_" display="none" fill="#DDDFDB" d="M34.79,16.752c0-5.951-4.828-10.778-10.79-10.778
	c-5.962,0-10.79,4.827-10.79,10.778c0,1.708,0.406,3.316,1.108,4.751H14.31l9.688,20.283H24l0,0l9.688-20.283H33.68
	C34.382,20.068,34.79,18.46,34.79,16.752z M24,10.955c3.207,0,5.81,2.603,5.81,5.81c0,1.364-0.475,2.615-1.264,3.607
	c-1.062,1.339-2.702,2.203-4.548,2.203c-1.845,0-3.482-0.863-4.548-2.203c-0.788-0.992-1.262-2.243-1.262-3.607
	C18.188,13.558,20.792,10.955,24,10.955z"/>
<polygon fill-rule="evenodd" clip-rule="evenodd" fill="#DDDFDB" points="7.318,18.928 7.318,36.381 40.682,36.381 40.682,18.928 
	23.999,27.223 "/>
<polygon fill-rule="evenodd" clip-rule="evenodd" fill="#DDDFDB" points="7.318,11.619 7.318,16.264 23.999,24.557 40.682,16.264 
	40.682,11.619 "/>
<path id="bluetooth_2_" display="none" fill-rule="evenodd" clip-rule="evenodd" fill="#DDDFDB" d="M34.109,16.987L22.087,5.974
	v14.109l-5.829-5.646l-2.367,2.367l7.237,6.939l-7.237,7.633l2.58,2.408l5.617-5.686v14.025l12.021-11.111l-7.649-7.104
	L34.109,16.987z M25.367,13.521l3.769,3.501l-3.769,3.501C25.367,20.522,25.367,13.672,25.367,13.521z M29.135,31.013l-3.769,3.501
	c0,0,0-6.851,0-7.002L29.135,31.013z"/>
<path id="usb_1_" display="none" fill="#DDDFDB" d="M24,5.521l-3.563,4.484h2.83v20.191l-4.665-4.463
	c-0.301-0.379-0.514-0.877-0.523-1.389c0-2.066-0.001-1.93-0.001-2.383c0.864-0.305,1.487-1.129,1.487-2.107
	c0-1.238-0.995-2.242-2.22-2.242c-1.227,0-2.22,1.004-2.22,2.242c0,0.979,0.624,1.803,1.487,2.107l-0.002,2.34
	c0,1.004,0.546,2.057,1.185,2.727c-0.02-0.02-0.04-0.039,0,0c0.016,0.014,4.948,4.734,4.948,4.734
	c0.301,0.379,0.512,0.877,0.521,1.389v1.908c-1.694,0.346-2.969,1.857-2.969,3.672c0,2.07,1.655,3.746,3.703,3.746
	c2.047,0,3.704-1.676,3.704-3.746c0-1.814-1.274-3.326-2.972-3.672v-1.865c0-0.006,0-0.012,0-0.012v-5.641
	c0.012-0.512,0.223-1.008,0.523-1.387c0,0,4.932-3.354,4.948-3.369c0.04-0.037,0.018-0.018,0,0c0.64-0.67,1.185-1.039,1.185-2.043
	l-0.001-3.57h1.487v-4.484h-4.438v4.486h1.486c0,0-0.004,0.938-0.004,3.611c-0.01,0.512-0.221,0.328-0.522,0.705l-4.665,3.1V10.006
	h2.832L24,5.521z"/>
<path id="vimeo_1_" display="none" fill="#DDDFDB" d="M41.902,15.606c-0.163,3.515-2.615,8.33-7.364,14.441
	c-4.908,6.38-9.062,9.573-12.459,9.573c-2.104,0-3.886-1.942-5.339-5.83c-0.974-3.563-1.944-7.128-2.915-10.691
	c-1.08-3.885-2.239-5.83-3.479-5.83c-0.269,0-1.214,0.567-2.834,1.7l-1.699-2.19c1.784-1.567,3.541-3.13,5.27-4.7
	c2.378-2.053,4.162-3.133,5.351-3.243c2.809-0.269,4.539,1.652,5.189,5.765c0.701,4.438,1.186,7.198,1.458,8.28
	c0.811,3.681,1.702,5.52,2.675,5.52c0.756,0,1.89-1.198,3.404-3.583c1.515-2.392,2.325-4.205,2.434-5.455
	c0.213-2.06-0.596-3.094-2.434-3.094c-0.863,0-1.755,0.2-2.671,0.591c1.772-5.813,5.165-8.638,10.168-8.477
	C40.367,8.493,42.117,10.899,41.902,15.606z"/>
<path id="facebook_1_" display="none" fill="#DDDFDB" d="M36.478,7.525H11.526c-2.209,0-4,1.791-4,3.999v24.953
	c0,2.208,1.792,3.999,4,3.999h24.952c2.208,0,3.997-1.791,3.997-3.999V11.524C40.474,9.316,38.686,7.525,36.478,7.525z
	 M29.419,16.374c0,0-1.832,0-2.558,0c-0.903,0-1.092,0.371-1.092,1.305c0,0.777,0,2.258,0,2.258h3.649L29.067,23.9H25.77v11.84
	h-4.727V23.95h-2.458v-4.014h2.458c0,0,0-0.577,0-3.16c0-2.965,1.585-4.516,5.104-4.516c0.576,0,3.273,0,3.273,0V16.374z"/>
<path id="you_x5F_tube_1_" display="none" fill="#DDDFDB" d="M13.012,6.054h2.155l1.475,5.536l1.37-5.536h2.175l-2.49,8.235v5.616
	h-2.139v-5.616L13.012,6.054z M20.09,17.358c0,1.799,0.94,2.738,2.784,2.738c1.526,0,2.729-1.021,2.729-2.738v-5.009
	c0-1.601-1.19-2.747-2.729-2.747c-1.675,0-2.784,1.107-2.784,2.747V17.358z M22.044,12.518c0-0.559,0.257-0.976,0.792-0.976
	c0.583,0,0.833,0.404,0.833,0.976v4.751c0,0.559-0.284,0.97-0.795,0.97c-0.526,0-0.83-0.43-0.83-0.97V12.518z M30.738,9.688v7.756
	c-0.229,0.288-0.744,0.767-1.116,0.767c-0.405,0-0.506-0.28-0.506-0.69V9.688h-1.898v8.54c0,1.011,0.31,1.824,1.327,1.824
	c0.575,0,1.371-0.297,2.193-1.275v1.129h1.904V9.688H30.738z M27.943,30.635c0.132,0.168,0.195,0.419,0.195,0.747v5.024
	c0,0.31-0.052,0.533-0.157,0.67c-0.197,0.262-0.629,0.249-0.924,0.101c-0.14-0.07-0.282-0.184-0.429-0.343v-6.064
	c0.123-0.131,0.247-0.233,0.374-0.297C27.318,30.314,27.726,30.347,27.943,30.635z M34.036,30.415c-0.671,0-0.808,0.471-0.808,1.14
	v0.985h1.599v-0.985C34.827,30.897,34.687,30.415,34.036,30.415z M39.553,37.593c0,2.404-1.95,4.354-4.356,4.354H12.804
	c-2.405,0-4.357-1.95-4.357-4.354V26.589c0-2.406,1.952-4.358,4.357-4.358h22.393c2.406,0,4.356,1.952,4.356,4.358V37.593
	L39.553,37.593z M15.79,27.41h2.107v-1.913h-6.253v1.913h2.108v11.276h2.038V27.41L15.79,27.41z M23.036,28.956h-1.808v7.385
	c-0.222,0.279-0.713,0.729-1.064,0.729c-0.388,0-0.483-0.262-0.483-0.653v-7.461h-1.808v8.134c0,1.974,1.339,1.985,2.314,1.428
	c0.358-0.208,0.708-0.509,1.041-0.906v1.074h1.808V28.956z M30.001,31.273c0-1.319-0.438-2.439-1.764-2.439
	c-0.647,0-1.2,0.41-1.609,0.908v-4.245h-1.827v13.189h1.827V37.94c0.505,0.629,1.058,0.871,1.719,0.871
	c1.204,0,1.655-0.935,1.655-2.14V31.273z M36.688,31.572c0-1.758-0.838-2.861-2.576-2.861c-1.63,0-2.745,1.173-2.745,2.861v4.37
	c0,1.751,0.883,3.009,2.609,3.009c1.905,0,2.712-1.135,2.712-3.009v-0.734h-1.861v0.677c0,0.847-0.046,1.36-0.809,1.36
	c-0.728,0-0.79-0.629-0.79-1.36v-1.834h3.46V31.572L36.688,31.572z"/>
<path id="twitter_1_" display="none" fill-rule="evenodd" clip-rule="evenodd" fill="#DDDFDB" d="M23.372,20.546
	c1.146-3.658,2.552-6.029,4.169-7.748c1.206-1.283,1.83-1.689,1.122-0.277c0.312-0.26,0.764-0.598,1.114-0.781
	c1.956-0.941,1.819-0.152,0.47,0.693c3.685-1.346,3.558,0.361-0.337,1.219c3.186,0.055,6.576,2.113,7.559,6.496
	c0.138,0.605-0.025,0.549,0.585,0.658c1.318,0.236,2.562,0.219,3.771-0.174c-0.13,0.908-1.307,1.498-3.146,1.893
	c-0.682,0.145-0.821,0.105-0.003,0.293c1.006,0.227,2.129,0.285,3.319,0.225c-0.926,1.088-2.401,1.645-4.227,1.67
	c-1.138,4.244-3.743,7.287-7.043,9.197c-7.752,4.492-19.046,3.857-24.723-4.268c3.722,2.957,9.228,3.604,13.311-0.537
	c-2.679,0.006-3.377-2.033-1.254-3.139c-2.01-0.018-3.288-0.66-4.041-1.834c-0.285-0.441-0.288-0.479,0.175-0.816
	c0.509-0.379,1.206-0.545,1.926-0.604c-2.084-0.604-3.355-1.707-3.801-3.189c-0.144-0.49-0.169-0.465,0.323-0.592
	c0.479-0.125,1.099-0.189,1.651-0.221c-1.637-1.006-2.615-2.24-2.865-3.605c-0.237-1.289,0.007-0.957,0.955-0.592
	C16.629,16.159,20.863,17.925,23.372,20.546L23.372,20.546z"/>
</svg>
