<?xml version="1.0" encoding="utf-8"?>
<!-- Generator: Adobe Illustrator 15.0.0, SVG Export Plug-In  -->
<!DOCTYPE svg PUBLIC "-//W3C//DTD SVG 1.1//EN" "http://www.w3.org/Graphics/SVG/1.1/DTD/svg11.dtd" [
	<!ENTITY ns_flows "http://ns.adobe.com/Flows/1.0/">
]>
<svg version="1.1"
	 xmlns="http://www.w3.org/2000/svg" xmlns:xlink="http://www.w3.org/1999/xlink" xmlns:a="http://ns.adobe.com/AdobeSVGViewerExtensions/3.0/"
	 x="0px" y="0px" width="196px" height="196px" viewBox="-0.245 0 196 196"
	 overflow="visible" enable-background="new -0.245 0 196 196" xml:space="preserve">
<defs>
</defs>
<circle opacity="0.9" fill="#AFE0E7" enable-background="new    " cx="96.465" cy="96.286" r="84.767"/>
<circle fill="none" stroke="#FFFFFF" stroke-miterlimit="10" cx="96.464" cy="96.286" r="67.812"/>
<path id="upload-2-icon_1_" fill="#FFFFFF" d="M86.53,85.478h-8.193l17.818-17.847l17.818,17.847h-8.194V107.9H86.53V85.478z
	 M112.756,106.195v8.061H79.551v-8.061h-6.185v14.242h45.573v-14.242H112.756z"/>
<path fill="#FFFFFF" d="M96.299,192.596C43.199,192.596,0,149.396,0,96.3C0,43.2,43.199,0.001,96.299,0
	c53.098,0,96.299,43.199,96.299,96.3C192.598,149.396,149.396,192.596,96.299,192.596z M96.299,11.729
	c-46.633,0-84.57,37.938-84.57,84.57c0,46.629,37.938,84.566,84.57,84.566c46.629,0,84.568-37.938,84.568-84.566
	C180.867,49.668,142.928,11.729,96.299,11.729z"/>
<path fill="#00AEEF" d="M96.402,192.596c24.887-0.002,48.411-9.422,66.465-26.674c38.393-36.683,39.785-97.758,3.105-136.15
	l-8.482,8.104c32.213,33.714,30.99,87.353-2.725,119.563c-16.334,15.604-37.767,23.938-60.349,23.401
	c-22.582-0.515-43.613-9.795-59.219-26.127l-8.48,8.104c17.768,18.6,41.715,29.164,67.432,29.75
	C94.902,192.587,95.654,192.596,96.402,192.596z"/>
</svg>
