<?xml version="1.0" encoding="utf-8"?>
<!-- Generator: Adobe Illustrator 15.0.0, SVG Export Plug-In . SVG Version: 6.00 Build 0)  -->
<!DOCTYPE svg PUBLIC "-//W3C//DTD SVG 1.1//EN" "http://www.w3.org/Graphics/SVG/1.1/DTD/svg11.dtd">
<svg version="1.1" id="Layer_1" xmlns="http://www.w3.org/2000/svg" xmlns:xlink="http://www.w3.org/1999/xlink" x="0px" y="0px"
	 width="196px" height="196px" viewBox="0 0 196 196" enable-background="new 0 0 196 196" xml:space="preserve">
<path fill="#D1D3D4" d="M181.477,96.238c0,46.816-37.951,84.768-84.769,84.768c-46.816,0-84.766-37.951-84.766-84.768 M0.951,96.238
	C0.951,153.456,39.493,196,96.71,196c57.218,0,95.759-42.544,95.759-99.762"/>
<path fill="#FFFFFF" d="M96.298,192.675C43.199,192.675,0,149.477,0,96.379c0-53.1,43.199-96.299,96.298-96.3
	c53.099,0,96.3,43.199,96.3,96.3C192.598,149.477,149.396,192.675,96.298,192.675z M96.298,11.809
	c-46.632,0-84.568,37.938-84.568,84.57c0,46.629,37.937,84.566,84.568,84.566c46.632,0,84.568-37.938,84.568-84.566
	C180.866,49.747,142.93,11.809,96.298,11.809z"/>
<path fill="#00AEEF" d="M164.436,164.327c17.596-17.599,27.568-40.894,28.137-65.858C193.781,45.384,151.577,1.211,98.493,0
	l-0.267,11.729c46.617,1.062,83.678,39.854,82.617,86.473c-0.516,22.584-9.776,43.63-26.125,59.219
	c-16.332,15.604-37.763,23.914-60.347,23.399l-0.268,11.728c25.715,0.588,50.12-8.876,68.719-26.646
	C163.367,165.382,163.904,164.855,164.436,164.327z"/>
<circle opacity="0.9" fill="#AFE0E7" enable-background="new    " cx="96.71" cy="96.286" r="84.767"/>
<circle fill="none" stroke="#FFFFFF" stroke-miterlimit="10" cx="96.709" cy="96.286" r="67.812"/>
<path fill="#FFFFFF" d="M77.309,73.287c0-1.045,0.74-1.473,1.646-0.95l39.837,23.001c0.903,0.522,0.903,1.378-0.001,1.9
	l-39.836,22.996c-0.905,0.521-1.646,0.095-1.646-0.949V73.287z"/>
</svg>
