<?xml version="1.0" encoding="utf-8"?>
<!-- Generator: Adobe Illustrator 15.0.0, SVG Export Plug-In  -->
<!DOCTYPE svg PUBLIC "-//W3C//DTD SVG 1.1//EN" "http://www.w3.org/Graphics/SVG/1.1/DTD/svg11.dtd" [
	<!ENTITY ns_flows "http://ns.adobe.com/Flows/1.0/">
]>
<svg version="1.1"
	 xmlns="http://www.w3.org/2000/svg" xmlns:xlink="http://www.w3.org/1999/xlink" xmlns:a="http://ns.adobe.com/AdobeSVGViewerExtensions/3.0/"
	 x="0px" y="0px" width="196px" height="196px" viewBox="-1.506 -1.708 196 196"
	 overflow="visible" enable-background="new -1.506 -1.708 196 196" xml:space="preserve">
<defs>
</defs>
<path fill="#FFFFFF" d="M96.298,192.596C43.199,192.596,0,149.396,0,96.3C0,43.2,43.199,0.001,96.298,0
	c53.1,0,96.299,43.199,96.299,96.3C192.597,149.396,149.397,192.596,96.298,192.596z M96.298,11.729
	c-46.631,0-84.568,37.938-84.568,84.57c0,46.629,37.938,84.566,84.568,84.566s84.569-37.938,84.569-84.566
	C180.867,49.668,142.929,11.729,96.298,11.729z"/>
<path fill="#00AEEF" d="M28.67,28.162C46.268,10.566,69.562,0.593,94.528,0.025c53.086-1.21,97.258,40.993,98.469,94.078
	l-11.729,0.267c-1.062-46.617-39.854-83.679-86.473-82.617c-22.584,0.516-43.63,9.776-59.219,26.125
	c-15.604,16.332-23.913,37.763-23.4,60.347L0.45,98.492c-0.587-25.716,8.877-50.12,26.646-68.719
	C27.615,29.229,28.142,28.692,28.67,28.162z"/>
<circle opacity="0.9" fill="#AFE0E7" cx="96.711" cy="96.207" r="84.767"/>
<circle fill="none" stroke="#FFFFFF" stroke-miterlimit="10" cx="96.709" cy="96.207" r="67.812"/>
<path id="upload-2-icon_18_" fill="#FFFFFF" d="M86.675,85.417h-8.193L96.3,67.57l17.818,17.847h-8.195v22.423H86.675V85.417z
	 M112.901,106.135v8.061H79.696v-8.061h-6.185v14.243h45.573v-14.243H112.901z"/>
</svg>
