<?xml version="1.0" encoding="utf-8"?>
<!-- Generator: Adobe Illustrator 15.0.0, SVG Export Plug-In  -->
<!DOCTYPE svg PUBLIC "-//W3C//DTD SVG 1.1//EN" "http://www.w3.org/Graphics/SVG/1.1/DTD/svg11.dtd" [
	<!ENTITY ns_flows "http://ns.adobe.com/Flows/1.0/">
]>
<svg version="1.1"
	 xmlns="http://www.w3.org/2000/svg" xmlns:xlink="http://www.w3.org/1999/xlink" xmlns:a="http://ns.adobe.com/AdobeSVGViewerExtensions/3.0/"
	 x="0px" y="0px" width="196px" height="196px" viewBox="-1.602 -1.708 196 196"
	 overflow="visible" enable-background="new -1.602 -1.708 196 196" xml:space="preserve">
<defs>
</defs>
<path fill="#FFFFFF" d="M96.298,192.596C43.199,192.596,0,149.396,0,96.3C0,43.2,43.199,0.001,96.298,0
	c53.099,0,96.299,43.199,96.299,96.3C192.597,149.396,149.396,192.596,96.298,192.596z M96.298,11.729
	c-46.632,0-84.568,37.938-84.568,84.57c0,46.629,37.937,84.566,84.568,84.566c46.631,0,84.568-37.938,84.568-84.566
	C180.866,49.668,142.929,11.729,96.298,11.729z"/>
<path fill="#00AEEF" d="M96.401,0c24.887,0.002,48.41,9.422,66.466,26.675c38.393,36.683,39.784,97.757,3.104,136.15l-8.481-8.104
	c32.213-33.714,30.989-87.353-2.726-119.565c-16.334-15.604-37.766-23.937-60.348-23.4c-22.582,0.514-43.611,9.795-59.218,26.127
	l-8.481-8.105C44.485,11.178,68.435,0.612,94.151,0.026C94.901,0.01,95.654,0,96.401,0z"/>
<circle opacity="0.9" fill="#AFE0E7" cx="96.71" cy="96.207" r="84.767"/>
<circle fill="none" stroke="#FFFFFF" stroke-miterlimit="10" cx="96.709" cy="96.207" r="67.812"/>
<path id="upload-2-icon_18_" fill="#FFFFFF" d="M89.177,85.417h-8.193L98.802,67.57l17.818,17.847h-8.195v22.423H89.177V85.417z
	 M115.404,106.135v8.061H82.199v-8.061h-6.185v14.243h45.573v-14.243H115.404z"/>
</svg>
