<?xml version="1.0" encoding="utf-8"?>
<!-- Generator: Adobe Illustrator 15.0.0, SVG Export Plug-In . SVG Version: 6.00 Build 0)  -->
<!DOCTYPE svg PUBLIC "-//W3C//DTD SVG 1.1//EN" "http://www.w3.org/Graphics/SVG/1.1/DTD/svg11.dtd">
<svg version="1.1" id="Layer_1" xmlns="http://www.w3.org/2000/svg" xmlns:xlink="http://www.w3.org/1999/xlink" x="0px" y="0px"
	 width="196px" height="196px" viewBox="-46 -46 196 196" enable-background="new -46 -46 196 196" xml:space="preserve">
<circle fill="#AFE0E7" cx="52" cy="52" r="84.74"/>
<path fill="#FFFFFF" d="M52,120.778C14,120.778-16.78,90-16.78,52S14.191-16.78,52-16.78c38,0,68.779,30.78,68.779,68.78
	S90,120.778,52,120.778z M52-14.88c-36.859,0-66.88,30.021-66.88,66.88c0,36.861,30.021,66.879,66.88,66.879
	c36.861,0,66.88-30.018,66.88-66.879C118.881,15.141,88.861-14.88,52-14.88z"/>
<path fill="#FFFFFF" d="M42.31,40.601h-8.169L52,22.74l17.861,17.86h-8.17V63.02H42.31V40.601z M68.721,61.311v7.979H35.47v-7.979
	h-6.27v14.25h45.598v-14.25H68.721z"/>
</svg>
