<?xml version="1.0" encoding="utf-8"?>
<!-- Generator: Adobe Illustrator 15.0.0, SVG Export Plug-In  -->
<!DOCTYPE svg PUBLIC "-//W3C//DTD SVG 1.1//EN" "http://www.w3.org/Graphics/SVG/1.1/DTD/svg11.dtd" [
	<!ENTITY ns_flows "http://ns.adobe.com/Flows/1.0/">
]>
<svg version="1.1"
	 xmlns="http://www.w3.org/2000/svg" xmlns:xlink="http://www.w3.org/1999/xlink" xmlns:a="http://ns.adobe.com/AdobeSVGViewerExtensions/3.0/"
	 x="0px" y="0px" width="196px" height="196px" viewBox="-1.288 -1.648 196 196"
	 overflow="visible" enable-background="new -1.288 -1.648 196 196" xml:space="preserve">
<defs>
</defs>
<path fill="#FFFFFF" d="M96.71,192.675c-53.1,0-96.299-43.199-96.299-96.296c0-53.1,43.199-96.299,96.299-96.3
	c53.1,0,96.299,43.199,96.299,96.3C193.009,149.476,149.81,192.675,96.71,192.675z M96.71,11.809
	c-46.632,0-84.568,37.938-84.568,84.57c0,46.629,37.937,84.566,84.568,84.566s84.568-37.938,84.568-84.566
	C181.278,49.747,143.342,11.809,96.71,11.809z"/>
<path fill="#00AEEF" d="M28.161,164.327C10.566,146.729,0.593,123.435,0.025,98.469C-1.185,45.384,41.02,1.211,94.103,0
	l0.268,11.729C47.752,12.79,10.69,51.582,11.752,98.201c0.516,22.584,9.778,43.63,26.125,59.219
	c16.332,15.604,37.763,23.914,60.347,23.4l0.268,11.727c-25.715,0.588-50.12-8.876-68.719-26.646
	C29.23,165.382,28.692,164.856,28.161,164.327z"/>
<circle opacity="0.9" fill="#AFE0E7" cx="97.123" cy="96.286" r="84.766"/>
<circle fill="none" stroke="#FFFFFF" stroke-miterlimit="10" cx="97.121" cy="96.286" r="67.812"/>
<path id="upload-2-icon_18_" fill="#FFFFFF" d="M88.867,85.478h-8.193l17.818-17.847l17.818,17.847h-8.195V107.9H88.867V85.478z
	 M115.094,106.195v8.061H81.889v-8.061h-6.185v14.243h45.573v-14.243H115.094z"/>
</svg>
