<?xml version="1.0" encoding="utf-8"?>
<!-- Generator: Adobe Illustrator 15.0.0, SVG Export Plug-In . SVG Version: 6.00 Build 0)  -->
<!DOCTYPE svg PUBLIC "-//W3C//DTD SVG 1.1//EN" "http://www.w3.org/Graphics/SVG/1.1/DTD/svg11.dtd">
<svg version="1.1" id="Layer_1" xmlns="http://www.w3.org/2000/svg" xmlns:xlink="http://www.w3.org/1999/xlink" x="0px" y="0px"
	 width="196px" height="196px" viewBox="0 0 196 196" enable-background="new 0 0 196 196" xml:space="preserve">
<path fill="#D1D3D4" d="M181.064,96.33c0,46.816-37.951,84.768-84.768,84.768c-46.816,0-84.766-37.951-84.766-84.768 M0.539,96.33
	c0,57.218,38.542,99.762,95.759,99.762c57.218,0,95.759-42.544,95.759-99.762"/>
<path fill="#FFFFFF" d="M96.298,192.596c-53.1,0-96.297-43.199-96.297-96.296c0-53.1,43.197-96.299,96.297-96.3
	c53.099,0,96.3,43.199,96.3,96.3C192.598,149.396,149.396,192.596,96.298,192.596z M96.298,11.729
	c-46.632,0-84.568,37.938-84.568,84.57c0,46.629,37.937,84.566,84.568,84.566c46.63,0,84.568-37.938,84.568-84.566
	C180.867,49.668,142.928,11.729,96.298,11.729z"/>
<path fill="#00AEEF" d="M59.603,185.191c-22.991-9.525-41.118-27.229-51.198-50.078C-13.029,86.53,9.058,29.572,57.639,8.14
	l4.734,10.732C19.71,37.692,0.314,87.716,19.137,130.378c9.119,20.667,25.731,36.569,46.799,44.714
	c21.059,8.166,44.041,7.641,64.708-1.477l4.735,10.732c-23.532,10.385-49.703,10.98-73.687,1.68
	C60.992,185.758,60.295,185.479,59.603,185.191z"/>
<circle opacity="0.9" fill="#AFE0E7" enable-background="new    " cx="96.711" cy="96.207" r="84.767"/>
<circle fill="none" stroke="#FFFFFF" stroke-miterlimit="10" cx="96.709" cy="96.207" r="67.812"/>
<path fill="#FFFFFF" d="M77.721,73.208c0-1.045,0.741-1.473,1.645-0.95l39.837,23.001c0.904,0.522,0.904,1.378,0,1.9l-39.835,22.995
	c-0.905,0.521-1.646,0.096-1.646-0.948L77.721,73.208L77.721,73.208z"/>
</svg>
