<?xml version="1.0" encoding="utf-8"?>
<!-- Generator: Adobe Illustrator 15.0.0, SVG Export Plug-In . SVG Version: 6.00 Build 0)  -->
<!DOCTYPE svg PUBLIC "-//W3C//DTD SVG 1.1//EN" "http://www.w3.org/Graphics/SVG/1.1/DTD/svg11.dtd">
<svg version="1.1" id="Layer_1" xmlns="http://www.w3.org/2000/svg" xmlns:xlink="http://www.w3.org/1999/xlink" x="0px" y="0px"
	 width="196px" height="196px" viewBox="0 0 196 196" enable-background="new 0 0 196 196" xml:space="preserve">
<g opacity="0.9" enable-background="new    ">
	<path fill="#D1D3D4" d="M181.74,96.238c0,46.817-37.951,84.767-84.767,84.767s-84.767-37.95-84.767-84.767 M1.214,96.238
		c0,57.218,38.542,99.762,95.76,99.762c57.217,0,95.758-42.544,95.758-99.762"/>
</g>
<circle opacity="0.9" fill="#AFE0E7" enable-background="new    " cx="96.465" cy="96.286" r="84.767"/>
<circle fill="none" stroke="#FFFFFF" stroke-miterlimit="10" cx="96.464" cy="96.286" r="67.812"/>
<path id="upload-2-icon_2_" fill="#FFFFFF" d="M86.53,85.478h-8.193l17.818-17.847l17.818,17.847h-8.193V107.9H86.53V85.478z
	 M112.756,106.195v8.061H79.551v-8.061h-6.185v14.242h45.573v-14.242H112.756z"/>
<path fill="#FFFFFF" d="M96.299,192.596C43.199,192.596,0,149.396,0,96.3C0,43.2,43.199,0.001,96.299,0
	c53.098,0,96.299,43.199,96.299,96.3C192.598,149.396,149.396,192.596,96.299,192.596z M96.299,11.729
	c-46.633,0-84.57,37.938-84.57,84.57c0,46.629,37.938,84.566,84.57,84.566c46.629,0,84.568-37.938,84.568-84.566
	C180.867,49.668,142.928,11.729,96.299,11.729z"/>
<path fill="#00AEEF" d="M59.943,185.236c22.993,9.522,48.331,9.822,71.614,0.793c49.508-19.197,74.164-75.092,54.971-124.6
	l-10.938,4.242c16.858,43.476-4.8,92.562-48.273,109.42c-21.062,8.166-44.051,7.664-64.708-1.478
	c-20.667-9.114-36.543-25.737-44.712-46.799l-10.937,4.242c9.298,23.982,27.38,42.908,50.915,53.291
	C58.56,184.654,59.252,184.951,59.943,185.236z"/>
</svg>
