<?xml version="1.0" encoding="utf-8"?>
<!-- Generator: Adobe Illustrator 15.0.0, SVG Export Plug-In . SVG Version: 6.00 Build 0)  -->
<!DOCTYPE svg PUBLIC "-//W3C//DTD SVG 1.1//EN" "http://www.w3.org/Graphics/SVG/1.1/DTD/svg11.dtd">
<svg version="1.1" id="Layer_1" xmlns="http://www.w3.org/2000/svg" xmlns:xlink="http://www.w3.org/1999/xlink" x="0px" y="0px"
	 width="196px" height="196px" viewBox="0 0 196 196" enable-background="new 0 0 196 196" xml:space="preserve">
<path fill="#FFFFFF" d="M96.298,192.596C43.198,192.596,0,149.396,0,96.3C0,43.2,43.198,0.001,96.298,0
	c53.099,0,96.3,43.199,96.3,96.3C192.598,149.396,149.396,192.596,96.298,192.596z M96.298,11.729
	c-46.632,0-84.569,37.938-84.569,84.57c0,46.629,37.938,84.566,84.569,84.566c46.63,0,84.568-37.938,84.568-84.566
	C180.866,49.668,142.928,11.729,96.298,11.729z"/>
<path fill="#00AEEF" d="M133.934,185.193c22.991-9.525,41.118-27.23,51.197-50.079c21.434-48.582-0.654-105.541-49.234-126.974
	l-4.732,10.733c42.663,18.82,62.059,68.844,43.236,111.506c-9.121,20.667-25.729,36.568-46.801,44.713
	c-21.06,8.168-44.04,7.641-64.708-1.475l-4.734,10.732c23.533,10.383,49.701,10.979,73.685,1.68
	C132.542,185.76,133.241,185.479,133.934,185.193z"/>
<circle opacity="0.9" fill="#AFE0E7" enable-background="new    " cx="96.71" cy="96.207" r="84.767"/>
<circle fill="none" stroke="#FFFFFF" stroke-miterlimit="10" cx="96.709" cy="96.207" r="67.812"/>
<path fill="#FFFFFF" d="M77.721,73.208c0-1.045,0.74-1.473,1.645-0.95l39.837,23.001c0.904,0.522,0.904,1.378-0.001,1.9
	l-39.835,22.995c-0.905,0.521-1.646,0.096-1.646-0.948V73.208z"/>
</svg>
