<?xml version="1.0" encoding="utf-8"?>
<!-- Generator: Adobe Illustrator 15.0.0, SVG Export Plug-In  -->
<!DOCTYPE svg PUBLIC "-//W3C//DTD SVG 1.1//EN" "http://www.w3.org/Graphics/SVG/1.1/DTD/svg11.dtd" [
	<!ENTITY ns_flows "http://ns.adobe.com/Flows/1.0/">
]>
<svg version="1.1"
	 xmlns="http://www.w3.org/2000/svg" xmlns:xlink="http://www.w3.org/1999/xlink" xmlns:a="http://ns.adobe.com/AdobeSVGViewerExtensions/3.0/"
	 x="0px" y="0px" width="196px" height="196px" viewBox="-13.233 -12.981 196 196"
	 overflow="visible" enable-background="new -13.233 -12.981 196 196" xml:space="preserve">
<defs>
</defs>
<circle fill="#EF4136" cx="84.767" cy="84.766" r="84.767"/>
<path fill="#FFFFFF" d="M84.278,31.242c-29.268,0-53.083,23.813-53.083,53.082c0,29.271,23.815,53.078,53.083,53.078
	c29.271,0,53.085-23.813,53.085-53.078C137.363,55.056,113.544,31.242,84.278,31.242z M84.279,132.606
	c-26.624,0-48.284-21.657-48.284-48.282c0-26.628,21.66-48.284,48.284-48.284c26.623,0,48.281,21.655,48.281,48.284
	C132.56,110.949,110.902,132.606,84.279,132.606z"/>
<line fill="none" stroke="#FFFFFF" stroke-width="3" stroke-linecap="round" stroke-miterlimit="10" x1="94.416" y1="80.103" x2="108.62" y2="65.9"/>
<line fill="none" stroke="#FFFFFF" stroke-width="3" stroke-linecap="round" stroke-miterlimit="10" x1="94.416" y1="65.9" x2="108.62" y2="80.103"/>
<line fill="none" stroke="#FFFFFF" stroke-width="3" stroke-linecap="round" stroke-miterlimit="10" x1="59.082" y1="80.103" x2="73.287" y2="65.9"/>
<line fill="none" stroke="#FFFFFF" stroke-width="3" stroke-linecap="round" stroke-miterlimit="10" x1="59.082" y1="65.9" x2="73.287" y2="80.103"/>
<line fill="none" stroke="#FFFFFF" stroke-width="3" stroke-linecap="round" stroke-miterlimit="10" x1="66.185" y1="103.072" x2="101.519" y2="103.072"/>
</svg>
