<?xml version="1.0" encoding="utf-8"?>
<!-- Generator: Adobe Illustrator 15.0.0, SVG Export Plug-In  -->
<!DOCTYPE svg PUBLIC "-//W3C//DTD SVG 1.1//EN" "http://www.w3.org/Graphics/SVG/1.1/DTD/svg11.dtd" [
	<!ENTITY ns_flows "http://ns.adobe.com/Flows/1.0/">
]>
<svg version="1.1"
	 xmlns="http://www.w3.org/2000/svg" xmlns:xlink="http://www.w3.org/1999/xlink" xmlns:a="http://ns.adobe.com/AdobeSVGViewerExtensions/3.0/"
	 x="0px" y="0px" width="84px" height="84px" viewBox="-0.001 0 84 84" overflow="visible" enable-background="new -0.001 0 84 84"
	 xml:space="preserve">
<defs>
</defs>
<circle fill="#D1D3D4" stroke="#FFFFFF" stroke-width="2" stroke-miterlimit="10" cx="41.068" cy="41.068" r="40.068"/>
<path fill="#FFFFFF" d="M57.451,24.158H28.102l-2.687,3.67h32.036c1.616,0,2.935,1.313,2.935,2.937v17.461l3.67-2.094V30.765
	C64.056,27.122,61.092,24.158,57.451,24.158z"/>
<path fill="#FFFFFF" d="M50.455,34.708c1.62,0,2.938,1.313,2.938,2.935V53.99c0,1.619-1.317,2.936-2.938,2.936H24.686
	c-1.622,0-2.937-1.314-2.937-2.936V37.644c0-1.622,1.315-2.935,2.937-2.935L50.455,34.708 M50.455,31.037H24.686
	c-3.64,0-6.603,2.965-6.603,6.607V53.99c0,3.643,2.963,6.604,6.603,6.604h25.769c3.642,0,6.606-2.963,6.606-6.604V37.644
	C57.062,34.001,54.097,31.037,50.455,31.037L50.455,31.037z"/>
</svg>
