<?xml version="1.0" encoding="utf-8"?>
<!-- Generator: Adobe Illustrator 15.0.0, SVG Export Plug-In  -->
<!DOCTYPE svg PUBLIC "-//W3C//DTD SVG 1.1//EN" "http://www.w3.org/Graphics/SVG/1.1/DTD/svg11.dtd" [
	<!ENTITY ns_flows "http://ns.adobe.com/Flows/1.0/">
]>
<svg version="1.1"
	 xmlns="http://www.w3.org/2000/svg" xmlns:xlink="http://www.w3.org/1999/xlink" xmlns:a="http://ns.adobe.com/AdobeSVGViewerExtensions/3.0/"
	 x="0px" y="0px" width="196px" height="196px" viewBox="-1.5 -1.7 196 196"
	 overflow="visible" enable-background="new -1.5 -1.7 196 196" xml:space="preserve">
<defs>
</defs>
<path fill="#FFFFFF" d="M96.3,192.6C43.2,192.6,0,149.4,0,96.3C0,43.2,43.2,0,96.3,0c53.1,0,96.3,43.2,96.3,96.3
	C192.6,149.4,149.4,192.6,96.3,192.6z M96.3,11.7c-46.6,0-84.6,37.9-84.6,84.6c0,46.6,37.9,84.6,84.6,84.6
	c46.6,0,84.6-37.9,84.6-84.6C180.9,49.7,142.9,11.7,96.3,11.7z"/>
<path fill="#00AEEF" d="M28.7,28.2C46.3,10.6,69.6,0.6,94.5,0c53.1-1.2,97.3,41,98.5,94.1l-11.7,0.3c-1.1-46.6-39.9-83.7-86.5-82.6
	c-22.6,0.5-43.6,9.8-59.2,26.1C20,54.2,11.7,75.6,12.2,98.2L0.5,98.5c-0.6-25.7,8.9-50.1,26.6-68.7C27.6,29.2,28.1,28.7,28.7,28.2z"
	/>
<circle opacity="0.9" fill="#AFE0E7" cx="96.7" cy="96.2" r="84.8"/>
<circle fill="none" stroke="#FFFFFF" stroke-miterlimit="10" cx="96.7" cy="96.2" r="67.8"/>
<path fill="#FFFFFF" d="M77.7,73.2c0-1,0.7-1.5,1.6-1l39.8,23c0.9,0.5,0.9,1.4,0,1.9l-39.8,23c-0.9,0.5-1.6,0.1-1.6-1V73.2z"/>
</svg>
