<?xml version="1.0" encoding="utf-8"?>
<!-- Generator: Adobe Illustrator 15.0.0, SVG Export Plug-In . SVG Version: 6.00 Build 0)  -->
<!DOCTYPE svg PUBLIC "-//W3C//DTD SVG 1.1//EN" "http://www.w3.org/Graphics/SVG/1.1/DTD/svg11.dtd">
<svg version="1.1" id="Layer_1" xmlns="http://www.w3.org/2000/svg" xmlns:xlink="http://www.w3.org/1999/xlink" x="0px" y="0px"
	 width="196px" height="196px" viewBox="0 0 196 196" enable-background="new 0 0 196 196" xml:space="preserve">
<circle opacity="0.9" fill="#AFE0E7" enable-background="new    " cx="96.61" cy="96.337" r="84.767"/>
<circle fill="none" stroke="#FFFFFF" stroke-miterlimit="10" cx="96.609" cy="96.337" r="67.812"/>
<path id="upload-2-icon_2_" fill="#FFFFFF" d="M86.675,85.529h-8.193L96.3,67.682l17.817,17.847h-8.193v22.423H86.675V85.529z
	 M112.9,106.247v8.062H79.696v-8.062h-6.185v14.241h45.572v-14.241H112.9z"/>
<path fill="#FFFFFF" d="M96.296,192.675c-53.099,0-96.298-43.198-96.298-96.296c0-53.1,43.199-96.299,96.298-96.3
	c53.099,0,96.3,43.199,96.3,96.3C192.596,149.477,149.395,192.675,96.296,192.675z M96.296,11.809
	c-46.632,0-84.568,37.938-84.568,84.57c0,46.629,37.937,84.566,84.568,84.566c46.632,0,84.567-37.938,84.567-84.566
	C180.863,49.747,142.928,11.809,96.296,11.809z"/>
<path fill="#00AEEF" d="M164.434,164.406c17.599-17.6,27.568-40.896,28.14-65.858c1.206-53.085-40.996-97.258-94.08-98.469
	l-0.267,11.729c46.616,1.062,83.676,39.854,82.616,86.473c-0.516,22.584-9.773,43.63-26.125,59.219
	c-16.332,15.604-37.763,23.914-60.347,23.398l-0.27,11.729c25.714,0.588,50.121-8.876,68.718-26.646
	C163.365,165.461,163.902,164.936,164.434,164.406z"/>
</svg>
