<?xml version="1.0" encoding="utf-8"?>
<!-- Generator: Adobe Illustrator 15.0.0, SVG Export Plug-In . SVG Version: 6.00 Build 0)  -->
<!DOCTYPE svg PUBLIC "-//W3C//DTD SVG 1.1//EN" "http://www.w3.org/Graphics/SVG/1.1/DTD/svg11.dtd">
<svg version="1.1" id="Layer_1" xmlns="http://www.w3.org/2000/svg" xmlns:xlink="http://www.w3.org/1999/xlink" x="0px" y="0px"
	 width="196px" height="196px" viewBox="0 0 196 196" enable-background="new 0 0 196 196" xml:space="preserve">
<path fill="#D1D3D4" d="M181.476,96.207c0,46.816-37.951,84.768-84.769,84.768c-46.816,0-84.766-37.951-84.766-84.768 M0.95,96.207
	c0,57.218,38.542,99.762,95.759,99.762c57.218,0,95.759-42.544,95.759-99.762"/>
<path fill="#FFFFFF" d="M96.297,192.596C43.198,192.596,0,149.396,0,96.301C0,43.201,43.198,0.002,96.297,0
	c53.1,0,96.299,43.199,96.299,96.301C192.596,149.396,149.396,192.596,96.297,192.596z M96.297,11.73
	c-46.632,0-84.569,37.938-84.569,84.57c0,46.628,37.938,84.566,84.569,84.566s84.568-37.938,84.568-84.566
	C180.865,49.669,142.928,11.73,96.297,11.73z"/>
<path fill="#00AEEF" d="M28.257,164.435c17.598,17.597,40.894,27.567,65.858,28.136c53.087,1.211,97.258-40.992,98.47-94.077
	l-11.729-0.268c-1.062,46.619-39.854,83.681-86.473,82.618c-22.585-0.516-43.632-9.776-59.22-26.125
	c-15.604-16.331-23.913-37.762-23.401-60.347L0.037,94.104c-0.586,25.716,8.877,50.12,26.646,68.72
	C27.203,163.367,27.729,163.904,28.257,164.435z"/>
<circle opacity="0.9" fill="#AFE0E7" enable-background="new    " cx="96.709" cy="96.208" r="84.766"/>
<circle fill="none" stroke="#FFFFFF" stroke-miterlimit="10" cx="96.708" cy="96.208" r="67.812"/>
<path fill="#FFFFFF" d="M77.308,73.209c0-1.045,0.74-1.473,1.645-0.95L118.79,95.26c0.905,0.522,0.905,1.378-0.001,1.9
	l-39.835,22.996c-0.905,0.521-1.646,0.095-1.646-0.949V73.209z"/>
</svg>
