<?xml version="1.0" encoding="utf-8"?>
<!-- Generator: Adobe Illustrator 15.0.0, SVG Export Plug-In  -->
<!DOCTYPE svg PUBLIC "-//W3C//DTD SVG 1.1//EN" "http://www.w3.org/Graphics/SVG/1.1/DTD/svg11.dtd" [
	<!ENTITY ns_flows "http://ns.adobe.com/Flows/1.0/">
]>
<svg version="1.1"
	 xmlns="http://www.w3.org/2000/svg" xmlns:xlink="http://www.w3.org/1999/xlink" xmlns:a="http://ns.adobe.com/AdobeSVGViewerExtensions/3.0/"
	 x="0px" y="0px" width="48px" height="48px" viewBox="-5.996 -14.486 48 48"
	 overflow="visible" enable-background="new -5.996 -14.486 48 48" xml:space="preserve">
<defs>
</defs>
<path id="flickr-icon_2_" fill="#DDDFDB" d="M26.495,0c-3.709,0-6.922,2.122-8.491,5.218C16.434,2.122,13.223,0,9.514,0
	C4.26,0,0,4.259,0,9.514c0,5.253,4.26,9.513,9.514,9.513c3.709,0,6.921-2.123,8.49-5.219c1.569,3.096,4.782,5.219,8.491,5.219
	c5.253,0,9.512-4.26,9.512-9.513C36.007,4.259,31.748,0,26.495,0z M26.495,16.489c-3.849,0-6.978-3.13-6.978-6.976
	c0-3.847,3.129-6.977,6.978-6.977c3.846,0,6.976,3.13,6.976,6.977C33.471,13.359,30.341,16.489,26.495,16.489z"/>
<circle fill="#ED1C24" cx="29.601" cy="21.268" r="10.575"/>
<circle fill="#FFFFFF" cx="29.625" cy="27.209" r="1.553"/>
<path fill="#FFFFFF" d="M31.677,16.051c-0.131,1.047-1.096,6.141-1.414,7.814c-0.059,0.31-0.329,0.534-0.645,0.534h-0.013
	c-0.326,0-0.605-0.231-0.666-0.552c-0.322-1.699-1.284-6.797-1.414-7.827c-0.155-1.24,0.812-2.336,2.062-2.336
	C30.854,13.685,31.834,14.795,31.677,16.051z"/>
</svg>
