<?xml version="1.0" encoding="utf-8"?>
<!-- Generator: Adobe Illustrator 15.0.0, SVG Export Plug-In  -->
<!DOCTYPE svg PUBLIC "-//W3C//DTD SVG 1.1//EN" "http://www.w3.org/Graphics/SVG/1.1/DTD/svg11.dtd" [
	<!ENTITY ns_flows "http://ns.adobe.com/Flows/1.0/">
]>
<svg version="1.1"
	 xmlns="http://www.w3.org/2000/svg" xmlns:xlink="http://www.w3.org/1999/xlink" xmlns:a="http://ns.adobe.com/AdobeSVGViewerExtensions/3.0/"
	 x="0px" y="0px" width="104px" height="104px" viewBox="-1.2 -1.3 104 104"
	 overflow="visible" enable-background="new -1.2 -1.3 104 104" xml:space="preserve">
<defs>
</defs>
<path fill="#FFFFFF" d="M50.7,101.4C22.7,101.4,0,78.6,0,50.7C0,22.7,22.7,0,50.7,0c27.9,0,50.7,22.7,50.7,50.7
	C101.4,78.6,78.6,101.4,50.7,101.4z M50.7,6.2c-24.5,0-44.5,20-44.5,44.5c0,24.5,20,44.5,44.5,44.5c24.5,0,44.5-20,44.5-44.5
	C95.2,26.1,75.2,6.2,50.7,6.2z"/>
<path fill="#00AEEF" d="M15.1,14.8C24.4,5.6,36.6,0.3,49.8,0c27.9-0.6,51.2,21.6,51.8,49.5l-6.2,0.1c-0.6-24.5-21-44-45.5-43.5
	c-11.9,0.3-23,5.1-31.2,13.8C10.5,28.5,6.1,39.8,6.4,51.7l-6.2,0.1c-0.3-13.5,4.7-26.4,14-36.2C14.5,15.4,14.8,15.1,15.1,14.8z"/>
<circle opacity="0.9" fill="#AFE0E7" cx="50.9" cy="50.6" r="44.6"/>
<circle fill="none" stroke="#FFFFFF" stroke-miterlimit="10" cx="50.9" cy="50.6" r="35.7"/>
<path fill="#FFFFFF" d="M40.9,38.5c0-0.5,0.4-0.8,0.9-0.5l21,12.1c0.5,0.3,0.5,0.7,0,1l-21,12.1c-0.5,0.3-0.9,0-0.9-0.5V38.5z"/>
</svg>
