<?xml version="1.0" encoding="utf-8"?>
<!-- Generator: Adobe Illustrator 15.0.0, SVG Export Plug-In . SVG Version: 6.00 Build 0)  -->
<!DOCTYPE svg PUBLIC "-//W3C//DTD SVG 1.1//EN" "http://www.w3.org/Graphics/SVG/1.1/DTD/svg11.dtd">
<svg version="1.1" id="Layer_1" xmlns="http://www.w3.org/2000/svg" xmlns:xlink="http://www.w3.org/1999/xlink" x="0px" y="0px"
	 width="196px" height="196px" viewBox="0 0 196 196" enable-background="new 0 0 196 196" xml:space="preserve">
<circle opacity="0.9" fill="#AFE0E7" enable-background="new    " cx="96.612" cy="96.067" r="84.767"/>
<circle fill="none" stroke="#FFFFFF" stroke-miterlimit="10" cx="96.611" cy="96.067" r="67.812"/>
<path id="upload-2-icon_1_" fill="#FFFFFF" d="M86.677,85.259h-8.193l17.818-17.847l17.817,17.847h-8.193v22.423H86.677V85.259z
	 M112.902,105.977v8.061H79.698v-8.061h-6.185v14.241h45.573v-14.241H112.902z"/>
<path fill="#FFFFFF" d="M96.298,192.363C43.199,192.363,0,149.166,0,96.069c0-53.1,43.199-96.299,96.298-96.3
	c53.099,0,96.3,43.199,96.3,96.3C192.598,149.166,149.396,192.363,96.298,192.363z M96.298,11.498
	c-46.632,0-84.568,37.938-84.568,84.57c0,46.627,37.937,84.567,84.568,84.567c46.632,0,84.568-37.939,84.568-84.567
	C180.866,49.437,142.93,11.498,96.298,11.498z"/>
<path fill="#00AEEF" d="M96.4-0.231c24.888,0.002,48.411,9.422,66.467,26.675c38.393,36.683,39.783,97.757,3.104,136.152
	l-8.479-8.105c32.213-33.713,30.987-87.352-2.728-119.564c-16.334-15.604-37.766-23.938-60.348-23.4
	c-22.582,0.514-43.611,9.795-59.218,26.127l-8.481-8.105c17.768-18.6,41.718-29.166,67.434-29.752
	C94.901-0.221,95.654-0.231,96.4-0.231z"/>
</svg>
