<?xml version="1.0" encoding="utf-8"?>
<!-- Generator: Adobe Illustrator 15.0.0, SVG Export Plug-In . SVG Version: 6.00 Build 0)  -->
<!DOCTYPE svg PUBLIC "-//W3C//DTD SVG 1.1//EN" "http://www.w3.org/Graphics/SVG/1.1/DTD/svg11.dtd">
<svg version="1.1" id="Layer_1" xmlns="http://www.w3.org/2000/svg" xmlns:xlink="http://www.w3.org/1999/xlink" x="0px" y="0px"
	 width="196px" height="196px" viewBox="0 0 196 196" enable-background="new 0 0 196 196" xml:space="preserve">
<circle opacity="0.9" fill="#27AAE1" stroke="#FFFFFF" stroke-width="3" stroke-miterlimit="10" enable-background="new    " cx="98" cy="98" r="84.74"/>
<path fill="#FFFFFF" d="M98,166.777C60,166.777,29.221,136,29.221,98S60.192,29.22,98,29.22c38,0,68.779,30.78,68.779,68.78
	C166.779,135.998,136,166.777,98,166.777z M98,31.119c-36.859,0-66.881,30.021-66.881,66.88c0,36.858,30.021,66.878,66.881,66.878
	c36.859,0,66.879-30.02,66.879-66.878C164.879,61.141,134.859,31.119,98,31.119z"/>
<path fill="#FFFFFF" d="M80.9,76.149c0-0.95,0.76-1.521,1.709-0.95l39.9,22.99c0.951,0.569,0.951,1.329,0,1.898l-39.9,22.99
	c-0.949,0.569-1.709,0-1.709-0.951V76.149z"/>
<circle fill="none" stroke="#FFFFFF" stroke-miterlimit="10" cx="98.41" cy="98.6" r="67.812"/>
</svg>
