<?xml version="1.0" encoding="utf-8"?>
<!-- Generator: Adobe Illustrator 15.0.0, SVG Export Plug-In  -->
<!DOCTYPE svg PUBLIC "-//W3C//DTD SVG 1.1//EN" "http://www.w3.org/Graphics/SVG/1.1/DTD/svg11.dtd" [
	<!ENTITY ns_flows "http://ns.adobe.com/Flows/1.0/">
]>
<svg version="1.1"
	 xmlns="http://www.w3.org/2000/svg" xmlns:xlink="http://www.w3.org/1999/xlink" xmlns:a="http://ns.adobe.com/AdobeSVGViewerExtensions/3.0/"
	 x="0px" y="0px" width="32px" height="32px" viewBox="-1 5.898 32 32" overflow="visible" enable-background="new -1 5.898 32 32"
	 xml:space="preserve">
<defs>
</defs>
<path display="none" fill-rule="evenodd" clip-rule="evenodd" fill="#009444" d="M38.315,17.106
	c1.203-0.527,0.678-2.725,0.678-4.229c0-2.079-0.213-4.104,1.521-4.4c4.048-0.691,1.316,6.186,2.879,8.8
	c2.115-1.642-1.307-8.961,2.705-8.8c3.426,0.14,0.789,6.332,2.369,8.8c1.76-1.458-0.332-6.028,1.354-7.275
	c0.451-0.334,1.866-0.498,2.539,0c1.375,1.018,0.702,9.069,0.676,11.505c-0.049,4.763-0.51,8.339-1.183,10.66
	c-4.495-0.704-9.181,0.951-13.366,0c-1.314-0.298-3.688-2.512-4.738-3.384c-1.391-1.153-3.451-2.811-3.725-4.23
	c-0.592-3.092,2.893-5.279,3.295-8.291c0.77,1.993-1.496,6.269,0.09,7.445c0.912-1.05,0.508-3.34,0.508-5.246
	c0-3.518,0-7.563,0-11.337c0-2.848-0.67-6.844,1.691-7.106c3.26-0.362,2.199,5.474,2.199,8.969c0,1.492,0,3.019,0,4.398
	C37.808,14.699,37.397,16.346,38.315,17.106z"/>
<path id="edit-8-icon_1_" display="none" d="M0.001,36.445l9.975-2.256l-7.539-7.53L0.001,36.445z M21.986,6.897L4.567,24.307
	l7.766,7.762l17.421-17.41L21.986,6.897z"/>
<polygon id="open_x5F_arrow_2_" display="none" fill="#555452" points="0.001,36.873 29.977,36.873 29.977,6.897 "/>
<polygon display="none" fill="#555452" points="18.184,17.045 18.184,10.222 29.914,21.933 18.18,33.647 18.18,26.581 0.203,26.581 
	0.203,17.045 "/>
<polygon display="none" fill="#555452" points="11.732,26.823 11.732,33.647 0.001,21.936 11.735,10.221 11.735,17.288 
	29.713,17.288 29.713,26.823 "/>
<polygon id="expand_1_" display="none" fill="#555452" points="7.892,6.819 7.892,36.977 22.969,21.898 "/>
<path id="fullscreen-icon_1_" display="none" d="M7.862,34.344l2.547,2.554H0V26.489l2.554,2.549l4.17-4.17l5.307,5.309
	L7.862,34.344z M19.594,6.897l2.549,2.553l-4.084,4.083l5.309,5.307l4.084-4.083l2.551,2.548V6.897H19.594z M2.554,14.757L0,17.305
	V6.897h10.409L7.862,9.449l4.168,4.169l-5.307,5.309L2.554,14.757z M30.002,26.489l-2.551,2.549l-4.084-4.085l-5.309,5.309
	l4.084,4.085l-2.549,2.551h10.409V26.489z"/>
<polygon id="play_2_" display="none" points="25.85,21.897 4.151,36.896 4.151,6.9 "/>
<rect x="19.251" y="7.95" display="none" width="8.343" height="27.896"/>
<rect x="2.407" y="7.95" display="none" width="8.343" height="27.896"/>
<polygon display="none" fill="#333333" points="24.354,33.112 1.946,33.112 1.946,10.706 25.955,10.706 25.955,9.105 0.346,9.105 
	0.346,34.713 25.955,34.713 25.955,9.11 24.354,9.11 "/>
<polygon fill="#ED352A" points="26.044,8.405 13.131,23.121 7.9,18.53 4.732,22.14 13.573,29.897 29.654,11.569 "/>
<polygon fill="#333333" points="24.354,33.112 1.946,33.112 1.946,10.706 22.753,10.706 22.753,9.105 0.346,9.105 0.346,34.713 
	25.955,34.713 25.955,20.308 24.354,20.308 "/>
<path display="none" d="M6.812,24.395c-1.921,0.001-3.483-1.562-3.483-3.482c0-1.922,1.562-3.485,3.483-3.485h8.692l-2.627-3.201
	H6.812c-3.692,0-6.685,2.994-6.685,6.686c0,3.69,2.993,6.683,6.685,6.683h2.688h1.796h0.872l-2.67-3.2"/>
<path display="none" d="M23.188,17.428c1.922,0,3.485,1.563,3.485,3.485c0,1.92-1.563,3.483-3.485,3.483h-8.692l2.67,3.199h6.022
	c3.692,0,6.685-2.992,6.685-6.683c0-3.691-2.992-6.686-6.685-6.686h-1.685h-2.62h-0.509h-0.5l2.627,3.201h0.875
	c0.001,0,0.002-0.001,0.003-0.001"/>
<path id="link_x5F_locked_1_" display="none" d="M13.141,14.228c0.646,0,1.27,0.093,1.861,0.263c3.29,0.953,5.389,4.297,4.685,7.729
	h-3.3c0.606-1.554,0.046-3.344-1.385-4.251c-0.54-0.341-1.177-0.54-1.861-0.54H6.812c-1.921,0-3.483,1.563-3.483,3.485
	c0,1.92,1.562,3.483,3.483,3.482l1.952,0.001c0.533,1.238,1.344,2.33,2.354,3.199H6.812c-3.692,0-6.685-2.992-6.685-6.683
	c0-3.691,2.993-6.686,6.685-6.686H13.141z M23.188,14.228h-4.304c1.008,0.87,1.819,1.96,2.354,3.201h1.95
	c1.922,0,3.485,1.563,3.485,3.485c0,1.92-1.563,3.483-3.485,3.483h-6.326c-1.929-0.001-3.485-1.575-3.485-3.483
	c0-0.447,0.085-0.917,0.237-1.309h-3.303c-0.088,0.437-0.133,0.846-0.133,1.309c0,1.194,0.315,2.398,0.979,3.482
	c0.859,1.407,2.226,2.471,3.844,2.936c0.589,0.172,1.214,0.265,1.861,0.265h6.326c3.692,0,6.685-2.992,6.685-6.683
	C29.873,17.222,26.881,14.228,23.188,14.228z"/>
</svg>
