<?xml version="1.0" encoding="utf-8"?>
<!-- Generator: Adobe Illustrator 15.0.0, SVG Export Plug-In  -->
<!DOCTYPE svg PUBLIC "-//W3C//DTD SVG 1.1//EN" "http://www.w3.org/Graphics/SVG/1.1/DTD/svg11.dtd" [
	<!ENTITY ns_flows "http://ns.adobe.com/Flows/1.0/">
]>
<svg version="1.1"
	 xmlns="http://www.w3.org/2000/svg" xmlns:xlink="http://www.w3.org/1999/xlink" xmlns:a="http://ns.adobe.com/AdobeSVGViewerExtensions/3.0/"
	 x="0px" y="0px" width="104px" height="104px" viewBox="-1 -1.3 104 104"
	 overflow="visible" enable-background="new -1 -1.3 104 104" xml:space="preserve">
<defs>
</defs>
<path fill="#FFFFFF" d="M50.9,101.4C23,101.4,0.2,78.7,0.2,50.7C0.2,22.8,23,0,50.9,0c27.9,0,50.7,22.7,50.7,50.7
	C101.6,78.7,78.8,101.4,50.9,101.4z M50.9,6.2c-24.5,0-44.5,20-44.5,44.5c0,24.5,20,44.5,44.5,44.5c24.5,0,44.5-20,44.5-44.5
	C95.4,26.2,75.4,6.2,50.9,6.2z"/>
<path fill="#00AEEF" d="M14.8,86.5C5.6,77.2,0.3,65,0,51.8C-0.6,23.9,21.6,0.6,49.5,0l0.1,6.2c-24.5,0.6-44,21-43.5,45.5
	c0.3,11.9,5.1,23,13.8,31.2c8.6,8.2,19.9,12.6,31.8,12.3l0.1,6.2c-13.5,0.3-26.4-4.7-36.2-14C15.4,87,15.1,86.8,14.8,86.5z"/>
<circle opacity="0.9" fill="#AFE0E7" cx="51.1" cy="50.7" r="44.6"/>
<circle fill="none" stroke="#FFFFFF" stroke-miterlimit="10" cx="51.1" cy="50.7" r="35.7"/>
<path fill="#FFFFFF" d="M41.1,38.6c0-0.5,0.4-0.8,0.9-0.5l21,12.1c0.5,0.3,0.5,0.7,0,1L42,63.3c-0.5,0.3-0.9,0-0.9-0.5V38.6z"/>
</svg>
