<?xml version="1.0" encoding="utf-8"?>
<!-- Generator: Adobe Illustrator 15.0.0, SVG Export Plug-In . SVG Version: 6.00 Build 0)  -->
<!DOCTYPE svg PUBLIC "-//W3C//DTD SVG 1.1//EN" "http://www.w3.org/Graphics/SVG/1.1/DTD/svg11.dtd">
<svg version="1.1" id="Layer_1" xmlns="http://www.w3.org/2000/svg" xmlns:xlink="http://www.w3.org/1999/xlink" x="0px" y="0px"
	 width="196px" height="196px" viewBox="-46 -46 196 196" enable-background="new -46 -46 196 196" xml:space="preserve">
<circle fill="#D1D3D4" cx="52" cy="52" r="84.74"/>
<path fill="#FFFFFF" d="M52,120.779C14,120.779-16.78,90-16.78,52c0-38,30.971-68.78,68.78-68.78c38,0,68.779,30.78,68.779,68.78
	C120.779,90,90,120.779,52,120.779z M52-14.88C15.141-14.88-14.88,15.141-14.88,52c0,36.859,30.021,66.878,66.881,66.878
	c36.859,0,66.878-30.02,66.878-66.878C118.879,15.141,88.859-14.88,52-14.88z"/>
<path fill="#FFFFFF" d="M42.31,40.6h-8.169L52,22.741L69.859,40.6h-8.168V63.02H42.31V40.6z M68.721,61.311v7.98H35.47v-7.98h-6.27
	v14.25h45.598v-14.25H68.721z"/>
</svg>
