<?xml version="1.0" encoding="utf-8"?>
<!-- Generator: Adobe Illustrator 15.0.0, SVG Export Plug-In . SVG Version: 6.00 Build 0)  -->
<!DOCTYPE svg PUBLIC "-//W3C//DTD SVG 1.1//EN" "http://www.w3.org/Graphics/SVG/1.1/DTD/svg11.dtd">
<svg version="1.1" id="Layer_1" xmlns="http://www.w3.org/2000/svg" xmlns:xlink="http://www.w3.org/1999/xlink" x="0px" y="0px"
	 width="196px" height="196px" viewBox="0 0 196 196" enable-background="new 0 0 196 196" xml:space="preserve">
<g opacity="0.9" enable-background="new    ">
	<path fill="#D1D3D4" d="M181.74,96.238c0,46.817-37.951,84.767-84.767,84.767s-84.767-37.95-84.767-84.767 M1.214,96.238
		c0,57.218,38.542,99.762,95.76,99.762c57.217,0,95.758-42.544,95.758-99.762"/>
</g>
<circle opacity="0.9" fill="#AFE0E7" enable-background="new    " cx="96.612" cy="96.298" r="84.767"/>
<circle fill="none" stroke="#FFFFFF" stroke-miterlimit="10" cx="96.611" cy="96.298" r="67.812"/>
<path id="upload-2-icon_2_" fill="#FFFFFF" d="M86.677,85.49h-8.193l17.818-17.847l17.817,17.847h-8.193v22.423H86.677V85.49z
	 M112.902,106.208v8.062H79.698v-8.062h-6.185v14.241h45.573v-14.241H112.902z"/>
<path fill="#FFFFFF" d="M96.298,192.594C43.199,192.594,0,149.396,0,96.3C0,43.2,43.199,0.001,96.298,0
	c53.099,0,96.3,43.199,96.3,96.3C192.598,149.396,149.396,192.594,96.298,192.594z M96.298,11.729
	c-46.632,0-84.568,37.938-84.568,84.57c0,46.627,37.937,84.567,84.568,84.567c46.632,0,84.568-37.939,84.568-84.567
	C180.866,49.668,142.93,11.729,96.298,11.729z"/>
<path fill="#00AEEF" d="M133.57,7.635c22.99,9.525,41.117,27.229,51.197,50.079c21.434,48.582-0.654,105.539-49.233,126.976
	l-4.733-10.733c42.662-18.82,62.059-68.845,43.236-111.506c-9.12-20.668-25.73-36.568-46.801-44.714
	c-21.061-8.166-44.04-7.64-64.708,1.477L57.795,8.479c23.534-10.385,49.704-10.981,73.688-1.682
	C132.182,7.069,132.88,7.349,133.57,7.635z"/>
</svg>
