<?xml version="1.0" encoding="utf-8"?>
<!-- Generator: Adobe Illustrator 15.0.0, SVG Export Plug-In . SVG Version: 6.00 Build 0)  -->
<!DOCTYPE svg PUBLIC "-//W3C//DTD SVG 1.1//EN" "http://www.w3.org/Graphics/SVG/1.1/DTD/svg11.dtd">
<svg version="1.1" id="Layer_1" xmlns="http://www.w3.org/2000/svg" xmlns:xlink="http://www.w3.org/1999/xlink" x="0px" y="0px"
	 width="48px" height="48px" viewBox="0 0 48 48" enable-background="new 0 0 48 48" xml:space="preserve">
<rect display="none" fill="#E6E7E8" width="48" height="48"/>
<g display="none">
	<path display="inline" d="M11.266,40.007c-4.4,0-6.2-3.118-4-6.928l12.735-22.058c2.2-3.811,5.8-3.811,8,0l12.733,22.058
		c2.201,3.812,0.397,6.928-4,6.928H11.266z"/>
</g>
<path display="none" fill="#FFFFFF" d="M25.695,29.979h-3.39V17.252h3.39V29.979z M25.695,36.119h-3.39v-3.602h3.39V36.119z"/>
<path display="none" d="M34.244,16.844c0-0.818-0.729-1.479-1.626-1.479s-1.627,0.663-1.627,1.479v6.608h-1.177v-7.319
	c0-0.953-0.729-1.725-1.625-1.725c-0.898,0-1.627,0.772-1.627,1.725v7.319H25.26v-8.381c0-0.953-0.729-1.725-1.626-1.725
	c-0.897,0-1.626,0.772-1.626,1.725v8.381H20.73V8.109c0-1.089-0.882-1.971-1.971-1.971c-1.088,0-1.972,0.882-1.972,1.971v19.575
	l-1.132-0.5v-5.89c0,0-1.462,3.336-2.251,4.894c-0.492,0.973-0.839,2.209-0.851,3.299c-0.021,2.129,6.605,7.736,9.306,7.75
	c2.02,0.013,8.713,0.018,9.886-0.086c2.612-0.226,2.474-3.198,2.474-3.198l0.027-0.558V16.844H34.244z"/>
<rect x="18.101" y="38.787" display="none" width="15.542" height="3.074"/>
<path id="picture-box-icon_7_" display="none" fill="#DDDFDB" d="M29.279,31.27l-2.319,2.164h-5.946l-2.327-2.164H5.955H5.95
	l1.312,7.799l33.283-0.002l1.396-7.797h-0.004H29.279z M38.674,13.7H9.217L8.87,11.809h30.153L38.674,13.7z M36.65,10.424H11.325
	l-0.348-1.492h26.024L36.65,10.424z M8.052,29.273L6.873,15.185h34.072l-1.209,14.088h-2.987l0.819-11.479h-27.4l0.901,11.479H8.052
	z"/>
<path id="location_3_" display="none" fill="#DDDFDB" d="M34.79,16.752c0-5.951-4.828-10.778-10.79-10.778
	s-10.79,4.827-10.79,10.778c0,1.708,0.406,3.316,1.108,4.751H14.31l9.688,20.283H24l0,0l9.688-20.283H33.68
	C34.382,20.068,34.79,18.46,34.79,16.752z M24,10.955c3.207,0,5.811,2.603,5.811,5.81c0,1.364-0.476,2.615-1.265,3.607
	c-1.062,1.339-2.702,2.203-4.548,2.203c-1.845,0-3.482-0.863-4.548-2.203c-0.788-0.992-1.262-2.243-1.262-3.607
	C18.188,13.558,20.792,10.955,24,10.955z"/>
<polygon display="none" fill="#DDDFDB" points="7.318,18.928 7.318,36.381 40.682,36.381 40.682,18.928 23.999,27.223 "/>
<polygon display="none" fill="#DDDFDB" points="7.318,11.619 7.318,16.264 23.999,24.557 40.682,16.264 40.682,11.619 "/>
<path id="bluetooth_4_" display="none" fill="#DDDFDB" d="M34.109,16.987L22.087,5.974v14.109l-5.829-5.646l-2.367,2.367
	l7.237,6.939l-7.237,7.633l2.58,2.408l5.617-5.687v14.023L34.109,31.01l-7.649-7.104L34.109,16.987z M25.367,13.521l3.77,3.501
	l-3.77,3.501C25.367,20.522,25.367,13.672,25.367,13.521z M29.135,31.014l-3.769,3.5c0,0,0-6.851,0-7.002L29.135,31.014z"/>
<path id="usb_1_" display="none" fill="#DDDFDB" d="M24,5.521l-3.563,4.484h2.83v20.19l-4.665-4.463
	c-0.301-0.379-0.514-0.877-0.523-1.391c0-2.066-0.001-1.93-0.001-2.383c0.864-0.305,1.487-1.129,1.487-2.107
	c0-1.238-0.995-2.242-2.22-2.242c-1.227,0-2.22,1.004-2.22,2.242c0,0.979,0.624,1.803,1.487,2.107L16.61,24.3
	c0,1.005,0.546,2.058,1.185,2.728c-0.02-0.021-0.04-0.037,0,0c0.016,0.016,4.948,4.733,4.948,4.733
	c0.301,0.38,0.512,0.878,0.521,1.39v1.908c-1.694,0.346-2.969,1.856-2.969,3.672c0,2.069,1.655,3.746,3.703,3.746
	c2.047,0,3.704-1.677,3.704-3.746c0-1.812-1.274-3.326-2.972-3.672v-1.865c0-0.006,0-0.012,0-0.012V27.54
	c0.012-0.513,0.223-1.008,0.521-1.388c0,0,4.935-3.354,4.948-3.368c0.039-0.037,0.018-0.018,0,0c0.64-0.67,1.188-1.039,1.188-2.043
	l-0.004-3.57h1.487v-4.484h-4.438v4.486h1.485c0,0-0.004,0.938-0.004,3.611c-0.011,0.512-0.222,0.328-0.521,0.705l-4.666,3.1V10.006
	h2.832L24,5.521z"/>
<path id="vimeo_1_" display="none" fill="#DDDFDB" d="M41.902,15.606c-0.164,3.515-2.615,8.33-7.364,14.441
	c-4.908,6.38-9.062,9.573-12.459,9.573c-2.104,0-3.886-1.942-5.339-5.83c-0.974-3.563-1.944-7.128-2.915-10.691
	c-1.08-3.885-2.239-5.83-3.479-5.83c-0.269,0-1.214,0.567-2.834,1.7l-1.699-2.19c1.784-1.567,3.541-3.13,5.27-4.7
	c2.378-2.053,4.162-3.133,5.351-3.243c2.809-0.269,4.539,1.652,5.189,5.765c0.701,4.438,1.186,7.198,1.458,8.28
	c0.811,3.682,1.702,5.52,2.675,5.52c0.756,0,1.891-1.195,3.404-3.582c1.515-2.393,2.324-4.206,2.434-5.456
	c0.213-2.06-0.596-3.094-2.434-3.094c-0.863,0-1.756,0.2-2.672,0.591c1.773-5.813,5.166-8.638,10.169-8.477
	C40.367,8.493,42.117,10.899,41.902,15.606z"/>
<path id="facebook_3_" display="none" fill="#DDDFDB" d="M36.477,7.525H11.526c-2.209,0-4,1.791-4,3.999v24.953c0,2.209,1.792,4,4,4
	h24.951c2.209,0,3.998-1.791,3.998-4V11.524C40.475,9.316,38.686,7.525,36.477,7.525z M29.419,16.374c0,0-1.832,0-2.558,0
	c-0.903,0-1.092,0.371-1.092,1.305c0,0.777,0,2.258,0,2.258h3.647L29.066,23.9H25.77v11.84h-4.728V23.95h-2.458v-4.014h2.458
	c0,0,0-0.577,0-3.16c0-2.965,1.585-4.516,5.104-4.516c0.576,0,3.271,0,3.271,0L29.419,16.374L29.419,16.374z"/>
<path id="you_x5F_tube_1_" display="none" fill="#DDDFDB" d="M13.012,6.054h2.155l1.475,5.536l1.37-5.536h2.175l-2.49,8.235v5.616
	h-2.139v-5.616L13.012,6.054z M20.09,17.358c0,1.799,0.94,2.738,2.784,2.738c1.526,0,2.729-1.021,2.729-2.738v-5.009
	c0-1.601-1.19-2.747-2.729-2.747c-1.675,0-2.784,1.107-2.784,2.747V17.358z M22.044,12.518c0-0.559,0.257-0.976,0.792-0.976
	c0.583,0,0.833,0.404,0.833,0.976v4.751c0,0.559-0.284,0.97-0.795,0.97c-0.526,0-0.83-0.43-0.83-0.97V12.518z M30.738,9.688v7.756
	c-0.229,0.288-0.744,0.767-1.116,0.767c-0.405,0-0.506-0.28-0.506-0.69V9.688h-1.898v8.54c0,1.011,0.31,1.824,1.327,1.824
	c0.575,0,1.371-0.297,2.193-1.275v1.129h1.904V9.688H30.738z M27.943,30.635c0.132,0.168,0.195,0.42,0.195,0.747v5.024
	c0,0.31-0.055,0.533-0.158,0.67c-0.196,0.262-0.629,0.249-0.924,0.101c-0.142-0.069-0.281-0.184-0.431-0.343V30.77
	c0.123-0.131,0.247-0.23,0.374-0.297C27.318,30.314,27.727,30.348,27.943,30.635z M34.036,30.415c-0.671,0-0.808,0.471-0.808,1.14
	v0.985h1.599v-0.985C34.827,30.896,34.688,30.415,34.036,30.415z M39.553,37.593c0,2.404-1.949,4.354-4.354,4.354H12.804
	c-2.405,0-4.357-1.95-4.357-4.354V26.589c0-2.406,1.952-4.358,4.357-4.358h22.393c2.406,0,4.354,1.952,4.354,4.358L39.553,37.593
	L39.553,37.593z M15.79,27.41h2.107v-1.913h-6.253v1.913h2.109v11.275h2.038L15.79,27.41L15.79,27.41z M23.036,28.956h-1.808v7.385
	c-0.222,0.279-0.713,0.729-1.064,0.729c-0.388,0-0.483-0.262-0.483-0.653v-7.461h-1.808v8.134c0,1.975,1.339,1.985,2.314,1.428
	c0.358-0.207,0.708-0.509,1.041-0.906v1.074h1.808V28.956z M30.001,31.273c0-1.319-0.438-2.439-1.765-2.439
	c-0.646,0-1.199,0.41-1.608,0.908v-4.245h-1.827v13.188h1.827v-0.746c0.505,0.629,1.058,0.871,1.72,0.871
	c1.203,0,1.654-0.937,1.654-2.142L30.001,31.273L30.001,31.273z M36.688,31.572c0-1.758-0.838-2.861-2.576-2.861
	c-1.629,0-2.742,1.173-2.742,2.861v4.369c0,1.752,0.883,3.01,2.607,3.01c1.904,0,2.711-1.135,2.711-3.01v-0.733h-1.858v0.677
	c0,0.848-0.046,1.36-0.812,1.36c-0.728,0-0.789-0.629-0.789-1.36v-1.834h3.459V31.572L36.688,31.572z"/>
<path id="twitter_1_" display="none" fill="#DDDFDB" d="M23.372,20.546c1.146-3.658,2.552-6.029,4.169-7.748
	c1.206-1.283,1.83-1.689,1.122-0.277c0.312-0.26,0.764-0.598,1.114-0.781c1.955-0.941,1.818-0.152,0.47,0.693
	c3.685-1.346,3.558,0.361-0.337,1.219c3.186,0.055,6.576,2.113,7.559,6.496c0.139,0.605-0.025,0.549,0.586,0.658
	c1.317,0.236,2.562,0.219,3.771-0.174c-0.131,0.908-1.309,1.498-3.146,1.893c-0.683,0.145-0.822,0.105-0.004,0.293
	c1.006,0.227,2.129,0.285,3.319,0.225c-0.927,1.088-2.401,1.645-4.228,1.67C36.63,28.957,34.025,32,30.725,33.91
	c-7.75,4.492-19.043,3.857-24.723-4.268c3.722,2.957,9.228,3.604,13.311-0.537c-2.679,0.006-3.377-2.033-1.254-3.142
	c-2.009-0.019-3.288-0.657-4.041-1.834c-0.285-0.441-0.288-0.479,0.175-0.816c0.509-0.379,1.206-0.545,1.926-0.604
	c-2.084-0.604-3.355-1.707-3.801-3.189c-0.144-0.49-0.169-0.465,0.323-0.592c0.479-0.125,1.099-0.189,1.651-0.221
	c-1.637-1.006-2.615-2.24-2.865-3.605c-0.237-1.289,0.006-0.957,0.955-0.592C16.629,16.159,20.863,17.925,23.372,20.546
	L23.372,20.546z"/>
<path id="soundcloud-icon_4_" display="none" fill="#DDDFDB" d="M42.018,27.124c0,2.5-1.959,4.526-4.373,4.526H25.477V16.1
	c0.467-0.175,0.949-0.306,1.453-0.387c0.395-0.063,0.793-0.097,1.203-0.097c4.072,0,7.411,3.25,7.725,7.379
	c0.547-0.253,1.15-0.395,1.787-0.395C40.059,22.6,42.018,24.625,42.018,27.124z M20.928,19.172v12.477h1.452V18.261
	c-0.324,0.37-0.614,0.772-0.867,1.201C21.324,19.354,21.129,19.258,20.928,19.172z M23.178,31.648h1.452V16.479
	c-0.521,0.273-1.007,0.605-1.452,0.989V31.648z M13.959,20.736V31.65h1.452V19.543C14.872,19.865,14.382,20.269,13.959,20.736z
	 M9.604,23v8.611c0.178,0.021,0.36,0.037,0.544,0.037h0.762v-8.614c-0.247-0.048-0.501-0.072-0.762-0.072
	C9.964,22.962,9.782,22.976,9.604,23z M7.68,30.818c0.329,0.25,0.695,0.449,1.088,0.59v-8.205c-0.393,0.142-0.759,0.341-1.088,0.589
	V30.818z M11.708,23.274v8.375h1.452V21.83c-0.327,0.562-0.574,1.179-0.725,1.834C12.207,23.511,11.963,23.38,11.708,23.274z
	 M16.281,31.648h1.452V18.734c-0.505,0.066-0.99,0.196-1.452,0.38V31.648z M18.605,31.648h1.451V18.875
	c-0.466-0.12-0.95-0.187-1.451-0.192V31.648L18.605,31.648z M6.965,30.137v-5.664c-0.633,0.761-1.016,1.751-1.016,2.833
	C5.95,28.389,6.333,29.377,6.965,30.137z"/>
<g id="soundcloud-icon_3_" display="none">
	<g display="inline" opacity="0.9">
		<path fill="#ED1F24" d="M42.018,27.124c0,2.5-1.959,4.526-4.373,4.526H25.477V16.1c0.467-0.175,0.949-0.306,1.453-0.387
			c0.395-0.063,0.793-0.097,1.203-0.097c4.072,0,7.411,3.25,7.725,7.379c0.547-0.253,1.15-0.395,1.787-0.395
			C40.059,22.6,42.018,24.625,42.018,27.124z M20.928,19.172v12.477h1.452V18.261c-0.324,0.37-0.614,0.772-0.867,1.201
			C21.324,19.354,21.129,19.258,20.928,19.172z M23.178,31.648h1.452V16.479c-0.521,0.273-1.007,0.605-1.452,0.989V31.648z
			 M13.959,20.736V31.65h1.452V19.543C14.872,19.865,14.382,20.269,13.959,20.736z M9.604,23v8.611
			c0.178,0.021,0.36,0.037,0.544,0.037h0.762v-8.614c-0.247-0.048-0.501-0.072-0.762-0.072C9.964,22.962,9.782,22.976,9.604,23z
			 M7.68,30.818c0.329,0.25,0.695,0.449,1.088,0.59v-8.205c-0.393,0.142-0.759,0.341-1.088,0.589V30.818z M11.708,23.274v8.375
			h1.452V21.83c-0.327,0.562-0.574,1.179-0.725,1.834C12.207,23.511,11.963,23.38,11.708,23.274z M16.281,31.648h1.452V18.734
			c-0.505,0.066-0.99,0.196-1.452,0.38V31.648z M18.605,31.648h1.451V18.875c-0.466-0.12-0.95-0.187-1.451-0.192V31.648
			L18.605,31.648z M6.965,30.137v-5.664c-0.633,0.761-1.016,1.751-1.016,2.833C5.95,28.389,6.333,29.377,6.965,30.137z"/>
	</g>
	<g display="inline">
		<path fill="#ED352A" d="M42.018,27.124c0,2.5-1.959,4.526-4.373,4.526H25.477V16.1c0.467-0.175,0.949-0.306,1.453-0.387
			c0.395-0.063,0.793-0.097,1.203-0.097c4.072,0,7.411,3.25,7.725,7.379c0.547-0.253,1.15-0.395,1.787-0.395
			C40.059,22.6,42.018,24.625,42.018,27.124z M20.928,19.172v12.477h1.452V18.261c-0.324,0.37-0.614,0.772-0.867,1.201
			C21.324,19.354,21.129,19.258,20.928,19.172z M23.178,31.648h1.452V16.479c-0.521,0.273-1.007,0.605-1.452,0.989V31.648z
			 M13.959,20.736V31.65h1.452V19.543C14.872,19.865,14.382,20.269,13.959,20.736z M9.604,23v8.611
			c0.178,0.021,0.36,0.037,0.544,0.037h0.762v-8.614c-0.247-0.048-0.501-0.072-0.762-0.072C9.964,22.962,9.782,22.976,9.604,23z
			 M7.68,30.818c0.329,0.25,0.695,0.449,1.088,0.59v-8.205c-0.393,0.142-0.759,0.341-1.088,0.589V30.818z M11.708,23.274v8.375
			h1.452V21.83c-0.327,0.562-0.574,1.179-0.725,1.834C12.207,23.511,11.963,23.38,11.708,23.274z M16.281,31.648h1.452V18.734
			c-0.505,0.066-0.99,0.196-1.452,0.38V31.648z M18.605,31.648h1.451V18.875c-0.466-0.12-0.95-0.187-1.451-0.192V31.648
			L18.605,31.648z M6.965,30.137v-5.664c-0.633,0.761-1.016,1.751-1.016,2.833C5.95,28.389,6.333,29.377,6.965,30.137z"/>
	</g>
</g>
<g id="storymaker_x5F_on_1_" display="none">
	<g display="inline" opacity="0.9">
		<path display="none" fill="#ED1F24" d="M29.279,31.318l-2.319,2.164h-5.946l-2.327-2.164H5.955H5.95l1.312,7.799l33.283-0.002
			l1.396-7.797h-0.004H29.279z M38.674,13.749H9.217L8.87,11.858h30.153L38.674,13.749z M36.65,10.473H11.325l-0.348-1.492h26.024
			L36.65,10.473z M8.052,29.323L6.873,15.234h34.072l-1.209,14.088h-2.987l0.819-11.479h-27.4l0.901,11.479L8.052,29.323
			L8.052,29.323z"/>
	</g>
	<g display="inline">
		<g>
			<path display="none" fill="#ED352A" d="M29.279,31.318l-2.319,2.164h-5.946l-2.327-2.164H5.955H5.95l1.312,7.799l33.283-0.002
				l1.396-7.797h-0.004H29.279z M38.674,13.749H9.217L8.87,11.858h30.153L38.674,13.749z M36.65,10.473H11.325l-0.348-1.492h26.024
				L36.65,10.473z M8.052,29.323L6.873,15.234h34.072l-1.209,14.088h-2.987l0.819-11.479h-27.4l0.901,11.479L8.052,29.323
				L8.052,29.323z"/>
		</g>
	</g>
</g>
<g id="location_x5F_on_1_" display="none">
	<g display="inline" opacity="0.9">
		<path fill="#ED1F24" d="M34.79,16.802c0-5.951-4.828-10.778-10.79-10.778s-10.79,4.827-10.79,10.778
			c0,1.708,0.406,3.316,1.108,4.751H14.31l9.688,20.283H24l0,0l9.688-20.283H33.68C34.382,20.118,34.79,18.51,34.79,16.802z
			 M24,11.004c3.207,0,5.811,2.603,5.811,5.81c0,1.364-0.476,2.615-1.265,3.607c-1.062,1.339-2.702,2.203-4.548,2.203
			c-1.845,0-3.482-0.863-4.548-2.203c-0.788-0.992-1.262-2.243-1.262-3.607C18.188,13.607,20.792,11.004,24,11.004z"/>
	</g>
	<g display="inline">
		<g>
			<path fill="#ED352A" d="M34.79,16.802c0-5.951-4.828-10.778-10.79-10.778s-10.79,4.827-10.79,10.778
				c0,1.708,0.406,3.316,1.108,4.751H14.31l9.688,20.283H24l0,0l9.688-20.283H33.68C34.382,20.118,34.79,18.51,34.79,16.802z
				 M24,11.004c3.207,0,5.811,2.603,5.811,5.81c0,1.364-0.476,2.615-1.265,3.607c-1.062,1.339-2.702,2.203-4.548,2.203
				c-1.845,0-3.482-0.863-4.548-2.203c-0.788-0.992-1.262-2.243-1.262-3.607C18.188,13.607,20.792,11.004,24,11.004z"/>
		</g>
	</g>
</g>
<g id="email_x5F_on_1_" display="none">
	<g display="inline">
		<g display="none">
			<polygon display="inline" fill="#ED352A" points="7.318,18.977 7.318,36.43 40.682,36.43 40.682,18.977 23.999,27.271 			"/>
			<polygon display="inline" fill="#ED352A" points="7.318,11.668 7.318,16.313 23.999,24.605 40.682,16.313 40.682,11.668 			"/>
		</g>
	</g>
</g>
<g id="bluetooth_x5F_on_1_" display="none">
	<g display="inline" opacity="0.9">
		<path fill="#ED1F24" d="M34.109,17.037L22.087,6.023v14.109l-5.829-5.646l-2.367,2.367l7.237,6.939l-7.237,7.633l2.58,2.408
			l5.617-5.687V42.17l12.021-11.109l-7.649-7.104L34.109,17.037z M25.367,13.57l3.77,3.501l-3.77,3.501
			C25.367,20.572,25.367,13.721,25.367,13.57z M29.135,31.062l-3.769,3.5c0,0,0-6.853,0-7.002L29.135,31.062z"/>
	</g>
	<g display="inline">
		<path fill="#ED352A" d="M34.109,17.037L22.087,6.023v14.109l-5.829-5.646l-2.367,2.367l7.237,6.939l-7.237,7.633l2.58,2.408
			l5.617-5.687V42.17l12.021-11.109l-7.649-7.104L34.109,17.037z M25.367,13.57l3.77,3.501l-3.77,3.501
			C25.367,20.572,25.367,13.721,25.367,13.57z M29.135,31.062l-3.769,3.5c0,0,0-6.853,0-7.002L29.135,31.062z"/>
	</g>
</g>
<g id="usb_x5F_on_1_" display="none">
	<g display="inline">
		<path fill="#ED352A" d="M24,5.571l-3.563,4.484h2.83v20.191l-4.665-4.463c-0.301-0.379-0.514-0.877-0.523-1.389
			c0-2.066-0.001-1.93-0.001-2.383c0.864-0.305,1.487-1.129,1.487-2.107c0-1.238-0.995-2.242-2.22-2.242
			c-1.227,0-2.22,1.004-2.22,2.242c0,0.979,0.624,1.803,1.487,2.107l-0.002,2.34c0,1.004,0.546,2.057,1.185,2.727
			c-0.02-0.02-0.04-0.039,0,0c0.016,0.014,4.948,4.734,4.948,4.734c0.301,0.379,0.512,0.877,0.521,1.389v1.908
			c-1.694,0.346-2.969,1.854-2.969,3.672c0,2.07,1.655,3.746,3.703,3.746c2.047,0,3.704-1.676,3.704-3.746
			c0-1.814-1.274-3.326-2.972-3.672v-1.865c0-0.006,0-0.012,0-0.012V27.59c0.012-0.512,0.223-1.008,0.521-1.387
			c0,0,4.935-3.354,4.948-3.369c0.039-0.037,0.018-0.018,0,0c0.64-0.67,1.188-1.039,1.188-2.043l-0.004-3.57h1.487v-4.484h-4.438
			v4.486h1.485c0,0-0.004,0.938-0.004,3.611c-0.011,0.512-0.222,0.328-0.521,0.705l-4.666,3.102V10.055h2.832L24,5.571z"/>
	</g>
</g>
<g id="vimeo_x5F_on_1_" display="none">
	<g display="inline">
		<path fill="#ED352A" d="M41.902,15.656c-0.164,3.515-2.615,8.33-7.364,14.441c-4.908,6.379-9.062,9.57-12.459,9.57
			c-2.104,0-3.886-1.939-5.339-5.83c-0.974-3.562-1.944-7.128-2.915-10.691c-1.08-3.885-2.239-5.83-3.479-5.83
			c-0.269,0-1.214,0.567-2.834,1.7l-1.699-2.19c1.784-1.567,3.541-3.13,5.27-4.7c2.378-2.053,4.162-3.133,5.351-3.243
			c2.809-0.269,4.539,1.652,5.189,5.765c0.701,4.438,1.186,7.198,1.458,8.28c0.811,3.678,1.702,5.52,2.675,5.52
			c0.756,0,1.891-1.198,3.404-3.583c1.515-2.392,2.324-4.205,2.434-5.455c0.213-2.06-0.596-3.094-2.434-3.094
			c-0.863,0-1.756,0.2-2.672,0.591c1.773-5.813,5.166-8.638,10.169-8.477C40.367,8.542,42.117,10.949,41.902,15.656z"/>
	</g>
</g>
<g id="facebook_x5F_on_1_" display="none">
	<g display="inline" opacity="0.9">
		<path fill="#ED1F24" d="M36.477,7.575H11.526c-2.209,0-4,1.791-4,3.999v24.953c0,2.207,1.792,3.998,4,3.998h24.951
			c2.209,0,3.998-1.791,3.998-3.998V11.573C40.475,9.365,38.686,7.575,36.477,7.575z M29.419,16.423c0,0-1.832,0-2.558,0
			c-0.903,0-1.092,0.371-1.092,1.305c0,0.777,0,2.258,0,2.258h3.647l-0.354,3.963H25.77v11.84h-4.728V24h-2.458v-4.014h2.458
			c0,0,0-0.577,0-3.16c0-2.965,1.585-4.516,5.104-4.516c0.576,0,3.271,0,3.271,0L29.419,16.423L29.419,16.423z"/>
	</g>
	<g display="inline">
		<path fill="#ED352A" d="M36.477,7.575H11.526c-2.209,0-4,1.791-4,3.999v24.953c0,2.207,1.792,3.998,4,3.998h24.951
			c2.209,0,3.998-1.791,3.998-3.998V11.573C40.475,9.365,38.686,7.575,36.477,7.575z M29.419,16.423c0,0-1.832,0-2.558,0
			c-0.903,0-1.092,0.371-1.092,1.305c0,0.777,0,2.258,0,2.258h3.647l-0.354,3.963H25.77v11.84h-4.728V24h-2.458v-4.014h2.458
			c0,0,0-0.577,0-3.16c0-2.965,1.585-4.516,5.104-4.516c0.576,0,3.271,0,3.271,0L29.419,16.423L29.419,16.423z"/>
	</g>
</g>
<g id="you_x5F_tube_x5F_on_1_" display="none">
	<g display="inline" opacity="0.9">
		<path fill="#ED1F24" d="M13.012,6.103h2.155l1.475,5.536l1.37-5.536h2.175l-2.49,8.235v5.616h-2.139v-5.616L13.012,6.103z
			 M20.09,17.408c0,1.799,0.94,2.738,2.784,2.738c1.526,0,2.729-1.021,2.729-2.738v-5.009c0-1.601-1.19-2.747-2.729-2.747
			c-1.675,0-2.784,1.107-2.784,2.747V17.408z M22.044,12.567c0-0.559,0.257-0.976,0.792-0.976c0.583,0,0.833,0.404,0.833,0.976
			v4.751c0,0.559-0.284,0.97-0.795,0.97c-0.526,0-0.83-0.43-0.83-0.97V12.567z M30.738,9.737v7.756
			c-0.229,0.288-0.744,0.767-1.116,0.767c-0.405,0-0.506-0.28-0.506-0.69V9.737h-1.898v8.54c0,1.011,0.31,1.824,1.327,1.824
			c0.575,0,1.371-0.297,2.193-1.275v1.129h1.904V9.737H30.738z M27.943,30.686c0.132,0.168,0.195,0.418,0.195,0.746v5.024
			c0,0.31-0.055,0.533-0.158,0.67c-0.196,0.263-0.629,0.249-0.924,0.101c-0.142-0.067-0.281-0.184-0.431-0.343V30.82
			c0.123-0.131,0.247-0.233,0.374-0.297C27.318,30.364,27.727,30.396,27.943,30.686z M34.036,30.464
			c-0.671,0-0.808,0.472-0.808,1.14v0.985h1.599v-0.985C34.827,30.947,34.688,30.464,34.036,30.464z M39.553,37.643
			c0,2.403-1.949,4.354-4.354,4.354H12.804c-2.405,0-4.357-1.95-4.357-4.354V26.639c0-2.407,1.952-4.359,4.357-4.359h22.393
			c2.406,0,4.354,1.952,4.354,4.359L39.553,37.643L39.553,37.643z M15.79,27.459h2.107v-1.913h-6.253v1.913h2.109v11.275h2.038
			L15.79,27.459L15.79,27.459z M23.036,29.005h-1.808v7.386c-0.222,0.278-0.713,0.729-1.064,0.729c-0.388,0-0.483-0.263-0.483-0.653
			v-7.461h-1.808v8.135c0,1.976,1.339,1.984,2.314,1.428c0.358-0.207,0.708-0.508,1.041-0.904v1.072h1.808V29.005z M30.001,31.322
			c0-1.319-0.438-2.439-1.765-2.439c-0.646,0-1.199,0.41-1.608,0.908v-4.245h-1.827v13.188h1.827v-0.746
			c0.505,0.629,1.058,0.871,1.72,0.871c1.203,0,1.654-0.938,1.654-2.143L30.001,31.322L30.001,31.322z M36.688,31.622
			c0-1.758-0.838-2.861-2.576-2.861c-1.629,0-2.742,1.173-2.742,2.861v4.37c0,1.751,0.883,3.009,2.607,3.009
			c1.904,0,2.711-1.135,2.711-3.009v-0.734h-1.858v0.678c0,0.849-0.046,1.359-0.812,1.359c-0.728,0-0.789-0.629-0.789-1.359V34.1
			h3.459V31.622L36.688,31.622z"/>
	</g>
	<g display="inline">
		<path fill="#ED352A" d="M13.012,6.103h2.155l1.475,5.536l1.37-5.536h2.175l-2.49,8.235v5.616h-2.139v-5.616L13.012,6.103z
			 M20.09,17.408c0,1.799,0.94,2.738,2.784,2.738c1.526,0,2.729-1.021,2.729-2.738v-5.009c0-1.601-1.19-2.747-2.729-2.747
			c-1.675,0-2.784,1.107-2.784,2.747V17.408z M22.044,12.567c0-0.559,0.257-0.976,0.792-0.976c0.583,0,0.833,0.404,0.833,0.976
			v4.751c0,0.559-0.284,0.97-0.795,0.97c-0.526,0-0.83-0.43-0.83-0.97V12.567z M30.738,9.737v7.756
			c-0.229,0.288-0.744,0.767-1.116,0.767c-0.405,0-0.506-0.28-0.506-0.69V9.737h-1.898v8.54c0,1.011,0.31,1.824,1.327,1.824
			c0.575,0,1.371-0.297,2.193-1.275v1.129h1.904V9.737H30.738z M27.943,30.686c0.132,0.168,0.195,0.418,0.195,0.746v5.024
			c0,0.31-0.055,0.533-0.158,0.67c-0.196,0.263-0.629,0.249-0.924,0.101c-0.142-0.067-0.281-0.184-0.431-0.343V30.82
			c0.123-0.131,0.247-0.233,0.374-0.297C27.318,30.364,27.727,30.396,27.943,30.686z M34.036,30.464
			c-0.671,0-0.808,0.472-0.808,1.14v0.985h1.599v-0.985C34.827,30.947,34.688,30.464,34.036,30.464z M39.553,37.643
			c0,2.403-1.949,4.354-4.354,4.354H12.804c-2.405,0-4.357-1.95-4.357-4.354V26.639c0-2.407,1.952-4.359,4.357-4.359h22.393
			c2.406,0,4.354,1.952,4.354,4.359L39.553,37.643L39.553,37.643z M15.79,27.459h2.107v-1.913h-6.253v1.913h2.109v11.275h2.038
			L15.79,27.459L15.79,27.459z M23.036,29.005h-1.808v7.386c-0.222,0.278-0.713,0.729-1.064,0.729c-0.388,0-0.483-0.263-0.483-0.653
			v-7.461h-1.808v8.135c0,1.976,1.339,1.984,2.314,1.428c0.358-0.207,0.708-0.508,1.041-0.904v1.072h1.808V29.005z M30.001,31.322
			c0-1.319-0.438-2.439-1.765-2.439c-0.646,0-1.199,0.41-1.608,0.908v-4.245h-1.827v13.188h1.827v-0.746
			c0.505,0.629,1.058,0.871,1.72,0.871c1.203,0,1.654-0.938,1.654-2.143L30.001,31.322L30.001,31.322z M36.688,31.622
			c0-1.758-0.838-2.861-2.576-2.861c-1.629,0-2.742,1.173-2.742,2.861v4.37c0,1.751,0.883,3.009,2.607,3.009
			c1.904,0,2.711-1.135,2.711-3.009v-0.734h-1.858v0.678c0,0.849-0.046,1.359-0.812,1.359c-0.728,0-0.789-0.629-0.789-1.359V34.1
			h3.459V31.622L36.688,31.622z"/>
	</g>
</g>
<g id="twitter_x5F_on_1_" display="none">
	<g display="inline">
		<path fill="#ED352A" d="M23.372,20.595c1.146-3.658,2.552-6.029,4.169-7.748c1.206-1.283,1.83-1.689,1.122-0.277
			c0.312-0.26,0.764-0.598,1.114-0.781c1.955-0.941,1.818-0.152,0.47,0.693c3.685-1.346,3.558,0.361-0.337,1.219
			c3.186,0.055,6.576,2.113,7.559,6.496c0.139,0.605-0.025,0.549,0.586,0.658c1.317,0.236,2.562,0.219,3.771-0.174
			c-0.131,0.908-1.309,1.498-3.146,1.893c-0.683,0.145-0.822,0.105-0.004,0.293c1.006,0.227,2.129,0.285,3.319,0.225
			c-0.927,1.088-2.401,1.645-4.228,1.67c-1.139,4.244-3.742,7.287-7.043,9.197c-7.75,4.492-19.044,3.857-24.724-4.268
			c3.722,2.957,9.228,3.604,13.311-0.537c-2.679,0.006-3.377-2.033-1.254-3.139c-2.009-0.021-3.288-0.66-4.041-1.834
			c-0.285-0.441-0.288-0.479,0.175-0.816c0.509-0.379,1.206-0.545,1.926-0.604c-2.084-0.604-3.355-1.707-3.801-3.189
			c-0.144-0.49-0.169-0.465,0.323-0.592c0.479-0.125,1.099-0.189,1.651-0.221c-1.637-1.006-2.615-2.24-2.865-3.605
			c-0.237-1.289,0.006-0.957,0.955-0.592C16.629,16.208,20.863,17.974,23.372,20.595L23.372,20.595z"/>
	</g>
</g>
<g id="location_2_" display="none">
	<g display="inline" opacity="0.9">
		<path fill="#ED1F24" d="M34.79,16.752c0-5.951-4.828-10.778-10.79-10.778s-10.79,4.827-10.79,10.778
			c0,1.708,0.406,3.316,1.108,4.751H14.31l9.688,20.283H24l0,0l9.688-20.283H33.68C34.382,20.068,34.79,18.46,34.79,16.752z
			 M24,10.955c3.207,0,5.811,2.603,5.811,5.81c0,1.364-0.476,2.615-1.265,3.607c-1.062,1.339-2.702,2.203-4.548,2.203
			c-1.845,0-3.482-0.863-4.548-2.203c-0.788-0.992-1.262-2.243-1.262-3.607C18.188,13.558,20.792,10.955,24,10.955z"/>
	</g>
	<g display="inline">
		<path fill="#ED352A" d="M34.79,16.752c0-5.951-4.828-10.778-10.79-10.778s-10.79,4.827-10.79,10.778
			c0,1.708,0.406,3.316,1.108,4.751H14.31l9.688,20.283H24l0,0l9.688-20.283H33.68C34.382,20.068,34.79,18.46,34.79,16.752z
			 M24,10.955c3.207,0,5.811,2.603,5.811,5.81c0,1.364-0.476,2.615-1.265,3.607c-1.062,1.339-2.702,2.203-4.548,2.203
			c-1.845,0-3.482-0.863-4.548-2.203c-0.788-0.992-1.262-2.243-1.262-3.607C18.188,13.558,20.792,10.955,24,10.955z"/>
	</g>
</g>
<g id="bluetooth_3_" display="none">
	<g display="inline" opacity="0.9">
		<path fill="#ED1F24" d="M34.109,16.987L22.087,5.974v14.109l-5.829-5.646l-2.367,2.367l7.237,6.939l-7.237,7.633l2.58,2.408
			l5.617-5.687v14.023L34.109,31.01l-7.649-7.104L34.109,16.987z M25.367,13.521l3.77,3.501l-3.77,3.501
			C25.367,20.522,25.367,13.672,25.367,13.521z M29.135,31.014l-3.769,3.5c0,0,0-6.851,0-7.002L29.135,31.014z"/>
	</g>
	<g display="inline">
		<path fill="#ED352A" d="M34.109,16.987L22.087,5.974v14.109l-5.829-5.646l-2.367,2.367l7.237,6.939l-7.237,7.633l2.58,2.408
			l5.617-5.687v14.023L34.109,31.01l-7.649-7.104L34.109,16.987z M25.367,13.521l3.77,3.501l-3.77,3.501
			C25.367,20.522,25.367,13.672,25.367,13.521z M29.135,31.014l-3.769,3.5c0,0,0-6.851,0-7.002L29.135,31.014z"/>
	</g>
</g>
<g id="facebook_2_" display="none">
	<g display="inline" opacity="0.9">
		<path fill="#ED1F24" d="M36.477,7.525H11.526c-2.209,0-4,1.791-4,3.999v24.953c0,2.209,1.792,4,4,4h24.951
			c2.209,0,3.998-1.791,3.998-4V11.524C40.475,9.316,38.686,7.525,36.477,7.525z M29.419,16.374c0,0-1.832,0-2.558,0
			c-0.903,0-1.092,0.371-1.092,1.305c0,0.777,0,2.258,0,2.258h3.647L29.066,23.9H25.77v11.84h-4.728V23.95h-2.458v-4.014h2.458
			c0,0,0-0.577,0-3.16c0-2.965,1.585-4.516,5.104-4.516c0.576,0,3.271,0,3.271,0L29.419,16.374L29.419,16.374z"/>
	</g>
	<g display="inline">
		<path fill="#ED352A" d="M36.477,7.525H11.526c-2.209,0-4,1.791-4,3.999v24.953c0,2.209,1.792,4,4,4h24.951
			c2.209,0,3.998-1.791,3.998-4V11.524C40.475,9.316,38.686,7.525,36.477,7.525z M29.419,16.374c0,0-1.832,0-2.558,0
			c-0.903,0-1.092,0.371-1.092,1.305c0,0.777,0,2.258,0,2.258h3.647L29.066,23.9H25.77v11.84h-4.728V23.95h-2.458v-4.014h2.458
			c0,0,0-0.577,0-3.16c0-2.965,1.585-4.516,5.104-4.516c0.576,0,3.271,0,3.271,0L29.419,16.374L29.419,16.374z"/>
	</g>
</g>
<g>
	<path fill="#27AAE1" d="M41.657,26.709c0,2.5-1.957,4.525-4.372,4.525H25.117v-15.55c0.468-0.176,0.949-0.307,1.451-0.388
		c0.394-0.063,0.795-0.097,1.205-0.097c4.072,0,7.41,3.249,7.726,7.379c0.546-0.253,1.149-0.395,1.786-0.395
		C39.7,22.185,41.657,24.21,41.657,26.709z M20.569,18.758v12.477h1.452V17.846c-0.324,0.37-0.614,0.771-0.866,1.201
		C20.965,18.939,20.771,18.843,20.569,18.758z M22.819,31.234h1.452v-15.17c-0.521,0.272-1.007,0.604-1.452,0.989V31.234z
		 M13.6,20.32v10.915h1.452V19.129C14.513,19.45,14.023,19.854,13.6,20.32z M9.244,22.586v8.611c0.179,0.023,0.36,0.037,0.545,0.037
		h0.762v-8.615c-0.247-0.047-0.501-0.072-0.762-0.072C9.605,22.547,9.423,22.561,9.244,22.586z M7.321,30.404
		c0.329,0.248,0.695,0.447,1.088,0.589v-8.204C8.017,22.93,7.65,23.13,7.321,23.378V30.404z M11.35,22.859v8.375h1.452v-9.82
		c-0.327,0.562-0.574,1.18-0.726,1.835C11.848,23.096,11.604,22.965,11.35,22.859z M15.922,31.234h1.452V18.318
		c-0.505,0.066-0.99,0.197-1.452,0.381V31.234z M18.246,31.234h1.451V18.46c-0.466-0.12-0.95-0.187-1.451-0.192V31.234
		L18.246,31.234z M6.606,29.723v-5.664C5.973,24.82,5.59,25.811,5.59,26.891C5.591,27.973,5.974,28.962,6.606,29.723z"/>
</g>
</svg>
