<?xml version="1.0" encoding="utf-8"?>
<!-- Generator: Adobe Illustrator 15.0.0, SVG Export Plug-In . SVG Version: 6.00 Build 0)  -->
<!DOCTYPE svg PUBLIC "-//W3C//DTD SVG 1.1//EN" "http://www.w3.org/Graphics/SVG/1.1/DTD/svg11.dtd">
<svg version="1.1" id="Layer_1" xmlns="http://www.w3.org/2000/svg" xmlns:xlink="http://www.w3.org/1999/xlink" x="0px" y="0px"
	 width="196px" height="196px" viewBox="0 0 196 196" enable-background="new 0 0 196 196" xml:space="preserve">
<g opacity="0.9" enable-background="new    ">
	<path fill="#D1D3D4" d="M181.74,96.238c0,46.817-37.951,84.767-84.767,84.767s-84.767-37.95-84.767-84.767 M1.214,96.238
		c0,57.218,38.542,99.762,95.76,99.762c57.217,0,95.758-42.544,95.758-99.762"/>
</g>
<path fill="#FFFFFF" d="M96.71,192.675c-53.1,0-96.299-43.198-96.299-96.296c0-53.1,43.199-96.299,96.299-96.3
	c53.101,0,96.299,43.199,96.299,96.3C193.009,149.477,149.811,192.675,96.71,192.675z M96.71,11.809
	c-46.632,0-84.568,37.938-84.568,84.57c0,46.629,37.937,84.566,84.568,84.566s84.567-37.938,84.567-84.566
	C181.277,49.747,143.342,11.809,96.71,11.809z"/>
<path fill="#00AEEF" d="M28.161,164.327C10.566,146.729,0.593,123.436,0.025,98.469C-1.185,45.384,41.02,1.211,94.103,0
	l0.268,11.729C47.752,12.79,10.69,51.582,11.752,98.201c0.516,22.584,9.778,43.63,26.125,59.219
	c16.332,15.604,37.763,23.914,60.347,23.4l0.268,11.727c-25.715,0.588-50.12-8.876-68.719-26.646
	C29.23,165.382,28.692,164.855,28.161,164.327z"/>
<circle opacity="0.9" fill="#AFE0E7" enable-background="new    " cx="97.123" cy="96.286" r="84.766"/>
<circle fill="none" stroke="#FFFFFF" stroke-miterlimit="10" cx="97.121" cy="96.286" r="67.812"/>
<path fill="#FFFFFF" d="M78.133,73.287c0-1.045,0.74-1.473,1.645-0.95l39.837,23.001c0.904,0.522,0.904,1.378,0,1.9l-39.836,22.996
	c-0.905,0.521-1.646,0.095-1.646-0.949V73.287z"/>
</svg>
