<?xml version="1.0" encoding="utf-8"?>
<!-- Generator: Adobe Illustrator 15.0.0, SVG Export Plug-In . SVG Version: 6.00 Build 0)  -->
<!DOCTYPE svg PUBLIC "-//W3C//DTD SVG 1.1//EN" "http://www.w3.org/Graphics/SVG/1.1/DTD/svg11.dtd">
<svg version="1.1" id="Layer_1" xmlns="http://www.w3.org/2000/svg" xmlns:xlink="http://www.w3.org/1999/xlink" x="0px" y="0px"
	 width="196px" height="196px" viewBox="0 0 196 196" enable-background="new 0 0 196 196" xml:space="preserve">
<circle opacity="0.9" fill="#AFE0E7" enable-background="new    " cx="96.356" cy="95.619" r="84.767"/>
<circle fill="none" stroke="#FFFFFF" stroke-miterlimit="10" cx="96.355" cy="95.619" r="67.812"/>
<path id="upload-2-icon_1_" fill="#FFFFFF" d="M86.421,84.812h-8.193l17.818-17.848l17.818,17.847h-8.194v22.423H86.421V84.812z
	 M112.647,105.529v8.061H79.442v-8.061h-6.185v14.242h45.573v-14.242H112.647z"/>
<path fill="#FFFFFF" d="M96.298,191.787C43.199,191.787,0,148.588,0,95.492c0-53.099,43.199-96.299,96.298-96.3
	c53.101,0,96.3,43.199,96.3,96.3C192.598,148.588,149.396,191.787,96.298,191.787z M96.298,10.921
	c-46.631,0-84.568,37.938-84.568,84.57c0,46.628,37.938,84.565,84.568,84.565s84.569-37.939,84.569-84.565
	C180.867,48.86,142.93,10.921,96.298,10.921z"/>
<path fill="#00AEEF" d="M28.246,27.355C45.844,9.758,69.138-0.215,94.104-0.783c53.086-1.21,97.258,40.993,98.469,94.078
	l-11.729,0.267c-1.062-46.617-39.854-83.679-86.473-82.617c-22.584,0.516-43.63,9.776-59.219,26.125
	c-15.604,16.332-23.913,37.763-23.4,60.347L0.026,97.686c-0.587-25.716,8.877-50.12,26.646-68.719
	C27.191,28.421,27.718,27.884,28.246,27.355z"/>
</svg>
