<?xml version="1.0" encoding="utf-8"?>
<!-- Generator: Adobe Illustrator 15.0.0, SVG Export Plug-In  -->
<!DOCTYPE svg PUBLIC "-//W3C//DTD SVG 1.1//EN" "http://www.w3.org/Graphics/SVG/1.1/DTD/svg11.dtd" [
	<!ENTITY ns_flows "http://ns.adobe.com/Flows/1.0/">
]>
<svg version="1.1"
	 xmlns="http://www.w3.org/2000/svg" xmlns:xlink="http://www.w3.org/1999/xlink" xmlns:a="http://ns.adobe.com/AdobeSVGViewerExtensions/3.0/"
	 x="0px" y="0px" width="196px" height="196px" viewBox="-1.602 -1.708 196 196"
	 overflow="visible" enable-background="new -1.602 -1.708 196 196" xml:space="preserve">
<defs>
</defs>
<path fill="#FFFFFF" d="M96.298,192.596C43.198,192.596,0,149.396,0,96.3C0,43.2,43.198,0.001,96.298,0
	c53.099,0,96.299,43.199,96.299,96.3C192.597,149.396,149.396,192.596,96.298,192.596z M96.298,11.729
	c-46.632,0-84.569,37.938-84.569,84.57c0,46.629,37.938,84.566,84.569,84.566c46.63,0,84.568-37.938,84.568-84.566
	C180.866,49.668,142.928,11.729,96.298,11.729z"/>
<path fill="#00AEEF" d="M96.401,192.596c24.887-0.002,48.41-9.422,66.466-26.674c38.393-36.683,39.784-97.758,3.104-136.15
	l-8.481,8.104c32.213,33.714,30.989,87.352-2.726,119.564c-16.334,15.604-37.766,23.938-60.348,23.401
	c-22.582-0.515-43.612-9.795-59.218-26.127l-8.481,8.104c17.768,18.6,41.716,29.164,67.433,29.751
	C94.901,192.587,95.653,192.596,96.401,192.596z"/>
<circle opacity="0.9" fill="#AFE0E7" cx="96.71" cy="96.207" r="84.767"/>
<circle fill="none" stroke="#FFFFFF" stroke-miterlimit="10" cx="96.709" cy="96.207" r="67.812"/>
<path fill="#FFFFFF" d="M77.721,73.208c0-1.045,0.74-1.473,1.645-0.95l39.837,23.001c0.904,0.522,0.904,1.378-0.001,1.9
	l-39.835,22.996c-0.905,0.522-1.646,0.095-1.646-0.949V73.208z"/>
</svg>
