<?xml version="1.0" encoding="utf-8"?>
<!-- Generator: Adobe Illustrator 15.0.0, SVG Export Plug-In  -->
<!DOCTYPE svg PUBLIC "-//W3C//DTD SVG 1.1//EN" "http://www.w3.org/Graphics/SVG/1.1/DTD/svg11.dtd" [
	<!ENTITY ns_flows "http://ns.adobe.com/Flows/1.0/">
]>
<svg version="1.1"
	 xmlns="http://www.w3.org/2000/svg" xmlns:xlink="http://www.w3.org/1999/xlink" xmlns:a="http://ns.adobe.com/AdobeSVGViewerExtensions/3.0/"
	 x="0px" y="0px" width="196px" height="196px" viewBox="-0.544 0.012 196 196"
	 overflow="visible" enable-background="new -0.544 0.012 196 196" xml:space="preserve">
<defs>
</defs>
<circle opacity="0.9" fill="#AFE0E7" enable-background="new    " cx="96.166" cy="96.298" r="84.767"/>
<circle fill="none" stroke="#FFFFFF" stroke-miterlimit="10" cx="96.165" cy="96.298" r="67.812"/>
<path id="upload-2-icon_1_" fill="#FFFFFF" d="M86.23,85.49h-8.193l17.818-17.847l17.818,17.847h-8.194v22.422H86.23V85.49z
	 M112.457,106.207v8.061H79.251v-8.061h-6.185v14.242h45.573v-14.242H112.457z"/>
<path fill="#FFFFFF" d="M96.297,192.596C43.197,192.596,0,149.396,0,96.3C0,43.2,43.197,0.001,96.297,0
	c53.1,0,96.299,43.199,96.299,96.3C192.594,149.396,149.396,192.596,96.297,192.596z M96.297,11.729
	c-46.633,0-84.568,37.938-84.568,84.57c0,46.629,37.936,84.566,84.568,84.566c46.631,0,84.567-37.938,84.567-84.566
	C180.865,49.668,142.926,11.729,96.297,11.729z"/>
<path fill="#00AEEF" d="M96.195,0C71.31,0.002,47.786,9.422,29.731,26.675c-38.395,36.683-39.785,97.757-3.105,136.15l8.482-8.104
	C2.896,121.007,4.118,67.368,37.833,35.155c16.334-15.604,37.767-23.938,60.349-23.4c22.582,0.514,43.611,9.795,59.217,26.127
	l8.482-8.105c-17.77-18.599-41.719-29.164-67.436-29.75C97.695,0.01,96.941,0,96.195,0z"/>
</svg>
