<?xml version="1.0" encoding="utf-8"?>
<!-- Generator: Adobe Illustrator 15.0.0, SVG Export Plug-In . SVG Version: 6.00 Build 0)  -->
<!DOCTYPE svg PUBLIC "-//W3C//DTD SVG 1.1//EN" "http://www.w3.org/Graphics/SVG/1.1/DTD/svg11.dtd">
<svg version="1.1" id="Layer_1" xmlns="http://www.w3.org/2000/svg" xmlns:xlink="http://www.w3.org/1999/xlink" x="0px" y="0px"
	 width="196px" height="196px" viewBox="0 0 196 196" enable-background="new 0 0 196 196" xml:space="preserve">
<circle opacity="0.9" fill="#AFE0E7" enable-background="new    " cx="96.166" cy="96.298" r="84.767"/>
<circle fill="none" stroke="#FFFFFF" stroke-miterlimit="10" cx="96.165" cy="96.298" r="67.812"/>
<path id="upload-2-icon_1_" fill="#FFFFFF" d="M86.23,85.49h-8.193l17.818-17.847l17.818,17.847h-8.194v22.422H86.23V85.49z
	 M112.457,106.207v8.061H79.251v-8.061h-6.185v14.242h45.573v-14.242H112.457z"/>
<path fill="#FFFFFF" d="M96.297,192.596C43.197,192.596,0,149.396,0,96.3C0,43.2,43.197,0.001,96.297,0
	c53.1,0,96.299,43.199,96.299,96.3C192.594,149.396,149.396,192.596,96.297,192.596z M96.297,11.729
	c-46.633,0-84.568,37.938-84.568,84.57c0,46.629,37.936,84.566,84.568,84.566c46.631,0,84.566-37.938,84.566-84.566
	C180.865,49.668,142.926,11.729,96.297,11.729z"/>
<path fill="#00AEEF" d="M133.904,7.359c-22.992-9.522-48.331-9.821-71.613-0.791C12.78,25.766-11.876,81.659,7.319,131.168
	l10.938-4.242C1.399,83.45,23.055,34.362,66.531,17.504c21.062-8.166,44.051-7.663,64.709,1.476
	c20.666,9.116,36.545,25.738,44.709,46.799l10.941-4.241c-9.301-23.983-27.385-42.909-50.918-53.292
	C135.287,7.942,134.594,7.645,133.904,7.359z"/>
</svg>
