<?xml version="1.0" encoding="utf-8"?>
<!-- Generator: Adobe Illustrator 15.0.0, SVG Export Plug-In . SVG Version: 6.00 Build 0)  -->
<!DOCTYPE svg PUBLIC "-//W3C//DTD SVG 1.1//EN" "http://www.w3.org/Graphics/SVG/1.1/DTD/svg11.dtd">
<svg version="1.1" id="Layer_1" xmlns="http://www.w3.org/2000/svg" xmlns:xlink="http://www.w3.org/1999/xlink" x="0px" y="0px"
	 width="196px" height="196px" viewBox="0 0 196 196" enable-background="new 0 0 196 196" xml:space="preserve">
<circle opacity="0.9" fill="#AFE0E7" enable-background="new    " cx="96.612" cy="96.298" r="84.767"/>
<circle fill="none" stroke="#FFFFFF" stroke-miterlimit="10" cx="96.611" cy="96.298" r="67.812"/>
<path id="upload-2-icon_2_" fill="#FFFFFF" d="M86.677,85.49h-8.193l17.818-17.847l17.817,17.847h-8.193v22.423H86.677V85.49z
	 M112.902,106.208v8.062H79.698v-8.062h-6.185v14.241h45.573v-14.241H112.902z"/>
<path fill="#FFFFFF" d="M96.298,192.594C43.199,192.594,0,149.396,0,96.3C0,43.2,43.199,0.001,96.298,0
	c53.099,0,96.3,43.199,96.3,96.3C192.598,149.396,149.396,192.594,96.298,192.594z M96.298,11.729
	c-46.632,0-84.568,37.938-84.568,84.57c0,46.627,37.937,84.567,84.568,84.567c46.632,0,84.568-37.939,84.568-84.567
	C180.866,49.668,142.93,11.729,96.298,11.729z"/>
<path fill="#00AEEF" d="M59.648,7.59c22.992-9.522,48.329-9.821,71.614-0.792c49.508,19.197,74.164,75.09,54.971,124.601
	l-10.938-4.243c16.857-43.478-4.798-92.562-48.271-109.419c-21.062-8.166-44.054-7.663-64.708,1.475
	C41.646,28.327,25.77,44.948,17.601,66.009L6.664,61.768c9.297-23.984,27.381-42.911,50.914-53.293
	C58.266,8.172,58.957,7.876,59.648,7.59z"/>
</svg>
