<?xml version="1.0" encoding="utf-8"?>
<!-- Generator: Adobe Illustrator 15.0.0, SVG Export Plug-In . SVG Version: 6.00 Build 0)  -->
<!DOCTYPE svg PUBLIC "-//W3C//DTD SVG 1.1//EN" "http://www.w3.org/Graphics/SVG/1.1/DTD/svg11.dtd">
<svg version="1.1" id="Layer_1" xmlns="http://www.w3.org/2000/svg" xmlns:xlink="http://www.w3.org/1999/xlink" x="0px" y="0px"
	 width="48px" height="48px" viewBox="0 0 48 48" enable-background="new 0 0 48 48" xml:space="preserve">
<path id="flickr-icon_1_" fill="#DDDFDB" d="M32.491,14.486c-3.709,0-6.922,2.122-8.491,5.218c-1.57-3.096-4.781-5.218-8.49-5.218
	c-5.254,0-9.514,4.259-9.514,9.514c0,5.253,4.26,9.513,9.514,9.513c3.709,0,6.921-2.123,8.49-5.219
	c1.569,3.096,4.782,5.219,8.491,5.219c5.253,0,9.512-4.26,9.512-9.513C42.003,18.745,37.744,14.486,32.491,14.486z M32.491,30.976
	c-3.849,0-6.978-3.13-6.978-6.976c0-3.847,3.129-6.977,6.978-6.977c3.846,0,6.976,3.13,6.976,6.977
	C39.467,27.846,36.337,30.976,32.491,30.976z"/>
</svg>
