<?xml version="1.0" encoding="utf-8"?>
<!-- Generator: Adobe Illustrator 15.0.0, SVG Export Plug-In . SVG Version: 6.00 Build 0)  -->
<!DOCTYPE svg PUBLIC "-//W3C//DTD SVG 1.1//EN" "http://www.w3.org/Graphics/SVG/1.1/DTD/svg11.dtd">
<svg version="1.1" id="Layer_1" xmlns="http://www.w3.org/2000/svg" xmlns:xlink="http://www.w3.org/1999/xlink" x="0px" y="0px"
	 width="196px" height="196px" viewBox="0 0 196 196" enable-background="new 0 0 196 196" xml:space="preserve">
<path fill="#FFFFFF" d="M96.298,192.596C43.198,192.596,0,149.396,0,96.3C0,43.2,43.198,0.001,96.298,0
	c53.099,0,96.3,43.199,96.3,96.3C192.598,149.396,149.396,192.596,96.298,192.596z M96.298,11.729
	c-46.632,0-84.569,37.938-84.569,84.57c0,46.629,37.938,84.566,84.569,84.566c46.63,0,84.568-37.938,84.568-84.566
	C180.866,49.668,142.928,11.729,96.298,11.729z"/>
<path fill="#00AEEF" d="M59.995,185.329c22.993,9.522,48.33,9.821,71.614,0.792c49.508-19.197,74.164-75.092,54.97-124.599
	l-10.937,4.242c16.857,43.475-4.801,92.562-48.273,109.419c-21.062,8.166-44.052,7.664-64.709-1.477
	c-20.667-9.116-36.543-25.738-44.712-46.799L7.011,131.15c9.298,23.981,27.38,42.908,50.915,53.291
	C58.612,184.747,59.304,185.043,59.995,185.329z"/>
<circle opacity="0.9" fill="#AFE0E7" enable-background="new    " cx="96.71" cy="96.207" r="84.767"/>
<circle fill="none" stroke="#FFFFFF" stroke-miterlimit="10" cx="96.709" cy="96.207" r="67.812"/>
<path fill="#FFFFFF" d="M77.721,73.208c0-1.045,0.74-1.473,1.645-0.95l39.837,23.001c0.904,0.522,0.904,1.378-0.001,1.9
	l-39.835,22.995c-0.905,0.521-1.646,0.096-1.646-0.948V73.208z"/>
</svg>
