<?xml version="1.0" encoding="utf-8"?>
<!-- Generator: Adobe Illustrator 15.0.0, SVG Export Plug-In . SVG Version: 6.00 Build 0)  -->
<!DOCTYPE svg PUBLIC "-//W3C//DTD SVG 1.1//EN" "http://www.w3.org/Graphics/SVG/1.1/DTD/svg11.dtd">
<svg version="1.1" id="Layer_1" xmlns="http://www.w3.org/2000/svg" xmlns:xlink="http://www.w3.org/1999/xlink" x="0px" y="0px"
	 width="196px" height="196px" viewBox="0 0 196 196" enable-background="new 0 0 196 196" xml:space="preserve">
<path fill="#FFFFFF" d="M96.298,192.865C43.199,192.865,0,149.666,0,96.569c0-53.1,43.199-96.299,96.298-96.3
	c53.099,0,96.3,43.199,96.3,96.3C192.598,149.666,149.396,192.865,96.298,192.865z M96.298,11.998
	c-46.632,0-84.568,37.938-84.568,84.57c0,46.629,37.937,84.566,84.568,84.566c46.632,0,84.568-37.938,84.568-84.566
	C180.866,49.937,142.93,11.998,96.298,11.998z"/>
<path fill="#00AEEF" d="M59.648,7.359c22.992-9.522,48.329-9.821,71.614-0.792c49.508,19.197,74.164,75.09,54.971,124.6
	l-10.938-4.244c16.857-43.476-4.798-92.562-48.271-109.419c-21.062-8.166-44.055-7.663-64.709,1.475
	C41.646,28.096,25.77,44.717,17.601,65.778L6.664,61.537c9.297-23.984,27.381-42.911,50.914-53.293
	C58.266,7.941,58.957,7.645,59.648,7.359z"/>
<circle opacity="0.9" fill="#AFE0E7" enable-background="new    " cx="96.71" cy="96.476" r="84.767"/>
<circle fill="none" stroke="#FFFFFF" stroke-miterlimit="10" cx="96.709" cy="96.476" r="67.812"/>
<path fill="#FFFFFF" d="M77.721,73.477c0-1.045,0.74-1.473,1.645-0.95l39.837,23.001c0.904,0.522,0.904,1.378-0.001,1.9
	l-39.835,22.995c-0.905,0.522-1.646,0.097-1.646-0.948V73.477z"/>
</svg>
