<?xml version="1.0" encoding="utf-8"?>
<!-- Generator: Adobe Illustrator 15.0.0, SVG Export Plug-In . SVG Version: 6.00 Build 0)  -->
<!DOCTYPE svg PUBLIC "-//W3C//DTD SVG 1.1//EN" "http://www.w3.org/Graphics/SVG/1.1/DTD/svg11.dtd">
<svg version="1.1" id="Layer_1" xmlns="http://www.w3.org/2000/svg" xmlns:xlink="http://www.w3.org/1999/xlink" x="0px" y="0px"
	 width="196px" height="196px" viewBox="-46 -46 196 196" enable-background="new -46 -46 196 196" xml:space="preserve">
<circle fill="#27AAE1" cx="52" cy="51.607" r="84.74"/>
<path fill="#FFFFFF" d="M52,120.386c-38,0-68.779-30.779-68.779-68.779c0-38,30.971-68.78,68.779-68.78
	c38,0,68.779,30.78,68.779,68.78C120.779,89.606,90,120.386,52,120.386z M52-15.274c-36.859,0-66.881,30.021-66.881,66.88
	c0,36.859,30.021,66.879,66.881,66.879s66.879-30.02,66.879-66.879C118.879,14.748,88.859-15.274,52-15.274z"/>
<path fill="#FFFFFF" d="M34.9,29.757c0-0.95,0.76-1.521,1.709-0.95l39.9,22.99c0.951,0.569,0.951,1.329,0,1.899l-39.9,22.99
	c-0.949,0.57-1.709,0-1.709-0.951V29.757z"/>
<circle fill="none" stroke="#FFFFFF" stroke-miterlimit="10" cx="52.41" cy="52.207" r="67.812"/>
</svg>
