<?xml version="1.0" encoding="utf-8"?>
<!-- Generator: Adobe Illustrator 19.2.0, SVG Export Plug-In . SVG Version: 6.00 Build 0)  -->
<svg version="1.1" id="Layer_1" xmlns="http://www.w3.org/2000/svg" xmlns:xlink="http://www.w3.org/1999/xlink" x="0px" y="0px"
	 width="48px" height="48px" viewBox="0 0 48 48" style="enable-background:new 0 0 48 48;" xml:space="preserve">
<style type="text/css">
	.st0{display:none;fill:#E6E7E8;}
	.st1{display:none;fill:#555452;}
	.st2{display:none;}
	.st3{display:none;fill:#FFFFFF;}
	.st4{display:none;fill:#DDDFDB;}
	.st5{fill:#DEDEDE;}
	.st6{fill:none;stroke:#DEDEDE;stroke-width:0.35;stroke-miterlimit:10;}
	.st7{fill:#ED1C24;}
	.st8{fill:#FFFFFF;}
</style>
<rect class="st0" width="48" height="48"/>
<polygon id="open_x5F_arrow_2_" class="st1" points="5.9,41.9 41.9,41.9 41.9,6 "/>
<polygon class="st1" points="27.7,18.1 27.7,10 41.8,24 27.7,38 27.7,29.6 6.2,29.6 6.2,18.1 "/>
<polygon class="st1" points="20,29.9 20,38 5.9,24 20,10 20,18.4 41.6,18.4 41.6,29.9 "/>
<path class="st2" d="M11.3,40c-4.4,0-6.2-3.1-4-6.9L20,11c2.2-3.8,5.8-3.8,8,0l12.7,22.1c2.2,3.8,0.4,6.9-4,6.9H11.3z"/>
<path class="st3" d="M25.7,30h-3.4V17.3h3.4V30z M25.7,36.1h-3.4v-3.6h3.4V36.1z"/>
<path class="st2" d="M34.2,16.8c0-0.8-0.7-1.5-1.6-1.5S31,16,31,16.8v6.6h-1.2v-7.3c0-1-0.7-1.7-1.6-1.7c-0.9,0-1.6,0.8-1.6,1.7v7.3
	h-1.3v-8.4c0-1-0.7-1.7-1.6-1.7S22,14.1,22,15.1v8.4h-1.3V8.1c0-1.1-0.9-2-2-2c-1.1,0-2,0.9-2,2v19.6l-1.1-0.5v-5.9
	c0,0-1.5,3.3-2.3,4.9c-0.5,1-0.8,2.2-0.9,3.3c0,2.1,6.6,7.7,9.3,7.8c2,0,8.7,0,9.9-0.1c2.6-0.2,2.5-3.2,2.5-3.2l0-0.6L34.2,16.8
	L34.2,16.8z"/>
<rect x="18.1" y="38.8" class="st2" width="15.5" height="3.1"/>
<path id="edit-8-icon_2_" class="st2" d="M5.9,41.4l12-2.7l-9-9L5.9,41.4z M32.3,6L11.4,26.8l9.3,9.3l20.9-20.9L32.3,6z"/>
<path id="location_2_" class="st4" d="M34.8,16.8C34.8,10.8,30,6,24,6s-10.8,4.8-10.8,10.8c0,1.7,0.4,3.3,1.1,4.8h0L24,41.8h0l0,0
	l9.7-20.3h0C34.4,20.1,34.8,18.5,34.8,16.8z M24,11c3.2,0,5.8,2.6,5.8,5.8c0,1.4-0.5,2.6-1.3,3.6c-1.1,1.3-2.7,2.2-4.5,2.2
	c-1.8,0-3.5-0.9-4.5-2.2c-0.8-1-1.3-2.2-1.3-3.6C18.2,13.6,20.8,11,24,11z"/>
<polygon class="st4" points="7.3,18.9 7.3,36.4 40.7,36.4 40.7,18.9 24,27.2 "/>
<polygon class="st4" points="7.3,11.6 7.3,16.3 24,24.6 40.7,16.3 40.7,11.6 "/>
<path id="bluetooth_1_" class="st4" d="M34.1,17l-12-11v14.1l-5.8-5.6l-2.4,2.4l7.2,6.9l-7.2,7.6l2.6,2.4l5.6-5.7v14l12-11.1
	l-7.6-7.1L34.1,17z M25.4,13.5l3.8,3.5l-3.8,3.5C25.4,20.5,25.4,13.7,25.4,13.5z M29.1,31l-3.8,3.5c0,0,0-6.9,0-7L29.1,31z"/>
<path id="usb_2_" class="st4" d="M24,5.5L20.4,10h2.8v20.2l-4.7-4.5c-0.3-0.4-0.5-0.9-0.5-1.4c0-2.1,0-1.9,0-2.4
	c0.9-0.3,1.5-1.1,1.5-2.1c0-1.2-1-2.2-2.2-2.2c-1.2,0-2.2,1-2.2,2.2c0,1,0.6,1.8,1.5,2.1l0,2.3c0,1,0.5,2.1,1.2,2.7c0,0,0,0,0,0
	c0,0,4.9,4.7,4.9,4.7c0.3,0.4,0.5,0.9,0.5,1.4v1.9c-1.7,0.3-3,1.9-3,3.7c0,2.1,1.7,3.7,3.7,3.7c2,0,3.7-1.7,3.7-3.7
	c0-1.8-1.3-3.3-3-3.7v-1.9c0,0,0,0,0,0v-5.6c0-0.5,0.2-1,0.5-1.4c0,0,4.9-3.4,4.9-3.4c0,0,0,0,0,0c0.6-0.7,1.2-1,1.2-2l0-3.6h1.5
	v-4.5h-4.4v4.5h1.5c0,0,0,0.9,0,3.6c0,0.5-0.2,0.3-0.5,0.7l-4.7,3.1V10h2.8L24,5.5z"/>
<path class="st4" d="M29.3,31.3L27,33.4H21l-2.3-2.2H6h0l1.3,7.8l33.3,0l1.4-7.8h0H29.3z M38.7,13.7H9.2l-0.3-1.9H39L38.7,13.7z
	 M36.7,10.4H11.3L11,8.9h26L36.7,10.4z M8.1,29.3L6.9,15.2h34.1l-1.2,14.1h-3l0.8-11.5H10.2l0.9,11.5H8.1z"/>
<path id="vimeo_2_" class="st4" d="M41.9,15.6c-0.2,3.5-2.6,8.3-7.4,14.4c-4.9,6.4-9.1,9.6-12.5,9.6c-2.1,0-3.9-1.9-5.3-5.8
	c-1-3.6-1.9-7.1-2.9-10.7c-1.1-3.9-2.2-5.8-3.5-5.8c-0.3,0-1.2,0.6-2.8,1.7l-1.7-2.2c1.8-1.6,3.5-3.1,5.3-4.7
	c2.4-2.1,4.2-3.1,5.4-3.2c2.8-0.3,4.5,1.7,5.2,5.8c0.7,4.4,1.2,7.2,1.5,8.3c0.8,3.7,1.7,5.5,2.7,5.5c0.8,0,1.9-1.2,3.4-3.6
	c1.5-2.4,2.3-4.2,2.4-5.5c0.2-2.1-0.6-3.1-2.4-3.1c-0.9,0-1.8,0.2-2.7,0.6c1.8-5.8,5.2-8.6,10.2-8.5C40.4,8.5,42.1,10.9,41.9,15.6z"
	/>
<path id="facebook_2_" class="st4" d="M36.5,7.5h-25c-2.2,0-4,1.8-4,4v25c0,2.2,1.8,4,4,4h25c2.2,0,4-1.8,4-4v-25
	C40.5,9.3,38.7,7.5,36.5,7.5z M29.4,16.4c0,0-1.8,0-2.6,0c-0.9,0-1.1,0.4-1.1,1.3c0,0.8,0,2.3,0,2.3h3.6l-0.4,4h-3.3v11.8H21V24
	h-2.5v-4H21c0,0,0-0.6,0-3.2c0-3,1.6-4.5,5.1-4.5c0.6,0,3.3,0,3.3,0L29.4,16.4L29.4,16.4z"/>
<path class="st5" d="M32.1,21.1L38.8,34c1.9-2.9,3.1-6.3,3.1-10c0-9.9-8-17.9-17.9-17.9S6.1,14.1,6.1,24s8,17.9,17.9,17.9
	c4.9,0,9.3-2,12.5-5.1L28,23.5c-0.1-0.1-0.1-0.2-0.2-0.4c-1.8,0-3.4-0.9-4.3-2.3l-0.2,0.1c-0.2,0.1-0.5,0-0.6-0.2l-0.2-0.3
	c-0.1-0.2,0-0.5,0.2-0.6l0.2-0.1c-0.3-0.6-0.4-1.3-0.4-2c0-2.9,2.4-5.3,5.3-5.3c1.7,0,3.2,0.8,4.2,2.1l0.2-0.1
	c0.2-0.1,0.5,0,0.6,0.2l0.2,0.3c0.1,0.2,0,0.5-0.2,0.6l-0.2,0.1c0.3,0.7,0.5,1.4,0.5,2.2C33.2,19,32.7,20.2,32.1,21.1
	C32,21.1,32,21.1,32.1,21.1z"/>
<path class="st6" d="M23.4,21l9.5-5.5c0.2-0.1,0.3-0.4,0.2-0.6l-0.2-0.3c-0.1-0.2-0.4-0.3-0.6-0.2L22.8,20c-0.2,0.1-0.3,0.4-0.2,0.6
	l0.2,0.3C22.9,21,23.2,21.1,23.4,21z"/>
<path id="you_x5F_tube_2_" class="st4" d="M13,6.1h2.2l1.5,5.5L18,6.1h2.2l-2.5,8.2v5.6h-2.1v-5.6L13,6.1z M20.1,17.4
	c0,1.8,0.9,2.7,2.8,2.7c1.5,0,2.7-1,2.7-2.7v-5c0-1.6-1.2-2.7-2.7-2.7c-1.7,0-2.8,1.1-2.8,2.7V17.4z M22,12.5c0-0.6,0.3-1,0.8-1
	c0.6,0,0.8,0.4,0.8,1v4.8c0,0.6-0.3,1-0.8,1c-0.5,0-0.8-0.4-0.8-1V12.5z M30.7,9.7v7.8c-0.2,0.3-0.7,0.8-1.1,0.8
	c-0.4,0-0.5-0.3-0.5-0.7V9.7h-1.9v8.5c0,1,0.3,1.8,1.3,1.8c0.6,0,1.4-0.3,2.2-1.3v1.1h1.9V9.7H30.7z M27.9,30.6
	c0.1,0.2,0.2,0.4,0.2,0.7v5c0,0.3-0.1,0.5-0.2,0.7c-0.2,0.3-0.6,0.2-0.9,0.1c-0.1-0.1-0.3-0.2-0.4-0.3v-6.1c0.1-0.1,0.2-0.2,0.4-0.3
	C27.3,30.3,27.7,30.3,27.9,30.6z M34,30.4c-0.7,0-0.8,0.5-0.8,1.1v1h1.6v-1C34.8,30.9,34.7,30.4,34,30.4z M39.6,37.6
	c0,2.4-1.9,4.4-4.4,4.4H12.8c-2.4,0-4.4-2-4.4-4.4v-11c0-2.4,2-4.4,4.4-4.4h22.4c2.4,0,4.4,2,4.4,4.4L39.6,37.6L39.6,37.6z
	 M15.8,27.4h2.1v-1.9h-6.3v1.9h2.1v11.3h2L15.8,27.4L15.8,27.4z M23,29h-1.8v7.4c-0.2,0.3-0.7,0.7-1.1,0.7c-0.4,0-0.5-0.3-0.5-0.7
	V29h-1.8v8.1c0,2,1.3,2,2.3,1.4c0.4-0.2,0.7-0.5,1-0.9v1.1H23V29z M30,31.3c0-1.3-0.4-2.4-1.8-2.4c-0.6,0-1.2,0.4-1.6,0.9v-4.2h-1.8
	v13.2h1.8v-0.7c0.5,0.6,1.1,0.9,1.7,0.9c1.2,0,1.7-0.9,1.7-2.1L30,31.3L30,31.3z M36.7,31.6c0-1.8-0.8-2.9-2.6-2.9
	c-1.6,0-2.7,1.2-2.7,2.9v4.4c0,1.8,0.9,3,2.6,3c1.9,0,2.7-1.1,2.7-3v-0.7h-1.9v0.7c0,0.8,0,1.4-0.8,1.4c-0.7,0-0.8-0.6-0.8-1.4v-1.8
	h3.5L36.7,31.6L36.7,31.6z"/>
<path id="twitter_2_" class="st4" d="M23.4,20.5c1.1-3.7,2.6-6,4.2-7.7c1.2-1.3,1.8-1.7,1.1-0.3c0.3-0.3,0.8-0.6,1.1-0.8
	c2-0.9,1.8-0.2,0.5,0.7c3.7-1.3,3.6,0.4-0.3,1.2c3.2,0.1,6.6,2.1,7.6,6.5c0.1,0.6,0,0.5,0.6,0.7c1.3,0.2,2.6,0.2,3.8-0.2
	c-0.1,0.9-1.3,1.5-3.1,1.9c-0.7,0.1-0.8,0.1,0,0.3c1,0.2,2.1,0.3,3.3,0.2c-0.9,1.1-2.4,1.6-4.2,1.7c-1.1,4.2-3.7,7.3-7,9.2
	c-7.8,4.5-19,3.9-24.7-4.3c3.7,3,9.2,3.6,13.3-0.5c-2.7,0-3.4-2-1.3-3.1c-2,0-3.3-0.7-4-1.8c-0.3-0.4-0.3-0.5,0.2-0.8
	c0.5-0.4,1.2-0.5,1.9-0.6c-2.1-0.6-3.4-1.7-3.8-3.2c-0.1-0.5-0.2-0.5,0.3-0.6c0.5-0.1,1.1-0.2,1.7-0.2c-1.6-1-2.6-2.2-2.9-3.6
	c-0.2-1.3,0-1,1-0.6C16.6,16.2,20.9,17.9,23.4,20.5L23.4,20.5z"/>
<circle class="st7" cx="35.6" cy="35.7" r="10.6"/>
<circle class="st8" cx="35.6" cy="41.7" r="1.6"/>
<path class="st8" d="M37.7,30.5c-0.1,1-1.1,6.1-1.4,7.8c-0.1,0.3-0.3,0.5-0.6,0.5h0c-0.3,0-0.6-0.2-0.7-0.6
	c-0.3-1.7-1.3-6.8-1.4-7.8c-0.2-1.2,0.8-2.3,2.1-2.3C36.8,28.1,37.8,29.3,37.7,30.5z"/>
</svg>
