<?xml version="1.0" encoding="utf-8"?>
<!-- Generator: Adobe Illustrator 15.0.0, SVG Export Plug-In  -->
<!DOCTYPE svg PUBLIC "-//W3C//DTD SVG 1.1//EN" "http://www.w3.org/Graphics/SVG/1.1/DTD/svg11.dtd" [
	<!ENTITY ns_flows "http://ns.adobe.com/Flows/1.0/">
]>
<svg version="1.1"
	 xmlns="http://www.w3.org/2000/svg" xmlns:xlink="http://www.w3.org/1999/xlink" xmlns:a="http://ns.adobe.com/AdobeSVGViewerExtensions/3.0/"
	 x="0px" y="0px" width="48px" height="48px" viewBox="-7.277 -10.556 48 48"
	 overflow="visible" enable-background="new -7.277 -10.556 48 48" xml:space="preserve">
<defs>
</defs>
<path id="server-icon_2_" fill="#DDDFDB" d="M18.559,20.486H14.89v3.556h-2.751v0.037v3.21h9.169v-3.21v-0.037h-2.75V20.486
	L18.559,20.486z M29.605,24.042h-6.463v3.247h6.463V24.042z M10.304,24.042H3.84v3.247h6.464V24.042z M33.445,9.93H0v8.382h33.445
	V9.93z M2.226,15.96l1.469-3.677h1.779L4.001,15.96H2.226z M5.104,15.96l1.472-3.677h1.776L6.881,15.96H5.104z M7.983,15.96
	l1.471-3.677h1.777l-1.47,3.677H7.983z M10.863,15.96l1.47-3.677h1.777l-1.47,3.677H10.863z M15.519,15.96h-1.775l1.471-3.677h1.777
	L15.519,15.96z M29.475,15.35c-0.678,0-1.227-0.55-1.227-1.229c0-0.68,0.549-1.228,1.227-1.228c0.68,0,1.229,0.548,1.229,1.228
	C30.704,14.8,30.154,15.35,29.475,15.35z M31.604,7.723H1.915L7.771,0h17.905L31.604,7.723z"/>
<circle fill="#ED1C24" cx="28.32" cy="25.198" r="10.575"/>
<circle fill="#FFFFFF" cx="28.344" cy="31.14" r="1.553"/>
<path fill="#FFFFFF" d="M30.396,19.981c-0.131,1.047-1.096,6.141-1.414,7.814c-0.059,0.31-0.329,0.534-0.645,0.534h-0.013
	c-0.326,0-0.605-0.231-0.666-0.552c-0.322-1.699-1.284-6.797-1.414-7.827c-0.155-1.24,0.812-2.336,2.062-2.336
	C29.572,17.615,30.553,18.726,30.396,19.981z"/>
</svg>
