<?xml version="1.0" encoding="utf-8"?>
<!-- Generator: Adobe Illustrator 15.0.0, SVG Export Plug-In  -->
<!DOCTYPE svg PUBLIC "-//W3C//DTD SVG 1.1//EN" "http://www.w3.org/Graphics/SVG/1.1/DTD/svg11.dtd" [
	<!ENTITY ns_flows "http://ns.adobe.com/Flows/1.0/">
]>
<svg version="1.1"
	 xmlns="http://www.w3.org/2000/svg" xmlns:xlink="http://www.w3.org/1999/xlink" xmlns:a="http://ns.adobe.com/AdobeSVGViewerExtensions/3.0/"
	 x="0px" y="0px" width="104px" height="104px" viewBox="-1.1 -1.3 104 104"
	 overflow="visible" enable-background="new -1.1 -1.3 104 104" xml:space="preserve">
<defs>
</defs>
<path fill="#FFFFFF" d="M50.8,101.4c-27.9,0-50.7-22.7-50.7-50.7C0.1,22.7,22.9,0,50.8,0c27.9,0,50.7,22.7,50.7,50.7
	C101.5,78.6,78.8,101.4,50.8,101.4z M50.8,6.2c-24.5,0-44.5,20-44.5,44.5c0,24.5,20,44.5,44.5,44.5c24.5,0,44.5-20,44.5-44.5
	C95.3,26.1,75.4,6.2,50.8,6.2z"/>
<path fill="#00AEEF" d="M50.6,0c-13.1,0-25.5,5-35,14C-4.6,33.3-5.3,65.5,14,85.7l4.5-4.3c-17-17.7-16.3-46,1.4-62.9
	c8.6-8.2,19.9-12.6,31.8-12.3c11.9,0.3,23,5.2,31.2,13.8l4.5-4.3C78,5.9,65.3,0.3,51.8,0C51.4,0,51,0,50.6,0z"/>
<circle opacity="0.9" fill="#AFE0E7" cx="51" cy="50.6" r="44.6"/>
<circle fill="none" stroke="#FFFFFF" stroke-miterlimit="10" cx="51" cy="50.6" r="35.7"/>
<path fill="#FFFFFF" d="M41,38.5c0-0.5,0.4-0.8,0.9-0.5l21,12.1c0.5,0.3,0.5,0.7,0,1l-21,12.1c-0.5,0.3-0.9,0-0.9-0.5V38.5z"/>
</svg>
