<?xml version="1.0" encoding="utf-8"?>
<!-- Generator: Adobe Illustrator 15.0.0, SVG Export Plug-In . SVG Version: 6.00 Build 0)  -->
<!DOCTYPE svg PUBLIC "-//W3C//DTD SVG 1.1//EN" "http://www.w3.org/Graphics/SVG/1.1/DTD/svg11.dtd">
<svg version="1.1" id="Layer_1" xmlns="http://www.w3.org/2000/svg" xmlns:xlink="http://www.w3.org/1999/xlink" x="0px" y="0px"
	 width="64px" height="64px" viewBox="0 0 64 64" enable-background="new 0 0 64 64" xml:space="preserve">
<rect x="6.294" y="16" display="none" fill="#E6E7E8" width="32" height="32"/>
<rect x="10.294" y="20" display="none" fill="#E6E7E8" width="24" height="24"/>
<rect display="none" fill="#E6E7E8" width="64.626" height="64"/>
<polygon id="up_button_3_" display="none" fill="#FFFFFF" points="29.057,44 19.556,32.003 29.057,20 23.295,20 13.795,32.003 
	23.295,44 "/>
<path id="user-icon_4_" display="none" fill="#FFFFFF" d="M31.106,38.083c-3.438-0.793-6.637-1.487-5.087-4.409
	c4.716-8.893,1.25-13.647-3.73-13.647c-5.079,0-8.46,4.938-3.731,13.647c1.597,2.939-1.723,3.635-5.086,4.409
	c-3.437,0.792-3.172,2.604-3.172,5.892h23.979C34.277,40.688,34.542,38.875,31.106,38.083z"/>
<g display="none">
	<path display="inline" fill="#FFFFFF" d="M62.418,57c0,2.75-2.25,5-5,5H7.586c-2.75,0-5-2.25-5-5V7c0-2.75,2.25-5,5-5h49.832
		c2.75,0,5,2.25,5,5V57z"/>
</g>
<path display="none" fill="#DDDFDB" d="M46.574,35.284l-7.723-11.712l-4.498,6.392l-2.445-2.519l-3.562,4.045
	c0.466,1.033,0.837,2.314,1.059,3.793L46.574,35.284L46.574,35.284z"/>
<circle display="none" fill="#DDDFDB" cx="27.797" cy="23.486" r="2.715"/>
<path display="none" fill="#DDDFDB" d="M56.331,15.903H15.653V32.01c0.272-0.162,1.546-0.924,2.99-1.782V18.894h34.699V36.58h-23.79
	c0.048,0.562,0.078,1.145,0.08,1.756c0,0.422-0.012,0.833-0.032,1.234h26.731V15.903z"/>
<path display="none" fill="#DDDFDB" d="M10.716,33.645c-1.414,0-1.983,0.926-2.286,2.217c-0.369,1.595-0.354,3.546,0.025,5.117
	c0.31,1.282,0.921,2.102,2.261,2.102h2.62c-1.093-2.377-1.093-7.057,0-9.436H10.716L10.716,33.645z"/>
<path id="audio-6-icon_17_" display="none" fill="#DDDFDB" d="M10.716,33.675h2.62c-1.093,2.378-1.093,7.058,0,9.435h-2.62
	c-1.34,0-1.951-0.817-2.261-2.1c-0.379-1.574-0.395-3.525-0.025-5.117C8.733,34.6,9.302,33.675,10.716,33.675z M28.433,38.366
	c0.005,6.571-2.573,10.526-5.011,9.708c-0.632-0.213-7.828-4.563-7.828-4.563c-1.631-1.819-1.631-8.42,0-10.237
	c0,0,7.498-4.48,7.815-4.607C25.611,27.775,28.428,31.79,28.433,38.366z M25.375,32.371c-0.864-1.854-2.167-1.822-3.01,0.001
	c-0.486,1.04-0.816,2.291-0.992,3.625h0.43c1.302,0,2.352,1.054,2.352,2.354c0,1.297-1.05,2.354-2.352,2.354h-0.421
	c0.179,1.311,0.506,2.574,0.988,3.681c0.809,1.858,2.215,1.826,3.009-0.003C26.972,40.719,26.829,35.503,25.375,32.371z"/>
<path id="audio-6-icon_16_" display="none" fill="#DDDFDB" d="M19.045,23.881h4.561c-1.904,4.139-1.904,12.289,0,16.428h-4.561
	c-2.333,0-3.398-1.424-3.938-3.654c-0.66-2.74-0.687-6.138-0.043-8.909C15.59,25.491,16.581,23.881,19.045,23.881z M49.896,32.05
	c0.006,11.444-4.48,18.332-8.727,16.906c-1.104-0.371-13.633-7.949-13.633-7.949c-2.839-3.167-2.839-14.66,0-17.827
	c0,0,13.059-7.803,13.607-8.025C44.982,13.606,49.887,20.597,49.896,32.05z M44.572,21.61c-1.506-3.227-3.775-3.173-5.242,0.002
	c-0.844,1.811-1.421,3.989-1.729,6.314h0.752c2.266,0,4.094,1.834,4.094,4.097c0,2.261-1.828,4.1-4.094,4.1h-0.734
	c0.312,2.279,0.881,4.482,1.722,6.409c1.408,3.235,3.856,3.18,5.239-0.005C47.352,36.146,47.102,27.063,44.572,21.61z"/>
<g display="none">
	<g display="inline">
		<path display="none" fill="#DDDFDB" d="M15.384,20.242h2.023c1.35,0,1.35-3.376,2.696-3.376h1.352h0.003h0.008h0.02h0.011h0.011
			h0.029h0.016h0.021h0.029h0.01h0.048l0,0h0.05l0,0h0.053h0.005h0.042h0.021h0.033h0.033h0.016h0.046h0.014h0.036h0.039h0.004
			h0.042h0.036h0.011h0.042h0.031h0.011h0.039h0.039l0,0h0.039h0.036h0.017h0.02h0.032h0.036h0.006h0.022h0.034h0.025h0.019h0.01
			h0.028h0.021h0.023h0.023h0.002h0.012h0.02h0.016h0.013h0.011h0.013h0.011h0.002h0.008l0,0l0,0h0.003h4.724
			c1.347,0,1.347,3.376,2.695,3.376h12.814c0-0.745,0.605-1.352,1.35-1.352h1.35c0.746,0,1.351,0.606,1.351,1.352h2.024
			c1.859,0,3.369,1.508,3.369,3.37v20.234c0,1.861-1.51,3.372-3.369,3.372H15.384c-1.863,0.001-3.372-1.511-3.372-3.372V23.612
			C12.012,21.75,13.521,20.242,15.384,20.242L15.384,20.242z M38.99,23.612c-5.586,0-10.116,4.531-10.116,10.117
			c0,5.588,4.53,10.119,10.116,10.119c5.589,0,10.121-4.529,10.121-10.119C49.111,28.144,44.58,23.612,38.99,23.612L38.99,23.612z
			 M20.104,26.984h4.049c0.747,0,1.352-0.603,1.352-1.35v-0.67c0-0.747-0.604-1.352-1.352-1.352h-4.049
			c-0.742,0-1.347,0.605-1.347,1.352v0.67C18.757,26.381,19.362,26.984,20.104,26.984z"/>
		<path display="none" fill="#DDDFDB" d="M38.99,26.31c-4.094,0-7.416,3.323-7.416,7.418c0,4.1,3.32,7.422,7.416,7.422
			c4.098,0,7.42-3.322,7.42-7.422C46.411,29.633,43.088,26.31,38.99,26.31L38.99,26.31z"/>
	</g>
</g>
<path id="video-camera-5-icon_8_" display="none" fill="#DDDFDB" d="M56.463,19.299l-11.922,8.208v9.302l11.922,8.209V19.299z
	 M36.415,19.299H13.389c-2.718,0-4.924,2.203-4.924,4.924V40.09c0,2.723,2.206,4.928,4.924,4.928h23.025
	c2.715,0,4.922-2.203,4.922-4.928V24.224C41.336,21.502,39.129,19.299,36.415,19.299z M35.018,29.517H14.785v-3.551h20.232V29.517
	L35.018,29.517z"/>
<path display="none" fill="#DDDFDB" d="M46.574,35.284l-7.723-11.712l-4.498,6.392l-2.445-2.519l-3.562,4.045
	c0.466,1.033,0.837,2.314,1.059,3.793L46.574,35.284L46.574,35.284z"/>
<circle display="none" fill="#DDDFDB" cx="27.797" cy="23.486" r="2.715"/>
<path display="none" fill="#DDDFDB" d="M56.331,15.903H15.653V32.01c0.272-0.162,1.546-0.924,2.99-1.782V18.894h34.699V36.58h-23.79
	c0.048,0.562,0.078,1.145,0.08,1.756c0,0.422-0.012,0.833-0.032,1.234h26.731V15.903z"/>
<path display="none" fill="#DDDFDB" d="M10.716,33.645c-1.414,0-1.983,0.926-2.286,2.217c-0.369,1.595-0.354,3.546,0.025,5.117
	c0.31,1.282,0.921,2.102,2.261,2.102h2.62c-1.093-2.377-1.093-7.057,0-9.436H10.716L10.716,33.645z"/>
<path id="audio-6-icon_15_" display="none" fill="#DDDFDB" d="M10.716,33.675h2.62c-1.093,2.378-1.093,7.058,0,9.435h-2.62
	c-1.34,0-1.951-0.817-2.261-2.1c-0.379-1.574-0.395-3.525-0.025-5.117C8.733,34.6,9.302,33.675,10.716,33.675z M28.433,38.366
	c0.005,6.571-2.573,10.526-5.011,9.708c-0.632-0.213-7.828-4.563-7.828-4.563c-1.631-1.819-1.631-8.42,0-10.237
	c0,0,7.498-4.48,7.815-4.607C25.611,27.775,28.428,31.79,28.433,38.366z M25.375,32.371c-0.864-1.854-2.167-1.822-3.01,0.001
	c-0.486,1.04-0.816,2.291-0.992,3.625h0.43c1.302,0,2.352,1.054,2.352,2.354c0,1.297-1.05,2.354-2.352,2.354h-0.421
	c0.179,1.311,0.506,2.574,0.988,3.681c0.809,1.858,2.215,1.826,3.009-0.003C26.972,40.719,26.829,35.503,25.375,32.371z"/>
<path id="audio-6-icon_14_" display="none" fill="#DDDFDB" d="M19.045,23.881h4.561c-1.904,4.139-1.904,12.289,0,16.428h-4.561
	c-2.333,0-3.398-1.424-3.938-3.654c-0.66-2.74-0.687-6.138-0.043-8.909C15.59,25.491,16.581,23.881,19.045,23.881z M49.896,32.05
	c0.006,11.444-4.48,18.332-8.727,16.906c-1.104-0.371-13.633-7.949-13.633-7.949c-2.839-3.167-2.839-14.66,0-17.827
	c0,0,13.059-7.803,13.607-8.025C44.982,13.606,49.887,20.597,49.896,32.05z M44.572,21.61c-1.506-3.227-3.775-3.173-5.242,0.002
	c-0.844,1.811-1.421,3.989-1.729,6.314h0.752c2.266,0,4.094,1.834,4.094,4.097c0,2.261-1.828,4.1-4.094,4.1h-0.734
	c0.312,2.279,0.881,4.482,1.722,6.409c1.408,3.235,3.856,3.18,5.239-0.005C47.352,36.146,47.102,27.063,44.572,21.61z"/>
<g display="none">
	<g display="inline">
		<path display="none" fill="#DDDFDB" d="M15.384,20.242h2.023c1.35,0,1.35-3.376,2.696-3.376h1.352h0.003h0.008h0.02h0.011h0.011
			h0.029h0.016h0.021h0.029h0.01h0.048l0,0h0.05l0,0h0.053h0.005h0.042h0.021h0.033h0.033h0.016h0.046h0.014h0.036h0.039h0.004
			h0.042h0.036h0.011h0.042h0.031h0.011h0.039h0.039l0,0h0.039h0.036h0.017h0.02h0.032h0.036h0.006h0.022h0.034h0.025h0.019h0.01
			h0.028h0.021h0.023h0.023h0.002h0.012h0.02h0.016h0.013h0.011h0.013h0.011h0.002h0.008l0,0l0,0h0.003h4.724
			c1.347,0,1.347,3.376,2.695,3.376h12.814c0-0.745,0.605-1.352,1.35-1.352h1.35c0.746,0,1.351,0.606,1.351,1.352h2.024
			c1.859,0,3.369,1.508,3.369,3.37v20.234c0,1.861-1.51,3.372-3.369,3.372H15.384c-1.863,0.001-3.372-1.511-3.372-3.372V23.612
			C12.012,21.75,13.521,20.242,15.384,20.242L15.384,20.242z M38.99,23.612c-5.586,0-10.116,4.531-10.116,10.117
			c0,5.588,4.53,10.119,10.116,10.119c5.589,0,10.121-4.529,10.121-10.119C49.111,28.144,44.58,23.612,38.99,23.612L38.99,23.612z
			 M20.104,26.984h4.049c0.747,0,1.352-0.603,1.352-1.35v-0.67c0-0.747-0.604-1.352-1.352-1.352h-4.049
			c-0.742,0-1.347,0.605-1.347,1.352v0.67C18.757,26.381,19.362,26.984,20.104,26.984z"/>
		<path display="none" fill="#DDDFDB" d="M38.99,26.31c-4.094,0-7.416,3.323-7.416,7.418c0,4.1,3.32,7.422,7.416,7.422
			c4.098,0,7.42-3.322,7.42-7.422C46.411,29.633,43.088,26.31,38.99,26.31L38.99,26.31z"/>
	</g>
</g>
<path id="video-camera-5-icon_7_" display="none" fill="#DDDFDB" d="M56.463,19.299l-11.922,8.208v9.302l11.922,8.209V19.299z
	 M36.415,19.299H13.389c-2.718,0-4.924,2.203-4.924,4.924V40.09c0,2.723,2.206,4.928,4.924,4.928h23.025
	c2.715,0,4.922-2.203,4.922-4.928V24.224C41.336,21.502,39.129,19.299,36.415,19.299z M35.018,29.517H14.785v-3.551h20.232V29.517
	L35.018,29.517z"/>
<g display="none">
	<g display="inline" opacity="0.9">
		<path display="none" fill="#ED1F24" d="M46.508,35.284l-7.723-11.712l-4.498,6.392l-2.445-2.519L28.28,31.49
			c0.466,1.033,0.837,2.314,1.059,3.793L46.508,35.284L46.508,35.284z"/>
		<circle display="none" fill="#ED1F24" cx="27.731" cy="23.486" r="2.715"/>
		<path display="none" fill="#ED1F24" d="M10.65,33.675h2.62c-1.093,2.378-1.093,7.058,0,9.435h-2.62c-1.34,0-1.951-0.817-2.261-2.1
			c-0.379-1.574-0.395-3.525-0.025-5.117C8.667,34.6,9.236,33.675,10.65,33.675z M28.367,38.366
			c0.005,6.571-2.573,10.526-5.011,9.708c-0.632-0.213-7.828-4.563-7.828-4.563c-1.631-1.819-1.631-8.42,0-10.237
			c0,0,7.498-4.48,7.815-4.607C25.545,27.775,28.362,31.79,28.367,38.366z M25.31,32.371c-0.864-1.854-2.167-1.822-3.01,0.001
			c-0.486,1.04-0.816,2.291-0.992,3.625h0.43c1.302,0,2.352,1.054,2.352,2.354c0,1.297-1.05,2.354-2.352,2.354h-0.421
			c0.179,1.311,0.506,2.574,0.988,3.681c0.809,1.858,2.215,1.826,3.009-0.003C26.906,40.719,26.763,35.503,25.31,32.371z"/>
	</g>
	<g display="inline">
		<g>
			<path display="none" fill="#ED352A" d="M46.508,35.284l-7.723-11.712l-4.498,6.392l-2.445-2.519L28.28,31.49
				c0.466,1.033,0.837,2.314,1.059,3.793L46.508,35.284L46.508,35.284z"/>
			<circle display="none" fill="#ED352A" cx="27.731" cy="23.486" r="2.715"/>
			<g display="none">
				<path display="inline" fill="#ED352A" d="M56.266,15.903H15.587V32.01c0.272-0.162,1.546-0.924,2.99-1.782V18.894h34.698V36.58
					H29.485c0.048,0.562,0.078,1.145,0.08,1.756c0,0.422-0.012,0.833-0.032,1.234h26.73V15.903H56.266z"/>
				<path display="inline" fill="#ED352A" d="M10.65,33.645c-1.414,0-1.983,0.926-2.286,2.217c-0.369,1.595-0.354,3.546,0.025,5.117
					c0.31,1.282,0.921,2.102,2.261,2.102h2.62c-1.093-2.377-1.093-7.057,0-9.436H10.65L10.65,33.645z"/>
			</g>
			<path display="none" fill="#ED352A" d="M10.65,33.675h2.62c-1.093,2.378-1.093,7.058,0,9.435h-2.62
				c-1.34,0-1.951-0.817-2.261-2.1c-0.379-1.574-0.395-3.525-0.025-5.117C8.667,34.6,9.236,33.675,10.65,33.675z M28.367,38.366
				c0.005,6.571-2.573,10.526-5.011,9.708c-0.632-0.213-7.828-4.563-7.828-4.563c-1.631-1.819-1.631-8.42,0-10.237
				c0,0,7.498-4.48,7.815-4.607C25.545,27.775,28.362,31.79,28.367,38.366z M25.31,32.371c-0.864-1.854-2.167-1.822-3.01,0.001
				c-0.486,1.04-0.816,2.291-0.992,3.625h0.43c1.302,0,2.352,1.054,2.352,2.354c0,1.297-1.05,2.354-2.352,2.354h-0.421
				c0.179,1.311,0.506,2.574,0.988,3.681c0.809,1.858,2.215,1.826,3.009-0.003C26.906,40.719,26.763,35.503,25.31,32.371z"/>
		</g>
	</g>
</g>
<g display="none">
	<g display="inline" opacity="0.9">
		<path display="none" fill="#ED1F24" d="M46.508,35.284l-7.723-11.712l-4.498,6.392l-2.445-2.519L28.28,31.49
			c0.466,1.033,0.837,2.314,1.059,3.793L46.508,35.284L46.508,35.284z"/>
		<circle display="none" fill="#ED1F24" cx="27.731" cy="23.486" r="2.715"/>
		<path display="none" fill="#ED1F24" d="M10.65,33.675h2.62c-1.093,2.378-1.093,7.058,0,9.435h-2.62c-1.34,0-1.951-0.817-2.261-2.1
			c-0.379-1.574-0.395-3.525-0.025-5.117C8.667,34.6,9.236,33.675,10.65,33.675z M28.367,38.366
			c0.005,6.571-2.573,10.526-5.011,9.708c-0.632-0.213-7.828-4.563-7.828-4.563c-1.631-1.819-1.631-8.42,0-10.237
			c0,0,7.498-4.48,7.815-4.607C25.545,27.775,28.362,31.79,28.367,38.366z M25.31,32.371c-0.864-1.854-2.167-1.822-3.01,0.001
			c-0.486,1.04-0.816,2.291-0.992,3.625h0.43c1.302,0,2.352,1.054,2.352,2.354c0,1.297-1.05,2.354-2.352,2.354h-0.421
			c0.179,1.311,0.506,2.574,0.988,3.681c0.809,1.858,2.215,1.826,3.009-0.003C26.906,40.719,26.763,35.503,25.31,32.371z"/>
	</g>
	<g display="inline">
		<g>
			<path display="none" fill="#ED352A" d="M46.508,35.284l-7.723-11.712l-4.498,6.392l-2.445-2.519L28.28,31.49
				c0.466,1.033,0.837,2.314,1.059,3.793L46.508,35.284L46.508,35.284z"/>
			<circle display="none" fill="#ED352A" cx="27.731" cy="23.486" r="2.715"/>
			<g display="none">
				<path display="inline" fill="#ED352A" d="M56.266,15.903H15.587V32.01c0.272-0.162,1.546-0.924,2.99-1.782V18.894h34.698V36.58
					H29.485c0.048,0.562,0.078,1.145,0.08,1.756c0,0.422-0.012,0.833-0.032,1.234h26.73V15.903H56.266z"/>
				<path display="inline" fill="#ED352A" d="M10.65,33.645c-1.414,0-1.983,0.926-2.286,2.217c-0.369,1.595-0.354,3.546,0.025,5.117
					c0.31,1.282,0.921,2.102,2.261,2.102h2.62c-1.093-2.377-1.093-7.057,0-9.436H10.65L10.65,33.645z"/>
			</g>
			<path display="none" fill="#ED352A" d="M10.65,33.675h2.62c-1.093,2.378-1.093,7.058,0,9.435h-2.62
				c-1.34,0-1.951-0.817-2.261-2.1c-0.379-1.574-0.395-3.525-0.025-5.117C8.667,34.6,9.236,33.675,10.65,33.675z M28.367,38.366
				c0.005,6.571-2.573,10.526-5.011,9.708c-0.632-0.213-7.828-4.563-7.828-4.563c-1.631-1.819-1.631-8.42,0-10.237
				c0,0,7.498-4.48,7.815-4.607C25.545,27.775,28.362,31.79,28.367,38.366z M25.31,32.371c-0.864-1.854-2.167-1.822-3.01,0.001
				c-0.486,1.04-0.816,2.291-0.992,3.625h0.43c1.302,0,2.352,1.054,2.352,2.354c0,1.297-1.05,2.354-2.352,2.354h-0.421
				c0.179,1.311,0.506,2.574,0.988,3.681c0.809,1.858,2.215,1.826,3.009-0.003C26.906,40.719,26.763,35.503,25.31,32.371z"/>
		</g>
	</g>
</g>
<g id="audio-6-icon_10_" display="none">
	<g display="inline" opacity="0.9">
		<path fill="#ED1F24" d="M18.979,23.881h4.561c-1.904,4.139-1.904,12.289,0,16.428h-4.561c-2.333,0-3.398-1.424-3.938-3.654
			c-0.66-2.74-0.687-6.138-0.043-8.909C15.524,25.491,16.515,23.881,18.979,23.881z M49.83,32.05
			c0.007,11.444-4.48,18.332-8.725,16.906c-1.104-0.371-13.633-7.949-13.633-7.949c-2.839-3.167-2.839-14.66,0-17.827
			c0,0,13.057-7.803,13.609-8.025C44.917,13.606,49.82,20.597,49.83,32.05z M44.506,21.61c-1.505-3.227-3.775-3.173-5.242,0.002
			c-0.844,1.811-1.421,3.989-1.728,6.314h0.751c2.266,0,4.094,1.834,4.094,4.097c0,2.261-1.828,4.1-4.094,4.1h-0.734
			c0.312,2.279,0.881,4.482,1.723,6.409c1.408,3.235,3.855,3.18,5.238-0.005C47.285,36.146,47.036,27.063,44.506,21.61z"/>
	</g>
	<g display="inline">
		<path fill="#ED352A" d="M18.979,23.881h4.561c-1.904,4.139-1.904,12.289,0,16.428h-4.561c-2.333,0-3.398-1.424-3.938-3.654
			c-0.66-2.74-0.687-6.138-0.043-8.909C15.524,25.491,16.515,23.881,18.979,23.881z M49.83,32.05
			c0.007,11.444-4.48,18.332-8.725,16.906c-1.104-0.371-13.633-7.949-13.633-7.949c-2.839-3.167-2.839-14.66,0-17.827
			c0,0,13.057-7.803,13.609-8.025C44.917,13.606,49.82,20.597,49.83,32.05z M44.506,21.61c-1.505-3.227-3.775-3.173-5.242,0.002
			c-0.844,1.811-1.421,3.989-1.728,6.314h0.751c2.266,0,4.094,1.834,4.094,4.097c0,2.261-1.828,4.1-4.094,4.1h-0.734
			c0.312,2.279,0.881,4.482,1.723,6.409c1.408,3.235,3.855,3.18,5.238-0.005C47.285,36.146,47.036,27.063,44.506,21.61z"/>
	</g>
</g>
<g display="none">
	<g display="inline" opacity="0.9">
		<path display="none" fill="#ED1F24" d="M15.318,20.242h2.023c1.35,0,1.35-3.376,2.696-3.376h1.352h0.003H21.4h0.02h0.011h0.011
			h0.029h0.016h0.021h0.029h0.01h0.048l0,0h0.05l0,0h0.053h0.005h0.042h0.021h0.033h0.033h0.016h0.046h0.014h0.036h0.039h0.004
			h0.042h0.036h0.011h0.042h0.031h0.011h0.039h0.039l0,0h0.039h0.036h0.017h0.02h0.032h0.036h0.006h0.022h0.034h0.025h0.019h0.009
			h0.028h0.021h0.023h0.023h0.002h0.012h0.02h0.016h0.013h0.011h0.013h0.011h0.002h0.008l0,0l0,0h0.003h4.724
			c1.347,0,1.347,3.376,2.695,3.376h12.814c0-0.745,0.604-1.352,1.35-1.352h1.35c0.746,0,1.35,0.606,1.35,1.352h2.024
			c1.858,0,3.37,1.508,3.37,3.37v20.234c0,1.861-1.512,3.372-3.37,3.372H15.318c-1.863,0.001-3.372-1.511-3.372-3.372V23.612
			C11.946,21.75,13.455,20.242,15.318,20.242L15.318,20.242z M38.924,23.612c-5.586,0-10.116,4.531-10.116,10.117
			c0,5.588,4.53,10.119,10.116,10.119c5.59,0,10.121-4.529,10.121-10.119C49.045,28.144,44.514,23.612,38.924,23.612L38.924,23.612z
			 M20.038,26.984h4.049c0.747,0,1.352-0.603,1.352-1.35v-0.67c0-0.747-0.604-1.352-1.352-1.352h-4.049
			c-0.742,0-1.347,0.605-1.347,1.352v0.67C18.691,26.381,19.296,26.984,20.038,26.984z"/>
		<path display="none" fill="#ED1F24" d="M38.924,26.31c-4.094,0-7.416,3.323-7.416,7.418c0,4.1,3.321,7.422,7.416,7.422
			c4.098,0,7.42-3.322,7.42-7.422C46.346,29.633,43.021,26.31,38.924,26.31L38.924,26.31z"/>
	</g>
	<g display="inline">
		<g>
			<path display="none" fill="#ED352A" d="M15.318,20.242h2.023c1.35,0,1.35-3.376,2.696-3.376h1.352h0.003H21.4h0.02h0.011h0.011
				h0.029h0.016h0.021h0.029h0.01h0.048l0,0h0.05l0,0h0.053h0.005h0.042h0.021h0.033h0.033h0.016h0.046h0.014h0.036h0.039h0.004
				h0.042h0.036h0.011h0.042h0.031h0.011h0.039h0.039l0,0h0.039h0.036h0.017h0.02h0.032h0.036h0.006h0.022h0.034h0.025h0.019h0.009
				h0.028h0.021h0.023h0.023h0.002h0.012h0.02h0.016h0.013h0.011h0.013h0.011h0.002h0.008l0,0l0,0h0.003h4.724
				c1.347,0,1.347,3.376,2.695,3.376h12.814c0-0.745,0.604-1.352,1.35-1.352h1.35c0.746,0,1.35,0.606,1.35,1.352h2.024
				c1.858,0,3.37,1.508,3.37,3.37v20.234c0,1.861-1.512,3.372-3.37,3.372H15.318c-1.863,0.001-3.372-1.511-3.372-3.372V23.612
				C11.946,21.75,13.455,20.242,15.318,20.242L15.318,20.242z M38.924,23.612c-5.586,0-10.116,4.531-10.116,10.117
				c0,5.588,4.53,10.119,10.116,10.119c5.59,0,10.121-4.529,10.121-10.119C49.045,28.144,44.514,23.612,38.924,23.612L38.924,23.612
				z M20.038,26.984h4.049c0.747,0,1.352-0.603,1.352-1.35v-0.67c0-0.747-0.604-1.352-1.352-1.352h-4.049
				c-0.742,0-1.347,0.605-1.347,1.352v0.67C18.691,26.381,19.296,26.984,20.038,26.984z"/>
			<path display="none" fill="#ED352A" d="M38.924,26.31c-4.094,0-7.416,3.323-7.416,7.418c0,4.1,3.321,7.422,7.416,7.422
				c4.098,0,7.42-3.322,7.42-7.422C46.346,29.633,43.021,26.31,38.924,26.31L38.924,26.31z"/>
		</g>
	</g>
</g>
<g id="video-camera-5-icon_6_" display="none">
	<g display="inline" opacity="0.9">
		<path fill="#ED1F24" d="M56.396,19.299l-11.922,8.208v9.302l11.922,8.209V19.299z M36.35,19.299H13.323
			c-2.718,0-4.924,2.203-4.924,4.924V40.09c0,2.723,2.206,4.928,4.924,4.928h23.024c2.715,0,4.922-2.203,4.922-4.928V24.224
			C41.271,21.502,39.062,19.299,36.35,19.299z M34.952,29.517H14.719v-3.551h20.233V29.517z"/>
	</g>
	<g display="inline">
		<path fill="#ED352A" d="M56.396,19.299l-11.922,8.208v9.302l11.922,8.209V19.299z M36.35,19.299H13.323
			c-2.718,0-4.924,2.203-4.924,4.924V40.09c0,2.723,2.206,4.928,4.924,4.928h23.024c2.715,0,4.922-2.203,4.922-4.928V24.224
			C41.271,21.502,39.062,19.299,36.35,19.299z M34.952,29.517H14.719v-3.551h20.233V29.517z"/>
	</g>
</g>
<path display="none" d="M57.895,23.363l-1.606,28.719H8.549l-1.61-28.719H57.895 M62.273,19.221H2.56l2.073,37.003H60.2
	L62.273,19.221L62.273,19.221z"/>
<polygon display="none" points="59.177,16.096 5.653,16.096 5.018,12.658 59.814,12.658 "/>
<polygon display="none" points="55.503,10.144 9.482,10.144 8.847,7.431 56.141,7.431 "/>
<g>
	<path fill="#FFFFFF" d="M61.959,56.667c0,2.75-2.25,5-5,5H7.127c-2.75,0-5-2.25-5-5v-50c0-2.75,2.25-5,5-5h49.832
		c2.75,0,5,2.25,5,5V56.667z"/>
</g>
<g>
	
		<image overflow="visible" opacity="0.9" width="207" height="164" xlink:href="260B404C.png"  transform="matrix(0.24 0 0 0.24 6.9868 12.0327)">
	</image>
	<g>
		<path fill="#ED342A" d="M14.859,19.909h2.023c1.35,0,1.35-3.376,2.696-3.376h1.352h0.003h0.008h0.02h0.011h0.011h0.029h0.016
			h0.021h0.029h0.01h0.048l0,0h0.05l0,0h0.053h0.005h0.042h0.021h0.033h0.033h0.016h0.046h0.014h0.036h0.039h0.004h0.042h0.036
			h0.011h0.042h0.031h0.011h0.039h0.039l0,0h0.039h0.036h0.017h0.02h0.032h0.036h0.006h0.022h0.034h0.026h0.019h0.009h0.028h0.021
			h0.023h0.024h0.002h0.012h0.02h0.016h0.013h0.011h0.013h0.011h0.002h0.008l0,0l0,0h0.003h4.724c1.347,0,1.347,3.376,2.695,3.376
			h12.814c0-0.745,0.605-1.352,1.35-1.352h1.35c0.746,0,1.35,0.606,1.35,1.352h2.025c1.859,0,3.369,1.508,3.369,3.37v20.234
			c0,1.861-1.51,3.372-3.369,3.372H14.859c-1.863,0.001-3.372-1.511-3.372-3.372V23.279C11.487,21.417,12.996,19.909,14.859,19.909
			L14.859,19.909z M38.465,23.279c-5.586,0-10.116,4.531-10.116,10.115c0,5.59,4.53,10.119,10.116,10.119
			c5.59,0,10.121-4.529,10.121-10.119C48.586,27.811,44.055,23.279,38.465,23.279L38.465,23.279z M19.579,26.651h4.049
			c0.747,0,1.351-0.603,1.351-1.35v-0.67c0-0.747-0.604-1.352-1.351-1.352h-4.049c-0.742,0-1.347,0.605-1.347,1.352v0.67
			C18.232,26.048,18.836,26.651,19.579,26.651z"/>
		<path fill="#ED342A" d="M38.465,25.977c-4.094,0-7.416,3.323-7.416,7.418c0,4.101,3.322,7.422,7.416,7.422
			c4.098,0,7.42-3.321,7.42-7.422C45.885,29.3,42.562,25.977,38.465,25.977L38.465,25.977z"/>
	</g>
</g>
</svg>
