<?xml version="1.0" encoding="utf-8"?>
<!-- Generator: Adobe Illustrator 15.0.0, SVG Export Plug-In . SVG Version: 6.00 Build 0)  -->
<!DOCTYPE svg PUBLIC "-//W3C//DTD SVG 1.1//EN" "http://www.w3.org/Graphics/SVG/1.1/DTD/svg11.dtd" [
	<!ENTITY ns_extend "http://ns.adobe.com/Extensibility/1.0/">
	<!ENTITY ns_ai "http://ns.adobe.com/AdobeIllustrator/10.0/">
	<!ENTITY ns_graphs "http://ns.adobe.com/Graphs/1.0/">
	<!ENTITY ns_vars "http://ns.adobe.com/Variables/1.0/">
	<!ENTITY ns_imrep "http://ns.adobe.com/ImageReplacement/1.0/">
	<!ENTITY ns_sfw "http://ns.adobe.com/SaveForWeb/1.0/">
	<!ENTITY ns_custom "http://ns.adobe.com/GenericCustomNamespace/1.0/">
	<!ENTITY ns_adobe_xpath "http://ns.adobe.com/XPath/1.0/">
]>
<svg version="1.1" id="Layer_1" xmlns:x="&ns_extend;" xmlns:i="&ns_ai;" xmlns:graph="&ns_graphs;"
	 xmlns="http://www.w3.org/2000/svg" xmlns:xlink="http://www.w3.org/1999/xlink" x="0px" y="0px" width="64px" height="64px"
	 viewBox="0 0 64 64" enable-background="new 0 0 64 64" xml:space="preserve">
<metadata>
	<sfw  xmlns="&ns_sfw;">
		<slices></slices>
		<sliceSourceBounds  height="81.956" width="64.626" y="256.544" x="363.5" bottomLeftOrigin="true"></sliceSourceBounds>
	</sfw>
</metadata>
<rect x="6.294" y="16" display="none" fill="#E6E7E8" width="32" height="32"/>
<rect x="10.294" y="20" display="none" fill="#E6E7E8" width="24" height="24"/>
<rect display="none" fill="#E6E7E8" width="64.626" height="64"/>
<polygon id="up_button_3_" display="none" fill="#FFFFFF" points="29.057,44 19.556,32.003 29.057,20 23.295,20 13.795,32.003 
	23.295,44 "/>
<path id="user-icon_4_" display="none" fill="#FFFFFF" d="M31.106,38.083c-3.438-0.793-6.637-1.487-5.087-4.409
	c4.716-8.893,1.25-13.647-3.73-13.647c-5.079,0-8.46,4.938-3.731,13.647c1.597,2.939-1.723,3.635-5.086,4.409
	c-3.437,0.792-3.172,2.604-3.172,5.892h23.979C34.277,40.688,34.542,38.875,31.106,38.083z"/>
<g display="none">
	<path display="inline" fill="#FFFFFF" d="M62.418,57c0,2.75-2.25,5-5,5H7.586c-2.75,0-5-2.25-5-5V7c0-2.75,2.25-5,5-5h49.832
		c2.75,0,5,2.25,5,5V57z"/>
</g>
<path id="video-camera-5-icon_7_" display="none" fill="#DDDFDB" d="M58.878,18.025l-13.114,9.028v10.231l13.114,9.03V18.025z
	 M36.825,18.025H11.497c-2.99,0-5.416,2.423-5.416,5.416v17.454c0,2.994,2.426,5.422,5.416,5.422h25.328
	c2.985,0,5.413-2.426,5.413-5.422V23.441C42.238,20.448,39.811,18.025,36.825,18.025z M35.289,29.265H13.032v-3.906h22.256
	L35.289,29.265L35.289,29.265z"/>
<path display="none" fill="#DDDFDB" d="M48,35.607l-8.495-12.883l-4.948,7.031l-2.688-2.771l-3.918,4.45
	c0.513,1.136,0.921,2.544,1.165,4.171H48V35.607z"/>
<circle display="none" fill="#DDDFDB" cx="27.346" cy="22.63" r="2.986"/>
<path display="none" fill="#DDDFDB" d="M58.732,14.289H13.987v17.719c0.299-0.179,1.7-1.017,3.289-1.961V17.579h38.167v19.455
	H29.275c0.053,0.618,0.086,1.259,0.088,1.932c0,0.466-0.013,0.916-0.035,1.357h29.404V14.289z"/>
<path display="none" fill="#DDDFDB" d="M8.557,33.805c-1.556,0-2.182,1.019-2.515,2.439c-0.406,1.752-0.389,3.898,0.028,5.629
	c0.34,1.409,1.013,2.311,2.487,2.311h2.881c-1.203-2.615-1.203-7.763,0-10.379H8.557z"/>
<path id="audio-6-icon_16_" display="none" fill="#DDDFDB" d="M8.557,33.838h2.881c-1.203,2.616-1.203,7.764,0,10.377H8.557
	c-1.474,0-2.146-0.898-2.487-2.309c-0.417-1.73-0.434-3.877-0.028-5.629C6.375,34.855,7.001,33.838,8.557,33.838z M28.045,38.999
	c0.005,7.228-2.831,11.58-5.512,10.679c-0.695-0.232-8.611-5.021-8.611-5.021c-1.794-2.001-1.794-9.263,0-11.261
	c0,0,8.247-4.931,8.597-5.069C24.941,27.349,28.04,31.765,28.045,38.999z M24.682,32.404c-0.951-2.039-2.384-2.004-3.312,0.001
	c-0.534,1.144-0.898,2.52-1.091,3.987h0.473c1.432,0,2.587,1.159,2.587,2.59c0,1.427-1.155,2.588-2.587,2.588h-0.463
	c0.197,1.44,0.557,2.832,1.087,4.049c0.89,2.045,2.436,2.009,3.31-0.003C26.438,41.587,26.28,35.85,24.682,32.404z"/>
<path id="audio-6-icon_15_" display="none" fill="#DDDFDB" d="M17.718,23.064h5.017c-2.095,4.554-2.095,13.519,0,18.07h-5.017
	c-2.565,0-3.738-1.565-4.331-4.02c-0.726-3.015-0.756-6.753-0.048-9.801C13.918,24.836,15.007,23.064,17.718,23.064z M51.654,32.051
	c0.007,12.59-4.928,20.166-9.598,18.598c-1.211-0.407-14.996-8.743-14.996-8.743c-3.123-3.483-3.123-16.127,0-19.609
	c0,0,14.363-8.583,14.97-8.828C46.249,11.763,51.645,19.452,51.654,32.051z M45.797,20.567c-1.654-3.55-4.152-3.491-5.766,0.002
	c-0.928,1.991-1.563,4.388-1.9,6.945h0.826c2.492,0,4.503,2.018,4.503,4.507c0,2.487-2.011,4.51-4.503,4.51h-0.809
	c0.345,2.508,0.97,4.93,1.895,7.05c1.548,3.558,4.242,3.498,5.764-0.006C48.854,36.559,48.581,26.565,45.797,20.567z"/>
<g display="none">
	<g display="inline">
		<path display="none" fill="#DDDFDB" d="M13.691,19.062h2.226c1.484,0,1.484-3.715,2.966-3.715h1.487h0.004h0.008h0.022h0.013
			h0.012h0.032h0.017H20.5h0.032h0.011h0.053l0,0h0.056l0,0h0.058h0.005h0.046h0.022h0.036h0.036h0.018h0.05h0.015h0.039h0.043
			h0.005h0.047h0.039h0.013h0.046h0.035h0.012h0.043h0.043l0,0h0.043h0.04h0.019h0.021h0.035h0.04h0.007h0.024h0.038h0.028h0.02
			h0.01h0.031h0.022h0.026h0.026h0.002h0.014h0.021h0.018h0.014h0.011h0.014h0.012h0.002h0.009l0,0l0,0h0.003h5.196
			c1.481,0,1.481,3.715,2.965,3.715h14.095c0-0.82,0.666-1.487,1.484-1.487h1.485c0.819,0,1.483,0.667,1.483,1.487h2.229
			c2.045,0,3.707,1.658,3.707,3.707v22.258c0,2.047-1.662,3.709-3.707,3.709h-37.1c-2.05,0.002-3.709-1.662-3.709-3.709V22.77
			C9.982,20.721,11.642,19.062,13.691,19.062L13.691,19.062z M39.658,22.77c-6.145,0-11.127,4.984-11.127,11.126
			c0,6.148,4.983,11.131,11.127,11.131c6.148,0,11.133-4.981,11.133-11.131C50.791,27.754,45.807,22.77,39.658,22.77L39.658,22.77z
			 M18.883,26.479h4.454c0.822,0,1.487-0.663,1.487-1.485v-0.737c0-0.821-0.665-1.486-1.487-1.486h-4.454
			c-0.816,0-1.481,0.665-1.481,1.486v0.737C17.401,25.815,18.066,26.479,18.883,26.479z"/>
		<path display="none" fill="#DDDFDB" d="M39.658,25.736c-4.504,0-8.157,3.655-8.157,8.161c0,4.51,3.653,8.164,8.157,8.164
			c4.508,0,8.162-3.654,8.162-8.164C47.82,29.392,44.166,25.736,39.658,25.736L39.658,25.736z"/>
	</g>
</g>
<path id="video-camera-5-icon_6_" display="none" fill="#DDDFDB" d="M58.878,18.025l-13.114,9.028v10.231l13.114,9.03V18.025z
	 M36.825,18.025H11.497c-2.99,0-5.416,2.423-5.416,5.416v17.454c0,2.994,2.426,5.422,5.416,5.422h25.328
	c2.985,0,5.413-2.426,5.413-5.422V23.441C42.238,20.448,39.811,18.025,36.825,18.025z M35.289,29.265H13.032v-3.906h22.256
	L35.289,29.265L35.289,29.265z"/>
<g display="none">
	<g display="inline">
		<path display="none" fill="#DDDFDB" d="M13.691,19.062h2.226c1.484,0,1.484-3.715,2.966-3.715h1.487h0.004h0.008h0.022h0.013
			h0.012h0.032h0.017H20.5h0.032h0.011h0.053l0,0h0.056l0,0h0.058h0.005h0.046h0.022h0.036h0.036h0.018h0.05h0.015h0.039h0.043
			h0.005h0.047h0.039h0.013h0.046h0.035h0.012h0.043h0.043l0,0h0.043h0.04h0.019h0.021h0.035h0.04h0.007h0.024h0.038h0.028h0.02
			h0.01h0.031h0.022h0.026h0.026h0.002h0.014h0.021h0.018h0.014h0.011h0.014h0.012h0.002h0.009l0,0l0,0h0.003h5.196
			c1.481,0,1.481,3.715,2.965,3.715h14.095c0-0.82,0.666-1.487,1.484-1.487h1.485c0.819,0,1.483,0.667,1.483,1.487h2.229
			c2.045,0,3.707,1.658,3.707,3.707v22.258c0,2.047-1.662,3.709-3.707,3.709h-37.1c-2.05,0.002-3.709-1.662-3.709-3.709V22.77
			C9.982,20.721,11.642,19.062,13.691,19.062L13.691,19.062z M39.658,22.77c-6.145,0-11.127,4.984-11.127,11.126
			c0,6.148,4.983,11.131,11.127,11.131c6.148,0,11.133-4.981,11.133-11.131C50.791,27.754,45.807,22.77,39.658,22.77L39.658,22.77z
			 M18.883,26.479h4.454c0.822,0,1.487-0.663,1.487-1.485v-0.737c0-0.821-0.665-1.486-1.487-1.486h-4.454
			c-0.816,0-1.481,0.665-1.481,1.486v0.737C17.401,25.815,18.066,26.479,18.883,26.479z"/>
		<path display="none" fill="#DDDFDB" d="M39.658,25.736c-4.504,0-8.157,3.655-8.157,8.161c0,4.51,3.653,8.164,8.157,8.164
			c4.508,0,8.162-3.654,8.162-8.164C47.82,29.392,44.166,25.736,39.658,25.736L39.658,25.736z"/>
	</g>
</g>
<path id="audio-6-icon_14_" display="none" fill="#DDDFDB" d="M17.718,23.064h5.017c-2.095,4.554-2.095,13.519,0,18.07h-5.017
	c-2.565,0-3.738-1.565-4.331-4.02c-0.726-3.015-0.756-6.753-0.048-9.801C13.918,24.836,15.007,23.064,17.718,23.064z M51.654,32.051
	c0.007,12.59-4.928,20.166-9.598,18.598c-1.211-0.407-14.996-8.743-14.996-8.743c-3.123-3.483-3.123-16.127,0-19.609
	c0,0,14.363-8.583,14.97-8.828C46.249,11.763,51.645,19.452,51.654,32.051z M45.797,20.567c-1.654-3.55-4.152-3.491-5.766,0.002
	c-0.928,1.991-1.563,4.388-1.9,6.945h0.826c2.492,0,4.503,2.018,4.503,4.507c0,2.487-2.011,4.51-4.503,4.51h-0.809
	c0.345,2.508,0.97,4.93,1.895,7.05c1.548,3.558,4.242,3.498,5.764-0.006C48.854,36.559,48.581,26.565,45.797,20.567z"/>
<path display="none" fill="#DDDFDB" d="M48,35.607l-8.495-12.883l-4.948,7.031l-2.688-2.771l-3.918,4.45
	c0.513,1.136,0.921,2.544,1.165,4.171H48V35.607z"/>
<circle display="none" fill="#DDDFDB" cx="27.346" cy="22.63" r="2.986"/>
<path display="none" fill="#DDDFDB" d="M58.732,14.289H13.987v17.719c0.299-0.179,1.7-1.017,3.289-1.961V17.579h38.167v19.455
	H29.275c0.053,0.618,0.086,1.259,0.088,1.932c0,0.466-0.013,0.916-0.035,1.357h29.404V14.289z"/>
<path display="none" fill="#DDDFDB" d="M8.557,33.805c-1.556,0-2.182,1.019-2.515,2.439c-0.406,1.752-0.389,3.898,0.028,5.629
	c0.34,1.409,1.013,2.311,2.487,2.311h2.881c-1.203-2.615-1.203-7.763,0-10.379H8.557z"/>
<path id="audio-6-icon_13_" display="none" fill="#DDDFDB" d="M8.557,33.838h2.881c-1.203,2.616-1.203,7.764,0,10.377H8.557
	c-1.474,0-2.146-0.898-2.487-2.309c-0.417-1.73-0.434-3.877-0.028-5.629C6.375,34.855,7.001,33.838,8.557,33.838z M28.045,38.999
	c0.005,7.228-2.831,11.58-5.512,10.679c-0.695-0.232-8.611-5.021-8.611-5.021c-1.794-2.001-1.794-9.263,0-11.261
	c0,0,8.247-4.931,8.597-5.069C24.941,27.349,28.04,31.765,28.045,38.999z M24.682,32.404c-0.951-2.039-2.384-2.004-3.312,0.001
	c-0.534,1.144-0.898,2.52-1.091,3.987h0.473c1.432,0,2.587,1.159,2.587,2.59c0,1.427-1.155,2.588-2.587,2.588h-0.463
	c0.197,1.44,0.557,2.832,1.087,4.049c0.89,2.045,2.436,2.009,3.31-0.003C26.438,41.587,26.28,35.85,24.682,32.404z"/>
<image display="none" overflow="visible" opacity="0.9" enable-background="new    " width="246" height="150" xlink:href="27F68589.png"  transform="matrix(0.2322 0 0 0.232 3.8994 14.7988)">
</image>
<path display="none" fill="#ED352A" d="M56.396,19.299l-11.92,8.208v9.302l11.92,8.209V19.299z M36.35,19.299H13.323
	c-2.718,0-4.924,2.203-4.924,4.924V40.09c0,2.723,2.206,4.928,4.924,4.928h23.024c2.715,0,4.922-2.203,4.922-4.928V24.224
	C41.27,21.502,39.062,19.299,36.35,19.299z M34.952,29.517H14.719v-3.551h20.233V29.517z"/>
<image display="none" overflow="visible" opacity="0.9" enable-background="new    " width="188" height="188" xlink:href="27F6858B.png"  transform="matrix(0.2362 0 0 0.2311 10.0312 10.4424)">
</image>
<path display="none" fill="#ED352A" d="M18.979,23.881h4.561c-1.904,4.139-1.904,12.289,0,16.428h-4.561
	c-2.333,0-3.398-1.424-3.938-3.654c-0.66-2.741-0.688-6.139-0.043-8.91C15.524,25.491,16.515,23.881,18.979,23.881z M49.83,32.05
	c0.007,11.444-4.48,18.332-8.725,16.906c-1.102-0.371-13.632-7.949-13.632-7.949c-2.839-3.167-2.839-14.66,0-17.827
	c0,0,13.058-7.803,13.609-8.025C44.917,13.606,49.82,20.597,49.83,32.05z M44.506,21.61c-1.505-3.227-3.775-3.173-5.242,0.002
	c-0.844,1.811-1.421,3.989-1.728,6.314h0.751c2.266,0,4.094,1.834,4.094,4.097c0,2.261-1.828,4.1-4.094,4.1h-0.734
	c0.312,2.279,0.881,4.482,1.723,6.409c1.408,3.235,3.855,3.18,5.238-0.005C47.285,36.146,47.036,27.063,44.506,21.61z"/>
<image display="none" overflow="visible" opacity="0.9" enable-background="new    " width="213" height="167" xlink:href="27F6858E.png"  transform="matrix(0.2332 0 0 0.2357 7.4468 12.3662)">
</image>
<path display="none" fill="#ED352A" d="M15.318,20.242h2.023c1.35,0,1.35-3.376,2.696-3.376h1.352h0.003H21.4h0.02h0.011h0.011
	h0.029h0.016h0.021h0.029h0.01h0.048l0,0h0.05l0,0h0.053h0.005h0.042h0.021h0.033h0.033h0.016h0.046h0.014h0.036h0.039h0.004h0.042
	h0.036h0.011h0.042h0.031h0.011h0.039h0.039l0,0h0.039h0.036h0.017h0.02h0.032h0.036h0.006h0.022h0.034h0.026h0.019h0.009h0.028
	h0.021h0.023h0.024h0.002h0.012h0.02h0.016h0.013h0.011h0.013h0.011h0.002h0.008l0,0l0,0h0.003h4.724
	c1.347,0,1.347,3.376,2.695,3.376h12.814c0-0.745,0.605-1.352,1.35-1.352h1.35c0.746,0,1.35,0.606,1.35,1.352h2.024
	c1.859,0,3.37,1.508,3.37,3.37v20.234c0,1.861-1.511,3.372-3.37,3.372h-33.73c-1.863,0.001-3.372-1.511-3.372-3.372V23.612
	C11.946,21.75,13.455,20.242,15.318,20.242L15.318,20.242z M38.924,23.612c-5.586,0-10.116,4.531-10.116,10.117
	c0,5.588,4.53,10.119,10.116,10.119c5.59,0,10.121-4.529,10.121-10.119C49.045,28.144,44.514,23.612,38.924,23.612L38.924,23.612z
	 M20.038,26.984h4.049c0.747,0,1.351-0.603,1.351-1.35v-0.67c0-0.747-0.604-1.352-1.351-1.352h-4.049
	c-0.742,0-1.347,0.605-1.347,1.352v0.67C18.691,26.381,19.296,26.984,20.038,26.984z"/>
<path display="none" fill="#ED352A" d="M38.924,26.31c-4.094,0-7.416,3.323-7.416,7.418c0,4.1,3.321,7.422,7.416,7.422
	c4.098,0,7.42-3.322,7.42-7.422C46.346,29.633,43.021,26.31,38.924,26.31L38.924,26.31z"/>
<g display="none">
	<g display="inline" opacity="0.9">
		<path display="none" fill="#ED1F24" d="M46.508,35.284l-7.723-11.712l-4.498,6.392l-2.445-2.519L28.28,31.49
			c0.466,1.033,0.837,2.314,1.059,3.793L46.508,35.284L46.508,35.284z"/>
		<circle display="none" fill="#ED1F24" cx="27.731" cy="23.486" r="2.715"/>
		<path display="none" fill="#ED1F24" d="M10.65,33.675h2.62c-1.093,2.378-1.093,7.058,0,9.435h-2.62c-1.34,0-1.951-0.818-2.261-2.1
			c-0.379-1.574-0.395-3.525-0.025-5.117C8.667,34.6,9.236,33.675,10.65,33.675z M28.367,38.366
			c0.005,6.571-2.573,10.526-5.011,9.708c-0.631-0.213-7.828-4.563-7.828-4.563c-1.631-1.819-1.631-8.42,0-10.237
			c0,0,7.498-4.481,7.815-4.608C25.545,27.775,28.362,31.79,28.367,38.366z M25.31,32.371c-0.864-1.854-2.167-1.822-3.01,0.001
			c-0.486,1.04-0.816,2.291-0.992,3.625h0.43c1.302,0,2.352,1.054,2.352,2.354c0,1.297-1.05,2.354-2.352,2.354h-0.421
			c0.179,1.311,0.506,2.574,0.988,3.681c0.809,1.858,2.215,1.826,3.008-0.003C26.906,40.719,26.763,35.503,25.31,32.371z"/>
	</g>
	<g display="inline">
		<g>
			<path display="none" fill="#ED352A" d="M46.508,35.284l-7.723-11.712l-4.498,6.392l-2.445-2.519L28.28,31.49
				c0.466,1.033,0.837,2.314,1.059,3.793L46.508,35.284L46.508,35.284z"/>
			<circle display="none" fill="#ED352A" cx="27.731" cy="23.486" r="2.715"/>
			<g display="none">
				<path display="inline" fill="#ED352A" d="M56.266,15.903H15.587V32.01c0.272-0.162,1.546-0.924,2.99-1.782V18.894h34.698V36.58
					h-23.79c0.048,0.562,0.078,1.145,0.08,1.756c0,0.422-0.012,0.833-0.032,1.234h26.731V15.903z"/>
				<path display="inline" fill="#ED352A" d="M10.65,33.645c-1.414,0-1.983,0.926-2.286,2.217c-0.369,1.594-0.354,3.545,0.025,5.117
					c0.31,1.282,0.921,2.101,2.261,2.101h2.62c-1.093-2.377-1.093-7.056,0-9.435H10.65z"/>
			</g>
			<path display="none" fill="#ED352A" d="M10.65,33.675h2.62c-1.093,2.378-1.093,7.058,0,9.435h-2.62
				c-1.34,0-1.951-0.818-2.261-2.1c-0.379-1.574-0.395-3.525-0.025-5.117C8.667,34.6,9.236,33.675,10.65,33.675z M28.367,38.366
				c0.005,6.571-2.573,10.526-5.011,9.708c-0.631-0.213-7.828-4.563-7.828-4.563c-1.631-1.819-1.631-8.42,0-10.237
				c0,0,7.498-4.481,7.815-4.608C25.545,27.775,28.362,31.79,28.367,38.366z M25.31,32.371c-0.864-1.854-2.167-1.822-3.01,0.001
				c-0.486,1.04-0.816,2.291-0.992,3.625h0.43c1.302,0,2.352,1.054,2.352,2.354c0,1.297-1.05,2.354-2.352,2.354h-0.421
				c0.179,1.311,0.506,2.574,0.988,3.681c0.809,1.858,2.215,1.826,3.008-0.003C26.906,40.719,26.763,35.503,25.31,32.371z"/>
		</g>
	</g>
</g>
<g display="none">
	<g display="inline" opacity="0.9">
		<path display="none" fill="#ED1F24" d="M46.508,35.284l-7.723-11.712l-4.498,6.392l-2.445-2.519L28.28,31.49
			c0.466,1.033,0.837,2.314,1.059,3.793L46.508,35.284L46.508,35.284z"/>
		<circle display="none" fill="#ED1F24" cx="27.731" cy="23.486" r="2.715"/>
		<path display="none" fill="#ED1F24" d="M10.65,33.675h2.62c-1.093,2.378-1.093,7.058,0,9.435h-2.62c-1.34,0-1.951-0.818-2.261-2.1
			c-0.379-1.574-0.395-3.525-0.025-5.117C8.667,34.6,9.236,33.675,10.65,33.675z M28.367,38.366
			c0.005,6.571-2.573,10.526-5.011,9.708c-0.631-0.213-7.828-4.563-7.828-4.563c-1.631-1.819-1.631-8.42,0-10.237
			c0,0,7.498-4.481,7.815-4.608C25.545,27.775,28.362,31.79,28.367,38.366z M25.31,32.371c-0.864-1.854-2.167-1.822-3.01,0.001
			c-0.486,1.04-0.816,2.291-0.992,3.625h0.43c1.302,0,2.352,1.054,2.352,2.354c0,1.297-1.05,2.354-2.352,2.354h-0.421
			c0.179,1.311,0.506,2.574,0.988,3.681c0.809,1.858,2.215,1.826,3.008-0.003C26.906,40.719,26.763,35.503,25.31,32.371z"/>
	</g>
	<g display="inline">
		<g>
			<path display="none" fill="#ED352A" d="M46.508,35.284l-7.723-11.712l-4.498,6.392l-2.445-2.519L28.28,31.49
				c0.466,1.033,0.837,2.314,1.059,3.793L46.508,35.284L46.508,35.284z"/>
			<circle display="none" fill="#ED352A" cx="27.731" cy="23.486" r="2.715"/>
			<g display="none">
				<path display="inline" fill="#ED352A" d="M56.266,15.903H15.587V32.01c0.272-0.162,1.546-0.924,2.99-1.782V18.894h34.698V36.58
					h-23.79c0.048,0.562,0.078,1.145,0.08,1.756c0,0.422-0.012,0.833-0.032,1.234h26.731V15.903z"/>
				<path display="inline" fill="#ED352A" d="M10.65,33.645c-1.414,0-1.983,0.926-2.286,2.217c-0.369,1.594-0.354,3.545,0.025,5.117
					c0.31,1.282,0.921,2.101,2.261,2.101h2.62c-1.093-2.377-1.093-7.056,0-9.435H10.65z"/>
			</g>
			<path display="none" fill="#ED352A" d="M10.65,33.675h2.62c-1.093,2.378-1.093,7.058,0,9.435h-2.62
				c-1.34,0-1.951-0.818-2.261-2.1c-0.379-1.574-0.395-3.525-0.025-5.117C8.667,34.6,9.236,33.675,10.65,33.675z M28.367,38.366
				c0.005,6.571-2.573,10.526-5.011,9.708c-0.631-0.213-7.828-4.563-7.828-4.563c-1.631-1.819-1.631-8.42,0-10.237
				c0,0,7.498-4.481,7.815-4.608C25.545,27.775,28.362,31.79,28.367,38.366z M25.31,32.371c-0.864-1.854-2.167-1.822-3.01,0.001
				c-0.486,1.04-0.816,2.291-0.992,3.625h0.43c1.302,0,2.352,1.054,2.352,2.354c0,1.297-1.05,2.354-2.352,2.354h-0.421
				c0.179,1.311,0.506,2.574,0.988,3.681c0.809,1.858,2.215,1.826,3.008-0.003C26.906,40.719,26.763,35.503,25.31,32.371z"/>
		</g>
	</g>
</g>
<g display="none">
	<g display="inline">
		<g>
			<path display="none" fill="#DDDFDB" d="M10.017,43.514h30.156v-23.97H10.017V43.514z M23.548,33.23l4.258-6.039l6.592,9.98H15.73
				l5.504-6.319L23.548,33.23z M18.051,25.885c1.418,0,2.569,1.147,2.569,2.564c0,1.416-1.15,2.565-2.569,2.565
				c-1.417,0-2.569-1.149-2.569-2.565C15.482,27.032,16.634,25.885,18.051,25.885z"/>
			<path display="none" fill="#DDDFDB" d="M51.284,19.544l-3.134,2.144c2.166,2.117,3.406,5.242,3.406,8.604v0.003
				c0,3.361-1.24,6.485-3.406,8.604l3.134,2.144c2.562-2.788,4.015-6.647,4.015-10.746v-0.003
				C55.298,26.193,53.846,22.333,51.284,19.544z"/>
			<path display="none" fill="#DDDFDB" d="M48.15,30.292c0-2.532-0.758-4.941-2.123-6.867l-3.129,2.057
				c0.97,1.312,1.509,3.007,1.509,4.811v0.002c0,1.804-0.54,3.5-1.509,4.811l3.129,2.058c1.365-1.927,2.123-4.336,2.123-6.867
				V30.292z"/>
		</g>
	</g>
	<defs>
		<filter id="Adobe_OpacityMaskFilter" filterUnits="userSpaceOnUse" x="10.017" y="19.544" width="45.282" height="23.97">
			<feColorMatrix  type="matrix" values="1 0 0 0 0  0 1 0 0 0  0 0 1 0 0  0 0 0 1 0"/>
		</filter>
	</defs>
	<mask maskUnits="userSpaceOnUse" x="10.017" y="19.544" width="45.282" height="23.97" id="SVGID_3_" display="inline">
		<g filter="url(#Adobe_OpacityMaskFilter)">
			
				<image overflow="visible" enable-background="new    " width="208" height="121" xlink:href="27F6858F.jpeg"  transform="matrix(0.2377 0 0 0.2321 8.0171 17.5439)">
			</image>
		</g>
	</mask>
	<g display="inline" opacity="0.75" mask="url(#SVGID_3_)">
		<g>
			<path display="none" fill="#ABABAB" d="M10.017,43.514h30.156v-23.97H10.017V43.514z M23.548,33.23l4.258-6.039l6.592,9.98H15.73
				l5.504-6.319L23.548,33.23z M18.051,25.885c1.418,0,2.569,1.147,2.569,2.564c0,1.416-1.15,2.565-2.569,2.565
				c-1.417,0-2.569-1.149-2.569-2.565C15.482,27.032,16.634,25.885,18.051,25.885z"/>
			<path display="none" fill="#ABABAB" d="M51.284,19.544l-3.134,2.144c2.166,2.117,3.406,5.242,3.406,8.604v0.003
				c0,3.361-1.24,6.485-3.406,8.604l3.134,2.144c2.562-2.788,4.015-6.647,4.015-10.746v-0.003
				C55.298,26.193,53.846,22.333,51.284,19.544z"/>
			<path display="none" fill="#ABABAB" d="M48.15,30.292c0-2.532-0.758-4.941-2.123-6.867l-3.129,2.057
				c0.97,1.312,1.509,3.007,1.509,4.811v0.002c0,1.804-0.54,3.5-1.509,4.811l3.129,2.058c1.365-1.927,2.123-4.336,2.123-6.867
				V30.292z"/>
		</g>
	</g>
</g>
<g display="none">
	<g display="inline" opacity="0.45">
		<circle display="none" cx="19.348" cy="28.806" r="2.332"/>
		<polygon display="none" points="34.209,36.736 28.216,27.663 24.345,33.152 22.242,30.991 17.238,36.736 		"/>
		<path display="none" d="M57.542,1.604H7.71c-2.75,0-5,2.25-5,5v50c0,2.75,2.25,5,5,5h49.832c2.75,0,5-2.25,5-5v-50
			C62.542,3.854,60.292,1.604,57.542,1.604z M39.458,42.5H12.044V20.71h27.415L39.458,42.5L39.458,42.5z M41.936,34.855
			c0.881-1.191,1.373-2.733,1.373-4.374V30.48c0-1.64-0.492-3.181-1.373-4.373l2.846-1.869c1.24,1.75,1.929,3.94,1.929,6.242v0.002
			c0,2.302-0.688,4.493-1.929,6.243L41.936,34.855z M53.209,30.483c0,3.726-1.32,7.234-3.65,9.77l-2.849-1.948
			c1.97-1.926,3.097-4.766,3.097-7.821V30.48c0-3.057-1.127-5.897-3.097-7.822l2.849-1.948c2.33,2.535,3.65,6.045,3.65,9.771V30.483
			z"/>
	</g>
	<g display="inline">
		<g>
			<circle display="none" fill="#FFFFFF" cx="19.348" cy="28.734" r="2.332"/>
			<polygon display="none" fill="#FFFFFF" points="34.209,36.664 28.216,27.591 24.345,33.081 22.242,30.919 17.238,36.664 			"/>
			<path display="none" fill="#FFFFFF" d="M57.542,1.533H7.71c-2.75,0-5,2.25-5,5v50c0,2.75,2.25,5,5,5h49.832c2.75,0,5-2.25,5-5
				v-50C62.542,3.783,60.292,1.533,57.542,1.533z M39.458,42.428H12.044v-21.79h27.415L39.458,42.428L39.458,42.428z M41.936,34.783
				c0.881-1.191,1.373-2.733,1.373-4.373v-0.002c0-1.64-0.492-3.181-1.373-4.373l2.846-1.869c1.24,1.75,1.929,3.94,1.929,6.242
				v0.002c0,2.302-0.688,4.492-1.929,6.242L41.936,34.783z M53.209,30.411c0,3.726-1.32,7.233-3.65,9.771l-2.849-1.949
				c1.97-1.926,3.097-4.766,3.097-7.82v-0.003c0-3.057-1.127-5.897-3.097-7.822l2.849-1.948
				C51.889,23.174,53.209,26.684,53.209,30.411L53.209,30.411z"/>
		</g>
	</g>
</g>
<g display="none">
	<g display="inline" opacity="0.9">
		<path display="none" fill="#ED1F24" d="M27.815,78.378h-5.536v-5.662h3.299c1.152,0,2.096-0.942,2.096-2.095V55.016
			c0-1.152-0.944-2.097-2.096-2.097H16.07c-1.154,0-2.096,0.942-2.096,2.097v15.605c0,1.152,0.942,2.095,2.096,2.095h3.299v5.662
			h-5.537c-0.823,0-1.497,0.673-1.497,1.496v2.082h16.976v-2.082C29.311,79.051,28.638,78.378,27.815,78.378z"/>
		<path display="none" fill="#ED1F24" d="M47.458,52.37l-3.104,2.037c3.152,3.026,4.953,7.499,4.953,12.343
			s-1.801,9.314-4.953,12.343l3.104,2.038c3.5-3.686,5.483-8.847,5.485-14.379c0-0.001,0-0.001,0-0.002c0,0,0,0,0-0.001
			C52.941,61.215,50.958,56.052,47.458,52.37z"/>
		<path display="none" fill="#ED1F24" d="M45.375,66.749c0-3.983-1.412-7.735-3.902-10.446l-3.046,2.081
			c2.107,2.06,3.312,5.097,3.312,8.365v0.003c0,3.27-1.204,6.307-3.312,8.365l3.046,2.081c2.491-2.71,3.902-6.462,3.902-10.446
			V66.749z"/>
		<path display="none" fill="#ED1F24" d="M32.693,62.074c0.941,1.273,1.467,2.922,1.467,4.676v0.001
			c0,1.754-0.525,3.401-1.467,4.676l3.043,2.001c1.326-1.871,2.062-4.214,2.062-6.677V66.75c0-2.462-0.737-4.807-2.062-6.675
			L32.693,62.074z"/>
		<path display="none" fill="#ED1F24" d="M27.815,78.378h-5.536v-5.662h3.299c1.152,0,2.096-0.942,2.096-2.095V55.016
			c0-1.152-0.944-2.097-2.096-2.097H16.07c-1.154,0-2.096,0.942-2.096,2.097v15.605c0,1.152,0.942,2.095,2.096,2.095h3.299v5.662
			h-5.537c-0.823,0-1.497,0.673-1.497,1.496v2.082h16.976v-2.082C29.311,79.051,28.638,78.378,27.815,78.378z"/>
		<path display="none" fill="#ED1F24" d="M47.458,52.37l-3.104,2.037c3.152,3.026,4.953,7.499,4.953,12.343
			s-1.801,9.314-4.953,12.343l3.104,2.038c3.5-3.686,5.483-8.847,5.485-14.379c0-0.001,0-0.001,0-0.002c0,0,0,0,0-0.001
			C52.941,61.215,50.958,56.052,47.458,52.37z"/>
		<path display="none" fill="#ED1F24" d="M45.375,66.749c0-3.983-1.412-7.735-3.902-10.446l-3.046,2.081
			c2.107,2.06,3.312,5.097,3.312,8.365v0.003c0,3.27-1.204,6.307-3.312,8.365l3.046,2.081c2.491-2.71,3.902-6.462,3.902-10.446
			V66.749z"/>
		<path display="none" fill="#ED1F24" d="M32.693,62.074c0.941,1.273,1.467,2.922,1.467,4.676v0.001
			c0,1.754-0.525,3.401-1.467,4.676l3.043,2.001c1.326-1.871,2.062-4.214,2.062-6.677V66.75c0-2.462-0.737-4.807-2.062-6.675
			L32.693,62.074z"/>
	</g>
	<g display="inline">
		<g>
			<g>
				<path display="none" fill="#ED352A" d="M27.815,78.378h-5.536v-5.662h3.299c1.152,0,2.096-0.942,2.096-2.095V55.016
					c0-1.152-0.944-2.097-2.096-2.097H16.07c-1.154,0-2.096,0.942-2.096,2.097v15.605c0,1.152,0.942,2.095,2.096,2.095h3.299v5.662
					h-5.537c-0.823,0-1.497,0.673-1.497,1.496v2.082h16.976v-2.082C29.311,79.051,28.638,78.378,27.815,78.378z"/>
				<path display="none" fill="#ED352A" d="M47.458,52.37l-3.104,2.037c3.152,3.026,4.953,7.499,4.953,12.343
					s-1.801,9.314-4.953,12.343l3.104,2.038c3.5-3.686,5.483-8.847,5.485-14.379c0-0.001,0-0.001,0-0.002c0,0,0,0,0-0.001
					C52.941,61.215,50.958,56.052,47.458,52.37z"/>
				<path display="none" fill="#ED352A" d="M45.375,66.749c0-3.983-1.412-7.735-3.902-10.446l-3.046,2.081
					c2.107,2.06,3.312,5.097,3.312,8.365v0.003c0,3.27-1.204,6.307-3.312,8.365l3.046,2.081c2.491-2.71,3.902-6.462,3.902-10.446
					V66.749z"/>
				<path display="none" fill="#ED352A" d="M32.693,62.074c0.941,1.273,1.467,2.922,1.467,4.676v0.001
					c0,1.754-0.525,3.401-1.467,4.676l3.043,2.001c1.326-1.871,2.062-4.214,2.062-6.677V66.75c0-2.462-0.737-4.807-2.062-6.675
					L32.693,62.074z"/>
			</g>
		</g>
		<defs>
			<filter id="Adobe_OpacityMaskFilter_1_" filterUnits="userSpaceOnUse" x="12.335" y="52.37" width="40.608" height="29.586">
				<feColorMatrix  type="matrix" values="1 0 0 0 0  0 1 0 0 0  0 0 1 0 0  0 0 0 1 0"/>
			</filter>
		</defs>
		<mask maskUnits="userSpaceOnUse" x="12.335" y="52.37" width="40.608" height="29.586" id="SVGID_4_">
			<g filter="url(#Adobe_OpacityMaskFilter_1_)">
				
					<image overflow="visible" enable-background="new    " width="192" height="146" xlink:href="27F68589.jpeg"  transform="matrix(0.2325 0 0 0.2301 10.335 50.3691)">
				</image>
			</g>
		</mask>
		<g opacity="0.75" mask="url(#SVGID_4_)">
			<g>
				<path display="none" fill="#ABABAB" d="M27.815,78.378h-5.536v-5.662h3.299c1.152,0,2.096-0.942,2.096-2.095V55.016
					c0-1.152-0.944-2.097-2.096-2.097H16.07c-1.154,0-2.096,0.942-2.096,2.097v15.605c0,1.152,0.942,2.095,2.096,2.095h3.299v5.662
					h-5.537c-0.823,0-1.497,0.673-1.497,1.496v2.082h16.976v-2.082C29.311,79.051,28.638,78.378,27.815,78.378z"/>
				<path display="none" fill="#ABABAB" d="M47.458,52.37l-3.104,2.037c3.152,3.026,4.953,7.499,4.953,12.343
					s-1.801,9.314-4.953,12.343l3.104,2.038c3.5-3.686,5.483-8.847,5.485-14.379c0-0.001,0-0.001,0-0.002c0,0,0,0,0-0.001
					C52.941,61.215,50.958,56.052,47.458,52.37z"/>
				<path display="none" fill="#ABABAB" d="M45.375,66.749c0-3.983-1.412-7.735-3.902-10.446l-3.046,2.081
					c2.107,2.06,3.312,5.097,3.312,8.365v0.003c0,3.27-1.204,6.307-3.312,8.365l3.046,2.081c2.491-2.71,3.902-6.462,3.902-10.446
					V66.749z"/>
				<path display="none" fill="#ABABAB" d="M32.693,62.074c0.941,1.273,1.467,2.922,1.467,4.676v0.001
					c0,1.754-0.525,3.401-1.467,4.676l3.043,2.001c1.326-1.871,2.062-4.214,2.062-6.677V66.75c0-2.462-0.737-4.807-2.062-6.675
					L32.693,62.074z"/>
			</g>
		</g>
	</g>
</g>
<g display="none">
	<g display="inline">
		<path fill="#DDDFDB" d="M51.29,21.061l-8.386,5.938H40.18V21.92c0-1.152-0.943-2.096-2.096-2.096H12.12
			c-1.153,0-2.095,0.943-2.095,2.096v19.777c0,1.152,0.942,2.096,2.095,2.096h25.964c1.152,0,2.096-0.941,2.096-2.096V36.62h2.725
			l8.386,5.937h4V21.061H51.29z M20.943,36.491c0,1.153-0.061,2.229-0.136,2.395c-0.074,0.165-1.298,0.3-2.321,0.3
			c-1.022,0-1.991-0.062-2.156-0.135c-0.166-0.072-0.3-1.406-0.3-2.56v-9.365c0-1.151,0.061-2.23,0.135-2.394
			c0.075-0.165,1.299-0.301,2.321-0.301s1.992,0.062,2.157,0.136c0.166,0.074,0.3,1.407,0.3,2.559V36.491z"/>
	</g>
	<defs>
		<filter id="Adobe_OpacityMaskFilter_2_" filterUnits="userSpaceOnUse" x="10.025" y="19.824" width="45.265" height="23.969">
			<feColorMatrix  type="matrix" values="1 0 0 0 0  0 1 0 0 0  0 0 1 0 0  0 0 0 1 0"/>
		</filter>
	</defs>
	<mask maskUnits="userSpaceOnUse" x="10.025" y="19.824" width="45.265" height="23.969" id="SVGID_5_" display="inline">
		<g filter="url(#Adobe_OpacityMaskFilter_2_)">
			
				<image overflow="visible" enable-background="new    " width="208" height="125" xlink:href="27F6858B.jpeg"  transform="matrix(0.2377 0 0 0.2246 8.0249 17.8242)">
			</image>
		</g>
	</mask>
	<g display="inline" opacity="0.75" mask="url(#SVGID_5_)">
		<path fill="#ABABAB" d="M51.29,21.061l-8.386,5.938H40.18V21.92c0-1.152-0.943-2.096-2.096-2.096H12.12
			c-1.153,0-2.095,0.943-2.095,2.096v19.777c0,1.152,0.942,2.096,2.095,2.096h25.964c1.152,0,2.096-0.941,2.096-2.096V36.62h2.725
			l8.386,5.937h4V21.061H51.29z M20.943,36.491c0,1.153-0.061,2.229-0.136,2.395c-0.074,0.165-1.298,0.3-2.321,0.3
			c-1.022,0-1.991-0.062-2.156-0.135c-0.166-0.072-0.3-1.406-0.3-2.56v-9.365c0-1.151,0.061-2.23,0.135-2.394
			c0.075-0.165,1.299-0.301,2.321-0.301s1.992,0.062,2.157,0.136c0.166,0.074,0.3,1.407,0.3,2.559V36.491z"/>
	</g>
</g>
<g display="none">
	<g display="inline" opacity="0.9">
		<path fill="#ED1F24" d="M51.135,20.902L42.75,26.84h-2.727v-5.078c0-1.152-0.941-2.096-2.094-2.096H11.964
			c-1.153,0-2.095,0.943-2.095,2.096v19.777c0,1.152,0.942,2.096,2.095,2.096h25.964c1.153,0,2.096-0.941,2.096-2.096v-5.077h2.726
			l8.385,5.937h4V20.902H51.135z M20.788,36.333c0,1.153-0.061,2.229-0.136,2.396c-0.074,0.164-1.298,0.299-2.321,0.299
			c-1.022,0-1.991-0.062-2.156-0.135c-0.166-0.072-0.3-1.406-0.3-2.56v-9.365c0-1.151,0.061-2.23,0.135-2.394
			c0.075-0.165,1.299-0.301,2.321-0.301s1.992,0.062,2.157,0.136c0.166,0.074,0.3,1.407,0.3,2.559V36.333z"/>
	</g>
	<g display="inline">
		<g>
			<path fill="#ED352A" d="M51.135,20.902L42.75,26.84h-2.727v-5.078c0-1.152-0.941-2.096-2.094-2.096H11.964
				c-1.153,0-2.095,0.943-2.095,2.096v19.777c0,1.152,0.942,2.096,2.095,2.096h25.964c1.153,0,2.096-0.941,2.096-2.096v-5.077h2.726
				l8.385,5.937h4V20.902H51.135z M20.788,36.333c0,1.153-0.061,2.229-0.136,2.396c-0.074,0.164-1.298,0.299-2.321,0.299
				c-1.022,0-1.991-0.062-2.156-0.135c-0.166-0.072-0.3-1.406-0.3-2.56v-9.365c0-1.151,0.061-2.23,0.135-2.394
				c0.075-0.165,1.299-0.301,2.321-0.301s1.992,0.062,2.157,0.136c0.166,0.074,0.3,1.407,0.3,2.559V36.333z"/>
		</g>
	</g>
</g>
<g display="none">
	<g display="inline" opacity="0.9">
		<path display="none" fill="#ED1F24" d="M10.017,43.514h30.156v-23.97H10.017V43.514z M23.548,33.23l4.258-6.039l6.592,9.98H15.73
			l5.504-6.319L23.548,33.23z M18.051,25.885c1.418,0,2.569,1.147,2.569,2.564c0,1.416-1.15,2.565-2.569,2.565
			c-1.417,0-2.569-1.149-2.569-2.565C15.482,27.032,16.634,25.885,18.051,25.885z"/>
		<path display="none" fill="#ED1F24" d="M51.284,19.544l-3.134,2.144c2.166,2.117,3.406,5.242,3.406,8.604v0.003
			c0,3.361-1.24,6.485-3.406,8.604l3.134,2.144c2.562-2.788,4.015-6.647,4.015-10.746v-0.003
			C55.298,26.193,53.846,22.333,51.284,19.544z"/>
		<path display="none" fill="#ED1F24" d="M48.15,30.292c0-2.532-0.758-4.941-2.123-6.867l-3.129,2.057
			c0.97,1.312,1.509,3.007,1.509,4.811v0.002c0,1.804-0.54,3.5-1.509,4.811l3.129,2.058c1.365-1.927,2.123-4.336,2.123-6.867V30.292
			z"/>
	</g>
	<g display="inline">
		<g>
			<path display="none" fill="#ED352A" d="M10.017,43.514h30.156v-23.97H10.017V43.514z M23.548,33.23l4.258-6.039l6.592,9.98H15.73
				l5.504-6.319L23.548,33.23z M18.051,25.885c1.418,0,2.569,1.147,2.569,2.564c0,1.416-1.15,2.565-2.569,2.565
				c-1.417,0-2.569-1.149-2.569-2.565C15.482,27.032,16.634,25.885,18.051,25.885z"/>
			<path display="none" fill="#ED352A" d="M51.284,19.544l-3.134,2.144c2.166,2.117,3.406,5.242,3.406,8.604v0.003
				c0,3.361-1.24,6.485-3.406,8.604l3.134,2.144c2.562-2.788,4.015-6.647,4.015-10.746v-0.003
				C55.298,26.193,53.846,22.333,51.284,19.544z"/>
			<path display="none" fill="#ED352A" d="M48.15,30.292c0-2.532-0.758-4.941-2.123-6.867l-3.129,2.057
				c0.97,1.312,1.509,3.007,1.509,4.811v0.002c0,1.804-0.54,3.5-1.509,4.811l3.129,2.058c1.365-1.927,2.123-4.336,2.123-6.867
				V30.292z"/>
		</g>
	</g>
</g>
<g display="none">
	<g display="inline" opacity="0.9">
		<path display="none" fill="#ED1F24" d="M27.833,42.744h-5.536v-5.662h3.299c1.152,0,2.096-0.941,2.096-2.096V19.381
			c0-1.152-0.944-2.096-2.096-2.096h-9.508c-1.154,0-2.096,0.943-2.096,2.096v15.605c0,1.152,0.942,2.096,2.096,2.096h3.299v5.662
			H13.85c-0.823,0-1.497,0.673-1.497,1.496v2.082H29.33V44.24C29.33,43.417,28.657,42.744,27.833,42.744z"/>
		<path display="none" fill="#ED1F24" d="M47.477,16.735l-3.104,2.037c3.15,3.026,4.951,7.499,4.952,12.343
			c0,4.844-1.8,9.314-4.952,12.343l3.104,2.038c3.5-3.686,5.484-8.848,5.485-14.379c0-0.001,0-0.001,0-0.002c0,0,0,0,0-0.001
			C52.961,25.581,50.977,20.418,47.477,16.735z"/>
		<path display="none" fill="#ED1F24" d="M45.395,31.114c0-3.984-1.412-7.736-3.903-10.446l-3.046,2.081
			c2.107,2.06,3.312,5.097,3.312,8.365v0.003c0,3.269-1.205,6.306-3.312,8.365l3.046,2.08c2.491-2.709,3.903-6.461,3.903-10.445
			V31.114z"/>
		<path display="none" fill="#ED1F24" d="M32.711,26.439c0.941,1.274,1.467,2.922,1.467,4.676v0.001
			c0,1.754-0.525,3.401-1.467,4.676l3.043,2.001c1.326-1.872,2.062-4.214,2.062-6.677v-0.001c0-2.462-0.737-4.806-2.062-6.675
			L32.711,26.439z"/>
	</g>
	<g display="inline">
		<g>
			<path display="none" fill="#ED352A" d="M27.833,42.744h-5.536v-5.662h3.299c1.152,0,2.096-0.941,2.096-2.096V19.381
				c0-1.152-0.944-2.096-2.096-2.096h-9.508c-1.154,0-2.096,0.943-2.096,2.096v15.605c0,1.152,0.942,2.096,2.096,2.096h3.299v5.662
				H13.85c-0.823,0-1.497,0.673-1.497,1.496v2.082H29.33V44.24C29.33,43.417,28.657,42.744,27.833,42.744z"/>
			<path display="none" fill="#ED352A" d="M47.477,16.735l-3.104,2.037c3.15,3.026,4.951,7.499,4.952,12.343
				c0,4.844-1.8,9.314-4.952,12.343l3.104,2.038c3.5-3.686,5.484-8.848,5.485-14.379c0-0.001,0-0.001,0-0.002c0,0,0,0,0-0.001
				C52.961,25.581,50.977,20.418,47.477,16.735z"/>
			<path display="none" fill="#ED352A" d="M45.395,31.114c0-3.984-1.412-7.736-3.903-10.446l-3.046,2.081
				c2.107,2.06,3.312,5.097,3.312,8.365v0.003c0,3.269-1.205,6.306-3.312,8.365l3.046,2.08c2.491-2.709,3.903-6.461,3.903-10.445
				V31.114z"/>
			<path display="none" fill="#ED352A" d="M32.711,26.439c0.941,1.274,1.467,2.922,1.467,4.676v0.001
				c0,1.754-0.525,3.401-1.467,4.676l3.043,2.001c1.326-1.872,2.062-4.214,2.062-6.677v-0.001c0-2.462-0.737-4.806-2.062-6.675
				L32.711,26.439z"/>
		</g>
	</g>
</g>
<g display="none">
	<g display="inline" opacity="0.9">
		<path fill="#ED1F24" d="M50.439,21.261H32.474v-3.249c0-1.152-0.943-2.096-2.095-2.096h-8.595c-1.153,0-2.097,0.943-2.097,2.096
			v3.249h-5.122c-1.153,0-2.096,0.943-2.096,2.096v19.778c0,1.152,0.943,2.096,2.096,2.096h35.875c1.153,0,2.096-0.942,2.096-2.096
			V23.356C52.535,22.204,51.593,21.261,50.439,21.261z M32.502,40.93c-4.243,0-7.683-3.438-7.683-7.684s3.44-7.686,7.683-7.686
			c4.245,0,7.686,3.44,7.686,7.686C40.188,37.49,36.747,40.93,32.502,40.93z"/>
	</g>
	<g display="inline">
		<g>
			<path fill="#ED352A" d="M50.439,21.261H32.474v-3.249c0-1.152-0.943-2.096-2.095-2.096h-8.595c-1.153,0-2.097,0.943-2.097,2.096
				v3.249h-5.122c-1.153,0-2.096,0.943-2.096,2.096v19.778c0,1.152,0.943,2.096,2.096,2.096h35.875c1.153,0,2.096-0.942,2.096-2.096
				V23.356C52.535,22.204,51.593,21.261,50.439,21.261z M32.502,40.93c-4.243,0-7.683-3.438-7.683-7.684s3.44-7.686,7.683-7.686
				c4.245,0,7.686,3.44,7.686,7.686C40.188,37.49,36.747,40.93,32.502,40.93z"/>
		</g>
	</g>
</g>
<path display="none" d="M57.895,23.363l-1.607,28.719H8.549l-1.61-28.719H57.895 M62.273,19.221H2.56l2.073,37.003H60.2
	L62.273,19.221L62.273,19.221z"/>
<polygon display="none" points="59.177,16.096 5.653,16.096 5.018,12.658 59.814,12.658 "/>
<polygon display="none" points="55.503,10.144 9.482,10.144 8.847,7.431 56.141,7.431 "/>
<path display="none" d="M51.008,61.316H14.243c-1.823,0-3.042-1.068-3.042-2.661V10.604c0-1.588,1.219-2.657,3.042-2.657h36.766
	c1.821,0,3.046,1.068,3.046,2.657v48.051C54.053,60.248,52.829,61.316,51.008,61.316z M14.915,58.066h35.424V11.196l-35.424-0.003
	V58.066z"/>
<path display="none" d="M51.008,61.938H14.243c-2.159,0-3.669-1.349-3.669-3.282V10.604c0-1.932,1.51-3.284,3.669-3.284h36.766
	c2.159,0,3.671,1.352,3.671,3.284v48.051C54.68,60.589,53.167,61.938,51.008,61.938z M14.243,8.571
	c-1.468,0-2.418,0.799-2.418,2.033v48.051c0,1.237,0.95,2.034,2.418,2.034h36.766c1.472,0,2.418-0.797,2.418-2.034V10.604
	c0-1.234-0.946-2.033-2.418-2.033H14.243z M50.964,58.689H14.291V10.568l36.674,0.003L50.964,58.689L50.964,58.689z M15.54,57.441
	h34.175V11.82L15.54,11.816V57.441z"/>
<path display="none" d="M21.542,17.742c-0.694,0-1.262-0.551-1.262-1.238v-0.288c0-0.683,0.567-1.238,1.262-1.238h1.134
	c0.693,0,1.259,0.555,1.259,1.238v0.288c0,0.687-0.565,1.238-1.259,1.238H21.542z"/>
<path display="none" d="M22.675,15.511c0.397,0,0.721,0.314,0.721,0.706v0.288c0,0.391-0.324,0.71-0.721,0.71h-1.134
	c-0.398,0-0.721-0.319-0.721-0.71v-0.288c0-0.392,0.322-0.706,0.721-0.706H22.675 M22.675,14.45h-1.134
	c-0.994,0-1.8,0.792-1.8,1.767v0.288c0,0.979,0.806,1.766,1.8,1.766h1.134c0.994,0,1.802-0.788,1.802-1.766v-0.288
	C24.477,15.241,23.669,14.45,22.675,14.45L22.675,14.45z"/>
<path display="none" d="M31.878,17.742c-0.697,0-1.256-0.551-1.256-1.238v-0.288c0-0.683,0.559-1.238,1.256-1.238h1.136
	c0.694,0,1.26,0.555,1.26,1.238v0.288c0,0.687-0.565,1.238-1.26,1.238H31.878z"/>
<path display="none" d="M33.016,15.511c0.396,0,0.721,0.314,0.721,0.706v0.288c0,0.391-0.325,0.71-0.721,0.71h-1.137
	c-0.398,0-0.723-0.319-0.723-0.71v-0.288c0-0.392,0.324-0.706,0.723-0.706H33.016 M33.016,14.45h-1.137
	c-0.993,0-1.797,0.792-1.797,1.767v0.288c0,0.979,0.804,1.766,1.797,1.766h1.137c0.996,0,1.797-0.788,1.797-1.766v-0.288
	C34.812,15.241,34.01,14.45,33.016,14.45L33.016,14.45z"/>
<path display="none" d="M42.628,17.742c-0.692,0-1.257-0.551-1.257-1.238v-0.288c0-0.683,0.564-1.238,1.257-1.238h1.136
	c0.696,0,1.26,0.555,1.26,1.238v0.288c0,0.687-0.563,1.238-1.26,1.238H42.628z"/>
<path display="none" d="M43.764,15.511c0.4,0,0.721,0.314,0.721,0.706v0.288c0,0.391-0.32,0.71-0.721,0.71h-1.136
	c-0.396,0-0.717-0.319-0.717-0.71v-0.288c0-0.392,0.323-0.706,0.717-0.706H43.764 M43.764,14.45h-1.136
	c-0.993,0-1.795,0.792-1.795,1.767v0.288c0,0.979,0.802,1.766,1.795,1.766h1.136c0.998,0,1.799-0.788,1.799-1.766v-0.288
	C45.562,15.241,44.762,14.45,43.764,14.45L43.764,14.45z"/>
<path display="none" d="M34.469,15.103l-1.744-0.742c0.531-1.211,0.879-2.52,1.043-4.006c0.409-3.46-0.434-5.863-1.535-6.363
	c-0.322,0.406-0.896,1.693-1.381,3.748l-1.856-0.42c1.166-4.923,2.446-5.15,2.866-5.229c0.144-0.027,0.336-0.045,0.562-0.004
	c2.479,0.571,3.77,3.978,3.239,8.479C35.475,12.239,35.087,13.725,34.469,15.103z"/>
<path display="none" d="M45.009,15.103l-1.747-0.742c0.536-1.211,0.879-2.52,1.053-4.006c0.4-3.46-0.444-5.863-1.543-6.363
	c-0.326,0.406-0.893,1.693-1.375,3.748l-1.859-0.42c1.165-4.925,2.441-5.15,2.861-5.229c0.144-0.019,0.338-0.045,0.564-0.004
	c2.471,0.571,3.764,3.978,3.243,8.479C46.012,12.239,45.622,13.722,45.009,15.103z"/>
<path display="none" d="M24.133,15.103l-1.748-0.742c0.537-1.211,0.878-2.52,1.052-4.006c0.407-3.46-0.442-5.863-1.541-6.363
	C21.572,4.397,21,5.685,20.517,7.739L18.661,7.32c1.161-4.923,2.441-5.15,2.865-5.229c0.207-0.037,0.398-0.033,0.578,0.004
	c2.46,0.563,3.751,3.965,3.23,8.471C25.139,12.239,24.743,13.722,24.133,15.103z"/>
<polygon display="none" points="23.013,37.775 27.267,41.73 38.137,41.73 42.375,37.775 58.637,37.775 60.583,8.253 4.146,8.253 
	6.232,37.775 "/>
<polygon display="none" points="62.667,42.668 43.387,42.668 40.354,45.501 39.404,46.385 38.107,46.385 27.238,46.385 
	25.945,46.385 24.998,45.504 21.948,42.668 2.531,42.668 2.522,42.668 4.92,55.747 60.121,55.744 62.677,42.668 "/>
<g>
	<polygon fill="#231F20" points="22.554,37.442 26.808,41.398 37.676,41.398 41.915,37.442 58.177,37.442 60.124,7.92 3.686,7.92 
		5.772,37.442 	"/>
	<polygon fill="#231F20" points="62.207,42.335 42.928,42.335 39.894,45.168 38.944,46.052 37.647,46.052 26.779,46.052 
		25.485,46.052 24.539,45.172 21.488,42.335 2.072,42.335 2.062,42.335 4.46,55.414 59.661,55.41 62.218,42.335 	"/>
</g>
</svg>
