<?xml version="1.0" encoding="utf-8"?>
<!-- Generator: Adobe Illustrator 19.2.0, SVG Export Plug-In . SVG Version: 6.00 Build 0)  -->
<svg version="1.0" id="Layer_1" xmlns="http://www.w3.org/2000/svg" xmlns:xlink="http://www.w3.org/1999/xlink" x="0px" y="0px"
	 width="24px" height="24px" viewBox="0 0 24 24" style="enable-background:new 0 0 24 24;" xml:space="preserve">
<style type="text/css">
	.st0{fill:#FFFFFF;}
</style>
<path class="st0" d="M19.7,11H18V6c0-3.4-2.6-6-6-6S6,2.6,6,6v5H4.3C3.6,11,3,11.6,3,12.3v10.4C3,23.4,3.6,24,4.3,24h15.4
	c0.7,0,1.3-0.6,1.3-1.3V12.3C21,11.6,20.4,11,19.7,11z M8,6c0-2.2,1.8-4,4-4s4,1.8,4,4v5H8V6z M13.2,19.4c0,0-0.3,0.3-1.2,0.3
	c-0.9,0-1.2-0.3-1.2-0.3l0.4-2.4c-0.2-0.2-0.4-0.6-0.4-0.9c0-0.7,0.5-1.2,1.2-1.2s1.2,0.5,1.2,1.2c0,0.4-0.2,0.7-0.4,0.9L13.2,19.4z
	"/>
</svg>
