<?xml version="1.0" encoding="utf-8"?>
<!-- Generator: Adobe Illustrator 15.0.0, SVG Export Plug-In . SVG Version: 6.00 Build 0)  -->
<!DOCTYPE svg PUBLIC "-//W3C//DTD SVG 1.1//EN" "http://www.w3.org/Graphics/SVG/1.1/DTD/svg11.dtd">
<svg version="1.1" id="Layer_1" xmlns="http://www.w3.org/2000/svg" xmlns:xlink="http://www.w3.org/1999/xlink" x="0px" y="0px"
	 width="64px" height="64px" viewBox="0 0 64 64" enable-background="new 0 0 64 64" xml:space="preserve">
<rect x="6.294" y="16" display="none" fill="#E6E7E8" width="32" height="32"/>
<rect x="10.294" y="20" display="none" fill="#E6E7E8" width="24" height="24"/>
<rect display="none" fill="#E6E7E8" width="64.626" height="64"/>
<polygon id="up_button_3_" display="none" fill="#FFFFFF" points="29.057,44 19.556,32.003 29.057,20 23.295,20 13.795,32.003 
	23.295,44 "/>
<path id="user-icon_4_" display="none" fill="#FFFFFF" d="M31.106,38.083c-3.438-0.793-6.637-1.487-5.087-4.409
	c4.716-8.893,1.25-13.647-3.73-13.647c-5.079,0-8.46,4.938-3.731,13.647c1.597,2.939-1.723,3.635-5.086,4.409
	c-3.437,0.792-3.172,2.604-3.172,5.892h23.979C34.277,40.688,34.542,38.875,31.106,38.083z"/>
<path display="none" fill="#FFFFFF" d="M50.223,36.052l-9.654-14.64l-5.623,7.99l-3.056-3.148l-4.452,5.057
	c0.583,1.292,1.047,2.893,1.324,4.741H50.223z"/>
<circle display="none" fill="#FFFFFF" cx="26.751" cy="21.304" r="3.393"/>
<path display="none" fill="#FFFFFF" d="M62.418,11.827H11.571V31.96c0.341-0.203,1.933-1.154,3.737-2.228V15.564h43.374v22.108
	H28.944c0.06,0.704,0.098,1.432,0.1,2.195c0,0.527-0.015,1.042-0.041,1.542h33.415V11.827z"/>
<path display="none" fill="#FFFFFF" d="M5.4,34.002c-1.768,0-2.479,1.157-2.857,2.771c-0.461,1.992-0.442,4.431,0.032,6.396
	c0.387,1.604,1.15,2.625,2.825,2.625h3.275c-1.367-2.971-1.367-8.819,0-11.793L5.4,34.002L5.4,34.002z"/>
<path id="audio-6-icon_10_" display="none" fill="#FFFFFF" d="M5.4,34.041h3.275c-1.367,2.973-1.367,8.82,0,11.792H5.4
	c-1.675,0-2.438-1.022-2.825-2.623c-0.474-1.967-0.493-4.405-0.032-6.396C2.921,35.197,3.632,34.041,5.4,34.041z M27.546,39.904
	c0.006,8.214-3.216,13.16-6.263,12.136c-0.79-0.265-9.786-5.705-9.786-5.705c-2.038-2.274-2.038-10.524,0-12.796
	c0,0,9.372-5.603,9.77-5.761C24.019,26.666,27.54,31.685,27.546,39.904z M23.724,32.411c-1.08-2.317-2.709-2.277-3.763,0.002
	c-0.607,1.299-1.021,2.862-1.24,4.53h0.538c1.627,0,2.939,1.316,2.939,2.941c0,1.622-1.312,2.942-2.939,2.942h-0.526
	c0.224,1.637,0.632,3.217,1.235,4.603c1.011,2.321,2.769,2.281,3.761-0.006C25.72,42.846,25.541,36.326,23.724,32.411z"/>
<path id="audio-6-icon_1_" display="none" fill="#FFFFFF" d="M15.811,21.798h5.701c-2.38,5.174-2.38,15.361,0,20.534h-5.701
	c-2.916,0-4.247-1.779-4.922-4.566c-0.824-3.427-0.858-7.675-0.055-11.139C11.493,23.811,12.731,21.798,15.811,21.798z
	 M54.375,32.01c0.008,14.305-5.602,22.915-10.906,21.133c-1.377-0.463-17.041-9.937-17.041-9.937
	c-3.549-3.958-3.549-18.325,0-22.283c0,0,16.322-9.754,17.011-10.031C48.232,8.956,54.363,17.693,54.375,32.01z M47.719,18.96
	c-1.881-4.034-4.719-3.967-6.553,0.002c-1.055,2.264-1.775,4.986-2.159,7.893h0.938c2.832,0,5.117,2.293,5.117,5.121
	c0,2.826-2.285,5.125-5.117,5.125h-0.918c0.391,2.851,1.102,5.603,2.152,8.01c1.76,4.045,4.818,3.977,6.549-0.006
	C51.193,37.131,50.882,25.776,47.719,18.96z"/>
<g display="none">
	<g display="inline">
		<path display="none" fill="#FFFFFF" d="M11.235,17.25h2.529c1.688,0,1.688-4.221,3.371-4.221h1.689h0.004h0.01h0.025h0.014h0.014
			h0.037h0.02h0.025h0.037h0.012h0.061l0,0h0.062l0,0h0.066h0.006h0.053h0.025h0.041h0.041h0.02h0.058h0.017h0.045h0.049h0.006
			h0.053h0.045h0.014h0.053h0.039h0.014h0.049h0.049l0,0h0.049h0.045H20h0.023h0.041h0.045h0.008h0.027h0.043h0.031h0.023h0.012
			h0.035h0.025h0.029h0.029h0.002h0.016h0.025h0.02h0.016h0.014h0.016h0.014h0.002h0.01l0,0l0,0h0.004h5.904
			c1.684,0,1.684,4.221,3.369,4.221h16.018c0-0.932,0.758-1.689,1.688-1.689h1.688c0.933,0,1.687,0.758,1.687,1.689h2.531
			c2.323,0,4.213,1.885,4.213,4.213v25.293c0,2.326-1.89,4.215-4.213,4.215h-42.16c-2.328,0.002-4.215-1.889-4.215-4.215V21.463
			C7.02,19.135,8.907,17.25,11.235,17.25L11.235,17.25z M40.743,21.463c-6.981,0-12.645,5.664-12.645,12.645
			c0,6.986,5.662,12.648,12.645,12.648c6.985,0,12.649-5.662,12.649-12.648C53.393,27.127,47.729,21.463,40.743,21.463
			L40.743,21.463z M17.135,25.678h5.061c0.934,0,1.689-0.754,1.689-1.688v-0.838c0-0.934-0.756-1.689-1.689-1.689h-5.061
			c-0.928,0-1.684,0.756-1.684,1.689v0.838C15.452,24.924,16.208,25.678,17.135,25.678z"/>
		<path display="none" fill="#FFFFFF" d="M40.743,24.834c-5.117,0-9.27,4.154-9.27,9.273c0,5.125,4.152,9.275,9.27,9.275
			c5.123,0,9.274-4.15,9.274-9.275C50.018,28.988,45.866,24.834,40.743,24.834L40.743,24.834z"/>
	</g>
</g>
<path id="video-camera-5-icon_1_" display="none" fill="#FFFFFF" d="M62.584,16.071l-14.902,10.26v11.627l14.902,10.263V16.071z
	 M37.523,16.071H8.742c-3.398,0-6.155,2.753-6.155,6.155v19.834c0,3.4,2.757,6.16,6.155,6.16h28.781c3.394,0,6.15-2.757,6.15-6.16
	V22.227C43.675,18.825,40.917,16.071,37.523,16.071z M35.777,28.844H10.486v-4.439h25.292V28.844L35.777,28.844z"/>
<path display="none" d="M57.895,23.363l-1.606,28.719H8.549l-1.61-28.719H57.895 M62.273,19.221H2.56l2.073,37.003H60.2
	L62.273,19.221L62.273,19.221z"/>
<polygon display="none" points="59.177,16.096 5.653,16.096 5.018,12.658 59.814,12.658 "/>
<polygon display="none" points="55.503,10.144 9.482,10.144 8.847,7.431 56.141,7.431 "/>
<path id="audio-6-icon_2_" fill="#FFFFFF" d="M15.352,21.465h5.701c-2.38,5.174-2.38,15.361,0,20.535h-5.701
	c-2.916,0-4.247-1.779-4.922-4.568c-0.824-3.426-0.858-7.673-0.055-11.137C11.033,23.478,12.271,21.465,15.352,21.465z
	 M53.916,31.677c0.008,14.306-5.602,22.915-10.906,21.134c-1.377-0.465-17.041-9.938-17.041-9.938
	c-3.549-3.957-3.549-18.325,0-22.283c0,0,16.322-9.754,17.012-10.031C47.773,8.623,53.904,17.36,53.916,31.677z M47.26,18.627
	c-1.881-4.034-4.719-3.967-6.553,0.002c-1.055,2.264-1.775,4.986-2.159,7.893h0.938c2.832,0,5.117,2.293,5.117,5.121
	c0,2.826-2.285,5.125-5.117,5.125h-0.918c0.391,2.853,1.102,5.604,2.152,8.012c1.76,4.044,4.819,3.976,6.549-0.006
	C50.734,36.799,50.423,25.443,47.26,18.627z"/>
<g>
	<path fill="#FFFFFF" d="M61.959,56.667c0,2.75-2.25,5-5,5H7.127c-2.75,0-5-2.25-5-5v-50c0-2.75,2.25-5,5-5h49.832
		c2.75,0,5,2.25,5,5V56.667z"/>
</g>
<path id="audio-6-icon_8_" fill="#DDDFDA" d="M18.585,23.548h4.561c-1.904,4.139-1.904,12.289,0,16.427h-4.561
	c-2.333,0-3.398-1.423-3.938-3.653c-0.66-2.741-0.687-6.139-0.043-8.91C15.131,25.158,16.121,23.548,18.585,23.548z M49.438,31.717
	c0.006,11.444-4.48,18.332-8.726,16.906c-1.102-0.371-13.633-7.949-13.633-7.949c-2.839-3.166-2.839-14.66,0-17.826
	c0,0,13.058-7.803,13.609-8.025C44.523,13.273,49.428,20.264,49.438,31.717z M44.112,21.277c-1.505-3.227-3.775-3.173-5.242,0.002
	c-0.844,1.811-1.421,3.989-1.728,6.314h0.751c2.266,0,4.094,1.834,4.094,4.097c0,2.261-1.828,4.1-4.094,4.1h-0.734
	c0.312,2.28,0.881,4.481,1.722,6.409c1.408,3.234,3.856,3.18,5.239-0.006C46.892,35.814,46.643,26.73,44.112,21.277z"/>
</svg>
