<?xml version="1.0" encoding="utf-8"?>
<!-- Generator: Adobe Illustrator 15.0.0, SVG Export Plug-In . SVG Version: 6.00 Build 0)  -->
<!DOCTYPE svg PUBLIC "-//W3C//DTD SVG 1.1//EN" "http://www.w3.org/Graphics/SVG/1.1/DTD/svg11.dtd" [
	<!ENTITY ns_extend "http://ns.adobe.com/Extensibility/1.0/">
	<!ENTITY ns_ai "http://ns.adobe.com/AdobeIllustrator/10.0/">
	<!ENTITY ns_graphs "http://ns.adobe.com/Graphs/1.0/">
	<!ENTITY ns_vars "http://ns.adobe.com/Variables/1.0/">
	<!ENTITY ns_imrep "http://ns.adobe.com/ImageReplacement/1.0/">
	<!ENTITY ns_sfw "http://ns.adobe.com/SaveForWeb/1.0/">
	<!ENTITY ns_custom "http://ns.adobe.com/GenericCustomNamespace/1.0/">
	<!ENTITY ns_adobe_xpath "http://ns.adobe.com/XPath/1.0/">
]>
<svg version="1.1" id="Layer_1" xmlns:x="&ns_extend;" xmlns:i="&ns_ai;" xmlns:graph="&ns_graphs;"
	 xmlns="http://www.w3.org/2000/svg" xmlns:xlink="http://www.w3.org/1999/xlink" x="0px" y="0px" width="55px" height="55px"
	 viewBox="0 0 55 55" enable-background="new 0 0 55 55" xml:space="preserve">
<metadata>
	<sfw  xmlns="&ns_sfw;">
		<slices></slices>
		<sliceSourceBounds  x="212" y="3973" width="55" height="55" bottomLeftOrigin="true"></sliceSourceBounds>
	</sfw>
</metadata>
<g>
	<rect fill="#8F8E85" width="55" height="55"/>
</g>
<g opacity="0.8">
	<path fill="#FFFFFF" d="M40.691,18.873H39.1c0-0.586-0.477-1.062-1.066-1.062h-1.061c-0.586,0-1.062,0.477-1.062,1.062H25.821
		c-1.063,0-1.063-2.658-2.127-2.658h-3.719h-0.002h-0.007h-0.002h-0.008h-0.009h-0.01h-0.011h-0.011h-0.018h-0.009h-0.005h-0.017
		h-0.02H19.83h-0.021h-0.006h-0.015h-0.022h-0.023h-0.017h-0.007h-0.027h-0.025h-0.017h-0.014h-0.027h-0.03h-0.001h-0.031h-0.031
		h-0.008h-0.022H19.45h-0.011h-0.023h-0.032h-0.007h-0.03h-0.028h-0.01h-0.038h-0.01h-0.025H19.21h-0.016h-0.032h-0.006h-0.043
		h-0.04H19.07h-0.032H19.03h-0.024h-0.018h-0.012h-0.023h-0.01h-0.008h-0.016h-0.008h-0.001h-1.062
		c-1.065,0-1.065,2.658-2.125,2.658h-1.594c-1.465,0-2.656,1.189-2.656,2.655v14.599c0,1.467,1.191,2.658,2.656,2.658h26.562
		c1.467,0,2.65-1.191,2.65-2.658V21.531C43.342,20.064,42.158,18.873,40.691,18.873z M22.097,22.454
		c0,0.587-0.476,1.062-1.063,1.062h-3.185c-0.588,0-1.066-0.475-1.065-1.062v-0.532c0-0.587,0.477-1.06,1.065-1.06h3.185
		c0.587,0,1.063,0.474,1.063,1.06V22.454z M32.721,35.996c-3.959,0-7.171-3.211-7.171-7.17c0-3.957,3.212-7.167,7.171-7.167
		c3.961,0,7.17,3.21,7.17,7.167C39.891,32.785,36.682,35.998,32.721,35.996z"/>
	<circle fill="#FFFFFF" cx="32.721" cy="28.828" r="5.258"/>
</g>
</svg>
