<?xml version="1.0" encoding="utf-8"?>
<!-- Generator: Adobe Illustrator 15.0.0, SVG Export Plug-In . SVG Version: 6.00 Build 0)  -->
<!DOCTYPE svg PUBLIC "-//W3C//DTD SVG 1.1//EN" "http://www.w3.org/Graphics/SVG/1.1/DTD/svg11.dtd" [
	<!ENTITY ns_extend "http://ns.adobe.com/Extensibility/1.0/">
	<!ENTITY ns_ai "http://ns.adobe.com/AdobeIllustrator/10.0/">
	<!ENTITY ns_graphs "http://ns.adobe.com/Graphs/1.0/">
	<!ENTITY ns_vars "http://ns.adobe.com/Variables/1.0/">
	<!ENTITY ns_imrep "http://ns.adobe.com/ImageReplacement/1.0/">
	<!ENTITY ns_sfw "http://ns.adobe.com/SaveForWeb/1.0/">
	<!ENTITY ns_custom "http://ns.adobe.com/GenericCustomNamespace/1.0/">
	<!ENTITY ns_adobe_xpath "http://ns.adobe.com/XPath/1.0/">
]>
<svg version="1.1" id="Layer_1" xmlns:x="&ns_extend;" xmlns:i="&ns_ai;" xmlns:graph="&ns_graphs;"
	 xmlns="http://www.w3.org/2000/svg" xmlns:xlink="http://www.w3.org/1999/xlink" x="0px" y="0px" width="48px" height="48px"
	 viewBox="0 0 48 48" enable-background="new 0 0 48 48" xml:space="preserve">
<metadata>
	<sfw  xmlns="&ns_sfw;">
		<slices></slices>
		<sliceSourceBounds  x="375.5" y="376.5" width="48" height="48" bottomLeftOrigin="true"></sliceSourceBounds>
	</sfw>
</metadata>
<rect fill="#DFE0E1" width="9.6" height="9.6"/>
<rect x="38.401" fill="#58595B" width="9.599" height="9.6"/>
<rect x="9.6" fill="#CACCCD" width="9.599" height="9.6"/>
<rect x="19.199" fill="#808080" width="9.6" height="9.6"/>
<rect x="28.799" fill="#DFE0E1" width="9.6" height="9.6"/>
<rect x="38.401" y="9.6" fill="#8C8E91" width="9.599" height="9.601"/>
<rect y="9.6" fill="#6D6E71" width="9.6" height="9.601"/>
<rect x="28.799" y="9.6" fill="#58595B" width="9.6" height="9.601"/>
<rect x="19.199" y="9.6" fill="#CACCCD" width="9.6" height="9.601"/>
<rect x="9.6" y="9.6" fill="#DFE0E1" width="9.599" height="9.601"/>
<rect y="19.201" fill="#58595B" width="9.6" height="9.598"/>
<rect x="38.401" y="19.201" fill="#CACCCD" width="9.599" height="9.598"/>
<rect x="9.6" y="19.201" fill="#CACCCD" width="9.599" height="9.598"/>
<rect x="19.199" y="19.201" fill="#808080" width="9.6" height="9.598"/>
<rect x="28.799" y="19.201" fill="#DFE0E1" width="9.6" height="9.598"/>
<rect y="38.401" fill="#808080" width="9.6" height="9.599"/>
<rect x="38.401" y="38.401" fill="#58595B" width="9.599" height="9.599"/>
<rect x="9.6" y="38.401" fill="#6D6E71" width="9.599" height="9.599"/>
<rect x="19.199" y="38.401" fill="#CACCCD" width="9.6" height="9.599"/>
<rect x="28.799" y="38.401" fill="#DFE0E1" width="9.6" height="9.599"/>
<rect x="38.401" y="28.799" fill="#8C8E91" width="9.599" height="9.603"/>
<rect y="28.799" fill="#CACCCD" width="9.6" height="9.603"/>
<rect x="28.799" y="28.799" fill="#58595B" width="9.6" height="9.603"/>
<rect x="19.199" y="28.799" fill="#CACCCD" width="9.6" height="9.603"/>
<rect x="9.6" y="28.799" fill="#DFE0E1" width="9.599" height="9.603"/>
</svg>
