<?xml version="1.0" encoding="utf-8"?>
<!-- Generator: Adobe Illustrator 15.0.0, SVG Export Plug-In . SVG Version: 6.00 Build 0)  -->
<!DOCTYPE svg PUBLIC "-//W3C//DTD SVG 1.1//EN" "http://www.w3.org/Graphics/SVG/1.1/DTD/svg11.dtd" [
	<!ENTITY ns_extend "http://ns.adobe.com/Extensibility/1.0/">
	<!ENTITY ns_ai "http://ns.adobe.com/AdobeIllustrator/10.0/">
	<!ENTITY ns_graphs "http://ns.adobe.com/Graphs/1.0/">
	<!ENTITY ns_vars "http://ns.adobe.com/Variables/1.0/">
	<!ENTITY ns_imrep "http://ns.adobe.com/ImageReplacement/1.0/">
	<!ENTITY ns_sfw "http://ns.adobe.com/SaveForWeb/1.0/">
	<!ENTITY ns_custom "http://ns.adobe.com/GenericCustomNamespace/1.0/">
	<!ENTITY ns_adobe_xpath "http://ns.adobe.com/XPath/1.0/">
]>
<svg version="1.1" id="Layer_1" xmlns:x="&ns_extend;" xmlns:i="&ns_ai;" xmlns:graph="&ns_graphs;"
	 xmlns="http://www.w3.org/2000/svg" xmlns:xlink="http://www.w3.org/1999/xlink" x="0px" y="0px" width="48px" height="48px"
	 viewBox="0 0 48 48" enable-background="new 0 0 48 48" xml:space="preserve">
<metadata>
	<sfw  xmlns="&ns_sfw;">
		<slices></slices>
		<sliceSourceBounds  y="7.664" x="-0.5" height="33.672" width="48.009" bottomLeftOrigin="true"></sliceSourceBounds>
	</sfw>
</metadata>
<path id="user-icon_1_" fill="#808080" d="M43.762,32.928c-4.598-1.059-8.875-1.988-6.802-5.891
	c6.306-11.891,1.671-18.248-4.989-18.248c-6.791,0-11.312,6.601-4.988,18.248c2.136,3.93-2.305,4.854-6.801,5.891
	c-4.593,1.06-4.24,3.482-4.24,7.879h32.063C48.001,36.407,48.354,33.987,43.762,32.928z"/>
<rect x="21.32" y="7.164" fill="#231F20" width="21.299" height="21.3"/>
<path id="user-14-icon_1_" fill="#58595B" d="M3.383,34.561c3.661-0.844,7.068-1.584,5.417-4.692
	c-5.022-9.472-1.33-14.536,3.972-14.536c3.592,0,6.389,2.314,6.389,6.587c0,11.831-6.748,5.416-6.752,18.917H0.005
	C0.005,37.332-0.276,35.405,3.383,34.561z"/>
</svg>
