<?xml version="1.0" encoding="utf-8"?>
<!-- Generator: Adobe Illustrator 19.2.0, SVG Export Plug-In . SVG Version: 6.00 Build 0)  -->
<svg version="1.0" id="Layer_1" xmlns="http://www.w3.org/2000/svg" xmlns:xlink="http://www.w3.org/1999/xlink" x="0px" y="0px"
	 width="24px" height="24px" viewBox="0 0 24 24" style="enable-background:new 0 0 24 24;" xml:space="preserve">
<style type="text/css">
	.st0{fill:#FFFFFF;}
</style>
<path class="st0" d="M12.6,10.1c-1.9,0.3-3.4,1.8-3.7,3.7c-0.5,3,2.1,5.6,5.2,5.2c1.9-0.3,3.4-1.8,3.7-3.7
	C18.2,12.2,15.6,9.6,12.6,10.1z"/>
<path class="st0" d="M22,6h-2.7l-1.2-2.5C18,3.2,17.7,3,17.4,3h-8C9.1,3,8.8,3.2,8.7,3.5L7.5,6H6V5.6C6,5.3,5.7,5,5.4,5H2.6
	C2.3,5,2,5.3,2,5.6V6H1.8C0.8,6,0,6.8,0,7.8v13.4c0,1,0.8,1.8,1.8,1.8h20.4c1,0,1.8-0.8,1.8-1.8V7.9C23.8,6.8,23,6,22,6z M3.8,9.2
	C3.1,9.2,2.6,8.6,2.6,8s0.6-1.2,1.2-1.2S5,7.4,5,8S4.5,9.2,3.8,9.2z M19.6,16c-0.5,2.4-2.5,4.3-4.8,4.8C10.1,21.9,5.9,17.7,7,13
	c0.5-2.4,2.5-4.3,4.8-4.8C16.6,7.1,20.7,11.2,19.6,16z"/>
</svg>
