<?xml version="1.0" encoding="utf-8"?>
<!-- Generator: Adobe Illustrator 19.2.0, SVG Export Plug-In . SVG Version: 6.00 Build 0)  -->
<svg version="1.0" id="Layer_1" xmlns="http://www.w3.org/2000/svg" xmlns:xlink="http://www.w3.org/1999/xlink" x="0px" y="0px"
	 width="48px" height="26px" viewBox="0 0 48 26" style="enable-background:new 0 0 48 26;" xml:space="preserve">
<style type="text/css">
	.st0{display:none;}
	.st1{display:inline;fill:#231F20;}
	.st2{fill:#FFFFFF;}
</style>
<g id="Layer_1_1_" class="st0">
	<path class="st1" d="M-157.3,379.7l-8.2,5.8h-2.7v-5c0-1.1-0.9-2.1-2.1-2.1h-25.5c-1.1,0-2.1,0.9-2.1,2.1v19.4
		c0,1.1,0.9,2.1,2.1,2.1h25.5c1.1,0,2.1-0.9,2.1-2.1v-5h2.7l8.2,5.8h3.9v-21.1h-3.9V379.7z M-187,394.8c0,1.1-0.1,2.2-0.1,2.4
		c-0.1,0.2-1.3,0.3-2.3,0.3s-2-0.1-2.1-0.1c-0.2-0.1-0.3-1.4-0.3-2.5v-9.2c0-1.1,0.1-2.2,0.1-2.3c0.1-0.2,1.3-0.3,2.3-0.3
		s2,0.1,2.1,0.1c0.2,0.1,0.3,1.4,0.3,2.5C-187,385.6-187,394.8-187,394.8z"/>
</g>
<g id="Layer_2">
	<g>
		<path class="st2" d="M16.1,9.2c-0.3-0.2-0.8,0-0.8,0.4v6.9c0,0.4,0.5,0.6,0.8,0.4l5.6-3.5c0.3-0.2,0.3-0.5,0-0.7L16.1,9.2z"/>
		<path class="st2" d="M44.1,1.8L33.5,8.3c-0.3,0.2-0.7,0-0.7-0.4V4.2c0-1.6-1.3-2.9-2.9-2.9H6.1c-1.6,0-2.9,1.3-2.9,2.9v17.7
			c0,1.6,1.3,2.9,2.9,2.9h23.8c1.6,0,2.9-1.3,2.9-2.9v-3.7c0-0.4,0.4-0.6,0.7-0.4l10.6,6.5c0.3,0.2,0.7,0,0.7-0.4V2
			C44.8,1.8,44.4,1.6,44.1,1.8z M23.3,4.7c0-0.3,0.2-0.5,0.5-0.5h1.3c0.3,0,0.5,0.2,0.5,0.5v0.7c0,0.3-0.2,0.5-0.5,0.5h-1.3
			c-0.3,0-0.5-0.2-0.5-0.5V4.7z M18.9,4.6c0-0.3,0.2-0.5,0.5-0.5h1.3c0.3,0,0.5,0.2,0.5,0.5v0.7c0,0.3-0.2,0.5-0.5,0.5h-1.3
			c-0.3,0-0.5-0.2-0.5-0.5V4.6z M14.5,4.6c0-0.3,0.2-0.5,0.5-0.5h1.3c0.3,0,0.5,0.2,0.5,0.5v0.7c0,0.3-0.2,0.5-0.5,0.5H15
			c-0.3,0-0.5-0.2-0.5-0.5V4.6z M10.1,4.6c0-0.3,0.2-0.5,0.5-0.5h1.3c0.3,0,0.5,0.2,0.5,0.5v0.7c0,0.3-0.2,0.5-0.5,0.5h-1.3
			c-0.3,0-0.5-0.2-0.5-0.5V4.6z M5.7,4.6c0-0.3,0.2-0.5,0.5-0.5h1.3C7.8,4.1,8,4.3,8,4.6v0.7c0,0.3-0.2,0.5-0.5,0.5H6.2
			c-0.3,0-0.5-0.2-0.5-0.5V4.6z M8.1,21.4c0,0.3-0.2,0.5-0.5,0.5H6.3c-0.3,0-0.5-0.2-0.5-0.5v-0.7c0-0.3,0.2-0.5,0.5-0.5h1.3
			c0.3,0,0.5,0.2,0.5,0.5V21.4z M12.5,21.4c0,0.3-0.2,0.5-0.5,0.5h-1.3c-0.3,0-0.5-0.2-0.5-0.5v-0.7c0-0.3,0.2-0.5,0.5-0.5H12
			c0.3,0,0.5,0.2,0.5,0.5V21.4z M16.9,21.4c0,0.3-0.2,0.5-0.5,0.5h-1.3c-0.3,0-0.5-0.2-0.5-0.5v-0.7c0-0.3,0.2-0.5,0.5-0.5h1.3
			c0.3,0,0.5,0.2,0.5,0.5V21.4z M21.3,21.4c0,0.3-0.2,0.5-0.5,0.5h-1.3c-0.3,0-0.5-0.2-0.5-0.5v-0.7c0-0.3,0.2-0.5,0.5-0.5h1.3
			c0.3,0,0.5,0.2,0.5,0.5V21.4z M25.7,21.5c0,0.3-0.2,0.5-0.5,0.5h-1.3c-0.3,0-0.5-0.2-0.5-0.5v-0.7c0-0.3,0.2-0.5,0.5-0.5h1.3
			c0.3,0,0.5,0.2,0.5,0.5V21.5z M30.1,21.5c0,0.3-0.2,0.5-0.5,0.5h-1.3c-0.3,0-0.5-0.2-0.5-0.5v-0.7c0-0.3,0.2-0.5,0.5-0.5h1.3
			c0.3,0,0.5,0.2,0.5,0.5V21.5z M30.1,18.5c0,0.2-0.2,0.4-0.5,0.4H6.2c-0.3,0-0.5-0.2-0.5-0.4V7.7c0-0.2,0.2-0.4,0.5-0.4h23.4
			c0.3,0,0.5,0.2,0.5,0.4V18.5z M30.1,5.4c0,0.3-0.2,0.5-0.5,0.5h-1.3c-0.3,0-0.5-0.2-0.5-0.5V4.7c0-0.3,0.2-0.5,0.5-0.5h1.3
			c0.3,0,0.5,0.2,0.5,0.5V5.4z"/>
	</g>
</g>
</svg>
