<?xml version="1.0" encoding="utf-8"?>
<!-- Generator: Adobe Illustrator 15.0.0, SVG Export Plug-In . SVG Version: 6.00 Build 0)  -->
<!DOCTYPE svg PUBLIC "-//W3C//DTD SVG 1.1//EN" "http://www.w3.org/Graphics/SVG/1.1/DTD/svg11.dtd" [
	<!ENTITY ns_extend "http://ns.adobe.com/Extensibility/1.0/">
	<!ENTITY ns_ai "http://ns.adobe.com/AdobeIllustrator/10.0/">
	<!ENTITY ns_graphs "http://ns.adobe.com/Graphs/1.0/">
	<!ENTITY ns_vars "http://ns.adobe.com/Variables/1.0/">
	<!ENTITY ns_imrep "http://ns.adobe.com/ImageReplacement/1.0/">
	<!ENTITY ns_sfw "http://ns.adobe.com/SaveForWeb/1.0/">
	<!ENTITY ns_custom "http://ns.adobe.com/GenericCustomNamespace/1.0/">
	<!ENTITY ns_adobe_xpath "http://ns.adobe.com/XPath/1.0/">
]>
<svg version="1.1" id="Layer_1" xmlns:x="&ns_extend;" xmlns:i="&ns_ai;" xmlns:graph="&ns_graphs;"
	 xmlns="http://www.w3.org/2000/svg" xmlns:xlink="http://www.w3.org/1999/xlink" x="0px" y="0px" width="426px" height="320px"
	 viewBox="0 0 426 320" enable-background="new 0 0 426 320" xml:space="preserve">
<metadata>
	<sfw  xmlns="&ns_sfw;">
		<slices></slices>
		<sliceSourceBounds  height="320.875" width="534.792" y="239.625" x="-82.292" bottomLeftOrigin="true"></sliceSourceBounds>
	</sfw>
</metadata>
<g opacity="0.88">
	<g>
		<path fill="#231F20" d="M-108.792,0v320.875H426V0H-108.792z M392.923,106.169c-15.732-0.376-28.187-13.435-27.808-29.173
			c0.375-15.738,13.437-28.188,29.172-27.812c15.735,0.377,28.188,13.438,27.81,29.174
			C421.719,94.093,408.659,106.546,392.923,106.169z"/>
	</g>
</g>
<path fill="#FFFFFF" d="M130.171,92.283c-0.064-0.718-0.758-1.242-1.547-1.169c-0.789,0.072-1.376,0.711-1.311,1.43l0.528,5.802
	l-1.032,0.094l-0.584-6.426c-0.078-0.837-0.777-1.457-1.566-1.385c-0.787,0.073-1.365,0.81-1.288,1.645l0.584,6.428l-1.146,0.104
	l-0.668-7.36c-0.078-0.837-0.779-1.456-1.567-1.385c-0.789,0.073-1.366,0.808-1.29,1.646l0.67,7.359l-1.121,0.102l-1.229-13.474
	c-0.086-0.953-0.933-1.658-1.889-1.572c-0.953,0.087-1.658,0.934-1.572,1.888l1.565,17.19l-1.035-0.35l-0.472-5.172
	c0,0-1.016,3.046-1.583,4.478c-0.356,0.893-0.562,2.008-0.485,2.964c0.152,1.871,6.836,7.983,9.211,7.778
	c1.773-0.154,7.651-0.682,8.672-0.867c2.276-0.407,1.918-3.009,1.918-3.009l-0.021-0.491L130.171,92.283L130.171,92.283z"/>
<polygon fill="#FFFFFF" points="131.345,85.047 151.051,85.047 151.051,88.392 160.209,83.101 151.051,77.813 151.051,81.157 
	131.345,81.157 "/>
<polygon fill="#FFFFFF" points="96.41,81.157 76.704,81.157 76.704,77.813 67.545,83.104 76.704,88.392 76.704,85.047 96.41,85.047 
	"/>
<g>
	<text transform="matrix(1 0 0 1 65.5122 64.3848)" fill="#FFFFFF" font-family="'Noteworthy-Bold'" font-size="14.7068">Swipe for guideline options</text>
</g>
<g>
	<text transform="matrix(1 0 0 1 101.1099 143.5713)" fill="#FFFFFF" font-family="'Noteworthy-Bold'" font-size="14.7068">Change the clip type to</text>
	<text transform="matrix(1 0 0 1 101.1099 162.957)" fill="#FFFFFF" font-family="'Noteworthy-Bold'" font-size="14.7068">switch to a different set </text>
	<text transform="matrix(1 0 0 1 101.1099 182.3438)" fill="#FFFFFF" font-family="'Noteworthy-Bold'" font-size="14.7068">of guidelines.</text>
</g>
<g>
	<text transform="matrix(1 0 0 1 66.4985 241.5049)" fill="#FFFFFF" font-family="'Noteworthy-Bold'" font-size="14.7068">Tap anywhere to activate the camera</text>
</g>
<circle fill="#ED342A" stroke="#FFFFFF" stroke-miterlimit="10" cx="39.777" cy="59.093" r="16.833"/>
<path fill="#FFFFFF" d="M41.149,66.151h-2.85v-11.77h-2.946v-2.185l5.796-0.509V66.151z"/>
<circle fill="#ED342A" stroke="#FFFFFF" stroke-miterlimit="10" cx="38.25" cy="237.627" r="16.833"/>
<path fill="#FFFFFF" d="M43.186,243.923H33.62v-1.871l4.417-4.993c0.659-0.776,1.128-1.435,1.405-1.974
	c0.278-0.538,0.416-1.032,0.416-1.483c0-0.588-0.146-1.058-0.439-1.41c-0.294-0.353-0.736-0.527-1.324-0.527
	c-0.62,0-1.098,0.225-1.438,0.675c-0.34,0.45-0.509,1.021-0.509,1.715h-2.781l-0.02-0.06c-0.032-1.266,0.385-2.338,1.253-3.217
	c0.869-0.879,2.033-1.317,3.495-1.317c1.463,0,2.599,0.375,3.408,1.121c0.81,0.749,1.215,1.751,1.215,3.012
	c0,0.854-0.227,1.636-0.681,2.341c-0.453,0.705-1.235,1.682-2.344,2.928l-2.35,2.82l0.02,0.049h5.825v2.192H43.186z"/>
<g>
	
		<text transform="matrix(1 0 0 1 327.7773 308.1846)" fill="#FFFFFF" font-family="'Roboto-LightItalic'" font-size="13.3698" text-decoration=" underline">TAP TO CLOSE</text>
</g>
<path fill="none" stroke="#FFFFFF" stroke-width="1.5" stroke-miterlimit="10" d="M249.012,136.897
	c18.705-7.773,79.03-32.3,103.255-43.387c-3.418-1.104-6.108-1.993-8.896-2.989c2.865,0.996,6.684,2.249,9.48,3.052
	c-1.023,2.914-1.742,5.092-3.701,9.76"/>
</svg>
