<?xml version="1.0" encoding="utf-8"?>
<!-- Generator: Adobe Illustrator 15.0.0, SVG Export Plug-In . SVG Version: 6.00 Build 0)  -->
<!DOCTYPE svg PUBLIC "-//W3C//DTD SVG 1.1//EN" "http://www.w3.org/Graphics/SVG/1.1/DTD/svg11.dtd" [
	<!ENTITY ns_extend "http://ns.adobe.com/Extensibility/1.0/">
	<!ENTITY ns_ai "http://ns.adobe.com/AdobeIllustrator/10.0/">
	<!ENTITY ns_graphs "http://ns.adobe.com/Graphs/1.0/">
	<!ENTITY ns_vars "http://ns.adobe.com/Variables/1.0/">
	<!ENTITY ns_imrep "http://ns.adobe.com/ImageReplacement/1.0/">
	<!ENTITY ns_sfw "http://ns.adobe.com/SaveForWeb/1.0/">
	<!ENTITY ns_custom "http://ns.adobe.com/GenericCustomNamespace/1.0/">
	<!ENTITY ns_adobe_xpath "http://ns.adobe.com/XPath/1.0/">
]>
<svg version="1.1" id="Layer_1" xmlns:x="&ns_extend;" xmlns:i="&ns_ai;" xmlns:graph="&ns_graphs;"
	 xmlns="http://www.w3.org/2000/svg" xmlns:xlink="http://www.w3.org/1999/xlink" x="0px" y="0px" width="470px" height="320px"
	 viewBox="0 0 470 320" enable-background="new 0 0 470 320" xml:space="preserve">
<metadata>
	<sfw  xmlns="&ns_sfw;">
		<slices></slices>
		<sliceSourceBounds  height="320.809" width="534.679" y="239.691" x="-59.178" bottomLeftOrigin="true"></sliceSourceBounds>
	</sfw>
</metadata>
<g opacity="0.88">
	<g>
		<path fill="#231F20" d="M-63.678,0v320.809h534.679V0H-63.678z M437.932,106.146c-15.73-0.376-28.182-13.432-27.803-29.167
			c0.374-15.735,13.435-28.182,29.165-27.806c15.732,0.377,28.183,13.435,27.806,29.167
			C466.722,94.073,453.664,106.523,437.932,106.146z"/>
	</g>
</g>
<path fill="#FFFFFF" d="M175.235,92.264c-0.065-0.718-0.759-1.242-1.547-1.169c-0.789,0.072-1.376,0.711-1.312,1.429l0.528,5.801
	l-1.031,0.094l-0.584-6.425c-0.078-0.837-0.778-1.457-1.567-1.385c-0.786,0.073-1.365,0.81-1.287,1.645l0.583,6.426l-1.145,0.104
	l-0.669-7.358c-0.077-0.837-0.777-1.456-1.566-1.385c-0.789,0.073-1.365,0.808-1.29,1.646l0.67,7.357l-1.12,0.102l-1.229-13.472
	c-0.087-0.953-0.933-1.658-1.889-1.572c-0.954,0.088-1.659,0.934-1.572,1.888l1.565,17.187l-1.034-0.35l-0.472-5.17
	c0,0-1.016,3.045-1.582,4.476c-0.356,0.893-0.562,2.007-0.485,2.963c0.152,1.871,6.834,7.981,9.207,7.777
	c1.774-0.154,7.65-0.681,8.672-0.867c2.275-0.407,1.918-3.008,1.918-3.008l-0.021-0.491L175.235,92.264L175.235,92.264z"/>
<polygon fill="#FFFFFF" points="176.408,85.029 196.11,85.029 196.11,88.373 205.268,83.083 196.11,77.796 196.11,81.14 
	176.408,81.14 "/>
<polygon fill="#FFFFFF" points="141.481,81.14 121.779,81.14 121.779,77.796 112.621,83.086 121.779,88.373 121.779,85.029 
	141.481,85.029 "/>
<g>
	<text transform="matrix(1 0 0 1 110.5903 64.3721)" fill="#FFFFFF" font-family="'Noteworthy-Bold'" font-size="14.7037">Swipe for guideline options</text>
</g>
<g>
	<text transform="matrix(1 0 0 1 146.1802 143.542)" fill="#FFFFFF" font-family="'Noteworthy-Bold'" font-size="14.7037">Change the clip type to</text>
	<text transform="matrix(1 0 0 1 146.1802 162.9238)" fill="#FFFFFF" font-family="'Noteworthy-Bold'" font-size="14.7037">switch to a different set </text>
	<text transform="matrix(1 0 0 1 146.1802 182.3066)" fill="#FFFFFF" font-family="'Noteworthy-Bold'" font-size="14.7037">of guidelines.</text>
</g>
<g>
	<text transform="matrix(1 0 0 1 111.5747 241.4541)" fill="#FFFFFF" font-family="'Noteworthy-Bold'" font-size="14.7037">Tap anywhere to activate the camera</text>
</g>
<circle fill="#ED342A" stroke="#FFFFFF" stroke-miterlimit="10" cx="84.86" cy="59.08" r="16.829"/>
<path fill="#FFFFFF" d="M86.232,66.137h-2.85V54.369h-2.945v-2.184l5.795-0.509V66.137L86.232,66.137z"/>
<circle fill="#ED342A" stroke="#FFFFFF" stroke-miterlimit="10" cx="83.333" cy="237.576" r="16.829"/>
<path fill="#FFFFFF" d="M88.268,243.871h-9.564v-1.87l4.416-4.993c0.659-0.777,1.127-1.433,1.404-1.973
	c0.278-0.538,0.416-1.032,0.416-1.482c0-0.588-0.146-1.058-0.439-1.41c-0.293-0.352-0.736-0.527-1.323-0.527
	c-0.62,0-1.099,0.224-1.438,0.675c-0.34,0.45-0.509,1.021-0.509,1.714h-2.78l-0.02-0.059c-0.032-1.268,0.385-2.338,1.253-3.217
	c0.868-0.879,2.032-1.316,3.494-1.316c1.463,0,2.598,0.374,3.407,1.121c0.81,0.748,1.215,1.75,1.215,3.011
	c0,0.854-0.228,1.636-0.682,2.339c-0.452,0.706-1.234,1.682-2.344,2.928l-2.35,2.819l0.021,0.05h5.823V243.871z"/>
<g>
	
		<text transform="matrix(1 0 0 1 372.7988 308.1201)" fill="#FFFFFF" font-family="'Roboto-LightItalic'" font-size="13.367" text-decoration=" underline">TAP TO CLOSE</text>
</g>
<path fill="none" stroke="#FFFFFF" stroke-width="1.5" stroke-miterlimit="10" d="M294.05,136.868
	c18.702-7.771,79.015-32.293,103.234-43.378c-3.417-1.103-6.106-1.992-8.896-2.988c2.863,0.996,6.683,2.248,9.479,3.052
	c-1.023,2.914-1.743,5.091-3.702,9.758"/>
</svg>
