<?xml version="1.0" encoding="utf-8"?>
<!-- Generator: Adobe Illustrator 15.0.0, SVG Export Plug-In . SVG Version: 6.00 Build 0)  -->
<!DOCTYPE svg PUBLIC "-//W3C//DTD SVG 1.1//EN" "http://www.w3.org/Graphics/SVG/1.1/DTD/svg11.dtd" [
	<!ENTITY ns_extend "http://ns.adobe.com/Extensibility/1.0/">
	<!ENTITY ns_ai "http://ns.adobe.com/AdobeIllustrator/10.0/">
	<!ENTITY ns_graphs "http://ns.adobe.com/Graphs/1.0/">
	<!ENTITY ns_vars "http://ns.adobe.com/Variables/1.0/">
	<!ENTITY ns_imrep "http://ns.adobe.com/ImageReplacement/1.0/">
	<!ENTITY ns_sfw "http://ns.adobe.com/SaveForWeb/1.0/">
	<!ENTITY ns_custom "http://ns.adobe.com/GenericCustomNamespace/1.0/">
	<!ENTITY ns_adobe_xpath "http://ns.adobe.com/XPath/1.0/">
]>
<svg version="1.1" id="Layer_1" xmlns:x="&ns_extend;" xmlns:i="&ns_ai;" xmlns:graph="&ns_graphs;"
	 xmlns="http://www.w3.org/2000/svg" xmlns:xlink="http://www.w3.org/1999/xlink" x="0px" y="0px" width="960px" height="720px"
	 viewBox="0 0 960 720" enable-background="new 0 0 960 720" xml:space="preserve">
<metadata>
	<sfw  xmlns="&ns_sfw;">
		<slices></slices>
		<sliceSourceBounds  height="721.546" width="1202.576" y="38.954" x="-482.078" bottomLeftOrigin="true"></sliceSourceBounds>
	</sfw>
</metadata>
<g opacity="0.88">
	<g>
		<path fill="#231F20" d="M-241.575,0v721.546H961.001V0H-241.575z M886.621,238.74c-35.38-0.846-63.382-30.212-62.531-65.602
			c0.842-35.39,30.214-63.385,65.598-62.539c35.385,0.849,63.386,30.217,62.536,65.602
			C951.376,211.586,922.008,239.589,886.621,238.74z"/>
	</g>
</g>
<path fill="#FFFFFF" d="M295.776,207.517c-0.146-1.615-1.705-2.793-3.479-2.631c-1.773,0.161-3.095,1.6-2.947,3.214l1.188,13.049
	l-2.319,0.211l-1.314-14.451c-0.174-1.882-1.75-3.275-3.523-3.115c-1.771,0.165-3.07,1.82-2.896,3.7l1.312,14.453l-2.572,0.235
	l-1.507-16.551c-0.173-1.882-1.749-3.273-3.522-3.114c-1.772,0.164-3.071,1.817-2.9,3.702l1.507,16.547l-2.52,0.229l-2.764-30.3
	c-0.196-2.144-2.101-3.729-4.248-3.535c-2.146,0.197-3.732,2.1-3.539,4.246l3.523,38.654l-2.329-0.786l-1.059-11.63
	c0,0-2.284,6.85-3.56,10.068c-0.801,2.008-1.262,4.516-1.093,6.664c0.344,4.207,15.374,17.952,20.711,17.491
	c3.99-0.347,17.208-1.533,19.504-1.95c5.117-0.916,4.312-6.766,4.312-6.766l-0.05-1.104l-3.914-36.531L295.776,207.517
	L295.776,207.517z"/>
<polygon fill="#FFFFFF" points="298.415,191.245 342.728,191.245 342.728,198.765 363.324,186.867 342.728,174.977 342.728,182.496 
	298.415,182.496 "/>
<polygon fill="#FFFFFF" points="219.857,182.496 175.545,182.496 175.545,174.977 154.949,186.873 175.545,198.765 175.545,191.245 
	219.857,191.245 "/>
<g>
	<text transform="matrix(1 0 0 1 150.3784 144.7812)" fill="#FFFFFF" font-family="'Noteworthy-Bold'" font-size="33.0708">Swipe for guideline options</text>
</g>
<g>
	<text transform="matrix(1 0 0 1 230.4253 322.8477)" fill="#FFFFFF" font-family="'Noteworthy-Bold'" font-size="33.0708">Change the clip type to</text>
	<text transform="matrix(1 0 0 1 230.4253 366.4414)" fill="#FFFFFF" font-family="'Noteworthy-Bold'" font-size="33.0708">switch to a different set </text>
	<text transform="matrix(1 0 0 1 230.4253 410.0352)" fill="#FFFFFF" font-family="'Noteworthy-Bold'" font-size="33.0708">of guidelines.</text>
</g>
<g>
	<text transform="matrix(1 0 0 1 152.5952 543.0645)" fill="#FFFFFF" font-family="'Noteworthy-Bold'" font-size="33.0708">Tap anywhere to activate the camera</text>
</g>
<circle fill="#ED342A" stroke="#FFFFFF" stroke-miterlimit="10" cx="92.508" cy="132.881" r="37.852"/>
<path fill="#FFFFFF" d="M95.596,148.752h-6.409v-26.467H82.56v-4.912l13.036-1.145V148.752z"/>
<circle fill="#ED342A" stroke="#FFFFFF" stroke-miterlimit="10" cx="89.075" cy="534.348" r="37.852"/>
<path fill="#FFFFFF" d="M100.176,548.505H78.663v-4.207l9.93-11.229c1.483-1.747,2.537-3.225,3.16-4.437
	c0.624-1.21,0.936-2.321,0.936-3.336c0-1.321-0.329-2.378-0.988-3.171c-0.66-0.793-1.653-1.188-2.975-1.188
	c-1.395,0-2.473,0.505-3.235,1.517c-0.764,1.014-1.146,2.3-1.146,3.856h-6.253l-0.044-0.134c-0.073-2.849,0.866-5.258,2.819-7.233
	c1.95-1.974,4.569-2.962,7.858-2.962c3.288,0,5.843,0.842,7.663,2.521c1.82,1.684,2.73,3.938,2.73,6.771
	c0,1.924-0.511,3.679-1.53,5.264c-1.021,1.587-2.777,3.779-5.272,6.583l-5.284,6.342l0.043,0.111h13.102V548.505z"/>
<g>
	
		<text transform="matrix(1 0 0 1 740.1279 693.0078)" fill="#FFFFFF" font-family="'Roboto-LightItalic'" font-size="30.0644" text-decoration=" underline">TAP TO CLOSE</text>
</g>
<path fill="none" stroke="#FFFFFF" stroke-width="1.5" stroke-miterlimit="10" d="M563.011,307.837
	c42.064-17.479,177.713-72.632,232.191-97.563c-7.688-2.481-13.739-4.48-20.01-6.721c6.442,2.24,15.031,5.056,21.319,6.864
	c-2.303,6.553-3.92,11.45-8.324,21.946"/>
</svg>
