<?xml version="1.0" encoding="utf-8"?>
<!-- Generator: Adobe Illustrator 15.0.0, SVG Export Plug-In . SVG Version: 6.00 Build 0)  -->
<!DOCTYPE svg PUBLIC "-//W3C//DTD SVG 1.1//EN" "http://www.w3.org/Graphics/SVG/1.1/DTD/svg11.dtd" [
	<!ENTITY ns_extend "http://ns.adobe.com/Extensibility/1.0/">
	<!ENTITY ns_ai "http://ns.adobe.com/AdobeIllustrator/10.0/">
	<!ENTITY ns_graphs "http://ns.adobe.com/Graphs/1.0/">
	<!ENTITY ns_vars "http://ns.adobe.com/Variables/1.0/">
	<!ENTITY ns_imrep "http://ns.adobe.com/ImageReplacement/1.0/">
	<!ENTITY ns_sfw "http://ns.adobe.com/SaveForWeb/1.0/">
	<!ENTITY ns_custom "http://ns.adobe.com/GenericCustomNamespace/1.0/">
	<!ENTITY ns_adobe_xpath "http://ns.adobe.com/XPath/1.0/">
]>
<svg version="1.1" id="Layer_1" xmlns:x="&ns_extend;" xmlns:i="&ns_ai;" xmlns:graph="&ns_graphs;"
	 xmlns="http://www.w3.org/2000/svg" xmlns:xlink="http://www.w3.org/1999/xlink" x="0px" y="0px" width="24px" height="24px"
	 viewBox="0 0 24 24" enable-background="new 0 0 24 24" xml:space="preserve">
<metadata>
	<sfw  xmlns="&ns_sfw;">
		<slices></slices>
		<sliceSourceBounds  x="353.183" y="296.858" width="52.29" height="21.642" bottomLeftOrigin="true"></sliceSourceBounds>
	</sfw>
</metadata>
<path id="picture-box-icon_7_" display="none" fill="#FFFFFF" d="M14.242,14.525l-1.416,1.32h-3.63l-1.421-1.32H0.004H0l0.802,4.76
	l20.317-0.001l0.854-4.759h-0.004H14.242z M19.232,1.611H2.742L2.528,0h16.917L19.232,1.611z M1.332,12.611l-0.72-9.039h20.799
	l-0.738,9.039H18.85l0.5-7.445H2.623l0.55,7.445H1.332z"/>
<g id="xdpi_1_" opacity="0.8">
	<path id="picture-box-icon_2_" fill="#FFFFFF" d="M-16.075,16.883l-1.416,1.32h-3.631l-1.421-1.32h-7.771h-0.004l0.802,4.76
		l20.317-0.002l0.854-4.758h-0.004H-16.075z M-11.084,3.968h-16.491l-0.214-1.611h16.917L-11.084,3.968z M-28.986,14.969
		l-0.719-9.04h20.798l-0.738,9.04h-1.823l0.5-7.446h-16.726l0.55,7.446H-28.986z"/>
</g>
<g id="xdpi_2_">
	<g>
		<path fill="#DDDFDA" d="M14.605,15.905l-1.133,1.059h-2.905l-1.137-1.059H3.214H3.211l0.641,3.809h16.253l0.684-3.809h-0.004
			H14.605z M18.598,5.575H5.405L5.234,4.286h13.534L18.598,5.575z M4.276,14.374L3.701,7.143H20.34l-0.59,7.231h-1.459l0.398-5.956
			H5.309l0.44,5.956H4.276z"/>
	</g>
	<g>
		<path fill="#DDDFDA" d="M14.605,15.905l-1.133,1.059h-2.905l-1.137-1.059H3.214H3.211l0.641,3.809h16.253l0.684-3.809h-0.004
			H14.605z M18.598,5.575H5.405L5.234,4.286h13.534L18.598,5.575z M4.276,14.374L3.701,7.143H20.34l-0.59,7.231h-1.459l0.398-5.956
			H5.309l0.44,5.956H4.276z"/>
	</g>
</g>
</svg>
