<?xml version="1.0" encoding="utf-8"?>
<!-- Generator: Adobe Illustrator 15.0.0, SVG Export Plug-In . SVG Version: 6.00 Build 0)  -->
<!DOCTYPE svg PUBLIC "-//W3C//DTD SVG 1.1//EN" "http://www.w3.org/Graphics/SVG/1.1/DTD/svg11.dtd">
<svg version="1.1" id="Layer_1" xmlns="http://www.w3.org/2000/svg" xmlns:xlink="http://www.w3.org/1999/xlink" x="0px" y="0px"
	 width="18px" height="18px" viewBox="0 0 18 18" enable-background="new 0 0 18 18" xml:space="preserve">
<path id="picture-box-icon_7_" display="none" fill="#FFFFFF" d="M10.682,10.609L9.619,11.6H6.896l-1.065-0.99H0.002H0l0.601,3.57
	l15.238-0.002l0.64-3.568h-0.002H10.682L10.682,10.609z M14.062,0.922H2.454L2.294,0h11.929L14.062,0.922z M0.998,9.119l-0.54-6.451
	h15.601l-0.555,6.451h-1.368l0.375-5.255H1.967L2.38,9.119H0.998z"/>
<g id="xdpi_4_" opacity="0.8">
	<path id="picture-box-icon_6_" fill="#FFFFFF" d="M11.453,12.311l-1.062,0.99H7.668l-1.065-0.99H0.774H0.772l0.601,3.569
		l15.238-0.002l0.641-3.567h-0.003H11.453z M14.835,2.623H3.226l-0.16-0.922h11.928L14.835,2.623z M1.77,10.82L1.23,4.37h15.6
		l-0.555,6.451h-1.367l0.375-5.255H2.739l0.413,5.255L1.77,10.82L1.77,10.82z"/>
</g>
</svg>
