<?xml version="1.0" encoding="utf-8"?>
<!-- Generator: Adobe Illustrator 15.0.0, SVG Export Plug-In . SVG Version: 6.00 Build 0)  -->
<!DOCTYPE svg PUBLIC "-//W3C//DTD SVG 1.1//EN" "http://www.w3.org/Graphics/SVG/1.1/DTD/svg11.dtd" [
	<!ENTITY ns_extend "http://ns.adobe.com/Extensibility/1.0/">
	<!ENTITY ns_ai "http://ns.adobe.com/AdobeIllustrator/10.0/">
	<!ENTITY ns_graphs "http://ns.adobe.com/Graphs/1.0/">
	<!ENTITY ns_vars "http://ns.adobe.com/Variables/1.0/">
	<!ENTITY ns_imrep "http://ns.adobe.com/ImageReplacement/1.0/">
	<!ENTITY ns_sfw "http://ns.adobe.com/SaveForWeb/1.0/">
	<!ENTITY ns_custom "http://ns.adobe.com/GenericCustomNamespace/1.0/">
	<!ENTITY ns_adobe_xpath "http://ns.adobe.com/XPath/1.0/">
]>
<svg version="1.1" id="Layer_1" xmlns:x="&ns_extend;" xmlns:i="&ns_ai;" xmlns:graph="&ns_graphs;"
	 xmlns="http://www.w3.org/2000/svg" xmlns:xlink="http://www.w3.org/1999/xlink" x="0px" y="0px" width="18px" height="18px"
	 viewBox="0 0 18 18" enable-background="new 0 0 18 18" xml:space="preserve">
<metadata>
	<sfw  xmlns="&ns_sfw;">
		<slices></slices>
		<sliceSourceBounds  x="296.5" y="387.5" width="18" height="18" bottomLeftOrigin="true"></sliceSourceBounds>
	</sfw>
</metadata>
<rect display="none" fill="#414042" width="18" height="18"/>
<path display="none" fill="#FFFFFF" d="M5.1,5c-2.2,0-4,1.8-4,4s1.8,4,4,4c2.2,0,4-1.8,4-4S7.3,5,5.1,5z M8,9.8H5.9V12H4.3V9.8H2.1
	V8.2h2.1V6h1.6v2.1H8V9.8z"/>
<path display="none" fill="#FFFFFF" d="M15.1,3.1l-1.6,1.1c1.2,1.2,1.9,2.9,1.9,4.8l0,0c0,1.9-0.7,3.6-1.9,4.8l1.6,1.101
	C16.5,13.3,17.3,11.3,17.3,9l0,0C17.2,6.7,16.5,4.6,15.1,3.1z"/>
<path display="none" fill="#FFFFFF" d="M13.1,9c0-1.4-0.399-2.7-1.199-3.7L10.3,6.4C10.9,7.1,11.2,8,11.2,9l0,0c0,1-0.3,2-0.8,2.7
	l1.6,1C12.6,11.7,13.1,10.4,13.1,9L13.1,9z"/>
<path id="picture-box-icon_2_" display="none" fill="#FFFFFF" d="M11.4,12.8l-1.101,1H7.7l-1.1-1H0.8l0,0L1.4,16.4h15.2L17.2,12.8
	l0,0H11.4z M14.8,2.4H3.2L3,1.5h12L14.8,2.4z M1.8,11L1.2,4.6h15.6L16.3,11H14.9L15.3,5.7H2.7L3.1,11H1.8z"/>
<g id="add_x5F_audio_ldpi" opacity="0.8">
	<path fill="#FFFFFF" d="M4.922,5.049c-2.192,0-3.968,1.777-3.968,3.969c0,2.193,1.776,3.968,3.968,3.968
		c2.193,0,3.969-1.775,3.969-3.968C8.892,6.826,7.115,5.049,4.922,5.049z M7.873,9.84H5.745v2.129H4.1V9.84H1.972V8.196H4.1V6.067
		h1.645v2.128h2.128V9.84z"/>
	<path fill="#FFFFFF" d="M14.907,3.104l-1.616,1.104c1.211,1.183,1.903,2.929,1.903,4.808v0.002c0,1.879-0.692,3.624-1.903,4.808
		l1.564,1.07c1.432-1.559,2.191-3.588,2.191-5.877V9.017C17.047,6.728,16.34,4.663,14.907,3.104z"/>
	<path fill="#FFFFFF" d="M12.949,9.035c0-1.415-0.427-2.669-1.189-3.745l-1.608,1.057c0.542,0.733,0.845,1.68,0.845,2.688v0
		c0,1.008-0.303,1.956-0.845,2.688l1.556,1.022C12.47,11.67,12.949,10.451,12.949,9.035L12.949,9.035z"/>
</g>
</svg>
