<?xml version="1.0" encoding="utf-8"?>
<!-- Generator: Adobe Illustrator 15.0.0, SVG Export Plug-In . SVG Version: 6.00 Build 0)  -->
<!DOCTYPE svg PUBLIC "-//W3C//DTD SVG 1.1//EN" "http://www.w3.org/Graphics/SVG/1.1/DTD/svg11.dtd" [
	<!ENTITY ns_extend "http://ns.adobe.com/Extensibility/1.0/">
	<!ENTITY ns_ai "http://ns.adobe.com/AdobeIllustrator/10.0/">
	<!ENTITY ns_graphs "http://ns.adobe.com/Graphs/1.0/">
	<!ENTITY ns_vars "http://ns.adobe.com/Variables/1.0/">
	<!ENTITY ns_imrep "http://ns.adobe.com/ImageReplacement/1.0/">
	<!ENTITY ns_sfw "http://ns.adobe.com/SaveForWeb/1.0/">
	<!ENTITY ns_custom "http://ns.adobe.com/GenericCustomNamespace/1.0/">
	<!ENTITY ns_adobe_xpath "http://ns.adobe.com/XPath/1.0/">
]>
<svg version="1.1" id="Layer_1" xmlns:x="&ns_extend;" xmlns:i="&ns_ai;" xmlns:graph="&ns_graphs;"
	 xmlns="http://www.w3.org/2000/svg" xmlns:xlink="http://www.w3.org/1999/xlink" x="0px" y="0px" width="18px" height="18px"
	 viewBox="0 0 18 18" enable-background="new 0 0 18 18" xml:space="preserve">
<metadata>
	<sfw  xmlns="&ns_sfw;">
		<slices></slices>
		<sliceSourceBounds  height="18" width="18" y="297.5" x="386.5" bottomLeftOrigin="true"></sliceSourceBounds>
	</sfw>
</metadata>
<rect display="none" fill="#414042" width="18" height="18"/>
<path id="picture-box-icon_2_" display="none" fill="#DDDFDB" d="M11,12.021l-0.87,0.812H7.9l-0.873-0.812H2.253H2.251l0.492,2.924
	l12.481-0.002l0.521-2.922h-0.002H11z M13.841,3.494H4.13L4.014,2.72h9.972L13.841,3.494z M3.054,10.604L2.612,5.321h12.777
	l-0.453,5.283h-1.121L14.123,6.3H3.847l0.338,4.306H3.054V10.604z"/>
<path id="usb_ldpi_1_" display="none" fill="#DDDFDB" d="M13.688,5.883h-1.559v1.402h0.375c0,0.001,0.014,0.347-0.001,1.13
	c-0.003,0.161-0.087,0.151-0.164,0.221l-2.98,0.968V5.503l1.661,0.002l-2.115-3.4l-2.01,3.4l1.587-0.002v5.575L5.756,9.686
	C5.614,9.616,5.592,9.456,5.592,9.25c0-0.237,0-0.339,0-0.38c0.384-0.143,0.659-0.51,0.659-0.944c0-0.557-0.452-1.009-1.009-1.009
	c-0.557,0-1.009,0.452-1.009,1.009c0,0.407,0.241,0.754,0.587,0.915v0.708c0,0.314,0.122,0.503,0.684,0.854
	c0.005,0.007,2.931,1.516,2.931,1.516c0.084,0.104,0.016,0.963,0.029,1.266c-0.509,0.213-0.973,0.715-0.973,1.303
	c0,0.779,0.633,1.412,1.413,1.412s1.413-0.633,1.413-1.412c0-0.588-0.444-1.094-0.958-1.31v-2.333
	c0.003-0.158,0.051-0.335,0.25-0.432c0,0,2.977-1.05,2.979-1.055c0.478-0.208,0.687-0.325,0.687-0.64v-1.43h0.41V5.883H13.688z"/>
<polygon display="none" fill="#DDDFDB" points="2.745,7.26 2.745,13.643 15.255,13.643 15.255,7.26 9,10.37 "/>
<polygon display="none" fill="#DDDFDB" points="2.745,4.357 2.745,5.543 9,8.653 15.255,5.543 15.255,4.357 "/>
<path id="bluetooth_ldpi_2_" display="none" fill="#DDDFDB" d="M12.791,6.37L8.283,2.24v5.291L6.097,5.414L5.209,6.301l2.714,2.602
	l-2.714,2.863l0.967,0.902l2.106-2.132v5.26l4.508-4.167L9.922,8.965L12.791,6.37z M9.514,5.07l1.412,1.313L9.514,7.696
	C9.514,7.696,9.514,5.126,9.514,5.07z M10.926,11.629l-1.412,1.312c0,0,0-2.568,0-2.625L10.926,11.629z"/>
<path id="you_x5F_tube_ldpi_1_" display="none" fill="#DDDFDB" d="M10.936,10.591c0.064,0.082,0.098,0.203,0.098,0.363v2.437
	c0,0.15-0.025,0.26-0.077,0.325c-0.097,0.127-0.306,0.121-0.448,0.05c-0.066-0.033-0.137-0.09-0.208-0.166v-2.94
	c0.062-0.063,0.12-0.113,0.183-0.146C10.633,10.436,10.831,10.452,10.936,10.591z M13.893,10.484c-0.326,0-0.393,0.229-0.393,0.553
	v0.479h0.775v-0.479C14.275,10.718,14.209,10.484,13.893,10.484z M15.986,13.773c0,1.08-0.875,1.957-1.957,1.957H3.971
	c-1.08,0-1.958-0.877-1.958-1.957V8.832c0-1.082,0.877-1.958,1.958-1.958h10.058c1.082,0,1.957,0.876,1.957,1.958V13.773
	L15.986,13.773z M5.041,9.027h1.022V8.099H3.029v0.928h1.023v5.471h0.989V9.027L5.041,9.027z M8.555,9.777H7.679v3.582
	c-0.108,0.136-0.345,0.354-0.516,0.354c-0.188,0-0.234-0.127-0.234-0.316V9.777H6.051v3.945c0,0.959,0.65,0.963,1.124,0.69
	c0.174-0.103,0.343-0.246,0.504-0.438v0.521h0.876V9.777z M11.936,10.9c0-0.642-0.213-1.186-0.854-1.186
	c-0.312,0-0.583,0.199-0.781,0.44V8.099H9.412v6.398h0.887v-0.362c0.245,0.307,0.514,0.424,0.833,0.424
	c0.584,0,0.804-0.453,0.804-1.039V10.9z M15.18,11.046c0-0.854-0.408-1.389-1.25-1.389c-0.791,0-1.332,0.569-1.332,1.389v2.119
	c0,0.851,0.428,1.46,1.266,1.46c0.928,0,1.316-0.551,1.316-1.46v-0.354h-0.902v0.328c0,0.41-0.021,0.659-0.395,0.659
	c-0.352,0-0.383-0.306-0.383-0.659v-0.891h1.68V11.046L15.18,11.046z"/>
<path id="bluetooth_ldpi_1_" fill-rule="evenodd" clip-rule="evenodd" fill="#DDDFDA" d="M12.791,6.346l-4.509-4.13H7.988
	L7.987,7.222L6.097,5.389L5.209,6.277l2.714,2.603l-2.714,2.863l0.967,0.902l1.812-1.834v4.975l0.294-0.014l4.509-4.166L9.922,8.941
	L12.791,6.346z M9.032,4.154l2.374,2.204L9.032,8.565C9.032,8.565,9.032,4.249,9.032,4.154z M11.406,11.605L9.032,13.81
	c0,0,0-4.314,0-4.411L11.406,11.605z"/>
</svg>
