<?xml version="1.0" encoding="utf-8"?>
<!-- Generator: Adobe Illustrator 15.0.0, SVG Export Plug-In  -->
<!DOCTYPE svg PUBLIC "-//W3C//DTD SVG 1.1//EN" "http://www.w3.org/Graphics/SVG/1.1/DTD/svg11.dtd" [
	<!ENTITY ns_flows "http://ns.adobe.com/Flows/1.0/">
]>
<svg version="1.1"
	 xmlns="http://www.w3.org/2000/svg" xmlns:xlink="http://www.w3.org/1999/xlink" xmlns:a="http://ns.adobe.com/AdobeSVGViewerExtensions/3.0/"
	 x="0px" y="0px" width="720px" height="1200px" viewBox="1.001 1.224 720 1200"
	 overflow="visible" enable-background="new 1.001 1.224 720 1200" xml:space="preserve">
<defs>
</defs>
<g opacity="0.88">
	<g>
		<path fill="#231F20" d="M0,0v1201.224h720.733V0H0z M709.125,727.843c0,18.168-14.866,33.034-33.034,33.034H44.641
			c-18.169,0-33.033-14.866-33.033-33.034v-54.891c0-18.168,14.864-33.034,33.033-33.034h631.45
			c18.168,0,33.034,14.866,33.034,33.034V727.843z"/>
	</g>
</g>
<g>
	<g>
		<path fill="#FFFFFF" d="M513.599,1150.243h-7.288l-2.962,19.854h-1.745l2.962-19.854h-7.507l0.22-1.496h16.54L513.599,1150.243z"
			/>
		<path fill="#FFFFFF" d="M524.948,1164.144h-9.355l-3.05,5.953h-1.818l11.042-21.35h1.657l4.589,21.35h-1.818L524.948,1164.144z
			 M516.399,1162.575h8.227l-2.347-11.307l-0.088-0.014L516.399,1162.575z"/>
		<path fill="#FFFFFF" d="M534.392,1161.226l-1.32,8.871h-1.759l3.196-21.35h7.361c2.141,0,3.763,0.576,4.868,1.73
			c1.104,1.154,1.52,2.654,1.246,4.502c-0.303,1.965-1.142,3.496-2.515,4.598c-1.374,1.1-3.194,1.648-5.462,1.648H534.392z
			 M534.626,1159.729h5.602c1.682,0,3.048-0.453,4.099-1.363c1.051-0.908,1.679-2.027,1.884-3.357
			c0.215-1.418-0.046-2.566-0.784-3.445c-0.738-0.881-1.997-1.32-3.776-1.32h-5.601L534.626,1159.729z"/>
		<path fill="#FFFFFF" d="M574.628,1150.243h-7.288l-2.962,19.854h-1.745l2.962-19.854h-7.507l0.22-1.496h16.54L574.628,1150.243z"
			/>
		<path fill="#FFFFFF" d="M591.666,1161.167c-0.43,2.865-1.515,5.121-3.255,6.768s-3.896,2.471-6.467,2.471
			c-2.404,0-4.25-0.857-5.535-2.574c-1.285-1.715-1.723-3.936-1.312-6.664l0.528-3.475c0.43-2.855,1.505-5.111,3.226-6.768
			s3.847-2.486,6.379-2.486c2.443,0,4.315,0.863,5.615,2.59c1.301,1.725,1.75,3.945,1.35,6.664L591.666,1161.167z M590.449,1157.663
			c0.361-2.395,0.066-4.275-0.887-5.639s-2.477-2.045-4.568-2.045c-1.955,0-3.627,0.711-5.015,2.133s-2.253,3.273-2.596,5.551
			l-0.527,3.504c-0.372,2.414-0.096,4.305,0.828,5.668s2.417,2.045,4.479,2.045c2.004,0,3.713-0.709,5.125-2.125
			c1.413-1.418,2.29-3.281,2.633-5.588L590.449,1157.663z"/>
		<path fill="#FFFFFF" d="M617.87,1163.425l0.029,0.088c-0.283,2.18-1.21,3.875-2.778,5.082c-1.569,1.207-3.518,1.811-5.844,1.811
			c-2.287,0-4.055-0.865-5.301-2.596s-1.664-3.945-1.254-6.643l0.528-3.475c0.42-2.816,1.479-5.062,3.175-6.738
			c1.695-1.676,3.746-2.516,6.15-2.516c2.229,0,3.969,0.617,5.221,1.848c1.251,1.232,1.696,2.91,1.334,5.031l-0.044,0.088h-1.642
			c0.273-1.779-0.042-3.137-0.946-4.07s-2.29-1.4-4.157-1.4c-1.789,0-3.377,0.729-4.766,2.186c-1.388,1.457-2.248,3.305-2.58,5.543
			l-0.528,3.504c-0.352,2.365-0.073,4.25,0.836,5.652c0.909,1.404,2.307,2.105,4.193,2.105c1.779,0,3.28-0.475,4.502-1.424
			c1.222-0.947,1.97-2.307,2.243-4.076H617.87z"/>
		<path fill="#FFFFFF" d="M623.413,1168.616h11.026l-0.22,1.48h-12.786l3.196-21.35h1.76L623.413,1168.616z"/>
		<path fill="#FFFFFF" d="M654.015,1161.167c-0.43,2.865-1.515,5.121-3.255,6.768s-3.896,2.471-6.467,2.471
			c-2.404,0-4.25-0.857-5.535-2.574c-1.285-1.715-1.723-3.936-1.312-6.664l0.528-3.475c0.43-2.855,1.505-5.111,3.226-6.768
			s3.847-2.486,6.379-2.486c2.443,0,4.315,0.863,5.615,2.59c1.301,1.725,1.75,3.945,1.35,6.664L654.015,1161.167z M652.798,1157.663
			c0.361-2.395,0.066-4.275-0.887-5.639s-2.477-2.045-4.568-2.045c-1.955,0-3.627,0.711-5.015,2.133s-2.253,3.273-2.596,5.551
			l-0.527,3.504c-0.372,2.414-0.096,4.305,0.828,5.668s2.417,2.045,4.479,2.045c2.004,0,3.713-0.709,5.125-2.125
			c1.413-1.418,2.29-3.281,2.633-5.588L652.798,1157.663z"/>
		<path fill="#FFFFFF" d="M670.408,1165.448c0.186-1.289-0.095-2.305-0.843-3.043c-0.748-0.736-2.192-1.477-4.333-2.221
			c-2.268-0.752-3.913-1.607-4.935-2.566c-1.021-0.957-1.396-2.35-1.121-4.178c0.234-1.564,1.012-2.789,2.331-3.674
			s2.923-1.328,4.81-1.328c2.15,0,3.837,0.57,5.059,1.709c1.223,1.139,1.667,2.691,1.335,4.656l-0.029,0.088h-1.643
			c0.215-1.477-0.132-2.672-1.041-3.586s-2.214-1.371-3.915-1.371c-1.359,0-2.522,0.342-3.49,1.027
			c-0.968,0.684-1.52,1.5-1.657,2.449c-0.205,1.299,0.039,2.311,0.733,3.035c0.694,0.723,2.136,1.461,4.326,2.213
			c2.277,0.764,3.941,1.639,4.992,2.625c1.051,0.988,1.444,2.365,1.181,4.135c-0.244,1.613-1.061,2.848-2.448,3.703
			c-1.389,0.855-3.095,1.283-5.118,1.283c-2.121,0-3.907-0.516-5.359-1.547c-1.451-1.031-1.986-2.633-1.605-4.803l0.029-0.088h1.628
			c-0.274,1.799,0.156,3.074,1.29,3.828c1.134,0.752,2.547,1.129,4.238,1.129c1.407,0,2.651-0.338,3.731-1.012
			C669.634,1167.237,670.252,1166.417,670.408,1165.448z"/>
		<path fill="#FFFFFF" d="M688.181,1159.759h-9.59l-1.319,8.857h11.07l-0.22,1.48h-12.83l3.196-21.35h12.757l-0.22,1.496h-10.997
			l-1.203,8.021h9.575L688.181,1159.759z"/>
		<path fill="#FFFFFF" d="M494.551,1173.03v-1.467h195.741v1.467H494.551z"/>
	</g>
</g>
<g>
	<g>
		<path fill="#FFFFFF" d="M290.044,554.459c0,0.605-0.041,1.143-0.124,1.61c-1.073,6.358-4.088,9.538-9.043,9.538
			c-2.533,0-4.804-0.646-6.813-1.94v0.867c-0.027,1.845,0.138,3.111,0.496,3.799c0.522,0.964,0.784,1.515,0.784,1.651
			c0,0.551-0.214,1.032-0.64,1.445c-0.428,0.413-0.916,0.619-1.466,0.619c-1.239,0-2.079-0.44-2.52-1.321
			c-0.247-0.522-0.413-1.5-0.495-2.932c-0.056-0.936-0.083-2.009-0.083-3.221c0-0.468,0.062-1.17,0.187-2.105
			c0.123-0.936,0.186-1.652,0.186-2.147v-2.808c-0.028-0.826,0.027-2.044,0.165-3.654s0.206-2.801,0.206-3.572v-3.716
			c0-0.055-0.123-0.799-0.371-2.23c0.709-0.66,1.377-0.99,2.005-0.99c0.735,0,1.322,0.269,1.759,0.805
			c0.436,0.537,0.654,1.191,0.654,1.962c0,0.192,0,0.386,0,0.578c1.817-2.396,4.115-3.593,6.896-3.593
			c2.615,0,4.68,0.978,6.194,2.932c1.349,1.762,2.023,3.992,2.023,6.689c0,0.192,0,0.481,0,0.867S290.044,554.267,290.044,554.459z
			 M286.286,553.798c0-1.899-0.289-3.523-0.867-4.872c-0.799-1.817-2.023-2.726-3.675-2.726c-2.12,0-3.938,1.295-5.45,3.882
			c-1.35,2.257-2.023,4.528-2.023,6.813c0,3.826,1.926,5.739,5.78,5.739c2.064,0,3.578-0.895,4.542-2.685
			c0.551-0.99,1.074-2.793,1.569-5.409C286.245,554.019,286.286,553.771,286.286,553.798z"/>
		<path fill="#FFFFFF" d="M303.711,557.35c0,0.192-0.027,0.495-0.082,0.908c-0.578,0.826-1.185,1.238-1.817,1.238
			c-0.523,0-0.991-0.303-1.404-0.908c-0.055-1.238-0.495-1.858-1.321-1.858c-0.495,0-1.101,1.309-1.816,3.923
			c-0.33,1.156-0.495,2.767-0.495,4.831c0,1.955,0.089,3.139,0.27,3.552c0.205,0.523,0.309,0.881,0.309,1.073
			c0,0.469-0.212,0.847-0.635,1.136s-0.893,0.434-1.41,0.434c-1.473,0-2.209-0.688-2.209-2.064c0-0.138,0.034-0.331,0.104-0.578
			c0.068-0.248,0.104-0.427,0.104-0.537c0-1.404-0.069-3.489-0.207-6.256s-0.206-4.838-0.206-6.214c0-1.239,0.743-1.858,2.229-1.858
			c0.881,0,1.486,0.262,1.817,0.784c0.771-0.853,1.637-1.28,2.602-1.28c0.66,0,1.293,0.18,1.899,0.537
			c0.412,0.221,0.894,0.695,1.444,1.425S303.711,556.937,303.711,557.35z"/>
		<path fill="#FFFFFF" d="M318.329,567.92c0,1.377-0.937,2.45-2.808,3.221c-1.46,0.605-2.987,0.908-4.584,0.908
			c-4.239,0-6.358-2.408-6.358-7.226c0-1.982,0.48-4.185,1.444-6.606c1.184-2.974,2.615-4.46,4.295-4.46
			c1.514,0,3.145,0.675,4.893,2.023s2.622,2.753,2.622,4.212c0,1.816-0.812,3.262-2.436,4.335c-1.432,0.965-3.139,1.445-5.12,1.445
			c-0.386,0-1.006-0.233-1.858-0.701c0.109,2.615,0.881,3.922,2.312,3.922c1.211,0,2.401-0.344,3.571-1.032
			c1.17-0.688,1.92-1.032,2.251-1.032C317.736,566.929,318.329,567.26,318.329,567.92z M313.828,560.116
			c0-0.688-0.2-1.343-0.599-1.962c-0.399-0.619-0.93-0.929-1.59-0.929c-0.908,0-1.61,0.399-2.106,1.197
			c-0.412,0.688-0.619,1.501-0.619,2.437c0,0.522,0.179,0.949,0.537,1.279c0.357,0.331,0.812,0.496,1.362,0.496
			C312.823,562.635,313.828,561.795,313.828,560.116z"/>
		<path fill="#FFFFFF" d="M333.938,567.383c0,1.295-0.551,2.423-1.652,3.387c-1.211,1.046-2.835,1.568-4.872,1.568
			c-0.881,0.027-1.831-0.151-2.85-0.536c-3.303-1.239-4.954-2.243-4.954-3.015c0-1.211,0.866-1.816,2.601-1.816
			c0.248,0,0.51,0.014,0.785,0.041c0.082,0.826,0.743,1.486,1.981,1.981c1.074,0.441,2.106,0.62,3.098,0.537
			c0.798-0.055,1.197-0.344,1.197-0.867c0-0.082-0.021-0.206-0.062-0.371c-0.041-0.165-0.062-0.296-0.062-0.393
			c0-0.096-0.523-0.31-1.569-0.64c-1.184-0.357-1.845-0.564-1.981-0.62c-3.139-1.871-4.708-4.129-4.708-6.771
			c0-1.597,0.454-3.069,1.363-4.418c1.018-1.487,2.284-2.23,3.799-2.23c1.128,0,2.415,0.441,3.86,1.321
			c1.445,0.882,2.333,1.831,2.663,2.85c0.221,0.716,0.331,1.308,0.331,1.775c0,0.495-0.069,0.908-0.207,1.239
			c-0.165,0.412-0.33,0.825-0.495,1.238c-0.523,0.358-1.047,0.537-1.569,0.537c-0.275,0-0.736-0.172-1.383-0.517
			c-0.647-0.344-0.971-0.64-0.971-0.888c0-0.109,0.165-0.468,0.495-1.073c0.192-0.357,0.289-0.661,0.289-0.908
			c0-1.652-0.646-2.478-1.94-2.478c-0.771,0-1.362,0.495-1.775,1.486c-0.304,0.771-0.454,1.597-0.454,2.478
			c0,1.101,0.784,2.092,2.354,2.973c1.431,0.634,2.876,1.28,4.336,1.94C333.152,565.911,333.938,566.64,333.938,567.383z"/>
		<path fill="#FFFFFF" d="M348.885,567.383c0,1.295-0.551,2.423-1.652,3.387c-1.211,1.046-2.835,1.568-4.872,1.568
			c-0.881,0.027-1.831-0.151-2.85-0.536c-3.303-1.239-4.954-2.243-4.954-3.015c0-1.211,0.866-1.816,2.601-1.816
			c0.248,0,0.51,0.014,0.785,0.041c0.082,0.826,0.743,1.486,1.981,1.981c1.074,0.441,2.106,0.62,3.098,0.537
			c0.798-0.055,1.197-0.344,1.197-0.867c0-0.082-0.021-0.206-0.062-0.371c-0.041-0.165-0.062-0.296-0.062-0.393
			c0-0.096-0.523-0.31-1.569-0.64c-1.184-0.357-1.845-0.564-1.981-0.62c-3.139-1.871-4.708-4.129-4.708-6.771
			c0-1.597,0.454-3.069,1.363-4.418c1.018-1.487,2.284-2.23,3.799-2.23c1.128,0,2.415,0.441,3.86,1.321
			c1.445,0.882,2.333,1.831,2.663,2.85c0.221,0.716,0.331,1.308,0.331,1.775c0,0.495-0.069,0.908-0.207,1.239
			c-0.165,0.412-0.33,0.825-0.495,1.238c-0.523,0.358-1.047,0.537-1.569,0.537c-0.275,0-0.736-0.172-1.383-0.517
			c-0.647-0.344-0.971-0.64-0.971-0.888c0-0.109,0.165-0.468,0.495-1.073c0.192-0.357,0.289-0.661,0.289-0.908
			c0-1.652-0.646-2.478-1.94-2.478c-0.771,0-1.362,0.495-1.775,1.486c-0.304,0.771-0.454,1.597-0.454,2.478
			c0,1.101,0.784,2.092,2.354,2.973c1.431,0.634,2.876,1.28,4.336,1.94C348.1,565.911,348.885,566.64,348.885,567.383z"/>
		<path fill="#FFFFFF" d="M372.957,564.534c0,3.551-0.11,6.057-0.33,7.515c-0.139,0.854-0.717,1.28-1.734,1.28
			c-1.542,0-2.229-0.771-2.064-2.312c-1.377,0.661-2.809,0.991-4.295,0.991c-1.432,0-2.794-0.358-4.088-1.073
			c-1.542-0.854-2.312-1.941-2.312-3.263c0-1.293,0.881-2.504,2.643-3.634c1.597-1.018,3.098-1.527,4.501-1.527h3.51v-0.983
			c0.027-2.868-0.825-4.302-2.56-4.302c-2.175,0-3.263,1.008-3.263,3.024c0,0.682-0.386,1.022-1.155,1.022
			c-0.469,0-0.957-0.214-1.466-0.641c-0.51-0.427-0.765-0.873-0.765-1.342c0-1.541,0.551-2.808,1.652-3.799
			c1.101-0.991,2.422-1.486,3.964-1.486C370.369,554.005,372.957,557.515,372.957,564.534z M368.786,566.021
			c0-0.55-0.412-0.826-1.238-0.826c-3.441,0-5.161,0.812-5.161,2.437c0,0.882,0.756,1.321,2.271,1.321
			c0.936,0,1.817-0.261,2.643-0.784C368.291,567.59,368.786,566.874,368.786,566.021z"/>
		<path fill="#FFFFFF" d="M390.96,571.265c-0.412,0.633-0.922,0.95-1.527,0.95c-0.469,0-1.239-0.276-2.312-0.826v-0.496
			c0-0.604,0.014-1.5,0.041-2.684s0.042-2.051,0.042-2.602c0-5.891-0.877-8.836-2.628-8.836c-0.493,0-1.054,0.386-1.684,1.156
			c-1.943,2.367-2.915,5.217-2.915,8.547c0,0.469,0.089,1.163,0.269,2.085c0.179,0.923,0.269,1.618,0.269,2.086
			c0,0.386-0.18,0.702-0.537,0.949c-0.358,0.248-0.743,0.372-1.156,0.372c-1.651,0-2.478-1.046-2.478-3.139v-8.63
			c0-0.22,0.027-0.543,0.083-0.97c0.055-0.427,0.082-0.75,0.082-0.971c0-0.33-0.048-0.812-0.145-1.445
			c-0.097-0.633-0.145-1.101-0.145-1.404c0-0.439,0.255-0.859,0.765-1.259c0.509-0.399,0.97-0.599,1.383-0.599
			c0.605,0,1.225,0.344,1.858,1.032l-0.124,1.651c1.019-1.624,2.271-2.437,3.758-2.437c0.963,0,1.981,0.331,3.056,0.991
			c1.073,0.661,1.857,1.404,2.354,2.229c1.128,2.093,1.692,4.846,1.692,8.259V571.265z"/>
		<path fill="#FFFFFF" d="M408.138,546.448c0,0.605-0.083,1.391-0.248,2.354c-0.221,1.294-0.358,2.064-0.413,2.312
			c-0.083,0.854-0.214,3.372-0.393,7.557s-0.268,6.497-0.268,6.937c0,2.643,0.289,4.625,0.866,5.946
			c-0.468,0.771-1.005,1.156-1.61,1.156c-0.633,0-1.197-0.241-1.692-0.723c-0.496-0.481-0.771-1.039-0.826-1.672
			c-1.294,1.184-2.615,1.775-3.964,1.775c-2.01,0-3.565-0.702-4.666-2.106c-1.019-1.266-1.527-2.932-1.527-4.996
			c0-2.422,0.495-4.886,1.486-7.392c1.266-3.165,2.917-4.748,4.955-4.748c1.211,0,2.449,0.536,3.716,1.61
			c0.138-1.294,0.207-4.597,0.207-9.91c0-0.496,0.371-0.743,1.114-0.743c0.881,0,1.645,0.221,2.292,0.66
			C407.813,544.907,408.138,545.567,408.138,546.448z M403.348,560.446c0-0.936-0.207-1.789-0.619-2.561
			c-0.523-0.936-1.212-1.403-2.065-1.403c-1.238,0-2.188,1.225-2.849,3.675c-0.496,1.762-0.743,3.496-0.743,5.203
			c0,2.56,0.743,3.84,2.229,3.84c1.541,0,2.656-1.143,3.345-3.428C403.113,564.231,403.348,562.456,403.348,560.446z"/>
		<path fill="#FFFFFF" d="M430.476,572.215c-0.523,0.522-1.212,0.784-2.064,0.784c-0.578,0-1.171-0.358-1.775-1.073
			c0-2.423,0-4.295,0-5.616c0-6.111-0.882-9.167-2.644-9.167c-1.816,0-2.725,2.464-2.725,7.392c0,0.275,0,0.675,0,1.197
			c0,0.523,0,0.923,0,1.197c0,0.413,0.068,1.04,0.206,1.879c0.138,0.84,0.207,1.466,0.207,1.879c0,0.358-0.214,0.682-0.641,0.971
			s-0.819,0.434-1.177,0.434c-0.688,0-1.273-0.283-1.755-0.848c-0.481-0.565-0.723-1.192-0.723-1.882l0.165-23.901
			c0-0.082,0-0.192,0-0.331c0-0.138,0-0.233,0-0.289c0-0.992,0.551-1.488,1.652-1.488c0.522,0,1.128,0.241,1.816,0.725
			c0.688,0.484,1.032,0.975,1.032,1.472c0,0.608-0.131,1.506-0.392,2.694c-0.263,1.188-0.393,2.086-0.393,2.693
			c0,0.774,0.027,2.003,0.083,3.688c0.604-0.357,1.114-0.537,1.527-0.537c1.073,0,2.243,0.262,3.51,0.785
			c1.624,0.688,2.753,1.803,3.386,3.345c0.468,1.155,0.702,2.753,0.702,4.789V572.215z"/>
		<path fill="#FFFFFF" d="M447.322,563.419c0,2.478-0.619,4.598-1.858,6.359c-1.432,2.009-3.331,3.014-5.698,3.014
			c-2.423,0-4.253-0.825-5.491-2.477c-1.13-1.459-1.693-3.441-1.693-5.946c0-2.478,0.619-4.817,1.858-7.02
			c1.431-2.615,3.289-3.923,5.574-3.923c0.716,0,1.61,0.316,2.684,0.949C445.78,556.221,447.322,559.235,447.322,563.419z
			 M443.688,563.337c0-4.212-1.019-6.318-3.056-6.318c-1.459,0-2.56,0.896-3.304,2.685c-0.551,1.349-0.825,2.877-0.825,4.583
			c0,3.661,1.087,5.492,3.262,5.492c1.404,0,2.45-0.757,3.139-2.271C443.427,566.351,443.688,564.961,443.688,563.337z"/>
		<path fill="#FFFFFF" d="M454.754,570.438c0,0.496-0.2,0.916-0.599,1.26c-0.399,0.344-0.86,0.517-1.383,0.517
			c-1.734,0-2.602-2.271-2.602-6.813c0-2.064,0.021-5.162,0.062-9.291c0.042-4.129,0.062-7.226,0.062-9.291
			c0-0.33-0.042-0.812-0.124-1.444c-0.083-0.634-0.124-1.102-0.124-1.404c0.908-0.605,1.624-0.908,2.147-0.908
			c0.604,0,1.183,0.199,1.734,0.599c0.55,0.399,0.825,0.901,0.825,1.507c0,0.304-0.068,0.661-0.206,1.073
			c-0.193,0.661-0.304,1.02-0.33,1.074c-0.358,1.707-0.537,4.129-0.537,7.268c0,4.982,0,7.543,0,7.68
			c0.082,3.469,0.371,5.892,0.867,7.268C454.686,569.916,454.754,570.219,454.754,570.438z"/>
		<path fill="#FFFFFF" d="M471.23,546.448c0,0.605-0.083,1.391-0.248,2.354c-0.221,1.294-0.358,2.064-0.413,2.312
			c-0.083,0.854-0.214,3.372-0.393,7.557s-0.268,6.497-0.268,6.937c0,2.643,0.289,4.625,0.866,5.946
			c-0.468,0.771-1.005,1.156-1.61,1.156c-0.633,0-1.197-0.241-1.692-0.723c-0.496-0.481-0.771-1.039-0.826-1.672
			c-1.294,1.184-2.615,1.775-3.964,1.775c-2.01,0-3.565-0.702-4.666-2.106c-1.019-1.266-1.527-2.932-1.527-4.996
			c0-2.422,0.495-4.886,1.486-7.392c1.266-3.165,2.917-4.748,4.955-4.748c1.211,0,2.449,0.536,3.716,1.61
			c0.138-1.294,0.207-4.597,0.207-9.91c0-0.496,0.371-0.743,1.114-0.743c0.881,0,1.645,0.221,2.292,0.66
			C470.906,544.907,471.23,545.567,471.23,546.448z M466.44,560.446c0-0.936-0.207-1.789-0.619-2.561
			c-0.523-0.936-1.212-1.403-2.065-1.403c-1.238,0-2.188,1.225-2.849,3.675c-0.496,1.762-0.743,3.496-0.743,5.203
			c0,2.56,0.743,3.84,2.229,3.84c1.541,0,2.656-1.143,3.345-3.428C466.206,564.231,466.44,562.456,466.44,560.446z"/>
		<path fill="#FFFFFF" d="M495.303,564.534c0,3.551-0.11,6.057-0.33,7.515c-0.139,0.854-0.717,1.28-1.734,1.28
			c-1.542,0-2.229-0.771-2.064-2.312c-1.377,0.661-2.809,0.991-4.295,0.991c-1.432,0-2.794-0.358-4.088-1.073
			c-1.542-0.854-2.312-1.941-2.312-3.263c0-1.293,0.881-2.504,2.643-3.634c1.597-1.018,3.098-1.527,4.501-1.527h3.51v-0.983
			c0.027-2.868-0.825-4.302-2.56-4.302c-2.175,0-3.263,1.008-3.263,3.024c0,0.682-0.386,1.022-1.155,1.022
			c-0.469,0-0.957-0.214-1.466-0.641c-0.51-0.427-0.765-0.873-0.765-1.342c0-1.541,0.551-2.808,1.652-3.799
			c1.101-0.991,2.422-1.486,3.964-1.486C492.715,554.005,495.303,557.515,495.303,564.534z M491.132,566.021
			c0-0.55-0.412-0.826-1.238-0.826c-3.441,0-5.161,0.812-5.161,2.437c0,0.882,0.756,1.321,2.271,1.321
			c0.936,0,1.817-0.261,2.643-0.784C490.637,567.59,491.132,566.874,491.132,566.021z"/>
		<path fill="#FFFFFF" d="M519.252,566.888c0,0.854-0.647,1.858-1.941,3.015c-1.155,1.073-2.195,1.747-3.117,2.023
			c-0.923,0.274-1.796,0.412-2.622,0.412c-2.175,0-3.875-0.688-5.1-2.064s-1.837-3.151-1.837-5.326c0-2.12,0.563-4.487,1.692-7.103
			c1.349-3.138,2.918-4.707,4.707-4.707c0.991,0,2.188,0.386,3.593,1.156c1.486,0.854,2.354,1.707,2.602,2.56
			c0.22,0.743,0.33,1.584,0.33,2.519c0,0.854-0.18,1.817-0.537,2.891c-0.44,1.377-0.99,2.064-1.651,2.064
			c-0.469,0-0.908-0.137-1.321-0.41c-0.495-0.301-0.743-0.671-0.743-1.109c0-0.027,0.124-0.342,0.372-0.944
			c0.137-0.273,0.206-1.027,0.206-2.26c0-1.013-0.041-1.67-0.124-1.972c-0.165-0.849-0.551-1.273-1.156-1.273
			c-1.349,0-2.395,1.166-3.138,3.499c-0.552,1.729-0.826,3.471-0.826,5.227c0,2.938,0.936,4.405,2.808,4.405
			c0.743,0,1.597-0.386,2.561-1.156c0.881-0.716,1.5-1.445,1.858-2.188c0.439-0.881,0.977-1.321,1.61-1.321
			c0.412,0,0.812,0.241,1.197,0.723C519.059,566.027,519.252,566.475,519.252,566.888z"/>
		<path fill="#FFFFFF" d="M526.105,570.438c0,0.496-0.2,0.916-0.599,1.26c-0.399,0.344-0.86,0.517-1.383,0.517
			c-1.734,0-2.602-2.271-2.602-6.813c0-2.064,0.021-5.162,0.062-9.291c0.042-4.129,0.062-7.226,0.062-9.291
			c0-0.33-0.042-0.812-0.124-1.444c-0.083-0.634-0.124-1.102-0.124-1.404c0.908-0.605,1.624-0.908,2.147-0.908
			c0.604,0,1.183,0.199,1.734,0.599c0.55,0.399,0.825,0.901,0.825,1.507c0,0.304-0.068,0.661-0.206,1.073
			c-0.193,0.661-0.304,1.02-0.33,1.074c-0.358,1.707-0.537,4.129-0.537,7.268c0,4.982,0,7.543,0,7.68
			c0.082,3.469,0.371,5.892,0.867,7.268C526.037,569.916,526.105,570.219,526.105,570.438z"/>
		<path fill="#FFFFFF" d="M533.001,555.656c0,0.495-0.11,1.197-0.331,2.105c-0.221,0.909-0.33,1.61-0.33,2.106v8.506
			c0,0.523,0.165,1.35,0.496,2.478c-0.417,0.634-0.876,0.95-1.377,0.95c-1.751,0-2.71-0.867-2.877-2.602
			c-0.275-3.221-0.412-5.643-0.412-7.268c0-2.726,0.109-5.01,0.33-6.854c0-0.138,0-0.274,0-0.413c0-0.495,0.382-0.743,1.146-0.743
			c0.682,0,1.363,0.139,2.046,0.413C532.563,554.638,533.001,555.078,533.001,555.656z M533.372,549.875
			c0,0.606-0.206,1.102-0.619,1.487s-0.923,0.578-1.528,0.578c-0.716,0-1.383-0.248-2.002-0.744c-0.619-0.495-0.93-1.101-0.93-1.816
			c0-0.605,0.213-1.101,0.641-1.486c0.426-0.386,0.956-0.578,1.59-0.578c0.743,0,1.403,0.241,1.981,0.723
			S533.372,549.132,533.372,549.875z"/>
		<path fill="#FFFFFF" d="M549.353,561.727c0,2.808-0.496,5.188-1.487,7.144c-1.238,2.532-3.11,3.799-5.615,3.799
			c-1.35,0-2.505-0.386-3.469-1.156c0,0.303,0,0.715,0,1.238c0,0.605,0,1.019,0,1.239c0,2.643,0.303,4.721,0.908,6.234
			c0.275,0.605,0.413,0.991,0.413,1.156c0,0.936-0.551,1.404-1.651,1.404c-0.826,0-1.445-0.151-1.858-0.454
			c-0.303-0.193-0.605-0.882-0.908-2.064c-0.248-1.047-0.372-1.845-0.372-2.396v-9.951c0-0.908,0.056-2.147,0.165-3.716
			c0.11-1.762,0.179-2.987,0.207-3.676c0.027-0.688,0.027-1.596,0-2.725c0-1.432,0-2.354,0-2.767c0-2.34,0.763-3.51,2.288-3.51
			c0.38,0,0.734,0.131,1.062,0.392c0.326,0.263,0.49,0.572,0.49,0.93c0,0.605-0.068,1.707-0.206,3.303
			c1.073-1.514,2.367-2.271,3.881-2.271c2.037,0,3.606,0.826,4.708,2.478C548.87,557.79,549.353,559.579,549.353,561.727z
			 M545.677,561.354c0-2.973-0.637-4.459-1.911-4.459c-0.553,0-1.273,0.536-2.159,1.61c-1.718,2.064-2.659,4.913-2.825,8.547
			c0.305,0.165,0.845,0.743,1.62,1.734c0.609,0.743,1.219,1.115,1.828,1.115C544.527,569.902,545.677,567.053,545.677,561.354z"/>
		<path fill="#FFFFFF" d="M563.433,555.656c0,0.495-0.11,1.197-0.331,2.105c-0.221,0.909-0.33,1.61-0.33,2.106v8.506
			c0,0.523,0.165,1.35,0.496,2.478c-0.417,0.634-0.876,0.95-1.377,0.95c-1.751,0-2.71-0.867-2.877-2.602
			c-0.275-3.221-0.412-5.643-0.412-7.268c0-2.726,0.109-5.01,0.33-6.854c0-0.138,0-0.274,0-0.413c0-0.495,0.382-0.743,1.146-0.743
			c0.682,0,1.363,0.139,2.046,0.413C562.995,554.638,563.433,555.078,563.433,555.656z M563.804,549.875
			c0,0.606-0.206,1.102-0.619,1.487s-0.923,0.578-1.528,0.578c-0.716,0-1.383-0.248-2.002-0.744c-0.619-0.495-0.93-1.101-0.93-1.816
			c0-0.605,0.213-1.101,0.641-1.486c0.426-0.386,0.956-0.578,1.59-0.578c0.743,0,1.403,0.241,1.981,0.723
			S563.804,549.132,563.804,549.875z"/>
		<path fill="#FFFFFF" d="M579.948,566.888c0,0.854-0.647,1.858-1.941,3.015c-1.155,1.073-2.195,1.747-3.117,2.023
			c-0.923,0.274-1.796,0.412-2.622,0.412c-2.175,0-3.875-0.688-5.1-2.064s-1.837-3.151-1.837-5.326c0-2.12,0.563-4.487,1.692-7.103
			c1.349-3.138,2.918-4.707,4.707-4.707c0.991,0,2.188,0.386,3.593,1.156c1.486,0.854,2.354,1.707,2.602,2.56
			c0.22,0.743,0.33,1.584,0.33,2.519c0,0.854-0.18,1.817-0.537,2.891c-0.44,1.377-0.99,2.064-1.651,2.064
			c-0.469,0-0.908-0.137-1.321-0.41c-0.495-0.301-0.743-0.671-0.743-1.109c0-0.027,0.124-0.342,0.372-0.944
			c0.137-0.273,0.206-1.027,0.206-2.26c0-1.013-0.041-1.67-0.124-1.972c-0.165-0.849-0.551-1.273-1.156-1.273
			c-1.349,0-2.395,1.166-3.138,3.499c-0.552,1.729-0.826,3.471-0.826,5.227c0,2.938,0.936,4.405,2.808,4.405
			c0.743,0,1.597-0.386,2.561-1.156c0.881-0.716,1.5-1.445,1.858-2.188c0.439-0.881,0.977-1.321,1.61-1.321
			c0.412,0,0.812,0.241,1.197,0.723C579.755,566.027,579.948,566.475,579.948,566.888z"/>
		<path fill="#FFFFFF" d="M596.836,563.419c0,2.478-0.619,4.598-1.858,6.359c-1.432,2.009-3.331,3.014-5.698,3.014
			c-2.423,0-4.253-0.825-5.491-2.477c-1.13-1.459-1.693-3.441-1.693-5.946c0-2.478,0.619-4.817,1.858-7.02
			c1.431-2.615,3.289-3.923,5.574-3.923c0.716,0,1.61,0.316,2.684,0.949C595.294,556.221,596.836,559.235,596.836,563.419z
			 M593.202,563.337c0-4.212-1.019-6.318-3.056-6.318c-1.459,0-2.56,0.896-3.304,2.685c-0.551,1.349-0.825,2.877-0.825,4.583
			c0,3.661,1.087,5.492,3.262,5.492c1.404,0,2.45-0.757,3.139-2.271C592.94,566.351,593.202,564.961,593.202,563.337z"/>
		<path fill="#FFFFFF" d="M614.178,571.265c-0.412,0.633-0.922,0.95-1.527,0.95c-0.469,0-1.239-0.276-2.312-0.826v-0.496
			c0-0.604,0.014-1.5,0.041-2.684s0.042-2.051,0.042-2.602c0-5.891-0.877-8.836-2.628-8.836c-0.493,0-1.054,0.386-1.684,1.156
			c-1.943,2.367-2.915,5.217-2.915,8.547c0,0.469,0.089,1.163,0.269,2.085c0.179,0.923,0.269,1.618,0.269,2.086
			c0,0.386-0.18,0.702-0.537,0.949c-0.358,0.248-0.743,0.372-1.156,0.372c-1.651,0-2.478-1.046-2.478-3.139v-8.63
			c0-0.22,0.027-0.543,0.083-0.97c0.055-0.427,0.082-0.75,0.082-0.971c0-0.33-0.048-0.812-0.145-1.445
			c-0.097-0.633-0.145-1.101-0.145-1.404c0-0.439,0.255-0.859,0.765-1.259c0.509-0.399,0.97-0.599,1.383-0.599
			c0.605,0,1.225,0.344,1.858,1.032l-0.124,1.651c1.019-1.624,2.271-2.437,3.758-2.437c0.963,0,1.981,0.331,3.056,0.991
			c1.073,0.661,1.857,1.404,2.354,2.229c1.128,2.093,1.692,4.846,1.692,8.259V571.265z"/>
		<path fill="#FFFFFF" d="M616.738,569.654c0-0.633,0.282-1.197,0.847-1.693c0.564-0.495,1.219-0.743,1.962-0.743
			c0.798,0,1.486,0.358,2.064,1.074s0.867,1.61,0.867,2.684c0,1.156-0.11,2.105-0.331,2.85c-0.22,0.743-0.605,1.458-1.155,2.146
			c-0.552,0.716-1.171,1.328-1.858,1.838c-0.688,0.509-1.308,0.764-1.858,0.764c-0.44-0.056-0.764-0.227-0.971-0.516
			c-0.206-0.289-0.158-0.627,0.145-1.012c0.551-0.304,1.066-0.675,1.549-1.115c0.481-0.44,0.832-1.005,1.053-1.693
			c0.138-0.386,0.187-0.805,0.145-1.259c-0.041-0.454-0.296-0.833-0.764-1.136c-0.469-0.303-0.867-0.605-1.197-0.908
			S616.738,570.205,616.738,569.654z"/>
		<path fill="#FFFFFF" d="M280.216,600.315c0,0.743-1.129,1.267-3.387,1.568c-0.055,0.606-0.081,1.982-0.081,4.13v2.725
			c0,0.552,0.082,1.363,0.247,2.437s0.248,1.872,0.248,2.396c0,0.44-0.221,0.832-0.66,1.177c-0.441,0.344-0.882,0.516-1.322,0.516
			c-0.688,0-1.266-0.592-1.733-1.775c-0.358-0.908-0.537-1.789-0.537-2.643v-8.754c-1.267-0.192-1.996-0.316-2.188-0.372
			c-0.716-0.22-1.073-0.536-1.073-0.949c0-0.11,0.026-0.233,0.082-0.372c0.716-1.018,1.514-1.527,2.396-1.527
			c0.055,0,0.137,0,0.247,0c0.11,0.027,0.192,0.041,0.248,0.041c0.578,0,0.853-0.674,0.826-2.023v-3.014
			c-0.139-0.303-0.207-0.564-0.207-0.785c0-0.357,0.211-0.682,0.634-0.971s0.824-0.433,1.206-0.433c0.572,0,1.118,0.268,1.636,0.805
			c0.519,0.537,0.777,1.108,0.777,1.714c0,0.66-0.103,1.314-0.31,1.961c-0.206,0.647-0.296,1.315-0.269,2.003v0.165
			C279.143,598.554,280.216,599.215,280.216,600.315z"/>
		<path fill="#FFFFFF" d="M294.834,615.759c-0.523,0.522-1.212,0.784-2.064,0.784c-0.578,0-1.171-0.358-1.775-1.073
			c0-2.423,0-4.295,0-5.616c0-6.111-0.882-9.167-2.644-9.167c-1.816,0-2.725,2.464-2.725,7.392c0,0.275,0,0.675,0,1.197
			c0,0.523,0,0.923,0,1.197c0,0.413,0.068,1.04,0.206,1.879c0.138,0.84,0.207,1.466,0.207,1.879c0,0.358-0.214,0.682-0.641,0.971
			s-0.819,0.434-1.177,0.434c-0.688,0-1.273-0.283-1.755-0.848c-0.481-0.565-0.723-1.192-0.723-1.882l0.165-23.901
			c0-0.082,0-0.192,0-0.331c0-0.138,0-0.233,0-0.289c0-0.992,0.551-1.488,1.652-1.488c0.522,0,1.128,0.241,1.816,0.725
			c0.688,0.484,1.032,0.975,1.032,1.472c0,0.608-0.131,1.506-0.392,2.694c-0.263,1.188-0.393,2.086-0.393,2.693
			c0,0.774,0.027,2.003,0.083,3.688c0.604-0.357,1.114-0.537,1.527-0.537c1.073,0,2.243,0.262,3.51,0.785
			c1.624,0.688,2.753,1.803,3.386,3.345c0.468,1.155,0.702,2.753,0.702,4.789V615.759z"/>
		<path fill="#FFFFFF" d="M310.483,611.464c0,1.377-0.937,2.45-2.808,3.221c-1.46,0.605-2.987,0.908-4.584,0.908
			c-4.239,0-6.358-2.408-6.358-7.226c0-1.982,0.48-4.185,1.444-6.606c1.184-2.974,2.615-4.46,4.295-4.46
			c1.514,0,3.145,0.675,4.893,2.023s2.622,2.753,2.622,4.212c0,1.816-0.812,3.262-2.436,4.335c-1.432,0.965-3.139,1.445-5.12,1.445
			c-0.386,0-1.006-0.233-1.858-0.701c0.109,2.615,0.881,3.922,2.312,3.922c1.211,0,2.401-0.344,3.571-1.032
			c1.17-0.688,1.92-1.032,2.251-1.032C309.891,610.473,310.483,610.804,310.483,611.464z M305.982,603.66
			c0-0.688-0.2-1.343-0.599-1.962c-0.399-0.619-0.93-0.929-1.59-0.929c-0.908,0-1.61,0.399-2.106,1.197
			c-0.412,0.688-0.619,1.501-0.619,2.437c0,0.522,0.179,0.949,0.537,1.279c0.357,0.331,0.812,0.496,1.362,0.496
			C304.978,606.179,305.982,605.339,305.982,603.66z"/>
		<path fill="#FFFFFF" d="M327.578,614.809c-0.412,0.633-0.922,0.95-1.527,0.95c-0.469,0-1.239-0.276-2.312-0.826v-0.496
			c0-0.604,0.014-1.5,0.041-2.684s0.042-2.051,0.042-2.602c0-5.891-0.877-8.836-2.628-8.836c-0.493,0-1.054,0.386-1.684,1.156
			c-1.943,2.367-2.915,5.217-2.915,8.547c0,0.469,0.089,1.163,0.269,2.085c0.179,0.923,0.269,1.618,0.269,2.086
			c0,0.386-0.18,0.702-0.537,0.949c-0.358,0.248-0.743,0.372-1.156,0.372c-1.651,0-2.478-1.046-2.478-3.139v-8.63
			c0-0.22,0.027-0.543,0.083-0.97c0.055-0.427,0.082-0.75,0.082-0.971c0-0.33-0.048-0.812-0.145-1.445
			c-0.097-0.633-0.145-1.101-0.145-1.404c0-0.439,0.255-0.859,0.765-1.259c0.509-0.399,0.97-0.599,1.383-0.599
			c0.605,0,1.225,0.344,1.858,1.032l-0.124,1.651c1.019-1.624,2.271-2.437,3.758-2.437c0.963,0,1.981,0.331,3.056,0.991
			c1.073,0.661,1.857,1.404,2.354,2.229c1.128,2.093,1.692,4.846,1.692,8.259V614.809z"/>
		<path fill="#FFFFFF" d="M357.928,615.015c-0.926,0.578-1.634,0.867-2.124,0.867c-0.354,0-0.899-0.192-1.634-0.578
			c0-0.439,0-1.197,0-2.271c0-0.964,0-1.721,0-2.271c0-7.322-0.601-10.983-1.801-10.983c-0.9,0-1.623,1.115-2.169,3.345
			c-0.409,1.624-0.614,3.125-0.614,4.501v3.799c0,0.192,0.068,0.475,0.207,0.847c0.138,0.371,0.206,0.654,0.206,0.846
			c0,0.441-0.234,0.833-0.702,1.177c-0.468,0.345-0.922,0.517-1.362,0.517c-0.469,0-0.937-0.233-1.404-0.702
			c-0.468-0.468-0.701-0.922-0.701-1.362v-7.681c0-3.11-0.351-4.666-1.051-4.666c-0.112,0-0.351,0.262-0.715,0.785
			c-1.989,2.643-2.983,5.478-2.983,8.506c0,0.44,0.062,1.081,0.186,1.92c0.124,0.84,0.187,1.466,0.187,1.879
			c0,0.551-0.173,1.005-0.517,1.362c-0.345,0.357-0.792,0.537-1.342,0.537c-0.634,0-1.143-0.22-1.528-0.659
			c-0.138-0.192-0.303-0.838-0.495-1.937c-0.165-1.016-0.248-1.717-0.248-2.102v-8.98c0-0.659,0.165-1.538,0.496-2.637
			c0.413-1.318,0.853-1.978,1.321-1.978c0.55,0,1.046,0.209,1.486,0.627c0.44,0.419,0.633,0.897,0.578,1.438
			c0.798-1.321,1.83-1.982,3.097-1.982c1.569,0,2.85,1.047,3.841,3.139c0.522-1.239,0.99-2.092,1.403-2.561
			c0.688-0.798,1.541-1.197,2.561-1.197c1.018,0,2.05,0.537,3.097,1.61c1.816,1.845,2.726,4.996,2.726,9.456V615.015z"/>
		<path fill="#FFFFFF" d="M375.848,606.963c0,2.478-0.619,4.598-1.858,6.359c-1.432,2.009-3.331,3.014-5.698,3.014
			c-2.423,0-4.253-0.825-5.491-2.477c-1.13-1.459-1.693-3.441-1.693-5.946c0-2.478,0.619-4.817,1.858-7.02
			c1.431-2.615,3.289-3.923,5.574-3.923c0.716,0,1.61,0.316,2.684,0.949C374.306,599.765,375.848,602.779,375.848,606.963z
			 M372.214,606.881c0-4.212-1.019-6.318-3.056-6.318c-1.459,0-2.56,0.896-3.304,2.685c-0.551,1.349-0.825,2.877-0.825,4.583
			c0,3.661,1.087,5.492,3.262,5.492c1.404,0,2.45-0.757,3.139-2.271C371.952,609.895,372.214,608.505,372.214,606.881z"/>
		<path fill="#FFFFFF" d="M391.539,599.283c0,1.981-0.634,5.01-1.899,9.084c-1.487,4.68-2.932,7.02-4.336,7.02
			c-2.01,0-3.799-1.968-5.368-5.904c-0.964-2.45-1.748-5.312-2.354-8.589c-0.138-0.799-0.206-1.418-0.206-1.858
			s0.199-0.832,0.599-1.177c0.398-0.344,0.818-0.517,1.259-0.517c0.522,0,1.335,0.399,2.437,1.197
			c-0.193,0.634-0.289,1.171-0.289,1.611c0,1.486,0.364,3.427,1.094,5.821c0.729,2.396,1.521,4.198,2.375,5.41v0.123
			c1.005,0,1.786-1.871,2.345-5.615c0.392-2.561,0.587-4.899,0.587-7.02c0-0.413,0.211-0.771,0.633-1.074
			c0.422-0.302,0.837-0.454,1.246-0.454C390.912,597.342,391.539,597.989,391.539,599.283z"/>
		<path fill="#FFFFFF" d="M406.238,611.464c0,1.377-0.937,2.45-2.808,3.221c-1.46,0.605-2.987,0.908-4.584,0.908
			c-4.239,0-6.358-2.408-6.358-7.226c0-1.982,0.48-4.185,1.444-6.606c1.184-2.974,2.615-4.46,4.295-4.46
			c1.514,0,3.145,0.675,4.893,2.023s2.622,2.753,2.622,4.212c0,1.816-0.812,3.262-2.436,4.335c-1.432,0.965-3.139,1.445-5.12,1.445
			c-0.386,0-1.006-0.233-1.858-0.701c0.109,2.615,0.881,3.922,2.312,3.922c1.211,0,2.401-0.344,3.571-1.032
			c1.17-0.688,1.92-1.032,2.251-1.032C405.646,610.473,406.238,610.804,406.238,611.464z M401.737,603.66
			c0-0.688-0.2-1.343-0.599-1.962c-0.399-0.619-0.93-0.929-1.59-0.929c-0.908,0-1.61,0.399-2.106,1.197
			c-0.412,0.688-0.619,1.501-0.619,2.437c0,0.522,0.179,0.949,0.537,1.279c0.357,0.331,0.812,0.496,1.362,0.496
			C400.732,606.179,401.737,605.339,401.737,603.66z"/>
		<path fill="#FFFFFF" d="M419.905,599.2c0,0.495-0.11,1.197-0.331,2.105c-0.221,0.909-0.33,1.61-0.33,2.106v8.506
			c0,0.523,0.165,1.35,0.496,2.478c-0.417,0.634-0.876,0.95-1.377,0.95c-1.751,0-2.71-0.867-2.877-2.602
			c-0.275-3.221-0.412-5.643-0.412-7.268c0-2.726,0.109-5.01,0.33-6.854c0-0.138,0-0.274,0-0.413c0-0.495,0.382-0.743,1.146-0.743
			c0.682,0,1.363,0.139,2.046,0.413C419.468,598.182,419.905,598.622,419.905,599.2z M420.276,593.419
			c0,0.606-0.206,1.102-0.619,1.487s-0.923,0.578-1.528,0.578c-0.716,0-1.383-0.248-2.002-0.744c-0.619-0.495-0.93-1.101-0.93-1.816
			c0-0.605,0.213-1.101,0.641-1.486c0.426-0.386,0.956-0.578,1.59-0.578c0.743,0,1.403,0.241,1.981,0.723
			S420.276,592.676,420.276,593.419z"/>
		<path fill="#FFFFFF" d="M430.599,600.315c0,0.743-1.129,1.267-3.387,1.568c-0.055,0.606-0.081,1.982-0.081,4.13v2.725
			c0,0.552,0.082,1.363,0.247,2.437s0.248,1.872,0.248,2.396c0,0.44-0.221,0.832-0.66,1.177c-0.441,0.344-0.882,0.516-1.322,0.516
			c-0.688,0-1.266-0.592-1.733-1.775c-0.358-0.908-0.537-1.789-0.537-2.643v-8.754c-1.267-0.192-1.996-0.316-2.188-0.372
			c-0.716-0.22-1.073-0.536-1.073-0.949c0-0.11,0.026-0.233,0.082-0.372c0.716-1.018,1.514-1.527,2.396-1.527
			c0.055,0,0.137,0,0.247,0c0.11,0.027,0.192,0.041,0.248,0.041c0.578,0,0.853-0.674,0.826-2.023v-3.014
			c-0.139-0.303-0.207-0.564-0.207-0.785c0-0.357,0.211-0.682,0.634-0.971s0.824-0.433,1.206-0.433c0.572,0,1.118,0.268,1.636,0.805
			c0.519,0.537,0.777,1.108,0.777,1.714c0,0.66-0.103,1.314-0.31,1.961c-0.206,0.647-0.296,1.315-0.269,2.003v0.165
			C429.525,598.554,430.599,599.215,430.599,600.315z"/>
		<path fill="#FFFFFF" d="M445.052,610.927c0,1.295-0.551,2.423-1.652,3.387c-1.211,1.046-2.835,1.568-4.872,1.568
			c-0.881,0.027-1.831-0.151-2.85-0.536c-3.303-1.239-4.954-2.243-4.954-3.015c0-1.211,0.866-1.816,2.601-1.816
			c0.248,0,0.51,0.014,0.785,0.041c0.082,0.826,0.743,1.486,1.981,1.981c1.074,0.441,2.106,0.62,3.098,0.537
			c0.798-0.055,1.197-0.344,1.197-0.867c0-0.082-0.021-0.206-0.062-0.371c-0.041-0.165-0.062-0.296-0.062-0.393
			c0-0.096-0.523-0.31-1.569-0.64c-1.184-0.357-1.845-0.564-1.981-0.62c-3.139-1.871-4.708-4.129-4.708-6.771
			c0-1.597,0.454-3.069,1.363-4.418c1.018-1.487,2.284-2.23,3.799-2.23c1.128,0,2.415,0.441,3.86,1.321
			c1.445,0.882,2.333,1.831,2.663,2.85c0.221,0.716,0.331,1.308,0.331,1.775c0,0.495-0.069,0.908-0.207,1.239
			c-0.165,0.412-0.33,0.825-0.495,1.238c-0.523,0.358-1.047,0.537-1.569,0.537c-0.275,0-0.736-0.172-1.383-0.517
			c-0.647-0.344-0.971-0.64-0.971-0.888c0-0.109,0.165-0.468,0.495-1.073c0.192-0.357,0.289-0.661,0.289-0.908
			c0-1.652-0.646-2.478-1.94-2.478c-0.771,0-1.362,0.495-1.775,1.486c-0.304,0.771-0.454,1.597-0.454,2.478
			c0,1.101,0.784,2.092,2.354,2.973c1.431,0.634,2.876,1.28,4.336,1.94C444.267,609.455,445.052,610.184,445.052,610.927z"/>
		<path fill="#FFFFFF" d="M468.341,605.271c0,2.808-0.496,5.188-1.487,7.144c-1.238,2.532-3.11,3.799-5.615,3.799
			c-1.35,0-2.505-0.386-3.469-1.156c0,0.303,0,0.715,0,1.238c0,0.605,0,1.019,0,1.239c0,2.643,0.303,4.721,0.908,6.234
			c0.275,0.605,0.413,0.991,0.413,1.156c0,0.936-0.551,1.404-1.651,1.404c-0.826,0-1.445-0.151-1.858-0.454
			c-0.303-0.193-0.605-0.882-0.908-2.064c-0.248-1.047-0.372-1.845-0.372-2.396v-9.951c0-0.908,0.056-2.147,0.165-3.716
			c0.11-1.762,0.179-2.987,0.207-3.676c0.027-0.688,0.027-1.596,0-2.725c0-1.432,0-2.354,0-2.767c0-2.34,0.763-3.51,2.288-3.51
			c0.38,0,0.734,0.131,1.062,0.392c0.326,0.263,0.49,0.572,0.49,0.93c0,0.605-0.068,1.707-0.206,3.303
			c1.073-1.514,2.367-2.271,3.881-2.271c2.037,0,3.606,0.826,4.708,2.478C467.858,601.334,468.341,603.123,468.341,605.271z
			 M464.665,604.898c0-2.973-0.637-4.459-1.911-4.459c-0.553,0-1.273,0.536-2.159,1.61c-1.718,2.064-2.659,4.913-2.825,8.547
			c0.305,0.165,0.845,0.743,1.62,1.734c0.609,0.743,1.219,1.115,1.828,1.115C463.516,613.446,464.665,610.597,464.665,604.898z"/>
		<path fill="#FFFFFF" d="M485.642,606.963c0,2.478-0.619,4.598-1.858,6.359c-1.432,2.009-3.331,3.014-5.698,3.014
			c-2.423,0-4.253-0.825-5.491-2.477c-1.13-1.459-1.693-3.441-1.693-5.946c0-2.478,0.619-4.817,1.858-7.02
			c1.431-2.615,3.289-3.923,5.574-3.923c0.716,0,1.61,0.316,2.684,0.949C484.1,599.765,485.642,602.779,485.642,606.963z
			 M482.008,606.881c0-4.212-1.019-6.318-3.056-6.318c-1.459,0-2.56,0.896-3.304,2.685c-0.551,1.349-0.825,2.877-0.825,4.583
			c0,3.661,1.087,5.492,3.262,5.492c1.404,0,2.45-0.757,3.139-2.271C481.746,609.895,482.008,608.505,482.008,606.881z"/>
		<path fill="#FFFFFF" d="M501.828,610.927c0,1.295-0.551,2.423-1.652,3.387c-1.211,1.046-2.835,1.568-4.872,1.568
			c-0.881,0.027-1.831-0.151-2.85-0.536c-3.303-1.239-4.954-2.243-4.954-3.015c0-1.211,0.866-1.816,2.601-1.816
			c0.248,0,0.51,0.014,0.785,0.041c0.082,0.826,0.743,1.486,1.981,1.981c1.074,0.441,2.106,0.62,3.098,0.537
			c0.798-0.055,1.197-0.344,1.197-0.867c0-0.082-0.021-0.206-0.062-0.371c-0.041-0.165-0.062-0.296-0.062-0.393
			c0-0.096-0.523-0.31-1.569-0.64c-1.184-0.357-1.845-0.564-1.981-0.62c-3.139-1.871-4.708-4.129-4.708-6.771
			c0-1.597,0.454-3.069,1.363-4.418c1.018-1.487,2.284-2.23,3.799-2.23c1.128,0,2.415,0.441,3.86,1.321
			c1.445,0.882,2.333,1.831,2.663,2.85c0.221,0.716,0.331,1.308,0.331,1.775c0,0.495-0.069,0.908-0.207,1.239
			c-0.165,0.412-0.33,0.825-0.495,1.238c-0.523,0.358-1.047,0.537-1.569,0.537c-0.275,0-0.736-0.172-1.383-0.517
			c-0.647-0.344-0.971-0.64-0.971-0.888c0-0.109,0.165-0.468,0.495-1.073c0.192-0.357,0.289-0.661,0.289-0.908
			c0-1.652-0.646-2.478-1.94-2.478c-0.771,0-1.362,0.495-1.775,1.486c-0.304,0.771-0.454,1.597-0.454,2.478
			c0,1.101,0.784,2.092,2.354,2.973c1.431,0.634,2.876,1.28,4.336,1.94C501.043,609.455,501.828,610.184,501.828,610.927z"/>
		<path fill="#FFFFFF" d="M508.93,599.2c0,0.495-0.11,1.197-0.331,2.105c-0.221,0.909-0.33,1.61-0.33,2.106v8.506
			c0,0.523,0.165,1.35,0.496,2.478c-0.417,0.634-0.876,0.95-1.377,0.95c-1.751,0-2.71-0.867-2.877-2.602
			c-0.275-3.221-0.412-5.643-0.412-7.268c0-2.726,0.109-5.01,0.33-6.854c0-0.138,0-0.274,0-0.413c0-0.495,0.382-0.743,1.146-0.743
			c0.682,0,1.363,0.139,2.046,0.413C508.492,598.182,508.93,598.622,508.93,599.2z M509.301,593.419
			c0,0.606-0.206,1.102-0.619,1.487s-0.923,0.578-1.528,0.578c-0.716,0-1.383-0.248-2.002-0.744c-0.619-0.495-0.93-1.101-0.93-1.816
			c0-0.605,0.213-1.101,0.641-1.486c0.426-0.386,0.956-0.578,1.59-0.578c0.743,0,1.403,0.241,1.981,0.723
			S509.301,592.676,509.301,593.419z"/>
		<path fill="#FFFFFF" d="M519.623,600.315c0,0.743-1.129,1.267-3.387,1.568c-0.055,0.606-0.081,1.982-0.081,4.13v2.725
			c0,0.552,0.082,1.363,0.247,2.437s0.248,1.872,0.248,2.396c0,0.44-0.221,0.832-0.66,1.177c-0.441,0.344-0.882,0.516-1.322,0.516
			c-0.688,0-1.266-0.592-1.733-1.775c-0.358-0.908-0.537-1.789-0.537-2.643v-8.754c-1.267-0.192-1.996-0.316-2.188-0.372
			c-0.716-0.22-1.073-0.536-1.073-0.949c0-0.11,0.026-0.233,0.082-0.372c0.716-1.018,1.514-1.527,2.396-1.527
			c0.055,0,0.137,0,0.247,0c0.11,0.027,0.192,0.041,0.248,0.041c0.578,0,0.853-0.674,0.826-2.023v-3.014
			c-0.139-0.303-0.207-0.564-0.207-0.785c0-0.357,0.211-0.682,0.634-0.971s0.824-0.433,1.206-0.433c0.572,0,1.118,0.268,1.636,0.805
			c0.519,0.537,0.777,1.108,0.777,1.714c0,0.66-0.103,1.314-0.31,1.961c-0.206,0.647-0.296,1.315-0.269,2.003v0.165
			C518.55,598.554,519.623,599.215,519.623,600.315z"/>
		<path fill="#FFFFFF" d="M526.23,599.2c0,0.495-0.11,1.197-0.331,2.105c-0.221,0.909-0.33,1.61-0.33,2.106v8.506
			c0,0.523,0.165,1.35,0.496,2.478c-0.417,0.634-0.876,0.95-1.377,0.95c-1.751,0-2.71-0.867-2.877-2.602
			c-0.275-3.221-0.412-5.643-0.412-7.268c0-2.726,0.109-5.01,0.33-6.854c0-0.138,0-0.274,0-0.413c0-0.495,0.382-0.743,1.146-0.743
			c0.682,0,1.363,0.139,2.046,0.413C525.793,598.182,526.23,598.622,526.23,599.2z M526.602,593.419
			c0,0.606-0.206,1.102-0.619,1.487s-0.923,0.578-1.528,0.578c-0.716,0-1.383-0.248-2.002-0.744c-0.619-0.495-0.93-1.101-0.93-1.816
			c0-0.605,0.213-1.101,0.641-1.486c0.426-0.386,0.956-0.578,1.59-0.578c0.743,0,1.403,0.241,1.981,0.723
			S526.602,592.676,526.602,593.419z"/>
		<path fill="#FFFFFF" d="M542.086,606.963c0,2.478-0.619,4.598-1.858,6.359c-1.432,2.009-3.331,3.014-5.698,3.014
			c-2.423,0-4.253-0.825-5.491-2.477c-1.13-1.459-1.693-3.441-1.693-5.946c0-2.478,0.619-4.817,1.858-7.02
			c1.431-2.615,3.289-3.923,5.574-3.923c0.716,0,1.61,0.316,2.684,0.949C540.544,599.765,542.086,602.779,542.086,606.963z
			 M538.452,606.881c0-4.212-1.019-6.318-3.056-6.318c-1.459,0-2.56,0.896-3.304,2.685c-0.551,1.349-0.825,2.877-0.825,4.583
			c0,3.661,1.087,5.492,3.262,5.492c1.404,0,2.45-0.757,3.139-2.271C538.19,609.895,538.452,608.505,538.452,606.881z"/>
		<path fill="#FFFFFF" d="M559.428,614.809c-0.412,0.633-0.922,0.95-1.527,0.95c-0.469,0-1.239-0.276-2.312-0.826v-0.496
			c0-0.604,0.014-1.5,0.041-2.684s0.042-2.051,0.042-2.602c0-5.891-0.877-8.836-2.628-8.836c-0.493,0-1.054,0.386-1.684,1.156
			c-1.943,2.367-2.915,5.217-2.915,8.547c0,0.469,0.089,1.163,0.269,2.085c0.179,0.923,0.269,1.618,0.269,2.086
			c0,0.386-0.18,0.702-0.537,0.949c-0.358,0.248-0.743,0.372-1.156,0.372c-1.651,0-2.478-1.046-2.478-3.139v-8.63
			c0-0.22,0.027-0.543,0.083-0.97c0.055-0.427,0.082-0.75,0.082-0.971c0-0.33-0.048-0.812-0.145-1.445
			c-0.097-0.633-0.145-1.101-0.145-1.404c0-0.439,0.255-0.859,0.765-1.259c0.509-0.399,0.97-0.599,1.383-0.599
			c0.605,0,1.225,0.344,1.858,1.032l-0.124,1.651c1.019-1.624,2.271-2.437,3.758-2.437c0.963,0,1.981,0.331,3.056,0.991
			c1.073,0.661,1.857,1.404,2.354,2.229c1.128,2.093,1.692,4.846,1.692,8.259V614.809z"/>
		<path fill="#FFFFFF" d="M568.223,613.446c0,0.468-0.413,0.929-1.238,1.383c-0.826,0.454-1.515,0.682-2.065,0.682
			c-0.605,0-1.253-0.234-1.94-0.702c-0.688-0.468-1.032-1.019-1.032-1.651c0-0.551,0.282-1.039,0.847-1.466
			c0.563-0.427,1.149-0.641,1.755-0.641c0.743,0,1.514,0.221,2.312,0.661C567.769,612.235,568.223,612.813,568.223,613.446z"/>
	</g>
</g>
<circle fill="#ED342A" stroke="#FFFFFF" stroke-miterlimit="10" cx="211.612" cy="616.097" r="37.81"/>
</svg>
