<?xml version="1.0" encoding="utf-8"?>
<!-- Generator: Adobe Illustrator 15.0.0, SVG Export Plug-In  -->
<!DOCTYPE svg PUBLIC "-//W3C//DTD SVG 1.1//EN" "http://www.w3.org/Graphics/SVG/1.1/DTD/svg11.dtd" [
	<!ENTITY ns_flows "http://ns.adobe.com/Flows/1.0/">
]>
<svg version="1.1"
	 xmlns="http://www.w3.org/2000/svg" xmlns:xlink="http://www.w3.org/1999/xlink" xmlns:a="http://ns.adobe.com/AdobeSVGViewerExtensions/3.0/"
	 x="0px" y="0px" width="480px" height="800px" viewBox="0 1 480 800" overflow="visible" enable-background="new 0 1 480 800"
	 xml:space="preserve">
<defs>
</defs>
<g opacity="0.88">
	<g>
		<path fill="#231F20" d="M0,0v800h480V0H0z M472.269,484.734c0,12.1-9.9,22-22,22H29.73c-12.101,0-22-9.9-22-22v-36.557
			c0-12.1,9.899-22,22-22h420.538c12.1,0,22,9.9,22,22V484.734z"/>
	</g>
</g>
<g>
	<g>
		<path fill="#FFFFFF" d="M342.051,766.047h-4.854l-1.973,13.223h-1.162l1.973-13.223h-5l0.146-0.996h11.016L342.051,766.047z"/>
		<path fill="#FFFFFF" d="M349.609,775.305h-6.23l-2.031,3.965h-1.211l7.354-14.219h1.104l3.057,14.219h-1.211L349.609,775.305z
			 M343.916,774.26h5.479l-1.562-7.529l-0.059-0.01L343.916,774.26z"/>
		<path fill="#FFFFFF" d="M355.898,773.361l-0.879,5.908h-1.172l2.129-14.219h4.902c1.426,0,2.507,0.384,3.242,1.152
			s1.013,1.768,0.83,2.998c-0.202,1.309-0.76,2.329-1.675,3.062s-2.127,1.099-3.638,1.099H355.898z M356.055,772.365h3.73
			c1.12,0,2.029-0.303,2.729-0.908s1.118-1.351,1.255-2.236c0.144-0.944-0.031-1.709-0.522-2.295s-1.33-0.879-2.515-0.879h-3.73
			L356.055,772.365z"/>
		<path fill="#FFFFFF" d="M382.695,766.047h-4.854l-1.973,13.223h-1.162l1.973-13.223h-5l0.146-0.996h11.016L382.695,766.047z"/>
		<path fill="#FFFFFF" d="M394.043,773.322c-0.286,1.907-1.009,3.41-2.168,4.507s-2.595,1.646-4.307,1.646
			c-1.602,0-2.83-0.571-3.687-1.714s-1.147-2.622-0.874-4.438l0.352-2.314c0.286-1.901,1.003-3.403,2.148-4.507
			s2.562-1.655,4.248-1.655c1.628,0,2.874,0.574,3.74,1.724s1.165,2.629,0.898,4.438L394.043,773.322z M393.232,770.988
			c0.241-1.595,0.044-2.847-0.591-3.755s-1.648-1.362-3.042-1.362c-1.302,0-2.415,0.474-3.34,1.421s-1.501,2.18-1.729,3.696
			l-0.352,2.334c-0.247,1.608-0.063,2.866,0.552,3.774s1.609,1.362,2.983,1.362c1.335,0,2.473-0.472,3.413-1.416
			s1.525-2.185,1.753-3.721L393.232,770.988z"/>
		<path fill="#FFFFFF" d="M411.494,774.826l0.02,0.059c-0.188,1.452-0.806,2.58-1.851,3.384s-2.342,1.206-3.892,1.206
			c-1.523,0-2.7-0.576-3.53-1.729s-1.108-2.627-0.835-4.424l0.352-2.314c0.28-1.875,0.984-3.371,2.114-4.487
			s2.495-1.675,4.097-1.675c1.484,0,2.644,0.41,3.477,1.23s1.13,1.937,0.889,3.35l-0.029,0.059h-1.094
			c0.183-1.185-0.027-2.088-0.63-2.71s-1.525-0.933-2.769-0.933c-1.191,0-2.249,0.485-3.174,1.455s-1.497,2.2-1.719,3.691
			l-0.352,2.334c-0.234,1.575-0.049,2.83,0.557,3.765s1.536,1.401,2.793,1.401c1.185,0,2.185-0.315,2.998-0.947
			s1.312-1.536,1.494-2.715H411.494z"/>
		<path fill="#FFFFFF" d="M415.186,778.283h7.344l-0.146,0.986h-8.516l2.129-14.219h1.172L415.186,778.283z"/>
		<path fill="#FFFFFF" d="M435.566,773.322c-0.286,1.907-1.009,3.41-2.168,4.507s-2.595,1.646-4.307,1.646
			c-1.602,0-2.83-0.571-3.687-1.714s-1.147-2.622-0.874-4.438l0.352-2.314c0.286-1.901,1.003-3.403,2.148-4.507
			s2.562-1.655,4.248-1.655c1.628,0,2.874,0.574,3.74,1.724s1.165,2.629,0.898,4.438L435.566,773.322z M434.756,770.988
			c0.241-1.595,0.044-2.847-0.591-3.755s-1.648-1.362-3.042-1.362c-1.302,0-2.415,0.474-3.34,1.421s-1.501,2.18-1.729,3.696
			l-0.352,2.334c-0.247,1.608-0.063,2.866,0.552,3.774s1.609,1.362,2.983,1.362c1.335,0,2.473-0.472,3.413-1.416
			s1.525-2.185,1.753-3.721L434.756,770.988z"/>
		<path fill="#FFFFFF" d="M446.484,776.174c0.124-0.859-0.063-1.535-0.562-2.026s-1.46-0.984-2.886-1.479
			c-1.511-0.501-2.605-1.071-3.286-1.709s-0.93-1.565-0.747-2.783c0.156-1.042,0.674-1.857,1.553-2.446s1.946-0.884,3.203-0.884
			c1.433,0,2.556,0.379,3.369,1.138s1.11,1.792,0.889,3.101l-0.02,0.059h-1.094c0.144-0.983-0.088-1.779-0.693-2.388
			s-1.475-0.913-2.607-0.913c-0.905,0-1.68,0.228-2.324,0.684s-1.013,0.999-1.104,1.631c-0.137,0.866,0.026,1.54,0.488,2.021
			s1.423,0.974,2.881,1.475c1.517,0.508,2.625,1.091,3.325,1.748s0.962,1.575,0.786,2.754c-0.163,1.074-0.706,1.896-1.631,2.466
			s-2.061,0.854-3.408,0.854c-1.413,0-2.603-0.344-3.569-1.03s-1.323-1.753-1.069-3.198l0.02-0.059h1.084
			c-0.183,1.198,0.104,2.048,0.859,2.549s1.696,0.752,2.822,0.752c0.938,0,1.766-0.225,2.485-0.674S446.38,776.818,446.484,776.174z
			"/>
		<path fill="#FFFFFF" d="M458.32,772.385h-6.387l-0.879,5.898h7.373l-0.146,0.986h-8.545l2.129-14.219h8.496l-0.146,0.996h-7.324
			l-0.801,5.342h6.377L458.32,772.385z"/>
		<path fill="#FFFFFF" d="M329.365,781.223v-0.977h130.361v0.977H329.365z"/>
	</g>
</g>
<g>
	<g>
		<path fill="#FFFFFF" d="M193.166,369.264c0,0.403-0.027,0.761-0.082,1.072c-0.715,4.235-2.723,6.353-6.022,6.353
			c-1.687,0-3.2-0.431-4.538-1.293v0.578c-0.018,1.229,0.092,2.071,0.33,2.53c0.348,0.642,0.523,1.008,0.523,1.1
			c0,0.367-0.143,0.688-0.427,0.963c-0.284,0.274-0.61,0.412-0.977,0.412c-0.825,0-1.384-0.294-1.677-0.88
			c-0.166-0.349-0.275-0.999-0.33-1.953c-0.037-0.623-0.056-1.338-0.056-2.145c0-0.312,0.042-0.779,0.124-1.402
			s0.123-1.101,0.123-1.431v-1.869c-0.018-0.551,0.019-1.361,0.11-2.435c0.092-1.072,0.138-1.865,0.138-2.378v-2.476
			c0-0.036-0.082-0.531-0.248-1.484c0.473-0.44,0.918-0.66,1.336-0.66c0.49,0,0.881,0.179,1.171,0.536s0.437,0.793,0.437,1.306
			c0,0.129,0,0.258,0,0.386c1.21-1.596,2.74-2.393,4.592-2.393c1.742,0,3.117,0.65,4.125,1.952c0.898,1.174,1.348,2.658,1.348,4.455
			c0,0.129,0,0.321,0,0.577C193.166,368.943,193.166,369.136,193.166,369.264z M190.664,368.823c0-1.265-0.193-2.347-0.578-3.245
			c-0.531-1.21-1.348-1.814-2.447-1.814c-1.412,0-2.622,0.861-3.63,2.585c-0.898,1.503-1.348,3.016-1.348,4.537
			c0,2.549,1.283,3.822,3.851,3.822c1.375,0,2.383-0.595,3.024-1.787c0.366-0.66,0.716-1.86,1.045-3.603
			C190.637,368.971,190.664,368.806,190.664,368.823z"/>
		<path fill="#FFFFFF" d="M202.27,371.188c0,0.129-0.02,0.33-0.056,0.604c-0.386,0.551-0.788,0.825-1.21,0.825
			c-0.349,0-0.66-0.201-0.936-0.604c-0.037-0.825-0.33-1.237-0.879-1.237c-0.33,0-0.734,0.87-1.211,2.612
			c-0.22,0.77-0.33,1.842-0.33,3.217c0,1.303,0.061,2.091,0.18,2.365c0.137,0.349,0.205,0.587,0.205,0.715
			c0,0.312-0.141,0.564-0.422,0.757s-0.595,0.288-0.939,0.288c-0.98,0-1.471-0.458-1.471-1.375c0-0.091,0.023-0.22,0.068-0.385
			c0.046-0.165,0.069-0.284,0.069-0.357c0-0.935-0.046-2.323-0.138-4.166s-0.137-3.222-0.137-4.139c0-0.825,0.494-1.237,1.484-1.237
			c0.586,0,0.99,0.174,1.21,0.522c0.513-0.568,1.091-0.853,1.732-0.853c0.44,0,0.862,0.119,1.265,0.357
			c0.275,0.146,0.596,0.463,0.963,0.948C202.086,370.533,202.27,370.913,202.27,371.188z"/>
		<path fill="#FFFFFF" d="M212.004,378.229c0,0.917-0.623,1.632-1.87,2.145c-0.972,0.403-1.989,0.605-3.053,0.605
			c-2.823,0-4.235-1.604-4.235-4.812c0-1.32,0.321-2.786,0.963-4.4c0.788-1.979,1.742-2.97,2.86-2.97
			c1.008,0,2.095,0.449,3.259,1.348s1.746,1.833,1.746,2.805c0,1.21-0.541,2.173-1.623,2.888c-0.953,0.642-2.09,0.963-3.41,0.963
			c-0.256,0-0.669-0.156-1.236-0.468c0.072,1.742,0.586,2.612,1.539,2.612c0.807,0,1.6-0.229,2.379-0.688
			c0.779-0.458,1.279-0.688,1.499-0.688C211.609,377.568,212.004,377.788,212.004,378.229z M209.006,373.031
			c0-0.458-0.133-0.895-0.398-1.307s-0.619-0.619-1.059-0.619c-0.605,0-1.072,0.267-1.402,0.798c-0.275,0.459-0.412,1-0.412,1.623
			c0,0.348,0.118,0.632,0.357,0.853c0.237,0.22,0.54,0.329,0.906,0.329C208.337,374.708,209.006,374.149,209.006,373.031z"/>
		<path fill="#FFFFFF" d="M222.398,377.871c0,0.861-0.367,1.613-1.1,2.255c-0.809,0.696-1.889,1.045-3.245,1.045
			c-0.587,0.019-1.22-0.101-1.897-0.357c-2.2-0.825-3.301-1.494-3.301-2.008c0-0.807,0.578-1.21,1.732-1.21
			c0.166,0,0.34,0.01,0.523,0.027c0.055,0.551,0.494,0.99,1.32,1.32c0.715,0.294,1.402,0.412,2.062,0.357
			c0.531-0.036,0.797-0.229,0.797-0.577c0-0.056-0.014-0.138-0.041-0.248c-0.027-0.109-0.041-0.196-0.041-0.261
			s-0.35-0.206-1.045-0.427c-0.789-0.237-1.229-0.375-1.32-0.412c-2.09-1.246-3.135-2.75-3.135-4.51
			c0-1.063,0.303-2.044,0.907-2.942c0.678-0.99,1.521-1.485,2.53-1.485c0.751,0,1.608,0.293,2.57,0.88
			c0.963,0.587,1.555,1.22,1.773,1.897c0.146,0.478,0.221,0.871,0.221,1.183c0,0.33-0.047,0.605-0.139,0.825
			c-0.109,0.274-0.219,0.55-0.33,0.825c-0.348,0.238-0.695,0.357-1.045,0.357c-0.184,0-0.49-0.114-0.92-0.344
			c-0.432-0.229-0.646-0.427-0.646-0.592c0-0.073,0.11-0.312,0.33-0.715c0.127-0.238,0.191-0.439,0.191-0.604
			c0-1.101-0.43-1.65-1.291-1.65c-0.514,0-0.908,0.33-1.183,0.99c-0.202,0.514-0.303,1.063-0.303,1.649
			c0,0.733,0.522,1.394,1.567,1.98c0.953,0.422,1.916,0.853,2.887,1.292C221.875,376.891,222.398,377.376,222.398,377.871z"/>
		<path fill="#FFFFFF" d="M232.354,377.871c0,0.861-0.367,1.613-1.1,2.255c-0.807,0.696-1.889,1.045-3.244,1.045
			c-0.588,0.019-1.221-0.101-1.898-0.357c-2.199-0.825-3.299-1.494-3.299-2.008c0-0.807,0.576-1.21,1.732-1.21
			c0.164,0,0.338,0.01,0.521,0.027c0.055,0.551,0.496,0.99,1.32,1.32c0.715,0.294,1.402,0.412,2.062,0.357
			c0.531-0.036,0.797-0.229,0.797-0.577c0-0.056-0.014-0.138-0.041-0.248c-0.027-0.109-0.041-0.196-0.041-0.261
			s-0.348-0.206-1.045-0.427c-0.789-0.237-1.229-0.375-1.32-0.412c-2.09-1.246-3.135-2.75-3.135-4.51
			c0-1.063,0.303-2.044,0.908-2.942c0.678-0.99,1.521-1.485,2.529-1.485c0.752,0,1.609,0.293,2.57,0.88
			c0.963,0.587,1.555,1.22,1.775,1.897c0.146,0.478,0.219,0.871,0.219,1.183c0,0.33-0.045,0.605-0.137,0.825
			c-0.109,0.274-0.221,0.55-0.33,0.825c-0.348,0.238-0.697,0.357-1.045,0.357c-0.184,0-0.49-0.114-0.922-0.344
			c-0.43-0.229-0.646-0.427-0.646-0.592c0-0.073,0.111-0.312,0.33-0.715c0.129-0.238,0.193-0.439,0.193-0.604
			c0-1.101-0.432-1.65-1.293-1.65c-0.514,0-0.908,0.33-1.182,0.99c-0.203,0.514-0.303,1.063-0.303,1.649
			c0,0.733,0.521,1.394,1.566,1.98c0.953,0.422,1.916,0.853,2.889,1.292C231.832,376.891,232.354,377.376,232.354,377.871z"/>
		<path fill="#FFFFFF" d="M248.387,375.974c0,2.365-0.074,4.033-0.221,5.005c-0.092,0.568-0.477,0.853-1.154,0.853
			c-1.027,0-1.486-0.514-1.375-1.54c-0.918,0.439-1.871,0.66-2.861,0.66c-0.953,0-1.861-0.238-2.723-0.715
			c-1.025-0.568-1.539-1.293-1.539-2.173c0-0.861,0.586-1.668,1.76-2.42c1.062-0.678,2.062-1.018,2.998-1.018h2.336v-0.655
			c0.02-1.909-0.549-2.865-1.703-2.865c-1.449,0-2.174,0.672-2.174,2.015c0,0.454-0.256,0.681-0.77,0.681
			c-0.312,0-0.637-0.142-0.977-0.426s-0.508-0.582-0.508-0.895c0-1.026,0.365-1.869,1.1-2.529c0.732-0.66,1.613-0.99,2.641-0.99
			C246.662,368.961,248.387,371.299,248.387,375.974z M245.607,376.964c0-0.367-0.273-0.551-0.824-0.551
			c-2.291,0-3.438,0.541-3.438,1.623c0,0.587,0.504,0.88,1.512,0.88c0.623,0,1.211-0.174,1.762-0.522
			C245.279,378.009,245.607,377.532,245.607,376.964z"/>
		<path fill="#FFFFFF" d="M260.375,380.456c-0.273,0.422-0.613,0.633-1.018,0.633c-0.311,0-0.824-0.184-1.539-0.551v-0.33
			c0-0.402,0.01-0.999,0.027-1.787s0.027-1.365,0.027-1.732c0-3.923-0.584-5.885-1.75-5.885c-0.328,0-0.701,0.257-1.121,0.77
			c-1.295,1.577-1.941,3.475-1.941,5.692c0,0.312,0.059,0.775,0.18,1.389c0.119,0.615,0.178,1.077,0.178,1.389
			c0,0.258-0.119,0.468-0.357,0.633s-0.494,0.248-0.77,0.248c-1.1,0-1.65-0.697-1.65-2.091v-5.747c0-0.146,0.018-0.361,0.055-0.646
			c0.037-0.284,0.055-0.499,0.055-0.646c0-0.22-0.031-0.54-0.096-0.962s-0.096-0.733-0.096-0.936c0-0.293,0.17-0.572,0.508-0.838
			c0.34-0.266,0.646-0.399,0.922-0.399c0.402,0,0.816,0.229,1.238,0.688l-0.084,1.101c0.68-1.082,1.514-1.623,2.504-1.623
			c0.641,0,1.318,0.22,2.035,0.66c0.715,0.44,1.236,0.935,1.566,1.485c0.752,1.394,1.127,3.227,1.127,5.5V380.456z"/>
		<path fill="#FFFFFF" d="M271.816,363.929c0,0.403-0.057,0.926-0.166,1.567c-0.146,0.861-0.238,1.375-0.275,1.54
			c-0.055,0.568-0.143,2.246-0.26,5.032c-0.121,2.787-0.18,4.327-0.18,4.62c0,1.76,0.193,3.08,0.578,3.96
			c-0.312,0.513-0.67,0.77-1.072,0.77c-0.422,0-0.799-0.16-1.129-0.48c-0.33-0.321-0.514-0.692-0.549-1.114
			c-0.863,0.789-1.742,1.183-2.641,1.183c-1.338,0-2.375-0.468-3.107-1.402c-0.678-0.843-1.018-1.952-1.018-3.327
			c0-1.613,0.33-3.255,0.99-4.923c0.844-2.108,1.943-3.162,3.301-3.162c0.805,0,1.631,0.357,2.475,1.072
			c0.092-0.861,0.137-3.062,0.137-6.601c0-0.33,0.248-0.495,0.742-0.495c0.588,0,1.096,0.147,1.527,0.44
			C271.6,362.902,271.816,363.342,271.816,363.929z M268.625,373.251c0-0.623-0.137-1.191-0.412-1.705
			c-0.348-0.623-0.807-0.935-1.375-0.935c-0.824,0-1.457,0.815-1.896,2.447c-0.33,1.173-0.496,2.328-0.496,3.465
			c0,1.705,0.496,2.558,1.484,2.558c1.027,0,1.77-0.761,2.229-2.282C268.469,375.771,268.625,374.59,268.625,373.251z"/>
		<path fill="#FFFFFF" d="M286.691,381.089c-0.348,0.348-0.807,0.522-1.375,0.522c-0.385,0-0.779-0.239-1.182-0.716
			c0-1.612,0-2.859,0-3.739c0-4.07-0.588-6.105-1.762-6.105c-1.209,0-1.814,1.642-1.814,4.923c0,0.184,0,0.449,0,0.797
			c0,0.349,0,0.615,0,0.798c0,0.275,0.047,0.692,0.139,1.251c0.092,0.56,0.137,0.977,0.137,1.252c0,0.238-0.143,0.453-0.426,0.646
			c-0.285,0.193-0.545,0.289-0.783,0.289c-0.459,0-0.85-0.188-1.17-0.564c-0.32-0.377-0.48-0.794-0.48-1.253l0.109-15.918
			c0-0.055,0-0.128,0-0.221c0-0.092,0-0.155,0-0.192c0-0.661,0.367-0.991,1.1-0.991c0.35,0,0.752,0.161,1.211,0.482
			c0.457,0.322,0.688,0.649,0.688,0.979c0,0.405-0.088,1.004-0.262,1.795s-0.262,1.389-0.262,1.794c0,0.516,0.02,1.334,0.057,2.456
			c0.402-0.237,0.742-0.357,1.016-0.357c0.717,0,1.494,0.175,2.338,0.522c1.082,0.459,1.834,1.201,2.256,2.228
			c0.311,0.771,0.467,1.834,0.467,3.19V381.089z"/>
		<path fill="#FFFFFF" d="M297.912,375.23c0,1.65-0.412,3.062-1.238,4.235c-0.953,1.338-2.217,2.008-3.795,2.008
			c-1.613,0-2.832-0.55-3.656-1.65c-0.752-0.972-1.129-2.291-1.129-3.96c0-1.649,0.414-3.208,1.238-4.675
			c0.953-1.741,2.191-2.612,3.713-2.612c0.477,0,1.072,0.211,1.787,0.632C296.885,370.437,297.912,372.444,297.912,375.23z
			 M295.492,375.176c0-2.805-0.678-4.207-2.035-4.207c-0.973,0-1.705,0.596-2.199,1.787c-0.367,0.898-0.551,1.916-0.551,3.053
			c0,2.438,0.725,3.657,2.172,3.657c0.936,0,1.633-0.504,2.09-1.513C295.318,377.184,295.492,376.258,295.492,375.176z"/>
		<path fill="#FFFFFF" d="M302.861,379.906c0,0.33-0.133,0.609-0.398,0.839c-0.266,0.229-0.574,0.344-0.922,0.344
			c-1.154,0-1.732-1.513-1.732-4.538c0-1.375,0.014-3.438,0.041-6.188s0.041-4.812,0.041-6.188c0-0.22-0.027-0.54-0.082-0.962
			s-0.082-0.733-0.082-0.936c0.605-0.403,1.082-0.604,1.43-0.604c0.402,0,0.789,0.133,1.154,0.398
			c0.367,0.266,0.551,0.601,0.551,1.004c0,0.202-0.045,0.439-0.137,0.715c-0.129,0.439-0.203,0.679-0.221,0.715
			c-0.238,1.137-0.357,2.75-0.357,4.84c0,3.318,0,5.023,0,5.115c0.055,2.31,0.248,3.924,0.578,4.84
			C302.816,379.558,302.861,379.76,302.861,379.906z"/>
		<path fill="#FFFFFF" d="M313.834,363.929c0,0.403-0.055,0.926-0.164,1.567c-0.148,0.861-0.238,1.375-0.275,1.54
			c-0.055,0.568-0.143,2.246-0.262,5.032c-0.119,2.787-0.178,4.327-0.178,4.62c0,1.76,0.191,3.08,0.576,3.96
			c-0.312,0.513-0.67,0.77-1.072,0.77c-0.422,0-0.797-0.16-1.127-0.48c-0.33-0.321-0.514-0.692-0.551-1.114
			c-0.861,0.789-1.742,1.183-2.639,1.183c-1.34,0-2.375-0.468-3.109-1.402c-0.678-0.843-1.016-1.952-1.016-3.327
			c0-1.613,0.328-3.255,0.988-4.923c0.844-2.108,1.943-3.162,3.301-3.162c0.807,0,1.631,0.357,2.475,1.072
			c0.092-0.861,0.139-3.062,0.139-6.601c0-0.33,0.246-0.495,0.742-0.495c0.586,0,1.096,0.147,1.525,0.44
			C313.619,362.902,313.834,363.342,313.834,363.929z M310.645,373.251c0-0.623-0.139-1.191-0.412-1.705
			c-0.35-0.623-0.809-0.935-1.375-0.935c-0.826,0-1.459,0.815-1.898,2.447c-0.33,1.173-0.494,2.328-0.494,3.465
			c0,1.705,0.494,2.558,1.484,2.558c1.027,0,1.77-0.761,2.227-2.282C310.488,375.771,310.645,374.59,310.645,373.251z"/>
		<path fill="#FFFFFF" d="M329.867,375.974c0,2.365-0.074,4.033-0.221,5.005c-0.092,0.568-0.477,0.853-1.154,0.853
			c-1.027,0-1.486-0.514-1.375-1.54c-0.918,0.439-1.871,0.66-2.861,0.66c-0.953,0-1.861-0.238-2.723-0.715
			c-1.025-0.568-1.539-1.293-1.539-2.173c0-0.861,0.586-1.668,1.76-2.42c1.062-0.678,2.062-1.018,2.998-1.018h2.336v-0.655
			c0.02-1.909-0.549-2.865-1.703-2.865c-1.449,0-2.174,0.672-2.174,2.015c0,0.454-0.256,0.681-0.77,0.681
			c-0.312,0-0.637-0.142-0.977-0.426s-0.508-0.582-0.508-0.895c0-1.026,0.365-1.869,1.1-2.529c0.732-0.66,1.613-0.99,2.641-0.99
			C328.143,368.961,329.867,371.299,329.867,375.974z M327.088,376.964c0-0.367-0.273-0.551-0.824-0.551
			c-2.291,0-3.438,0.541-3.438,1.623c0,0.587,0.504,0.88,1.512,0.88c0.623,0,1.211-0.174,1.762-0.522
			C326.76,378.009,327.088,377.532,327.088,376.964z"/>
		<path fill="#FFFFFF" d="M345.816,377.541c0,0.568-0.432,1.237-1.293,2.008c-0.77,0.715-1.463,1.164-2.076,1.347
			c-0.615,0.184-1.195,0.275-1.746,0.275c-1.449,0-2.58-0.458-3.396-1.375c-0.816-0.916-1.223-2.099-1.223-3.548
			c0-1.411,0.375-2.987,1.127-4.729c0.898-2.09,1.943-3.135,3.135-3.135c0.66,0,1.457,0.257,2.393,0.77
			c0.99,0.568,1.566,1.137,1.732,1.705c0.146,0.495,0.221,1.055,0.221,1.678c0,0.568-0.121,1.21-0.357,1.925
			c-0.295,0.917-0.66,1.375-1.102,1.375c-0.311,0-0.604-0.091-0.879-0.273c-0.33-0.2-0.496-0.446-0.496-0.739
			c0-0.018,0.084-0.228,0.248-0.629c0.092-0.182,0.137-0.684,0.137-1.505c0-0.674-0.027-1.112-0.082-1.312
			c-0.109-0.565-0.367-0.849-0.77-0.849c-0.898,0-1.596,0.777-2.09,2.33c-0.367,1.151-0.551,2.312-0.551,3.481
			c0,1.956,0.623,2.934,1.871,2.934c0.494,0,1.062-0.257,1.705-0.77c0.586-0.477,0.998-0.963,1.236-1.458
			c0.293-0.587,0.65-0.88,1.072-0.88c0.275,0,0.541,0.16,0.799,0.481C345.688,376.968,345.816,377.266,345.816,377.541z"/>
		<path fill="#FFFFFF" d="M350.381,379.906c0,0.33-0.133,0.609-0.398,0.839c-0.266,0.229-0.574,0.344-0.922,0.344
			c-1.154,0-1.732-1.513-1.732-4.538c0-1.375,0.014-3.438,0.041-6.188s0.041-4.812,0.041-6.188c0-0.22-0.027-0.54-0.082-0.962
			s-0.082-0.733-0.082-0.936c0.605-0.403,1.082-0.604,1.43-0.604c0.402,0,0.789,0.133,1.154,0.398
			c0.367,0.266,0.551,0.601,0.551,1.004c0,0.202-0.045,0.439-0.137,0.715c-0.129,0.439-0.203,0.679-0.221,0.715
			c-0.238,1.137-0.357,2.75-0.357,4.84c0,3.318,0,5.023,0,5.115c0.055,2.31,0.248,3.924,0.578,4.84
			C350.336,379.558,350.381,379.76,350.381,379.906z"/>
		<path fill="#FFFFFF" d="M354.973,370.061c0,0.33-0.074,0.798-0.221,1.403c-0.146,0.604-0.219,1.072-0.219,1.402v5.665
			c0,0.349,0.109,0.898,0.33,1.649c-0.279,0.422-0.584,0.633-0.918,0.633c-1.166,0-1.805-0.577-1.916-1.732
			c-0.184-2.146-0.273-3.758-0.273-4.84c0-1.815,0.072-3.337,0.219-4.565c0-0.092,0-0.183,0-0.274c0-0.33,0.254-0.495,0.764-0.495
			c0.453,0,0.908,0.092,1.363,0.274C354.682,369.383,354.973,369.676,354.973,370.061z M355.221,366.211
			c0,0.403-0.139,0.733-0.414,0.99c-0.273,0.257-0.613,0.385-1.018,0.385c-0.477,0-0.92-0.165-1.332-0.495
			c-0.414-0.33-0.619-0.733-0.619-1.21c0-0.403,0.141-0.733,0.426-0.99c0.283-0.256,0.637-0.385,1.059-0.385
			c0.496,0,0.936,0.161,1.32,0.481C355.027,365.309,355.221,365.716,355.221,366.211z"/>
		<path fill="#FFFFFF" d="M365.863,374.104c0,1.87-0.33,3.456-0.99,4.758c-0.826,1.687-2.072,2.529-3.74,2.529
			c-0.898,0-1.668-0.257-2.311-0.77c0,0.201,0,0.477,0,0.825c0,0.402,0,0.678,0,0.824c0,1.761,0.201,3.145,0.605,4.153
			c0.184,0.402,0.275,0.659,0.275,0.77c0,0.623-0.367,0.936-1.102,0.936c-0.549,0-0.961-0.102-1.236-0.303
			c-0.203-0.129-0.404-0.587-0.605-1.375c-0.164-0.697-0.248-1.229-0.248-1.596v-6.627c0-0.605,0.037-1.43,0.111-2.475
			c0.072-1.174,0.119-1.989,0.137-2.448c0.018-0.458,0.018-1.062,0-1.814c0-0.953,0-1.567,0-1.843c0-1.558,0.508-2.338,1.523-2.338
			c0.254,0,0.49,0.088,0.707,0.262c0.219,0.175,0.326,0.381,0.326,0.619c0,0.403-0.045,1.137-0.137,2.199
			c0.715-1.008,1.576-1.512,2.586-1.512c1.355,0,2.4,0.55,3.135,1.649C365.541,371.481,365.863,372.674,365.863,374.104z
			 M363.414,373.855c0-1.979-0.424-2.97-1.271-2.97c-0.369,0-0.85,0.357-1.439,1.072c-1.143,1.375-1.77,3.272-1.881,5.693
			c0.203,0.109,0.562,0.494,1.078,1.154c0.406,0.495,0.812,0.743,1.219,0.743C362.648,379.549,363.414,377.651,363.414,373.855z"/>
		<path fill="#FFFFFF" d="M375.24,370.061c0,0.33-0.074,0.798-0.221,1.403c-0.146,0.604-0.219,1.072-0.219,1.402v5.665
			c0,0.349,0.109,0.898,0.33,1.649c-0.279,0.422-0.584,0.633-0.918,0.633c-1.166,0-1.805-0.577-1.916-1.732
			c-0.184-2.146-0.273-3.758-0.273-4.84c0-1.815,0.072-3.337,0.219-4.565c0-0.092,0-0.183,0-0.274c0-0.33,0.254-0.495,0.764-0.495
			c0.453,0,0.908,0.092,1.363,0.274C374.949,369.383,375.24,369.676,375.24,370.061z M375.488,366.211
			c0,0.403-0.139,0.733-0.414,0.99c-0.273,0.257-0.613,0.385-1.018,0.385c-0.477,0-0.92-0.165-1.332-0.495
			c-0.414-0.33-0.619-0.733-0.619-1.21c0-0.403,0.141-0.733,0.426-0.99c0.283-0.256,0.637-0.385,1.059-0.385
			c0.496,0,0.936,0.161,1.32,0.481C375.295,365.309,375.488,365.716,375.488,366.211z"/>
		<path fill="#FFFFFF" d="M386.238,377.541c0,0.568-0.43,1.237-1.291,2.008c-0.771,0.715-1.463,1.164-2.076,1.347
			c-0.615,0.184-1.197,0.275-1.748,0.275c-1.447,0-2.58-0.458-3.395-1.375c-0.816-0.916-1.225-2.099-1.225-3.548
			c0-1.411,0.375-2.987,1.127-4.729c0.898-2.09,1.943-3.135,3.135-3.135c0.66,0,1.459,0.257,2.393,0.77
			c0.99,0.568,1.568,1.137,1.732,1.705c0.146,0.495,0.221,1.055,0.221,1.678c0,0.568-0.119,1.21-0.357,1.925
			c-0.293,0.917-0.66,1.375-1.1,1.375c-0.312,0-0.605-0.091-0.881-0.273c-0.33-0.2-0.494-0.446-0.494-0.739
			c0-0.018,0.082-0.228,0.248-0.629c0.09-0.182,0.137-0.684,0.137-1.505c0-0.674-0.027-1.112-0.082-1.312
			c-0.111-0.565-0.367-0.849-0.771-0.849c-0.898,0-1.594,0.777-2.09,2.33c-0.365,1.151-0.549,2.312-0.549,3.481
			c0,1.956,0.623,2.934,1.869,2.934c0.496,0,1.064-0.257,1.705-0.77c0.586-0.477,1-0.963,1.238-1.458
			c0.293-0.587,0.65-0.88,1.072-0.88c0.275,0,0.541,0.16,0.797,0.481C386.111,376.968,386.238,377.266,386.238,377.541z"/>
		<path fill="#FFFFFF" d="M397.486,375.23c0,1.65-0.412,3.062-1.238,4.235c-0.953,1.338-2.217,2.008-3.795,2.008
			c-1.613,0-2.832-0.55-3.656-1.65c-0.752-0.972-1.129-2.291-1.129-3.96c0-1.649,0.414-3.208,1.238-4.675
			c0.953-1.741,2.191-2.612,3.713-2.612c0.477,0,1.072,0.211,1.787,0.632C396.459,370.437,397.486,372.444,397.486,375.23z
			 M395.066,375.176c0-2.805-0.678-4.207-2.035-4.207c-0.973,0-1.705,0.596-2.199,1.787c-0.367,0.898-0.551,1.916-0.551,3.053
			c0,2.438,0.725,3.657,2.172,3.657c0.936,0,1.633-0.504,2.09-1.513C394.893,377.184,395.066,376.258,395.066,375.176z"/>
		<path fill="#FFFFFF" d="M409.035,380.456c-0.273,0.422-0.613,0.633-1.018,0.633c-0.311,0-0.824-0.184-1.539-0.551v-0.33
			c0-0.402,0.01-0.999,0.027-1.787s0.027-1.365,0.027-1.732c0-3.923-0.584-5.885-1.75-5.885c-0.328,0-0.701,0.257-1.121,0.77
			c-1.295,1.577-1.941,3.475-1.941,5.692c0,0.312,0.059,0.775,0.18,1.389c0.119,0.615,0.178,1.077,0.178,1.389
			c0,0.258-0.119,0.468-0.357,0.633s-0.494,0.248-0.77,0.248c-1.1,0-1.65-0.697-1.65-2.091v-5.747c0-0.146,0.018-0.361,0.055-0.646
			c0.037-0.284,0.055-0.499,0.055-0.646c0-0.22-0.031-0.54-0.096-0.962s-0.096-0.733-0.096-0.936c0-0.293,0.17-0.572,0.508-0.838
			c0.34-0.266,0.646-0.399,0.922-0.399c0.402,0,0.816,0.229,1.238,0.688l-0.084,1.101c0.68-1.082,1.514-1.623,2.504-1.623
			c0.641,0,1.318,0.22,2.035,0.66c0.715,0.44,1.236,0.935,1.566,1.485c0.752,1.394,1.127,3.227,1.127,5.5V380.456z"/>
		<path fill="#FFFFFF" d="M410.74,379.384c0-0.422,0.188-0.798,0.564-1.128c0.375-0.33,0.811-0.495,1.307-0.495
			c0.531,0,0.99,0.238,1.375,0.715c0.385,0.478,0.576,1.073,0.576,1.788c0,0.77-0.072,1.402-0.219,1.897s-0.404,0.972-0.77,1.43
			c-0.367,0.477-0.781,0.885-1.238,1.224c-0.459,0.339-0.871,0.509-1.238,0.509c-0.293-0.037-0.508-0.151-0.646-0.344
			c-0.137-0.192-0.105-0.417,0.098-0.674c0.365-0.202,0.709-0.449,1.031-0.742c0.32-0.294,0.555-0.67,0.701-1.128
			c0.092-0.257,0.123-0.536,0.096-0.838c-0.027-0.303-0.197-0.556-0.508-0.757c-0.312-0.201-0.578-0.403-0.799-0.604
			C410.852,380.034,410.74,379.75,410.74,379.384z"/>
		<path fill="#FFFFFF" d="M186.621,399.804c0,0.495-0.752,0.843-2.256,1.045c-0.036,0.403-0.054,1.319-0.054,2.75v1.814
			c0,0.367,0.055,0.908,0.165,1.623c0.109,0.715,0.164,1.247,0.164,1.595c0,0.294-0.146,0.555-0.439,0.784s-0.587,0.344-0.88,0.344
			c-0.458,0-0.843-0.395-1.155-1.183c-0.238-0.605-0.357-1.191-0.357-1.76v-5.83c-0.844-0.129-1.329-0.211-1.457-0.248
			c-0.477-0.146-0.715-0.357-0.715-0.633c0-0.072,0.018-0.155,0.055-0.247c0.477-0.678,1.008-1.018,1.595-1.018
			c0.036,0,0.092,0,0.165,0c0.073,0.019,0.128,0.027,0.165,0.027c0.386,0,0.568-0.449,0.55-1.348v-2.007
			c-0.092-0.202-0.137-0.376-0.137-0.522c0-0.238,0.141-0.454,0.422-0.646s0.549-0.289,0.803-0.289c0.381,0,0.744,0.179,1.09,0.536
			c0.345,0.357,0.518,0.738,0.518,1.142c0,0.44-0.068,0.876-0.206,1.307s-0.197,0.875-0.179,1.333v0.11
			C185.906,398.631,186.621,399.07,186.621,399.804z"/>
		<path fill="#FFFFFF" d="M196.356,410.089c-0.349,0.348-0.808,0.522-1.375,0.522c-0.386,0-0.78-0.239-1.183-0.716
			c0-1.612,0-2.859,0-3.739c0-4.07-0.587-6.105-1.76-6.105c-1.211,0-1.815,1.642-1.815,4.923c0,0.184,0,0.449,0,0.797
			c0,0.349,0,0.615,0,0.798c0,0.275,0.046,0.692,0.138,1.251c0.092,0.56,0.138,0.977,0.138,1.252c0,0.238-0.143,0.453-0.427,0.646
			c-0.284,0.193-0.545,0.289-0.783,0.289c-0.459,0-0.849-0.188-1.169-0.564c-0.321-0.377-0.481-0.794-0.481-1.253l0.11-15.918
			c0-0.055,0-0.128,0-0.221c0-0.092,0-0.155,0-0.192c0-0.661,0.366-0.991,1.1-0.991c0.349,0,0.752,0.161,1.21,0.482
			c0.459,0.322,0.688,0.649,0.688,0.979c0,0.405-0.087,1.004-0.262,1.795c-0.174,0.791-0.261,1.389-0.261,1.794
			c0,0.516,0.019,1.334,0.056,2.456c0.402-0.237,0.742-0.357,1.018-0.357c0.715,0,1.494,0.175,2.337,0.522
			c1.081,0.459,1.833,1.201,2.255,2.228c0.312,0.771,0.468,1.834,0.468,3.19V410.089z"/>
		<path fill="#FFFFFF" d="M206.779,407.229c0,0.917-0.624,1.632-1.871,2.145c-0.972,0.403-1.988,0.605-3.053,0.605
			c-2.822,0-4.234-1.604-4.234-4.812c0-1.32,0.32-2.786,0.963-4.4c0.787-1.979,1.741-2.97,2.859-2.97
			c1.008,0,2.095,0.449,3.26,1.348c1.163,0.898,1.746,1.833,1.746,2.805c0,1.21-0.541,2.173-1.623,2.888
			c-0.953,0.642-2.09,0.963-3.41,0.963c-0.257,0-0.67-0.156-1.237-0.468c0.073,1.742,0.587,2.612,1.54,2.612
			c0.807,0,1.6-0.229,2.379-0.688c0.779-0.458,1.278-0.688,1.498-0.688C206.385,406.568,206.779,406.788,206.779,407.229z
			 M203.781,402.031c0-0.458-0.133-0.895-0.398-1.307c-0.267-0.412-0.619-0.619-1.059-0.619c-0.605,0-1.073,0.267-1.402,0.798
			c-0.275,0.459-0.413,1-0.413,1.623c0,0.348,0.118,0.632,0.357,0.853c0.237,0.22,0.54,0.329,0.907,0.329
			C203.111,403.708,203.781,403.149,203.781,402.031z"/>
		<path fill="#FFFFFF" d="M218.164,409.456c-0.275,0.422-0.615,0.633-1.018,0.633c-0.312,0-0.825-0.184-1.54-0.551v-0.33
			c0-0.402,0.009-0.999,0.027-1.787s0.027-1.365,0.027-1.732c0-3.923-0.583-5.885-1.75-5.885c-0.328,0-0.702,0.257-1.121,0.77
			c-1.294,1.577-1.941,3.475-1.941,5.692c0,0.312,0.06,0.775,0.179,1.389c0.119,0.615,0.18,1.077,0.18,1.389
			c0,0.258-0.12,0.468-0.358,0.633s-0.495,0.248-0.771,0.248c-1.1,0-1.649-0.697-1.649-2.091v-5.747
			c0-0.146,0.019-0.361,0.056-0.646c0.036-0.284,0.055-0.499,0.055-0.646c0-0.22-0.032-0.54-0.097-0.962s-0.097-0.733-0.097-0.936
			c0-0.293,0.17-0.572,0.51-0.838c0.339-0.266,0.646-0.399,0.921-0.399c0.403,0,0.815,0.229,1.237,0.688l-0.082,1.101
			c0.678-1.082,1.512-1.623,2.502-1.623c0.642,0,1.32,0.22,2.035,0.66s1.238,0.935,1.567,1.485c0.752,1.394,1.128,3.227,1.128,5.5
			V409.456z"/>
		<path fill="#FFFFFF" d="M238.375,409.594c-0.615,0.385-1.088,0.577-1.414,0.577c-0.236,0-0.598-0.129-1.088-0.385
			c0-0.293,0-0.798,0-1.513c0-0.642,0-1.146,0-1.513c0-4.876-0.4-7.314-1.199-7.314c-0.6,0-1.082,0.742-1.445,2.228
			c-0.271,1.082-0.408,2.081-0.408,2.997v2.53c0,0.128,0.045,0.316,0.137,0.563s0.139,0.436,0.139,0.563
			c0,0.294-0.156,0.555-0.467,0.784c-0.312,0.229-0.615,0.344-0.908,0.344c-0.312,0-0.623-0.155-0.936-0.468
			c-0.312-0.312-0.467-0.614-0.467-0.907v-5.115c0-2.071-0.234-3.107-0.699-3.107c-0.076,0-0.234,0.175-0.477,0.522
			c-1.324,1.76-1.986,3.648-1.986,5.665c0,0.294,0.041,0.72,0.123,1.278c0.082,0.56,0.123,0.977,0.123,1.252
			c0,0.367-0.113,0.669-0.344,0.907c-0.229,0.238-0.527,0.357-0.893,0.357c-0.422,0-0.762-0.146-1.018-0.439
			c-0.092-0.128-0.203-0.558-0.33-1.289c-0.111-0.677-0.166-1.144-0.166-1.399v-5.981c0-0.439,0.111-1.024,0.33-1.756
			c0.275-0.878,0.568-1.317,0.881-1.317c0.367,0,0.695,0.14,0.99,0.418c0.293,0.278,0.422,0.598,0.385,0.957
			c0.531-0.88,1.219-1.319,2.062-1.319c1.045,0,1.896,0.696,2.557,2.09c0.348-0.825,0.66-1.394,0.936-1.705
			c0.459-0.531,1.027-0.798,1.705-0.798s1.365,0.357,2.062,1.072c1.209,1.229,1.814,3.328,1.814,6.298V409.594z"/>
		<path fill="#FFFFFF" d="M250.311,404.23c0,1.65-0.412,3.062-1.238,4.235c-0.953,1.338-2.217,2.008-3.795,2.008
			c-1.613,0-2.832-0.55-3.656-1.65c-0.752-0.972-1.129-2.291-1.129-3.96c0-1.649,0.414-3.208,1.238-4.675
			c0.953-1.741,2.191-2.612,3.713-2.612c0.477,0,1.072,0.211,1.787,0.632C249.283,399.437,250.311,401.444,250.311,404.23z
			 M247.891,404.176c0-2.805-0.678-4.207-2.035-4.207c-0.973,0-1.705,0.596-2.199,1.787c-0.367,0.898-0.551,1.916-0.551,3.053
			c0,2.438,0.725,3.657,2.172,3.657c0.936,0,1.633-0.504,2.09-1.513C247.717,406.184,247.891,405.258,247.891,404.176z"/>
		<path fill="#FFFFFF" d="M260.76,399.116c0,1.319-0.422,3.337-1.264,6.05c-0.99,3.117-1.953,4.675-2.889,4.675
			c-1.338,0-2.529-1.311-3.574-3.933c-0.643-1.631-1.164-3.538-1.568-5.72c-0.092-0.531-0.137-0.944-0.137-1.237
			s0.133-0.555,0.398-0.784c0.266-0.229,0.545-0.344,0.84-0.344c0.348,0,0.889,0.267,1.621,0.798
			c-0.127,0.422-0.191,0.779-0.191,1.072c0,0.99,0.242,2.282,0.729,3.878c0.486,1.595,1.012,2.796,1.582,3.603v0.082
			c0.668,0,1.189-1.246,1.561-3.74c0.262-1.705,0.391-3.263,0.391-4.675c0-0.274,0.141-0.513,0.422-0.715
			c0.281-0.201,0.557-0.303,0.83-0.303C260.344,397.823,260.76,398.255,260.76,399.116z"/>
		<path fill="#FFFFFF" d="M270.551,407.229c0,0.917-0.625,1.632-1.871,2.145c-0.971,0.403-1.988,0.605-3.053,0.605
			c-2.822,0-4.234-1.604-4.234-4.812c0-1.32,0.32-2.786,0.963-4.4c0.787-1.979,1.74-2.97,2.859-2.97c1.008,0,2.094,0.449,3.26,1.348
			c1.164,0.898,1.746,1.833,1.746,2.805c0,1.21-0.541,2.173-1.623,2.888c-0.953,0.642-2.09,0.963-3.41,0.963
			c-0.256,0-0.67-0.156-1.238-0.468c0.074,1.742,0.588,2.612,1.541,2.612c0.807,0,1.6-0.229,2.379-0.688
			c0.779-0.458,1.279-0.688,1.498-0.688C270.156,406.568,270.551,406.788,270.551,407.229z M267.553,402.031
			c0-0.458-0.133-0.895-0.398-1.307s-0.619-0.619-1.059-0.619c-0.605,0-1.072,0.267-1.402,0.798c-0.275,0.459-0.414,1-0.414,1.623
			c0,0.348,0.119,0.632,0.357,0.853c0.238,0.22,0.541,0.329,0.908,0.329C266.883,403.708,267.553,403.149,267.553,402.031z"/>
		<path fill="#FFFFFF" d="M279.652,399.061c0,0.33-0.074,0.798-0.221,1.403c-0.146,0.604-0.219,1.072-0.219,1.402v5.665
			c0,0.349,0.109,0.898,0.33,1.649c-0.279,0.422-0.584,0.633-0.918,0.633c-1.166,0-1.805-0.577-1.916-1.732
			c-0.184-2.146-0.273-3.758-0.273-4.84c0-1.815,0.072-3.337,0.219-4.565c0-0.092,0-0.183,0-0.274c0-0.33,0.254-0.495,0.764-0.495
			c0.453,0,0.908,0.092,1.363,0.274C279.361,398.383,279.652,398.676,279.652,399.061z M279.9,395.211
			c0,0.403-0.139,0.733-0.414,0.99c-0.273,0.257-0.613,0.385-1.018,0.385c-0.477,0-0.92-0.165-1.332-0.495
			c-0.414-0.33-0.619-0.733-0.619-1.21c0-0.403,0.141-0.733,0.426-0.99c0.283-0.256,0.637-0.385,1.059-0.385
			c0.496,0,0.936,0.161,1.32,0.481C279.707,394.309,279.9,394.716,279.9,395.211z"/>
		<path fill="#FFFFFF" d="M286.775,399.804c0,0.495-0.752,0.843-2.256,1.045c-0.037,0.403-0.055,1.319-0.055,2.75v1.814
			c0,0.367,0.055,0.908,0.166,1.623c0.109,0.715,0.164,1.247,0.164,1.595c0,0.294-0.146,0.555-0.439,0.784s-0.588,0.344-0.881,0.344
			c-0.457,0-0.844-0.395-1.154-1.183c-0.238-0.605-0.357-1.191-0.357-1.76v-5.83c-0.844-0.129-1.33-0.211-1.457-0.248
			c-0.479-0.146-0.715-0.357-0.715-0.633c0-0.072,0.018-0.155,0.055-0.247c0.477-0.678,1.008-1.018,1.594-1.018
			c0.037,0,0.092,0,0.166,0c0.072,0.019,0.127,0.027,0.164,0.027c0.385,0,0.568-0.449,0.551-1.348v-2.007
			c-0.092-0.202-0.139-0.376-0.139-0.522c0-0.238,0.141-0.454,0.424-0.646c0.281-0.192,0.549-0.289,0.803-0.289
			c0.381,0,0.744,0.179,1.09,0.536c0.344,0.357,0.518,0.738,0.518,1.142c0,0.44-0.068,0.876-0.207,1.307
			c-0.137,0.431-0.197,0.875-0.178,1.333v0.11C286.061,398.631,286.775,399.07,286.775,399.804z"/>
		<path fill="#FFFFFF" d="M296.4,406.871c0,0.861-0.367,1.613-1.1,2.255c-0.809,0.696-1.889,1.045-3.246,1.045
			c-0.586,0.019-1.219-0.101-1.896-0.357c-2.201-0.825-3.301-1.494-3.301-2.008c0-0.807,0.578-1.21,1.732-1.21
			c0.166,0,0.34,0.01,0.523,0.027c0.055,0.551,0.494,0.99,1.318,1.32c0.717,0.294,1.404,0.412,2.062,0.357
			c0.533-0.036,0.799-0.229,0.799-0.577c0-0.056-0.014-0.138-0.041-0.248c-0.027-0.109-0.041-0.196-0.041-0.261
			s-0.35-0.206-1.047-0.427c-0.787-0.237-1.229-0.375-1.318-0.412c-2.09-1.246-3.135-2.75-3.135-4.51
			c0-1.063,0.301-2.044,0.906-2.942c0.678-0.99,1.521-1.485,2.531-1.485c0.75,0,1.607,0.293,2.57,0.88s1.555,1.22,1.773,1.897
			c0.146,0.478,0.221,0.871,0.221,1.183c0,0.33-0.047,0.605-0.139,0.825c-0.109,0.274-0.219,0.55-0.33,0.825
			c-0.348,0.238-0.695,0.357-1.045,0.357c-0.184,0-0.49-0.114-0.92-0.344c-0.432-0.229-0.646-0.427-0.646-0.592
			c0-0.073,0.109-0.312,0.33-0.715c0.127-0.238,0.191-0.439,0.191-0.604c0-1.101-0.43-1.65-1.291-1.65
			c-0.514,0-0.908,0.33-1.184,0.99c-0.201,0.514-0.303,1.063-0.303,1.649c0,0.733,0.523,1.394,1.568,1.98
			c0.953,0.422,1.916,0.853,2.887,1.292C295.877,405.891,296.4,406.376,296.4,406.871z"/>
		<path fill="#FFFFFF" d="M311.91,403.104c0,1.87-0.33,3.456-0.99,4.758c-0.826,1.687-2.072,2.529-3.74,2.529
			c-0.898,0-1.668-0.257-2.311-0.77c0,0.201,0,0.477,0,0.825c0,0.402,0,0.678,0,0.824c0,1.761,0.201,3.145,0.605,4.153
			c0.184,0.402,0.275,0.659,0.275,0.77c0,0.623-0.367,0.936-1.102,0.936c-0.549,0-0.961-0.102-1.236-0.303
			c-0.203-0.129-0.404-0.587-0.605-1.375c-0.164-0.697-0.248-1.229-0.248-1.596v-6.627c0-0.605,0.037-1.43,0.111-2.475
			c0.072-1.174,0.119-1.989,0.137-2.448c0.018-0.458,0.018-1.062,0-1.814c0-0.953,0-1.567,0-1.843c0-1.558,0.508-2.338,1.523-2.338
			c0.254,0,0.49,0.088,0.707,0.262c0.219,0.175,0.326,0.381,0.326,0.619c0,0.403-0.045,1.137-0.137,2.199
			c0.715-1.008,1.576-1.512,2.586-1.512c1.355,0,2.4,0.55,3.135,1.649C311.588,400.481,311.91,401.674,311.91,403.104z
			 M309.461,402.855c0-1.979-0.424-2.97-1.271-2.97c-0.369,0-0.85,0.357-1.439,1.072c-1.143,1.375-1.77,3.272-1.881,5.693
			c0.203,0.109,0.562,0.494,1.078,1.154c0.406,0.495,0.812,0.743,1.219,0.743C308.695,408.549,309.461,406.651,309.461,402.855z"/>
		<path fill="#FFFFFF" d="M323.432,404.23c0,1.65-0.412,3.062-1.238,4.235c-0.953,1.338-2.217,2.008-3.795,2.008
			c-1.613,0-2.832-0.55-3.656-1.65c-0.752-0.972-1.129-2.291-1.129-3.96c0-1.649,0.414-3.208,1.238-4.675
			c0.953-1.741,2.191-2.612,3.713-2.612c0.477,0,1.072,0.211,1.787,0.632C322.404,399.437,323.432,401.444,323.432,404.23z
			 M321.012,404.176c0-2.805-0.678-4.207-2.035-4.207c-0.973,0-1.705,0.596-2.199,1.787c-0.367,0.898-0.551,1.916-0.551,3.053
			c0,2.438,0.725,3.657,2.172,3.657c0.936,0,1.633-0.504,2.09-1.513C320.838,406.184,321.012,405.258,321.012,404.176z"/>
		<path fill="#FFFFFF" d="M334.211,406.871c0,0.861-0.367,1.613-1.1,2.255c-0.807,0.696-1.889,1.045-3.244,1.045
			c-0.588,0.019-1.221-0.101-1.898-0.357c-2.199-0.825-3.299-1.494-3.299-2.008c0-0.807,0.576-1.21,1.732-1.21
			c0.164,0,0.338,0.01,0.521,0.027c0.055,0.551,0.496,0.99,1.32,1.32c0.715,0.294,1.402,0.412,2.062,0.357
			c0.531-0.036,0.797-0.229,0.797-0.577c0-0.056-0.014-0.138-0.041-0.248c-0.027-0.109-0.041-0.196-0.041-0.261
			s-0.348-0.206-1.045-0.427c-0.789-0.237-1.229-0.375-1.32-0.412c-2.09-1.246-3.135-2.75-3.135-4.51
			c0-1.063,0.303-2.044,0.908-2.942c0.678-0.99,1.521-1.485,2.529-1.485c0.752,0,1.609,0.293,2.57,0.88
			c0.963,0.587,1.555,1.22,1.775,1.897c0.146,0.478,0.219,0.871,0.219,1.183c0,0.33-0.045,0.605-0.137,0.825
			c-0.109,0.274-0.221,0.55-0.33,0.825c-0.348,0.238-0.697,0.357-1.045,0.357c-0.184,0-0.49-0.114-0.922-0.344
			c-0.43-0.229-0.646-0.427-0.646-0.592c0-0.073,0.111-0.312,0.33-0.715c0.129-0.238,0.193-0.439,0.193-0.604
			c0-1.101-0.432-1.65-1.293-1.65c-0.514,0-0.908,0.33-1.182,0.99c-0.203,0.514-0.303,1.063-0.303,1.649
			c0,0.733,0.521,1.394,1.566,1.98c0.953,0.422,1.916,0.853,2.889,1.292C333.689,405.891,334.211,406.376,334.211,406.871z"/>
		<path fill="#FFFFFF" d="M338.941,399.061c0,0.33-0.074,0.798-0.221,1.403c-0.146,0.604-0.219,1.072-0.219,1.402v5.665
			c0,0.349,0.109,0.898,0.33,1.649c-0.279,0.422-0.584,0.633-0.918,0.633c-1.166,0-1.805-0.577-1.916-1.732
			c-0.184-2.146-0.273-3.758-0.273-4.84c0-1.815,0.072-3.337,0.219-4.565c0-0.092,0-0.183,0-0.274c0-0.33,0.254-0.495,0.764-0.495
			c0.453,0,0.908,0.092,1.363,0.274C338.65,398.383,338.941,398.676,338.941,399.061z M339.189,395.211
			c0,0.403-0.139,0.733-0.414,0.99c-0.273,0.257-0.613,0.385-1.018,0.385c-0.477,0-0.92-0.165-1.332-0.495
			c-0.414-0.33-0.619-0.733-0.619-1.21c0-0.403,0.141-0.733,0.426-0.99c0.283-0.256,0.637-0.385,1.059-0.385
			c0.496,0,0.936,0.161,1.32,0.481C338.996,394.309,339.189,394.716,339.189,395.211z"/>
		<path fill="#FFFFFF" d="M346.064,399.804c0,0.495-0.752,0.843-2.256,1.045c-0.037,0.403-0.055,1.319-0.055,2.75v1.814
			c0,0.367,0.055,0.908,0.166,1.623c0.109,0.715,0.164,1.247,0.164,1.595c0,0.294-0.146,0.555-0.439,0.784s-0.588,0.344-0.881,0.344
			c-0.457,0-0.844-0.395-1.154-1.183c-0.238-0.605-0.357-1.191-0.357-1.76v-5.83c-0.844-0.129-1.33-0.211-1.457-0.248
			c-0.479-0.146-0.715-0.357-0.715-0.633c0-0.072,0.018-0.155,0.055-0.247c0.477-0.678,1.008-1.018,1.594-1.018
			c0.037,0,0.092,0,0.166,0c0.072,0.019,0.127,0.027,0.164,0.027c0.385,0,0.568-0.449,0.551-1.348v-2.007
			c-0.092-0.202-0.139-0.376-0.139-0.522c0-0.238,0.141-0.454,0.424-0.646c0.281-0.192,0.549-0.289,0.803-0.289
			c0.381,0,0.744,0.179,1.09,0.536c0.344,0.357,0.518,0.738,0.518,1.142c0,0.44-0.068,0.876-0.207,1.307
			c-0.137,0.431-0.197,0.875-0.178,1.333v0.11C345.35,398.631,346.064,399.07,346.064,399.804z"/>
		<path fill="#FFFFFF" d="M350.463,399.061c0,0.33-0.072,0.798-0.219,1.403c-0.146,0.604-0.221,1.072-0.221,1.402v5.665
			c0,0.349,0.109,0.898,0.33,1.649c-0.277,0.422-0.582,0.633-0.916,0.633c-1.166,0-1.805-0.577-1.916-1.732
			c-0.184-2.146-0.275-3.758-0.275-4.84c0-1.815,0.072-3.337,0.221-4.565c0-0.092,0-0.183,0-0.274c0-0.33,0.254-0.495,0.762-0.495
			c0.455,0,0.908,0.092,1.363,0.274C350.172,398.383,350.463,398.676,350.463,399.061z M350.711,395.211
			c0,0.403-0.137,0.733-0.412,0.99s-0.615,0.385-1.018,0.385c-0.477,0-0.922-0.165-1.334-0.495s-0.619-0.733-0.619-1.21
			c0-0.403,0.143-0.733,0.428-0.99c0.283-0.256,0.637-0.385,1.059-0.385c0.494,0,0.934,0.161,1.318,0.481
			C350.52,394.309,350.711,394.716,350.711,395.211z"/>
		<path fill="#FFFFFF" d="M361.023,404.23c0,1.65-0.412,3.062-1.238,4.235c-0.953,1.338-2.217,2.008-3.795,2.008
			c-1.613,0-2.832-0.55-3.656-1.65c-0.752-0.972-1.129-2.291-1.129-3.96c0-1.649,0.414-3.208,1.238-4.675
			c0.953-1.741,2.191-2.612,3.713-2.612c0.477,0,1.072,0.211,1.787,0.632C359.996,399.437,361.023,401.444,361.023,404.23z
			 M358.604,404.176c0-2.805-0.678-4.207-2.035-4.207c-0.973,0-1.705,0.596-2.199,1.787c-0.367,0.898-0.551,1.916-0.551,3.053
			c0,2.438,0.725,3.657,2.172,3.657c0.936,0,1.633-0.504,2.09-1.513C358.43,406.184,358.604,405.258,358.604,404.176z"/>
		<path fill="#FFFFFF" d="M372.572,409.456c-0.273,0.422-0.613,0.633-1.018,0.633c-0.311,0-0.824-0.184-1.539-0.551v-0.33
			c0-0.402,0.01-0.999,0.027-1.787s0.027-1.365,0.027-1.732c0-3.923-0.584-5.885-1.75-5.885c-0.328,0-0.701,0.257-1.121,0.77
			c-1.295,1.577-1.941,3.475-1.941,5.692c0,0.312,0.059,0.775,0.18,1.389c0.119,0.615,0.178,1.077,0.178,1.389
			c0,0.258-0.119,0.468-0.357,0.633s-0.494,0.248-0.77,0.248c-1.1,0-1.65-0.697-1.65-2.091v-5.747c0-0.146,0.018-0.361,0.055-0.646
			c0.037-0.284,0.055-0.499,0.055-0.646c0-0.22-0.031-0.54-0.096-0.962s-0.096-0.733-0.096-0.936c0-0.293,0.17-0.572,0.508-0.838
			c0.34-0.266,0.646-0.399,0.922-0.399c0.402,0,0.816,0.229,1.238,0.688l-0.084,1.101c0.68-1.082,1.514-1.623,2.504-1.623
			c0.641,0,1.318,0.22,2.035,0.66c0.715,0.44,1.236,0.935,1.566,1.485c0.752,1.394,1.127,3.227,1.127,5.5V409.456z"/>
		<path fill="#FFFFFF" d="M378.43,408.549c0,0.312-0.273,0.618-0.824,0.921s-1.008,0.454-1.375,0.454
			c-0.404,0-0.834-0.156-1.293-0.468s-0.688-0.678-0.688-1.101c0-0.366,0.188-0.691,0.564-0.976
			c0.375-0.284,0.766-0.427,1.168-0.427c0.496,0,1.008,0.147,1.541,0.44C378.127,407.742,378.43,408.127,378.43,408.549z"/>
	</g>
</g>
<circle fill="#ED342A" stroke="#FFFFFF" stroke-miterlimit="10" cx="140.931" cy="410.312" r="25.181"/>
</svg>
