<?xml version="1.0" encoding="utf-8"?>
<!-- Generator: Adobe Illustrator 15.0.0, SVG Export Plug-In  -->
<!DOCTYPE svg PUBLIC "-//W3C//DTD SVG 1.1//EN" "http://www.w3.org/Graphics/SVG/1.1/DTD/svg11.dtd" [
	<!ENTITY ns_flows "http://ns.adobe.com/Flows/1.0/">
]>
<svg version="1.1"
	 xmlns="http://www.w3.org/2000/svg" xmlns:xlink="http://www.w3.org/1999/xlink" xmlns:a="http://ns.adobe.com/AdobeSVGViewerExtensions/3.0/"
	 x="0px" y="0px" width="320px" height="530px" viewBox="0 1.799 320 530"
	 overflow="visible" enable-background="new 0 1.799 320 530" xml:space="preserve">
<defs>
</defs>
<g opacity="0.88">
	<g>
		<path fill="#231F20" d="M0,0v533.333h320V0H0z M314.846,323.156c0,8.066-6.601,14.667-14.667,14.667H19.82
			c-8.067,0-14.667-6.601-14.667-14.667v-24.371c0-8.066,6.6-14.667,14.667-14.667h280.358c8.066,0,14.667,6.601,14.667,14.667
			V323.156z"/>
	</g>
</g>
<g>
	<g>
		<path fill="#FFFFFF" d="M228.034,510.697h-3.235l-1.315,8.815h-0.774l1.314-8.815h-3.333l0.098-0.664h7.344L228.034,510.697z"/>
		<path fill="#FFFFFF" d="M233.073,516.869h-4.154l-1.354,2.644h-0.808l4.902-9.479h0.735l2.038,9.479h-0.808L233.073,516.869z
			 M229.277,516.173h3.652l-1.042-5.02l-0.039-0.007L229.277,516.173z"/>
		<path fill="#FFFFFF" d="M237.267,515.574l-0.586,3.938h-0.781l1.419-9.479h3.269c0.95,0,1.671,0.257,2.161,0.769
			s0.675,1.179,0.554,1.999c-0.135,0.872-0.507,1.553-1.117,2.041c-0.609,0.488-1.418,0.732-2.425,0.732H237.267z M237.37,514.91
			h2.487c0.746,0,1.354-0.202,1.819-0.605c0.467-0.404,0.746-0.901,0.837-1.491c0.096-0.629-0.021-1.14-0.349-1.53
			c-0.327-0.391-0.886-0.586-1.676-0.586h-2.487L237.37,514.91z"/>
		<path fill="#FFFFFF" d="M255.131,510.697h-3.235l-1.315,8.815h-0.774l1.314-8.815h-3.333l0.098-0.664h7.344L255.131,510.697z"/>
		<path fill="#FFFFFF" d="M262.695,515.548c-0.19,1.271-0.673,2.273-1.445,3.005s-1.729,1.097-2.871,1.097
			c-1.067,0-1.887-0.381-2.457-1.143c-0.571-0.762-0.766-1.748-0.583-2.959l0.234-1.543c0.191-1.268,0.668-2.269,1.433-3.005
			c0.764-0.735,1.708-1.104,2.832-1.104c1.085,0,1.916,0.384,2.493,1.149s0.777,1.752,0.599,2.959L262.695,515.548z
			 M262.155,513.992c0.16-1.063,0.029-1.898-0.394-2.504c-0.424-0.605-1.1-0.908-2.028-0.908c-0.868,0-1.61,0.316-2.227,0.947
			c-0.616,0.632-1,1.453-1.152,2.465l-0.234,1.556c-0.165,1.072-0.042,1.911,0.368,2.517s1.073,0.908,1.988,0.908
			c0.89,0,1.648-0.315,2.275-0.944c0.628-0.629,1.017-1.456,1.169-2.48L262.155,513.992z"/>
		<path fill="#FFFFFF" d="M274.33,516.551l0.013,0.039c-0.126,0.968-0.537,1.72-1.233,2.256s-1.562,0.804-2.595,0.804
			c-1.016,0-1.8-0.384-2.354-1.152c-0.553-0.769-0.738-1.751-0.557-2.949l0.234-1.543c0.187-1.25,0.657-2.247,1.41-2.991
			c0.753-0.745,1.663-1.117,2.73-1.117c0.99,0,1.763,0.273,2.318,0.82s0.753,1.292,0.592,2.233l-0.02,0.039h-0.729
			c0.121-0.79-0.019-1.393-0.42-1.807s-1.017-0.622-1.846-0.622c-0.795,0-1.5,0.323-2.116,0.971
			c-0.616,0.646-0.998,1.467-1.146,2.461l-0.234,1.556c-0.156,1.051-0.033,1.887,0.371,2.51c0.403,0.623,1.024,0.935,1.861,0.935
			c0.79,0,1.456-0.211,1.999-0.632s0.875-1.024,0.996-1.81H274.33z"/>
		<path fill="#FFFFFF" d="M276.791,518.855h4.896l-0.098,0.657h-5.677l1.419-9.479h0.781L276.791,518.855z"/>
		<path fill="#FFFFFF" d="M290.378,515.548c-0.19,1.271-0.673,2.273-1.445,3.005s-1.729,1.097-2.871,1.097
			c-1.067,0-1.887-0.381-2.457-1.143c-0.571-0.762-0.766-1.748-0.583-2.959l0.234-1.543c0.191-1.268,0.668-2.269,1.433-3.005
			c0.764-0.735,1.708-1.104,2.832-1.104c1.085,0,1.916,0.384,2.493,1.149s0.777,1.752,0.599,2.959L290.378,515.548z
			 M289.838,513.992c0.16-1.063,0.029-1.898-0.394-2.504c-0.424-0.605-1.1-0.908-2.028-0.908c-0.868,0-1.61,0.316-2.227,0.947
			c-0.616,0.632-1,1.453-1.152,2.465l-0.234,1.556c-0.165,1.072-0.042,1.911,0.368,2.517s1.073,0.908,1.988,0.908
			c0.89,0,1.648-0.315,2.275-0.944c0.628-0.629,1.017-1.456,1.169-2.48L289.838,513.992z"/>
		<path fill="#FFFFFF" d="M297.656,517.449c0.082-0.573-0.042-1.023-0.374-1.352c-0.332-0.327-0.974-0.656-1.924-0.986
			c-1.007-0.334-1.737-0.714-2.191-1.139c-0.453-0.426-0.619-1.044-0.498-1.855c0.104-0.694,0.449-1.238,1.035-1.631
			c0.586-0.394,1.298-0.59,2.136-0.59c0.955,0,1.703,0.253,2.246,0.759s0.74,1.194,0.593,2.067l-0.014,0.039h-0.729
			c0.095-0.655-0.059-1.187-0.463-1.592c-0.403-0.406-0.982-0.609-1.738-0.609c-0.603,0-1.119,0.152-1.549,0.456
			s-0.675,0.666-0.736,1.087c-0.091,0.577,0.018,1.026,0.326,1.348c0.308,0.321,0.948,0.649,1.92,0.983
			c1.012,0.339,1.751,0.727,2.217,1.165c0.467,0.438,0.642,1.051,0.524,1.836c-0.108,0.717-0.471,1.265-1.087,1.645
			s-1.374,0.569-2.272,0.569c-0.941,0-1.735-0.229-2.38-0.687s-0.882-1.169-0.713-2.133l0.014-0.039h0.723
			c-0.122,0.799,0.069,1.365,0.572,1.699c0.504,0.335,1.131,0.502,1.882,0.502c0.625,0,1.178-0.15,1.657-0.449
			C297.312,518.243,297.587,517.879,297.656,517.449z"/>
		<path fill="#FFFFFF" d="M305.548,514.923h-4.258l-0.586,3.933h4.915l-0.098,0.657h-5.696l1.419-9.479h5.664l-0.098,0.664h-4.883
			l-0.534,3.562h4.252L305.548,514.923z"/>
		<path fill="#FFFFFF" d="M219.577,520.814v-0.65h86.907v0.65H219.577z"/>
	</g>
</g>
<g>
	<g>
		<path fill="#FFFFFF" d="M128.777,246.176c0,0.269-0.019,0.507-0.055,0.715c-0.478,2.823-1.815,4.235-4.016,4.235
			c-1.124,0-2.133-0.287-3.024-0.862v0.386c-0.013,0.818,0.061,1.381,0.22,1.687c0.231,0.428,0.349,0.672,0.349,0.733
			c0,0.244-0.096,0.458-0.284,0.642c-0.19,0.183-0.407,0.274-0.651,0.274c-0.55,0-0.923-0.195-1.118-0.586
			c-0.11-0.232-0.184-0.666-0.22-1.302c-0.025-0.416-0.037-0.893-0.037-1.431c0-0.207,0.027-0.52,0.083-0.935
			c0.055-0.415,0.082-0.733,0.082-0.953v-1.247c-0.013-0.366,0.012-0.907,0.073-1.622c0.062-0.716,0.092-1.244,0.092-1.586v-1.65
			c0-0.024-0.055-0.354-0.165-0.99c0.314-0.293,0.611-0.439,0.89-0.439c0.327,0,0.588,0.119,0.781,0.357s0.291,0.528,0.291,0.871
			c0,0.085,0,0.171,0,0.256c0.807-1.062,1.827-1.595,3.062-1.595c1.161,0,2.078,0.435,2.75,1.302
			c0.599,0.782,0.898,1.772,0.898,2.97c0,0.086,0,0.214,0,0.386C128.777,245.962,128.777,246.09,128.777,246.176z M127.108,245.882
			c0-0.843-0.128-1.563-0.385-2.163c-0.354-0.807-0.898-1.21-1.632-1.21c-0.94,0-1.748,0.575-2.42,1.724
			c-0.599,1.002-0.898,2.011-0.898,3.024c0,1.699,0.855,2.549,2.567,2.549c0.916,0,1.589-0.397,2.017-1.191
			c0.244-0.44,0.477-1.24,0.696-2.402C127.091,245.98,127.108,245.87,127.108,245.882z"/>
		<path fill="#FFFFFF" d="M134.846,247.459c0,0.086-0.013,0.22-0.037,0.403c-0.257,0.366-0.525,0.55-0.807,0.55
			c-0.232,0-0.439-0.134-0.623-0.403c-0.024-0.55-0.22-0.825-0.587-0.825c-0.22,0-0.488,0.581-0.807,1.742
			c-0.146,0.513-0.22,1.229-0.22,2.145c0,0.868,0.04,1.394,0.12,1.577c0.091,0.232,0.137,0.392,0.137,0.477
			c0,0.208-0.094,0.376-0.282,0.504c-0.188,0.129-0.396,0.192-0.626,0.192c-0.653,0-0.98-0.305-0.98-0.916
			c0-0.062,0.016-0.147,0.046-0.257c0.03-0.11,0.046-0.189,0.046-0.238c0-0.624-0.03-1.55-0.092-2.777
			c-0.062-1.229-0.092-2.148-0.092-2.76c0-0.55,0.33-0.825,0.99-0.825c0.391,0,0.66,0.117,0.807,0.349
			c0.342-0.379,0.728-0.568,1.155-0.568c0.293,0,0.574,0.08,0.843,0.238c0.184,0.099,0.397,0.309,0.642,0.633
			C134.724,247.022,134.846,247.275,134.846,247.459z"/>
		<path fill="#FFFFFF" d="M141.336,252.152c0,0.611-0.416,1.088-1.247,1.43c-0.647,0.269-1.326,0.403-2.035,0.403
			c-1.882,0-2.823-1.069-2.823-3.208c0-0.88,0.214-1.857,0.642-2.934c0.525-1.319,1.161-1.979,1.907-1.979
			c0.672,0,1.396,0.3,2.173,0.898c0.775,0.599,1.164,1.222,1.164,1.869c0,0.807-0.361,1.449-1.082,1.926
			c-0.636,0.428-1.394,0.642-2.273,0.642c-0.171,0-0.446-0.104-0.825-0.312c0.049,1.161,0.392,1.741,1.027,1.741
			c0.537,0,1.065-0.152,1.585-0.458s0.853-0.459,1-0.459C141.073,251.712,141.336,251.859,141.336,252.152z M139.338,248.688
			c0-0.306-0.089-0.596-0.267-0.871c-0.177-0.275-0.412-0.412-0.705-0.412c-0.403,0-0.716,0.177-0.936,0.531
			c-0.184,0.306-0.274,0.666-0.274,1.082c0,0.232,0.079,0.421,0.238,0.568c0.158,0.146,0.36,0.22,0.604,0.22
			C138.892,249.806,139.338,249.433,139.338,248.688z"/>
		<path fill="#FFFFFF" d="M148.266,251.914c0,0.574-0.245,1.075-0.733,1.503c-0.538,0.465-1.259,0.697-2.163,0.697
			c-0.392,0.012-0.813-0.067-1.266-0.238c-1.467-0.551-2.2-0.996-2.2-1.339c0-0.537,0.386-0.807,1.155-0.807
			c0.11,0,0.227,0.007,0.349,0.019c0.036,0.366,0.33,0.66,0.88,0.88c0.477,0.195,0.935,0.275,1.375,0.238
			c0.354-0.024,0.531-0.152,0.531-0.385c0-0.037-0.009-0.092-0.027-0.165s-0.027-0.131-0.027-0.174s-0.232-0.138-0.696-0.284
			c-0.526-0.159-0.819-0.251-0.88-0.275c-1.394-0.831-2.091-1.833-2.091-3.007c0-0.709,0.202-1.362,0.605-1.962
			c0.452-0.659,1.015-0.989,1.687-0.989c0.501,0,1.072,0.195,1.714,0.586c0.642,0.392,1.036,0.813,1.183,1.266
			c0.098,0.317,0.146,0.58,0.146,0.788c0,0.22-0.03,0.403-0.091,0.55c-0.074,0.184-0.147,0.367-0.221,0.55
			c-0.232,0.159-0.465,0.238-0.696,0.238c-0.122,0-0.327-0.076-0.614-0.229c-0.287-0.153-0.431-0.284-0.431-0.395
			c0-0.049,0.073-0.208,0.22-0.477c0.085-0.158,0.128-0.293,0.128-0.403c0-0.733-0.287-1.1-0.861-1.1
			c-0.342,0-0.604,0.22-0.788,0.659c-0.135,0.343-0.202,0.709-0.202,1.101c0,0.489,0.349,0.929,1.045,1.32
			c0.636,0.281,1.277,0.568,1.926,0.861C147.917,251.261,148.266,251.584,148.266,251.914z"/>
		<path fill="#FFFFFF" d="M154.902,251.914c0,0.574-0.245,1.075-0.733,1.503c-0.538,0.465-1.259,0.697-2.163,0.697
			c-0.392,0.012-0.813-0.067-1.266-0.238c-1.467-0.551-2.2-0.996-2.2-1.339c0-0.537,0.386-0.807,1.155-0.807
			c0.11,0,0.227,0.007,0.349,0.019c0.036,0.366,0.33,0.66,0.88,0.88c0.477,0.195,0.935,0.275,1.375,0.238
			c0.354-0.024,0.531-0.152,0.531-0.385c0-0.037-0.009-0.092-0.027-0.165s-0.027-0.131-0.027-0.174s-0.232-0.138-0.696-0.284
			c-0.526-0.159-0.819-0.251-0.88-0.275c-1.394-0.831-2.091-1.833-2.091-3.007c0-0.709,0.202-1.362,0.605-1.962
			c0.452-0.659,1.015-0.989,1.687-0.989c0.501,0,1.072,0.195,1.714,0.586c0.642,0.392,1.036,0.813,1.183,1.266
			c0.098,0.317,0.146,0.58,0.146,0.788c0,0.22-0.03,0.403-0.091,0.55c-0.074,0.184-0.147,0.367-0.221,0.55
			c-0.232,0.159-0.465,0.238-0.696,0.238c-0.122,0-0.327-0.076-0.614-0.229c-0.287-0.153-0.431-0.284-0.431-0.395
			c0-0.049,0.073-0.208,0.22-0.477c0.085-0.158,0.128-0.293,0.128-0.403c0-0.733-0.287-1.1-0.861-1.1
			c-0.342,0-0.604,0.22-0.788,0.659c-0.135,0.343-0.202,0.709-0.202,1.101c0,0.489,0.349,0.929,1.045,1.32
			c0.636,0.281,1.277,0.568,1.926,0.861C154.554,251.261,154.902,251.584,154.902,251.914z"/>
		<path fill="#FFFFFF" d="M165.591,250.649c0,1.576-0.049,2.688-0.146,3.336c-0.062,0.379-0.318,0.568-0.771,0.568
			c-0.685,0-0.99-0.342-0.917-1.026c-0.611,0.293-1.246,0.44-1.906,0.44c-0.636,0-1.24-0.159-1.815-0.478
			c-0.685-0.378-1.026-0.861-1.026-1.448c0-0.574,0.392-1.111,1.174-1.613c0.708-0.452,1.375-0.678,1.998-0.678h1.559v-0.437
			c0.012-1.273-0.367-1.91-1.137-1.91c-0.966,0-1.448,0.447-1.448,1.343c0,0.303-0.172,0.453-0.514,0.453
			c-0.208,0-0.425-0.094-0.651-0.284c-0.226-0.188-0.339-0.388-0.339-0.596c0-0.684,0.244-1.246,0.733-1.687
			c0.489-0.439,1.075-0.66,1.76-0.66C164.441,245.974,165.591,247.532,165.591,250.649z M163.739,251.309
			c0-0.244-0.184-0.366-0.551-0.366c-1.527,0-2.291,0.36-2.291,1.082c0,0.391,0.336,0.586,1.008,0.586
			c0.416,0,0.807-0.116,1.174-0.348C163.519,252.006,163.739,251.688,163.739,251.309z"/>
		<path fill="#FFFFFF" d="M173.583,253.638c-0.184,0.28-0.409,0.421-0.678,0.421c-0.208,0-0.551-0.122-1.027-0.366v-0.22
			c0-0.27,0.006-0.666,0.019-1.192c0.012-0.525,0.019-0.91,0.019-1.154c0-2.615-0.39-3.924-1.167-3.924
			c-0.219,0-0.468,0.172-0.747,0.514c-0.863,1.051-1.295,2.316-1.295,3.795c0,0.208,0.04,0.517,0.12,0.926
			c0.079,0.409,0.119,0.718,0.119,0.926c0,0.171-0.08,0.312-0.239,0.422c-0.158,0.109-0.329,0.165-0.513,0.165
			c-0.733,0-1.101-0.465-1.101-1.394v-3.832c0-0.098,0.013-0.241,0.037-0.431s0.037-0.333,0.037-0.431
			c0-0.146-0.021-0.36-0.064-0.642s-0.064-0.489-0.064-0.623c0-0.195,0.113-0.382,0.339-0.56c0.227-0.177,0.432-0.266,0.614-0.266
			c0.269,0,0.544,0.152,0.825,0.458l-0.055,0.733c0.452-0.721,1.008-1.082,1.668-1.082c0.428,0,0.88,0.147,1.356,0.44
			c0.478,0.293,0.825,0.623,1.045,0.99c0.502,0.929,0.752,2.151,0.752,3.666V253.638z"/>
		<path fill="#FFFFFF" d="M181.209,242.619c0,0.269-0.036,0.617-0.109,1.045c-0.099,0.574-0.159,0.917-0.184,1.026
			c-0.036,0.379-0.095,1.497-0.174,3.355c-0.08,1.857-0.119,2.885-0.119,3.08c0,1.173,0.128,2.053,0.385,2.64
			c-0.208,0.342-0.446,0.514-0.715,0.514c-0.281,0-0.532-0.107-0.752-0.321s-0.342-0.461-0.366-0.742
			c-0.575,0.525-1.162,0.788-1.761,0.788c-0.892,0-1.583-0.312-2.071-0.935c-0.452-0.562-0.679-1.302-0.679-2.219
			c0-1.075,0.221-2.169,0.66-3.281c0.562-1.405,1.296-2.108,2.2-2.108c0.538,0,1.088,0.238,1.65,0.715
			c0.061-0.574,0.091-2.041,0.091-4.4c0-0.22,0.165-0.33,0.495-0.33c0.392,0,0.73,0.099,1.018,0.294
			S181.209,242.228,181.209,242.619z M179.083,248.834c0-0.415-0.092-0.794-0.275-1.137c-0.232-0.415-0.538-0.623-0.917-0.623
			c-0.55,0-0.972,0.544-1.265,1.632c-0.22,0.782-0.33,1.552-0.33,2.31c0,1.137,0.33,1.705,0.99,1.705
			c0.685,0,1.18-0.507,1.485-1.521C178.979,250.515,179.083,249.727,179.083,248.834z"/>
		<path fill="#FFFFFF" d="M191.128,254.059c-0.232,0.232-0.538,0.349-0.916,0.349c-0.257,0-0.521-0.159-0.789-0.477
			c0-1.075,0-1.906,0-2.493c0-2.714-0.391-4.07-1.173-4.07c-0.807,0-1.21,1.094-1.21,3.282c0,0.122,0,0.299,0,0.531s0,0.409,0,0.531
			c0,0.184,0.03,0.462,0.092,0.835c0.061,0.372,0.092,0.65,0.092,0.834c0,0.159-0.096,0.303-0.284,0.431
			c-0.19,0.128-0.364,0.192-0.522,0.192c-0.306,0-0.566-0.125-0.779-0.376c-0.214-0.251-0.321-0.529-0.321-0.836l0.073-10.611
			c0-0.037,0-0.086,0-0.147s0-0.104,0-0.128c0-0.441,0.244-0.661,0.733-0.661c0.232,0,0.501,0.107,0.807,0.322
			s0.458,0.432,0.458,0.652c0,0.271-0.058,0.669-0.174,1.196c-0.116,0.528-0.174,0.927-0.174,1.196c0,0.344,0.012,0.89,0.036,1.638
			c0.269-0.159,0.495-0.238,0.679-0.238c0.477,0,0.996,0.116,1.559,0.349c0.721,0.306,1.222,0.8,1.503,1.484
			c0.208,0.514,0.312,1.223,0.312,2.127V254.059z"/>
		<path fill="#FFFFFF" d="M198.607,250.154c0,1.1-0.274,2.041-0.824,2.823c-0.636,0.892-1.479,1.338-2.53,1.338
			c-1.076,0-1.889-0.366-2.438-1.1c-0.501-0.647-0.752-1.528-0.752-2.641c0-1.1,0.275-2.139,0.825-3.116
			c0.636-1.161,1.46-1.741,2.475-1.741c0.318,0,0.716,0.141,1.192,0.421C197.923,246.958,198.607,248.296,198.607,250.154z
			 M196.994,250.117c0-1.87-0.452-2.805-1.356-2.805c-0.647,0-1.137,0.397-1.467,1.191c-0.244,0.599-0.366,1.277-0.366,2.035
			c0,1.626,0.482,2.438,1.448,2.438c0.623,0,1.088-0.336,1.394-1.009C196.878,251.456,196.994,250.839,196.994,250.117z"/>
		<path fill="#FFFFFF" d="M201.907,253.271c0,0.22-0.089,0.406-0.266,0.56c-0.177,0.152-0.382,0.229-0.614,0.229
			c-0.77,0-1.154-1.008-1.154-3.024c0-0.917,0.009-2.292,0.027-4.125c0.018-1.834,0.027-3.209,0.027-4.125
			c0-0.146-0.019-0.36-0.055-0.642c-0.037-0.281-0.056-0.489-0.056-0.624c0.403-0.269,0.722-0.403,0.953-0.403
			c0.27,0,0.525,0.089,0.771,0.267c0.244,0.177,0.366,0.4,0.366,0.669c0,0.135-0.03,0.293-0.091,0.477
			c-0.086,0.293-0.135,0.452-0.147,0.477c-0.158,0.758-0.238,1.833-0.238,3.227c0,2.213,0,3.35,0,3.41
			c0.037,1.54,0.165,2.615,0.386,3.227C201.877,253.039,201.907,253.173,201.907,253.271z"/>
		<path fill="#FFFFFF" d="M209.222,242.619c0,0.269-0.036,0.617-0.109,1.045c-0.099,0.574-0.159,0.917-0.184,1.026
			c-0.036,0.379-0.095,1.497-0.174,3.355c-0.08,1.857-0.119,2.885-0.119,3.08c0,1.173,0.128,2.053,0.385,2.64
			c-0.208,0.342-0.446,0.514-0.715,0.514c-0.281,0-0.532-0.107-0.752-0.321s-0.342-0.461-0.366-0.742
			c-0.575,0.525-1.162,0.788-1.761,0.788c-0.892,0-1.583-0.312-2.071-0.935c-0.452-0.562-0.679-1.302-0.679-2.219
			c0-1.075,0.221-2.169,0.66-3.281c0.562-1.405,1.296-2.108,2.2-2.108c0.538,0,1.088,0.238,1.65,0.715
			c0.061-0.574,0.091-2.041,0.091-4.4c0-0.22,0.165-0.33,0.495-0.33c0.392,0,0.73,0.099,1.018,0.294
			S209.222,242.228,209.222,242.619z M207.096,248.834c0-0.415-0.092-0.794-0.275-1.137c-0.232-0.415-0.538-0.623-0.917-0.623
			c-0.55,0-0.972,0.544-1.265,1.632c-0.22,0.782-0.33,1.552-0.33,2.31c0,1.137,0.33,1.705,0.99,1.705
			c0.685,0,1.18-0.507,1.485-1.521C206.991,250.515,207.096,249.727,207.096,248.834z"/>
		<path fill="#FFFFFF" d="M219.911,250.649c0,1.576-0.049,2.688-0.146,3.336c-0.062,0.379-0.318,0.568-0.771,0.568
			c-0.685,0-0.99-0.342-0.917-1.026c-0.611,0.293-1.246,0.44-1.906,0.44c-0.636,0-1.24-0.159-1.815-0.478
			c-0.685-0.378-1.026-0.861-1.026-1.448c0-0.574,0.392-1.111,1.174-1.613c0.708-0.452,1.375-0.678,1.998-0.678h1.559v-0.437
			c0.012-1.273-0.367-1.91-1.137-1.91c-0.966,0-1.448,0.447-1.448,1.343c0,0.303-0.172,0.453-0.514,0.453
			c-0.208,0-0.425-0.094-0.651-0.284c-0.226-0.188-0.339-0.388-0.339-0.596c0-0.684,0.244-1.246,0.733-1.687
			c0.489-0.439,1.075-0.66,1.76-0.66C218.762,245.974,219.911,247.532,219.911,250.649z M218.06,251.309
			c0-0.244-0.184-0.366-0.551-0.366c-1.527,0-2.291,0.36-2.291,1.082c0,0.391,0.336,0.586,1.008,0.586
			c0.416,0,0.807-0.116,1.174-0.348C217.839,252.006,218.06,251.688,218.06,251.309z"/>
		<path fill="#FFFFFF" d="M230.543,251.694c0,0.379-0.287,0.824-0.861,1.338c-0.514,0.477-0.975,0.776-1.385,0.898
			c-0.409,0.122-0.797,0.184-1.164,0.184c-0.966,0-1.72-0.306-2.264-0.917s-0.816-1.399-0.816-2.365c0-0.94,0.251-1.992,0.752-3.153
			c0.599-1.394,1.296-2.09,2.09-2.09c0.44,0,0.972,0.172,1.596,0.514c0.659,0.379,1.045,0.758,1.154,1.137
			c0.098,0.33,0.146,0.703,0.146,1.118c0,0.379-0.079,0.807-0.238,1.283c-0.195,0.611-0.439,0.917-0.733,0.917
			c-0.208,0-0.403-0.062-0.586-0.183c-0.221-0.134-0.33-0.298-0.33-0.492c0-0.013,0.055-0.152,0.165-0.42
			c0.061-0.121,0.092-0.456,0.092-1.003c0-0.45-0.019-0.742-0.056-0.876c-0.073-0.377-0.244-0.565-0.513-0.565
			c-0.6,0-1.063,0.519-1.394,1.554c-0.245,0.768-0.367,1.541-0.367,2.321c0,1.304,0.416,1.955,1.247,1.955
			c0.33,0,0.709-0.171,1.137-0.513c0.391-0.318,0.666-0.642,0.825-0.972c0.195-0.392,0.434-0.587,0.715-0.587
			c0.184,0,0.36,0.107,0.531,0.32C230.457,251.312,230.543,251.511,230.543,251.694z"/>
		<path fill="#FFFFFF" d="M233.586,253.271c0,0.22-0.089,0.406-0.266,0.56c-0.177,0.152-0.382,0.229-0.614,0.229
			c-0.77,0-1.154-1.008-1.154-3.024c0-0.917,0.009-2.292,0.027-4.125c0.018-1.834,0.027-3.209,0.027-4.125
			c0-0.146-0.019-0.36-0.055-0.642c-0.037-0.281-0.056-0.489-0.056-0.624c0.403-0.269,0.722-0.403,0.953-0.403
			c0.27,0,0.525,0.089,0.771,0.267c0.244,0.177,0.366,0.4,0.366,0.669c0,0.135-0.03,0.293-0.091,0.477
			c-0.086,0.293-0.135,0.452-0.147,0.477c-0.158,0.758-0.238,1.833-0.238,3.227c0,2.213,0,3.35,0,3.41
			c0.037,1.54,0.165,2.615,0.386,3.227C233.556,253.039,233.586,253.173,233.586,253.271z"/>
		<path fill="#FFFFFF" d="M236.648,246.707c0,0.221-0.049,0.532-0.146,0.936c-0.099,0.403-0.147,0.715-0.147,0.935v3.776
			c0,0.232,0.074,0.6,0.221,1.101c-0.186,0.281-0.389,0.422-0.611,0.422c-0.777,0-1.203-0.386-1.277-1.155
			c-0.122-1.43-0.184-2.506-0.184-3.227c0-1.21,0.049-2.225,0.147-3.044c0-0.061,0-0.122,0-0.183c0-0.221,0.169-0.33,0.509-0.33
			c0.302,0,0.604,0.062,0.908,0.184C236.454,246.255,236.648,246.45,236.648,246.707z M236.813,244.141
			c0,0.269-0.092,0.489-0.275,0.66s-0.409,0.257-0.678,0.257c-0.318,0-0.614-0.11-0.89-0.33c-0.275-0.221-0.412-0.489-0.412-0.807
			c0-0.269,0.094-0.489,0.284-0.66c0.189-0.171,0.424-0.257,0.705-0.257c0.33,0,0.624,0.107,0.881,0.321
			C236.685,243.539,236.813,243.811,236.813,244.141z"/>
		<path fill="#FFFFFF" d="M243.908,249.402c0,1.247-0.22,2.304-0.66,3.172c-0.55,1.124-1.381,1.687-2.493,1.687
			c-0.599,0-1.112-0.172-1.54-0.514c0,0.135,0,0.318,0,0.55c0,0.27,0,0.452,0,0.551c0,1.173,0.135,2.096,0.403,2.768
			c0.122,0.27,0.184,0.44,0.184,0.514c0,0.415-0.245,0.623-0.733,0.623c-0.367,0-0.642-0.067-0.825-0.201
			c-0.135-0.086-0.269-0.392-0.403-0.917c-0.11-0.465-0.165-0.818-0.165-1.063v-4.418c0-0.403,0.024-0.953,0.073-1.65
			c0.049-0.781,0.079-1.325,0.092-1.631c0.012-0.306,0.012-0.709,0-1.211c0-0.635,0-1.045,0-1.228c0-1.039,0.339-1.559,1.016-1.559
			c0.169,0,0.326,0.058,0.472,0.174c0.145,0.116,0.218,0.254,0.218,0.413c0,0.269-0.03,0.758-0.092,1.467
			c0.477-0.673,1.051-1.009,1.724-1.009c0.904,0,1.601,0.366,2.09,1.1C243.694,247.654,243.908,248.449,243.908,249.402z
			 M242.276,249.237c0-1.32-0.283-1.98-0.849-1.98c-0.245,0-0.565,0.239-0.959,0.716c-0.763,0.916-1.181,2.182-1.254,3.795
			c0.136,0.073,0.375,0.33,0.72,0.77c0.271,0.33,0.541,0.495,0.812,0.495C241.766,253.032,242.276,251.768,242.276,249.237z"/>
		<path fill="#FFFFFF" d="M250.159,246.707c0,0.221-0.049,0.532-0.146,0.936c-0.099,0.403-0.147,0.715-0.147,0.935v3.776
			c0,0.232,0.074,0.6,0.221,1.101c-0.186,0.281-0.389,0.422-0.611,0.422c-0.777,0-1.203-0.386-1.277-1.155
			c-0.122-1.43-0.184-2.506-0.184-3.227c0-1.21,0.049-2.225,0.147-3.044c0-0.061,0-0.122,0-0.183c0-0.221,0.169-0.33,0.509-0.33
			c0.302,0,0.604,0.062,0.908,0.184C249.965,246.255,250.159,246.45,250.159,246.707z M250.324,244.141
			c0,0.269-0.092,0.489-0.275,0.66s-0.409,0.257-0.678,0.257c-0.318,0-0.614-0.11-0.89-0.33c-0.275-0.221-0.412-0.489-0.412-0.807
			c0-0.269,0.094-0.489,0.284-0.66c0.189-0.171,0.424-0.257,0.705-0.257c0.33,0,0.624,0.107,0.881,0.321
			C250.195,243.539,250.324,243.811,250.324,244.141z"/>
		<path fill="#FFFFFF" d="M257.492,251.694c0,0.379-0.287,0.824-0.861,1.338c-0.514,0.477-0.975,0.776-1.385,0.898
			c-0.409,0.122-0.797,0.184-1.164,0.184c-0.966,0-1.72-0.306-2.264-0.917s-0.816-1.399-0.816-2.365c0-0.94,0.251-1.992,0.752-3.153
			c0.599-1.394,1.296-2.09,2.09-2.09c0.44,0,0.972,0.172,1.596,0.514c0.659,0.379,1.045,0.758,1.154,1.137
			c0.098,0.33,0.146,0.703,0.146,1.118c0,0.379-0.079,0.807-0.238,1.283c-0.195,0.611-0.439,0.917-0.733,0.917
			c-0.208,0-0.403-0.062-0.586-0.183c-0.221-0.134-0.33-0.298-0.33-0.492c0-0.013,0.055-0.152,0.165-0.42
			c0.061-0.121,0.092-0.456,0.092-1.003c0-0.45-0.019-0.742-0.056-0.876c-0.073-0.377-0.244-0.565-0.513-0.565
			c-0.6,0-1.063,0.519-1.394,1.554c-0.245,0.768-0.367,1.541-0.367,2.321c0,1.304,0.416,1.955,1.247,1.955
			c0.33,0,0.709-0.171,1.137-0.513c0.391-0.318,0.666-0.642,0.825-0.972c0.195-0.392,0.434-0.587,0.715-0.587
			c0.184,0,0.36,0.107,0.531,0.32C257.406,251.312,257.492,251.511,257.492,251.694z"/>
		<path fill="#FFFFFF" d="M264.99,250.154c0,1.1-0.274,2.041-0.824,2.823c-0.636,0.892-1.479,1.338-2.53,1.338
			c-1.076,0-1.889-0.366-2.438-1.1c-0.501-0.647-0.752-1.528-0.752-2.641c0-1.1,0.275-2.139,0.825-3.116
			c0.636-1.161,1.46-1.741,2.475-1.741c0.318,0,0.716,0.141,1.192,0.421C264.306,246.958,264.99,248.296,264.99,250.154z
			 M263.377,250.117c0-1.87-0.452-2.805-1.356-2.805c-0.647,0-1.137,0.397-1.467,1.191c-0.244,0.599-0.366,1.277-0.366,2.035
			c0,1.626,0.482,2.438,1.448,2.438c0.623,0,1.088-0.336,1.394-1.009C263.261,251.456,263.377,250.839,263.377,250.117z"/>
		<path fill="#FFFFFF" d="M272.69,253.638c-0.184,0.28-0.409,0.421-0.678,0.421c-0.208,0-0.551-0.122-1.027-0.366v-0.22
			c0-0.27,0.006-0.666,0.019-1.192c0.012-0.525,0.019-0.91,0.019-1.154c0-2.615-0.39-3.924-1.167-3.924
			c-0.219,0-0.468,0.172-0.747,0.514c-0.863,1.051-1.295,2.316-1.295,3.795c0,0.208,0.04,0.517,0.12,0.926
			c0.079,0.409,0.119,0.718,0.119,0.926c0,0.171-0.08,0.312-0.239,0.422c-0.158,0.109-0.329,0.165-0.513,0.165
			c-0.733,0-1.101-0.465-1.101-1.394v-3.832c0-0.098,0.013-0.241,0.037-0.431s0.037-0.333,0.037-0.431
			c0-0.146-0.021-0.36-0.064-0.642s-0.064-0.489-0.064-0.623c0-0.195,0.113-0.382,0.339-0.56c0.227-0.177,0.432-0.266,0.614-0.266
			c0.269,0,0.544,0.152,0.825,0.458l-0.055,0.733c0.452-0.721,1.008-1.082,1.668-1.082c0.428,0,0.88,0.147,1.356,0.44
			c0.478,0.293,0.825,0.623,1.045,0.99c0.502,0.929,0.752,2.151,0.752,3.666V253.638z"/>
		<path fill="#FFFFFF" d="M273.827,252.922c0-0.28,0.125-0.531,0.376-0.751c0.25-0.221,0.54-0.33,0.87-0.33
			c0.354,0,0.66,0.159,0.917,0.477c0.257,0.318,0.385,0.715,0.385,1.191c0,0.514-0.049,0.936-0.146,1.266
			c-0.098,0.329-0.269,0.647-0.514,0.953c-0.244,0.317-0.52,0.589-0.824,0.815c-0.306,0.227-0.581,0.339-0.825,0.339
			c-0.196-0.024-0.34-0.101-0.431-0.229c-0.092-0.129-0.071-0.278,0.063-0.449c0.244-0.135,0.474-0.3,0.688-0.495
			s0.37-0.446,0.468-0.752c0.061-0.171,0.082-0.357,0.064-0.559c-0.019-0.202-0.132-0.37-0.34-0.505
			c-0.208-0.134-0.385-0.269-0.531-0.403C273.9,253.356,273.827,253.167,273.827,252.922z"/>
		<path fill="#FFFFFF" d="M124.414,266.535c0,0.33-0.502,0.562-1.504,0.697c-0.024,0.269-0.036,0.88-0.036,1.833v1.21
			c0,0.244,0.036,0.604,0.109,1.082c0.074,0.477,0.11,0.831,0.11,1.062c0,0.196-0.098,0.37-0.293,0.522
			c-0.196,0.153-0.392,0.229-0.587,0.229c-0.306,0-0.562-0.263-0.77-0.788c-0.159-0.403-0.239-0.795-0.239-1.174v-3.887
			c-0.562-0.085-0.886-0.14-0.972-0.165c-0.317-0.098-0.477-0.238-0.477-0.421c0-0.049,0.013-0.104,0.037-0.165
			c0.317-0.452,0.672-0.679,1.063-0.679c0.024,0,0.061,0,0.109,0c0.049,0.013,0.086,0.019,0.11,0.019c0.257,0,0.379-0.3,0.367-0.898
			v-1.338c-0.062-0.135-0.092-0.251-0.092-0.349c0-0.159,0.094-0.303,0.281-0.431c0.188-0.129,0.366-0.192,0.535-0.192
			c0.254,0,0.496,0.119,0.727,0.357c0.229,0.238,0.345,0.492,0.345,0.761c0,0.293-0.046,0.584-0.137,0.87
			c-0.092,0.288-0.132,0.584-0.12,0.89v0.073C123.938,265.753,124.414,266.047,124.414,266.535z"/>
		<path fill="#FFFFFF" d="M130.903,273.392c-0.232,0.232-0.538,0.349-0.916,0.349c-0.257,0-0.521-0.159-0.789-0.477
			c0-1.075,0-1.906,0-2.493c0-2.714-0.391-4.07-1.173-4.07c-0.807,0-1.21,1.094-1.21,3.282c0,0.122,0,0.299,0,0.531s0,0.409,0,0.531
			c0,0.184,0.03,0.462,0.092,0.835c0.061,0.372,0.092,0.65,0.092,0.834c0,0.159-0.096,0.303-0.284,0.431
			c-0.19,0.128-0.364,0.192-0.522,0.192c-0.306,0-0.566-0.125-0.779-0.376c-0.214-0.251-0.321-0.529-0.321-0.836l0.073-10.611
			c0-0.037,0-0.086,0-0.147s0-0.104,0-0.128c0-0.441,0.244-0.661,0.733-0.661c0.232,0,0.501,0.107,0.807,0.322
			s0.458,0.432,0.458,0.652c0,0.271-0.058,0.669-0.174,1.196c-0.116,0.528-0.174,0.927-0.174,1.196c0,0.344,0.012,0.89,0.036,1.638
			c0.269-0.159,0.495-0.238,0.679-0.238c0.477,0,0.996,0.116,1.559,0.349c0.721,0.306,1.222,0.8,1.503,1.484
			c0.208,0.514,0.312,1.223,0.312,2.127V273.392z"/>
		<path fill="#FFFFFF" d="M137.853,271.485c0,0.611-0.416,1.088-1.247,1.43c-0.647,0.269-1.326,0.403-2.035,0.403
			c-1.882,0-2.823-1.069-2.823-3.208c0-0.88,0.214-1.857,0.642-2.934c0.525-1.319,1.161-1.979,1.907-1.979
			c0.672,0,1.396,0.3,2.173,0.898c0.775,0.599,1.164,1.222,1.164,1.869c0,0.807-0.361,1.449-1.082,1.926
			c-0.636,0.428-1.394,0.642-2.273,0.642c-0.171,0-0.446-0.104-0.825-0.312c0.049,1.161,0.392,1.741,1.027,1.741
			c0.537,0,1.065-0.152,1.585-0.458s0.853-0.459,1-0.459C137.59,271.045,137.853,271.192,137.853,271.485z M135.854,268.021
			c0-0.306-0.089-0.596-0.267-0.871c-0.177-0.275-0.412-0.412-0.705-0.412c-0.403,0-0.716,0.177-0.936,0.531
			c-0.184,0.306-0.274,0.666-0.274,1.082c0,0.232,0.079,0.421,0.238,0.568c0.158,0.146,0.36,0.22,0.604,0.22
			C135.408,269.139,135.854,268.766,135.854,268.021z"/>
		<path fill="#FFFFFF" d="M145.442,272.971c-0.184,0.28-0.409,0.421-0.678,0.421c-0.208,0-0.551-0.122-1.027-0.366v-0.22
			c0-0.27,0.006-0.666,0.019-1.192c0.012-0.525,0.019-0.91,0.019-1.154c0-2.615-0.39-3.924-1.167-3.924
			c-0.219,0-0.468,0.172-0.747,0.514c-0.863,1.051-1.295,2.316-1.295,3.795c0,0.208,0.04,0.517,0.12,0.926
			c0.079,0.409,0.119,0.718,0.119,0.926c0,0.171-0.08,0.312-0.239,0.422c-0.158,0.109-0.329,0.165-0.513,0.165
			c-0.733,0-1.101-0.465-1.101-1.394v-3.832c0-0.098,0.013-0.241,0.037-0.431s0.037-0.333,0.037-0.431
			c0-0.146-0.021-0.36-0.064-0.642s-0.064-0.489-0.064-0.623c0-0.195,0.113-0.382,0.339-0.56c0.227-0.177,0.432-0.266,0.614-0.266
			c0.269,0,0.544,0.152,0.825,0.458l-0.055,0.733c0.452-0.721,1.008-1.082,1.668-1.082c0.428,0,0.88,0.147,1.356,0.44
			c0.478,0.293,0.825,0.623,1.045,0.99c0.502,0.929,0.752,2.151,0.752,3.666V272.971z"/>
		<path fill="#FFFFFF" d="M158.917,273.062c-0.411,0.257-0.726,0.386-0.943,0.386c-0.157,0-0.398-0.086-0.725-0.257
			c0-0.195,0-0.532,0-1.009c0-0.428,0-0.764,0-1.008c0-3.251-0.267-4.877-0.8-4.877c-0.4,0-0.721,0.495-0.963,1.485
			c-0.182,0.721-0.272,1.387-0.272,1.998v1.687c0,0.086,0.03,0.211,0.092,0.376c0.061,0.165,0.092,0.29,0.092,0.376
			c0,0.195-0.104,0.37-0.312,0.522c-0.208,0.153-0.409,0.229-0.604,0.229c-0.208,0-0.416-0.104-0.623-0.312
			c-0.208-0.207-0.312-0.409-0.312-0.604v-3.41c0-1.381-0.155-2.071-0.466-2.071c-0.05,0-0.156,0.116-0.317,0.348
			c-0.883,1.174-1.325,2.433-1.325,3.777c0,0.195,0.028,0.479,0.083,0.853s0.082,0.65,0.082,0.834c0,0.244-0.076,0.446-0.229,0.604
			c-0.153,0.159-0.352,0.238-0.596,0.238c-0.281,0-0.508-0.098-0.679-0.292c-0.062-0.086-0.135-0.372-0.22-0.86
			c-0.073-0.451-0.11-0.762-0.11-0.933v-3.987c0-0.293,0.073-0.684,0.22-1.171c0.184-0.585,0.379-0.878,0.587-0.878
			c0.244,0,0.465,0.093,0.66,0.278s0.281,0.398,0.257,0.638c0.354-0.586,0.812-0.88,1.375-0.88c0.696,0,1.265,0.465,1.705,1.394
			c0.231-0.55,0.439-0.929,0.623-1.137c0.306-0.354,0.685-0.531,1.137-0.531s0.91,0.238,1.375,0.715
			c0.807,0.819,1.21,2.219,1.21,4.198V273.062z"/>
		<path fill="#FFFFFF" d="M166.873,269.487c0,1.1-0.274,2.041-0.824,2.823c-0.636,0.892-1.479,1.338-2.53,1.338
			c-1.076,0-1.889-0.366-2.438-1.1c-0.501-0.647-0.752-1.528-0.752-2.641c0-1.1,0.275-2.139,0.825-3.116
			c0.636-1.161,1.46-1.741,2.475-1.741c0.318,0,0.716,0.141,1.192,0.421C166.188,266.291,166.873,267.629,166.873,269.487z
			 M165.26,269.45c0-1.87-0.452-2.805-1.356-2.805c-0.647,0-1.137,0.397-1.467,1.191c-0.244,0.599-0.366,1.277-0.366,2.035
			c0,1.626,0.482,2.438,1.448,2.438c0.623,0,1.088-0.336,1.394-1.009C165.144,270.789,165.26,270.172,165.26,269.45z"/>
		<path fill="#FFFFFF" d="M173.84,266.077c0,0.88-0.281,2.225-0.844,4.033c-0.66,2.078-1.302,3.116-1.925,3.116
			c-0.893,0-1.687-0.873-2.384-2.621c-0.428-1.088-0.776-2.358-1.045-3.813c-0.062-0.354-0.092-0.629-0.092-0.825
			c0-0.195,0.089-0.369,0.267-0.522c0.177-0.152,0.363-0.229,0.559-0.229c0.232,0,0.593,0.178,1.082,0.532
			c-0.086,0.281-0.129,0.52-0.129,0.715c0,0.66,0.162,1.521,0.486,2.585c0.323,1.063,0.675,1.864,1.054,2.401v0.056
			c0.446,0,0.794-0.831,1.042-2.493c0.173-1.137,0.26-2.176,0.26-3.117c0-0.184,0.094-0.342,0.281-0.477s0.371-0.202,0.553-0.202
			C173.562,265.215,173.84,265.503,173.84,266.077z"/>
		<path fill="#FFFFFF" d="M180.366,271.485c0,0.611-0.416,1.088-1.247,1.43c-0.647,0.269-1.326,0.403-2.035,0.403
			c-1.882,0-2.823-1.069-2.823-3.208c0-0.88,0.214-1.857,0.642-2.934c0.525-1.319,1.161-1.979,1.907-1.979
			c0.672,0,1.396,0.3,2.173,0.898c0.775,0.599,1.164,1.222,1.164,1.869c0,0.807-0.361,1.449-1.082,1.926
			c-0.636,0.428-1.394,0.642-2.273,0.642c-0.171,0-0.446-0.104-0.825-0.312c0.049,1.161,0.392,1.741,1.027,1.741
			c0.537,0,1.065-0.152,1.585-0.458s0.853-0.459,1-0.459C180.104,271.045,180.366,271.192,180.366,271.485z M178.368,268.021
			c0-0.306-0.089-0.596-0.267-0.871c-0.177-0.275-0.412-0.412-0.705-0.412c-0.403,0-0.716,0.177-0.936,0.531
			c-0.184,0.306-0.274,0.666-0.274,1.082c0,0.232,0.079,0.421,0.238,0.568c0.158,0.146,0.36,0.22,0.604,0.22
			C177.922,269.139,178.368,268.766,178.368,268.021z"/>
		<path fill="#FFFFFF" d="M186.435,266.04c0,0.221-0.049,0.532-0.146,0.936c-0.099,0.403-0.147,0.715-0.147,0.935v3.776
			c0,0.232,0.074,0.6,0.221,1.101c-0.186,0.281-0.389,0.422-0.611,0.422c-0.777,0-1.203-0.386-1.277-1.155
			c-0.122-1.43-0.184-2.506-0.184-3.227c0-1.21,0.049-2.225,0.147-3.044c0-0.061,0-0.122,0-0.183c0-0.221,0.169-0.33,0.509-0.33
			c0.302,0,0.604,0.062,0.908,0.184C186.24,265.588,186.435,265.783,186.435,266.04z M186.6,263.474c0,0.269-0.092,0.489-0.275,0.66
			s-0.409,0.257-0.678,0.257c-0.318,0-0.614-0.11-0.89-0.33c-0.275-0.221-0.412-0.489-0.412-0.807c0-0.269,0.094-0.489,0.284-0.66
			c0.189-0.171,0.424-0.257,0.705-0.257c0.33,0,0.624,0.107,0.881,0.321C186.471,262.872,186.6,263.144,186.6,263.474z"/>
		<path fill="#FFFFFF" d="M191.183,266.535c0,0.33-0.502,0.562-1.504,0.697c-0.024,0.269-0.036,0.88-0.036,1.833v1.21
			c0,0.244,0.036,0.604,0.109,1.082c0.074,0.477,0.11,0.831,0.11,1.062c0,0.196-0.098,0.37-0.293,0.522
			c-0.196,0.153-0.392,0.229-0.587,0.229c-0.306,0-0.562-0.263-0.77-0.788c-0.159-0.403-0.239-0.795-0.239-1.174v-3.887
			c-0.562-0.085-0.886-0.14-0.972-0.165c-0.317-0.098-0.477-0.238-0.477-0.421c0-0.049,0.013-0.104,0.037-0.165
			c0.317-0.452,0.672-0.679,1.063-0.679c0.024,0,0.061,0,0.109,0c0.049,0.013,0.086,0.019,0.11,0.019c0.257,0,0.379-0.3,0.367-0.898
			v-1.338c-0.062-0.135-0.092-0.251-0.092-0.349c0-0.159,0.094-0.303,0.281-0.431c0.188-0.129,0.366-0.192,0.535-0.192
			c0.254,0,0.496,0.119,0.727,0.357c0.229,0.238,0.345,0.492,0.345,0.761c0,0.293-0.046,0.584-0.137,0.87
			c-0.092,0.288-0.132,0.584-0.12,0.89v0.073C190.706,265.753,191.183,266.047,191.183,266.535z"/>
		<path fill="#FFFFFF" d="M197.6,271.247c0,0.574-0.245,1.075-0.733,1.503c-0.538,0.465-1.259,0.697-2.163,0.697
			c-0.392,0.012-0.813-0.067-1.266-0.238c-1.467-0.551-2.2-0.996-2.2-1.339c0-0.537,0.386-0.807,1.155-0.807
			c0.11,0,0.227,0.007,0.349,0.019c0.036,0.366,0.33,0.66,0.88,0.88c0.477,0.195,0.935,0.275,1.375,0.238
			c0.354-0.024,0.531-0.152,0.531-0.385c0-0.037-0.009-0.092-0.027-0.165s-0.027-0.131-0.027-0.174s-0.232-0.138-0.696-0.284
			c-0.526-0.159-0.819-0.251-0.88-0.275c-1.394-0.831-2.091-1.833-2.091-3.007c0-0.709,0.202-1.362,0.605-1.962
			c0.452-0.659,1.015-0.989,1.687-0.989c0.501,0,1.072,0.195,1.714,0.586c0.642,0.392,1.036,0.813,1.183,1.266
			c0.098,0.317,0.146,0.58,0.146,0.788c0,0.22-0.03,0.403-0.091,0.55c-0.074,0.184-0.147,0.367-0.221,0.55
			c-0.232,0.159-0.465,0.238-0.696,0.238c-0.122,0-0.327-0.076-0.614-0.229c-0.287-0.153-0.431-0.284-0.431-0.395
			c0-0.049,0.073-0.208,0.22-0.477c0.085-0.158,0.128-0.293,0.128-0.403c0-0.733-0.287-1.1-0.861-1.1
			c-0.342,0-0.604,0.22-0.788,0.659c-0.135,0.343-0.202,0.709-0.202,1.101c0,0.489,0.349,0.929,1.045,1.32
			c0.636,0.281,1.277,0.568,1.926,0.861C197.251,270.594,197.6,270.917,197.6,271.247z"/>
		<path fill="#FFFFFF" d="M207.939,268.735c0,1.247-0.22,2.304-0.66,3.172c-0.55,1.124-1.381,1.687-2.493,1.687
			c-0.599,0-1.112-0.172-1.54-0.514c0,0.135,0,0.318,0,0.55c0,0.27,0,0.452,0,0.551c0,1.173,0.135,2.096,0.403,2.768
			c0.122,0.27,0.184,0.44,0.184,0.514c0,0.415-0.245,0.623-0.733,0.623c-0.367,0-0.642-0.067-0.825-0.201
			c-0.135-0.086-0.269-0.392-0.403-0.917c-0.11-0.465-0.165-0.818-0.165-1.063v-4.418c0-0.403,0.024-0.953,0.073-1.65
			c0.049-0.781,0.079-1.325,0.092-1.631c0.012-0.306,0.012-0.709,0-1.211c0-0.635,0-1.045,0-1.228c0-1.039,0.339-1.559,1.016-1.559
			c0.169,0,0.326,0.058,0.472,0.174c0.145,0.116,0.218,0.254,0.218,0.413c0,0.269-0.03,0.758-0.092,1.467
			c0.477-0.673,1.051-1.009,1.724-1.009c0.904,0,1.601,0.366,2.09,1.1C207.726,266.987,207.939,267.782,207.939,268.735z
			 M206.308,268.57c0-1.32-0.283-1.98-0.849-1.98c-0.245,0-0.565,0.239-0.959,0.716c-0.763,0.916-1.181,2.182-1.254,3.795
			c0.136,0.073,0.375,0.33,0.72,0.77c0.271,0.33,0.541,0.495,0.812,0.495C205.797,272.365,206.308,271.101,206.308,268.57z"/>
		<path fill="#FFFFFF" d="M215.62,269.487c0,1.1-0.274,2.041-0.824,2.823c-0.636,0.892-1.479,1.338-2.53,1.338
			c-1.076,0-1.889-0.366-2.438-1.1c-0.501-0.647-0.752-1.528-0.752-2.641c0-1.1,0.275-2.139,0.825-3.116
			c0.636-1.161,1.46-1.741,2.475-1.741c0.318,0,0.716,0.141,1.192,0.421C214.936,266.291,215.62,267.629,215.62,269.487z
			 M214.007,269.45c0-1.87-0.452-2.805-1.356-2.805c-0.647,0-1.137,0.397-1.467,1.191c-0.244,0.599-0.366,1.277-0.366,2.035
			c0,1.626,0.482,2.438,1.448,2.438c0.623,0,1.088-0.336,1.394-1.009C213.891,270.789,214.007,270.172,214.007,269.45z"/>
		<path fill="#FFFFFF" d="M222.808,271.247c0,0.574-0.245,1.075-0.733,1.503c-0.538,0.465-1.259,0.697-2.163,0.697
			c-0.392,0.012-0.813-0.067-1.266-0.238c-1.467-0.551-2.2-0.996-2.2-1.339c0-0.537,0.386-0.807,1.155-0.807
			c0.11,0,0.227,0.007,0.349,0.019c0.036,0.366,0.33,0.66,0.88,0.88c0.477,0.195,0.935,0.275,1.375,0.238
			c0.354-0.024,0.531-0.152,0.531-0.385c0-0.037-0.009-0.092-0.027-0.165s-0.027-0.131-0.027-0.174s-0.232-0.138-0.696-0.284
			c-0.526-0.159-0.819-0.251-0.88-0.275c-1.394-0.831-2.091-1.833-2.091-3.007c0-0.709,0.202-1.362,0.605-1.962
			c0.452-0.659,1.015-0.989,1.687-0.989c0.501,0,1.072,0.195,1.714,0.586c0.642,0.392,1.036,0.813,1.183,1.266
			c0.098,0.317,0.146,0.58,0.146,0.788c0,0.22-0.03,0.403-0.091,0.55c-0.074,0.184-0.147,0.367-0.221,0.55
			c-0.232,0.159-0.465,0.238-0.696,0.238c-0.122,0-0.327-0.076-0.614-0.229c-0.287-0.153-0.431-0.284-0.431-0.395
			c0-0.049,0.073-0.208,0.22-0.477c0.085-0.158,0.128-0.293,0.128-0.403c0-0.733-0.287-1.1-0.861-1.1
			c-0.342,0-0.604,0.22-0.788,0.659c-0.135,0.343-0.202,0.709-0.202,1.101c0,0.489,0.349,0.929,1.045,1.32
			c0.636,0.281,1.277,0.568,1.926,0.861C222.459,270.594,222.808,270.917,222.808,271.247z"/>
		<path fill="#FFFFFF" d="M225.961,266.04c0,0.221-0.049,0.532-0.146,0.936c-0.099,0.403-0.147,0.715-0.147,0.935v3.776
			c0,0.232,0.074,0.6,0.221,1.101c-0.186,0.281-0.389,0.422-0.611,0.422c-0.777,0-1.203-0.386-1.277-1.155
			c-0.122-1.43-0.184-2.506-0.184-3.227c0-1.21,0.049-2.225,0.147-3.044c0-0.061,0-0.122,0-0.183c0-0.221,0.169-0.33,0.509-0.33
			c0.302,0,0.604,0.062,0.908,0.184C225.767,265.588,225.961,265.783,225.961,266.04z M226.126,263.474
			c0,0.269-0.092,0.489-0.275,0.66s-0.409,0.257-0.678,0.257c-0.318,0-0.614-0.11-0.89-0.33c-0.275-0.221-0.412-0.489-0.412-0.807
			c0-0.269,0.094-0.489,0.284-0.66c0.189-0.171,0.424-0.257,0.705-0.257c0.33,0,0.624,0.107,0.881,0.321
			C225.997,262.872,226.126,263.144,226.126,263.474z"/>
		<path fill="#FFFFFF" d="M230.709,266.535c0,0.33-0.502,0.562-1.504,0.697c-0.024,0.269-0.036,0.88-0.036,1.833v1.21
			c0,0.244,0.036,0.604,0.109,1.082c0.074,0.477,0.11,0.831,0.11,1.062c0,0.196-0.098,0.37-0.293,0.522
			c-0.196,0.153-0.392,0.229-0.587,0.229c-0.306,0-0.562-0.263-0.77-0.788c-0.159-0.403-0.239-0.795-0.239-1.174v-3.887
			c-0.562-0.085-0.886-0.14-0.972-0.165c-0.317-0.098-0.477-0.238-0.477-0.421c0-0.049,0.013-0.104,0.037-0.165
			c0.317-0.452,0.672-0.679,1.063-0.679c0.024,0,0.061,0,0.109,0c0.049,0.013,0.086,0.019,0.11,0.019c0.257,0,0.379-0.3,0.367-0.898
			v-1.338c-0.062-0.135-0.092-0.251-0.092-0.349c0-0.159,0.094-0.303,0.281-0.431c0.188-0.129,0.366-0.192,0.535-0.192
			c0.254,0,0.496,0.119,0.727,0.357c0.229,0.238,0.345,0.492,0.345,0.761c0,0.293-0.046,0.584-0.137,0.87
			c-0.092,0.288-0.132,0.584-0.12,0.89v0.073C230.232,265.753,230.709,266.047,230.709,266.535z"/>
		<path fill="#FFFFFF" d="M233.643,266.04c0,0.221-0.049,0.532-0.146,0.936c-0.099,0.403-0.147,0.715-0.147,0.935v3.776
			c0,0.232,0.074,0.6,0.221,1.101c-0.186,0.281-0.389,0.422-0.611,0.422c-0.777,0-1.203-0.386-1.277-1.155
			c-0.122-1.43-0.184-2.506-0.184-3.227c0-1.21,0.049-2.225,0.147-3.044c0-0.061,0-0.122,0-0.183c0-0.221,0.169-0.33,0.509-0.33
			c0.302,0,0.604,0.062,0.908,0.184C233.448,265.588,233.643,265.783,233.643,266.04z M233.808,263.474
			c0,0.269-0.092,0.489-0.275,0.66s-0.409,0.257-0.678,0.257c-0.318,0-0.614-0.11-0.89-0.33c-0.275-0.221-0.412-0.489-0.412-0.807
			c0-0.269,0.094-0.489,0.284-0.66c0.189-0.171,0.424-0.257,0.705-0.257c0.33,0,0.624,0.107,0.881,0.321
			C233.679,262.872,233.808,263.144,233.808,263.474z"/>
		<path fill="#FFFFFF" d="M240.682,269.487c0,1.1-0.274,2.041-0.824,2.823c-0.636,0.892-1.479,1.338-2.53,1.338
			c-1.076,0-1.889-0.366-2.438-1.1c-0.501-0.647-0.752-1.528-0.752-2.641c0-1.1,0.275-2.139,0.825-3.116
			c0.636-1.161,1.46-1.741,2.475-1.741c0.318,0,0.716,0.141,1.192,0.421C239.997,266.291,240.682,267.629,240.682,269.487z
			 M239.068,269.45c0-1.87-0.452-2.805-1.356-2.805c-0.647,0-1.137,0.397-1.467,1.191c-0.244,0.599-0.366,1.277-0.366,2.035
			c0,1.626,0.482,2.438,1.448,2.438c0.623,0,1.088-0.336,1.394-1.009C238.952,270.789,239.068,270.172,239.068,269.45z"/>
		<path fill="#FFFFFF" d="M248.382,272.971c-0.184,0.28-0.409,0.421-0.678,0.421c-0.208,0-0.551-0.122-1.027-0.366v-0.22
			c0-0.27,0.006-0.666,0.019-1.192c0.012-0.525,0.019-0.91,0.019-1.154c0-2.615-0.39-3.924-1.167-3.924
			c-0.219,0-0.468,0.172-0.747,0.514c-0.863,1.051-1.295,2.316-1.295,3.795c0,0.208,0.04,0.517,0.12,0.926
			c0.079,0.409,0.119,0.718,0.119,0.926c0,0.171-0.08,0.312-0.239,0.422c-0.158,0.109-0.329,0.165-0.513,0.165
			c-0.733,0-1.101-0.465-1.101-1.394v-3.832c0-0.098,0.013-0.241,0.037-0.431s0.037-0.333,0.037-0.431
			c0-0.146-0.021-0.36-0.064-0.642s-0.064-0.489-0.064-0.623c0-0.195,0.113-0.382,0.339-0.56c0.227-0.177,0.432-0.266,0.614-0.266
			c0.269,0,0.544,0.152,0.825,0.458l-0.055,0.733c0.452-0.721,1.008-1.082,1.668-1.082c0.428,0,0.88,0.147,1.356,0.44
			c0.478,0.293,0.825,0.623,1.045,0.99c0.502,0.929,0.752,2.151,0.752,3.666V272.971z"/>
		<path fill="#FFFFFF" d="M252.286,272.365c0,0.208-0.183,0.412-0.55,0.614c-0.366,0.201-0.672,0.303-0.916,0.303
			c-0.27,0-0.557-0.104-0.862-0.312c-0.306-0.208-0.458-0.452-0.458-0.733c0-0.245,0.125-0.462,0.376-0.651
			c0.25-0.189,0.51-0.284,0.779-0.284c0.33,0,0.672,0.099,1.026,0.294C252.085,271.827,252.286,272.084,252.286,272.365z"/>
	</g>
</g>
<circle fill="#ED342A" stroke="#FFFFFF" stroke-miterlimit="10" cx="93.954" cy="273.542" r="16.787"/>
</svg>
