<?xml version="1.0" encoding="utf-8"?>
<!-- Generator: Adobe Illustrator 15.0.0, SVG Export Plug-In  -->
<!DOCTYPE svg PUBLIC "-//W3C//DTD SVG 1.1//EN" "http://www.w3.org/Graphics/SVG/1.1/DTD/svg11.dtd" [
	<!ENTITY ns_flows "http://ns.adobe.com/Flows/1.0/">
]>
<svg version="1.1"
	 xmlns="http://www.w3.org/2000/svg" xmlns:xlink="http://www.w3.org/1999/xlink" xmlns:a="http://ns.adobe.com/AdobeSVGViewerExtensions/3.0/"
	 x="0px" y="0px" width="800px" height="480px" viewBox="0 0 800 480" overflow="visible" enable-background="new 0 0 800 480"
	 xml:space="preserve">
<defs>
</defs>
<g opacity="0.88">
	<g>
		<path fill="#231F20" d="M0,0v480h800V0H0z M750.521,158.819c-23.537-0.562-42.165-20.098-41.599-43.641
			c0.56-23.543,20.099-42.166,43.638-41.604c23.539,0.564,42.166,20.102,41.602,43.641
			C793.598,140.755,774.061,159.384,750.521,158.819z"/>
	</g>
</g>
<path fill="#FFFFFF" d="M357.467,138.048c-0.098-1.074-1.135-1.857-2.314-1.75s-2.059,1.064-1.961,2.139l0.791,8.68l-1.543,0.141
	l-0.875-9.613c-0.115-1.252-1.164-2.18-2.344-2.072c-1.178,0.109-2.043,1.211-1.928,2.461l0.873,9.615l-1.711,0.156l-1.002-11.01
	c-0.115-1.252-1.164-2.178-2.344-2.072c-1.18,0.109-2.043,1.209-1.93,2.463l1.002,11.008l-1.676,0.152l-1.838-20.156
	c-0.131-1.426-1.396-2.48-2.826-2.352c-1.428,0.131-2.482,1.396-2.354,2.824l2.344,25.715l-1.549-0.523l-0.705-7.736
	c0,0-1.52,4.557-2.367,6.697c-0.533,1.336-0.84,3.004-0.727,4.434c0.229,2.799,10.227,11.942,13.777,11.636
	c2.654-0.23,11.447-1.02,12.975-1.297c3.404-0.609,2.869-4.501,2.869-4.501l-0.033-0.734l-2.604-24.303H357.467z"/>
<polygon fill="#FFFFFF" points="359.223,127.224 388.701,127.224 388.701,132.226 402.402,124.312 388.701,116.401 388.701,121.403 
	359.223,121.403 "/>
<polygon fill="#FFFFFF" points="306.963,121.403 277.484,121.403 277.484,116.401 263.783,124.315 277.484,132.226 277.484,127.224 
	306.963,127.224 "/>
<g>
	<text transform="matrix(1 0 0 1 260.7441 96.314)" fill="#FFFFFF" font-family="'Noteworthy-Bold'" font-size="22">Swipe for guideline options</text>
</g>
<g>
	<text transform="matrix(1 0 0 1 313.9951 214.7705)"><tspan x="0" y="0" fill="#FFFFFF" font-family="'Noteworthy-Bold'" font-size="22">Change the clip type to</tspan><tspan x="0" y="29" fill="#FFFFFF" font-family="'Noteworthy-Bold'" font-size="22">switch to a different set </tspan><tspan x="0" y="58" fill="#FFFFFF" font-family="'Noteworthy-Bold'" font-size="22">of guidelines.</tspan></text>
</g>
<g>
	<text transform="matrix(1 0 0 1 262.2188 361.2676)" fill="#FFFFFF" font-family="'Noteworthy-Bold'" font-size="22">Tap anywhere to activate the camera</text>
</g>
<circle fill="#ED342A" stroke="#FFFFFF" stroke-miterlimit="10" cx="222.245" cy="88.397" r="25.181"/>
<path fill="#FFFFFF" d="M224.299,98.956h-4.264V81.349h-4.408v-3.268l8.672-0.762V98.956z"/>
<circle fill="#ED342A" stroke="#FFFFFF" stroke-miterlimit="10" cx="219.962" cy="355.469" r="25.181"/>
<path fill="#FFFFFF" d="M227.346,364.887h-14.311v-2.799l6.605-7.471c0.986-1.162,1.688-2.145,2.103-2.951
	c0.415-0.805,0.622-1.545,0.622-2.219c0-0.879-0.219-1.582-0.658-2.109s-1.1-0.791-1.979-0.791c-0.928,0-1.645,0.336-2.152,1.01
	s-0.762,1.529-0.762,2.564h-4.16l-0.029-0.088c-0.049-1.895,0.576-3.498,1.875-4.812c1.299-1.312,3.041-1.971,5.229-1.971
	s3.887,0.561,5.098,1.678c1.211,1.119,1.816,2.619,1.816,4.504c0,1.279-0.339,2.447-1.018,3.502s-1.848,2.514-3.508,4.379
	l-3.516,4.219l0.029,0.074h8.715V364.887z"/>
<g>
	
		<text transform="matrix(1 0 0 1 653.0684 461.0156)" fill="#FFFFFF" font-family="'Roboto-LightItalic'" font-size="20" text-decoration=" underline">TAP TO CLOSE</text>
</g>
<path fill="none" stroke="#FFFFFF" stroke-width="1.5" stroke-miterlimit="10" d="M535.242,204.785
	c27.982-11.627,118.221-48.317,154.462-64.903c-5.113-1.65-9.14-2.98-13.311-4.471c4.286,1.49,9.999,3.363,14.183,4.566
	c-1.531,4.359-2.607,7.617-5.538,14.6"/>
</svg>
