<?xml version="1.0" encoding="utf-8"?>
<!-- Generator: Adobe Illustrator 15.0.0, SVG Export Plug-In  -->
<!DOCTYPE svg PUBLIC "-//W3C//DTD SVG 1.1//EN" "http://www.w3.org/Graphics/SVG/1.1/DTD/svg11.dtd" [
	<!ENTITY ns_flows "http://ns.adobe.com/Flows/1.0/">
]>
<svg version="1.1"
	 xmlns="http://www.w3.org/2000/svg" xmlns:xlink="http://www.w3.org/1999/xlink" xmlns:a="http://ns.adobe.com/AdobeSVGViewerExtensions/3.0/"
	 x="0px" y="0px" width="1200px" height="720px" viewBox="2.576 0 1200 720"
	 overflow="visible" enable-background="new 2.576 0 1200 720" xml:space="preserve">
<defs>
</defs>
<g opacity="0.88">
	<g>
		<path fill="#231F20" d="M0,0v721.546h1202.576V0H0z M1128.196,238.74c-35.38-0.846-63.382-30.212-62.531-65.602
			c0.842-35.39,30.214-63.385,65.598-62.539c35.384,0.849,63.385,30.217,62.536,65.602
			C1192.951,211.586,1163.583,239.589,1128.196,238.74z"/>
	</g>
</g>
<path fill="#FFFFFF" d="M537.352,207.517c-0.147-1.615-1.706-2.793-3.479-2.631c-1.773,0.161-3.095,1.6-2.947,3.214l1.188,13.049
	l-2.319,0.211l-1.315-14.451c-0.173-1.882-1.75-3.275-3.523-3.115c-1.77,0.165-3.07,1.82-2.896,3.7l1.312,14.453l-2.572,0.235
	l-1.507-16.551c-0.173-1.882-1.749-3.273-3.522-3.114c-1.773,0.164-3.072,1.817-2.901,3.702l1.507,16.547l-2.52,0.229l-2.763-30.3
	c-0.197-2.144-2.101-3.729-4.248-3.535c-2.147,0.197-3.733,2.1-3.539,4.246l3.523,38.654l-2.329-0.786l-1.059-11.63
	c0,0-2.284,6.85-3.559,10.068c-0.801,2.008-1.262,4.516-1.093,6.664c0.344,4.207,15.374,17.952,20.711,17.491
	c3.99-0.347,17.208-1.533,19.504-1.95c5.117-0.916,4.312-6.766,4.312-6.766l-0.05-1.104l-3.914-36.531H537.352z"/>
<polygon fill="#FFFFFF" points="539.99,191.245 584.303,191.245 584.303,198.765 604.899,186.867 584.303,174.977 584.303,182.496 
	539.99,182.496 "/>
<polygon fill="#FFFFFF" points="461.433,182.496 417.12,182.496 417.12,174.977 396.524,186.873 417.12,198.765 417.12,191.245 
	461.433,191.245 "/>
<g>
	<text transform="matrix(1 0 0 1 391.9561 144.7812)" fill="#FFFFFF" font-family="'Noteworthy-Bold'" font-size="33.0708">Swipe for guideline options</text>
</g>
<g>
	<text transform="matrix(1 0 0 1 472.0029 322.8477)"><tspan x="0" y="0" fill="#FFFFFF" font-family="'Noteworthy-Bold'" font-size="33.0708">Change the clip type to</tspan><tspan x="0" y="43.594" fill="#FFFFFF" font-family="'Noteworthy-Bold'" font-size="33.0708">switch to a different set </tspan><tspan x="0" y="87.187" fill="#FFFFFF" font-family="'Noteworthy-Bold'" font-size="33.0708">of guidelines.</tspan></text>
</g>
<g>
	<text transform="matrix(1 0 0 1 394.1729 543.0645)" fill="#FFFFFF" font-family="'Noteworthy-Bold'" font-size="33.0708">Tap anywhere to activate the camera</text>
</g>
<circle fill="#ED342A" stroke="#FFFFFF" stroke-miterlimit="10" cx="334.083" cy="132.881" r="37.852"/>
<path fill="#FFFFFF" d="M337.171,148.753h-6.409v-26.468h-6.627v-4.912l13.036-1.146V148.753z"/>
<circle fill="#ED342A" stroke="#FFFFFF" stroke-miterlimit="10" cx="330.65" cy="534.348" r="37.852"/>
<path fill="#FFFFFF" d="M341.751,548.505h-21.513v-4.207l9.93-11.23c1.483-1.747,2.537-3.224,3.16-4.436
	c0.624-1.21,0.936-2.322,0.936-3.336c0-1.321-0.329-2.378-0.989-3.171s-1.653-1.188-2.974-1.188c-1.395,0-2.473,0.505-3.236,1.517
	c-0.763,1.014-1.146,2.3-1.146,3.856h-6.253l-0.044-0.133c-0.073-2.849,0.866-5.258,2.819-7.234c1.951-1.973,4.57-2.962,7.859-2.962
	c3.288,0,5.843,0.842,7.663,2.521c1.82,1.683,2.73,3.937,2.73,6.771c0,1.924-0.51,3.679-1.53,5.264
	c-1.02,1.587-2.777,3.779-5.272,6.583l-5.285,6.342l0.043,0.111h13.102V548.505z"/>
<g>
	
		<text transform="matrix(1 0 0 1 981.7061 693.0078)" fill="#FFFFFF" font-family="'Roboto-LightItalic'" font-size="30.0644" text-decoration=" underline">TAP TO CLOSE</text>
</g>
<path fill="none" stroke="#FFFFFF" stroke-width="1.5" stroke-miterlimit="10" d="M804.586,307.837
	c42.064-17.479,177.713-72.632,232.191-97.563c-7.688-2.481-13.739-4.48-20.009-6.721c6.442,2.24,15.031,5.056,21.319,6.864
	c-2.303,6.553-3.92,11.45-8.324,21.946"/>
</svg>
