<?xml version="1.0" encoding="utf-8"?>
<!-- Generator: Adobe Illustrator 15.0.0, SVG Export Plug-In  -->
<!DOCTYPE svg PUBLIC "-//W3C//DTD SVG 1.1//EN" "http://www.w3.org/Graphics/SVG/1.1/DTD/svg11.dtd" [
	<!ENTITY ns_flows "http://ns.adobe.com/Flows/1.0/">
]>
<svg version="1.1"
	 xmlns="http://www.w3.org/2000/svg" xmlns:xlink="http://www.w3.org/1999/xlink" xmlns:a="http://ns.adobe.com/AdobeSVGViewerExtensions/3.0/"
	 x="0px" y="0px" width="720px" height="1200px" viewBox="-1.235 0.724 720 1200"
	 overflow="visible" enable-background="new -1.235 0.724 720 1200" xml:space="preserve">
<defs>
</defs>
<g opacity="0.88">
	<path fill="#231F20" d="M0,0v1200.446h718.765V0H0z M281.951,534.087c-85.479-2.039-153.121-72.987-151.063-158.481
		c2.027-85.491,72.988-153.118,158.461-151.076c85.477,2.058,153.118,73.003,151.07,158.482
		C438.376,468.491,367.428,536.136,281.951,534.087z M698.151,158.888c0,18.156-14.856,33.012-33.013,33.012H49.118
		c-18.155,0-33.012-14.855-33.012-33.012v-27.818c0-18.156,14.856-33.013,33.012-33.013h616.021
		c18.156,0,33.013,14.856,33.013,33.013V158.888z"/>
</g>
<g>
	<rect x="463.495" y="269.703" fill="none" width="247.76" height="139.282"/>
	<text transform="matrix(1 0 0 1 463.4961 297.4326)"><tspan x="0" y="0" fill="#FFFFFF" font-family="'Noteworthy-Bold'" font-size="33.0123">Describe your </tspan><tspan x="0" y="43.516" fill="#FFFFFF" font-family="'Noteworthy-Bold'" font-size="33.0123">story, add details </tspan><tspan x="0" y="87.032" fill="#FFFFFF" font-family="'Noteworthy-Bold'" font-size="33.0123">and share!</tspan></text>
</g>
<circle fill="#ED342A" stroke="#FFFFFF" stroke-miterlimit="10" cx="187.452" cy="514.25" r="37.787"/>
<path fill="#FFFFFF" d="M190.532,531.597h-6.396v-26.422h-6.618v-4.901l13.014-1.143V531.597z"/>
<circle fill="#ED342A" stroke="#FFFFFF" stroke-miterlimit="10" cx="288.941" cy="85.404" r="37.786"/>
<path fill="#FFFFFF" d="M300.022,99.536h-21.477v-4.198l9.915-11.21c1.479-1.744,2.532-3.22,3.153-4.43
	c0.624-1.207,0.935-2.318,0.935-3.33c0-1.318-0.331-2.373-0.99-3.164c-0.659-0.792-1.647-1.188-2.966-1.188
	c-1.393,0-2.471,0.506-3.232,1.517c-0.763,1.011-1.144,2.294-1.144,3.847h-6.242l-0.044-0.132c-0.073-2.843,0.864-5.249,2.813-7.222
	c1.948-1.969,4.565-2.955,7.849-2.955c3.282,0,5.832,0.84,7.649,2.516c1.816,1.68,2.726,3.932,2.726,6.76
	c0,1.92-0.51,3.671-1.527,5.254c-1.02,1.582-2.775,3.773-5.267,6.572l-5.275,6.33l0.044,0.109h13.08V99.536z"/>
<circle fill="#ED342A" stroke="#FFFFFF" stroke-miterlimit="10" cx="540.513" cy="197.479" r="37.787"/>
<path fill="#FFFFFF" d="M538.77,194.298c1.524,0,2.655-0.396,3.396-1.188c0.739-0.791,1.111-1.904,1.111-3.342
	c0-1.201-0.39-2.197-1.167-2.988c-0.776-0.791-1.861-1.188-3.253-1.188c-1.173,0-2.157,0.359-2.954,1.077
	c-0.8,0.718-1.199,1.634-1.199,2.747h-6.198l-0.044-0.131c-0.088-2.506,0.879-4.572,2.901-6.199s4.52-2.439,7.494-2.439
	c3.312,0,5.943,0.781,7.893,2.34c1.949,1.562,2.922,3.8,2.922,6.716c0,1.466-0.422,2.812-1.263,4.034
	c-0.845,1.224-1.996,2.187-3.461,2.891c1.67,0.629,2.959,1.586,3.868,2.869c0.908,1.281,1.362,2.83,1.362,4.647
	c0,2.931-1.061,5.235-3.177,6.914c-2.119,1.678-4.833,2.517-8.145,2.517c-2.916,0-5.466-0.792-7.649-2.375
	c-2.184-1.582-3.238-3.803-3.165-6.66l0.044-0.131h6.242c0,1.201,0.422,2.209,1.267,3.021c0.841,0.814,1.929,1.221,3.262,1.221
	c1.466,0,2.652-0.433,3.562-1.297c0.908-0.865,1.362-1.957,1.362-3.275c0-1.686-0.425-2.936-1.274-3.747
	c-0.851-0.815-2.096-1.221-3.737-1.221h-3.537v-4.813H538.77z"/>
<path fill="#FFFFFF" d="M378.312,729.622c-0.146-1.612-1.703-2.788-3.474-2.627c-1.77,0.16-3.088,1.598-2.941,3.21l1.187,13.022
	l-2.315,0.213l-1.312-14.426c-0.174-1.879-1.747-3.271-3.518-3.109c-1.768,0.164-3.065,1.817-2.893,3.693l1.311,14.426l-2.567,0.236
	l-1.504-16.522c-0.173-1.878-1.747-3.267-3.517-3.107c-1.771,0.162-3.066,1.812-2.896,3.695l1.504,16.518l-2.515,0.229
	l-2.758-30.245c-0.196-2.141-2.095-3.723-4.241-3.529c-2.142,0.197-3.725,2.096-3.531,4.237l3.518,38.586l-2.324-0.784
	l-1.059-11.608c0,0-2.279,6.838-3.552,10.05c-0.8,2.003-1.261,4.508-1.091,6.652c0.344,4.199,15.346,17.918,20.674,17.458
	c3.983-0.345,17.178-1.53,19.47-1.945c5.108-0.915,4.306-6.752,4.306-6.752l-0.051-1.103l-3.906-36.467H378.312z"/>
<polygon fill="#FFFFFF" points="380.947,713.378 425.182,713.378 425.182,720.885 445.741,709.01 425.182,697.139 425.182,704.646 
	380.947,704.646 "/>
<polygon fill="#FFFFFF" points="302.528,704.646 258.294,704.646 258.294,697.139 237.735,709.014 258.294,720.885 258.294,713.378 
	302.528,713.378 "/>
<g>
	<text transform="matrix(1 0 0 1 113.9092 614.6084)"><tspan x="0" y="0" fill="#FFFFFF" font-family="'Noteworthy-Bold'" font-size="33.0123">Tap Icon to add your media.</tspan><tspan x="0" y="46.518" fill="#FFFFFF" font-family="'Noteworthy-Bold'" font-size="33.0123">Swipe to move between 5 clips. </tspan></text>
</g>
<g>
	
		<text transform="matrix(1 0 0 1 496.3701 1172.3428)" fill="#FFFFFF" font-family="'Roboto-LightItalic'" font-size="30.0112" text-decoration=" underline">TAP TO CLOSE</text>
</g>
<g>
	<text transform="matrix(1 0 0 1 341.7373 78.7969)" fill="#FFFFFF" font-family="'Noteworthy-Bold'" font-size="33.0123">Change the order of clips.</text>
</g>
<g>
	<g>
		<path fill="#FFFFFF" d="M264.251,367.404c1.104,0,1.482-1.414,0.172-1.414C263.319,365.99,262.94,367.404,264.251,367.404
			L264.251,367.404z"/>
	</g>
</g>
</svg>
