<?xml version="1.0" encoding="utf-8"?>
<!-- Generator: Adobe Illustrator 15.0.0, SVG Export Plug-In  -->
<!DOCTYPE svg PUBLIC "-//W3C//DTD SVG 1.1//EN" "http://www.w3.org/Graphics/SVG/1.1/DTD/svg11.dtd" [
	<!ENTITY ns_flows "http://ns.adobe.com/Flows/1.0/">
]>
<svg version="1.1"
	 xmlns="http://www.w3.org/2000/svg" xmlns:xlink="http://www.w3.org/1999/xlink" xmlns:a="http://ns.adobe.com/AdobeSVGViewerExtensions/3.0/"
	 x="0px" y="0px" width="320px" height="530px" viewBox="-0.442 1.299 320 530"
	 overflow="visible" enable-background="new -0.442 1.299 320 530" xml:space="preserve">
<defs>
</defs>
<g opacity="0.88">
	<path fill="#231F20" d="M0,0v533.71h319.558V0H0z M125.354,237.452c-38.004-0.907-68.077-32.45-67.162-70.461
		c0.902-38.008,32.45-68.075,70.451-67.167c38.002,0.915,68.075,32.457,67.164,70.46
		C194.898,208.288,163.355,238.362,125.354,237.452z M310.393,70.641c0,8.072-6.604,14.677-14.677,14.677H21.838
		c-8.072,0-14.677-6.604-14.677-14.677V58.272c0-8.072,6.604-14.678,14.677-14.678h273.878c8.072,0,14.677,6.605,14.677,14.678
		V70.641z"/>
</g>
<g>
	<rect x="206.066" y="119.908" fill="none" width="110.152" height="61.924"/>
	<text transform="matrix(1 0 0 1 206.0674 132.2368)"><tspan x="0" y="0" fill="#FFFFFF" font-family="'Noteworthy-Bold'" font-size="14.677">Describe your </tspan><tspan x="0" y="19.347" fill="#FFFFFF" font-family="'Noteworthy-Bold'" font-size="14.677">story, add details </tspan><tspan x="0" y="38.694" fill="#FFFFFF" font-family="'Noteworthy-Bold'" font-size="14.677">and share!</tspan></text>
</g>
<circle fill="#ED342A" stroke="#FFFFFF" stroke-miterlimit="10" cx="83.34" cy="228.633" r="16.8"/>
<path fill="#FFFFFF" d="M84.709,236.344h-2.844v-11.747h-2.942v-2.179l5.786-0.508V236.344z"/>
<circle fill="#ED342A" stroke="#FFFFFF" stroke-miterlimit="10" cx="128.461" cy="37.97" r="16.799"/>
<path fill="#FFFFFF" d="M133.388,44.253h-9.549v-1.866l4.409-4.983c0.657-0.775,1.125-1.432,1.401-1.97
	c0.277-0.537,0.416-1.031,0.416-1.48c0-0.587-0.147-1.056-0.441-1.407c-0.293-0.352-0.731-0.527-1.317-0.527
	c-0.62,0-1.099,0.225-1.438,0.674s-0.509,1.02-0.509,1.71h-2.775l-0.019-0.058c-0.033-1.265,0.384-2.334,1.25-3.211
	c0.866-0.876,2.03-1.314,3.49-1.314c1.459,0,2.593,0.373,3.4,1.119s1.212,1.748,1.212,3.005c0,0.854-0.228,1.632-0.679,2.335
	c-0.453,0.704-1.234,1.678-2.342,2.922l-2.346,2.815l0.021,0.049h5.814V44.253z"/>
<circle fill="#ED342A" stroke="#FFFFFF" stroke-miterlimit="10" cx="240.309" cy="87.798" r="16.8"/>
<path fill="#FFFFFF" d="M239.533,86.384c0.677,0,1.18-0.176,1.51-0.528c0.329-0.352,0.494-0.847,0.494-1.485
	c0-0.534-0.173-0.978-0.519-1.329s-0.827-0.528-1.447-0.528c-0.521,0-0.958,0.16-1.312,0.479c-0.356,0.319-0.532,0.727-0.532,1.222
	h-2.757l-0.019-0.059c-0.04-1.114,0.391-2.033,1.289-2.756c0.899-0.723,2.01-1.084,3.331-1.084c1.473,0,2.643,0.347,3.51,1.039
	c0.866,0.695,1.3,1.689,1.3,2.986c0,0.652-0.188,1.25-0.562,1.793c-0.375,0.545-0.887,0.973-1.539,1.285
	c0.743,0.281,1.316,0.705,1.721,1.275c0.403,0.57,0.605,1.26,0.605,2.066c0,1.304-0.472,2.328-1.412,3.074
	c-0.942,0.746-2.149,1.119-3.622,1.119c-1.296,0-2.43-0.353-3.4-1.056c-0.971-0.704-1.439-1.69-1.407-2.961l0.021-0.06h2.775
	c0,0.535,0.187,0.983,0.562,1.344c0.374,0.362,0.857,0.543,1.449,0.543c0.652,0,1.18-0.191,1.584-0.576s0.606-0.87,0.606-1.457
	c0-0.748-0.189-1.305-0.567-1.665c-0.378-0.362-0.932-0.543-1.661-0.543h-1.572v-2.14H239.533z"/>
<path fill="#FFFFFF" d="M168.194,324.384c-0.064-0.716-0.757-1.238-1.544-1.167c-0.786,0.071-1.373,0.71-1.308,1.428l0.527,5.789
	l-1.028,0.095l-0.585-6.413c-0.077-0.835-0.776-1.455-1.563-1.383c-0.786,0.073-1.362,0.808-1.286,1.642l0.583,6.414l-1.142,0.105
	l-0.668-7.346c-0.078-0.836-0.777-1.453-1.563-1.382c-0.788,0.072-1.363,0.806-1.288,1.643l0.668,7.344l-1.117,0.102l-1.227-13.447
	c-0.087-0.951-0.932-1.654-1.885-1.568c-0.953,0.088-1.657,0.932-1.57,1.884l1.563,17.155l-1.033-0.349l-0.471-5.162
	c0,0-1.014,3.041-1.579,4.469c-0.355,0.891-0.561,2.004-0.484,2.957c0.151,1.867,6.822,7.967,9.191,7.762
	c1.771-0.152,7.636-0.68,8.655-0.864c2.271-0.407,1.914-3.002,1.914-3.002l-0.022-0.49l-1.736-16.214H168.194z"/>
<polygon fill="#FFFFFF" points="169.366,317.163 189.033,317.163 189.033,320.501 198.173,315.221 189.033,309.943 189.033,313.28 
	169.366,313.28 "/>
<polygon fill="#FFFFFF" points="134.501,313.28 114.836,313.28 114.836,309.943 105.694,315.223 114.836,320.501 114.836,317.163 
	134.501,317.163 "/>
<g>
	<text transform="matrix(1 0 0 1 50.6436 273.251)"><tspan x="0" y="0" fill="#FFFFFF" font-family="'Noteworthy-Bold'" font-size="14.677">Tap Icon to add your media.</tspan><tspan x="0" y="20.682" fill="#FFFFFF" font-family="'Noteworthy-Bold'" font-size="14.677">Swipe to move between 5 clips. </tspan></text>
</g>
<g>
	
		<text transform="matrix(1 0 0 1 220.6826 521.2158)" fill="#FFFFFF" font-family="'Roboto-LightItalic'" font-size="13.3427" text-decoration=" underline">TAP TO CLOSE</text>
</g>
<g>
	<text transform="matrix(1 0 0 1 151.9346 35.0332)" fill="#FFFFFF" font-family="'Noteworthy-Bold'" font-size="14.677">Change the order of clips.</text>
</g>
<g>
	<g>
		<path fill="#FFFFFF" d="M117.437,163.737c1.104,0,1.482-1.413,0.172-1.413C116.505,162.324,116.126,163.737,117.437,163.737
			L117.437,163.737z"/>
	</g>
</g>
</svg>
