<?xml version="1.0" encoding="utf-8"?>
<!-- Generator: Adobe Illustrator 15.0.0, SVG Export Plug-In  -->
<!DOCTYPE svg PUBLIC "-//W3C//DTD SVG 1.1//EN" "http://www.w3.org/Graphics/SVG/1.1/DTD/svg11.dtd" [
	<!ENTITY ns_flows "http://ns.adobe.com/Flows/1.0/">
]>
<svg version="1.1"
	 xmlns="http://www.w3.org/2000/svg" xmlns:xlink="http://www.w3.org/1999/xlink" xmlns:a="http://ns.adobe.com/AdobeSVGViewerExtensions/3.0/"
	 x="0px" y="0px" width="480px" height="800px" viewBox="-0.501 0.5 480 800"
	 overflow="visible" enable-background="new -0.501 0.5 480 800" xml:space="preserve">
<defs>
</defs>
<g opacity="0.88">
	<path fill="#231F20" d="M0,0v800h478.998V0H0z M187.897,355.926c-56.965-1.359-102.043-48.641-100.672-105.615
		c1.352-56.973,48.641-102.041,105.602-100.68c56.963,1.371,102.041,48.65,100.676,105.615
		C292.142,312.211,244.86,357.291,187.897,355.926z M465.261,105.886c0,12.1-9.9,22-22,22H32.733c-12.1,0-22-9.9-22-22V87.347
		c0-12.1,9.9-22,22-22h410.527c12.1,0,22,9.9,22,22V105.886z"/>
</g>
<g>
	<rect x="308.882" y="179.735" fill="none" width="165.111" height="92.82"/>
	<text transform="matrix(1 0 0 1 308.8818 198.2144)"><tspan x="0" y="0" fill="#FFFFFF" font-family="'Noteworthy-Bold'" font-size="22">Describe your </tspan><tspan x="0" y="29" fill="#FFFFFF" font-family="'Noteworthy-Bold'" font-size="22">story, add details </tspan><tspan x="0" y="58" fill="#FFFFFF" font-family="'Noteworthy-Bold'" font-size="22">and share!</tspan></text>
</g>
<circle fill="#ED342A" stroke="#FFFFFF" stroke-miterlimit="10" cx="124.921" cy="342.706" r="25.182"/>
<path fill="#FFFFFF" d="M126.974,354.266h-4.262v-17.607h-4.41v-3.267l8.672-0.762V354.266z"/>
<circle fill="#ED342A" stroke="#FFFFFF" stroke-miterlimit="10" cx="192.556" cy="56.915" r="25.182"/>
<path fill="#FFFFFF" d="M199.94,66.333h-14.312v-2.798l6.607-7.471c0.986-1.162,1.688-2.146,2.102-2.952
	c0.416-0.805,0.623-1.545,0.623-2.219c0-0.879-0.221-1.582-0.66-2.109s-1.098-0.791-1.977-0.791c-0.928,0-1.646,0.337-2.154,1.011
	s-0.762,1.528-0.762,2.563h-4.16l-0.029-0.088c-0.049-1.895,0.576-3.498,1.875-4.812c1.299-1.312,3.043-1.97,5.23-1.97
	s3.887,0.56,5.098,1.677c1.211,1.119,1.816,2.62,1.816,4.505c0,1.279-0.34,2.446-1.018,3.501c-0.68,1.055-1.85,2.515-3.51,4.38
	l-3.516,4.219l0.029,0.073h8.717V66.333z"/>
<circle fill="#ED342A" stroke="#FFFFFF" stroke-miterlimit="10" cx="360.208" cy="131.604" r="25.182"/>
<path fill="#FFFFFF" d="M359.046,129.483c1.016,0,1.77-0.264,2.264-0.791c0.492-0.527,0.74-1.27,0.74-2.227
	c0-0.801-0.26-1.465-0.777-1.992s-1.24-0.791-2.168-0.791c-0.781,0-1.438,0.239-1.969,0.718c-0.533,0.479-0.799,1.089-0.799,1.831
	h-4.131l-0.029-0.088c-0.059-1.67,0.586-3.047,1.934-4.131s3.012-1.626,4.994-1.626c2.207,0,3.961,0.521,5.26,1.56
	c1.299,1.041,1.947,2.532,1.947,4.476c0,0.977-0.281,1.873-0.842,2.688c-0.562,0.815-1.33,1.457-2.307,1.926
	c1.113,0.42,1.973,1.058,2.578,1.912s0.908,1.887,0.908,3.098c0,1.953-0.707,3.489-2.117,4.607
	c-1.412,1.118-3.221,1.677-5.428,1.677c-1.943,0-3.643-0.527-5.098-1.582s-2.158-2.534-2.109-4.438l0.029-0.088h4.16
	c0,0.801,0.281,1.473,0.844,2.014c0.561,0.543,1.285,0.813,2.174,0.813c0.977,0,1.768-0.288,2.373-0.864s0.908-1.304,0.908-2.183
	c0-1.123-0.283-1.956-0.85-2.497c-0.566-0.543-1.396-0.813-2.49-0.813h-2.357v-3.208H359.046z"/>
<path fill="#FFFFFF" d="M252.114,486.233c-0.098-1.074-1.135-1.857-2.314-1.75c-1.18,0.106-2.059,1.064-1.961,2.139l0.791,8.679
	l-1.543,0.142l-0.875-9.613c-0.115-1.252-1.164-2.18-2.344-2.072c-1.178,0.109-2.043,1.211-1.928,2.461l0.873,9.614l-1.711,0.157
	l-1.002-11.011c-0.115-1.252-1.164-2.177-2.344-2.071c-1.18,0.108-2.043,1.208-1.93,2.463l1.002,11.008l-1.676,0.152l-1.838-20.156
	c-0.131-1.427-1.396-2.48-2.826-2.352c-1.428,0.131-2.482,1.396-2.354,2.823l2.344,25.715l-1.549-0.522l-0.705-7.736
	c0,0-1.52,4.557-2.367,6.697c-0.533,1.335-0.84,3.004-0.727,4.434c0.229,2.798,10.227,11.94,13.777,11.634
	c2.654-0.229,11.447-1.02,12.975-1.296c3.404-0.61,2.869-4.5,2.869-4.5l-0.033-0.734l-2.604-24.303H252.114z"/>
<polygon fill="#FFFFFF" points="253.87,475.408 283.349,475.408 283.349,480.411 297.05,472.497 283.349,464.586 283.349,469.589 
	253.87,469.589 "/>
<polygon fill="#FFFFFF" points="201.61,469.589 172.132,469.589 172.132,464.586 158.431,472.5 172.132,480.411 172.132,475.408 
	201.61,475.408 "/>
<g>
	<text transform="matrix(1 0 0 1 75.9111 409.5869)"><tspan x="0" y="0" fill="#FFFFFF" font-family="'Noteworthy-Bold'" font-size="22">Tap Icon to add your media.</tspan><tspan x="0" y="31" fill="#FFFFFF" font-family="'Noteworthy-Bold'" font-size="22">Swipe to move between 5 clips. </tspan></text>
</g>
<g>
	
		<text transform="matrix(1 0 0 1 330.79 781.2715)" fill="#FFFFFF" font-family="'Roboto-LightItalic'" font-size="20" text-decoration=" underline">TAP TO CLOSE</text>
</g>
<g>
	<text transform="matrix(1 0 0 1 227.7402 52.5127)" fill="#FFFFFF" font-family="'Noteworthy-Bold'" font-size="22">Change the order of clips.</text>
</g>
<g>
	<g>
		<path fill="#FFFFFF" d="M176.073,245.081c1.104,0,1.482-1.414,0.172-1.414C175.142,243.667,174.763,245.081,176.073,245.081
			L176.073,245.081z"/>
	</g>
</g>
</svg>
